<?xml version="1.0" encoding="utf-8" standalone="no"?>
<!DOCTYPE svg PUBLIC "-//W3C//DTD SVG 1.1//EN"
  "http://www.w3.org/Graphics/SVG/1.1/DTD/svg11.dtd">
<svg xmlns:xlink="http://www.w3.org/1999/xlink" width="216pt" height="360pt" viewBox="0 0 216 360" xmlns="http://www.w3.org/2000/svg" version="1.1">
 <metadata>
  <rdf:RDF xmlns:dc="http://purl.org/dc/elements/1.1/" xmlns:cc="http://creativecommons.org/ns#" xmlns:rdf="http://www.w3.org/1999/02/22-rdf-syntax-ns#">
   <cc:Work>
    <dc:type rdf:resource="http://purl.org/dc/dcmitype/StillImage"/>
    <dc:date>2024-05-19T00:33:32.102340</dc:date>
    <dc:format>image/svg+xml</dc:format>
    <dc:creator>
     <cc:Agent>
      <dc:title>Matplotlib v3.7.0, https://matplotlib.org/</dc:title>
     </cc:Agent>
    </dc:creator>
   </cc:Work>
  </rdf:RDF>
 </metadata>
 <defs>
  <style type="text/css">*{stroke-linejoin: round; stroke-linecap: butt}</style>
 </defs>
 <g id="figure_1">
  <g id="patch_1">
   <path d="M 0 360 
L 216 360 
L 216 0 
L 0 0 
z
" style="fill: #ffffff"/>
  </g>
  <g id="axes_1">
   <g id="patch_2">
    <path d="M 27 169.2 
L 194.4 169.2 
L 194.4 43.2 
L 27 43.2 
z
" style="fill: #ffffff"/>
   </g>
   <g id="matplotlib.axis_1">
    <g id="xtick_1">
     <g id="line2d_1">
      <path d="M 27 169.2 
L 27 43.2 
" clip-path="url(#pd185dde131)" style="fill: none; stroke: #b0b0b0; stroke-width: 0.8; stroke-linecap: square"/>
     </g>
     <g id="line2d_2">
      <defs>
       <path id="maceaeda02f" d="M 0 0 
L 0 3.5 
" style="stroke: #000000; stroke-width: 0.8"/>
      </defs>
      <g>
       <use xlink:href="#maceaeda02f" x="27" y="169.2" style="stroke: #000000; stroke-width: 0.8"/>
      </g>
     </g>
     <g id="text_1">
      <!-- 0 -->
      <g transform="translate(24.5 183.14375) scale(0.1 -0.1)">
       <defs>
        <path id="TimesNewRomanPSMT-30" d="M 231 2094 
Q 231 2819 450 3342 
Q 669 3866 1031 4122 
Q 1313 4325 1613 4325 
Q 2100 4325 2488 3828 
Q 2972 3213 2972 2159 
Q 2972 1422 2759 906 
Q 2547 391 2217 158 
Q 1888 -75 1581 -75 
Q 975 -75 572 641 
Q 231 1244 231 2094 
z
M 844 2016 
Q 844 1141 1059 588 
Q 1238 122 1591 122 
Q 1759 122 1940 273 
Q 2122 425 2216 781 
Q 2359 1319 2359 2297 
Q 2359 3022 2209 3506 
Q 2097 3866 1919 4016 
Q 1791 4119 1609 4119 
Q 1397 4119 1231 3928 
Q 1006 3669 925 3112 
Q 844 2556 844 2016 
z
" transform="scale(0.015625)"/>
       </defs>
       <use xlink:href="#TimesNewRomanPSMT-30"/>
      </g>
     </g>
    </g>
    <g id="xtick_2">
     <g id="line2d_3">
      <path d="M 54.9 169.2 
L 54.9 43.2 
" clip-path="url(#pd185dde131)" style="fill: none; stroke: #b0b0b0; stroke-width: 0.8; stroke-linecap: square"/>
     </g>
     <g id="line2d_4">
      <g>
       <use xlink:href="#maceaeda02f" x="54.9" y="169.2" style="stroke: #000000; stroke-width: 0.8"/>
      </g>
     </g>
     <g id="text_2">
      <!-- 4 -->
      <g transform="translate(52.4 183.14375) scale(0.1 -0.1)">
       <defs>
        <path id="TimesNewRomanPSMT-34" d="M 2978 1563 
L 2978 1119 
L 2409 1119 
L 2409 0 
L 1894 0 
L 1894 1119 
L 100 1119 
L 100 1519 
L 2066 4325 
L 2409 4325 
L 2409 1563 
L 2978 1563 
z
M 1894 1563 
L 1894 3666 
L 406 1563 
L 1894 1563 
z
" transform="scale(0.015625)"/>
       </defs>
       <use xlink:href="#TimesNewRomanPSMT-34"/>
      </g>
     </g>
    </g>
    <g id="xtick_3">
     <g id="line2d_5">
      <path d="M 82.8 169.2 
L 82.8 43.2 
" clip-path="url(#pd185dde131)" style="fill: none; stroke: #b0b0b0; stroke-width: 0.8; stroke-linecap: square"/>
     </g>
     <g id="line2d_6">
      <g>
       <use xlink:href="#maceaeda02f" x="82.8" y="169.2" style="stroke: #000000; stroke-width: 0.8"/>
      </g>
     </g>
     <g id="text_3">
      <!-- 8 -->
      <g transform="translate(80.3 183.14375) scale(0.1 -0.1)">
       <defs>
        <path id="TimesNewRomanPSMT-38" d="M 1228 2134 
Q 725 2547 579 2797 
Q 434 3047 434 3316 
Q 434 3728 753 4026 
Q 1072 4325 1600 4325 
Q 2113 4325 2425 4047 
Q 2738 3769 2738 3413 
Q 2738 3175 2569 2928 
Q 2400 2681 1866 2347 
Q 2416 1922 2594 1678 
Q 2831 1359 2831 1006 
Q 2831 559 2490 242 
Q 2150 -75 1597 -75 
Q 994 -75 656 303 
Q 388 606 388 966 
Q 388 1247 577 1523 
Q 766 1800 1228 2134 
z
M 1719 2469 
Q 2094 2806 2194 3001 
Q 2294 3197 2294 3444 
Q 2294 3772 2109 3958 
Q 1925 4144 1606 4144 
Q 1288 4144 1088 3959 
Q 888 3775 888 3528 
Q 888 3366 970 3203 
Q 1053 3041 1206 2894 
L 1719 2469 
z
M 1375 2016 
Q 1116 1797 991 1539 
Q 866 1281 866 981 
Q 866 578 1086 336 
Q 1306 94 1647 94 
Q 1984 94 2187 284 
Q 2391 475 2391 747 
Q 2391 972 2272 1150 
Q 2050 1481 1375 2016 
z
" transform="scale(0.015625)"/>
       </defs>
       <use xlink:href="#TimesNewRomanPSMT-38"/>
      </g>
     </g>
    </g>
    <g id="xtick_4">
     <g id="line2d_7">
      <path d="M 110.7 169.2 
L 110.7 43.2 
" clip-path="url(#pd185dde131)" style="fill: none; stroke: #b0b0b0; stroke-width: 0.8; stroke-linecap: square"/>
     </g>
     <g id="line2d_8">
      <g>
       <use xlink:href="#maceaeda02f" x="110.7" y="169.2" style="stroke: #000000; stroke-width: 0.8"/>
      </g>
     </g>
     <g id="text_4">
      <!-- 12 -->
      <g transform="translate(105.7 183.14375) scale(0.1 -0.1)">
       <defs>
        <path id="TimesNewRomanPSMT-31" d="M 750 3822 
L 1781 4325 
L 1884 4325 
L 1884 747 
Q 1884 391 1914 303 
Q 1944 216 2037 169 
Q 2131 122 2419 116 
L 2419 0 
L 825 0 
L 825 116 
Q 1125 122 1212 167 
Q 1300 213 1334 289 
Q 1369 366 1369 747 
L 1369 3034 
Q 1369 3497 1338 3628 
Q 1316 3728 1258 3775 
Q 1200 3822 1119 3822 
Q 1003 3822 797 3725 
L 750 3822 
z
" transform="scale(0.015625)"/>
        <path id="TimesNewRomanPSMT-32" d="M 2934 816 
L 2638 0 
L 138 0 
L 138 116 
Q 1241 1122 1691 1759 
Q 2141 2397 2141 2925 
Q 2141 3328 1894 3587 
Q 1647 3847 1303 3847 
Q 991 3847 742 3664 
Q 494 3481 375 3128 
L 259 3128 
Q 338 3706 661 4015 
Q 984 4325 1469 4325 
Q 1984 4325 2329 3994 
Q 2675 3663 2675 3213 
Q 2675 2891 2525 2569 
Q 2294 2063 1775 1497 
Q 997 647 803 472 
L 1909 472 
Q 2247 472 2383 497 
Q 2519 522 2628 598 
Q 2738 675 2819 816 
L 2934 816 
z
" transform="scale(0.015625)"/>
       </defs>
       <use xlink:href="#TimesNewRomanPSMT-31"/>
       <use xlink:href="#TimesNewRomanPSMT-32" x="50"/>
      </g>
     </g>
    </g>
    <g id="xtick_5">
     <g id="line2d_9">
      <path d="M 138.6 169.2 
L 138.6 43.2 
" clip-path="url(#pd185dde131)" style="fill: none; stroke: #b0b0b0; stroke-width: 0.8; stroke-linecap: square"/>
     </g>
     <g id="line2d_10">
      <g>
       <use xlink:href="#maceaeda02f" x="138.6" y="169.2" style="stroke: #000000; stroke-width: 0.8"/>
      </g>
     </g>
     <g id="text_5">
      <!-- 16 -->
      <g transform="translate(133.6 183.14375) scale(0.1 -0.1)">
       <defs>
        <path id="TimesNewRomanPSMT-36" d="M 2869 4325 
L 2869 4209 
Q 2456 4169 2195 4045 
Q 1934 3922 1679 3669 
Q 1425 3416 1258 3105 
Q 1091 2794 978 2366 
Q 1428 2675 1881 2675 
Q 2316 2675 2634 2325 
Q 2953 1975 2953 1425 
Q 2953 894 2631 456 
Q 2244 -75 1606 -75 
Q 1172 -75 869 213 
Q 275 772 275 1663 
Q 275 2231 503 2743 
Q 731 3256 1154 3653 
Q 1578 4050 1965 4187 
Q 2353 4325 2688 4325 
L 2869 4325 
z
M 925 2138 
Q 869 1716 869 1456 
Q 869 1156 980 804 
Q 1091 453 1309 247 
Q 1469 100 1697 100 
Q 1969 100 2183 356 
Q 2397 613 2397 1088 
Q 2397 1622 2184 2012 
Q 1972 2403 1581 2403 
Q 1463 2403 1327 2353 
Q 1191 2303 925 2138 
z
" transform="scale(0.015625)"/>
       </defs>
       <use xlink:href="#TimesNewRomanPSMT-31"/>
       <use xlink:href="#TimesNewRomanPSMT-36" x="50"/>
      </g>
     </g>
    </g>
    <g id="xtick_6">
     <g id="line2d_11">
      <path d="M 166.5 169.2 
L 166.5 43.2 
" clip-path="url(#pd185dde131)" style="fill: none; stroke: #b0b0b0; stroke-width: 0.8; stroke-linecap: square"/>
     </g>
     <g id="line2d_12">
      <g>
       <use xlink:href="#maceaeda02f" x="166.5" y="169.2" style="stroke: #000000; stroke-width: 0.8"/>
      </g>
     </g>
     <g id="text_6">
      <!-- 20 -->
      <g transform="translate(161.5 183.14375) scale(0.1 -0.1)">
       <use xlink:href="#TimesNewRomanPSMT-32"/>
       <use xlink:href="#TimesNewRomanPSMT-30" x="50"/>
      </g>
     </g>
    </g>
    <g id="xtick_7">
     <g id="line2d_13">
      <path d="M 194.4 169.2 
L 194.4 43.2 
" clip-path="url(#pd185dde131)" style="fill: none; stroke: #b0b0b0; stroke-width: 0.8; stroke-linecap: square"/>
     </g>
     <g id="line2d_14">
      <g>
       <use xlink:href="#maceaeda02f" x="194.4" y="169.2" style="stroke: #000000; stroke-width: 0.8"/>
      </g>
     </g>
     <g id="text_7">
      <!-- 24 -->
      <g transform="translate(189.4 183.14375) scale(0.1 -0.1)">
       <use xlink:href="#TimesNewRomanPSMT-32"/>
       <use xlink:href="#TimesNewRomanPSMT-34" x="50"/>
      </g>
     </g>
    </g>
   </g>
   <g id="matplotlib.axis_2">
    <g id="ytick_1">
     <g id="line2d_15">
      <path d="M 27 155.826381 
L 194.4 155.826381 
" clip-path="url(#pd185dde131)" style="fill: none; stroke: #b0b0b0; stroke-width: 0.8; stroke-linecap: square"/>
     </g>
     <g id="line2d_16">
      <defs>
       <path id="m40f4986874" d="M 0 0 
L -3.5 0 
" style="stroke: #000000; stroke-width: 0.8"/>
      </defs>
      <g>
       <use xlink:href="#m40f4986874" x="27" y="155.826381" style="stroke: #000000; stroke-width: 0.8"/>
      </g>
     </g>
     <g id="text_8">
      <!-- 0.925 -->
      <g transform="translate(-2.5 159.298256) scale(0.1 -0.1)">
       <defs>
        <path id="TimesNewRomanPSMT-2e" d="M 800 606 
Q 947 606 1047 504 
Q 1147 403 1147 259 
Q 1147 116 1045 14 
Q 944 -88 800 -88 
Q 656 -88 554 14 
Q 453 116 453 259 
Q 453 406 554 506 
Q 656 606 800 606 
z
" transform="scale(0.015625)"/>
        <path id="TimesNewRomanPSMT-39" d="M 338 -88 
L 338 28 
Q 744 34 1094 217 
Q 1444 400 1770 856 
Q 2097 1313 2225 1859 
Q 1734 1544 1338 1544 
Q 891 1544 572 1889 
Q 253 2234 253 2806 
Q 253 3363 572 3797 
Q 956 4325 1575 4325 
Q 2097 4325 2469 3894 
Q 2925 3359 2925 2575 
Q 2925 1869 2578 1258 
Q 2231 647 1613 244 
Q 1109 -88 516 -88 
L 338 -88 
z
M 2275 2091 
Q 2331 2497 2331 2741 
Q 2331 3044 2228 3395 
Q 2125 3747 1936 3934 
Q 1747 4122 1506 4122 
Q 1228 4122 1018 3872 
Q 809 3622 809 3128 
Q 809 2469 1088 2097 
Q 1291 1828 1588 1828 
Q 1731 1828 1928 1897 
Q 2125 1966 2275 2091 
z
" transform="scale(0.015625)"/>
        <path id="TimesNewRomanPSMT-35" d="M 2778 4238 
L 2534 3706 
L 1259 3706 
L 981 3138 
Q 1809 3016 2294 2522 
Q 2709 2097 2709 1522 
Q 2709 1188 2573 903 
Q 2438 619 2231 419 
Q 2025 219 1772 97 
Q 1413 -75 1034 -75 
Q 653 -75 479 54 
Q 306 184 306 341 
Q 306 428 378 495 
Q 450 563 559 563 
Q 641 563 702 538 
Q 763 513 909 409 
Q 1144 247 1384 247 
Q 1750 247 2026 523 
Q 2303 800 2303 1197 
Q 2303 1581 2056 1914 
Q 1809 2247 1375 2428 
Q 1034 2569 447 2591 
L 1259 4238 
L 2778 4238 
z
" transform="scale(0.015625)"/>
       </defs>
       <use xlink:href="#TimesNewRomanPSMT-30"/>
       <use xlink:href="#TimesNewRomanPSMT-2e" x="50"/>
       <use xlink:href="#TimesNewRomanPSMT-39" x="75"/>
       <use xlink:href="#TimesNewRomanPSMT-32" x="125"/>
       <use xlink:href="#TimesNewRomanPSMT-35" x="175"/>
      </g>
     </g>
    </g>
    <g id="ytick_2">
     <g id="line2d_17">
      <path d="M 27 134.446559 
L 194.4 134.446559 
" clip-path="url(#pd185dde131)" style="fill: none; stroke: #b0b0b0; stroke-width: 0.8; stroke-linecap: square"/>
     </g>
     <g id="line2d_18">
      <g>
       <use xlink:href="#m40f4986874" x="27" y="134.446559" style="stroke: #000000; stroke-width: 0.8"/>
      </g>
     </g>
     <g id="text_9">
      <!-- 0.950 -->
      <g transform="translate(-2.5 137.918434) scale(0.1 -0.1)">
       <use xlink:href="#TimesNewRomanPSMT-30"/>
       <use xlink:href="#TimesNewRomanPSMT-2e" x="50"/>
       <use xlink:href="#TimesNewRomanPSMT-39" x="75"/>
       <use xlink:href="#TimesNewRomanPSMT-35" x="125"/>
       <use xlink:href="#TimesNewRomanPSMT-30" x="175"/>
      </g>
     </g>
    </g>
    <g id="ytick_3">
     <g id="line2d_19">
      <path d="M 27 113.066738 
L 194.4 113.066738 
" clip-path="url(#pd185dde131)" style="fill: none; stroke: #b0b0b0; stroke-width: 0.8; stroke-linecap: square"/>
     </g>
     <g id="line2d_20">
      <g>
       <use xlink:href="#m40f4986874" x="27" y="113.066738" style="stroke: #000000; stroke-width: 0.8"/>
      </g>
     </g>
     <g id="text_10">
      <!-- 0.975 -->
      <g transform="translate(-2.5 116.538613) scale(0.1 -0.1)">
       <defs>
        <path id="TimesNewRomanPSMT-37" d="M 644 4238 
L 2916 4238 
L 2916 4119 
L 1503 -88 
L 1153 -88 
L 2419 3728 
L 1253 3728 
Q 900 3728 750 3644 
Q 488 3500 328 3200 
L 238 3234 
L 644 4238 
z
" transform="scale(0.015625)"/>
       </defs>
       <use xlink:href="#TimesNewRomanPSMT-30"/>
       <use xlink:href="#TimesNewRomanPSMT-2e" x="50"/>
       <use xlink:href="#TimesNewRomanPSMT-39" x="75"/>
       <use xlink:href="#TimesNewRomanPSMT-37" x="125"/>
       <use xlink:href="#TimesNewRomanPSMT-35" x="175"/>
      </g>
     </g>
    </g>
    <g id="ytick_4">
     <g id="line2d_21">
      <path d="M 27 91.686916 
L 194.4 91.686916 
" clip-path="url(#pd185dde131)" style="fill: none; stroke: #b0b0b0; stroke-width: 0.8; stroke-linecap: square"/>
     </g>
     <g id="line2d_22">
      <g>
       <use xlink:href="#m40f4986874" x="27" y="91.686916" style="stroke: #000000; stroke-width: 0.8"/>
      </g>
     </g>
     <g id="text_11">
      <!-- 1.000 -->
      <g transform="translate(-2.5 95.158791) scale(0.1 -0.1)">
       <use xlink:href="#TimesNewRomanPSMT-31"/>
       <use xlink:href="#TimesNewRomanPSMT-2e" x="50"/>
       <use xlink:href="#TimesNewRomanPSMT-30" x="75"/>
       <use xlink:href="#TimesNewRomanPSMT-30" x="125"/>
       <use xlink:href="#TimesNewRomanPSMT-30" x="175"/>
      </g>
     </g>
    </g>
    <g id="ytick_5">
     <g id="line2d_23">
      <path d="M 27 70.307094 
L 194.4 70.307094 
" clip-path="url(#pd185dde131)" style="fill: none; stroke: #b0b0b0; stroke-width: 0.8; stroke-linecap: square"/>
     </g>
     <g id="line2d_24">
      <g>
       <use xlink:href="#m40f4986874" x="27" y="70.307094" style="stroke: #000000; stroke-width: 0.8"/>
      </g>
     </g>
     <g id="text_12">
      <!-- 1.025 -->
      <g transform="translate(-2.5 73.778969) scale(0.1 -0.1)">
       <use xlink:href="#TimesNewRomanPSMT-31"/>
       <use xlink:href="#TimesNewRomanPSMT-2e" x="50"/>
       <use xlink:href="#TimesNewRomanPSMT-30" x="75"/>
       <use xlink:href="#TimesNewRomanPSMT-32" x="125"/>
       <use xlink:href="#TimesNewRomanPSMT-35" x="175"/>
      </g>
     </g>
    </g>
    <g id="ytick_6">
     <g id="line2d_25">
      <path d="M 27 48.927273 
L 194.4 48.927273 
" clip-path="url(#pd185dde131)" style="fill: none; stroke: #b0b0b0; stroke-width: 0.8; stroke-linecap: square"/>
     </g>
     <g id="line2d_26">
      <g>
       <use xlink:href="#m40f4986874" x="27" y="48.927273" style="stroke: #000000; stroke-width: 0.8"/>
      </g>
     </g>
     <g id="text_13">
      <!-- 1.050 -->
      <g transform="translate(-2.5 52.399148) scale(0.1 -0.1)">
       <use xlink:href="#TimesNewRomanPSMT-31"/>
       <use xlink:href="#TimesNewRomanPSMT-2e" x="50"/>
       <use xlink:href="#TimesNewRomanPSMT-30" x="75"/>
       <use xlink:href="#TimesNewRomanPSMT-35" x="125"/>
       <use xlink:href="#TimesNewRomanPSMT-30" x="175"/>
      </g>
     </g>
    </g>
    <g id="text_14">
     <!-- Voltages (pu) -->
     <g transform="translate(-8.657813 132.910156) rotate(-90) scale(0.1 -0.1)">
      <defs>
       <path id="TimesNewRomanPSMT-56" d="M 4544 4238 
L 4544 4122 
Q 4319 4081 4203 3978 
Q 4038 3825 3909 3509 
L 2431 -97 
L 2316 -97 
L 728 3556 
Q 606 3838 556 3900 
Q 478 3997 364 4051 
Q 250 4106 56 4122 
L 56 4238 
L 1788 4238 
L 1788 4122 
Q 1494 4094 1406 4022 
Q 1319 3950 1319 3838 
Q 1319 3681 1463 3350 
L 2541 866 
L 3541 3319 
Q 3688 3681 3688 3822 
Q 3688 3913 3597 3995 
Q 3506 4078 3291 4113 
Q 3275 4116 3238 4122 
L 3238 4238 
L 4544 4238 
z
" transform="scale(0.015625)"/>
       <path id="TimesNewRomanPSMT-6f" d="M 1600 2947 
Q 2250 2947 2644 2453 
Q 2978 2031 2978 1484 
Q 2978 1100 2793 706 
Q 2609 313 2286 112 
Q 1963 -88 1566 -88 
Q 919 -88 538 428 
Q 216 863 216 1403 
Q 216 1797 411 2186 
Q 606 2575 925 2761 
Q 1244 2947 1600 2947 
z
M 1503 2744 
Q 1338 2744 1170 2645 
Q 1003 2547 900 2300 
Q 797 2053 797 1666 
Q 797 1041 1045 587 
Q 1294 134 1700 134 
Q 2003 134 2200 384 
Q 2397 634 2397 1244 
Q 2397 2006 2069 2444 
Q 1847 2744 1503 2744 
z
" transform="scale(0.015625)"/>
       <path id="TimesNewRomanPSMT-6c" d="M 1184 4444 
L 1184 647 
Q 1184 378 1223 290 
Q 1263 203 1344 158 
Q 1425 113 1647 113 
L 1647 0 
L 244 0 
L 244 113 
Q 441 113 512 153 
Q 584 194 625 287 
Q 666 381 666 647 
L 666 3247 
Q 666 3731 644 3842 
Q 622 3953 573 3993 
Q 525 4034 450 4034 
Q 369 4034 244 3984 
L 191 4094 
L 1044 4444 
L 1184 4444 
z
" transform="scale(0.015625)"/>
       <path id="TimesNewRomanPSMT-74" d="M 1031 3803 
L 1031 2863 
L 1700 2863 
L 1700 2644 
L 1031 2644 
L 1031 788 
Q 1031 509 1111 412 
Q 1191 316 1316 316 
Q 1419 316 1516 380 
Q 1613 444 1666 569 
L 1788 569 
Q 1678 263 1478 108 
Q 1278 -47 1066 -47 
Q 922 -47 784 33 
Q 647 113 581 261 
Q 516 409 516 719 
L 516 2644 
L 63 2644 
L 63 2747 
Q 234 2816 414 2980 
Q 594 3144 734 3369 
Q 806 3488 934 3803 
L 1031 3803 
z
" transform="scale(0.015625)"/>
       <path id="TimesNewRomanPSMT-61" d="M 1822 413 
Q 1381 72 1269 19 
Q 1100 -59 909 -59 
Q 613 -59 420 144 
Q 228 347 228 678 
Q 228 888 322 1041 
Q 450 1253 767 1440 
Q 1084 1628 1822 1897 
L 1822 2009 
Q 1822 2438 1686 2597 
Q 1550 2756 1291 2756 
Q 1094 2756 978 2650 
Q 859 2544 859 2406 
L 866 2225 
Q 866 2081 792 2003 
Q 719 1925 600 1925 
Q 484 1925 411 2006 
Q 338 2088 338 2228 
Q 338 2497 613 2722 
Q 888 2947 1384 2947 
Q 1766 2947 2009 2819 
Q 2194 2722 2281 2516 
Q 2338 2381 2338 1966 
L 2338 994 
Q 2338 584 2353 492 
Q 2369 400 2405 369 
Q 2441 338 2488 338 
Q 2538 338 2575 359 
Q 2641 400 2828 588 
L 2828 413 
Q 2478 -56 2159 -56 
Q 2006 -56 1915 50 
Q 1825 156 1822 413 
z
M 1822 616 
L 1822 1706 
Q 1350 1519 1213 1441 
Q 966 1303 859 1153 
Q 753 1003 753 825 
Q 753 600 887 451 
Q 1022 303 1197 303 
Q 1434 303 1822 616 
z
" transform="scale(0.015625)"/>
       <path id="TimesNewRomanPSMT-67" d="M 966 1044 
Q 703 1172 562 1401 
Q 422 1631 422 1909 
Q 422 2334 742 2640 
Q 1063 2947 1563 2947 
Q 1972 2947 2272 2747 
L 2878 2747 
Q 3013 2747 3034 2739 
Q 3056 2731 3066 2713 
Q 3084 2684 3084 2613 
Q 3084 2531 3069 2500 
Q 3059 2484 3036 2475 
Q 3013 2466 2878 2466 
L 2506 2466 
Q 2681 2241 2681 1891 
Q 2681 1491 2375 1206 
Q 2069 922 1553 922 
Q 1341 922 1119 984 
Q 981 866 932 777 
Q 884 688 884 625 
Q 884 572 936 522 
Q 988 472 1138 450 
Q 1225 438 1575 428 
Q 2219 413 2409 384 
Q 2700 344 2873 169 
Q 3047 -6 3047 -263 
Q 3047 -616 2716 -925 
Q 2228 -1381 1444 -1381 
Q 841 -1381 425 -1109 
Q 191 -953 191 -784 
Q 191 -709 225 -634 
Q 278 -519 444 -313 
Q 466 -284 763 25 
Q 600 122 533 198 
Q 466 275 466 372 
Q 466 481 555 628 
Q 644 775 966 1044 
z
M 1509 2797 
Q 1278 2797 1122 2612 
Q 966 2428 966 2047 
Q 966 1553 1178 1281 
Q 1341 1075 1591 1075 
Q 1828 1075 1981 1253 
Q 2134 1431 2134 1813 
Q 2134 2309 1919 2591 
Q 1759 2797 1509 2797 
z
M 934 0 
Q 788 -159 713 -296 
Q 638 -434 638 -550 
Q 638 -700 819 -813 
Q 1131 -1006 1722 -1006 
Q 2284 -1006 2551 -807 
Q 2819 -609 2819 -384 
Q 2819 -222 2659 -153 
Q 2497 -84 2016 -72 
Q 1313 -53 934 0 
z
" transform="scale(0.015625)"/>
       <path id="TimesNewRomanPSMT-65" d="M 681 1784 
Q 678 1147 991 784 
Q 1303 422 1725 422 
Q 2006 422 2214 576 
Q 2422 731 2563 1106 
L 2659 1044 
Q 2594 616 2278 264 
Q 1963 -88 1488 -88 
Q 972 -88 605 314 
Q 238 716 238 1394 
Q 238 2128 614 2539 
Q 991 2950 1559 2950 
Q 2041 2950 2350 2633 
Q 2659 2316 2659 1784 
L 681 1784 
z
M 681 1966 
L 2006 1966 
Q 1991 2241 1941 2353 
Q 1863 2528 1708 2628 
Q 1553 2728 1384 2728 
Q 1125 2728 920 2526 
Q 716 2325 681 1966 
z
" transform="scale(0.015625)"/>
       <path id="TimesNewRomanPSMT-73" d="M 2050 2947 
L 2050 1972 
L 1947 1972 
Q 1828 2431 1642 2597 
Q 1456 2763 1169 2763 
Q 950 2763 815 2647 
Q 681 2531 681 2391 
Q 681 2216 781 2091 
Q 878 1963 1175 1819 
L 1631 1597 
Q 2266 1288 2266 781 
Q 2266 391 1970 151 
Q 1675 -88 1309 -88 
Q 1047 -88 709 6 
Q 606 38 541 38 
Q 469 38 428 -44 
L 325 -44 
L 325 978 
L 428 978 
Q 516 541 762 319 
Q 1009 97 1316 97 
Q 1531 97 1667 223 
Q 1803 350 1803 528 
Q 1803 744 1651 891 
Q 1500 1038 1047 1263 
Q 594 1488 453 1669 
Q 313 1847 313 2119 
Q 313 2472 555 2709 
Q 797 2947 1181 2947 
Q 1350 2947 1591 2875 
Q 1750 2828 1803 2828 
Q 1853 2828 1881 2850 
Q 1909 2872 1947 2947 
L 2050 2947 
z
" transform="scale(0.015625)"/>
       <path id="TimesNewRomanPSMT-20" transform="scale(0.015625)"/>
       <path id="TimesNewRomanPSMT-28" d="M 1988 -1253 
L 1988 -1369 
Q 1516 -1131 1200 -813 
Q 750 -359 506 256 
Q 263 872 263 1534 
Q 263 2503 741 3301 
Q 1219 4100 1988 4444 
L 1988 4313 
Q 1603 4100 1356 3731 
Q 1109 3363 987 2797 
Q 866 2231 866 1616 
Q 866 947 969 400 
Q 1050 -31 1165 -292 
Q 1281 -553 1476 -793 
Q 1672 -1034 1988 -1253 
z
" transform="scale(0.015625)"/>
       <path id="TimesNewRomanPSMT-70" d="M -6 2578 
L 875 2934 
L 994 2934 
L 994 2266 
Q 1216 2644 1439 2795 
Q 1663 2947 1909 2947 
Q 2341 2947 2628 2609 
Q 2981 2197 2981 1534 
Q 2981 794 2556 309 
Q 2206 -88 1675 -88 
Q 1444 -88 1275 -22 
Q 1150 25 994 166 
L 994 -706 
Q 994 -1000 1030 -1079 
Q 1066 -1159 1155 -1206 
Q 1244 -1253 1478 -1253 
L 1478 -1369 
L -22 -1369 
L -22 -1253 
L 56 -1253 
Q 228 -1256 350 -1188 
Q 409 -1153 442 -1076 
Q 475 -1000 475 -688 
L 475 2019 
Q 475 2297 450 2372 
Q 425 2447 370 2484 
Q 316 2522 222 2522 
Q 147 2522 31 2478 
L -6 2578 
z
M 994 2081 
L 994 1013 
Q 994 666 1022 556 
Q 1066 375 1236 237 
Q 1406 100 1666 100 
Q 1978 100 2172 344 
Q 2425 663 2425 1241 
Q 2425 1897 2138 2250 
Q 1938 2494 1663 2494 
Q 1513 2494 1366 2419 
Q 1253 2363 994 2081 
z
" transform="scale(0.015625)"/>
       <path id="TimesNewRomanPSMT-75" d="M 2709 2863 
L 2709 1128 
Q 2709 631 2732 520 
Q 2756 409 2807 365 
Q 2859 322 2928 322 
Q 3025 322 3147 375 
L 3191 266 
L 2334 -88 
L 2194 -88 
L 2194 519 
Q 1825 119 1631 15 
Q 1438 -88 1222 -88 
Q 981 -88 804 51 
Q 628 191 559 409 
Q 491 628 491 1028 
L 491 2306 
Q 491 2509 447 2587 
Q 403 2666 317 2708 
Q 231 2750 6 2747 
L 6 2863 
L 1009 2863 
L 1009 947 
Q 1009 547 1148 422 
Q 1288 297 1484 297 
Q 1619 297 1789 381 
Q 1959 466 2194 703 
L 2194 2325 
Q 2194 2569 2105 2655 
Q 2016 2741 1734 2747 
L 1734 2863 
L 2709 2863 
z
" transform="scale(0.015625)"/>
       <path id="TimesNewRomanPSMT-29" d="M 144 4313 
L 144 4444 
Q 619 4209 934 3891 
Q 1381 3434 1625 2820 
Q 1869 2206 1869 1541 
Q 1869 572 1392 -226 
Q 916 -1025 144 -1369 
L 144 -1253 
Q 528 -1038 776 -670 
Q 1025 -303 1145 264 
Q 1266 831 1266 1447 
Q 1266 2113 1163 2663 
Q 1084 3094 967 3353 
Q 850 3613 656 3853 
Q 463 4094 144 4313 
z
" transform="scale(0.015625)"/>
      </defs>
      <use xlink:href="#TimesNewRomanPSMT-56"/>
      <use xlink:href="#TimesNewRomanPSMT-6f" x="59.341797"/>
      <use xlink:href="#TimesNewRomanPSMT-6c" x="109.341797"/>
      <use xlink:href="#TimesNewRomanPSMT-74" x="137.125"/>
      <use xlink:href="#TimesNewRomanPSMT-61" x="164.908203"/>
      <use xlink:href="#TimesNewRomanPSMT-67" x="209.292969"/>
      <use xlink:href="#TimesNewRomanPSMT-65" x="259.292969"/>
      <use xlink:href="#TimesNewRomanPSMT-73" x="303.677734"/>
      <use xlink:href="#TimesNewRomanPSMT-20" x="342.59375"/>
      <use xlink:href="#TimesNewRomanPSMT-28" x="367.59375"/>
      <use xlink:href="#TimesNewRomanPSMT-70" x="400.894531"/>
      <use xlink:href="#TimesNewRomanPSMT-75" x="450.894531"/>
      <use xlink:href="#TimesNewRomanPSMT-29" x="500.894531"/>
     </g>
    </g>
   </g>
   <g id="line2d_27">
    <path d="M -1 70.783631 
L 29.09622 70.783631 
L 30.43542 71.357589 
L 35.79222 71.357589 
L 37.13142 70.900192 
L 42.48822 70.900192 
L 43.82742 70.34723 
L 49.18422 70.34723 
L 50.52342 69.894356 
L 62.57622 69.896401 
L 63.91542 69.367921 
L 69.27222 69.367921 
L 70.61142 69.910603 
L 75.96822 69.910603 
L 77.30742 67.910046 
L 82.66422 67.910046 
L 84.00342 67.441767 
L 89.36022 67.441767 
L 90.69942 67.922057 
L 109.44822 67.971778 
L 110.78742 68.991204 
L 116.14422 68.991204 
L 117.48342 69.973772 
L 129.53622 69.967198 
L 130.87542 69.020148 
L 142.92822 69.047972 
L 144.26742 72.823018 
L 149.62422 72.823018 
L 150.96342 77.985283 
L 156.32022 77.985283 
L 157.65942 85.291166 
L 163.01622 85.291166 
L 164.35542 83.251822 
L 169.71222 83.251822 
L 171.05142 80.111322 
L 176.40822 80.111322 
L 177.74742 75.925944 
L 183.10422 75.925944 
L 184.44342 70.783631 
L 209.88822 70.783631 
L 209.88822 70.783631 
" clip-path="url(#pd185dde131)" style="fill: none; stroke: #d9524f; stroke-width: 1.5; stroke-linecap: square"/>
   </g>
   <g id="line2d_28">
    <path d="M -1 74.368057 
L 29.09622 74.368057 
L 30.43542 75.043608 
L 35.79222 75.043608 
L 37.13142 74.503272 
L 42.48822 74.503272 
L 43.82742 73.852727 
L 49.18422 73.852727 
L 50.52342 73.320097 
L 62.57622 73.324453 
L 63.91542 72.703807 
L 69.27222 72.703807 
L 70.61142 73.354961 
L 75.96822 73.354961 
L 77.30742 71.015201 
L 82.66422 71.015201 
L 84.00342 70.481963 
L 89.36022 70.481963 
L 90.69942 71.084517 
L 109.44822 71.156319 
L 110.78742 72.360584 
L 116.14422 72.360584 
L 117.48342 73.518329 
L 129.53622 73.50406 
L 130.87542 72.385411 
L 142.92822 72.451685 
L 144.26742 76.914813 
L 149.62422 76.914813 
L 150.96342 82.980975 
L 156.32022 82.980975 
L 157.65942 91.606186 
L 163.01622 91.606186 
L 164.35542 89.154404 
L 169.71222 89.154404 
L 171.05142 85.385741 
L 176.40822 85.385741 
L 177.74742 80.431332 
L 183.10422 80.431332 
L 184.44342 74.368057 
L 209.88822 74.368057 
L 209.88822 74.368057 
" clip-path="url(#pd185dde131)" style="fill: none; stroke: #d9524f; stroke-width: 1.5; stroke-linecap: square"/>
   </g>
   <g id="line2d_29">
    <path d="M -1 77.952969 
L 29.09622 77.952969 
L 30.43542 78.730152 
L 35.79222 78.730152 
L 37.13142 78.106846 
L 42.48822 78.106846 
L 43.82742 77.358682 
L 49.18422 77.358682 
L 50.52342 76.746265 
L 62.57622 76.752932 
L 63.91542 76.040083 
L 69.27222 76.040083 
L 70.61142 76.79974 
L 75.96822 76.79974 
L 77.30742 74.120629 
L 82.66422 74.120629 
L 84.00342 73.522388 
L 89.36022 73.522388 
L 90.69942 74.247221 
L 109.44822 74.341099 
L 110.78742 75.730273 
L 116.14422 75.730273 
L 117.48342 77.063266 
L 129.53622 77.041305 
L 130.87542 75.750991 
L 142.92822 75.8557 
L 144.26742 81.007165 
L 149.62422 81.007165 
L 150.96342 87.97756 
L 156.32022 87.97756 
L 157.65942 97.922497 
L 163.01622 97.922497 
L 164.35542 95.058178 
L 169.71222 95.058178 
L 171.05142 90.661196 
L 176.40822 90.661196 
L 177.74742 84.937526 
L 183.10422 84.937526 
L 184.44342 77.952969 
L 209.88822 77.952969 
L 209.88822 77.952969 
" clip-path="url(#pd185dde131)" style="fill: none; stroke: #d9524f; stroke-width: 1.5; stroke-linecap: square"/>
   </g>
   <g id="line2d_30">
    <path d="M -1 81.25347 
L 29.09622 81.25347 
L 30.43542 82.119207 
L 35.79222 82.119207 
L 37.13142 81.423309 
L 42.48822 81.423309 
L 43.82742 80.59013 
L 49.18422 80.59013 
L 50.52342 79.90826 
L 62.57622 79.917236 
L 63.91542 79.12429 
L 69.27222 79.12429 
L 70.61142 79.980323 
L 75.96822 79.980323 
L 77.30742 77.007911 
L 82.66422 77.007911 
L 84.00342 76.355776 
L 89.36022 76.355776 
L 90.69942 77.192597 
L 102.75222 77.278608 
L 108.10902 77.307644 
L 109.44822 77.307644 
L 110.78742 78.858501 
L 116.14422 78.858501 
L 117.48342 80.344328 
L 129.53622 80.314684 
L 130.87542 78.874228 
L 136.23222 78.874228 
L 137.57142 79.017326 
L 142.92822 79.017326 
L 144.26742 84.771473 
L 149.62422 84.771473 
L 150.96342 92.529231 
L 156.32022 92.529231 
L 157.65942 103.631343 
L 163.01622 103.631343 
L 164.35542 100.398746 
L 169.71222 100.398746 
L 171.05142 95.442182 
L 176.40822 95.442182 
L 177.74742 89.042847 
L 183.10422 89.042847 
L 184.44342 81.25347 
L 209.88822 81.25347 
L 209.88822 81.25347 
" clip-path="url(#pd185dde131)" style="fill: none; stroke: #d9524f; stroke-width: 1.5; stroke-linecap: square"/>
   </g>
   <g id="line2d_31">
    <path d="M -1 83.516771 
L 29.09622 83.516771 
L 30.43542 84.420873 
L 35.79222 84.420873 
L 37.13142 83.692229 
L 42.48822 83.692229 
L 43.82742 82.822231 
L 49.18422 82.822231 
L 50.52342 82.110257 
L 62.57622 82.121529 
L 63.91542 81.294403 
L 69.27222 81.294403 
L 70.61142 82.200815 
L 75.96822 82.200815 
L 77.30742 79.108704 
L 82.66422 79.108704 
L 84.00342 78.444135 
L 89.36022 78.444135 
L 90.69942 79.354555 
L 102.75222 79.45039 
L 108.10902 79.487376 
L 109.44822 79.487376 
L 110.78742 81.112688 
L 116.14422 81.112688 
L 117.48342 82.666498 
L 129.53622 82.62921 
L 130.87542 81.120102 
L 136.23222 81.120102 
L 137.57142 81.301417 
L 142.92822 81.301417 
L 144.26742 87.330031 
L 149.62422 87.330031 
L 150.96342 95.409305 
L 156.32022 95.409305 
L 157.65942 106.978825 
L 163.01622 106.978825 
L 164.35542 103.571398 
L 169.71222 103.571398 
L 171.05142 98.347236 
L 176.40822 98.347236 
L 177.74742 91.654985 
L 183.10422 91.654985 
L 184.44342 83.516771 
L 209.88822 83.516771 
L 209.88822 83.516771 
" clip-path="url(#pd185dde131)" style="fill: none; stroke: #d9524f; stroke-width: 1.5; stroke-linecap: square"/>
   </g>
   <g id="line2d_32">
    <path d="M -1 85.780043 
L 29.09622 85.780043 
L 30.43542 86.722518 
L 35.79222 86.722518 
L 37.13142 85.961123 
L 42.48822 85.961123 
L 43.82742 85.054297 
L 49.18422 85.054297 
L 50.52342 84.312211 
L 62.57622 84.325779 
L 63.91542 83.464462 
L 69.27222 83.464462 
L 70.61142 84.421261 
L 75.96822 84.421261 
L 77.30742 81.209399 
L 82.66422 81.209399 
L 84.00342 80.532375 
L 89.36022 80.532375 
L 90.69942 81.516393 
L 102.75222 81.622051 
L 106.76982 81.666983 
L 109.44822 81.666983 
L 110.78742 83.36678 
L 116.14422 83.36678 
L 117.48342 84.988596 
L 129.53622 84.943666 
L 130.87542 83.365884 
L 136.23222 83.365884 
L 137.57142 83.585404 
L 142.92822 83.585404 
L 144.26742 89.888561 
L 149.62422 89.888561 
L 150.96342 98.289374 
L 156.32022 98.289374 
L 157.65942 110.326135 
L 163.01622 110.326135 
L 164.35542 106.743931 
L 169.71222 106.743931 
L 171.05142 101.252233 
L 176.40822 101.252233 
L 177.74742 94.267119 
L 183.10422 94.267119 
L 184.44342 85.780043 
L 209.88822 85.780043 
L 209.88822 85.780043 
" clip-path="url(#pd185dde131)" style="fill: none; stroke: #d9524f; stroke-width: 1.5; stroke-linecap: square"/>
   </g>
   <g id="line2d_33">
    <path d="M -1 86.978799 
L 29.09622 86.978799 
L 30.43542 87.909886 
L 35.79222 87.909886 
L 37.13142 87.155237 
L 42.48822 87.155237 
L 43.82742 86.259493 
L 49.18422 86.259493 
L 50.52342 85.526526 
L 62.57622 85.542374 
L 63.91542 84.692771 
L 69.27222 84.692771 
L 70.61142 85.653936 
L 75.96822 85.653936 
L 77.30742 82.496605 
L 82.66422 82.496605 
L 84.00342 81.849017 
L 89.36022 81.849017 
L 90.69942 82.867733 
L 96.05622 82.867733 
L 97.39542 82.979805 
L 109.44822 83.032638 
L 110.78742 84.71906 
L 116.14422 84.71906 
L 117.48342 86.323901 
L 129.53622 86.271383 
L 130.87542 84.706539 
L 136.23222 84.706539 
L 137.57142 84.964016 
L 142.92822 84.964016 
L 144.26742 91.215702 
L 149.62422 91.215702 
L 150.96342 99.488359 
L 156.32022 99.488359 
L 157.65942 111.356388 
L 163.01622 111.356388 
L 164.35542 107.774197 
L 169.71222 107.774197 
L 171.05142 102.284351 
L 176.40822 102.284351 
L 177.74742 95.369017 
L 183.10422 95.369017 
L 184.44342 86.978799 
L 209.88822 86.978799 
L 209.88822 86.978799 
" clip-path="url(#pd185dde131)" style="fill: none; stroke: #d9524f; stroke-width: 1.5; stroke-linecap: square"/>
   </g>
   <g id="line2d_34">
    <path d="M -1 88.177554 
L 29.09622 88.177554 
L 30.43542 89.097255 
L 35.79222 89.097255 
L 37.13142 88.349351 
L 42.48822 88.349351 
L 43.82742 87.464686 
L 49.18422 87.464686 
L 50.52342 86.740834 
L 62.57622 86.758962 
L 63.91542 85.921067 
L 69.27222 85.921067 
L 70.61142 86.886603 
L 75.96822 86.886603 
L 77.30742 83.783768 
L 82.66422 83.783768 
L 84.00342 83.165598 
L 89.36022 83.165598 
L 90.69942 84.219013 
L 96.05622 84.219013 
L 97.39542 84.337498 
L 109.44822 84.39823 
L 110.78742 86.071301 
L 116.14422 86.071301 
L 117.48342 87.659185 
L 129.53622 87.599081 
L 130.87542 86.047157 
L 136.23222 86.047157 
L 137.57142 86.342585 
L 142.92822 86.342585 
L 144.26742 92.542842 
L 149.62422 92.542842 
L 150.96342 100.687254 
L 156.32022 100.687254 
L 157.65942 112.386109 
L 163.01622 112.386109 
L 164.35542 108.80406 
L 169.71222 108.80406 
L 171.05142 103.316231 
L 176.40822 103.316231 
L 177.74742 96.47085 
L 183.10422 96.47085 
L 184.44342 88.177554 
L 209.88822 88.177554 
L 209.88822 88.177554 
" clip-path="url(#pd185dde131)" style="fill: none; stroke: #d9524f; stroke-width: 1.5; stroke-linecap: square"/>
   </g>
   <g id="line2d_35">
    <path d="M -1 89.375411 
L 29.09622 89.375411 
L 30.43542 90.28369 
L 35.79222 90.28369 
L 37.13142 89.54256 
L 42.48822 89.54256 
L 43.82742 88.669008 
L 49.18422 88.669008 
L 50.52342 87.954296 
L 62.57622 87.974703 
L 63.91542 87.148544 
L 69.27222 87.148544 
L 70.61142 88.118421 
L 75.96822 88.118421 
L 77.30742 85.070172 
L 82.66422 85.070172 
L 84.00342 84.481433 
L 89.36022 84.481433 
L 90.69942 85.569518 
L 96.05622 85.569518 
L 97.39542 85.694413 
L 109.44822 85.763041 
L 110.78742 87.42272 
L 116.14422 87.42272 
L 117.48342 88.993604 
L 129.53622 88.925914 
L 130.87542 87.386955 
L 136.23222 87.386955 
L 137.57142 87.720323 
L 142.92822 87.720323 
L 144.26742 93.868954 
L 149.62422 93.868954 
L 150.96342 101.8847 
L 156.32022 101.8847 
L 157.65942 113.413464 
L 163.01622 113.413464 
L 164.35542 109.83182 
L 169.71222 109.83182 
L 171.05142 104.346377 
L 176.40822 104.346377 
L 177.74742 97.57139 
L 183.10422 97.57139 
L 184.44342 89.375411 
L 209.88822 89.375411 
L 209.88822 89.375411 
" clip-path="url(#pd185dde131)" style="fill: none; stroke: #d9524f; stroke-width: 1.5; stroke-linecap: square"/>
   </g>
   <g id="line2d_36">
    <path d="M -1 89.895628 
L 29.09622 89.895628 
L 30.43542 90.761003 
L 35.79222 90.761003 
L 37.13142 90.051641 
L 42.48822 90.051641 
L 43.82742 89.219524 
L 49.18422 89.219524 
L 50.52342 88.538794 
L 62.57622 88.561465 
L 63.91542 87.776123 
L 69.27222 87.776123 
L 70.61142 88.721151 
L 75.96822 88.721151 
L 77.30742 85.837956 
L 82.66422 85.837956 
L 84.00342 85.305202 
L 89.36022 85.305202 
L 90.69942 86.403182 
L 96.05622 86.403182 
L 97.39542 86.532309 
L 109.44822 86.608789 
L 110.78742 88.19932 
L 116.14422 88.19932 
L 117.48342 89.699329 
L 129.53622 89.624106 
L 130.87542 88.149853 
L 136.23222 88.149853 
L 137.57142 88.520926 
L 142.92822 88.520926 
L 144.26742 94.411472 
L 149.62422 94.411472 
L 150.96342 102.015176 
L 156.32022 102.015176 
L 157.65942 112.975773 
L 163.01622 112.975773 
L 164.35542 109.503816 
L 169.71222 109.503816 
L 171.05142 104.189613 
L 176.40822 104.189613 
L 177.74742 97.712911 
L 183.10422 97.712911 
L 184.44342 89.895628 
L 209.88822 89.895628 
L 209.88822 89.895628 
" clip-path="url(#pd185dde131)" style="fill: none; stroke: #d9524f; stroke-width: 1.5; stroke-linecap: square"/>
   </g>
   <g id="line2d_37">
    <path d="M -1 79.246775 
L 29.09622 79.246775 
L 30.43542 80.083518 
L 35.79222 80.083518 
L 37.13142 79.412955 
L 42.48822 79.412955 
L 43.82742 78.60738 
L 49.18422 78.60738 
L 50.52342 77.947891 
L 62.57622 77.954567 
L 63.91542 77.186565 
L 69.27222 77.186565 
L 70.61142 78.00144 
L 75.96822 78.00144 
L 77.30742 75.112521 
L 82.66422 75.112521 
L 84.00342 74.463636 
L 89.36022 74.463636 
L 90.69942 75.235256 
L 109.44822 75.333243 
L 110.78742 76.828227 
L 116.14422 76.828227 
L 117.48342 78.263323 
L 129.53622 78.241331 
L 130.87542 76.85298 
L 142.92822 76.957822 
L 144.26742 82.499439 
L 149.62422 82.499439 
L 150.96342 90.002055 
L 156.32022 90.002055 
L 157.65942 100.686845 
L 163.01622 100.686845 
L 164.35542 97.621137 
L 169.71222 97.621137 
L 171.05142 92.911348 
L 176.40822 92.911348 
L 177.74742 86.761641 
L 183.10422 86.761641 
L 184.44342 79.246775 
L 209.88822 79.246775 
L 209.88822 79.246775 
" clip-path="url(#pd185dde131)" style="fill: none; stroke: #d9524f; stroke-width: 1.5; stroke-linecap: square"/>
   </g>
   <g id="line2d_38">
    <path d="M -1 85.970789 
L 29.09622 85.970789 
L 30.43542 87.065638 
L 35.79222 87.065638 
L 37.13142 86.187838 
L 42.48822 86.187838 
L 43.82742 85.134699 
L 49.18422 85.134699 
L 50.52342 84.273291 
L 62.57622 84.282316 
L 63.91542 83.279924 
L 69.27222 83.279924 
L 70.61142 84.345751 
L 75.96822 84.345751 
L 77.30742 80.581714 
L 82.66422 80.581714 
L 84.00342 79.7406 
L 89.36022 79.7406 
L 90.69942 80.752287 
L 102.75222 80.85361 
L 108.10902 80.882775 
L 109.44822 80.882775 
L 110.78742 82.831282 
L 116.14422 82.831282 
L 117.48342 84.704143 
L 129.53622 84.674336 
L 130.87542 82.862184 
L 136.23222 82.862184 
L 137.57142 83.005997 
L 142.92822 83.005997 
L 144.26742 90.258343 
L 149.62422 90.258343 
L 150.96342 100.147796 
L 156.32022 100.147796 
L 157.65942 114.417916 
L 163.01622 114.417916 
L 164.35542 110.295338 
L 169.71222 110.295338 
L 171.05142 103.9977 
L 176.40822 103.9977 
L 177.74742 95.844322 
L 183.10422 95.844322 
L 184.44342 85.970789 
L 209.88822 85.970789 
L 209.88822 85.970789 
" clip-path="url(#pd185dde131)" style="fill: none; stroke: #d9524f; stroke-width: 1.5; stroke-linecap: square"/>
   </g>
   <g id="line2d_39">
    <path d="M -1 90.686928 
L 29.09622 90.686928 
L 30.43542 92.010777 
L 35.79222 92.010777 
L 37.13142 90.951165 
L 42.48822 90.951165 
L 43.82742 89.67817 
L 49.18422 89.67817 
L 50.52342 88.637307 
L 62.57622 88.646382 
L 63.91542 87.434636 
L 69.27222 87.434636 
L 70.61142 88.710165 
L 75.96822 88.710165 
L 77.30742 84.154831 
L 82.66422 84.154831 
L 84.00342 83.124807 
L 89.36022 83.124807 
L 90.69942 84.311296 
L 96.05622 84.311296 
L 97.39542 84.427925 
L 109.44822 84.457219 
L 110.78742 86.803219 
L 116.14422 86.803219 
L 117.48342 89.062945 
L 129.53622 89.032974 
L 130.87542 86.849288 
L 136.23222 86.849288 
L 137.57142 86.993817 
L 142.92822 86.993817 
L 144.26742 95.74363 
L 149.62422 95.74363 
L 150.96342 107.763391 
L 156.32022 107.763391 
L 157.65942 125.198788 
L 163.01622 125.198788 
L 164.35542 120.187072 
L 169.71222 120.187072 
L 171.05142 112.549521 
L 176.40822 112.549521 
L 177.74742 102.643407 
L 183.10422 102.643407 
L 184.44342 90.686928 
L 209.88822 90.686928 
L 209.88822 90.686928 
" clip-path="url(#pd185dde131)" style="fill: none; stroke: #d9524f; stroke-width: 1.5; stroke-linecap: square"/>
   </g>
   <g id="line2d_40">
    <path d="M -1 95.400298 
L 29.09622 95.400298 
L 30.43542 96.952955 
L 35.79222 96.952955 
L 37.13142 95.711683 
L 42.48822 95.711683 
L 43.82742 94.219013 
L 49.18422 94.219013 
L 50.52342 92.998837 
L 62.57622 93.007961 
L 63.91542 91.587024 
L 69.27222 91.587024 
L 70.61142 93.072091 
L 75.96822 93.072091 
L 77.30742 87.726051 
L 82.66422 87.726051 
L 84.00342 86.50725 
L 89.36022 86.50725 
L 90.69942 87.868417 
L 96.05622 87.868417 
L 97.39542 88.000342 
L 109.44822 88.029765 
L 110.78742 90.772969 
L 116.14422 90.772969 
L 117.48342 93.419263 
L 129.53622 93.389129 
L 130.87542 90.834194 
L 136.23222 90.834194 
L 137.57142 90.979436 
L 142.92822 90.979436 
L 144.26742 101.225487 
L 149.62422 101.225487 
L 150.96342 115.37345 
L 156.32022 115.37345 
L 157.65942 135.970289 
L 163.01622 135.970289 
L 164.35542 130.070593 
L 169.71222 130.070593 
L 171.05142 121.094758 
L 176.40822 121.094758 
L 177.74742 109.437813 
L 183.10422 109.437813 
L 184.44342 95.400298 
L 209.88822 95.400298 
L 209.88822 95.400298 
" clip-path="url(#pd185dde131)" style="fill: none; stroke: #d9524f; stroke-width: 1.5; stroke-linecap: square"/>
   </g>
   <g id="line2d_41">
    <path d="M -1 100.112431 
L 29.09622 100.112431 
L 30.43542 101.893776 
L 35.79222 101.893776 
L 37.13142 100.470941 
L 42.48822 100.470941 
L 43.82742 98.758707 
L 49.18422 98.758707 
L 50.52342 97.359307 
L 62.57622 97.36848 
L 63.91542 95.73845 
L 69.27222 95.73845 
L 70.61142 97.432958 
L 75.96822 97.432958 
L 77.30742 91.296558 
L 82.66422 91.296558 
L 84.00342 89.889052 
L 89.36022 89.889052 
L 90.69942 91.424831 
L 96.05622 91.424831 
L 97.39542 91.572046 
L 109.44822 91.601596 
L 110.78742 94.741838 
L 116.14422 94.741838 
L 117.48342 97.774523 
L 129.53622 97.744226 
L 130.87542 94.818212 
L 136.23222 94.818212 
L 137.57142 94.964169 
L 142.92822 94.964169 
L 144.26742 106.705676 
L 149.62422 106.705676 
L 150.96342 122.98033 
L 156.32022 122.98033 
L 157.65942 146.735537 
L 163.01622 146.735537 
L 164.35542 139.948821 
L 169.71222 139.948821 
L 171.05142 129.636009 
L 176.40822 129.636009 
L 177.74742 116.229676 
L 183.10422 116.229676 
L 184.44342 100.112431 
L 209.88822 100.112431 
L 209.88822 100.112431 
" clip-path="url(#pd185dde131)" style="fill: none; stroke: #d9524f; stroke-width: 1.5; stroke-linecap: square"/>
   </g>
   <g id="line2d_42">
    <path d="M -1 89.929544 
L 29.09622 89.929544 
L 30.43542 91.066182 
L 35.79222 91.066182 
L 37.13142 90.150669 
L 42.48822 90.150669 
L 43.82742 89.056908 
L 49.18422 89.056908 
L 50.52342 88.161756 
L 62.57622 88.175386 
L 63.91542 87.134963 
L 69.27222 87.134963 
L 70.61142 88.271304 
L 75.96822 88.271304 
L 77.30742 84.379474 
L 82.66422 84.379474 
L 84.00342 83.539008 
L 89.36022 83.539008 
L 90.69942 84.674724 
L 96.05622 84.674724 
L 97.39542 84.793673 
L 109.44822 84.838774 
L 110.78742 86.881345 
L 116.14422 86.881345 
L 117.48342 88.834739 
L 129.53622 88.789603 
L 130.87542 86.8934 
L 136.23222 86.8934 
L 137.57142 87.11384 
L 142.92822 87.11384 
L 144.26742 94.689176 
L 149.62422 94.689176 
L 150.96342 104.845358 
L 156.32022 104.845358 
L 157.65942 119.365688 
L 163.01622 119.365688 
L 164.35542 115.100681 
L 169.71222 115.100681 
L 171.05142 108.556912 
L 176.40822 108.556912 
L 177.74742 100.156073 
L 183.10422 100.156073 
L 184.44342 89.929544 
L 209.88822 89.929544 
L 209.88822 89.929544 
" clip-path="url(#pd185dde131)" style="fill: none; stroke: #d9524f; stroke-width: 1.5; stroke-linecap: square"/>
   </g>
   <g id="line2d_43">
    <path d="M -1 92.015886 
L 29.09622 92.015886 
L 30.43542 93.046984 
L 35.79222 93.046984 
L 37.13142 92.20835 
L 42.48822 92.20835 
L 43.82742 91.216502 
L 49.18422 91.216502 
L 50.52342 90.40488 
L 62.57622 90.425346 
L 63.91542 89.485746 
L 69.27222 89.485746 
L 70.61142 90.569481 
L 75.96822 90.569481 
L 77.30742 87.090293 
L 82.66422 87.090293 
L 84.00342 86.397953 
L 89.36022 86.397953 
L 90.69942 87.582641 
L 96.05622 87.582641 
L 97.39542 87.716024 
L 109.44822 87.784817 
L 110.78742 89.662015 
L 116.14422 89.662015 
L 117.48342 91.443089 
L 129.53622 91.375204 
L 130.87542 89.634375 
L 136.23222 89.634375 
L 137.57142 89.968633 
L 142.92822 89.968633 
L 144.26742 96.92285 
L 149.62422 96.92285 
L 150.96342 106.044533 
L 156.32022 106.044533 
L 157.65942 119.127297 
L 163.01622 119.127297 
L 164.35542 115.118846 
L 169.71222 115.118846 
L 171.05142 108.974106 
L 176.40822 108.974106 
L 177.74742 101.309728 
L 183.10422 101.309728 
L 184.44342 92.015886 
L 209.88822 92.015886 
L 209.88822 92.015886 
" clip-path="url(#pd185dde131)" style="fill: none; stroke: #d9524f; stroke-width: 1.5; stroke-linecap: square"/>
   </g>
   <g id="line2d_44">
    <path d="M -1 93.447533 
L 29.09622 93.447533 
L 30.43542 94.478133 
L 35.79222 94.478133 
L 37.13142 93.637591 
L 42.48822 93.637591 
L 43.82742 92.646336 
L 49.18422 92.646336 
L 50.52342 91.835237 
L 62.57622 91.857997 
L 63.91542 90.92005 
L 69.27222 90.92005 
L 70.61142 92.018309 
L 75.96822 92.018309 
L 77.30742 88.555427 
L 82.66422 88.555427 
L 84.00342 87.88336 
L 89.36022 87.88336 
L 90.69942 89.111445 
L 96.05622 89.111445 
L 97.39542 89.252014 
L 109.44822 89.328742 
L 110.78742 91.211955 
L 116.14422 91.211955 
L 117.48342 92.994775 
L 129.53622 92.919258 
L 130.87542 91.173381 
L 136.23222 91.173381 
L 137.57142 91.545789 
L 142.92822 91.545789 
L 144.26742 98.520376 
L 149.62422 98.520376 
L 150.96342 107.611998 
L 156.32022 107.611998 
L 157.65942 120.663134 
L 163.01622 120.663134 
L 164.35542 116.616633 
L 169.71222 116.616633 
L 171.05142 110.415013 
L 176.40822 110.415013 
L 177.74742 102.741766 
L 183.10422 102.741766 
L 184.44342 93.447533 
L 209.88822 93.447533 
L 209.88822 93.447533 
" clip-path="url(#pd185dde131)" style="fill: none; stroke: #d9524f; stroke-width: 1.5; stroke-linecap: square"/>
   </g>
   <g id="line2d_45">
    <path d="M -1 61.667263 
L 29.09622 61.667263 
L 30.43542 61.30447 
L 35.79222 61.30447 
L 37.13142 60.847916 
L 42.48822 60.847916 
L 43.82742 60.422752 
L 49.18422 60.422752 
L 50.52342 60.021895 
L 55.88022 60.021895 
L 57.21942 60.842352 
L 62.57622 60.842352 
L 63.91542 62.37719 
L 69.27222 62.37719 
L 70.61142 66.095524 
L 75.96822 66.095524 
L 77.30742 71.244843 
L 82.66422 71.244843 
L 84.00342 76.950844 
L 89.36022 76.950844 
L 90.69942 81.219416 
L 96.05622 81.219416 
L 97.39542 82.315269 
L 102.75222 82.315269 
L 104.09142 80.648788 
L 109.44822 80.648788 
L 110.78742 81.567712 
L 122.84022 81.669906 
L 124.17942 79.595531 
L 129.53622 79.595531 
L 130.87542 76.733921 
L 136.23222 76.733921 
L 137.57142 76.064618 
L 142.92822 76.064618 
L 144.26742 74.240237 
L 149.62422 74.240237 
L 150.96342 71.20056 
L 156.32022 71.20056 
L 157.65942 67.226642 
L 163.01622 67.226642 
L 164.35542 64.908677 
L 169.71222 64.908677 
L 171.05142 63.289707 
L 176.40822 63.289707 
L 177.74742 62.391323 
L 183.10422 62.391323 
L 184.44342 61.667263 
L 209.88822 61.667263 
L 209.88822 61.667263 
" clip-path="url(#pd185dde131)" style="fill: none; stroke: #5cb85c; stroke-width: 1.5; stroke-linecap: square"/>
   </g>
   <g id="line2d_46">
    <path d="M -1 57.804604 
L 29.09622 57.804604 
L 30.43542 57.028758 
L 35.79222 57.028758 
L 37.13142 55.724677 
L 42.48822 55.724677 
L 43.82742 54.548772 
L 49.18422 54.548772 
L 50.52342 53.458142 
L 55.88022 53.458142 
L 57.21942 55.56518 
L 62.57622 55.56518 
L 63.91542 59.310235 
L 69.27222 59.310235 
L 70.61142 69.131464 
L 75.96822 69.131464 
L 77.30742 82.030255 
L 82.66422 82.030255 
L 84.00342 96.8625 
L 89.36022 96.8625 
L 90.69942 109.030428 
L 96.05622 109.030428 
L 97.39542 112.028636 
L 102.75222 112.028636 
L 104.09142 108.045174 
L 109.44822 108.045174 
L 110.78742 110.785429 
L 116.14422 110.785429 
L 117.48342 111.331589 
L 122.84022 111.331589 
L 124.17942 105.852407 
L 129.53622 105.852407 
L 130.87542 98.247933 
L 136.23222 98.247933 
L 137.57142 97.680692 
L 142.92822 97.680692 
L 144.26742 94.601189 
L 149.62422 94.601189 
L 150.96342 87.548193 
L 156.32022 87.548193 
L 157.65942 79.171382 
L 163.01622 79.171382 
L 164.35542 71.522825 
L 169.71222 71.522825 
L 171.05142 64.788242 
L 176.40822 64.788242 
L 177.74742 60.996215 
L 183.10422 60.996215 
L 184.44342 57.804604 
L 209.88822 57.804604 
L 209.88822 57.804604 
" clip-path="url(#pd185dde131)" style="fill: none; stroke: #5cb85c; stroke-width: 1.5; stroke-linecap: square"/>
   </g>
   <g id="line2d_47">
    <path d="M -1 65.394523 
L 29.09622 65.394523 
L 30.43542 65.163879 
L 35.79222 65.163879 
L 37.13142 64.900059 
L 42.48822 64.900059 
L 43.82742 65.156235 
L 49.18422 65.156235 
L 50.52342 65.387425 
L 55.88022 65.387425 
L 57.21942 65.831797 
L 62.57622 65.831797 
L 63.91542 66.326177 
L 69.27222 66.326177 
L 70.61142 68.973948 
L 75.96822 68.973948 
L 77.30742 72.920731 
L 82.66422 72.920731 
L 84.00342 77.143616 
L 89.36022 77.143616 
L 90.69942 85.572229 
L 96.05622 85.572229 
L 97.39542 86.999872 
L 102.75222 86.999872 
L 104.09142 88.591547 
L 109.44822 88.591547 
L 110.78742 89.357721 
L 122.84022 89.335367 
L 124.17942 87.793704 
L 129.53622 87.793704 
L 130.87542 87.125466 
L 136.23222 87.125466 
L 137.57142 94.844672 
L 142.92822 94.844672 
L 144.26742 97.8565 
L 149.62422 97.8565 
L 150.96342 91.756096 
L 156.32022 91.756096 
L 157.65942 88.815658 
L 163.01622 88.815658 
L 164.35542 80.025523 
L 169.71222 80.025523 
L 171.05142 67.614931 
L 176.40822 67.614931 
L 177.74742 65.014852 
L 183.10422 65.014852 
L 184.44342 65.394523 
L 209.88822 65.394523 
L 209.88822 65.394523 
" clip-path="url(#pd185dde131)" style="fill: none; stroke: #337ab7; stroke-width: 1.5; stroke-linecap: square"/>
   </g>
   <g id="line2d_48">
    <path d="M -1 69.271863 
L 29.09622 69.271863 
L 30.43542 68.995637 
L 35.79222 68.995637 
L 37.13142 68.664529 
L 42.48822 68.664529 
L 43.82742 68.972547 
L 49.18422 68.972547 
L 50.52342 69.25118 
L 55.88022 69.25118 
L 57.21942 69.798547 
L 62.57622 69.798547 
L 63.91542 70.400311 
L 69.27222 70.400311 
L 70.61142 73.672198 
L 75.96822 73.672198 
L 77.30742 78.518463 
L 82.66422 78.518463 
L 84.00342 83.737 
L 89.36022 83.737 
L 90.69942 94.20756 
L 96.05622 94.20756 
L 97.39542 95.985336 
L 102.75222 95.985336 
L 104.09142 97.968873 
L 109.44822 97.968873 
L 110.78742 98.937938 
L 122.84022 98.923386 
L 124.17942 97.001786 
L 129.53622 97.001786 
L 130.87542 96.15683 
L 136.23222 96.15683 
L 137.57142 105.793947 
L 142.92822 105.793947 
L 144.26742 109.617746 
L 149.62422 109.617746 
L 150.96342 102.053732 
L 156.32022 102.053732 
L 157.65942 98.482032 
L 163.01622 98.482032 
L 164.35542 87.524201 
L 169.71222 87.524201 
L 171.05142 72.13428 
L 176.40822 72.13428 
L 177.74742 68.873974 
L 183.10422 68.873974 
L 184.44342 69.271863 
L 209.88822 69.271863 
L 209.88822 69.271863 
" clip-path="url(#pd185dde131)" style="fill: none; stroke: #337ab7; stroke-width: 1.5; stroke-linecap: square"/>
   </g>
   <g id="line2d_49">
    <path d="M -1 73.148258 
L 29.09622 73.148258 
L 30.43542 72.82642 
L 35.79222 72.82642 
L 37.13142 72.428007 
L 42.48822 72.428007 
L 43.82742 72.787899 
L 49.18422 72.787899 
L 50.52342 73.114004 
L 55.88022 73.114004 
L 57.21942 73.764409 
L 62.57622 73.764409 
L 63.91542 74.473608 
L 69.27222 74.473608 
L 70.61142 78.369818 
L 75.96822 78.369818 
L 77.30742 84.115848 
L 82.66422 84.115848 
L 84.00342 90.330232 
L 89.36022 90.330232 
L 90.69942 102.84289 
L 96.05622 102.84289 
L 97.39542 104.970797 
L 102.75222 104.970797 
L 104.09142 107.346183 
L 109.44822 107.346183 
L 110.78742 108.518132 
L 122.84022 108.511384 
L 124.17942 106.209862 
L 129.53622 106.209862 
L 130.87542 105.188192 
L 136.23222 105.188192 
L 137.57142 116.743068 
L 142.92822 116.743068 
L 144.26742 121.378756 
L 149.62422 121.378756 
L 150.96342 112.351337 
L 156.32022 112.351337 
L 157.65942 108.148406 
L 163.01622 108.148406 
L 164.35542 95.022719 
L 169.71222 95.022719 
L 171.05142 76.652728 
L 176.40822 76.652728 
L 177.74742 72.732023 
L 183.10422 72.732023 
L 184.44342 73.148258 
L 209.88822 73.148258 
L 209.88822 73.148258 
" clip-path="url(#pd185dde131)" style="fill: none; stroke: #337ab7; stroke-width: 1.5; stroke-linecap: square"/>
   </g>
   <g id="line2d_50">
    <path d="M -1 75.548617 
L 29.09622 75.548617 
L 30.43542 75.231931 
L 35.79222 75.231931 
L 37.13142 74.822594 
L 42.48822 74.822594 
L 43.82742 75.178059 
L 49.18422 75.178059 
L 50.52342 75.500865 
L 55.88022 75.500865 
L 57.21942 76.158074 
L 62.57622 76.158074 
L 63.91542 76.866796 
L 69.27222 76.866796 
L 70.61142 80.811794 
L 75.96822 80.811794 
L 77.30742 86.588449 
L 82.66422 86.588449 
L 84.00342 92.861497 
L 89.36022 92.861497 
L 90.69942 105.514759 
L 96.05622 105.514759 
L 97.39542 107.666146 
L 102.75222 107.666146 
L 104.09142 110.067213 
L 109.44822 110.067213 
L 110.78742 111.266872 
L 122.84022 111.274594 
L 124.17942 108.948272 
L 129.53622 108.948272 
L 130.87542 107.901686 
L 136.23222 107.901686 
L 137.57142 119.581647 
L 142.92822 119.581647 
L 144.26742 124.323291 
L 149.62422 124.323291 
L 150.96342 115.273957 
L 156.32022 115.273957 
L 157.65942 111.131653 
L 163.01622 111.131653 
L 164.35542 97.836264 
L 169.71222 97.836264 
L 171.05142 79.226812 
L 176.40822 79.226812 
L 177.74742 75.203904 
L 183.10422 75.203904 
L 184.44342 75.548617 
L 209.88822 75.548617 
L 209.88822 75.548617 
" clip-path="url(#pd185dde131)" style="fill: none; stroke: #337ab7; stroke-width: 1.5; stroke-linecap: square"/>
   </g>
   <g id="line2d_51">
    <path d="M -1 77.948456 
L 29.09622 77.948456 
L 30.43542 77.636886 
L 35.79222 77.636886 
L 37.13142 77.216596 
L 42.48822 77.216596 
L 43.82742 77.567677 
L 49.18422 77.567677 
L 50.52342 77.887217 
L 55.88022 77.887217 
L 57.21942 78.551284 
L 62.57622 78.551284 
L 63.91542 79.259591 
L 69.27222 79.259591 
L 70.61142 83.25361 
L 75.96822 83.25361 
L 77.30742 89.061049 
L 82.66422 89.061049 
L 84.00342 95.392638 
L 89.36022 95.392638 
L 90.69942 108.185379 
L 96.05622 108.185379 
L 97.39542 110.359934 
L 102.75222 110.359934 
L 104.09142 112.78629 
L 109.44822 112.78629 
L 110.78742 114.013481 
L 122.84022 114.035709 
L 124.17942 111.684982 
L 129.53622 111.684982 
L 130.87542 110.613616 
L 136.23222 110.613616 
L 137.57142 122.416313 
L 142.92822 122.416313 
L 144.26742 127.262858 
L 149.62422 127.262858 
L 150.96342 118.194028 
L 156.32022 118.194028 
L 157.65942 114.113339 
L 163.01622 114.113339 
L 164.35542 100.649596 
L 169.71222 100.649596 
L 171.05142 81.800519 
L 176.40822 81.800519 
L 177.74742 77.675143 
L 183.10422 77.675143 
L 184.44342 77.948456 
L 209.88822 77.948456 
L 209.88822 77.948456 
" clip-path="url(#pd185dde131)" style="fill: none; stroke: #337ab7; stroke-width: 1.5; stroke-linecap: square"/>
   </g>
   <g id="line2d_52">
    <path d="M -1 79.596365 
L 29.09622 79.596365 
L 30.43542 79.315683 
L 35.79222 79.315683 
L 37.13142 78.913099 
L 42.48822 78.913099 
L 43.82742 79.231205 
L 49.18422 79.231205 
L 50.52342 79.521702 
L 55.88022 79.521702 
L 57.21942 80.143754 
L 62.57622 80.143754 
L 63.91542 80.796874 
L 69.27222 80.796874 
L 70.61142 84.54799 
L 75.96822 84.54799 
L 77.30742 89.946504 
L 82.66422 89.946504 
L 84.00342 95.863898 
L 89.36022 95.863898 
L 90.69942 107.842004 
L 96.05622 107.842004 
L 97.39542 109.876583 
L 102.75222 109.876583 
L 104.09142 112.145638 
L 109.44822 112.145638 
L 110.78742 113.313005 
L 122.84022 113.352946 
L 124.17942 111.154765 
L 129.53622 111.154765 
L 130.87542 110.134443 
L 136.23222 110.134443 
L 137.57142 121.169117 
L 142.92822 121.169117 
L 144.26742 125.771492 
L 149.62422 125.771492 
L 150.96342 117.395663 
L 156.32022 117.395663 
L 157.65942 113.719998 
L 163.01622 113.719998 
L 164.35542 101.088439 
L 169.71222 101.088439 
L 171.05142 83.384237 
L 176.40822 83.384237 
L 177.74742 79.439962 
L 183.10422 79.439962 
L 184.44342 79.596365 
L 209.88822 79.596365 
L 209.88822 79.596365 
" clip-path="url(#pd185dde131)" style="fill: none; stroke: #337ab7; stroke-width: 1.5; stroke-linecap: square"/>
   </g>
   <g id="line2d_53">
    <path d="M -1 81.243925 
L 29.09622 81.243925 
L 30.43542 80.994093 
L 35.79222 80.994093 
L 37.13142 80.609185 
L 42.48822 80.609185 
L 43.82742 80.894358 
L 49.18422 80.894358 
L 50.52342 81.155846 
L 55.88022 81.155846 
L 57.21942 81.735937 
L 62.57622 81.735937 
L 63.91542 82.333929 
L 69.27222 82.333929 
L 70.61142 85.842333 
L 75.96822 85.842333 
L 77.30742 90.831892 
L 82.66422 90.831892 
L 84.00342 96.334618 
L 89.36022 96.334618 
L 90.69942 107.495749 
L 96.05622 107.495749 
L 97.39542 109.389761 
L 102.75222 109.389761 
L 104.09142 111.500781 
L 109.44822 111.500781 
L 110.78742 112.607988 
L 122.84022 112.665695 
L 124.17942 110.620798 
L 129.53622 110.620798 
L 130.87542 109.651783 
L 136.23222 109.651783 
L 137.57142 119.914152 
L 142.92822 119.914152 
L 144.26742 124.270416 
L 149.62422 124.270416 
L 150.96342 116.591884 
L 156.32022 116.591884 
L 157.65942 113.323021 
L 163.01622 113.323021 
L 164.35542 101.526455 
L 169.71222 101.526455 
L 171.05142 84.967761 
L 176.40822 84.967761 
L 177.74742 81.204316 
L 209.88822 81.243925 
L 209.88822 81.243925 
" clip-path="url(#pd185dde131)" style="fill: none; stroke: #337ab7; stroke-width: 1.5; stroke-linecap: square"/>
   </g>
   <g id="line2d_54">
    <path d="M -1 82.891076 
L 29.09622 82.891076 
L 30.43542 82.672065 
L 35.79222 82.672065 
L 37.13142 82.304808 
L 42.48822 82.304808 
L 43.82742 82.557082 
L 49.18422 82.557082 
L 50.52342 82.78959 
L 55.88022 82.78959 
L 57.21942 83.327761 
L 62.57622 83.327761 
L 63.91542 83.870671 
L 69.27222 83.870671 
L 70.61142 87.136483 
L 75.96822 87.136483 
L 77.30742 91.716951 
L 82.66422 91.716951 
L 84.00342 96.804418 
L 89.36022 96.804418 
L 90.69942 107.146009 
L 96.05622 107.146009 
L 97.39542 108.898824 
L 102.75222 108.898824 
L 104.09142 110.851036 
L 109.44822 110.851036 
L 110.78742 111.897729 
L 122.84022 111.973256 
L 124.17942 110.082419 
L 129.53622 110.082419 
L 130.87542 109.164989 
L 136.23222 109.164989 
L 137.57142 118.650586 
L 142.92822 118.650586 
L 144.26742 122.758734 
L 149.62422 122.758734 
L 150.96342 115.781936 
L 156.32022 115.781936 
L 157.65942 112.921736 
L 163.01622 112.921736 
L 164.35542 101.963207 
L 169.71222 101.963207 
L 171.05142 86.550985 
L 176.40822 86.550985 
L 177.74742 82.968163 
L 209.88822 82.891076 
L 209.88822 82.891076 
" clip-path="url(#pd185dde131)" style="fill: none; stroke: #337ab7; stroke-width: 1.5; stroke-linecap: square"/>
   </g>
   <g id="line2d_55">
    <path d="M -1 84.175723 
L 29.09622 84.175723 
L 30.43542 83.999765 
L 35.79222 83.999765 
L 37.13142 83.663801 
L 42.48822 83.663801 
L 43.82742 83.869591 
L 49.18422 83.869591 
L 50.52342 84.060882 
L 55.88022 84.060882 
L 57.21942 84.533941 
L 62.57622 84.533941 
L 63.91542 84.995836 
L 69.27222 84.995836 
L 70.61142 87.881582 
L 75.96822 87.881582 
L 77.30742 91.848648 
L 82.66422 91.848648 
L 84.00342 96.304823 
L 89.36022 96.304823 
L 90.69942 105.402854 
L 96.05622 105.402854 
L 97.39542 106.943638 
L 102.75222 106.943638 
L 104.09142 108.658361 
L 109.44822 108.658361 
L 110.78742 109.607064 
L 122.84022 109.701729 
L 124.17942 108.040914 
L 129.53622 108.040914 
L 130.87542 107.20785 
L 136.23222 107.20785 
L 137.57142 115.539132 
L 142.92822 115.539132 
L 144.26742 119.255244 
L 149.62422 119.255244 
L 150.96342 113.275771 
L 156.32022 113.275771 
L 157.65942 110.970021 
L 163.01622 110.970021 
L 164.35542 101.288247 
L 169.71222 101.288247 
L 171.05142 87.658847 
L 176.40822 87.658847 
L 177.74742 84.39102 
L 183.10422 84.39102 
L 184.44342 84.175723 
L 209.88822 84.175723 
L 209.88822 84.175723 
" clip-path="url(#pd185dde131)" style="fill: none; stroke: #337ab7; stroke-width: 1.5; stroke-linecap: square"/>
   </g>
   <g id="line2d_56">
    <path d="M -1 76.526072 
L 29.09622 76.526072 
L 30.43542 76.087846 
L 35.79222 76.087846 
L 37.13142 75.560213 
L 42.48822 75.560213 
L 43.82742 76.049177 
L 49.18422 76.049177 
L 50.52342 76.491681 
L 55.88022 76.491681 
L 57.21942 77.362686 
L 62.57622 77.362686 
L 63.91542 78.319299 
L 69.27222 78.319299 
L 70.61142 83.535269 
L 75.96822 83.535269 
L 77.30742 91.275471 
L 82.66422 91.275471 
L 84.00342 99.641613 
L 89.36022 99.641613 
L 90.69942 116.525164 
L 96.05622 116.525164 
L 97.39542 119.404646 
L 102.75222 119.404646 
L 104.09142 122.622788 
L 109.44822 122.622788 
L 110.78742 124.19805 
L 122.84022 124.175988 
L 124.17942 121.056995 
L 129.53622 121.056995 
L 130.87542 119.685944 
L 136.23222 119.685944 
L 137.57142 135.369585 
L 142.92822 135.369585 
L 144.26742 141.633284 
L 149.62422 141.633284 
L 150.96342 129.28333 
L 156.32022 129.28333 
L 157.65942 123.487357 
L 163.01622 123.487357 
L 164.35542 105.765493 
L 169.71222 105.765493 
L 171.05142 81.104007 
L 176.40822 81.104007 
L 177.74742 75.903656 
L 183.10422 75.903656 
L 184.44342 76.526072 
L 209.88822 76.526072 
L 209.88822 76.526072 
" clip-path="url(#pd185dde131)" style="fill: none; stroke: #337ab7; stroke-width: 1.5; stroke-linecap: square"/>
   </g>
   <g id="line2d_57">
    <path d="M -1 78.608065 
L 29.09622 78.608065 
L 30.43542 78.097997 
L 35.79222 78.097997 
L 37.13142 77.490609 
L 42.48822 77.490609 
L 43.82742 78.059236 
L 49.18422 78.059236 
L 50.52342 78.57359 
L 55.88022 78.57359 
L 57.21942 79.580786 
L 62.57622 79.580786 
L 63.91542 80.690177 
L 69.27222 80.690177 
L 70.61142 86.721699 
L 75.96822 86.721699 
L 77.30742 95.696206 
L 82.66422 95.696206 
L 84.00342 105.397039 
L 89.36022 105.397039 
L 90.69942 125.001696 
L 96.05622 125.001696 
L 97.39542 128.350518 
L 102.75222 128.350518 
L 104.09142 132.095476 
L 109.44822 132.095476 
L 110.78742 133.923062 
L 122.84022 133.89142 
L 124.17942 130.26115 
L 129.53622 130.26115 
L 130.87542 128.671746 
L 136.23222 128.671746 
L 137.57142 146.942261 
L 142.92822 146.942261 
L 144.26742 154.230181 
L 149.62422 154.230181 
L 150.96342 139.792572 
L 156.32022 139.792572 
L 157.65942 132.9991 
L 163.01622 132.9991 
L 164.35542 112.410538 
L 169.71222 112.410538 
L 171.05142 83.848985 
L 176.40822 83.848985 
L 177.74742 77.858386 
L 183.10422 77.858386 
L 184.44342 78.608065 
L 209.88822 78.608065 
L 209.88822 78.608065 
" clip-path="url(#pd185dde131)" style="fill: none; stroke: #337ab7; stroke-width: 1.5; stroke-linecap: square"/>
   </g>
   <g id="line2d_58">
    <path d="M -1 80.135327 
L 29.09622 80.135327 
L 30.43542 79.572557 
L 35.79222 79.572557 
L 37.13142 78.906663 
L 42.48822 78.906663 
L 43.82742 79.533729 
L 49.18422 79.533729 
L 50.52342 80.10079 
L 55.88022 80.10079 
L 57.21942 81.207894 
L 62.57622 81.207894 
L 63.91542 82.42936 
L 69.27222 82.42936 
L 70.61142 89.059172 
L 75.96822 89.059172 
L 77.30742 98.939196 
L 82.66422 98.939196 
L 84.00342 109.619241 
L 89.36022 109.619241 
L 90.69942 131.22045 
L 96.05622 131.22045 
L 97.39542 134.913666 
L 102.75222 134.913666 
L 104.09142 139.045206 
L 109.44822 139.045206 
L 110.78742 141.057953 
L 122.84022 141.019282 
L 124.17942 137.013827 
L 129.53622 137.013827 
L 130.87542 135.264194 
L 136.23222 135.264194 
L 137.57142 155.433094 
L 142.92822 155.433094 
L 144.26742 163.472727 
L 149.62422 163.472727 
L 150.96342 147.502966 
L 156.32022 147.502966 
L 157.65942 139.97749 
L 163.01622 139.97749 
L 164.35542 117.285451 
L 169.71222 117.285451 
L 171.05142 85.862608 
L 176.40822 85.862608 
L 177.74742 79.29229 
L 183.10422 79.29229 
L 184.44342 80.135327 
L 209.88822 80.135327 
L 209.88822 80.135327 
" clip-path="url(#pd185dde131)" style="fill: none; stroke: #337ab7; stroke-width: 1.5; stroke-linecap: square"/>
   </g>
   <g id="line2d_59">
    <path d="M -1 80.135327 
L 29.09622 80.135327 
L 30.43542 79.572557 
L 35.79222 79.572557 
L 37.13142 78.906663 
L 42.48822 78.906663 
L 43.82742 79.533729 
L 49.18422 79.533729 
L 50.52342 80.10079 
L 55.88022 80.10079 
L 57.21942 81.207894 
L 62.57622 81.207894 
L 63.91542 82.42936 
L 69.27222 82.42936 
L 70.61142 89.059172 
L 75.96822 89.059172 
L 77.30742 98.939196 
L 82.66422 98.939196 
L 84.00342 109.619241 
L 89.36022 109.619241 
L 90.69942 131.22045 
L 96.05622 131.22045 
L 97.39542 134.913666 
L 102.75222 134.913666 
L 104.09142 139.045206 
L 109.44822 139.045206 
L 110.78742 141.057953 
L 122.84022 141.019282 
L 124.17942 137.013827 
L 129.53622 137.013827 
L 130.87542 135.264194 
L 136.23222 135.264194 
L 137.57142 155.433094 
L 142.92822 155.433094 
L 144.26742 163.472727 
L 149.62422 163.472727 
L 150.96342 147.502966 
L 156.32022 147.502966 
L 157.65942 139.97749 
L 163.01622 139.97749 
L 164.35542 117.285451 
L 169.71222 117.285451 
L 171.05142 85.862608 
L 176.40822 85.862608 
L 177.74742 79.29229 
L 183.10422 79.29229 
L 184.44342 80.135327 
L 209.88822 80.135327 
L 209.88822 80.135327 
" clip-path="url(#pd185dde131)" style="fill: none; stroke: #337ab7; stroke-width: 1.5; stroke-linecap: square"/>
   </g>
   <g id="line2d_60">
    <path d="M -1 78.427238 
L 29.09622 78.427238 
L 30.43542 77.923668 
L 35.79222 77.923668 
L 37.13142 77.323473 
L 42.48822 77.323473 
L 43.82742 77.884916 
L 49.18422 77.884916 
L 50.52342 78.39277 
L 55.88022 78.39277 
L 57.21942 79.387594 
L 62.57622 79.387594 
L 63.91542 80.483024 
L 69.27222 80.483024 
L 70.61142 86.438528 
L 75.96822 86.438528 
L 77.30742 95.293065 
L 82.66422 95.293065 
L 84.00342 104.857178 
L 89.36022 104.857178 
L 90.69942 124.15886 
L 96.05622 124.15886 
L 97.39542 127.451922 
L 102.75222 127.451922 
L 104.09142 131.132999 
L 109.44822 131.132999 
L 110.78742 132.929487 
L 122.84022 132.899022 
L 124.17942 129.331392 
L 129.53622 129.331392 
L 130.87542 127.768349 
L 136.23222 127.768349 
L 137.57142 145.710922 
L 142.92822 145.710922 
L 144.26742 152.85897 
L 149.62422 152.85897 
L 150.96342 138.70019 
L 156.32022 138.70019 
L 157.65942 132.03169 
L 163.01622 132.03169 
L 164.35542 111.775256 
L 169.71222 111.775256 
L 171.05142 83.607271 
L 176.40822 83.607271 
L 177.74742 77.689056 
L 183.10422 77.689056 
L 184.44342 78.427238 
L 209.88822 78.427238 
L 209.88822 78.427238 
" clip-path="url(#pd185dde131)" style="fill: none; stroke: #337ab7; stroke-width: 1.5; stroke-linecap: square"/>
   </g>
   <g id="line2d_61">
    <path d="M -1 80.472974 
L 29.09622 80.472974 
L 30.43542 80.074636 
L 35.79222 80.074636 
L 37.13142 79.557902 
L 42.48822 79.557902 
L 43.82742 80.00523 
L 49.18422 80.00523 
L 50.52342 80.411555 
L 55.88022 80.411555 
L 57.21942 81.240135 
L 62.57622 81.240135 
L 63.91542 82.132839 
L 69.27222 82.132839 
L 70.61142 87.109794 
L 75.96822 87.109794 
L 77.30742 94.398562 
L 82.66422 94.398562 
L 84.00342 102.323775 
L 89.36022 102.323775 
L 90.69942 118.33648 
L 96.05622 118.33648 
L 97.39542 121.062105 
L 102.75222 121.062105 
L 104.09142 124.105395 
L 109.44822 124.105395 
L 110.78742 125.627932 
L 122.84022 125.639431 
L 124.17942 122.690716 
L 129.53622 122.690716 
L 130.87542 121.363067 
L 136.23222 121.363067 
L 137.57142 136.177387 
L 142.92822 136.177387 
L 144.26742 142.206061 
L 149.62422 142.206061 
L 150.96342 130.726965 
L 156.32022 130.726965 
L 157.65942 125.485948 
L 163.01622 125.485948 
L 164.35542 108.642681 
L 169.71222 108.642681 
L 171.05142 85.126243 
L 176.40822 85.126243 
L 177.74742 80.046279 
L 183.10422 80.046279 
L 184.44342 80.472974 
L 209.88822 80.472974 
L 209.88822 80.472974 
" clip-path="url(#pd185dde131)" style="fill: none; stroke: #337ab7; stroke-width: 1.5; stroke-linecap: square"/>
   </g>
   <g id="line2d_62">
    <path d="M -1 81.778267 
L 29.09622 81.778267 
L 30.43542 81.335006 
L 35.79222 81.335006 
L 37.13142 80.768345 
L 42.48822 80.768345 
L 43.82742 81.265498 
L 49.18422 81.265498 
L 50.52342 81.716754 
L 55.88022 81.716754 
L 57.21942 82.63052 
L 62.57622 82.63052 
L 63.91542 83.618726 
L 69.27222 83.618726 
L 70.61142 89.105088 
L 75.96822 89.105088 
L 77.30742 97.162649 
L 82.66422 97.162649 
L 84.00342 105.916464 
L 89.36022 105.916464 
L 90.69942 123.608554 
L 96.05622 123.608554 
L 97.39542 126.622323 
L 102.75222 126.622323 
L 104.09142 129.988463 
L 109.44822 129.988463 
L 110.78742 131.665662 
L 122.84022 131.671547 
L 124.17942 128.409765 
L 129.53622 128.409765 
L 130.87542 126.948021 
L 136.23222 126.948021 
L 137.57142 143.341236 
L 142.92822 143.341236 
L 144.26742 149.991664 
L 149.62422 149.991664 
L 150.96342 137.246138 
L 156.32022 137.246138 
L 157.65942 131.397099 
L 163.01622 131.397099 
L 164.35542 112.788479 
L 169.71222 112.788479 
L 171.05142 86.846559 
L 176.40822 86.846559 
L 177.74742 81.272164 
L 183.10422 81.272164 
L 184.44342 81.778267 
L 209.88822 81.778267 
L 209.88822 81.778267 
" clip-path="url(#pd185dde131)" style="fill: none; stroke: #337ab7; stroke-width: 1.5; stroke-linecap: square"/>
   </g>
   <g id="line2d_63">
    <path d="M -1 83.693171 
L 29.09622 83.693171 
L 30.43542 83.184004 
L 35.79222 83.184004 
L 37.13142 82.544095 
L 42.48822 82.544095 
L 43.82742 83.114346 
L 49.18422 83.114346 
L 50.52342 83.631521 
L 55.88022 83.631521 
L 57.21942 84.670263 
L 62.57622 84.670263 
L 63.91542 85.79858 
L 69.27222 85.79858 
L 70.61142 92.032339 
L 75.96822 92.032339 
L 77.30742 101.217982 
L 82.66422 101.217982 
L 84.00342 111.187816 
L 89.36022 111.187816 
L 90.69942 131.34508 
L 96.05622 131.34508 
L 97.39542 134.781903 
L 102.75222 134.781903 
L 104.09142 138.622081 
L 109.44822 138.622081 
L 110.78742 140.526383 
L 122.84022 140.524022 
L 124.17942 136.80255 
L 129.53622 136.80255 
L 130.87542 135.14392 
L 136.23222 135.14392 
L 137.57142 153.855756 
L 142.92822 153.855756 
L 144.26742 161.419467 
L 149.62422 161.419467 
L 150.96342 146.813839 
L 156.32022 146.813839 
L 157.65942 140.071948 
L 163.01622 140.071948 
L 164.35542 118.871653 
L 169.71222 118.871653 
L 171.05142 89.370362 
L 176.40822 89.370362 
L 177.74742 83.070573 
L 183.10422 83.070573 
L 184.44342 83.693171 
L 209.88822 83.693171 
L 209.88822 83.693171 
" clip-path="url(#pd185dde131)" style="fill: none; stroke: #337ab7; stroke-width: 1.5; stroke-linecap: square"/>
   </g>
   <g id="line2d_64">
    <path d="M -1 80.887828 
L 29.09622 80.887828 
L 30.43542 80.475307 
L 35.79222 80.475307 
L 37.13142 79.942802 
L 42.48822 79.942802 
L 43.82742 80.405869 
L 49.18422 80.405869 
L 50.52342 80.82638 
L 55.88022 80.82638 
L 57.21942 81.681836 
L 62.57622 81.681836 
L 63.91542 82.604642 
L 69.27222 82.604642 
L 70.61142 87.741621 
L 75.96822 87.741621 
L 77.30742 95.270156 
L 82.66422 95.270156 
L 84.00342 103.451367 
L 89.36022 103.451367 
L 90.69942 119.974819 
L 96.05622 119.974819 
L 97.39542 122.78694 
L 102.75222 122.78694 
L 104.09142 125.926736 
L 109.44822 125.926736 
L 110.78742 127.495343 
L 122.84022 127.505166 
L 124.17942 124.463073 
L 129.53622 124.463073 
L 130.87542 123.095307 
L 136.23222 123.095307 
L 137.57142 138.377185 
L 142.92822 138.377185 
L 144.26742 144.586938 
L 149.62422 144.586938 
L 150.96342 132.737096 
L 156.32022 132.737096 
L 157.65942 127.315571 
L 163.01622 127.315571 
L 164.35542 109.93967 
L 169.71222 109.93967 
L 171.05142 85.671796 
L 176.40822 85.671796 
L 177.74742 80.436056 
L 183.10422 80.436056 
L 184.44342 80.887828 
L 209.88822 80.887828 
L 209.88822 80.887828 
" clip-path="url(#pd185dde131)" style="fill: none; stroke: #337ab7; stroke-width: 1.5; stroke-linecap: square"/>
   </g>
   <g id="line2d_65">
    <path d="M -1 84.107856 
L 29.09622 84.107856 
L 30.43542 83.847609 
L 35.79222 83.847609 
L 37.13142 83.434406 
L 42.48822 83.434406 
L 43.82742 83.732472 
L 49.18422 83.732472 
L 50.52342 84.00623 
L 55.88022 84.00623 
L 57.21942 84.622537 
L 62.57622 84.622537 
L 63.91542 85.252817 
L 69.27222 85.252817 
L 70.61142 88.981518 
L 75.96822 88.981518 
L 77.30742 94.249293 
L 82.66422 94.249293 
L 84.00342 100.062577 
L 89.36022 100.062577 
L 90.69942 111.825866 
L 96.05622 111.825866 
L 97.39542 113.815746 
L 102.75222 113.815746 
L 104.09142 116.031129 
L 109.44822 116.031129 
L 110.78742 117.203242 
L 122.84022 117.274495 
L 124.17942 115.129642 
L 129.53622 115.129642 
L 130.87542 114.102432 
L 136.23222 114.102432 
L 137.57142 124.849157 
L 142.92822 124.849157 
L 144.26742 129.43761 
L 149.62422 129.43761 
L 150.96342 121.475732 
L 156.32022 121.475732 
L 157.65942 118.129061 
L 163.01622 118.129061 
L 164.35542 105.699977 
L 169.71222 105.699977 
L 171.05142 88.147712 
L 176.40822 88.147712 
L 177.74742 84.112263 
L 209.88822 84.107856 
L 209.88822 84.107856 
" clip-path="url(#pd185dde131)" style="fill: none; stroke: #337ab7; stroke-width: 1.5; stroke-linecap: square"/>
   </g>
   <g id="line2d_66">
    <path d="M -1 84.783605 
L 29.09622 84.783605 
L 30.43542 84.587122 
L 35.79222 84.587122 
L 37.13142 84.22827 
L 42.48822 84.22827 
L 43.82742 84.456861 
L 49.18422 84.456861 
L 50.52342 84.668685 
L 55.88022 84.668685 
L 57.21942 85.180632 
L 62.57622 85.180632 
L 63.91542 85.685982 
L 69.27222 85.685982 
L 70.61142 88.801595 
L 75.96822 88.801595 
L 77.30742 93.10866 
L 82.66422 93.10866 
L 84.00342 97.922227 
L 89.36022 97.922227 
L 90.69942 107.715116 
L 96.05622 107.715116 
L 97.39542 109.371066 
L 102.75222 109.371066 
L 104.09142 111.213394 
L 109.44822 111.213394 
L 110.78742 112.222863 
L 122.84022 112.315502 
L 124.17942 110.531636 
L 129.53622 110.531636 
L 130.87542 109.645281 
L 136.23222 109.645281 
L 137.57142 118.585582 
L 142.92822 118.585582 
L 144.26742 122.53221 
L 149.62422 122.53221 
L 150.96342 116.079596 
L 156.32022 116.079596 
L 157.65942 113.538969 
L 163.01622 113.538969 
L 164.35542 103.140834 
L 169.71222 103.140834 
L 171.05142 88.45577 
L 176.40822 88.45577 
L 177.74742 84.962758 
L 183.10422 84.962758 
L 184.44342 84.783605 
L 209.88822 84.783605 
L 209.88822 84.783605 
" clip-path="url(#pd185dde131)" style="fill: none; stroke: #337ab7; stroke-width: 1.5; stroke-linecap: square"/>
   </g>
   <g id="line2d_67">
    <path d="M -1 48.927273 
L 209.88822 48.927273 
" clip-path="url(#pd185dde131)" style="fill: none; stroke-dasharray: 1.5,2.475; stroke-dashoffset: 0; stroke: #d9524f; stroke-width: 1.5"/>
   </g>
   <g id="line2d_68">
    <path d="M -1 134.446559 
L 209.88822 134.446559 
" clip-path="url(#pd185dde131)" style="fill: none; stroke-dasharray: 1.5,2.475; stroke-dashoffset: 0; stroke: #5cb85c; stroke-width: 1.5"/>
   </g>
   <g id="patch_3">
    <path d="M 27 169.2 
L 27 43.2 
" style="fill: none; stroke: #000000; stroke-width: 0.8; stroke-linejoin: miter; stroke-linecap: square"/>
   </g>
   <g id="patch_4">
    <path d="M 194.4 169.2 
L 194.4 43.2 
" style="fill: none; stroke: #000000; stroke-width: 0.8; stroke-linejoin: miter; stroke-linecap: square"/>
   </g>
   <g id="patch_5">
    <path d="M 27 169.2 
L 194.4 169.2 
" style="fill: none; stroke: #000000; stroke-width: 0.8; stroke-linejoin: miter; stroke-linecap: square"/>
   </g>
   <g id="patch_6">
    <path d="M 27 43.2 
L 194.4 43.2 
" style="fill: none; stroke: #000000; stroke-width: 0.8; stroke-linejoin: miter; stroke-linecap: square"/>
   </g>
  </g>
  <g id="axes_2">
   <g id="patch_7">
    <path d="M 27 320.4 
L 194.4 320.4 
L 194.4 194.4 
L 27 194.4 
z
" style="fill: #ffffff"/>
   </g>
   <g id="matplotlib.axis_3">
    <g id="xtick_8">
     <g id="line2d_69">
      <path d="M 27 320.4 
L 27 194.4 
" clip-path="url(#p4e0569eb67)" style="fill: none; stroke: #b0b0b0; stroke-width: 0.8; stroke-linecap: square"/>
     </g>
     <g id="line2d_70">
      <g>
       <use xlink:href="#maceaeda02f" x="27" y="320.4" style="stroke: #000000; stroke-width: 0.8"/>
      </g>
     </g>
     <g id="text_15">
      <!-- 0 -->
      <g transform="translate(24.5 334.34375) scale(0.1 -0.1)">
       <use xlink:href="#TimesNewRomanPSMT-30"/>
      </g>
     </g>
    </g>
    <g id="xtick_9">
     <g id="line2d_71">
      <path d="M 54.9 320.4 
L 54.9 194.4 
" clip-path="url(#p4e0569eb67)" style="fill: none; stroke: #b0b0b0; stroke-width: 0.8; stroke-linecap: square"/>
     </g>
     <g id="line2d_72">
      <g>
       <use xlink:href="#maceaeda02f" x="54.9" y="320.4" style="stroke: #000000; stroke-width: 0.8"/>
      </g>
     </g>
     <g id="text_16">
      <!-- 4 -->
      <g transform="translate(52.4 334.34375) scale(0.1 -0.1)">
       <use xlink:href="#TimesNewRomanPSMT-34"/>
      </g>
     </g>
    </g>
    <g id="xtick_10">
     <g id="line2d_73">
      <path d="M 82.8 320.4 
L 82.8 194.4 
" clip-path="url(#p4e0569eb67)" style="fill: none; stroke: #b0b0b0; stroke-width: 0.8; stroke-linecap: square"/>
     </g>
     <g id="line2d_74">
      <g>
       <use xlink:href="#maceaeda02f" x="82.8" y="320.4" style="stroke: #000000; stroke-width: 0.8"/>
      </g>
     </g>
     <g id="text_17">
      <!-- 8 -->
      <g transform="translate(80.3 334.34375) scale(0.1 -0.1)">
       <use xlink:href="#TimesNewRomanPSMT-38"/>
      </g>
     </g>
    </g>
    <g id="xtick_11">
     <g id="line2d_75">
      <path d="M 110.7 320.4 
L 110.7 194.4 
" clip-path="url(#p4e0569eb67)" style="fill: none; stroke: #b0b0b0; stroke-width: 0.8; stroke-linecap: square"/>
     </g>
     <g id="line2d_76">
      <g>
       <use xlink:href="#maceaeda02f" x="110.7" y="320.4" style="stroke: #000000; stroke-width: 0.8"/>
      </g>
     </g>
     <g id="text_18">
      <!-- 12 -->
      <g transform="translate(105.7 334.34375) scale(0.1 -0.1)">
       <use xlink:href="#TimesNewRomanPSMT-31"/>
       <use xlink:href="#TimesNewRomanPSMT-32" x="50"/>
      </g>
     </g>
    </g>
    <g id="xtick_12">
     <g id="line2d_77">
      <path d="M 138.6 320.4 
L 138.6 194.4 
" clip-path="url(#p4e0569eb67)" style="fill: none; stroke: #b0b0b0; stroke-width: 0.8; stroke-linecap: square"/>
     </g>
     <g id="line2d_78">
      <g>
       <use xlink:href="#maceaeda02f" x="138.6" y="320.4" style="stroke: #000000; stroke-width: 0.8"/>
      </g>
     </g>
     <g id="text_19">
      <!-- 16 -->
      <g transform="translate(133.6 334.34375) scale(0.1 -0.1)">
       <use xlink:href="#TimesNewRomanPSMT-31"/>
       <use xlink:href="#TimesNewRomanPSMT-36" x="50"/>
      </g>
     </g>
    </g>
    <g id="xtick_13">
     <g id="line2d_79">
      <path d="M 166.5 320.4 
L 166.5 194.4 
" clip-path="url(#p4e0569eb67)" style="fill: none; stroke: #b0b0b0; stroke-width: 0.8; stroke-linecap: square"/>
     </g>
     <g id="line2d_80">
      <g>
       <use xlink:href="#maceaeda02f" x="166.5" y="320.4" style="stroke: #000000; stroke-width: 0.8"/>
      </g>
     </g>
     <g id="text_20">
      <!-- 20 -->
      <g transform="translate(161.5 334.34375) scale(0.1 -0.1)">
       <use xlink:href="#TimesNewRomanPSMT-32"/>
       <use xlink:href="#TimesNewRomanPSMT-30" x="50"/>
      </g>
     </g>
    </g>
    <g id="xtick_14">
     <g id="line2d_81">
      <path d="M 194.4 320.4 
L 194.4 194.4 
" clip-path="url(#p4e0569eb67)" style="fill: none; stroke: #b0b0b0; stroke-width: 0.8; stroke-linecap: square"/>
     </g>
     <g id="line2d_82">
      <g>
       <use xlink:href="#maceaeda02f" x="194.4" y="320.4" style="stroke: #000000; stroke-width: 0.8"/>
      </g>
     </g>
     <g id="text_21">
      <!-- 24 -->
      <g transform="translate(189.4 334.34375) scale(0.1 -0.1)">
       <use xlink:href="#TimesNewRomanPSMT-32"/>
       <use xlink:href="#TimesNewRomanPSMT-34" x="50"/>
      </g>
     </g>
    </g>
    <g id="text_22">
     <!-- Time (s) -->
     <g transform="translate(93.797656 347.426562) scale(0.1 -0.1)">
      <defs>
       <path id="TimesNewRomanPSMT-54" d="M 3703 4238 
L 3750 3244 
L 3631 3244 
Q 3597 3506 3538 3619 
Q 3441 3800 3280 3886 
Q 3119 3972 2856 3972 
L 2259 3972 
L 2259 734 
Q 2259 344 2344 247 
Q 2463 116 2709 116 
L 2856 116 
L 2856 0 
L 1059 0 
L 1059 116 
L 1209 116 
Q 1478 116 1591 278 
Q 1659 378 1659 734 
L 1659 3972 
L 1150 3972 
Q 853 3972 728 3928 
Q 566 3869 450 3700 
Q 334 3531 313 3244 
L 194 3244 
L 244 4238 
L 3703 4238 
z
" transform="scale(0.015625)"/>
       <path id="TimesNewRomanPSMT-69" d="M 928 4444 
Q 1059 4444 1151 4351 
Q 1244 4259 1244 4128 
Q 1244 3997 1151 3903 
Q 1059 3809 928 3809 
Q 797 3809 703 3903 
Q 609 3997 609 4128 
Q 609 4259 701 4351 
Q 794 4444 928 4444 
z
M 1188 2947 
L 1188 647 
Q 1188 378 1227 289 
Q 1266 200 1342 156 
Q 1419 113 1622 113 
L 1622 0 
L 231 0 
L 231 113 
Q 441 113 512 153 
Q 584 194 626 287 
Q 669 381 669 647 
L 669 1750 
Q 669 2216 641 2353 
Q 619 2453 572 2492 
Q 525 2531 444 2531 
Q 356 2531 231 2484 
L 188 2597 
L 1050 2947 
L 1188 2947 
z
" transform="scale(0.015625)"/>
       <path id="TimesNewRomanPSMT-6d" d="M 1050 2338 
Q 1363 2650 1419 2697 
Q 1559 2816 1721 2881 
Q 1884 2947 2044 2947 
Q 2313 2947 2506 2790 
Q 2700 2634 2766 2338 
Q 3088 2713 3309 2830 
Q 3531 2947 3766 2947 
Q 3994 2947 4170 2830 
Q 4347 2713 4450 2447 
Q 4519 2266 4519 1878 
L 4519 647 
Q 4519 378 4559 278 
Q 4591 209 4675 161 
Q 4759 113 4950 113 
L 4950 0 
L 3538 0 
L 3538 113 
L 3597 113 
Q 3781 113 3884 184 
Q 3956 234 3988 344 
Q 4000 397 4000 647 
L 4000 1878 
Q 4000 2228 3916 2372 
Q 3794 2572 3525 2572 
Q 3359 2572 3192 2489 
Q 3025 2406 2788 2181 
L 2781 2147 
L 2788 2013 
L 2788 647 
Q 2788 353 2820 281 
Q 2853 209 2943 161 
Q 3034 113 3253 113 
L 3253 0 
L 1806 0 
L 1806 113 
Q 2044 113 2133 169 
Q 2222 225 2256 338 
Q 2272 391 2272 647 
L 2272 1878 
Q 2272 2228 2169 2381 
Q 2031 2581 1784 2581 
Q 1616 2581 1450 2491 
Q 1191 2353 1050 2181 
L 1050 647 
Q 1050 366 1089 281 
Q 1128 197 1204 155 
Q 1281 113 1516 113 
L 1516 0 
L 100 0 
L 100 113 
Q 297 113 375 155 
Q 453 197 493 289 
Q 534 381 534 647 
L 534 1741 
Q 534 2213 506 2350 
Q 484 2453 437 2492 
Q 391 2531 309 2531 
Q 222 2531 100 2484 
L 53 2597 
L 916 2947 
L 1050 2947 
L 1050 2338 
z
" transform="scale(0.015625)"/>
      </defs>
      <use xlink:href="#TimesNewRomanPSMT-54"/>
      <use xlink:href="#TimesNewRomanPSMT-69" x="57.583984"/>
      <use xlink:href="#TimesNewRomanPSMT-6d" x="85.367188"/>
      <use xlink:href="#TimesNewRomanPSMT-65" x="163.150391"/>
      <use xlink:href="#TimesNewRomanPSMT-20" x="207.535156"/>
      <use xlink:href="#TimesNewRomanPSMT-28" x="232.535156"/>
      <use xlink:href="#TimesNewRomanPSMT-73" x="265.835938"/>
      <use xlink:href="#TimesNewRomanPSMT-29" x="304.751953"/>
     </g>
    </g>
   </g>
   <g id="matplotlib.axis_4">
    <g id="ytick_7">
     <g id="line2d_83">
      <path d="M 27 317.1194 
L 194.4 317.1194 
" clip-path="url(#p4e0569eb67)" style="fill: none; stroke: #b0b0b0; stroke-width: 0.8; stroke-linecap: square"/>
     </g>
     <g id="line2d_84">
      <g>
       <use xlink:href="#m40f4986874" x="27" y="317.1194" style="stroke: #000000; stroke-width: 0.8"/>
      </g>
     </g>
     <g id="text_23">
      <!-- 0 -->
      <g transform="translate(15 320.591275) scale(0.1 -0.1)">
       <use xlink:href="#TimesNewRomanPSMT-30"/>
      </g>
     </g>
    </g>
    <g id="ytick_8">
     <g id="line2d_85">
      <path d="M 27 284.829573 
L 194.4 284.829573 
" clip-path="url(#p4e0569eb67)" style="fill: none; stroke: #b0b0b0; stroke-width: 0.8; stroke-linecap: square"/>
     </g>
     <g id="line2d_86">
      <g>
       <use xlink:href="#m40f4986874" x="27" y="284.829573" style="stroke: #000000; stroke-width: 0.8"/>
      </g>
     </g>
     <g id="text_24">
      <!-- 200 -->
      <g transform="translate(5 288.301448) scale(0.1 -0.1)">
       <use xlink:href="#TimesNewRomanPSMT-32"/>
       <use xlink:href="#TimesNewRomanPSMT-30" x="50"/>
       <use xlink:href="#TimesNewRomanPSMT-30" x="100"/>
      </g>
     </g>
    </g>
    <g id="ytick_9">
     <g id="line2d_87">
      <path d="M 27 252.539746 
L 194.4 252.539746 
" clip-path="url(#p4e0569eb67)" style="fill: none; stroke: #b0b0b0; stroke-width: 0.8; stroke-linecap: square"/>
     </g>
     <g id="line2d_88">
      <g>
       <use xlink:href="#m40f4986874" x="27" y="252.539746" style="stroke: #000000; stroke-width: 0.8"/>
      </g>
     </g>
     <g id="text_25">
      <!-- 400 -->
      <g transform="translate(5 256.011621) scale(0.1 -0.1)">
       <use xlink:href="#TimesNewRomanPSMT-34"/>
       <use xlink:href="#TimesNewRomanPSMT-30" x="50"/>
       <use xlink:href="#TimesNewRomanPSMT-30" x="100"/>
      </g>
     </g>
    </g>
    <g id="ytick_10">
     <g id="line2d_89">
      <path d="M 27 220.249919 
L 194.4 220.249919 
" clip-path="url(#p4e0569eb67)" style="fill: none; stroke: #b0b0b0; stroke-width: 0.8; stroke-linecap: square"/>
     </g>
     <g id="line2d_90">
      <g>
       <use xlink:href="#m40f4986874" x="27" y="220.249919" style="stroke: #000000; stroke-width: 0.8"/>
      </g>
     </g>
     <g id="text_26">
      <!-- 600 -->
      <g transform="translate(5 223.721794) scale(0.1 -0.1)">
       <use xlink:href="#TimesNewRomanPSMT-36"/>
       <use xlink:href="#TimesNewRomanPSMT-30" x="50"/>
       <use xlink:href="#TimesNewRomanPSMT-30" x="100"/>
      </g>
     </g>
    </g>
    <g id="text_27">
     <!-- Currents (A) -->
     <g transform="translate(-1.139063 282.810156) rotate(-90) scale(0.1 -0.1)">
      <defs>
       <path id="TimesNewRomanPSMT-43" d="M 3853 4334 
L 3950 2894 
L 3853 2894 
Q 3659 3541 3300 3825 
Q 2941 4109 2438 4109 
Q 2016 4109 1675 3895 
Q 1334 3681 1139 3212 
Q 944 2744 944 2047 
Q 944 1472 1128 1050 
Q 1313 628 1683 403 
Q 2053 178 2528 178 
Q 2941 178 3256 354 
Q 3572 531 3950 1056 
L 4047 994 
Q 3728 428 3303 165 
Q 2878 -97 2294 -97 
Q 1241 -97 663 684 
Q 231 1266 231 2053 
Q 231 2688 515 3219 
Q 800 3750 1298 4042 
Q 1797 4334 2388 4334 
Q 2847 4334 3294 4109 
Q 3425 4041 3481 4041 
Q 3566 4041 3628 4100 
Q 3709 4184 3744 4334 
L 3853 4334 
z
" transform="scale(0.015625)"/>
       <path id="TimesNewRomanPSMT-72" d="M 1038 2947 
L 1038 2303 
Q 1397 2947 1775 2947 
Q 1947 2947 2059 2842 
Q 2172 2738 2172 2600 
Q 2172 2478 2090 2393 
Q 2009 2309 1897 2309 
Q 1788 2309 1652 2417 
Q 1516 2525 1450 2525 
Q 1394 2525 1328 2463 
Q 1188 2334 1038 2041 
L 1038 669 
Q 1038 431 1097 309 
Q 1138 225 1241 169 
Q 1344 113 1538 113 
L 1538 0 
L 72 0 
L 72 113 
Q 291 113 397 181 
Q 475 231 506 341 
Q 522 394 522 644 
L 522 1753 
Q 522 2253 501 2348 
Q 481 2444 426 2487 
Q 372 2531 291 2531 
Q 194 2531 72 2484 
L 41 2597 
L 906 2947 
L 1038 2947 
z
" transform="scale(0.015625)"/>
       <path id="TimesNewRomanPSMT-6e" d="M 1034 2341 
Q 1538 2947 1994 2947 
Q 2228 2947 2397 2830 
Q 2566 2713 2666 2444 
Q 2734 2256 2734 1869 
L 2734 647 
Q 2734 375 2778 278 
Q 2813 200 2889 156 
Q 2966 113 3172 113 
L 3172 0 
L 1756 0 
L 1756 113 
L 1816 113 
Q 2016 113 2095 173 
Q 2175 234 2206 353 
Q 2219 400 2219 647 
L 2219 1819 
Q 2219 2209 2117 2386 
Q 2016 2563 1775 2563 
Q 1403 2563 1034 2156 
L 1034 647 
Q 1034 356 1069 288 
Q 1113 197 1189 155 
Q 1266 113 1500 113 
L 1500 0 
L 84 0 
L 84 113 
L 147 113 
Q 366 113 442 223 
Q 519 334 519 647 
L 519 1709 
Q 519 2225 495 2337 
Q 472 2450 423 2490 
Q 375 2531 294 2531 
Q 206 2531 84 2484 
L 38 2597 
L 900 2947 
L 1034 2947 
L 1034 2341 
z
" transform="scale(0.015625)"/>
       <path id="TimesNewRomanPSMT-41" d="M 2928 1419 
L 1288 1419 
L 1000 750 
Q 894 503 894 381 
Q 894 284 986 211 
Q 1078 138 1384 116 
L 1384 0 
L 50 0 
L 50 116 
Q 316 163 394 238 
Q 553 388 747 847 
L 2238 4334 
L 2347 4334 
L 3822 809 
Q 4000 384 4145 257 
Q 4291 131 4550 116 
L 4550 0 
L 2878 0 
L 2878 116 
Q 3131 128 3220 200 
Q 3309 272 3309 375 
Q 3309 513 3184 809 
L 2928 1419 
z
M 2841 1650 
L 2122 3363 
L 1384 1650 
L 2841 1650 
z
" transform="scale(0.015625)"/>
      </defs>
      <use xlink:href="#TimesNewRomanPSMT-43"/>
      <use xlink:href="#TimesNewRomanPSMT-75" x="66.699219"/>
      <use xlink:href="#TimesNewRomanPSMT-72" x="116.699219"/>
      <use xlink:href="#TimesNewRomanPSMT-72" x="150"/>
      <use xlink:href="#TimesNewRomanPSMT-65" x="183.300781"/>
      <use xlink:href="#TimesNewRomanPSMT-6e" x="227.685547"/>
      <use xlink:href="#TimesNewRomanPSMT-74" x="277.685547"/>
      <use xlink:href="#TimesNewRomanPSMT-73" x="305.46875"/>
      <use xlink:href="#TimesNewRomanPSMT-20" x="344.384766"/>
      <use xlink:href="#TimesNewRomanPSMT-28" x="369.384766"/>
      <use xlink:href="#TimesNewRomanPSMT-41" x="402.685547"/>
      <use xlink:href="#TimesNewRomanPSMT-29" x="474.902344"/>
     </g>
    </g>
   </g>
   <g id="line2d_91">
    <path d="M -1 264.169702 
L 29.09622 264.169702 
L 30.43542 262.153756 
L 35.79222 262.153756 
L 37.13142 263.767928 
L 42.48822 263.767928 
L 43.82742 265.709774 
L 49.18422 265.709774 
L 50.52342 267.30102 
L 62.57622 267.286175 
L 63.91542 269.143271 
L 69.27222 269.143271 
L 70.61142 267.181459 
L 75.96822 267.181459 
L 77.30742 274.176676 
L 82.66422 274.176676 
L 84.00342 275.758493 
L 89.36022 275.758493 
L 90.69942 273.900253 
L 96.05622 273.900253 
L 97.39542 273.716329 
L 109.44822 273.664758 
L 110.78742 270.049836 
L 116.14422 270.049836 
L 117.48342 266.584372 
L 129.53622 266.633861 
L 130.87542 269.982967 
L 136.23222 269.982967 
L 137.57142 269.735325 
L 142.92822 269.735325 
L 144.26742 256.393474 
L 149.62422 256.393474 
L 150.96342 238.49395 
L 156.32022 238.49395 
L 157.65942 213.399849 
L 163.01622 213.399849 
L 164.35542 220.538478 
L 169.71222 220.538478 
L 171.05142 231.585384 
L 176.40822 231.585384 
L 177.74742 246.15969 
L 183.10422 246.15969 
L 184.44342 264.169702 
L 209.88822 264.169702 
L 209.88822 264.169702 
" clip-path="url(#p4e0569eb67)" style="fill: none; stroke: #d9524f; stroke-width: 1.5; stroke-linecap: square"/>
   </g>
   <g id="line2d_92">
    <path d="M -1 279.17234 
L 29.09622 279.17234 
L 30.43542 277.898389 
L 35.79222 277.898389 
L 37.13142 278.924673 
L 42.48822 278.924673 
L 43.82742 280.152756 
L 49.18422 280.152756 
L 50.52342 281.16017 
L 62.57622 281.144431 
L 63.91542 282.318602 
L 69.27222 282.318602 
L 70.61142 281.033409 
L 75.96822 281.033409 
L 77.30742 285.435498 
L 82.66422 285.435498 
L 84.00342 286.388007 
L 89.36022 286.388007 
L 90.69942 285.083921 
L 96.05622 285.083921 
L 97.39542 284.946941 
L 109.44822 284.892185 
L 110.78742 282.575582 
L 116.14422 282.575582 
L 117.48342 280.370803 
L 129.53622 280.423253 
L 130.87542 282.56323 
L 136.23222 282.56323 
L 137.57142 282.300496 
L 142.92822 282.300496 
L 144.26742 273.803213 
L 149.62422 273.803213 
L 150.96342 262.684428 
L 156.32022 262.684428 
L 157.65942 247.329265 
L 163.01622 247.329265 
L 164.35542 251.796083 
L 169.71222 251.796083 
L 171.05142 258.754023 
L 176.40822 258.754023 
L 177.74742 267.840037 
L 183.10422 267.840037 
L 184.44342 279.17234 
L 209.88822 279.17234 
L 209.88822 279.17234 
" clip-path="url(#p4e0569eb67)" style="fill: none; stroke: #d9524f; stroke-width: 1.5; stroke-linecap: square"/>
   </g>
   <g id="line2d_93">
    <path d="M -1 276.603299 
L 29.09622 276.603299 
L 30.43542 275.249098 
L 35.79222 275.249098 
L 37.13142 276.340525 
L 42.48822 276.340525 
L 43.82742 277.645825 
L 49.18422 277.645825 
L 50.52342 278.71638 
L 62.57622 278.699171 
L 63.91542 279.946294 
L 69.27222 279.946294 
L 70.61142 278.577837 
L 75.96822 278.577837 
L 77.30742 283.25051 
L 82.66422 283.25051 
L 84.00342 284.25763 
L 89.36022 284.25763 
L 90.69942 282.864834 
L 96.05622 282.864834 
L 97.39542 282.717988 
L 109.44822 282.658672 
L 110.78742 280.197167 
L 116.14422 280.197167 
L 117.48342 277.854486 
L 129.53622 277.911764 
L 130.87542 280.186526 
L 136.23222 280.186526 
L 137.57142 279.90098 
L 142.92822 279.90098 
L 144.26742 270.865612 
L 149.62422 270.865612 
L 150.96342 259.030781 
L 156.32022 259.030781 
L 157.65942 242.638605 
L 163.01622 242.638605 
L 164.35542 247.418963 
L 169.71222 247.418963 
L 171.05142 254.85656 
L 176.40822 254.85656 
L 177.74742 264.544986 
L 183.10422 264.544986 
L 184.44342 276.603299 
L 209.88822 276.603299 
L 209.88822 276.603299 
" clip-path="url(#p4e0569eb67)" style="fill: none; stroke: #d9524f; stroke-width: 1.5; stroke-linecap: square"/>
   </g>
   <g id="line2d_94">
    <path d="M -1 311.482968 
L 35.79222 311.491641 
L 37.13142 311.22889 
L 42.48822 311.22889 
L 43.82742 310.959216 
L 49.18422 310.959216 
L 50.52342 310.67926 
L 55.88022 310.67926 
L 57.21942 311.120483 
L 62.57622 311.120483 
L 63.91542 311.385443 
L 69.27222 311.385443 
L 70.61142 309.871994 
L 75.96822 309.871994 
L 77.30742 304.710819 
L 82.66422 304.710819 
L 84.00342 297.906731 
L 89.36022 297.906731 
L 90.69942 292.106417 
L 96.05622 292.106417 
L 97.39542 290.64984 
L 102.75222 290.64984 
L 104.09142 292.590083 
L 109.44822 292.590083 
L 110.78742 291.256064 
L 116.14422 291.256064 
L 117.48342 290.987864 
L 122.84022 290.987864 
L 124.17942 293.660278 
L 129.53622 293.660278 
L 130.87542 297.341301 
L 136.23222 297.341301 
L 137.57142 297.641601 
L 142.92822 297.641601 
L 144.26742 299.14799 
L 149.62422 299.14799 
L 150.96342 302.589736 
L 156.32022 302.589736 
L 157.65942 306.673835 
L 163.01622 306.673835 
L 164.35542 310.273934 
L 169.71222 310.273934 
L 171.05142 312.279175 
L 183.10422 312.258096 
L 184.44342 311.482968 
L 209.88822 311.482968 
L 209.88822 311.482968 
" clip-path="url(#p4e0569eb67)" style="fill: none; stroke: #5cb85c; stroke-width: 1.5; stroke-linecap: square"/>
   </g>
   <g id="line2d_95">
    <path d="M -1 306.862909 
L 29.09622 306.862909 
L 30.43542 306.993001 
L 35.79222 306.993001 
L 37.13142 306.816768 
L 42.48822 306.816768 
L 43.82742 306.692069 
L 69.27222 306.595715 
L 70.61142 307.177037 
L 82.66422 307.216206 
L 84.00342 307.740806 
L 89.36022 307.740806 
L 90.69942 309.143652 
L 96.05622 309.143652 
L 97.39542 309.370195 
L 102.75222 309.370195 
L 104.09142 309.595454 
L 109.44822 309.595454 
L 110.78742 310.010009 
L 116.14422 310.010009 
L 117.48342 310.29524 
L 122.84022 310.29524 
L 124.17942 310.059785 
L 129.53622 310.059785 
L 130.87542 309.671701 
L 136.23222 309.671701 
L 137.57142 310.799271 
L 142.92822 310.799271 
L 144.26742 312.34337 
L 149.62422 312.34337 
L 150.96342 312.964818 
L 156.32022 312.964818 
L 157.65942 314.655498 
L 163.01622 314.655498 
L 164.35542 312.732202 
L 169.71222 312.732202 
L 171.05142 309.920659 
L 176.40822 309.920659 
L 177.74742 308.304616 
L 183.10422 308.304616 
L 184.44342 306.862909 
L 209.88822 306.862909 
L 209.88822 306.862909 
" clip-path="url(#p4e0569eb67)" style="fill: none; stroke: #5cb85c; stroke-width: 1.5; stroke-linecap: square"/>
   </g>
   <g id="line2d_96">
    <path d="M -1 306.890318 
L 29.09622 306.890318 
L 30.43542 307.017503 
L 35.79222 307.017503 
L 37.13142 306.838293 
L 42.48822 306.838293 
L 43.82742 306.710658 
L 69.27222 306.629015 
L 70.61142 307.234728 
L 82.66422 307.308981 
L 84.00342 307.865408 
L 89.36022 307.865408 
L 90.69942 309.273515 
L 96.05622 309.273515 
L 97.39542 309.502207 
L 102.75222 309.502207 
L 104.09142 309.715449 
L 109.44822 309.715449 
L 110.78742 310.128073 
L 116.14422 310.128073 
L 117.48342 310.409243 
L 122.84022 310.409243 
L 124.17942 310.167718 
L 129.53622 310.167718 
L 130.87542 309.770867 
L 136.23222 309.770867 
L 137.57142 310.881167 
L 142.92822 310.881167 
L 144.26742 312.399854 
L 149.62422 312.399854 
L 150.96342 313.005282 
L 156.32022 313.005282 
L 157.65942 314.672727 
L 163.01622 314.672727 
L 164.35542 312.755123 
L 169.71222 312.755123 
L 171.05142 309.949056 
L 176.40822 309.949056 
L 177.74742 308.333182 
L 183.10422 308.333182 
L 184.44342 306.890318 
L 209.88822 306.890318 
L 209.88822 306.890318 
" clip-path="url(#p4e0569eb67)" style="fill: none; stroke: #5cb85c; stroke-width: 1.5; stroke-linecap: square"/>
   </g>
   <g id="line2d_97">
    <path d="M -1 300.436807 
L 29.09622 300.436807 
L 30.43542 300.782576 
L 35.79222 300.782576 
L 37.13142 301.20864 
L 42.48822 301.20864 
L 43.82742 300.821928 
L 49.18422 300.821928 
L 50.52342 300.471358 
L 55.88022 300.471358 
L 57.21942 299.773983 
L 62.57622 299.773983 
L 63.91542 299.012516 
L 69.27222 299.012516 
L 70.61142 294.833984 
L 75.96822 294.833984 
L 77.30742 288.686704 
L 82.66422 288.686704 
L 84.00342 282.096355 
L 89.36022 282.096355 
L 90.69942 269.042831 
L 96.05622 269.042831 
L 97.39542 266.85431 
L 102.75222 266.85431 
L 104.09142 264.421178 
L 109.44822 264.421178 
L 110.78742 263.228763 
L 122.84022 263.238403 
L 124.17942 265.588511 
L 129.53622 265.588511 
L 130.87542 266.631816 
L 136.23222 266.631816 
L 137.57142 254.919932 
L 142.92822 254.919932 
L 144.26742 250.313124 
L 149.62422 250.313124 
L 150.96342 259.35777 
L 156.32022 259.35777 
L 157.65942 263.643885 
L 163.01622 263.643885 
L 164.35542 277.2066 
L 169.71222 277.2066 
L 171.05142 296.697172 
L 176.40822 296.697172 
L 177.74742 300.890796 
L 183.10422 300.890796 
L 184.44342 300.436807 
L 209.88822 300.436807 
L 209.88822 300.436807 
" clip-path="url(#p4e0569eb67)" style="fill: none; stroke: #337ab7; stroke-width: 1.5; stroke-linecap: square"/>
   </g>
   <g id="line2d_98">
    <path d="M -1 304.255157 
L 29.09622 304.255157 
L 30.43542 304.442864 
L 35.79222 304.442864 
L 37.13142 304.698735 
L 42.48822 304.698735 
L 43.82742 304.486738 
L 49.18422 304.486738 
L 50.52342 304.293698 
L 55.88022 304.293698 
L 57.21942 303.891207 
L 62.57622 303.891207 
L 63.91542 303.463508 
L 69.27222 303.463508 
L 70.61142 301.054627 
L 75.96822 301.054627 
L 77.30742 297.605369 
L 82.66422 297.605369 
L 84.00342 293.923482 
L 89.36022 293.923482 
L 90.69942 286.777604 
L 96.05622 286.777604 
L 97.39542 285.605544 
L 102.75222 285.605544 
L 104.09142 284.312397 
L 109.44822 284.312397 
L 110.78742 283.659527 
L 122.84022 283.642633 
L 124.17942 284.887009 
L 129.53622 284.887009 
L 130.87542 285.4632 
L 136.23222 285.4632 
L 137.57142 279.33502 
L 142.92822 279.33502 
L 144.26742 276.904869 
L 149.62422 276.904869 
L 150.96342 281.428094 
L 156.32022 281.428094 
L 157.65942 283.518241 
L 163.01622 283.518241 
L 164.35542 290.88089 
L 169.71222 290.88089 
L 171.05142 301.907864 
L 176.40822 301.907864 
L 177.74742 304.41022 
L 183.10422 304.41022 
L 184.44342 304.255157 
L 209.88822 304.255157 
L 209.88822 304.255157 
" clip-path="url(#p4e0569eb67)" style="fill: none; stroke: #337ab7; stroke-width: 1.5; stroke-linecap: square"/>
   </g>
   <g id="line2d_99">
    <path d="M -1 303.456211 
L 29.09622 303.456211 
L 30.43542 303.670596 
L 35.79222 303.670596 
L 37.13142 303.956177 
L 42.48822 303.956177 
L 43.82742 303.714604 
L 49.18422 303.714604 
L 50.52342 303.49493 
L 55.88022 303.49493 
L 57.21942 303.041916 
L 62.57622 303.041916 
L 63.91542 302.557677 
L 69.27222 302.557677 
L 70.61142 299.849353 
L 75.96822 299.849353 
L 77.30742 295.952236 
L 82.66422 295.952236 
L 84.00342 291.790399 
L 89.36022 291.790399 
L 90.69942 283.675443 
L 96.05622 283.675443 
L 97.39542 282.337208 
L 102.75222 282.337208 
L 104.09142 280.858009 
L 109.44822 280.858009 
L 110.78742 280.116194 
L 122.84022 280.102806 
L 124.17942 281.527731 
L 129.53622 281.527731 
L 130.87542 282.181142 
L 136.23222 282.181142 
L 137.57142 275.14258 
L 142.92822 275.14258 
L 144.26742 272.355644 
L 149.62422 272.355644 
L 150.96342 277.610801 
L 156.32022 277.610801 
L 157.65942 280.053205 
L 163.01622 280.053205 
L 164.35542 288.430837 
L 169.71222 288.430837 
L 171.05142 300.863852 
L 176.40822 300.863852 
L 177.74742 303.658318 
L 183.10422 303.658318 
L 184.44342 303.456211 
L 209.88822 303.456211 
L 209.88822 303.456211 
" clip-path="url(#p4e0569eb67)" style="fill: none; stroke: #337ab7; stroke-width: 1.5; stroke-linecap: square"/>
   </g>
   <g id="line2d_100">
    <path d="M -1 200.127273 
L 209.88822 200.127273 
" clip-path="url(#p4e0569eb67)" style="fill: none; stroke-dasharray: 1.5,2.475; stroke-dashoffset: 0; stroke: #d9524f; stroke-width: 1.5"/>
   </g>
   <g id="line2d_101">
    <path d="M -1 279.681919 
L 209.88822 279.681919 
" clip-path="url(#p4e0569eb67)" style="fill: none; stroke-dasharray: 1.5,2.475; stroke-dashoffset: 0; stroke: #5cb85c; stroke-width: 1.5"/>
   </g>
   <g id="line2d_102">
    <path d="M -1 246.924124 
L 209.88822 246.924124 
" clip-path="url(#p4e0569eb67)" style="fill: none; stroke-dasharray: 1.5,2.475; stroke-dashoffset: 0; stroke: #337ab7; stroke-width: 1.5"/>
   </g>
   <g id="patch_8">
    <path d="M 27 320.4 
L 27 194.4 
" style="fill: none; stroke: #000000; stroke-width: 0.8; stroke-linejoin: miter; stroke-linecap: square"/>
   </g>
   <g id="patch_9">
    <path d="M 194.4 320.4 
L 194.4 194.4 
" style="fill: none; stroke: #000000; stroke-width: 0.8; stroke-linejoin: miter; stroke-linecap: square"/>
   </g>
   <g id="patch_10">
    <path d="M 27 320.4 
L 194.4 320.4 
" style="fill: none; stroke: #000000; stroke-width: 0.8; stroke-linejoin: miter; stroke-linecap: square"/>
   </g>
   <g id="patch_11">
    <path d="M 27 194.4 
L 194.4 194.4 
" style="fill: none; stroke: #000000; stroke-width: 0.8; stroke-linejoin: miter; stroke-linecap: square"/>
   </g>
  </g>
 </g>
 <defs>
  <clipPath id="pd185dde131">
   <rect x="27" y="43.2" width="167.4" height="126"/>
  </clipPath>
  <clipPath id="p4e0569eb67">
   <rect x="27" y="194.4" width="167.4" height="126"/>
  </clipPath>
 </defs>
</svg>
