<?xml version="1.0" encoding="utf-8" standalone="no"?>
<!DOCTYPE svg PUBLIC "-//W3C//DTD SVG 1.1//EN"
  "http://www.w3.org/Graphics/SVG/1.1/DTD/svg11.dtd">
<svg xmlns:xlink="http://www.w3.org/1999/xlink" width="216pt" height="360pt" viewBox="0 0 216 360" xmlns="http://www.w3.org/2000/svg" version="1.1">
 <metadata>
  <rdf:RDF xmlns:dc="http://purl.org/dc/elements/1.1/" xmlns:cc="http://creativecommons.org/ns#" xmlns:rdf="http://www.w3.org/1999/02/22-rdf-syntax-ns#">
   <cc:Work>
    <dc:type rdf:resource="http://purl.org/dc/dcmitype/StillImage"/>
    <dc:date>2024-05-19T00:27:41.792088</dc:date>
    <dc:format>image/svg+xml</dc:format>
    <dc:creator>
     <cc:Agent>
      <dc:title>Matplotlib v3.7.0, https://matplotlib.org/</dc:title>
     </cc:Agent>
    </dc:creator>
   </cc:Work>
  </rdf:RDF>
 </metadata>
 <defs>
  <style type="text/css">*{stroke-linejoin: round; stroke-linecap: butt}</style>
 </defs>
 <g id="figure_1">
  <g id="patch_1">
   <path d="M 0 360 
L 216 360 
L 216 0 
L 0 0 
z
" style="fill: #ffffff"/>
  </g>
  <g id="axes_1">
   <g id="patch_2">
    <path d="M 27 169.2 
L 194.4 169.2 
L 194.4 43.2 
L 27 43.2 
z
" style="fill: #ffffff"/>
   </g>
   <g id="matplotlib.axis_1">
    <g id="xtick_1">
     <g id="line2d_1">
      <path d="M 27 169.2 
L 27 43.2 
" clip-path="url(#p508cb672f9)" style="fill: none; stroke: #b0b0b0; stroke-width: 0.8; stroke-linecap: square"/>
     </g>
     <g id="line2d_2">
      <defs>
       <path id="m42f65b3914" d="M 0 0 
L 0 3.5 
" style="stroke: #000000; stroke-width: 0.8"/>
      </defs>
      <g>
       <use xlink:href="#m42f65b3914" x="27" y="169.2" style="stroke: #000000; stroke-width: 0.8"/>
      </g>
     </g>
     <g id="text_1">
      <!-- 0 -->
      <g transform="translate(24.5 183.14375) scale(0.1 -0.1)">
       <defs>
        <path id="TimesNewRomanPSMT-30" d="M 231 2094 
Q 231 2819 450 3342 
Q 669 3866 1031 4122 
Q 1313 4325 1613 4325 
Q 2100 4325 2488 3828 
Q 2972 3213 2972 2159 
Q 2972 1422 2759 906 
Q 2547 391 2217 158 
Q 1888 -75 1581 -75 
Q 975 -75 572 641 
Q 231 1244 231 2094 
z
M 844 2016 
Q 844 1141 1059 588 
Q 1238 122 1591 122 
Q 1759 122 1940 273 
Q 2122 425 2216 781 
Q 2359 1319 2359 2297 
Q 2359 3022 2209 3506 
Q 2097 3866 1919 4016 
Q 1791 4119 1609 4119 
Q 1397 4119 1231 3928 
Q 1006 3669 925 3112 
Q 844 2556 844 2016 
z
" transform="scale(0.015625)"/>
       </defs>
       <use xlink:href="#TimesNewRomanPSMT-30"/>
      </g>
     </g>
    </g>
    <g id="xtick_2">
     <g id="line2d_3">
      <path d="M 54.9 169.2 
L 54.9 43.2 
" clip-path="url(#p508cb672f9)" style="fill: none; stroke: #b0b0b0; stroke-width: 0.8; stroke-linecap: square"/>
     </g>
     <g id="line2d_4">
      <g>
       <use xlink:href="#m42f65b3914" x="54.9" y="169.2" style="stroke: #000000; stroke-width: 0.8"/>
      </g>
     </g>
     <g id="text_2">
      <!-- 4 -->
      <g transform="translate(52.4 183.14375) scale(0.1 -0.1)">
       <defs>
        <path id="TimesNewRomanPSMT-34" d="M 2978 1563 
L 2978 1119 
L 2409 1119 
L 2409 0 
L 1894 0 
L 1894 1119 
L 100 1119 
L 100 1519 
L 2066 4325 
L 2409 4325 
L 2409 1563 
L 2978 1563 
z
M 1894 1563 
L 1894 3666 
L 406 1563 
L 1894 1563 
z
" transform="scale(0.015625)"/>
       </defs>
       <use xlink:href="#TimesNewRomanPSMT-34"/>
      </g>
     </g>
    </g>
    <g id="xtick_3">
     <g id="line2d_5">
      <path d="M 82.8 169.2 
L 82.8 43.2 
" clip-path="url(#p508cb672f9)" style="fill: none; stroke: #b0b0b0; stroke-width: 0.8; stroke-linecap: square"/>
     </g>
     <g id="line2d_6">
      <g>
       <use xlink:href="#m42f65b3914" x="82.8" y="169.2" style="stroke: #000000; stroke-width: 0.8"/>
      </g>
     </g>
     <g id="text_3">
      <!-- 8 -->
      <g transform="translate(80.3 183.14375) scale(0.1 -0.1)">
       <defs>
        <path id="TimesNewRomanPSMT-38" d="M 1228 2134 
Q 725 2547 579 2797 
Q 434 3047 434 3316 
Q 434 3728 753 4026 
Q 1072 4325 1600 4325 
Q 2113 4325 2425 4047 
Q 2738 3769 2738 3413 
Q 2738 3175 2569 2928 
Q 2400 2681 1866 2347 
Q 2416 1922 2594 1678 
Q 2831 1359 2831 1006 
Q 2831 559 2490 242 
Q 2150 -75 1597 -75 
Q 994 -75 656 303 
Q 388 606 388 966 
Q 388 1247 577 1523 
Q 766 1800 1228 2134 
z
M 1719 2469 
Q 2094 2806 2194 3001 
Q 2294 3197 2294 3444 
Q 2294 3772 2109 3958 
Q 1925 4144 1606 4144 
Q 1288 4144 1088 3959 
Q 888 3775 888 3528 
Q 888 3366 970 3203 
Q 1053 3041 1206 2894 
L 1719 2469 
z
M 1375 2016 
Q 1116 1797 991 1539 
Q 866 1281 866 981 
Q 866 578 1086 336 
Q 1306 94 1647 94 
Q 1984 94 2187 284 
Q 2391 475 2391 747 
Q 2391 972 2272 1150 
Q 2050 1481 1375 2016 
z
" transform="scale(0.015625)"/>
       </defs>
       <use xlink:href="#TimesNewRomanPSMT-38"/>
      </g>
     </g>
    </g>
    <g id="xtick_4">
     <g id="line2d_7">
      <path d="M 110.7 169.2 
L 110.7 43.2 
" clip-path="url(#p508cb672f9)" style="fill: none; stroke: #b0b0b0; stroke-width: 0.8; stroke-linecap: square"/>
     </g>
     <g id="line2d_8">
      <g>
       <use xlink:href="#m42f65b3914" x="110.7" y="169.2" style="stroke: #000000; stroke-width: 0.8"/>
      </g>
     </g>
     <g id="text_4">
      <!-- 12 -->
      <g transform="translate(105.7 183.14375) scale(0.1 -0.1)">
       <defs>
        <path id="TimesNewRomanPSMT-31" d="M 750 3822 
L 1781 4325 
L 1884 4325 
L 1884 747 
Q 1884 391 1914 303 
Q 1944 216 2037 169 
Q 2131 122 2419 116 
L 2419 0 
L 825 0 
L 825 116 
Q 1125 122 1212 167 
Q 1300 213 1334 289 
Q 1369 366 1369 747 
L 1369 3034 
Q 1369 3497 1338 3628 
Q 1316 3728 1258 3775 
Q 1200 3822 1119 3822 
Q 1003 3822 797 3725 
L 750 3822 
z
" transform="scale(0.015625)"/>
        <path id="TimesNewRomanPSMT-32" d="M 2934 816 
L 2638 0 
L 138 0 
L 138 116 
Q 1241 1122 1691 1759 
Q 2141 2397 2141 2925 
Q 2141 3328 1894 3587 
Q 1647 3847 1303 3847 
Q 991 3847 742 3664 
Q 494 3481 375 3128 
L 259 3128 
Q 338 3706 661 4015 
Q 984 4325 1469 4325 
Q 1984 4325 2329 3994 
Q 2675 3663 2675 3213 
Q 2675 2891 2525 2569 
Q 2294 2063 1775 1497 
Q 997 647 803 472 
L 1909 472 
Q 2247 472 2383 497 
Q 2519 522 2628 598 
Q 2738 675 2819 816 
L 2934 816 
z
" transform="scale(0.015625)"/>
       </defs>
       <use xlink:href="#TimesNewRomanPSMT-31"/>
       <use xlink:href="#TimesNewRomanPSMT-32" x="50"/>
      </g>
     </g>
    </g>
    <g id="xtick_5">
     <g id="line2d_9">
      <path d="M 138.6 169.2 
L 138.6 43.2 
" clip-path="url(#p508cb672f9)" style="fill: none; stroke: #b0b0b0; stroke-width: 0.8; stroke-linecap: square"/>
     </g>
     <g id="line2d_10">
      <g>
       <use xlink:href="#m42f65b3914" x="138.6" y="169.2" style="stroke: #000000; stroke-width: 0.8"/>
      </g>
     </g>
     <g id="text_5">
      <!-- 16 -->
      <g transform="translate(133.6 183.14375) scale(0.1 -0.1)">
       <defs>
        <path id="TimesNewRomanPSMT-36" d="M 2869 4325 
L 2869 4209 
Q 2456 4169 2195 4045 
Q 1934 3922 1679 3669 
Q 1425 3416 1258 3105 
Q 1091 2794 978 2366 
Q 1428 2675 1881 2675 
Q 2316 2675 2634 2325 
Q 2953 1975 2953 1425 
Q 2953 894 2631 456 
Q 2244 -75 1606 -75 
Q 1172 -75 869 213 
Q 275 772 275 1663 
Q 275 2231 503 2743 
Q 731 3256 1154 3653 
Q 1578 4050 1965 4187 
Q 2353 4325 2688 4325 
L 2869 4325 
z
M 925 2138 
Q 869 1716 869 1456 
Q 869 1156 980 804 
Q 1091 453 1309 247 
Q 1469 100 1697 100 
Q 1969 100 2183 356 
Q 2397 613 2397 1088 
Q 2397 1622 2184 2012 
Q 1972 2403 1581 2403 
Q 1463 2403 1327 2353 
Q 1191 2303 925 2138 
z
" transform="scale(0.015625)"/>
       </defs>
       <use xlink:href="#TimesNewRomanPSMT-31"/>
       <use xlink:href="#TimesNewRomanPSMT-36" x="50"/>
      </g>
     </g>
    </g>
    <g id="xtick_6">
     <g id="line2d_11">
      <path d="M 166.5 169.2 
L 166.5 43.2 
" clip-path="url(#p508cb672f9)" style="fill: none; stroke: #b0b0b0; stroke-width: 0.8; stroke-linecap: square"/>
     </g>
     <g id="line2d_12">
      <g>
       <use xlink:href="#m42f65b3914" x="166.5" y="169.2" style="stroke: #000000; stroke-width: 0.8"/>
      </g>
     </g>
     <g id="text_6">
      <!-- 20 -->
      <g transform="translate(161.5 183.14375) scale(0.1 -0.1)">
       <use xlink:href="#TimesNewRomanPSMT-32"/>
       <use xlink:href="#TimesNewRomanPSMT-30" x="50"/>
      </g>
     </g>
    </g>
    <g id="xtick_7">
     <g id="line2d_13">
      <path d="M 194.4 169.2 
L 194.4 43.2 
" clip-path="url(#p508cb672f9)" style="fill: none; stroke: #b0b0b0; stroke-width: 0.8; stroke-linecap: square"/>
     </g>
     <g id="line2d_14">
      <g>
       <use xlink:href="#m42f65b3914" x="194.4" y="169.2" style="stroke: #000000; stroke-width: 0.8"/>
      </g>
     </g>
     <g id="text_7">
      <!-- 24 -->
      <g transform="translate(189.4 183.14375) scale(0.1 -0.1)">
       <use xlink:href="#TimesNewRomanPSMT-32"/>
       <use xlink:href="#TimesNewRomanPSMT-34" x="50"/>
      </g>
     </g>
    </g>
   </g>
   <g id="matplotlib.axis_2">
    <g id="ytick_1">
     <g id="line2d_15">
      <path d="M 27 142.677928 
L 194.4 142.677928 
" clip-path="url(#p508cb672f9)" style="fill: none; stroke: #b0b0b0; stroke-width: 0.8; stroke-linecap: square"/>
     </g>
     <g id="line2d_16">
      <defs>
       <path id="ma5b3062da8" d="M 0 0 
L -3.5 0 
" style="stroke: #000000; stroke-width: 0.8"/>
      </defs>
      <g>
       <use xlink:href="#ma5b3062da8" x="27" y="142.677928" style="stroke: #000000; stroke-width: 0.8"/>
      </g>
     </g>
     <g id="text_8">
      <!-- 0.90 -->
      <g transform="translate(2.5 146.149803) scale(0.1 -0.1)">
       <defs>
        <path id="TimesNewRomanPSMT-2e" d="M 800 606 
Q 947 606 1047 504 
Q 1147 403 1147 259 
Q 1147 116 1045 14 
Q 944 -88 800 -88 
Q 656 -88 554 14 
Q 453 116 453 259 
Q 453 406 554 506 
Q 656 606 800 606 
z
" transform="scale(0.015625)"/>
        <path id="TimesNewRomanPSMT-39" d="M 338 -88 
L 338 28 
Q 744 34 1094 217 
Q 1444 400 1770 856 
Q 2097 1313 2225 1859 
Q 1734 1544 1338 1544 
Q 891 1544 572 1889 
Q 253 2234 253 2806 
Q 253 3363 572 3797 
Q 956 4325 1575 4325 
Q 2097 4325 2469 3894 
Q 2925 3359 2925 2575 
Q 2925 1869 2578 1258 
Q 2231 647 1613 244 
Q 1109 -88 516 -88 
L 338 -88 
z
M 2275 2091 
Q 2331 2497 2331 2741 
Q 2331 3044 2228 3395 
Q 2125 3747 1936 3934 
Q 1747 4122 1506 4122 
Q 1228 4122 1018 3872 
Q 809 3622 809 3128 
Q 809 2469 1088 2097 
Q 1291 1828 1588 1828 
Q 1731 1828 1928 1897 
Q 2125 1966 2275 2091 
z
" transform="scale(0.015625)"/>
       </defs>
       <use xlink:href="#TimesNewRomanPSMT-30"/>
       <use xlink:href="#TimesNewRomanPSMT-2e" x="50"/>
       <use xlink:href="#TimesNewRomanPSMT-39" x="75"/>
       <use xlink:href="#TimesNewRomanPSMT-30" x="125"/>
      </g>
     </g>
    </g>
    <g id="ytick_2">
     <g id="line2d_17">
      <path d="M 27 111.427709 
L 194.4 111.427709 
" clip-path="url(#p508cb672f9)" style="fill: none; stroke: #b0b0b0; stroke-width: 0.8; stroke-linecap: square"/>
     </g>
     <g id="line2d_18">
      <g>
       <use xlink:href="#ma5b3062da8" x="27" y="111.427709" style="stroke: #000000; stroke-width: 0.8"/>
      </g>
     </g>
     <g id="text_9">
      <!-- 0.95 -->
      <g transform="translate(2.5 114.899584) scale(0.1 -0.1)">
       <defs>
        <path id="TimesNewRomanPSMT-35" d="M 2778 4238 
L 2534 3706 
L 1259 3706 
L 981 3138 
Q 1809 3016 2294 2522 
Q 2709 2097 2709 1522 
Q 2709 1188 2573 903 
Q 2438 619 2231 419 
Q 2025 219 1772 97 
Q 1413 -75 1034 -75 
Q 653 -75 479 54 
Q 306 184 306 341 
Q 306 428 378 495 
Q 450 563 559 563 
Q 641 563 702 538 
Q 763 513 909 409 
Q 1144 247 1384 247 
Q 1750 247 2026 523 
Q 2303 800 2303 1197 
Q 2303 1581 2056 1914 
Q 1809 2247 1375 2428 
Q 1034 2569 447 2591 
L 1259 4238 
L 2778 4238 
z
" transform="scale(0.015625)"/>
       </defs>
       <use xlink:href="#TimesNewRomanPSMT-30"/>
       <use xlink:href="#TimesNewRomanPSMT-2e" x="50"/>
       <use xlink:href="#TimesNewRomanPSMT-39" x="75"/>
       <use xlink:href="#TimesNewRomanPSMT-35" x="125"/>
      </g>
     </g>
    </g>
    <g id="ytick_3">
     <g id="line2d_19">
      <path d="M 27 80.177491 
L 194.4 80.177491 
" clip-path="url(#p508cb672f9)" style="fill: none; stroke: #b0b0b0; stroke-width: 0.8; stroke-linecap: square"/>
     </g>
     <g id="line2d_20">
      <g>
       <use xlink:href="#ma5b3062da8" x="27" y="80.177491" style="stroke: #000000; stroke-width: 0.8"/>
      </g>
     </g>
     <g id="text_10">
      <!-- 1.00 -->
      <g transform="translate(2.5 83.649366) scale(0.1 -0.1)">
       <use xlink:href="#TimesNewRomanPSMT-31"/>
       <use xlink:href="#TimesNewRomanPSMT-2e" x="50"/>
       <use xlink:href="#TimesNewRomanPSMT-30" x="75"/>
       <use xlink:href="#TimesNewRomanPSMT-30" x="125"/>
      </g>
     </g>
    </g>
    <g id="ytick_4">
     <g id="line2d_21">
      <path d="M 27 48.927273 
L 194.4 48.927273 
" clip-path="url(#p508cb672f9)" style="fill: none; stroke: #b0b0b0; stroke-width: 0.8; stroke-linecap: square"/>
     </g>
     <g id="line2d_22">
      <g>
       <use xlink:href="#ma5b3062da8" x="27" y="48.927273" style="stroke: #000000; stroke-width: 0.8"/>
      </g>
     </g>
     <g id="text_11">
      <!-- 1.05 -->
      <g transform="translate(2.5 52.399148) scale(0.1 -0.1)">
       <use xlink:href="#TimesNewRomanPSMT-31"/>
       <use xlink:href="#TimesNewRomanPSMT-2e" x="50"/>
       <use xlink:href="#TimesNewRomanPSMT-30" x="75"/>
       <use xlink:href="#TimesNewRomanPSMT-35" x="125"/>
      </g>
     </g>
    </g>
    <g id="text_12">
     <!-- Voltages (pu) -->
     <g transform="translate(-3.657813 132.910156) rotate(-90) scale(0.1 -0.1)">
      <defs>
       <path id="TimesNewRomanPSMT-56" d="M 4544 4238 
L 4544 4122 
Q 4319 4081 4203 3978 
Q 4038 3825 3909 3509 
L 2431 -97 
L 2316 -97 
L 728 3556 
Q 606 3838 556 3900 
Q 478 3997 364 4051 
Q 250 4106 56 4122 
L 56 4238 
L 1788 4238 
L 1788 4122 
Q 1494 4094 1406 4022 
Q 1319 3950 1319 3838 
Q 1319 3681 1463 3350 
L 2541 866 
L 3541 3319 
Q 3688 3681 3688 3822 
Q 3688 3913 3597 3995 
Q 3506 4078 3291 4113 
Q 3275 4116 3238 4122 
L 3238 4238 
L 4544 4238 
z
" transform="scale(0.015625)"/>
       <path id="TimesNewRomanPSMT-6f" d="M 1600 2947 
Q 2250 2947 2644 2453 
Q 2978 2031 2978 1484 
Q 2978 1100 2793 706 
Q 2609 313 2286 112 
Q 1963 -88 1566 -88 
Q 919 -88 538 428 
Q 216 863 216 1403 
Q 216 1797 411 2186 
Q 606 2575 925 2761 
Q 1244 2947 1600 2947 
z
M 1503 2744 
Q 1338 2744 1170 2645 
Q 1003 2547 900 2300 
Q 797 2053 797 1666 
Q 797 1041 1045 587 
Q 1294 134 1700 134 
Q 2003 134 2200 384 
Q 2397 634 2397 1244 
Q 2397 2006 2069 2444 
Q 1847 2744 1503 2744 
z
" transform="scale(0.015625)"/>
       <path id="TimesNewRomanPSMT-6c" d="M 1184 4444 
L 1184 647 
Q 1184 378 1223 290 
Q 1263 203 1344 158 
Q 1425 113 1647 113 
L 1647 0 
L 244 0 
L 244 113 
Q 441 113 512 153 
Q 584 194 625 287 
Q 666 381 666 647 
L 666 3247 
Q 666 3731 644 3842 
Q 622 3953 573 3993 
Q 525 4034 450 4034 
Q 369 4034 244 3984 
L 191 4094 
L 1044 4444 
L 1184 4444 
z
" transform="scale(0.015625)"/>
       <path id="TimesNewRomanPSMT-74" d="M 1031 3803 
L 1031 2863 
L 1700 2863 
L 1700 2644 
L 1031 2644 
L 1031 788 
Q 1031 509 1111 412 
Q 1191 316 1316 316 
Q 1419 316 1516 380 
Q 1613 444 1666 569 
L 1788 569 
Q 1678 263 1478 108 
Q 1278 -47 1066 -47 
Q 922 -47 784 33 
Q 647 113 581 261 
Q 516 409 516 719 
L 516 2644 
L 63 2644 
L 63 2747 
Q 234 2816 414 2980 
Q 594 3144 734 3369 
Q 806 3488 934 3803 
L 1031 3803 
z
" transform="scale(0.015625)"/>
       <path id="TimesNewRomanPSMT-61" d="M 1822 413 
Q 1381 72 1269 19 
Q 1100 -59 909 -59 
Q 613 -59 420 144 
Q 228 347 228 678 
Q 228 888 322 1041 
Q 450 1253 767 1440 
Q 1084 1628 1822 1897 
L 1822 2009 
Q 1822 2438 1686 2597 
Q 1550 2756 1291 2756 
Q 1094 2756 978 2650 
Q 859 2544 859 2406 
L 866 2225 
Q 866 2081 792 2003 
Q 719 1925 600 1925 
Q 484 1925 411 2006 
Q 338 2088 338 2228 
Q 338 2497 613 2722 
Q 888 2947 1384 2947 
Q 1766 2947 2009 2819 
Q 2194 2722 2281 2516 
Q 2338 2381 2338 1966 
L 2338 994 
Q 2338 584 2353 492 
Q 2369 400 2405 369 
Q 2441 338 2488 338 
Q 2538 338 2575 359 
Q 2641 400 2828 588 
L 2828 413 
Q 2478 -56 2159 -56 
Q 2006 -56 1915 50 
Q 1825 156 1822 413 
z
M 1822 616 
L 1822 1706 
Q 1350 1519 1213 1441 
Q 966 1303 859 1153 
Q 753 1003 753 825 
Q 753 600 887 451 
Q 1022 303 1197 303 
Q 1434 303 1822 616 
z
" transform="scale(0.015625)"/>
       <path id="TimesNewRomanPSMT-67" d="M 966 1044 
Q 703 1172 562 1401 
Q 422 1631 422 1909 
Q 422 2334 742 2640 
Q 1063 2947 1563 2947 
Q 1972 2947 2272 2747 
L 2878 2747 
Q 3013 2747 3034 2739 
Q 3056 2731 3066 2713 
Q 3084 2684 3084 2613 
Q 3084 2531 3069 2500 
Q 3059 2484 3036 2475 
Q 3013 2466 2878 2466 
L 2506 2466 
Q 2681 2241 2681 1891 
Q 2681 1491 2375 1206 
Q 2069 922 1553 922 
Q 1341 922 1119 984 
Q 981 866 932 777 
Q 884 688 884 625 
Q 884 572 936 522 
Q 988 472 1138 450 
Q 1225 438 1575 428 
Q 2219 413 2409 384 
Q 2700 344 2873 169 
Q 3047 -6 3047 -263 
Q 3047 -616 2716 -925 
Q 2228 -1381 1444 -1381 
Q 841 -1381 425 -1109 
Q 191 -953 191 -784 
Q 191 -709 225 -634 
Q 278 -519 444 -313 
Q 466 -284 763 25 
Q 600 122 533 198 
Q 466 275 466 372 
Q 466 481 555 628 
Q 644 775 966 1044 
z
M 1509 2797 
Q 1278 2797 1122 2612 
Q 966 2428 966 2047 
Q 966 1553 1178 1281 
Q 1341 1075 1591 1075 
Q 1828 1075 1981 1253 
Q 2134 1431 2134 1813 
Q 2134 2309 1919 2591 
Q 1759 2797 1509 2797 
z
M 934 0 
Q 788 -159 713 -296 
Q 638 -434 638 -550 
Q 638 -700 819 -813 
Q 1131 -1006 1722 -1006 
Q 2284 -1006 2551 -807 
Q 2819 -609 2819 -384 
Q 2819 -222 2659 -153 
Q 2497 -84 2016 -72 
Q 1313 -53 934 0 
z
" transform="scale(0.015625)"/>
       <path id="TimesNewRomanPSMT-65" d="M 681 1784 
Q 678 1147 991 784 
Q 1303 422 1725 422 
Q 2006 422 2214 576 
Q 2422 731 2563 1106 
L 2659 1044 
Q 2594 616 2278 264 
Q 1963 -88 1488 -88 
Q 972 -88 605 314 
Q 238 716 238 1394 
Q 238 2128 614 2539 
Q 991 2950 1559 2950 
Q 2041 2950 2350 2633 
Q 2659 2316 2659 1784 
L 681 1784 
z
M 681 1966 
L 2006 1966 
Q 1991 2241 1941 2353 
Q 1863 2528 1708 2628 
Q 1553 2728 1384 2728 
Q 1125 2728 920 2526 
Q 716 2325 681 1966 
z
" transform="scale(0.015625)"/>
       <path id="TimesNewRomanPSMT-73" d="M 2050 2947 
L 2050 1972 
L 1947 1972 
Q 1828 2431 1642 2597 
Q 1456 2763 1169 2763 
Q 950 2763 815 2647 
Q 681 2531 681 2391 
Q 681 2216 781 2091 
Q 878 1963 1175 1819 
L 1631 1597 
Q 2266 1288 2266 781 
Q 2266 391 1970 151 
Q 1675 -88 1309 -88 
Q 1047 -88 709 6 
Q 606 38 541 38 
Q 469 38 428 -44 
L 325 -44 
L 325 978 
L 428 978 
Q 516 541 762 319 
Q 1009 97 1316 97 
Q 1531 97 1667 223 
Q 1803 350 1803 528 
Q 1803 744 1651 891 
Q 1500 1038 1047 1263 
Q 594 1488 453 1669 
Q 313 1847 313 2119 
Q 313 2472 555 2709 
Q 797 2947 1181 2947 
Q 1350 2947 1591 2875 
Q 1750 2828 1803 2828 
Q 1853 2828 1881 2850 
Q 1909 2872 1947 2947 
L 2050 2947 
z
" transform="scale(0.015625)"/>
       <path id="TimesNewRomanPSMT-20" transform="scale(0.015625)"/>
       <path id="TimesNewRomanPSMT-28" d="M 1988 -1253 
L 1988 -1369 
Q 1516 -1131 1200 -813 
Q 750 -359 506 256 
Q 263 872 263 1534 
Q 263 2503 741 3301 
Q 1219 4100 1988 4444 
L 1988 4313 
Q 1603 4100 1356 3731 
Q 1109 3363 987 2797 
Q 866 2231 866 1616 
Q 866 947 969 400 
Q 1050 -31 1165 -292 
Q 1281 -553 1476 -793 
Q 1672 -1034 1988 -1253 
z
" transform="scale(0.015625)"/>
       <path id="TimesNewRomanPSMT-70" d="M -6 2578 
L 875 2934 
L 994 2934 
L 994 2266 
Q 1216 2644 1439 2795 
Q 1663 2947 1909 2947 
Q 2341 2947 2628 2609 
Q 2981 2197 2981 1534 
Q 2981 794 2556 309 
Q 2206 -88 1675 -88 
Q 1444 -88 1275 -22 
Q 1150 25 994 166 
L 994 -706 
Q 994 -1000 1030 -1079 
Q 1066 -1159 1155 -1206 
Q 1244 -1253 1478 -1253 
L 1478 -1369 
L -22 -1369 
L -22 -1253 
L 56 -1253 
Q 228 -1256 350 -1188 
Q 409 -1153 442 -1076 
Q 475 -1000 475 -688 
L 475 2019 
Q 475 2297 450 2372 
Q 425 2447 370 2484 
Q 316 2522 222 2522 
Q 147 2522 31 2478 
L -6 2578 
z
M 994 2081 
L 994 1013 
Q 994 666 1022 556 
Q 1066 375 1236 237 
Q 1406 100 1666 100 
Q 1978 100 2172 344 
Q 2425 663 2425 1241 
Q 2425 1897 2138 2250 
Q 1938 2494 1663 2494 
Q 1513 2494 1366 2419 
Q 1253 2363 994 2081 
z
" transform="scale(0.015625)"/>
       <path id="TimesNewRomanPSMT-75" d="M 2709 2863 
L 2709 1128 
Q 2709 631 2732 520 
Q 2756 409 2807 365 
Q 2859 322 2928 322 
Q 3025 322 3147 375 
L 3191 266 
L 2334 -88 
L 2194 -88 
L 2194 519 
Q 1825 119 1631 15 
Q 1438 -88 1222 -88 
Q 981 -88 804 51 
Q 628 191 559 409 
Q 491 628 491 1028 
L 491 2306 
Q 491 2509 447 2587 
Q 403 2666 317 2708 
Q 231 2750 6 2747 
L 6 2863 
L 1009 2863 
L 1009 947 
Q 1009 547 1148 422 
Q 1288 297 1484 297 
Q 1619 297 1789 381 
Q 1959 466 2194 703 
L 2194 2325 
Q 2194 2569 2105 2655 
Q 2016 2741 1734 2747 
L 1734 2863 
L 2709 2863 
z
" transform="scale(0.015625)"/>
       <path id="TimesNewRomanPSMT-29" d="M 144 4313 
L 144 4444 
Q 619 4209 934 3891 
Q 1381 3434 1625 2820 
Q 1869 2206 1869 1541 
Q 1869 572 1392 -226 
Q 916 -1025 144 -1369 
L 144 -1253 
Q 528 -1038 776 -670 
Q 1025 -303 1145 264 
Q 1266 831 1266 1447 
Q 1266 2113 1163 2663 
Q 1084 3094 967 3353 
Q 850 3613 656 3853 
Q 463 4094 144 4313 
z
" transform="scale(0.015625)"/>
      </defs>
      <use xlink:href="#TimesNewRomanPSMT-56"/>
      <use xlink:href="#TimesNewRomanPSMT-6f" x="59.341797"/>
      <use xlink:href="#TimesNewRomanPSMT-6c" x="109.341797"/>
      <use xlink:href="#TimesNewRomanPSMT-74" x="137.125"/>
      <use xlink:href="#TimesNewRomanPSMT-61" x="164.908203"/>
      <use xlink:href="#TimesNewRomanPSMT-67" x="209.292969"/>
      <use xlink:href="#TimesNewRomanPSMT-65" x="259.292969"/>
      <use xlink:href="#TimesNewRomanPSMT-73" x="303.677734"/>
      <use xlink:href="#TimesNewRomanPSMT-20" x="342.59375"/>
      <use xlink:href="#TimesNewRomanPSMT-28" x="367.59375"/>
      <use xlink:href="#TimesNewRomanPSMT-70" x="400.894531"/>
      <use xlink:href="#TimesNewRomanPSMT-75" x="450.894531"/>
      <use xlink:href="#TimesNewRomanPSMT-29" x="500.894531"/>
     </g>
    </g>
   </g>
   <g id="line2d_23">
    <path d="M -1 68.5691 
L 29.09622 68.5691 
L 30.43542 69.20553 
L 35.79222 69.20553 
L 37.13142 68.699885 
L 42.48822 68.699885 
L 43.82742 68.088283 
L 49.18422 68.088283 
L 50.52342 67.588762 
L 62.57622 67.589331 
L 63.91542 67.007043 
L 69.27222 67.007043 
L 70.61142 67.593164 
L 75.96822 67.593164 
L 77.30742 65.391133 
L 82.66422 65.391133 
L 84.00342 64.867611 
L 89.36022 64.867611 
L 90.69942 65.360328 
L 109.44822 65.404396 
L 110.78742 66.512974 
L 116.14422 66.512974 
L 117.48342 67.589975 
L 129.53622 67.588225 
L 130.87542 66.552628 
L 142.92822 66.557369 
L 144.26742 70.71857 
L 149.62422 70.71857 
L 150.96342 76.606549 
L 156.32022 76.606549 
L 157.65942 85.317922 
L 163.01622 85.317922 
L 164.35542 82.873194 
L 169.71222 82.873194 
L 171.05142 79.184312 
L 176.40822 79.184312 
L 177.74742 74.345253 
L 183.10422 74.345253 
L 184.44342 68.5691 
L 209.88822 68.5691 
L 209.88822 68.5691 
" clip-path="url(#p508cb672f9)" style="fill: none; stroke: #d9524f; stroke-width: 1.5; stroke-linecap: square"/>
   </g>
   <g id="line2d_24">
    <path d="M -1 71.521817 
L 29.09622 71.521817 
L 30.43542 72.301715 
L 35.79222 72.301715 
L 37.13142 71.682195 
L 42.48822 71.682195 
L 43.82742 70.932868 
L 49.18422 70.932868 
L 50.52342 70.320948 
L 62.57622 70.321519 
L 63.91542 69.60811 
L 69.27222 69.60811 
L 70.61142 70.32537 
L 75.96822 70.32537 
L 77.30742 67.627762 
L 82.66422 67.627762 
L 84.00342 66.985811 
L 89.36022 66.985811 
L 90.69942 67.587499 
L 109.44822 67.641075 
L 110.78742 68.998309 
L 116.14422 68.998309 
L 117.48342 70.317396 
L 129.53622 70.315637 
L 130.87542 69.047576 
L 142.92822 69.052337 
L 144.26742 74.150579 
L 149.62422 74.150579 
L 150.96342 81.375441 
L 156.32022 81.375441 
L 157.65942 92.086922 
L 163.01622 92.086922 
L 164.35542 89.079528 
L 169.71222 89.079528 
L 171.05142 84.545831 
L 176.40822 84.545831 
L 177.74742 78.604201 
L 183.10422 78.604201 
L 184.44342 71.521817 
L 209.88822 71.521817 
L 209.88822 71.521817 
" clip-path="url(#p508cb672f9)" style="fill: none; stroke: #d9524f; stroke-width: 1.5; stroke-linecap: square"/>
   </g>
   <g id="line2d_25">
    <path d="M -1 74.474499 
L 29.09622 74.474499 
L 30.43542 75.397852 
L 35.79222 75.397852 
L 37.13142 74.664466 
L 42.48822 74.664466 
L 43.82742 73.777429 
L 49.18422 73.777429 
L 50.52342 73.053117 
L 62.57622 73.053691 
L 63.91542 72.209171 
L 69.27222 72.209171 
L 70.61142 73.05756 
L 75.96822 73.05756 
L 77.30742 69.864407 
L 82.66422 69.864407 
L 84.00342 69.104034 
L 89.36022 69.104034 
L 90.69942 69.814687 
L 109.44822 69.87777 
L 110.78742 71.483645 
L 116.14422 71.483645 
L 117.48342 73.0448 
L 129.53622 73.043034 
L 130.87542 71.542525 
L 142.92822 71.547306 
L 144.26742 77.582504 
L 149.62422 77.582504 
L 150.96342 86.144037 
L 156.32022 86.144037 
L 157.65942 98.855112 
L 163.01622 98.855112 
L 164.35542 95.285221 
L 169.71222 95.285221 
L 171.05142 89.906927 
L 176.40822 89.906927 
L 177.74742 82.862946 
L 183.10422 82.862946 
L 184.44342 74.474499 
L 209.88822 74.474499 
L 209.88822 74.474499 
" clip-path="url(#p508cb672f9)" style="fill: none; stroke: #d9524f; stroke-width: 1.5; stroke-linecap: square"/>
   </g>
   <g id="line2d_26">
    <path d="M -1 77.217829 
L 29.09622 77.217829 
L 30.43542 78.274868 
L 35.79222 78.274868 
L 37.13142 77.435368 
L 42.48822 77.435368 
L 43.82742 76.420026 
L 49.18422 76.420026 
L 50.52342 75.591027 
L 62.57622 75.591603 
L 63.91542 74.624989 
L 69.27222 74.624989 
L 70.61142 75.595489 
L 75.96822 75.595489 
L 77.30742 71.941038 
L 82.66422 71.941038 
L 84.00342 71.070492 
L 89.36022 71.070492 
L 90.69942 71.882518 
L 109.44822 71.954448 
L 110.78742 73.791724 
L 116.14422 73.791724 
L 117.48342 75.578273 
L 129.53622 75.576498 
L 130.87542 73.859551 
L 142.92822 73.864351 
L 144.26742 80.772595 
L 149.62422 80.772595 
L 150.96342 90.582585 
L 156.32022 90.582585 
L 157.65942 105.168238 
L 163.01622 105.168238 
L 164.35542 101.070137 
L 169.71222 101.070137 
L 171.05142 94.900034 
L 176.40822 94.900034 
L 177.74742 86.824868 
L 183.10422 86.824868 
L 184.44342 77.217829 
L 209.88822 77.217829 
L 209.88822 77.217829 
" clip-path="url(#p508cb672f9)" style="fill: none; stroke: #d9524f; stroke-width: 1.5; stroke-linecap: square"/>
   </g>
   <g id="line2d_27">
    <path d="M -1 79.195793 
L 29.09622 79.195793 
L 30.43542 80.348736 
L 35.79222 80.348736 
L 37.13142 79.433115 
L 42.48822 79.433115 
L 43.82742 78.325691 
L 49.18422 78.325691 
L 50.52342 77.421526 
L 62.57622 77.422104 
L 63.91542 76.367788 
L 69.27222 76.367788 
L 70.61142 77.426002 
L 75.96822 77.426002 
L 77.30742 73.439984 
L 82.66422 73.439984 
L 84.00342 72.490168 
L 89.36022 72.490168 
L 90.69942 73.375134 
L 109.44822 73.453427 
L 110.78742 75.457099 
L 116.14422 75.457099 
L 117.48342 77.405585 
L 129.53622 77.403805 
L 130.87542 75.531357 
L 142.92822 75.53617 
L 144.26742 83.070855 
L 149.62422 83.070855 
L 150.96342 93.772572 
L 156.32022 93.772572 
L 157.65942 109.686072 
L 163.01622 109.686072 
L 164.35542 105.215361 
L 169.71222 105.215361 
L 171.05142 98.484363 
L 176.40822 98.484363 
L 177.74742 89.675034 
L 183.10422 89.675034 
L 184.44342 79.195793 
L 209.88822 79.195793 
L 209.88822 79.195793 
" clip-path="url(#p508cb672f9)" style="fill: none; stroke: #d9524f; stroke-width: 1.5; stroke-linecap: square"/>
   </g>
   <g id="line2d_28">
    <path d="M -1 81.173653 
L 29.09622 81.173653 
L 30.43542 82.42249 
L 35.79222 82.42249 
L 37.13142 81.430757 
L 42.48822 81.430757 
L 43.82742 80.231261 
L 49.18422 80.231261 
L 50.52342 79.251938 
L 62.57622 79.252518 
L 63.91542 78.110507 
L 69.27222 78.110507 
L 70.61142 79.256428 
L 75.96822 79.256428 
L 77.30742 74.938872 
L 82.66422 74.938872 
L 84.00342 73.909791 
L 89.36022 73.909791 
L 90.69942 74.867692 
L 109.44822 74.952348 
L 110.78742 77.122401 
L 116.14422 77.122401 
L 117.48342 79.23281 
L 129.53622 79.231025 
L 130.87542 77.20309 
L 142.92822 77.207917 
L 144.26742 85.368975 
L 149.62422 85.368975 
L 150.96342 96.962287 
L 156.32022 96.962287 
L 157.65942 114.203352 
L 163.01622 114.203352 
L 164.35542 109.360121 
L 169.71222 109.360121 
L 171.05142 102.068348 
L 176.40822 102.068348 
L 177.74742 92.524984 
L 183.10422 92.524984 
L 184.44342 81.173653 
L 209.88822 81.173653 
L 209.88822 81.173653 
" clip-path="url(#p508cb672f9)" style="fill: none; stroke: #d9524f; stroke-width: 1.5; stroke-linecap: square"/>
   </g>
   <g id="line2d_29">
    <path d="M -1 82.362427 
L 29.09622 82.362427 
L 30.43542 83.669183 
L 35.79222 83.669183 
L 37.13142 82.631476 
L 42.48822 82.631476 
L 43.82742 81.376391 
L 49.18422 81.376391 
L 50.52342 80.351709 
L 62.57622 80.35229 
L 63.91542 79.157377 
L 69.27222 79.157377 
L 70.61142 80.356207 
L 75.96822 80.356207 
L 77.30742 75.838767 
L 82.66422 75.838767 
L 84.00342 74.761944 
L 89.36022 74.761944 
L 90.69942 75.763774 
L 109.44822 75.852264 
L 110.78742 78.122587 
L 116.14422 78.122587 
L 117.48342 80.330658 
L 129.53622 80.32887 
L 130.87542 78.207153 
L 142.92822 78.211988 
L 144.26742 86.751295 
L 149.62422 86.751295 
L 150.96342 98.885203 
L 156.32022 98.885203 
L 157.65942 116.936599 
L 163.01622 116.936599 
L 164.35542 111.865279 
L 169.71222 111.865279 
L 171.05142 104.231209 
L 176.40822 104.231209 
L 177.74742 94.241573 
L 183.10422 94.241573 
L 184.44342 82.362427 
L 209.88822 82.362427 
L 209.88822 82.362427 
" clip-path="url(#p508cb672f9)" style="fill: none; stroke: #d9524f; stroke-width: 1.5; stroke-linecap: square"/>
   </g>
   <g id="line2d_30">
    <path d="M -1 83.551161 
L 29.09622 83.551161 
L 30.43542 84.915832 
L 35.79222 84.915832 
L 37.13142 83.832155 
L 42.48822 83.832155 
L 43.82742 82.521484 
L 49.18422 82.521484 
L 50.52342 81.451446 
L 62.57622 81.452028 
L 63.91542 80.204216 
L 69.27222 80.204216 
L 70.61142 81.455953 
L 75.96822 81.455953 
L 77.30742 76.73864 
L 82.66422 76.73864 
L 84.00342 75.614078 
L 89.36022 75.614078 
L 90.69942 76.659833 
L 109.44822 76.752156 
L 110.78742 79.122745 
L 116.14422 79.122745 
L 117.48342 81.428473 
L 129.53622 81.426681 
L 130.87542 79.211188 
L 142.92822 79.216031 
L 144.26742 88.13356 
L 149.62422 88.13356 
L 150.96342 100.808014 
L 156.32022 100.808014 
L 157.65942 119.669629 
L 163.01622 119.669629 
L 164.35542 114.370255 
L 169.71222 114.370255 
L 171.05142 106.393935 
L 176.40822 106.393935 
L 177.74742 95.958078 
L 183.10422 95.958078 
L 184.44342 83.551161 
L 209.88822 83.551161 
L 209.88822 83.551161 
" clip-path="url(#p508cb672f9)" style="fill: none; stroke: #d9524f; stroke-width: 1.5; stroke-linecap: square"/>
   </g>
   <g id="line2d_31">
    <path d="M -1 84.74018 
L 29.09622 84.74018 
L 30.43542 86.162778 
L 35.79222 86.162778 
L 37.13142 85.033121 
L 42.48822 85.033121 
L 43.82742 83.666852 
L 49.18422 83.666852 
L 50.52342 82.551449 
L 62.57622 82.552032 
L 63.91542 81.25131 
L 69.27222 81.25131 
L 70.61142 82.555964 
L 75.96822 82.555964 
L 77.30742 77.638734 
L 82.66422 77.638734 
L 84.00342 76.466423 
L 89.36022 76.466423 
L 90.69942 77.556114 
L 109.44822 77.652271 
L 110.78742 80.123147 
L 116.14422 80.123147 
L 117.48342 82.526553 
L 129.53622 82.524758 
L 130.87542 80.215468 
L 142.92822 80.220319 
L 144.26742 89.516151 
L 149.62422 89.516151 
L 150.96342 102.731249 
L 156.32022 102.731249 
L 157.65942 122.403203 
L 163.01622 122.403203 
L 164.35542 116.875745 
L 169.71222 116.875745 
L 171.05142 108.557125 
L 176.40822 108.557125 
L 177.74742 97.67497 
L 183.10422 97.67497 
L 184.44342 84.74018 
L 209.88822 84.74018 
L 209.88822 84.74018 
" clip-path="url(#p508cb672f9)" style="fill: none; stroke: #d9524f; stroke-width: 1.5; stroke-linecap: square"/>
   </g>
   <g id="line2d_32">
    <path d="M -1 85.422882 
L 29.09622 85.422882 
L 30.43542 86.878811 
L 35.79222 86.878811 
L 37.13142 85.722696 
L 42.48822 85.722696 
L 43.82742 84.324442 
L 49.18422 84.324442 
L 50.52342 83.182944 
L 62.57622 83.183528 
L 63.91542 81.852376 
L 69.27222 81.852376 
L 70.61142 83.187464 
L 75.96822 83.187464 
L 77.30742 78.155291 
L 82.66422 78.155291 
L 84.00342 76.955538 
L 89.36022 76.955538 
L 90.69942 78.07048 
L 109.44822 78.16884 
L 110.78742 80.697366 
L 116.14422 80.697366 
L 117.48342 83.156942 
L 129.53622 83.155145 
L 130.87542 80.791917 
L 142.92822 80.796773 
L 144.26742 90.310263 
L 149.62422 90.310263 
L 150.96342 103.836985 
L 156.32022 103.836985 
L 157.65942 123.97741 
L 163.01622 123.97741 
L 164.35542 118.31791 
L 169.71222 118.31791 
L 171.05142 109.801399 
L 176.40822 109.801399 
L 177.74742 98.661691 
L 183.10422 98.661691 
L 184.44342 85.422882 
L 209.88822 85.422882 
L 209.88822 85.422882 
" clip-path="url(#p508cb672f9)" style="fill: none; stroke: #d9524f; stroke-width: 1.5; stroke-linecap: square"/>
   </g>
   <g id="line2d_33">
    <path d="M -1 75.426114 
L 29.09622 75.426114 
L 30.43542 76.393818 
L 35.79222 76.393818 
L 37.13142 75.625245 
L 42.48822 75.625245 
L 43.82742 74.695496 
L 49.18422 74.695496 
L 50.52342 73.936203 
L 62.57622 73.936778 
L 63.91542 73.05131 
L 69.27222 73.05131 
L 70.61142 73.940653 
L 75.96822 73.940653 
L 77.30742 70.591951 
L 82.66422 70.591951 
L 84.00342 69.794092 
L 89.36022 69.794092 
L 90.69942 70.539241 
L 109.44822 70.605329 
L 110.78742 72.289517 
L 116.14422 72.289517 
L 117.48342 73.9264 
L 129.53622 73.924631 
L 130.87542 72.351413 
L 142.92822 72.3562 
L 144.26742 78.681563 
L 149.62422 78.681563 
L 150.96342 87.643204 
L 156.32022 87.643204 
L 157.65942 100.920244 
L 163.01622 100.920244 
L 164.35542 97.195278 
L 169.71222 97.195278 
L 171.05142 91.577999 
L 176.40822 91.577999 
L 177.74742 84.211476 
L 183.10422 84.211476 
L 184.44342 75.426114 
L 209.88822 75.426114 
L 209.88822 75.426114 
" clip-path="url(#p508cb672f9)" style="fill: none; stroke: #d9524f; stroke-width: 1.5; stroke-linecap: square"/>
   </g>
   <g id="line2d_34">
    <path d="M -1 80.699599 
L 29.09622 80.699599 
L 30.43542 81.929049 
L 35.79222 81.929049 
L 37.13142 80.952672 
L 42.48822 80.952672 
L 43.82742 79.772069 
L 49.18422 79.772069 
L 50.52342 78.80842 
L 62.57622 78.809 
L 63.91542 77.68556 
L 69.27222 77.68556 
L 70.61142 78.812908 
L 75.96822 78.812908 
L 77.30742 74.567114 
L 82.66422 74.567114 
L 84.00342 73.555802 
L 89.36022 73.555802 
L 90.69942 74.497345 
L 109.44822 74.580584 
L 110.78742 76.714098 
L 116.14422 76.714098 
L 117.48342 78.789964 
L 129.53622 78.78818 
L 130.87542 76.793395 
L 142.92822 76.79822 
L 144.26742 84.831684 
L 149.62422 84.831684 
L 150.96342 96.273451 
L 156.32022 96.273451 
L 157.65942 113.370072 
L 163.01622 113.370072 
L 164.35542 108.556049 
L 169.71222 108.556049 
L 171.05142 101.325429 
L 176.40822 101.325429 
L 177.74742 91.889367 
L 183.10422 91.889367 
L 184.44342 80.699599 
L 209.88822 80.699599 
L 209.88822 80.699599 
" clip-path="url(#p508cb672f9)" style="fill: none; stroke: #d9524f; stroke-width: 1.5; stroke-linecap: square"/>
   </g>
   <g id="line2d_35">
    <path d="M -1 84.180482 
L 29.09622 84.180482 
L 30.43542 85.582256 
L 35.79222 85.582256 
L 37.13142 84.469072 
L 42.48822 84.469072 
L 43.82742 83.123289 
L 49.18422 83.123289 
L 50.52342 82.025054 
L 62.57622 82.025637 
L 63.91542 80.745443 
L 69.27222 80.745443 
L 70.61142 82.029567 
L 75.96822 82.029567 
L 77.30742 77.192681 
L 82.66422 77.192681 
L 84.00342 76.040656 
L 89.36022 76.040656 
L 90.69942 77.111667 
L 109.44822 77.206211 
L 110.78742 79.635843 
L 116.14422 79.635843 
L 117.48342 82.000898 
L 129.53622 81.999104 
L 130.87542 79.726607 
L 142.92822 79.731455 
L 144.26742 88.889575 
L 149.62422 88.889575 
L 150.96342 101.962015 
L 156.32022 101.962015 
L 157.65942 121.567298 
L 163.01622 121.567298 
L 164.35542 116.038081 
L 169.71222 116.038081 
L 171.05142 107.747919 
L 176.40822 107.747919 
L 177.74742 96.952027 
L 183.10422 96.952027 
L 184.44342 84.180482 
L 209.88822 84.180482 
L 209.88822 84.180482 
" clip-path="url(#p508cb672f9)" style="fill: none; stroke: #d9524f; stroke-width: 1.5; stroke-linecap: square"/>
   </g>
   <g id="line2d_36">
    <path d="M -1 87.65946 
L 29.09622 87.65946 
L 30.43542 89.23342 
L 35.79222 89.23342 
L 37.13142 87.98354 
L 42.48822 87.98354 
L 43.82742 86.472707 
L 49.18422 86.472707 
L 50.52342 85.239989 
L 62.57622 85.240575 
L 63.91542 83.803743 
L 69.27222 83.803743 
L 70.61142 85.244526 
L 75.96822 85.244526 
L 77.30742 79.816972 
L 82.66422 79.816972 
L 84.00342 78.524327 
L 89.36022 78.524327 
L 90.69942 79.724721 
L 109.44822 79.830562 
L 110.78742 82.556106 
L 116.14422 82.556106 
L 117.48342 85.210138 
L 129.53622 85.208334 
L 130.87542 82.658327 
L 142.92822 82.6632 
L 144.26742 92.945082 
L 149.62422 92.945082 
L 150.96342 107.646594 
L 156.32022 107.646594 
L 157.65942 129.757431 
L 163.01622 129.757431 
L 164.35542 123.51398 
L 169.71222 123.51398 
L 171.05142 114.165593 
L 176.40822 114.165593 
L 177.74742 102.011358 
L 183.10422 102.011358 
L 184.44342 87.65946 
L 209.88822 87.65946 
L 209.88822 87.65946 
" clip-path="url(#p508cb672f9)" style="fill: none; stroke: #d9524f; stroke-width: 1.5; stroke-linecap: square"/>
   </g>
   <g id="line2d_37">
    <path d="M -1 91.137508 
L 29.09622 91.137508 
L 30.43542 92.883558 
L 35.79222 92.883558 
L 37.13142 91.497057 
L 42.48822 91.497057 
L 43.82742 89.821262 
L 49.18422 89.821262 
L 50.52342 88.454128 
L 62.57622 88.454718 
L 63.91542 86.861324 
L 69.27222 86.861324 
L 70.61142 88.458691 
L 75.96822 88.458691 
L 77.30742 82.440733 
L 82.66422 82.440733 
L 84.00342 81.007524 
L 89.36022 81.007524 
L 90.69942 82.337249 
L 96.05622 82.337249 
L 97.39542 82.453973 
L 109.44822 82.454382 
L 110.78742 85.475713 
L 116.14422 85.475713 
L 117.48342 88.418585 
L 129.53622 88.416771 
L 130.87542 85.589386 
L 142.92822 85.594283 
L 144.26742 96.999324 
L 149.62422 96.999324 
L 150.96342 113.328699 
L 156.32022 113.328699 
L 157.65942 137.942471 
L 163.01622 137.942471 
L 164.35542 130.985625 
L 169.71222 130.985625 
L 171.05142 120.58012 
L 176.40822 120.58012 
L 177.74742 107.068726 
L 183.10422 107.068726 
L 184.44342 91.137508 
L 209.88822 91.137508 
L 209.88822 91.137508 
" clip-path="url(#p508cb672f9)" style="fill: none; stroke: #d9524f; stroke-width: 1.5; stroke-linecap: square"/>
   </g>
   <g id="line2d_38">
    <path d="M -1 84.25111 
L 29.09622 84.25111 
L 30.43542 85.648055 
L 35.79222 85.648055 
L 37.13142 84.538775 
L 42.48822 84.538775 
L 43.82742 83.196992 
L 49.18422 83.196992 
L 50.52342 82.101446 
L 62.57622 82.102029 
L 63.91542 80.824327 
L 69.27222 80.824327 
L 70.61142 82.105957 
L 75.96822 82.105957 
L 77.30742 77.274941 
L 82.66422 77.274941 
L 84.00342 76.122915 
L 89.36022 76.122915 
L 90.69942 77.193945 
L 109.44822 77.288468 
L 110.78742 79.716357 
L 116.14422 79.716357 
L 117.48342 82.077388 
L 129.53622 82.075595 
L 130.87542 79.807005 
L 142.92822 79.811853 
L 144.26742 88.940635 
L 149.62422 88.940635 
L 150.96342 101.90292 
L 156.32022 101.90292 
L 157.65942 121.161331 
L 163.01622 121.161331 
L 164.35542 115.754783 
L 169.71222 115.754783 
L 171.05142 107.610888 
L 176.40822 107.610888 
L 177.74742 96.945175 
L 183.10422 96.945175 
L 184.44342 84.25111 
L 209.88822 84.25111 
L 209.88822 84.25111 
" clip-path="url(#p508cb672f9)" style="fill: none; stroke: #d9524f; stroke-width: 1.5; stroke-linecap: square"/>
   </g>
   <g id="line2d_39">
    <path d="M -1 86.713756 
L 29.09622 86.713756 
L 30.43542 88.232187 
L 35.79222 88.232187 
L 37.13142 87.026465 
L 42.48822 87.026465 
L 43.82742 85.568193 
L 49.18422 85.568193 
L 50.52342 84.377697 
L 62.57622 84.378282 
L 63.91542 82.989954 
L 69.27222 82.989954 
L 70.61142 84.382226 
L 75.96822 84.382226 
L 77.30742 79.133854 
L 82.66422 79.133854 
L 84.00342 77.882397 
L 89.36022 77.882397 
L 90.69942 79.044913 
L 109.44822 79.147424 
L 110.78742 81.784462 
L 116.14422 81.784462 
L 117.48342 84.349618 
L 129.53622 84.347817 
L 130.87542 81.883206 
L 142.92822 81.888071 
L 144.26742 91.809841 
L 149.62422 91.809841 
L 150.96342 105.917029 
L 156.32022 105.917029 
L 157.65942 126.919955 
L 163.01622 126.919955 
L 164.35542 121.018677 
L 169.71222 121.018677 
L 171.05142 112.137838 
L 176.40822 112.137838 
L 177.74742 100.520636 
L 183.10422 100.520636 
L 184.44342 86.713756 
L 209.88822 86.713756 
L 209.88822 86.713756 
" clip-path="url(#p508cb672f9)" style="fill: none; stroke: #d9524f; stroke-width: 1.5; stroke-linecap: square"/>
   </g>
   <g id="line2d_40">
    <path d="M -1 88.085413 
L 29.09622 88.085413 
L 30.43542 89.671309 
L 35.79222 89.671309 
L 37.13142 88.41203 
L 42.48822 88.41203 
L 43.82742 86.889054 
L 49.18422 86.889054 
L 50.52342 85.645806 
L 62.57622 85.646392 
L 63.91542 84.196586 
L 69.27222 84.196586 
L 70.61142 85.650345 
L 75.96822 85.650345 
L 77.30742 80.169956 
L 82.66422 80.169956 
L 84.00342 78.86319 
L 89.36022 78.86319 
L 90.69942 80.076596 
L 109.44822 80.183549 
L 110.78742 82.936886 
L 116.14422 82.936886 
L 117.48342 85.615492 
L 129.53622 85.613687 
L 130.87542 83.040131 
L 142.92822 83.045005 
L 144.26742 93.407197 
L 149.62422 93.407197 
L 150.96342 108.148803 
L 156.32022 108.148803 
L 157.65942 130.115074 
L 163.01622 130.115074 
L 164.35542 123.94101 
L 169.71222 123.94101 
L 171.05142 114.653228 
L 176.40822 114.653228 
L 177.74742 102.509549 
L 183.10422 102.509549 
L 184.44342 88.085413 
L 209.88822 88.085413 
L 209.88822 88.085413 
" clip-path="url(#p508cb672f9)" style="fill: none; stroke: #d9524f; stroke-width: 1.5; stroke-linecap: square"/>
   </g>
   <g id="line2d_41">
    <path d="M -1 60.222365 
L 29.09622 60.222365 
L 30.43542 59.921384 
L 35.79222 59.921384 
L 37.13142 59.607764 
L 42.48822 59.607764 
L 43.82742 59.307938 
L 49.18422 59.307938 
L 50.52342 59.021656 
L 55.88022 59.021656 
L 57.21942 59.632185 
L 62.57622 59.632185 
L 63.91542 60.814863 
L 69.27222 60.814863 
L 70.61142 63.534805 
L 75.96822 63.534805 
L 77.30742 67.467299 
L 82.66422 67.467299 
L 84.00342 71.732108 
L 89.36022 71.732108 
L 90.69942 74.656648 
L 96.05622 74.656648 
L 97.39542 75.437906 
L 102.75222 75.437906 
L 104.09142 74.098227 
L 109.44822 74.098227 
L 110.78742 74.69083 
L 122.84022 74.691961 
L 124.17942 73.170995 
L 129.53622 73.170995 
L 130.87542 71.087125 
L 136.23222 71.087125 
L 137.57142 70.301784 
L 142.92822 70.301784 
L 144.26742 68.556609 
L 149.62422 68.556609 
L 150.96342 66.140397 
L 156.32022 66.140397 
L 157.65942 62.822772 
L 163.01622 62.822772 
L 164.35542 61.501427 
L 169.71222 61.501427 
L 171.05142 60.853593 
L 176.40822 60.853593 
L 177.74742 60.492786 
L 183.10422 60.492786 
L 184.44342 60.222365 
L 209.88822 60.222365 
L 209.88822 60.222365 
" clip-path="url(#p508cb672f9)" style="fill: none; stroke: #5cb85c; stroke-width: 1.5; stroke-linecap: square"/>
   </g>
   <g id="line2d_42">
    <path d="M -1 67.558948 
L 29.09622 67.558948 
L 30.43542 66.801003 
L 35.79222 66.801003 
L 37.13142 66.013306 
L 42.48822 66.013306 
L 43.82742 65.260212 
L 49.18422 65.260212 
L 50.52342 64.541223 
L 55.88022 64.541223 
L 57.21942 66.075575 
L 62.57622 66.075575 
L 63.91542 69.051701 
L 69.27222 69.051701 
L 70.61142 75.905144 
L 75.96822 75.905144 
L 77.30742 85.851922 
L 82.66422 85.851922 
L 84.00342 96.682223 
L 89.36022 96.682223 
L 90.69942 104.130476 
L 96.05622 104.130476 
L 97.39542 106.125096 
L 102.75222 106.125096 
L 104.09142 102.701666 
L 109.44822 102.701666 
L 110.78742 104.212159 
L 122.84022 104.213355 
L 124.17942 100.33354 
L 129.53622 100.33354 
L 130.87542 95.028263 
L 136.23222 95.028263 
L 137.57142 93.023313 
L 142.92822 93.023313 
L 144.26742 88.581448 
L 149.62422 88.581448 
L 150.96342 82.455205 
L 156.32022 82.455205 
L 157.65942 74.061755 
L 163.01622 74.061755 
L 164.35542 70.743141 
L 169.71222 70.743141 
L 171.05142 69.129082 
L 176.40822 69.129082 
L 177.74742 68.230804 
L 183.10422 68.230804 
L 184.44342 67.558948 
L 209.88822 67.558948 
L 209.88822 67.558948 
" clip-path="url(#p508cb672f9)" style="fill: none; stroke: #5cb85c; stroke-width: 1.5; stroke-linecap: square"/>
   </g>
   <g id="line2d_43">
    <path d="M -1 62.491537 
L 29.09622 62.491537 
L 30.43542 62.245912 
L 35.79222 62.245912 
L 37.13142 61.972324 
L 42.48822 61.972324 
L 43.82742 62.244461 
L 49.18422 62.244461 
L 50.52342 62.489952 
L 55.88022 62.489952 
L 57.21942 62.956544 
L 62.57622 62.956544 
L 63.91542 63.47979 
L 69.27222 63.47979 
L 70.61142 66.274296 
L 75.96822 66.274296 
L 77.30742 70.504796 
L 82.66422 70.504796 
L 84.00342 75.087988 
L 89.36022 75.087988 
L 90.69942 84.476861 
L 96.05622 84.476861 
L 97.39542 86.10639 
L 102.75222 86.10639 
L 104.09142 87.939251 
L 109.44822 87.939251 
L 110.78742 88.819009 
L 122.84022 88.784896 
L 124.17942 87.002412 
L 129.53622 87.002412 
L 130.87542 86.242542 
L 136.23222 86.242542 
L 137.57142 95.310935 
L 142.92822 95.310935 
L 144.26742 98.952527 
L 149.62422 98.952527 
L 150.96342 91.552108 
L 156.32022 91.552108 
L 157.65942 88.060334 
L 163.01622 88.060334 
L 164.35542 78.144602 
L 169.71222 78.144602 
L 171.05142 64.76896 
L 176.40822 64.76896 
L 177.74742 62.06042 
L 183.10422 62.06042 
L 184.44342 62.491537 
L 209.88822 62.491537 
L 209.88822 62.491537 
" clip-path="url(#p508cb672f9)" style="fill: none; stroke: #337ab7; stroke-width: 1.5; stroke-linecap: square"/>
   </g>
   <g id="line2d_44">
    <path d="M -1 64.515037 
L 29.09622 64.515037 
L 30.43542 64.199226 
L 35.79222 64.199226 
L 37.13142 63.847842 
L 42.48822 63.847842 
L 43.82742 64.19777 
L 49.18422 64.19777 
L 50.52342 64.513447 
L 55.88022 64.513447 
L 57.21942 65.113072 
L 62.57622 65.113072 
L 63.91542 65.785714 
L 69.27222 65.785714 
L 70.61142 69.379364 
L 75.96822 69.379364 
L 77.30742 74.826786 
L 82.66422 74.826786 
L 84.00342 80.736587 
L 89.36022 80.736587 
L 90.69942 92.873932 
L 96.05622 92.873932 
L 97.39542 94.984884 
L 102.75222 94.984884 
L 104.09142 97.361206 
L 109.44822 97.361206 
L 110.78742 98.501935 
L 122.84022 98.45735 
L 124.17942 96.145927 
L 129.53622 96.145927 
L 130.87542 95.161591 
L 136.23222 95.161591 
L 137.57142 106.936341 
L 142.92822 106.936341 
L 144.26742 111.676602 
L 149.62422 111.676602 
L 150.96342 102.047838 
L 156.32022 102.047838 
L 157.65942 97.513755 
L 163.01622 97.513755 
L 164.35542 84.679538 
L 169.71222 84.679538 
L 171.05142 67.439814 
L 176.40822 67.439814 
L 177.74742 63.959273 
L 183.10422 63.959273 
L 184.44342 64.515037 
L 209.88822 64.515037 
L 209.88822 64.515037 
" clip-path="url(#p508cb672f9)" style="fill: none; stroke: #337ab7; stroke-width: 1.5; stroke-linecap: square"/>
   </g>
   <g id="line2d_45">
    <path d="M -1 66.538361 
L 29.09622 66.538361 
L 30.43542 66.152375 
L 35.79222 66.152375 
L 37.13142 65.723208 
L 42.48822 65.723208 
L 43.82742 66.150914 
L 49.18422 66.150914 
L 50.52342 66.536766 
L 55.88022 66.536766 
L 57.21942 67.2694 
L 62.57622 67.2694 
L 63.91542 68.091408 
L 69.27222 68.091408 
L 70.61142 72.484012 
L 75.96822 72.484012 
L 77.30742 79.14795 
L 82.66422 79.14795 
L 84.00342 86.383753 
L 89.36022 86.383753 
L 90.69942 101.267729 
L 96.05622 101.267729 
L 97.39542 103.859697 
L 102.75222 103.859697 
L 104.09142 106.778987 
L 109.44822 106.778987 
L 110.78742 108.180438 
L 122.84022 108.125391 
L 124.17942 105.285524 
L 129.53622 105.285524 
L 130.87542 104.076922 
L 136.23222 104.076922 
L 137.57142 118.555215 
L 142.92822 118.555215 
L 144.26742 124.392745 
L 149.62422 124.392745 
L 150.96342 112.538319 
L 156.32022 112.538319 
L 157.65942 106.962972 
L 163.01622 106.962972 
L 164.35542 91.212534 
L 169.71222 91.212534 
L 171.05142 70.110359 
L 176.40822 70.110359 
L 177.74742 65.857972 
L 183.10422 65.857972 
L 184.44342 66.538361 
L 209.88822 66.538361 
L 209.88822 66.538361 
" clip-path="url(#p508cb672f9)" style="fill: none; stroke: #337ab7; stroke-width: 1.5; stroke-linecap: square"/>
   </g>
   <g id="line2d_46">
    <path d="M -1 67.483646 
L 29.09622 67.483646 
L 30.43542 67.064857 
L 35.79222 67.064857 
L 37.13142 66.599333 
L 42.48822 66.599333 
L 43.82742 67.063395 
L 49.18422 67.063395 
L 50.52342 67.482048 
L 55.88022 67.482048 
L 57.21942 68.27686 
L 62.57622 68.27686 
L 63.91542 69.168697 
L 69.27222 69.168697 
L 70.61142 73.934921 
L 75.96822 73.934921 
L 77.30742 81.168107 
L 82.66422 81.168107 
L 84.00342 89.024939 
L 89.36022 89.024939 
L 90.69942 105.197451 
L 96.05622 105.197451 
L 97.39542 108.015427 
L 102.75222 108.015427 
L 104.09142 111.189976 
L 109.44822 111.189976 
L 110.78742 112.714054 
L 122.84022 112.654085 
L 124.17942 109.565714 
L 129.53622 109.565714 
L 130.87542 108.251695 
L 136.23222 108.251695 
L 137.57142 124.002721 
L 142.92822 124.002721 
L 144.26742 130.358181 
L 149.62422 130.358181 
L 150.96342 117.454082 
L 156.32022 117.454082 
L 157.65942 111.388746 
L 163.01622 111.388746 
L 164.35542 94.268952 
L 169.71222 94.268952 
L 171.05142 71.358243 
L 176.40822 71.358243 
L 177.74742 66.745003 
L 183.10422 66.745003 
L 184.44342 67.483646 
L 209.88822 67.483646 
L 209.88822 67.483646 
" clip-path="url(#p508cb672f9)" style="fill: none; stroke: #337ab7; stroke-width: 1.5; stroke-linecap: square"/>
   </g>
   <g id="line2d_47">
    <path d="M -1 68.428891 
L 29.09622 68.428891 
L 30.43542 67.977302 
L 35.79222 67.977302 
L 37.13142 67.475424 
L 42.48822 67.475424 
L 43.82742 67.975838 
L 49.18422 67.975838 
L 50.52342 68.427291 
L 55.88022 68.427291 
L 57.21942 69.284275 
L 62.57622 69.284275 
L 63.91542 70.245934 
L 69.27222 70.245934 
L 70.61142 75.385734 
L 75.96822 75.385734 
L 77.30742 83.188077 
L 82.66422 83.188077 
L 84.00342 91.6658 
L 89.36022 91.6658 
L 90.69942 109.126427 
L 96.05622 109.126427 
L 97.39542 112.170318 
L 102.75222 112.170318 
L 104.09142 115.600014 
L 109.44822 115.600014 
L 110.78742 117.246662 
L 122.84022 117.181774 
L 124.17942 113.845013 
L 129.53622 113.845013 
L 130.87542 112.425622 
L 136.23222 112.425622 
L 137.57142 129.448734 
L 142.92822 129.448734 
L 144.26742 136.321799 
L 149.62422 136.321799 
L 150.96342 122.368648 
L 156.32022 122.368648 
L 157.65942 115.813561 
L 163.01622 115.813561 
L 164.35542 97.32493 
L 169.71222 97.32493 
L 171.05142 72.606057 
L 176.40822 72.606057 
L 177.74742 67.631999 
L 183.10422 67.631999 
L 184.44342 68.428891 
L 209.88822 68.428891 
L 209.88822 68.428891 
" clip-path="url(#p508cb672f9)" style="fill: none; stroke: #337ab7; stroke-width: 1.5; stroke-linecap: square"/>
   </g>
   <g id="line2d_48">
    <path d="M -1 68.825258 
L 29.09622 68.825258 
L 30.43542 68.359956 
L 35.79222 68.359956 
L 37.13142 67.842875 
L 42.48822 67.842875 
L 43.82742 68.358491 
L 49.18422 68.358491 
L 50.52342 68.823657 
L 55.88022 68.823657 
L 57.21942 69.706625 
L 62.57622 69.706625 
L 63.91542 70.697454 
L 69.27222 70.697454 
L 70.61142 75.993075 
L 75.96822 75.993075 
L 77.30742 84.031984 
L 82.66422 84.031984 
L 84.00342 92.766534 
L 89.36022 92.766534 
L 90.69942 110.75527 
L 96.05622 110.75527 
L 97.39542 113.891049 
L 102.75222 113.891049 
L 104.09142 117.424231 
L 109.44822 117.424231 
L 110.78742 119.120479 
L 122.84022 119.053602 
L 124.17942 115.616241 
L 129.53622 115.616241 
L 130.87542 114.154084 
L 136.23222 114.154084 
L 137.57142 131.689685 
L 142.92822 131.689685 
L 144.26742 138.768653 
L 149.62422 138.768653 
L 150.96342 124.396539 
L 156.32022 124.396539 
L 157.65942 117.643761 
L 163.01622 117.643761 
L 164.35542 98.596588 
L 169.71222 98.596588 
L 171.05142 73.128778 
L 176.40822 73.128778 
L 177.74742 68.004011 
L 183.10422 68.004011 
L 184.44342 68.825258 
L 209.88822 68.825258 
L 209.88822 68.825258 
" clip-path="url(#p508cb672f9)" style="fill: none; stroke: #337ab7; stroke-width: 1.5; stroke-linecap: square"/>
   </g>
   <g id="line2d_49">
    <path d="M -1 69.221618 
L 29.09622 69.221618 
L 30.43542 68.742604 
L 35.79222 68.742604 
L 37.13142 68.21032 
L 42.48822 68.21032 
L 43.82742 68.741137 
L 49.18422 68.741137 
L 50.52342 69.220016 
L 55.88022 69.220016 
L 57.21942 70.128968 
L 62.57622 70.128968 
L 63.91542 71.148965 
L 69.27222 71.148965 
L 70.61142 76.600399 
L 75.96822 76.600399 
L 77.30742 84.875859 
L 82.66422 84.875859 
L 84.00342 93.867213 
L 89.36022 93.867213 
L 90.69942 112.383992 
L 96.05622 112.383992 
L 97.39542 115.611643 
L 102.75222 115.611643 
L 104.09142 119.248294 
L 109.44822 119.248294 
L 110.78742 120.994134 
L 122.84022 120.925268 
L 124.17942 117.387325 
L 129.53622 117.387325 
L 130.87542 115.882409 
L 136.23222 115.882409 
L 137.57142 133.930402 
L 142.92822 133.930402 
L 144.26742 141.215228 
L 149.62422 141.215228 
L 150.96342 126.424241 
L 156.32022 126.424241 
L 157.65942 119.473807 
L 163.01622 119.473807 
L 164.35542 99.868173 
L 169.71222 99.868173 
L 171.05142 73.651486 
L 176.40822 73.651486 
L 177.74742 68.376016 
L 183.10422 68.376016 
L 184.44342 69.221618 
L 209.88822 69.221618 
L 209.88822 69.221618 
" clip-path="url(#p508cb672f9)" style="fill: none; stroke: #337ab7; stroke-width: 1.5; stroke-linecap: square"/>
   </g>
   <g id="line2d_50">
    <path d="M -1 69.618124 
L 29.09622 69.618124 
L 30.43542 69.125392 
L 35.79222 69.125392 
L 37.13142 68.577901 
L 42.48822 68.577901 
L 43.82742 69.123925 
L 49.18422 69.123925 
L 50.52342 69.616521 
L 55.88022 69.616521 
L 57.21942 70.551466 
L 62.57622 70.551466 
L 63.91542 71.600641 
L 69.27222 71.600641 
L 70.61142 77.207943 
L 75.96822 77.207943 
L 77.30742 85.720031 
L 82.66422 85.720031 
L 84.00342 94.968269 
L 89.36022 94.968269 
L 90.69942 114.013238 
L 96.05622 114.013238 
L 97.39542 117.332786 
L 102.75222 117.332786 
L 104.09142 121.072932 
L 109.44822 121.072932 
L 110.78742 122.868376 
L 122.84022 122.797521 
L 124.17942 119.158971 
L 129.53622 119.158971 
L 130.87542 117.611284 
L 136.23222 117.611284 
L 137.57142 136.17179 
L 142.92822 136.17179 
L 144.26742 143.662516 
L 149.62422 143.662516 
L 150.96342 128.452566 
L 156.32022 128.452566 
L 157.65942 121.304428 
L 163.01622 121.304428 
L 164.35542 101.140185 
L 169.71222 101.140185 
L 171.05142 74.174384 
L 176.40822 74.174384 
L 177.74742 68.748159 
L 183.10422 68.748159 
L 184.44342 69.618124 
L 209.88822 69.618124 
L 209.88822 69.618124 
" clip-path="url(#p508cb672f9)" style="fill: none; stroke: #337ab7; stroke-width: 1.5; stroke-linecap: square"/>
   </g>
   <g id="line2d_51">
    <path d="M -1 69.750053 
L 29.09622 69.750053 
L 30.43542 69.25276 
L 35.79222 69.25276 
L 37.13142 68.700212 
L 42.48822 68.700212 
L 43.82742 69.251292 
L 49.18422 69.251292 
L 50.52342 69.748449 
L 55.88022 69.748449 
L 57.21942 70.692037 
L 62.57622 70.692037 
L 63.91542 71.750913 
L 69.27222 71.750913 
L 70.61142 77.410018 
L 75.96822 77.410018 
L 77.30742 86.000693 
L 82.66422 86.000693 
L 84.00342 95.334166 
L 89.36022 95.334166 
L 90.69942 114.554097 
L 96.05622 114.554097 
L 97.39542 117.904042 
L 102.75222 117.904042 
L 104.09142 121.678406 
L 109.44822 121.678406 
L 110.78742 123.490244 
L 122.84022 123.418731 
L 124.17942 119.746926 
L 129.53622 119.746926 
L 130.87542 118.185097 
L 136.23222 118.185097 
L 137.57142 136.914863 
L 142.92822 136.914863 
L 144.26742 144.473453 
L 149.62422 144.473453 
L 150.96342 129.125329 
L 156.32022 129.125329 
L 157.65942 121.91188 
L 163.01622 121.91188 
L 164.35542 101.562755 
L 169.71222 101.562755 
L 171.05142 74.34833 
L 176.40822 74.34833 
L 177.74742 68.871987 
L 183.10422 68.871987 
L 184.44342 69.750053 
L 209.88822 69.750053 
L 209.88822 69.750053 
" clip-path="url(#p508cb672f9)" style="fill: none; stroke: #337ab7; stroke-width: 1.5; stroke-linecap: square"/>
   </g>
   <g id="line2d_52">
    <path d="M -1 69.006357 
L 29.09622 69.006357 
L 30.43542 68.534763 
L 35.79222 68.534763 
L 37.13142 68.010708 
L 42.48822 68.010708 
L 43.82742 68.533297 
L 49.18422 68.533297 
L 50.52342 69.004755 
L 55.88022 69.004755 
L 57.21942 69.899652 
L 62.57622 69.899652 
L 63.91542 70.903879 
L 69.27222 70.903879 
L 70.61142 76.271209 
L 75.96822 76.271209 
L 77.30742 84.419407 
L 82.66422 84.419407 
L 84.00342 93.273112 
L 89.36022 93.273112 
L 90.69942 111.50799 
L 96.05622 111.50799 
L 97.39542 114.686661 
L 102.75222 114.686661 
L 104.09142 118.268136 
L 109.44822 118.268136 
L 110.78742 119.98752 
L 122.84022 119.919715 
L 124.17942 116.435421 
L 129.53622 116.435421 
L 130.87542 114.953304 
L 136.23222 114.953304 
L 137.57142 132.727456 
L 142.92822 132.727456 
L 144.26742 139.901421 
L 149.62422 139.901421 
L 150.96342 125.33537 
L 156.32022 125.33537 
L 157.65942 118.490457 
L 163.01622 118.490457 
L 164.35542 99.182706 
L 169.71222 99.182706 
L 171.05142 73.36794 
L 176.40822 73.36794 
L 177.74742 68.173935 
L 183.10422 68.173935 
L 184.44342 69.006357 
L 209.88822 69.006357 
L 209.88822 69.006357 
" clip-path="url(#p508cb672f9)" style="fill: none; stroke: #337ab7; stroke-width: 1.5; stroke-linecap: square"/>
   </g>
   <g id="line2d_53">
    <path d="M -1 70.527564 
L 29.09622 70.527564 
L 30.43542 70.003127 
L 35.79222 70.003127 
L 37.13142 69.420507 
L 42.48822 69.420507 
L 43.82742 70.001658 
L 49.18422 70.001658 
L 50.52342 70.525958 
L 55.88022 70.525958 
L 57.21942 71.521031 
L 62.57622 71.521031 
L 63.91542 72.63778 
L 69.27222 72.63778 
L 70.61142 78.60747 
L 75.96822 78.60747 
L 77.30742 87.674451 
L 82.66422 87.674451 
L 84.00342 97.531939 
L 89.36022 97.531939 
L 90.69942 117.854196 
L 96.05622 117.854196 
L 97.39542 121.399623 
L 102.75222 121.399623 
L 104.09142 125.395538 
L 109.44822 125.395538 
L 110.78742 127.314098 
L 122.84022 127.238299 
L 124.17942 123.350431 
L 129.53622 123.350431 
L 130.87542 121.697178 
L 136.23222 121.697178 
L 137.57142 141.539913 
L 142.92822 141.539913 
L 144.26742 149.556977 
L 149.62422 149.556977 
L 150.96342 133.282968 
L 156.32022 133.282968 
L 157.65942 125.641871 
L 163.01622 125.641871 
L 164.35542 104.113508 
L 169.71222 104.113508 
L 171.05142 75.376814 
L 176.40822 75.376814 
L 177.74742 69.601301 
L 183.10422 69.601301 
L 184.44342 70.527564 
L 209.88822 70.527564 
L 209.88822 70.527564 
" clip-path="url(#p508cb672f9)" style="fill: none; stroke: #337ab7; stroke-width: 1.5; stroke-linecap: square"/>
   </g>
   <g id="line2d_54">
    <path d="M -1 71.643456 
L 29.09622 71.643456 
L 30.43542 71.080254 
L 35.79222 71.080254 
L 37.13142 70.454672 
L 42.48822 70.454672 
L 43.82742 71.078782 
L 49.18422 71.078782 
L 50.52342 71.641847 
L 55.88022 71.641847 
L 57.21942 72.710408 
L 62.57622 72.710408 
L 63.91542 73.909701 
L 69.27222 73.909701 
L 70.61142 80.321283 
L 75.96822 80.321283 
L 77.30742 90.062314 
L 82.66422 90.062314 
L 84.00342 100.656253 
L 89.36022 100.656253 
L 90.69942 122.510133 
L 96.05622 122.510133 
L 97.39542 126.324696 
L 102.75222 126.324696 
L 104.09142 130.624747 
L 109.44822 130.624747 
L 110.78742 132.689477 
L 122.84022 132.60781 
L 124.17942 128.423774 
L 129.53622 128.423774 
L 130.87542 126.644934 
L 136.23222 126.644934 
L 137.57142 148.005819 
L 142.92822 148.005819 
L 144.26742 156.641731 
L 149.62422 156.641731 
L 150.96342 139.114111 
L 156.32022 139.114111 
L 157.65942 130.888702 
L 163.01622 130.888702 
L 164.35542 107.730861 
L 169.71222 107.730861 
L 171.05142 76.850454 
L 176.40822 76.850454 
L 177.74742 70.648352 
L 183.10422 70.648352 
L 184.44342 71.643456 
L 209.88822 71.643456 
L 209.88822 71.643456 
" clip-path="url(#p508cb672f9)" style="fill: none; stroke: #337ab7; stroke-width: 1.5; stroke-linecap: square"/>
   </g>
   <g id="line2d_55">
    <path d="M -1 71.643456 
L 29.09622 71.643456 
L 30.43542 71.080254 
L 35.79222 71.080254 
L 37.13142 70.454672 
L 42.48822 70.454672 
L 43.82742 71.078782 
L 49.18422 71.078782 
L 50.52342 71.641847 
L 55.88022 71.641847 
L 57.21942 72.710408 
L 62.57622 72.710408 
L 63.91542 73.909701 
L 69.27222 73.909701 
L 70.61142 80.321283 
L 75.96822 80.321283 
L 77.30742 90.062314 
L 82.66422 90.062314 
L 84.00342 100.656253 
L 89.36022 100.656253 
L 90.69942 122.510133 
L 96.05622 122.510133 
L 97.39542 126.324696 
L 102.75222 126.324696 
L 104.09142 130.624747 
L 109.44822 130.624747 
L 110.78742 132.689477 
L 122.84022 132.60781 
L 124.17942 128.423774 
L 129.53622 128.423774 
L 130.87542 126.644934 
L 136.23222 126.644934 
L 137.57142 148.005819 
L 142.92822 148.005819 
L 144.26742 156.641731 
L 149.62422 156.641731 
L 150.96342 139.114111 
L 156.32022 139.114111 
L 157.65942 130.888702 
L 163.01622 130.888702 
L 164.35542 107.730861 
L 169.71222 107.730861 
L 171.05142 76.850454 
L 176.40822 76.850454 
L 177.74742 70.648352 
L 183.10422 70.648352 
L 184.44342 71.643456 
L 209.88822 71.643456 
L 209.88822 71.643456 
" clip-path="url(#p508cb672f9)" style="fill: none; stroke: #337ab7; stroke-width: 1.5; stroke-linecap: square"/>
   </g>
   <g id="line2d_56">
    <path d="M -1 70.395442 
L 29.09622 70.395442 
L 30.43542 69.875786 
L 35.79222 69.875786 
L 37.13142 69.298448 
L 42.48822 69.298448 
L 43.82742 69.874317 
L 49.18422 69.874317 
L 50.52342 70.393837 
L 55.88022 70.393837 
L 57.21942 71.379807 
L 62.57622 71.379807 
L 63.91542 72.486269 
L 69.27222 72.486269 
L 70.61142 78.399764 
L 75.96822 78.399764 
L 77.30742 87.377226 
L 82.66422 87.377226 
L 84.00342 97.131341 
L 89.36022 97.131341 
L 90.69942 117.218147 
L 96.05622 117.218147 
L 97.39542 120.719103 
L 102.75222 120.719103 
L 104.09142 124.66357 
L 109.44822 124.66357 
L 110.78742 126.556942 
L 122.84022 126.482159 
L 124.17942 122.644989 
L 129.53622 122.644989 
L 130.87542 121.012865 
L 136.23222 121.012865 
L 137.57142 140.584877 
L 142.92822 140.584877 
L 144.26742 148.481326 
L 149.62422 148.481326 
L 150.96342 132.445289 
L 156.32022 132.445289 
L 157.65942 124.906878 
L 163.01622 124.906878 
L 164.35542 103.640251 
L 169.71222 103.640251 
L 171.05142 75.199889 
L 176.40822 75.199889 
L 177.74742 69.47766 
L 183.10422 69.47766 
L 184.44342 70.395442 
L 209.88822 70.395442 
L 209.88822 70.395442 
" clip-path="url(#p508cb672f9)" style="fill: none; stroke: #337ab7; stroke-width: 1.5; stroke-linecap: square"/>
   </g>
   <g id="line2d_57">
    <path d="M -1 70.273053 
L 29.09622 70.273053 
L 30.43542 69.757296 
L 35.79222 69.757296 
L 37.13142 69.18431 
L 42.48822 69.18431 
L 43.82742 69.755827 
L 49.18422 69.755827 
L 50.52342 70.271448 
L 55.88022 70.271448 
L 57.21942 71.250101 
L 62.57622 71.250101 
L 63.91542 72.348459 
L 69.27222 72.348459 
L 70.61142 78.220703 
L 75.96822 78.220703 
L 77.30742 87.142544 
L 82.66422 87.142544 
L 84.00342 96.846856 
L 89.36022 96.846856 
L 90.69942 116.872262 
L 96.05622 116.872262 
L 97.39542 120.369085 
L 102.75222 120.369085 
L 104.09142 124.311539 
L 109.44822 124.311539 
L 110.78742 126.204987 
L 122.84022 126.130189 
L 124.17942 122.29363 
L 129.53622 122.29363 
L 130.87542 120.662597 
L 136.23222 120.662597 
L 137.57142 140.256699 
L 142.92822 140.256699 
L 144.26742 148.186841 
L 149.62422 148.186841 
L 150.96342 132.098133 
L 156.32022 132.098133 
L 157.65942 124.554829 
L 163.01622 124.554829 
L 164.35542 103.329417 
L 169.71222 103.329417 
L 171.05142 75.042797 
L 176.40822 75.042797 
L 177.74742 69.362213 
L 183.10422 69.362213 
L 184.44342 70.273053 
L 209.88822 70.273053 
L 209.88822 70.273053 
" clip-path="url(#p508cb672f9)" style="fill: none; stroke: #337ab7; stroke-width: 1.5; stroke-linecap: square"/>
   </g>
   <g id="line2d_58">
    <path d="M -1 71.226593 
L 29.09622 71.226593 
L 30.43542 70.67761 
L 35.79222 70.67761 
L 37.13142 70.067809 
L 42.48822 70.067809 
L 43.82742 70.676139 
L 49.18422 70.676139 
L 50.52342 71.224986 
L 55.88022 71.224986 
L 57.21942 72.266647 
L 62.57622 72.266647 
L 63.91542 73.435812 
L 69.27222 73.435812 
L 70.61142 79.687727 
L 75.96822 79.687727 
L 77.30742 89.190816 
L 82.66422 89.190816 
L 84.00342 99.533372 
L 89.36022 99.533372 
L 90.69942 120.898534 
L 96.05622 120.898534 
L 97.39542 124.632749 
L 102.75222 124.632749 
L 104.09142 128.844264 
L 109.44822 128.844264 
L 110.78742 130.867336 
L 122.84022 130.78733 
L 124.17942 126.688358 
L 129.53622 126.688358 
L 130.87542 124.9463 
L 136.23222 124.9463 
L 137.57142 145.893136 
L 142.92822 145.893136 
L 144.26742 154.3822 
L 149.62422 154.3822 
L 150.96342 137.166028 
L 156.32022 137.166028 
L 157.65942 129.103171 
L 163.01622 129.103171 
L 164.35542 106.445268 
L 169.71222 106.445268 
L 171.05142 76.303335 
L 176.40822 76.303335 
L 177.74742 70.256754 
L 183.10422 70.256754 
L 184.44342 71.226593 
L 209.88822 71.226593 
L 209.88822 71.226593 
" clip-path="url(#p508cb672f9)" style="fill: none; stroke: #337ab7; stroke-width: 1.5; stroke-linecap: square"/>
   </g>
   <g id="line2d_59">
    <path d="M -1 72.625546 
L 29.09622 72.625546 
L 30.43542 72.027815 
L 35.79222 72.027815 
L 37.13142 71.364003 
L 42.48822 71.364003 
L 43.82742 72.026341 
L 49.18422 72.026341 
L 50.52342 72.623934 
L 55.88022 72.623934 
L 57.21942 73.758037 
L 62.57622 73.758037 
L 63.91542 75.031087 
L 69.27222 75.031087 
L 70.61142 81.840032 
L 75.96822 81.840032 
L 77.30742 92.195909 
L 82.66422 92.195909 
L 84.00342 103.474901 
L 89.36022 103.474901 
L 90.69942 126.805877 
L 96.05622 126.805877 
L 97.39542 130.888437 
L 102.75222 130.888437 
L 104.09142 135.494772 
L 109.44822 135.494772 
L 110.78742 137.708059 
L 122.84022 137.620413 
L 124.17942 133.136366 
L 129.53622 133.136366 
L 130.87542 131.231391 
L 136.23222 131.231391 
L 137.57142 154.163358 
L 142.92822 154.163358 
L 144.26742 163.472727 
L 149.62422 163.472727 
L 150.96342 144.601882 
L 156.32022 144.601882 
L 157.65942 135.776598 
L 163.01622 135.776598 
L 164.35542 111.016739 
L 169.71222 111.016739 
L 171.05142 78.152696 
L 176.40822 78.152696 
L 177.74742 71.569147 
L 183.10422 71.569147 
L 184.44342 72.625546 
L 209.88822 72.625546 
L 209.88822 72.625546 
" clip-path="url(#p508cb672f9)" style="fill: none; stroke: #337ab7; stroke-width: 1.5; stroke-linecap: square"/>
   </g>
   <g id="line2d_60">
    <path d="M -1 70.57608 
L 29.09622 70.57608 
L 30.43542 70.049835 
L 35.79222 70.049835 
L 37.13142 69.465222 
L 42.48822 69.465222 
L 43.82742 70.048365 
L 49.18422 70.048365 
L 50.52342 70.574474 
L 55.88022 70.574474 
L 57.21942 71.573001 
L 62.57622 71.573001 
L 63.91542 72.693671 
L 69.27222 72.693671 
L 70.61142 78.685128 
L 75.96822 78.685128 
L 77.30742 87.788059 
L 82.66422 87.788059 
L 84.00342 97.689136 
L 89.36022 97.689136 
L 90.69942 118.11987 
L 96.05622 118.11987 
L 97.39542 121.687342 
L 102.75222 121.687342 
L 104.09142 125.709419 
L 109.44822 125.709419 
L 110.78742 127.641051 
L 122.84022 127.56472 
L 124.17942 123.650733 
L 129.53622 123.650733 
L 130.87542 121.986801 
L 136.23222 121.986801 
L 137.57142 141.975895 
L 142.92822 141.975895 
L 144.26742 150.065289 
L 149.62422 150.065289 
L 150.96342 133.652905 
L 156.32022 133.652905 
L 157.65942 125.957313 
L 163.01622 125.957313 
L 164.35542 104.302764 
L 169.71222 104.302764 
L 171.05142 75.442476 
L 176.40822 75.442476 
L 177.74742 69.646613 
L 183.10422 69.646613 
L 184.44342 70.57608 
L 209.88822 70.57608 
L 209.88822 70.57608 
" clip-path="url(#p508cb672f9)" style="fill: none; stroke: #337ab7; stroke-width: 1.5; stroke-linecap: square"/>
   </g>
   <g id="line2d_61">
    <path d="M -1 70.506823 
L 29.09622 70.506823 
L 30.43542 69.983346 
L 35.79222 69.983346 
L 37.13142 69.401769 
L 42.48822 69.401769 
L 43.82742 69.981877 
L 49.18422 69.981877 
L 50.52342 70.505217 
L 55.88022 70.505217 
L 57.21942 71.498422 
L 62.57622 71.498422 
L 63.91542 72.612996 
L 69.27222 72.612996 
L 70.61142 78.569652 
L 75.96822 78.569652 
L 77.30742 87.61211 
L 82.66422 87.61211 
L 84.00342 97.436125 
L 89.36022 97.436125 
L 90.69942 117.664971 
L 96.05622 117.664971 
L 97.39542 121.190494 
L 102.75222 121.190494 
L 104.09142 125.16261 
L 109.44822 125.16261 
L 110.78742 127.069233 
L 122.84022 126.993919 
L 124.17942 123.129873 
L 129.53622 123.129873 
L 130.87542 121.486322 
L 136.23222 121.486322 
L 137.57142 141.195538 
L 142.92822 141.195538 
L 144.26742 149.147737 
L 149.62422 149.147737 
L 150.96342 132.998774 
L 156.32022 132.998774 
L 157.65942 125.407517 
L 163.01622 125.407517 
L 164.35542 103.991219 
L 169.71222 103.991219 
L 171.05142 75.346372 
L 176.40822 75.346372 
L 177.74742 69.582252 
L 183.10422 69.582252 
L 184.44342 70.506823 
L 209.88822 70.506823 
L 209.88822 70.506823 
" clip-path="url(#p508cb672f9)" style="fill: none; stroke: #337ab7; stroke-width: 1.5; stroke-linecap: square"/>
   </g>
   <g id="line2d_62">
    <path d="M -1 70.193846 
L 29.09622 70.193846 
L 30.43542 69.681216 
L 35.79222 69.681216 
L 37.13142 69.111663 
L 42.48822 69.111663 
L 43.82742 69.679747 
L 49.18422 69.679747 
L 50.52342 70.192241 
L 55.88022 70.192241 
L 57.21942 71.164888 
L 62.57622 71.164888 
L 63.91542 72.256378 
L 69.27222 72.256378 
L 70.61142 78.089609 
L 75.96822 78.089609 
L 77.30742 86.944316 
L 82.66422 86.944316 
L 84.00342 96.563963 
L 89.36022 96.563963 
L 90.69942 116.370665 
L 96.05622 116.370665 
L 97.39542 119.822454 
L 102.75222 119.822454 
L 104.09142 123.711423 
L 109.44822 123.711423 
L 110.78742 125.578154 
L 122.84022 125.50444 
L 124.17942 121.721275 
L 129.53622 121.721275 
L 130.87542 120.112075 
L 136.23222 120.112075 
L 137.57142 139.408308 
L 142.92822 139.408308 
L 144.26742 147.193704 
L 149.62422 147.193704 
L 150.96342 131.383599 
L 156.32022 131.383599 
L 157.65942 123.951519 
L 163.01622 123.951519 
L 164.35542 102.98272 
L 169.71222 102.98272 
L 171.05142 74.933381 
L 176.40822 74.933381 
L 177.74742 69.28854 
L 183.10422 69.28854 
L 184.44342 70.193846 
L 209.88822 70.193846 
L 209.88822 70.193846 
" clip-path="url(#p508cb672f9)" style="fill: none; stroke: #337ab7; stroke-width: 1.5; stroke-linecap: square"/>
   </g>
   <g id="line2d_63">
    <path d="M -1 48.927273 
L 209.88822 48.927273 
" clip-path="url(#p508cb672f9)" style="fill: none; stroke-dasharray: 1.5,2.475; stroke-dashoffset: 0; stroke: #d9524f; stroke-width: 1.5"/>
   </g>
   <g id="line2d_64">
    <path d="M -1 111.427709 
L 209.88822 111.427709 
" clip-path="url(#p508cb672f9)" style="fill: none; stroke-dasharray: 1.5,2.475; stroke-dashoffset: 0; stroke: #5cb85c; stroke-width: 1.5"/>
   </g>
   <g id="patch_3">
    <path d="M 27 169.2 
L 27 43.2 
" style="fill: none; stroke: #000000; stroke-width: 0.8; stroke-linejoin: miter; stroke-linecap: square"/>
   </g>
   <g id="patch_4">
    <path d="M 194.4 169.2 
L 194.4 43.2 
" style="fill: none; stroke: #000000; stroke-width: 0.8; stroke-linejoin: miter; stroke-linecap: square"/>
   </g>
   <g id="patch_5">
    <path d="M 27 169.2 
L 194.4 169.2 
" style="fill: none; stroke: #000000; stroke-width: 0.8; stroke-linejoin: miter; stroke-linecap: square"/>
   </g>
   <g id="patch_6">
    <path d="M 27 43.2 
L 194.4 43.2 
" style="fill: none; stroke: #000000; stroke-width: 0.8; stroke-linejoin: miter; stroke-linecap: square"/>
   </g>
  </g>
  <g id="axes_2">
   <g id="patch_7">
    <path d="M 27 320.4 
L 194.4 320.4 
L 194.4 194.4 
L 27 194.4 
z
" style="fill: #ffffff"/>
   </g>
   <g id="matplotlib.axis_3">
    <g id="xtick_8">
     <g id="line2d_65">
      <path d="M 27 320.4 
L 27 194.4 
" clip-path="url(#p31bd8b9419)" style="fill: none; stroke: #b0b0b0; stroke-width: 0.8; stroke-linecap: square"/>
     </g>
     <g id="line2d_66">
      <g>
       <use xlink:href="#m42f65b3914" x="27" y="320.4" style="stroke: #000000; stroke-width: 0.8"/>
      </g>
     </g>
     <g id="text_13">
      <!-- 0 -->
      <g transform="translate(24.5 334.34375) scale(0.1 -0.1)">
       <use xlink:href="#TimesNewRomanPSMT-30"/>
      </g>
     </g>
    </g>
    <g id="xtick_9">
     <g id="line2d_67">
      <path d="M 54.9 320.4 
L 54.9 194.4 
" clip-path="url(#p31bd8b9419)" style="fill: none; stroke: #b0b0b0; stroke-width: 0.8; stroke-linecap: square"/>
     </g>
     <g id="line2d_68">
      <g>
       <use xlink:href="#m42f65b3914" x="54.9" y="320.4" style="stroke: #000000; stroke-width: 0.8"/>
      </g>
     </g>
     <g id="text_14">
      <!-- 4 -->
      <g transform="translate(52.4 334.34375) scale(0.1 -0.1)">
       <use xlink:href="#TimesNewRomanPSMT-34"/>
      </g>
     </g>
    </g>
    <g id="xtick_10">
     <g id="line2d_69">
      <path d="M 82.8 320.4 
L 82.8 194.4 
" clip-path="url(#p31bd8b9419)" style="fill: none; stroke: #b0b0b0; stroke-width: 0.8; stroke-linecap: square"/>
     </g>
     <g id="line2d_70">
      <g>
       <use xlink:href="#m42f65b3914" x="82.8" y="320.4" style="stroke: #000000; stroke-width: 0.8"/>
      </g>
     </g>
     <g id="text_15">
      <!-- 8 -->
      <g transform="translate(80.3 334.34375) scale(0.1 -0.1)">
       <use xlink:href="#TimesNewRomanPSMT-38"/>
      </g>
     </g>
    </g>
    <g id="xtick_11">
     <g id="line2d_71">
      <path d="M 110.7 320.4 
L 110.7 194.4 
" clip-path="url(#p31bd8b9419)" style="fill: none; stroke: #b0b0b0; stroke-width: 0.8; stroke-linecap: square"/>
     </g>
     <g id="line2d_72">
      <g>
       <use xlink:href="#m42f65b3914" x="110.7" y="320.4" style="stroke: #000000; stroke-width: 0.8"/>
      </g>
     </g>
     <g id="text_16">
      <!-- 12 -->
      <g transform="translate(105.7 334.34375) scale(0.1 -0.1)">
       <use xlink:href="#TimesNewRomanPSMT-31"/>
       <use xlink:href="#TimesNewRomanPSMT-32" x="50"/>
      </g>
     </g>
    </g>
    <g id="xtick_12">
     <g id="line2d_73">
      <path d="M 138.6 320.4 
L 138.6 194.4 
" clip-path="url(#p31bd8b9419)" style="fill: none; stroke: #b0b0b0; stroke-width: 0.8; stroke-linecap: square"/>
     </g>
     <g id="line2d_74">
      <g>
       <use xlink:href="#m42f65b3914" x="138.6" y="320.4" style="stroke: #000000; stroke-width: 0.8"/>
      </g>
     </g>
     <g id="text_17">
      <!-- 16 -->
      <g transform="translate(133.6 334.34375) scale(0.1 -0.1)">
       <use xlink:href="#TimesNewRomanPSMT-31"/>
       <use xlink:href="#TimesNewRomanPSMT-36" x="50"/>
      </g>
     </g>
    </g>
    <g id="xtick_13">
     <g id="line2d_75">
      <path d="M 166.5 320.4 
L 166.5 194.4 
" clip-path="url(#p31bd8b9419)" style="fill: none; stroke: #b0b0b0; stroke-width: 0.8; stroke-linecap: square"/>
     </g>
     <g id="line2d_76">
      <g>
       <use xlink:href="#m42f65b3914" x="166.5" y="320.4" style="stroke: #000000; stroke-width: 0.8"/>
      </g>
     </g>
     <g id="text_18">
      <!-- 20 -->
      <g transform="translate(161.5 334.34375) scale(0.1 -0.1)">
       <use xlink:href="#TimesNewRomanPSMT-32"/>
       <use xlink:href="#TimesNewRomanPSMT-30" x="50"/>
      </g>
     </g>
    </g>
    <g id="xtick_14">
     <g id="line2d_77">
      <path d="M 194.4 320.4 
L 194.4 194.4 
" clip-path="url(#p31bd8b9419)" style="fill: none; stroke: #b0b0b0; stroke-width: 0.8; stroke-linecap: square"/>
     </g>
     <g id="line2d_78">
      <g>
       <use xlink:href="#m42f65b3914" x="194.4" y="320.4" style="stroke: #000000; stroke-width: 0.8"/>
      </g>
     </g>
     <g id="text_19">
      <!-- 24 -->
      <g transform="translate(189.4 334.34375) scale(0.1 -0.1)">
       <use xlink:href="#TimesNewRomanPSMT-32"/>
       <use xlink:href="#TimesNewRomanPSMT-34" x="50"/>
      </g>
     </g>
    </g>
    <g id="text_20">
     <!-- Time (s) -->
     <g transform="translate(93.797656 347.426562) scale(0.1 -0.1)">
      <defs>
       <path id="TimesNewRomanPSMT-54" d="M 3703 4238 
L 3750 3244 
L 3631 3244 
Q 3597 3506 3538 3619 
Q 3441 3800 3280 3886 
Q 3119 3972 2856 3972 
L 2259 3972 
L 2259 734 
Q 2259 344 2344 247 
Q 2463 116 2709 116 
L 2856 116 
L 2856 0 
L 1059 0 
L 1059 116 
L 1209 116 
Q 1478 116 1591 278 
Q 1659 378 1659 734 
L 1659 3972 
L 1150 3972 
Q 853 3972 728 3928 
Q 566 3869 450 3700 
Q 334 3531 313 3244 
L 194 3244 
L 244 4238 
L 3703 4238 
z
" transform="scale(0.015625)"/>
       <path id="TimesNewRomanPSMT-69" d="M 928 4444 
Q 1059 4444 1151 4351 
Q 1244 4259 1244 4128 
Q 1244 3997 1151 3903 
Q 1059 3809 928 3809 
Q 797 3809 703 3903 
Q 609 3997 609 4128 
Q 609 4259 701 4351 
Q 794 4444 928 4444 
z
M 1188 2947 
L 1188 647 
Q 1188 378 1227 289 
Q 1266 200 1342 156 
Q 1419 113 1622 113 
L 1622 0 
L 231 0 
L 231 113 
Q 441 113 512 153 
Q 584 194 626 287 
Q 669 381 669 647 
L 669 1750 
Q 669 2216 641 2353 
Q 619 2453 572 2492 
Q 525 2531 444 2531 
Q 356 2531 231 2484 
L 188 2597 
L 1050 2947 
L 1188 2947 
z
" transform="scale(0.015625)"/>
       <path id="TimesNewRomanPSMT-6d" d="M 1050 2338 
Q 1363 2650 1419 2697 
Q 1559 2816 1721 2881 
Q 1884 2947 2044 2947 
Q 2313 2947 2506 2790 
Q 2700 2634 2766 2338 
Q 3088 2713 3309 2830 
Q 3531 2947 3766 2947 
Q 3994 2947 4170 2830 
Q 4347 2713 4450 2447 
Q 4519 2266 4519 1878 
L 4519 647 
Q 4519 378 4559 278 
Q 4591 209 4675 161 
Q 4759 113 4950 113 
L 4950 0 
L 3538 0 
L 3538 113 
L 3597 113 
Q 3781 113 3884 184 
Q 3956 234 3988 344 
Q 4000 397 4000 647 
L 4000 1878 
Q 4000 2228 3916 2372 
Q 3794 2572 3525 2572 
Q 3359 2572 3192 2489 
Q 3025 2406 2788 2181 
L 2781 2147 
L 2788 2013 
L 2788 647 
Q 2788 353 2820 281 
Q 2853 209 2943 161 
Q 3034 113 3253 113 
L 3253 0 
L 1806 0 
L 1806 113 
Q 2044 113 2133 169 
Q 2222 225 2256 338 
Q 2272 391 2272 647 
L 2272 1878 
Q 2272 2228 2169 2381 
Q 2031 2581 1784 2581 
Q 1616 2581 1450 2491 
Q 1191 2353 1050 2181 
L 1050 647 
Q 1050 366 1089 281 
Q 1128 197 1204 155 
Q 1281 113 1516 113 
L 1516 0 
L 100 0 
L 100 113 
Q 297 113 375 155 
Q 453 197 493 289 
Q 534 381 534 647 
L 534 1741 
Q 534 2213 506 2350 
Q 484 2453 437 2492 
Q 391 2531 309 2531 
Q 222 2531 100 2484 
L 53 2597 
L 916 2947 
L 1050 2947 
L 1050 2338 
z
" transform="scale(0.015625)"/>
      </defs>
      <use xlink:href="#TimesNewRomanPSMT-54"/>
      <use xlink:href="#TimesNewRomanPSMT-69" x="57.583984"/>
      <use xlink:href="#TimesNewRomanPSMT-6d" x="85.367188"/>
      <use xlink:href="#TimesNewRomanPSMT-65" x="163.150391"/>
      <use xlink:href="#TimesNewRomanPSMT-20" x="207.535156"/>
      <use xlink:href="#TimesNewRomanPSMT-28" x="232.535156"/>
      <use xlink:href="#TimesNewRomanPSMT-73" x="265.835938"/>
      <use xlink:href="#TimesNewRomanPSMT-29" x="304.751953"/>
     </g>
    </g>
   </g>
   <g id="matplotlib.axis_4">
    <g id="ytick_5">
     <g id="line2d_79">
      <path d="M 27 314.672727 
L 194.4 314.672727 
" clip-path="url(#p31bd8b9419)" style="fill: none; stroke: #b0b0b0; stroke-width: 0.8; stroke-linecap: square"/>
     </g>
     <g id="line2d_80">
      <g>
       <use xlink:href="#ma5b3062da8" x="27" y="314.672727" style="stroke: #000000; stroke-width: 0.8"/>
      </g>
     </g>
     <g id="text_21">
      <!-- 0 -->
      <g transform="translate(15 318.144602) scale(0.1 -0.1)">
       <use xlink:href="#TimesNewRomanPSMT-30"/>
      </g>
     </g>
    </g>
    <g id="ytick_6">
     <g id="line2d_81">
      <path d="M 27 285.493829 
L 194.4 285.493829 
" clip-path="url(#p31bd8b9419)" style="fill: none; stroke: #b0b0b0; stroke-width: 0.8; stroke-linecap: square"/>
     </g>
     <g id="line2d_82">
      <g>
       <use xlink:href="#ma5b3062da8" x="27" y="285.493829" style="stroke: #000000; stroke-width: 0.8"/>
      </g>
     </g>
     <g id="text_22">
      <!-- 200 -->
      <g transform="translate(5 288.965704) scale(0.1 -0.1)">
       <use xlink:href="#TimesNewRomanPSMT-32"/>
       <use xlink:href="#TimesNewRomanPSMT-30" x="50"/>
       <use xlink:href="#TimesNewRomanPSMT-30" x="100"/>
      </g>
     </g>
    </g>
    <g id="ytick_7">
     <g id="line2d_83">
      <path d="M 27 256.314931 
L 194.4 256.314931 
" clip-path="url(#p31bd8b9419)" style="fill: none; stroke: #b0b0b0; stroke-width: 0.8; stroke-linecap: square"/>
     </g>
     <g id="line2d_84">
      <g>
       <use xlink:href="#ma5b3062da8" x="27" y="256.314931" style="stroke: #000000; stroke-width: 0.8"/>
      </g>
     </g>
     <g id="text_23">
      <!-- 400 -->
      <g transform="translate(5 259.786806) scale(0.1 -0.1)">
       <use xlink:href="#TimesNewRomanPSMT-34"/>
       <use xlink:href="#TimesNewRomanPSMT-30" x="50"/>
       <use xlink:href="#TimesNewRomanPSMT-30" x="100"/>
      </g>
     </g>
    </g>
    <g id="ytick_8">
     <g id="line2d_85">
      <path d="M 27 227.136033 
L 194.4 227.136033 
" clip-path="url(#p31bd8b9419)" style="fill: none; stroke: #b0b0b0; stroke-width: 0.8; stroke-linecap: square"/>
     </g>
     <g id="line2d_86">
      <g>
       <use xlink:href="#ma5b3062da8" x="27" y="227.136033" style="stroke: #000000; stroke-width: 0.8"/>
      </g>
     </g>
     <g id="text_24">
      <!-- 600 -->
      <g transform="translate(5 230.607908) scale(0.1 -0.1)">
       <use xlink:href="#TimesNewRomanPSMT-36"/>
       <use xlink:href="#TimesNewRomanPSMT-30" x="50"/>
       <use xlink:href="#TimesNewRomanPSMT-30" x="100"/>
      </g>
     </g>
    </g>
    <g id="ytick_9">
     <g id="line2d_87">
      <path d="M 27 197.957135 
L 194.4 197.957135 
" clip-path="url(#p31bd8b9419)" style="fill: none; stroke: #b0b0b0; stroke-width: 0.8; stroke-linecap: square"/>
     </g>
     <g id="line2d_88">
      <g>
       <use xlink:href="#ma5b3062da8" x="27" y="197.957135" style="stroke: #000000; stroke-width: 0.8"/>
      </g>
     </g>
     <g id="text_25">
      <!-- 800 -->
      <g transform="translate(5 201.42901) scale(0.1 -0.1)">
       <use xlink:href="#TimesNewRomanPSMT-38"/>
       <use xlink:href="#TimesNewRomanPSMT-30" x="50"/>
       <use xlink:href="#TimesNewRomanPSMT-30" x="100"/>
      </g>
     </g>
    </g>
    <g id="text_26">
     <!-- Currents (A) -->
     <g transform="translate(-1.139063 282.810156) rotate(-90) scale(0.1 -0.1)">
      <defs>
       <path id="TimesNewRomanPSMT-43" d="M 3853 4334 
L 3950 2894 
L 3853 2894 
Q 3659 3541 3300 3825 
Q 2941 4109 2438 4109 
Q 2016 4109 1675 3895 
Q 1334 3681 1139 3212 
Q 944 2744 944 2047 
Q 944 1472 1128 1050 
Q 1313 628 1683 403 
Q 2053 178 2528 178 
Q 2941 178 3256 354 
Q 3572 531 3950 1056 
L 4047 994 
Q 3728 428 3303 165 
Q 2878 -97 2294 -97 
Q 1241 -97 663 684 
Q 231 1266 231 2053 
Q 231 2688 515 3219 
Q 800 3750 1298 4042 
Q 1797 4334 2388 4334 
Q 2847 4334 3294 4109 
Q 3425 4041 3481 4041 
Q 3566 4041 3628 4100 
Q 3709 4184 3744 4334 
L 3853 4334 
z
" transform="scale(0.015625)"/>
       <path id="TimesNewRomanPSMT-72" d="M 1038 2947 
L 1038 2303 
Q 1397 2947 1775 2947 
Q 1947 2947 2059 2842 
Q 2172 2738 2172 2600 
Q 2172 2478 2090 2393 
Q 2009 2309 1897 2309 
Q 1788 2309 1652 2417 
Q 1516 2525 1450 2525 
Q 1394 2525 1328 2463 
Q 1188 2334 1038 2041 
L 1038 669 
Q 1038 431 1097 309 
Q 1138 225 1241 169 
Q 1344 113 1538 113 
L 1538 0 
L 72 0 
L 72 113 
Q 291 113 397 181 
Q 475 231 506 341 
Q 522 394 522 644 
L 522 1753 
Q 522 2253 501 2348 
Q 481 2444 426 2487 
Q 372 2531 291 2531 
Q 194 2531 72 2484 
L 41 2597 
L 906 2947 
L 1038 2947 
z
" transform="scale(0.015625)"/>
       <path id="TimesNewRomanPSMT-6e" d="M 1034 2341 
Q 1538 2947 1994 2947 
Q 2228 2947 2397 2830 
Q 2566 2713 2666 2444 
Q 2734 2256 2734 1869 
L 2734 647 
Q 2734 375 2778 278 
Q 2813 200 2889 156 
Q 2966 113 3172 113 
L 3172 0 
L 1756 0 
L 1756 113 
L 1816 113 
Q 2016 113 2095 173 
Q 2175 234 2206 353 
Q 2219 400 2219 647 
L 2219 1819 
Q 2219 2209 2117 2386 
Q 2016 2563 1775 2563 
Q 1403 2563 1034 2156 
L 1034 647 
Q 1034 356 1069 288 
Q 1113 197 1189 155 
Q 1266 113 1500 113 
L 1500 0 
L 84 0 
L 84 113 
L 147 113 
Q 366 113 442 223 
Q 519 334 519 647 
L 519 1709 
Q 519 2225 495 2337 
Q 472 2450 423 2490 
Q 375 2531 294 2531 
Q 206 2531 84 2484 
L 38 2597 
L 900 2947 
L 1034 2947 
L 1034 2341 
z
" transform="scale(0.015625)"/>
       <path id="TimesNewRomanPSMT-41" d="M 2928 1419 
L 1288 1419 
L 1000 750 
Q 894 503 894 381 
Q 894 284 986 211 
Q 1078 138 1384 116 
L 1384 0 
L 50 0 
L 50 116 
Q 316 163 394 238 
Q 553 388 747 847 
L 2238 4334 
L 2347 4334 
L 3822 809 
Q 4000 384 4145 257 
Q 4291 131 4550 116 
L 4550 0 
L 2878 0 
L 2878 116 
Q 3131 128 3220 200 
Q 3309 272 3309 375 
Q 3309 513 3184 809 
L 2928 1419 
z
M 2841 1650 
L 2122 3363 
L 1384 1650 
L 2841 1650 
z
" transform="scale(0.015625)"/>
      </defs>
      <use xlink:href="#TimesNewRomanPSMT-43"/>
      <use xlink:href="#TimesNewRomanPSMT-75" x="66.699219"/>
      <use xlink:href="#TimesNewRomanPSMT-72" x="116.699219"/>
      <use xlink:href="#TimesNewRomanPSMT-72" x="150"/>
      <use xlink:href="#TimesNewRomanPSMT-65" x="183.300781"/>
      <use xlink:href="#TimesNewRomanPSMT-6e" x="227.685547"/>
      <use xlink:href="#TimesNewRomanPSMT-74" x="277.685547"/>
      <use xlink:href="#TimesNewRomanPSMT-73" x="305.46875"/>
      <use xlink:href="#TimesNewRomanPSMT-20" x="344.384766"/>
      <use xlink:href="#TimesNewRomanPSMT-28" x="369.384766"/>
      <use xlink:href="#TimesNewRomanPSMT-41" x="402.685547"/>
      <use xlink:href="#TimesNewRomanPSMT-29" x="474.902344"/>
     </g>
    </g>
   </g>
   <g id="line2d_89">
    <path d="M -1 262.590216 
L 29.09622 262.590216 
L 30.43542 260.141234 
L 35.79222 260.141234 
L 37.13142 262.08445 
L 42.48822 262.08445 
L 43.82742 264.441079 
L 49.18422 264.441079 
L 50.52342 266.369631 
L 62.57622 266.369587 
L 63.91542 268.625286 
L 69.27222 268.625286 
L 70.61142 266.369286 
L 75.96822 266.369286 
L 77.30742 274.928273 
L 82.66422 274.928273 
L 84.00342 276.987074 
L 89.36022 276.987074 
L 90.69942 275.092522 
L 96.05622 275.092522 
L 97.39542 274.92745 
L 109.44822 274.927425 
L 110.78742 270.62159 
L 116.14422 270.62159 
L 117.48342 266.451541 
L 129.53622 266.451678 
L 130.87542 270.455587 
L 142.92822 270.455248 
L 144.26742 254.439019 
L 149.62422 254.439019 
L 150.96342 232.162368 
L 156.32022 232.162368 
L 157.65942 200.127273 
L 163.01622 200.127273 
L 164.35542 208.979798 
L 169.71222 208.979798 
L 171.05142 222.506778 
L 176.40822 222.506778 
L 177.74742 240.57909 
L 183.10422 240.57909 
L 184.44342 262.590216 
L 209.88822 262.590216 
L 209.88822 262.590216 
" clip-path="url(#p31bd8b9419)" style="fill: none; stroke: #d9524f; stroke-width: 1.5; stroke-linecap: square"/>
   </g>
   <g id="line2d_90">
    <path d="M -1 288.412398 
L 29.09622 288.412398 
L 30.43542 287.225013 
L 35.79222 287.225013 
L 37.13142 288.1668 
L 42.48822 288.1668 
L 43.82742 289.312809 
L 49.18422 289.312809 
L 50.52342 290.253765 
L 62.57622 290.253747 
L 63.91542 291.357855 
L 69.27222 291.357855 
L 70.61142 290.253619 
L 75.96822 290.253619 
L 77.30742 294.462883 
L 82.66422 294.462883 
L 84.00342 295.483356 
L 89.36022 295.483356 
L 90.69942 294.544225 
L 109.44822 294.46251 
L 110.78742 292.338225 
L 116.14422 292.338225 
L 117.48342 290.293901 
L 129.53622 290.293958 
L 130.87542 292.25658 
L 142.92822 292.256429 
L 144.26742 284.478399 
L 149.62422 284.478399 
L 150.96342 273.999874 
L 156.32022 273.999874 
L 157.65942 259.707107 
L 163.01622 259.707107 
L 164.35542 263.557905 
L 169.71222 263.557905 
L 171.05142 269.59023 
L 176.40822 269.59023 
L 177.74742 277.91016 
L 183.10422 277.91016 
L 184.44342 288.412398 
L 209.88822 288.412398 
L 209.88822 288.412398 
" clip-path="url(#p31bd8b9419)" style="fill: none; stroke: #d9524f; stroke-width: 1.5; stroke-linecap: square"/>
   </g>
   <g id="line2d_91">
    <path d="M -1 288.413004 
L 29.09622 288.413004 
L 30.43542 287.225658 
L 35.79222 287.225658 
L 37.13142 288.167396 
L 42.48822 288.167396 
L 43.82742 289.313357 
L 49.18422 289.313357 
L 50.52342 290.254276 
L 62.57622 290.254275 
L 63.91542 291.358372 
L 69.27222 291.358372 
L 70.61142 290.254266 
L 75.96822 290.254266 
L 77.30742 294.463471 
L 82.66422 294.463471 
L 84.00342 295.484014 
L 89.36022 295.484014 
L 90.69942 294.545068 
L 109.44822 294.463384 
L 110.78742 292.339241 
L 116.14422 292.339241 
L 117.48342 290.295042 
L 129.53622 290.295047 
L 130.87542 292.257505 
L 142.92822 292.257442 
L 144.26742 284.479929 
L 149.62422 284.479929 
L 150.96342 274.001996 
L 156.32022 274.001996 
L 157.65942 259.710322 
L 163.01622 259.710322 
L 164.35542 263.560428 
L 169.71222 263.560428 
L 171.05142 269.591925 
L 176.40822 269.591925 
L 177.74742 277.911265 
L 183.10422 277.911265 
L 184.44342 288.413004 
L 209.88822 288.413004 
L 209.88822 288.413004 
" clip-path="url(#p31bd8b9419)" style="fill: none; stroke: #d9524f; stroke-width: 1.5; stroke-linecap: square"/>
   </g>
   <g id="line2d_92">
    <path d="M -1 307.220087 
L 29.09622 307.220087 
L 30.43542 307.683706 
L 35.79222 307.683706 
L 37.13142 308.164768 
L 42.48822 308.164768 
L 43.82742 308.624792 
L 49.18422 308.624792 
L 50.52342 309.064018 
L 55.88022 309.064018 
L 57.21942 308.12636 
L 62.57622 308.12636 
L 63.91542 306.306943 
L 69.27222 306.306943 
L 70.61142 302.118065 
L 75.96822 302.118065 
L 77.30742 296.034376 
L 82.66422 296.034376 
L 84.00342 289.408255 
L 89.36022 289.408255 
L 90.69942 284.851973 
L 96.05622 284.851973 
L 97.39542 283.631153 
L 102.75222 283.631153 
L 104.09142 285.728045 
L 109.44822 285.728045 
L 110.78742 284.80417 
L 122.84022 284.804105 
L 124.17942 287.178959 
L 129.53622 287.178959 
L 130.87542 290.425522 
L 136.23222 290.425522 
L 137.57142 291.65565 
L 142.92822 291.65565 
L 144.26742 294.377535 
L 149.62422 294.377535 
L 150.96342 298.126583 
L 156.32022 298.126583 
L 157.65942 303.263958 
L 163.01622 303.263958 
L 164.35542 305.288031 
L 169.71222 305.288031 
L 171.05142 306.267746 
L 176.40822 306.267746 
L 177.74742 306.812868 
L 183.10422 306.812868 
L 184.44342 307.220087 
L 209.88822 307.220087 
L 209.88822 307.220087 
" clip-path="url(#p31bd8b9419)" style="fill: none; stroke: #5cb85c; stroke-width: 1.5; stroke-linecap: square"/>
   </g>
   <g id="line2d_93">
    <path d="M -1 314.672727 
L 209.88822 314.672727 
L 209.88822 314.672727 
" clip-path="url(#p31bd8b9419)" style="fill: none; stroke: #5cb85c; stroke-width: 1.5; stroke-linecap: square"/>
   </g>
   <g id="line2d_94">
    <path d="M -1 314.672727 
L 209.88822 314.672727 
L 209.88822 314.672727 
" clip-path="url(#p31bd8b9419)" style="fill: none; stroke: #5cb85c; stroke-width: 1.5; stroke-linecap: square"/>
   </g>
   <g id="line2d_95">
    <path d="M -1 301.971475 
L 29.09622 301.971475 
L 30.43542 302.405935 
L 35.79222 302.405935 
L 37.13142 302.888009 
L 42.48822 302.888009 
L 43.82742 302.405963 
L 49.18422 302.405963 
L 50.52342 301.971507 
L 55.88022 301.971507 
L 57.21942 301.149231 
L 62.57622 301.149231 
L 63.91542 300.227714 
L 69.27222 300.227714 
L 70.61142 295.332372 
L 75.96822 295.332372 
L 77.30742 287.988659 
L 82.66422 287.988659 
L 84.00342 280.13687 
L 89.36022 280.13687 
L 90.69942 264.387626 
L 96.05622 264.387626 
L 97.39542 261.701812 
L 102.75222 261.701812 
L 104.09142 258.696245 
L 109.44822 258.696245 
L 110.78742 257.262943 
L 122.84022 257.320342 
L 124.17942 260.232648 
L 129.53622 260.232648 
L 130.87542 261.476558 
L 136.23222 261.476558 
L 137.57142 246.799135 
L 142.92822 246.799135 
L 144.26742 241.042093 
L 149.62422 241.042093 
L 150.96342 252.840516 
L 156.32022 252.840516 
L 157.65942 258.523178 
L 163.01622 258.523178 
L 164.35542 274.981228 
L 169.71222 274.981228 
L 171.05142 297.985129 
L 176.40822 297.985129 
L 177.74742 302.743348 
L 183.10422 302.743348 
L 184.44342 301.971475 
L 209.88822 301.971475 
L 209.88822 301.971475 
" clip-path="url(#p31bd8b9419)" style="fill: none; stroke: #337ab7; stroke-width: 1.5; stroke-linecap: square"/>
   </g>
   <g id="line2d_96">
    <path d="M -1 308.143535 
L 29.09622 308.143535 
L 30.43542 308.363357 
L 35.79222 308.363357 
L 37.13142 308.607569 
L 42.48822 308.607569 
L 43.82742 308.363371 
L 49.18422 308.363371 
L 50.52342 308.143551 
L 55.88022 308.143551 
L 57.21942 307.728213 
L 62.57622 307.728213 
L 63.91542 307.26385 
L 69.27222 307.26385 
L 70.61142 304.816889 
L 75.96822 304.816889 
L 77.30742 301.210957 
L 82.66422 301.210957 
L 84.00342 297.446369 
L 89.36022 297.446369 
L 90.69942 290.203954 
L 96.05622 290.203954 
L 97.39542 289.013274 
L 102.75222 289.013274 
L 104.09142 287.697213 
L 109.44822 287.697213 
L 110.78742 287.07585 
L 122.84022 287.100657 
L 124.17942 288.367769 
L 129.53622 288.367769 
L 130.87542 288.914015 
L 136.23222 288.914015 
L 137.57142 282.667727 
L 142.92822 282.667727 
L 144.26742 280.344706 
L 149.62422 280.344706 
L 150.96342 285.184732 
L 156.32022 285.184732 
L 157.65942 287.621963 
L 163.01622 287.621963 
L 164.35542 295.028418 
L 169.71222 295.028418 
L 171.05142 306.138697 
L 176.40822 306.138697 
L 177.74742 308.534252 
L 183.10422 308.534252 
L 184.44342 308.143535 
L 209.88822 308.143535 
L 209.88822 308.143535 
" clip-path="url(#p31bd8b9419)" style="fill: none; stroke: #337ab7; stroke-width: 1.5; stroke-linecap: square"/>
   </g>
   <g id="line2d_97">
    <path d="M -1 308.143685 
L 29.09622 308.143685 
L 30.43542 308.363504 
L 35.79222 308.363504 
L 37.13142 308.607705 
L 42.48822 308.607705 
L 43.82742 308.363506 
L 49.18422 308.363506 
L 50.52342 308.143687 
L 55.88022 308.143687 
L 57.21942 307.728363 
L 62.57622 307.728363 
L 63.91542 307.264014 
L 69.27222 307.264014 
L 70.61142 304.817149 
L 75.96822 304.817149 
L 77.30742 301.21135 
L 82.66422 301.21135 
L 84.00342 297.446963 
L 89.36022 297.446963 
L 90.69942 290.204992 
L 96.05622 290.204992 
L 97.39542 289.014403 
L 102.75222 289.014403 
L 104.09142 287.698396 
L 109.44822 287.698396 
L 110.78742 287.077123 
L 122.84022 287.101965 
L 124.17942 288.368958 
L 129.53622 288.368958 
L 130.87542 288.915092 
L 136.23222 288.915092 
L 137.57142 282.6692 
L 142.92822 282.6692 
L 144.26742 280.346474 
L 149.62422 280.346474 
L 150.96342 285.186282 
L 156.32022 285.186282 
L 157.65942 287.623544 
L 163.01622 287.623544 
L 164.35542 295.029383 
L 169.71222 295.029383 
L 171.05142 306.139014 
L 176.40822 306.139014 
L 177.74742 308.534435 
L 183.10422 308.534435 
L 184.44342 308.143685 
L 209.88822 308.143685 
L 209.88822 308.143685 
" clip-path="url(#p31bd8b9419)" style="fill: none; stroke: #337ab7; stroke-width: 1.5; stroke-linecap: square"/>
   </g>
   <g id="line2d_98">
    <path d="M -1 208.952082 
L 209.88822 208.952082 
" clip-path="url(#p31bd8b9419)" style="fill: none; stroke-dasharray: 1.5,2.475; stroke-dashoffset: 0; stroke: #d9524f; stroke-width: 1.5"/>
   </g>
   <g id="line2d_99">
    <path d="M -1 280.842121 
L 209.88822 280.842121 
" clip-path="url(#p31bd8b9419)" style="fill: none; stroke-dasharray: 1.5,2.475; stroke-dashoffset: 0; stroke: #5cb85c; stroke-width: 1.5"/>
   </g>
   <g id="line2d_100">
    <path d="M -1 251.24034 
L 209.88822 251.24034 
" clip-path="url(#p31bd8b9419)" style="fill: none; stroke-dasharray: 1.5,2.475; stroke-dashoffset: 0; stroke: #337ab7; stroke-width: 1.5"/>
   </g>
   <g id="patch_8">
    <path d="M 27 320.4 
L 27 194.4 
" style="fill: none; stroke: #000000; stroke-width: 0.8; stroke-linejoin: miter; stroke-linecap: square"/>
   </g>
   <g id="patch_9">
    <path d="M 194.4 320.4 
L 194.4 194.4 
" style="fill: none; stroke: #000000; stroke-width: 0.8; stroke-linejoin: miter; stroke-linecap: square"/>
   </g>
   <g id="patch_10">
    <path d="M 27 320.4 
L 194.4 320.4 
" style="fill: none; stroke: #000000; stroke-width: 0.8; stroke-linejoin: miter; stroke-linecap: square"/>
   </g>
   <g id="patch_11">
    <path d="M 27 194.4 
L 194.4 194.4 
" style="fill: none; stroke: #000000; stroke-width: 0.8; stroke-linejoin: miter; stroke-linecap: square"/>
   </g>
  </g>
 </g>
 <defs>
  <clipPath id="p508cb672f9">
   <rect x="27" y="43.2" width="167.4" height="126"/>
  </clipPath>
  <clipPath id="p31bd8b9419">
   <rect x="27" y="194.4" width="167.4" height="126"/>
  </clipPath>
 </defs>
</svg>
