<?xml version="1.0" encoding="utf-8" standalone="no"?>
<!DOCTYPE svg PUBLIC "-//W3C//DTD SVG 1.1//EN"
  "http://www.w3.org/Graphics/SVG/1.1/DTD/svg11.dtd">
<svg xmlns:xlink="http://www.w3.org/1999/xlink" width="216pt" height="360pt" viewBox="0 0 216 360" xmlns="http://www.w3.org/2000/svg" version="1.1">
 <metadata>
  <rdf:RDF xmlns:dc="http://purl.org/dc/elements/1.1/" xmlns:cc="http://creativecommons.org/ns#" xmlns:rdf="http://www.w3.org/1999/02/22-rdf-syntax-ns#">
   <cc:Work>
    <dc:type rdf:resource="http://purl.org/dc/dcmitype/StillImage"/>
    <dc:date>2024-05-19T00:29:06.968218</dc:date>
    <dc:format>image/svg+xml</dc:format>
    <dc:creator>
     <cc:Agent>
      <dc:title>Matplotlib v3.7.0, https://matplotlib.org/</dc:title>
     </cc:Agent>
    </dc:creator>
   </cc:Work>
  </rdf:RDF>
 </metadata>
 <defs>
  <style type="text/css">*{stroke-linejoin: round; stroke-linecap: butt}</style>
 </defs>
 <g id="figure_1">
  <g id="patch_1">
   <path d="M 0 360 
L 216 360 
L 216 0 
L 0 0 
z
" style="fill: #ffffff"/>
  </g>
  <g id="axes_1">
   <g id="patch_2">
    <path d="M 27 169.2 
L 194.4 169.2 
L 194.4 43.2 
L 27 43.2 
z
" style="fill: #ffffff"/>
   </g>
   <g id="matplotlib.axis_1">
    <g id="xtick_1">
     <g id="line2d_1">
      <path d="M 27 169.2 
L 27 43.2 
" clip-path="url(#p92672559a6)" style="fill: none; stroke: #b0b0b0; stroke-width: 0.8; stroke-linecap: square"/>
     </g>
     <g id="line2d_2">
      <defs>
       <path id="mdf3d87656b" d="M 0 0 
L 0 3.5 
" style="stroke: #000000; stroke-width: 0.8"/>
      </defs>
      <g>
       <use xlink:href="#mdf3d87656b" x="27" y="169.2" style="stroke: #000000; stroke-width: 0.8"/>
      </g>
     </g>
     <g id="text_1">
      <!-- 0 -->
      <g transform="translate(24.5 183.14375) scale(0.1 -0.1)">
       <defs>
        <path id="TimesNewRomanPSMT-30" d="M 231 2094 
Q 231 2819 450 3342 
Q 669 3866 1031 4122 
Q 1313 4325 1613 4325 
Q 2100 4325 2488 3828 
Q 2972 3213 2972 2159 
Q 2972 1422 2759 906 
Q 2547 391 2217 158 
Q 1888 -75 1581 -75 
Q 975 -75 572 641 
Q 231 1244 231 2094 
z
M 844 2016 
Q 844 1141 1059 588 
Q 1238 122 1591 122 
Q 1759 122 1940 273 
Q 2122 425 2216 781 
Q 2359 1319 2359 2297 
Q 2359 3022 2209 3506 
Q 2097 3866 1919 4016 
Q 1791 4119 1609 4119 
Q 1397 4119 1231 3928 
Q 1006 3669 925 3112 
Q 844 2556 844 2016 
z
" transform="scale(0.015625)"/>
       </defs>
       <use xlink:href="#TimesNewRomanPSMT-30"/>
      </g>
     </g>
    </g>
    <g id="xtick_2">
     <g id="line2d_3">
      <path d="M 54.9 169.2 
L 54.9 43.2 
" clip-path="url(#p92672559a6)" style="fill: none; stroke: #b0b0b0; stroke-width: 0.8; stroke-linecap: square"/>
     </g>
     <g id="line2d_4">
      <g>
       <use xlink:href="#mdf3d87656b" x="54.9" y="169.2" style="stroke: #000000; stroke-width: 0.8"/>
      </g>
     </g>
     <g id="text_2">
      <!-- 4 -->
      <g transform="translate(52.4 183.14375) scale(0.1 -0.1)">
       <defs>
        <path id="TimesNewRomanPSMT-34" d="M 2978 1563 
L 2978 1119 
L 2409 1119 
L 2409 0 
L 1894 0 
L 1894 1119 
L 100 1119 
L 100 1519 
L 2066 4325 
L 2409 4325 
L 2409 1563 
L 2978 1563 
z
M 1894 1563 
L 1894 3666 
L 406 1563 
L 1894 1563 
z
" transform="scale(0.015625)"/>
       </defs>
       <use xlink:href="#TimesNewRomanPSMT-34"/>
      </g>
     </g>
    </g>
    <g id="xtick_3">
     <g id="line2d_5">
      <path d="M 82.8 169.2 
L 82.8 43.2 
" clip-path="url(#p92672559a6)" style="fill: none; stroke: #b0b0b0; stroke-width: 0.8; stroke-linecap: square"/>
     </g>
     <g id="line2d_6">
      <g>
       <use xlink:href="#mdf3d87656b" x="82.8" y="169.2" style="stroke: #000000; stroke-width: 0.8"/>
      </g>
     </g>
     <g id="text_3">
      <!-- 8 -->
      <g transform="translate(80.3 183.14375) scale(0.1 -0.1)">
       <defs>
        <path id="TimesNewRomanPSMT-38" d="M 1228 2134 
Q 725 2547 579 2797 
Q 434 3047 434 3316 
Q 434 3728 753 4026 
Q 1072 4325 1600 4325 
Q 2113 4325 2425 4047 
Q 2738 3769 2738 3413 
Q 2738 3175 2569 2928 
Q 2400 2681 1866 2347 
Q 2416 1922 2594 1678 
Q 2831 1359 2831 1006 
Q 2831 559 2490 242 
Q 2150 -75 1597 -75 
Q 994 -75 656 303 
Q 388 606 388 966 
Q 388 1247 577 1523 
Q 766 1800 1228 2134 
z
M 1719 2469 
Q 2094 2806 2194 3001 
Q 2294 3197 2294 3444 
Q 2294 3772 2109 3958 
Q 1925 4144 1606 4144 
Q 1288 4144 1088 3959 
Q 888 3775 888 3528 
Q 888 3366 970 3203 
Q 1053 3041 1206 2894 
L 1719 2469 
z
M 1375 2016 
Q 1116 1797 991 1539 
Q 866 1281 866 981 
Q 866 578 1086 336 
Q 1306 94 1647 94 
Q 1984 94 2187 284 
Q 2391 475 2391 747 
Q 2391 972 2272 1150 
Q 2050 1481 1375 2016 
z
" transform="scale(0.015625)"/>
       </defs>
       <use xlink:href="#TimesNewRomanPSMT-38"/>
      </g>
     </g>
    </g>
    <g id="xtick_4">
     <g id="line2d_7">
      <path d="M 110.7 169.2 
L 110.7 43.2 
" clip-path="url(#p92672559a6)" style="fill: none; stroke: #b0b0b0; stroke-width: 0.8; stroke-linecap: square"/>
     </g>
     <g id="line2d_8">
      <g>
       <use xlink:href="#mdf3d87656b" x="110.7" y="169.2" style="stroke: #000000; stroke-width: 0.8"/>
      </g>
     </g>
     <g id="text_4">
      <!-- 12 -->
      <g transform="translate(105.7 183.14375) scale(0.1 -0.1)">
       <defs>
        <path id="TimesNewRomanPSMT-31" d="M 750 3822 
L 1781 4325 
L 1884 4325 
L 1884 747 
Q 1884 391 1914 303 
Q 1944 216 2037 169 
Q 2131 122 2419 116 
L 2419 0 
L 825 0 
L 825 116 
Q 1125 122 1212 167 
Q 1300 213 1334 289 
Q 1369 366 1369 747 
L 1369 3034 
Q 1369 3497 1338 3628 
Q 1316 3728 1258 3775 
Q 1200 3822 1119 3822 
Q 1003 3822 797 3725 
L 750 3822 
z
" transform="scale(0.015625)"/>
        <path id="TimesNewRomanPSMT-32" d="M 2934 816 
L 2638 0 
L 138 0 
L 138 116 
Q 1241 1122 1691 1759 
Q 2141 2397 2141 2925 
Q 2141 3328 1894 3587 
Q 1647 3847 1303 3847 
Q 991 3847 742 3664 
Q 494 3481 375 3128 
L 259 3128 
Q 338 3706 661 4015 
Q 984 4325 1469 4325 
Q 1984 4325 2329 3994 
Q 2675 3663 2675 3213 
Q 2675 2891 2525 2569 
Q 2294 2063 1775 1497 
Q 997 647 803 472 
L 1909 472 
Q 2247 472 2383 497 
Q 2519 522 2628 598 
Q 2738 675 2819 816 
L 2934 816 
z
" transform="scale(0.015625)"/>
       </defs>
       <use xlink:href="#TimesNewRomanPSMT-31"/>
       <use xlink:href="#TimesNewRomanPSMT-32" x="50"/>
      </g>
     </g>
    </g>
    <g id="xtick_5">
     <g id="line2d_9">
      <path d="M 138.6 169.2 
L 138.6 43.2 
" clip-path="url(#p92672559a6)" style="fill: none; stroke: #b0b0b0; stroke-width: 0.8; stroke-linecap: square"/>
     </g>
     <g id="line2d_10">
      <g>
       <use xlink:href="#mdf3d87656b" x="138.6" y="169.2" style="stroke: #000000; stroke-width: 0.8"/>
      </g>
     </g>
     <g id="text_5">
      <!-- 16 -->
      <g transform="translate(133.6 183.14375) scale(0.1 -0.1)">
       <defs>
        <path id="TimesNewRomanPSMT-36" d="M 2869 4325 
L 2869 4209 
Q 2456 4169 2195 4045 
Q 1934 3922 1679 3669 
Q 1425 3416 1258 3105 
Q 1091 2794 978 2366 
Q 1428 2675 1881 2675 
Q 2316 2675 2634 2325 
Q 2953 1975 2953 1425 
Q 2953 894 2631 456 
Q 2244 -75 1606 -75 
Q 1172 -75 869 213 
Q 275 772 275 1663 
Q 275 2231 503 2743 
Q 731 3256 1154 3653 
Q 1578 4050 1965 4187 
Q 2353 4325 2688 4325 
L 2869 4325 
z
M 925 2138 
Q 869 1716 869 1456 
Q 869 1156 980 804 
Q 1091 453 1309 247 
Q 1469 100 1697 100 
Q 1969 100 2183 356 
Q 2397 613 2397 1088 
Q 2397 1622 2184 2012 
Q 1972 2403 1581 2403 
Q 1463 2403 1327 2353 
Q 1191 2303 925 2138 
z
" transform="scale(0.015625)"/>
       </defs>
       <use xlink:href="#TimesNewRomanPSMT-31"/>
       <use xlink:href="#TimesNewRomanPSMT-36" x="50"/>
      </g>
     </g>
    </g>
    <g id="xtick_6">
     <g id="line2d_11">
      <path d="M 166.5 169.2 
L 166.5 43.2 
" clip-path="url(#p92672559a6)" style="fill: none; stroke: #b0b0b0; stroke-width: 0.8; stroke-linecap: square"/>
     </g>
     <g id="line2d_12">
      <g>
       <use xlink:href="#mdf3d87656b" x="166.5" y="169.2" style="stroke: #000000; stroke-width: 0.8"/>
      </g>
     </g>
     <g id="text_6">
      <!-- 20 -->
      <g transform="translate(161.5 183.14375) scale(0.1 -0.1)">
       <use xlink:href="#TimesNewRomanPSMT-32"/>
       <use xlink:href="#TimesNewRomanPSMT-30" x="50"/>
      </g>
     </g>
    </g>
    <g id="xtick_7">
     <g id="line2d_13">
      <path d="M 194.4 169.2 
L 194.4 43.2 
" clip-path="url(#p92672559a6)" style="fill: none; stroke: #b0b0b0; stroke-width: 0.8; stroke-linecap: square"/>
     </g>
     <g id="line2d_14">
      <g>
       <use xlink:href="#mdf3d87656b" x="194.4" y="169.2" style="stroke: #000000; stroke-width: 0.8"/>
      </g>
     </g>
     <g id="text_7">
      <!-- 24 -->
      <g transform="translate(189.4 183.14375) scale(0.1 -0.1)">
       <use xlink:href="#TimesNewRomanPSMT-32"/>
       <use xlink:href="#TimesNewRomanPSMT-34" x="50"/>
      </g>
     </g>
    </g>
   </g>
   <g id="matplotlib.axis_2">
    <g id="ytick_1">
     <g id="line2d_15">
      <path d="M 27 162.839981 
L 194.4 162.839981 
" clip-path="url(#p92672559a6)" style="fill: none; stroke: #b0b0b0; stroke-width: 0.8; stroke-linecap: square"/>
     </g>
     <g id="line2d_16">
      <defs>
       <path id="m0f5663fedd" d="M 0 0 
L -3.5 0 
" style="stroke: #000000; stroke-width: 0.8"/>
      </defs>
      <g>
       <use xlink:href="#m0f5663fedd" x="27" y="162.839981" style="stroke: #000000; stroke-width: 0.8"/>
      </g>
     </g>
     <g id="text_8">
      <!-- 0.90 -->
      <g transform="translate(2.5 166.311856) scale(0.1 -0.1)">
       <defs>
        <path id="TimesNewRomanPSMT-2e" d="M 800 606 
Q 947 606 1047 504 
Q 1147 403 1147 259 
Q 1147 116 1045 14 
Q 944 -88 800 -88 
Q 656 -88 554 14 
Q 453 116 453 259 
Q 453 406 554 506 
Q 656 606 800 606 
z
" transform="scale(0.015625)"/>
        <path id="TimesNewRomanPSMT-39" d="M 338 -88 
L 338 28 
Q 744 34 1094 217 
Q 1444 400 1770 856 
Q 2097 1313 2225 1859 
Q 1734 1544 1338 1544 
Q 891 1544 572 1889 
Q 253 2234 253 2806 
Q 253 3363 572 3797 
Q 956 4325 1575 4325 
Q 2097 4325 2469 3894 
Q 2925 3359 2925 2575 
Q 2925 1869 2578 1258 
Q 2231 647 1613 244 
Q 1109 -88 516 -88 
L 338 -88 
z
M 2275 2091 
Q 2331 2497 2331 2741 
Q 2331 3044 2228 3395 
Q 2125 3747 1936 3934 
Q 1747 4122 1506 4122 
Q 1228 4122 1018 3872 
Q 809 3622 809 3128 
Q 809 2469 1088 2097 
Q 1291 1828 1588 1828 
Q 1731 1828 1928 1897 
Q 2125 1966 2275 2091 
z
" transform="scale(0.015625)"/>
       </defs>
       <use xlink:href="#TimesNewRomanPSMT-30"/>
       <use xlink:href="#TimesNewRomanPSMT-2e" x="50"/>
       <use xlink:href="#TimesNewRomanPSMT-39" x="75"/>
       <use xlink:href="#TimesNewRomanPSMT-30" x="125"/>
      </g>
     </g>
    </g>
    <g id="ytick_2">
     <g id="line2d_17">
      <path d="M 27 124.869078 
L 194.4 124.869078 
" clip-path="url(#p92672559a6)" style="fill: none; stroke: #b0b0b0; stroke-width: 0.8; stroke-linecap: square"/>
     </g>
     <g id="line2d_18">
      <g>
       <use xlink:href="#m0f5663fedd" x="27" y="124.869078" style="stroke: #000000; stroke-width: 0.8"/>
      </g>
     </g>
     <g id="text_9">
      <!-- 0.95 -->
      <g transform="translate(2.5 128.340953) scale(0.1 -0.1)">
       <defs>
        <path id="TimesNewRomanPSMT-35" d="M 2778 4238 
L 2534 3706 
L 1259 3706 
L 981 3138 
Q 1809 3016 2294 2522 
Q 2709 2097 2709 1522 
Q 2709 1188 2573 903 
Q 2438 619 2231 419 
Q 2025 219 1772 97 
Q 1413 -75 1034 -75 
Q 653 -75 479 54 
Q 306 184 306 341 
Q 306 428 378 495 
Q 450 563 559 563 
Q 641 563 702 538 
Q 763 513 909 409 
Q 1144 247 1384 247 
Q 1750 247 2026 523 
Q 2303 800 2303 1197 
Q 2303 1581 2056 1914 
Q 1809 2247 1375 2428 
Q 1034 2569 447 2591 
L 1259 4238 
L 2778 4238 
z
" transform="scale(0.015625)"/>
       </defs>
       <use xlink:href="#TimesNewRomanPSMT-30"/>
       <use xlink:href="#TimesNewRomanPSMT-2e" x="50"/>
       <use xlink:href="#TimesNewRomanPSMT-39" x="75"/>
       <use xlink:href="#TimesNewRomanPSMT-35" x="125"/>
      </g>
     </g>
    </g>
    <g id="ytick_3">
     <g id="line2d_19">
      <path d="M 27 86.898176 
L 194.4 86.898176 
" clip-path="url(#p92672559a6)" style="fill: none; stroke: #b0b0b0; stroke-width: 0.8; stroke-linecap: square"/>
     </g>
     <g id="line2d_20">
      <g>
       <use xlink:href="#m0f5663fedd" x="27" y="86.898176" style="stroke: #000000; stroke-width: 0.8"/>
      </g>
     </g>
     <g id="text_10">
      <!-- 1.00 -->
      <g transform="translate(2.5 90.370051) scale(0.1 -0.1)">
       <use xlink:href="#TimesNewRomanPSMT-31"/>
       <use xlink:href="#TimesNewRomanPSMT-2e" x="50"/>
       <use xlink:href="#TimesNewRomanPSMT-30" x="75"/>
       <use xlink:href="#TimesNewRomanPSMT-30" x="125"/>
      </g>
     </g>
    </g>
    <g id="ytick_4">
     <g id="line2d_21">
      <path d="M 27 48.927273 
L 194.4 48.927273 
" clip-path="url(#p92672559a6)" style="fill: none; stroke: #b0b0b0; stroke-width: 0.8; stroke-linecap: square"/>
     </g>
     <g id="line2d_22">
      <g>
       <use xlink:href="#m0f5663fedd" x="27" y="48.927273" style="stroke: #000000; stroke-width: 0.8"/>
      </g>
     </g>
     <g id="text_11">
      <!-- 1.05 -->
      <g transform="translate(2.5 52.399148) scale(0.1 -0.1)">
       <use xlink:href="#TimesNewRomanPSMT-31"/>
       <use xlink:href="#TimesNewRomanPSMT-2e" x="50"/>
       <use xlink:href="#TimesNewRomanPSMT-30" x="75"/>
       <use xlink:href="#TimesNewRomanPSMT-35" x="125"/>
      </g>
     </g>
    </g>
    <g id="text_12">
     <!-- Voltages (pu) -->
     <g transform="translate(-3.657813 132.910156) rotate(-90) scale(0.1 -0.1)">
      <defs>
       <path id="TimesNewRomanPSMT-56" d="M 4544 4238 
L 4544 4122 
Q 4319 4081 4203 3978 
Q 4038 3825 3909 3509 
L 2431 -97 
L 2316 -97 
L 728 3556 
Q 606 3838 556 3900 
Q 478 3997 364 4051 
Q 250 4106 56 4122 
L 56 4238 
L 1788 4238 
L 1788 4122 
Q 1494 4094 1406 4022 
Q 1319 3950 1319 3838 
Q 1319 3681 1463 3350 
L 2541 866 
L 3541 3319 
Q 3688 3681 3688 3822 
Q 3688 3913 3597 3995 
Q 3506 4078 3291 4113 
Q 3275 4116 3238 4122 
L 3238 4238 
L 4544 4238 
z
" transform="scale(0.015625)"/>
       <path id="TimesNewRomanPSMT-6f" d="M 1600 2947 
Q 2250 2947 2644 2453 
Q 2978 2031 2978 1484 
Q 2978 1100 2793 706 
Q 2609 313 2286 112 
Q 1963 -88 1566 -88 
Q 919 -88 538 428 
Q 216 863 216 1403 
Q 216 1797 411 2186 
Q 606 2575 925 2761 
Q 1244 2947 1600 2947 
z
M 1503 2744 
Q 1338 2744 1170 2645 
Q 1003 2547 900 2300 
Q 797 2053 797 1666 
Q 797 1041 1045 587 
Q 1294 134 1700 134 
Q 2003 134 2200 384 
Q 2397 634 2397 1244 
Q 2397 2006 2069 2444 
Q 1847 2744 1503 2744 
z
" transform="scale(0.015625)"/>
       <path id="TimesNewRomanPSMT-6c" d="M 1184 4444 
L 1184 647 
Q 1184 378 1223 290 
Q 1263 203 1344 158 
Q 1425 113 1647 113 
L 1647 0 
L 244 0 
L 244 113 
Q 441 113 512 153 
Q 584 194 625 287 
Q 666 381 666 647 
L 666 3247 
Q 666 3731 644 3842 
Q 622 3953 573 3993 
Q 525 4034 450 4034 
Q 369 4034 244 3984 
L 191 4094 
L 1044 4444 
L 1184 4444 
z
" transform="scale(0.015625)"/>
       <path id="TimesNewRomanPSMT-74" d="M 1031 3803 
L 1031 2863 
L 1700 2863 
L 1700 2644 
L 1031 2644 
L 1031 788 
Q 1031 509 1111 412 
Q 1191 316 1316 316 
Q 1419 316 1516 380 
Q 1613 444 1666 569 
L 1788 569 
Q 1678 263 1478 108 
Q 1278 -47 1066 -47 
Q 922 -47 784 33 
Q 647 113 581 261 
Q 516 409 516 719 
L 516 2644 
L 63 2644 
L 63 2747 
Q 234 2816 414 2980 
Q 594 3144 734 3369 
Q 806 3488 934 3803 
L 1031 3803 
z
" transform="scale(0.015625)"/>
       <path id="TimesNewRomanPSMT-61" d="M 1822 413 
Q 1381 72 1269 19 
Q 1100 -59 909 -59 
Q 613 -59 420 144 
Q 228 347 228 678 
Q 228 888 322 1041 
Q 450 1253 767 1440 
Q 1084 1628 1822 1897 
L 1822 2009 
Q 1822 2438 1686 2597 
Q 1550 2756 1291 2756 
Q 1094 2756 978 2650 
Q 859 2544 859 2406 
L 866 2225 
Q 866 2081 792 2003 
Q 719 1925 600 1925 
Q 484 1925 411 2006 
Q 338 2088 338 2228 
Q 338 2497 613 2722 
Q 888 2947 1384 2947 
Q 1766 2947 2009 2819 
Q 2194 2722 2281 2516 
Q 2338 2381 2338 1966 
L 2338 994 
Q 2338 584 2353 492 
Q 2369 400 2405 369 
Q 2441 338 2488 338 
Q 2538 338 2575 359 
Q 2641 400 2828 588 
L 2828 413 
Q 2478 -56 2159 -56 
Q 2006 -56 1915 50 
Q 1825 156 1822 413 
z
M 1822 616 
L 1822 1706 
Q 1350 1519 1213 1441 
Q 966 1303 859 1153 
Q 753 1003 753 825 
Q 753 600 887 451 
Q 1022 303 1197 303 
Q 1434 303 1822 616 
z
" transform="scale(0.015625)"/>
       <path id="TimesNewRomanPSMT-67" d="M 966 1044 
Q 703 1172 562 1401 
Q 422 1631 422 1909 
Q 422 2334 742 2640 
Q 1063 2947 1563 2947 
Q 1972 2947 2272 2747 
L 2878 2747 
Q 3013 2747 3034 2739 
Q 3056 2731 3066 2713 
Q 3084 2684 3084 2613 
Q 3084 2531 3069 2500 
Q 3059 2484 3036 2475 
Q 3013 2466 2878 2466 
L 2506 2466 
Q 2681 2241 2681 1891 
Q 2681 1491 2375 1206 
Q 2069 922 1553 922 
Q 1341 922 1119 984 
Q 981 866 932 777 
Q 884 688 884 625 
Q 884 572 936 522 
Q 988 472 1138 450 
Q 1225 438 1575 428 
Q 2219 413 2409 384 
Q 2700 344 2873 169 
Q 3047 -6 3047 -263 
Q 3047 -616 2716 -925 
Q 2228 -1381 1444 -1381 
Q 841 -1381 425 -1109 
Q 191 -953 191 -784 
Q 191 -709 225 -634 
Q 278 -519 444 -313 
Q 466 -284 763 25 
Q 600 122 533 198 
Q 466 275 466 372 
Q 466 481 555 628 
Q 644 775 966 1044 
z
M 1509 2797 
Q 1278 2797 1122 2612 
Q 966 2428 966 2047 
Q 966 1553 1178 1281 
Q 1341 1075 1591 1075 
Q 1828 1075 1981 1253 
Q 2134 1431 2134 1813 
Q 2134 2309 1919 2591 
Q 1759 2797 1509 2797 
z
M 934 0 
Q 788 -159 713 -296 
Q 638 -434 638 -550 
Q 638 -700 819 -813 
Q 1131 -1006 1722 -1006 
Q 2284 -1006 2551 -807 
Q 2819 -609 2819 -384 
Q 2819 -222 2659 -153 
Q 2497 -84 2016 -72 
Q 1313 -53 934 0 
z
" transform="scale(0.015625)"/>
       <path id="TimesNewRomanPSMT-65" d="M 681 1784 
Q 678 1147 991 784 
Q 1303 422 1725 422 
Q 2006 422 2214 576 
Q 2422 731 2563 1106 
L 2659 1044 
Q 2594 616 2278 264 
Q 1963 -88 1488 -88 
Q 972 -88 605 314 
Q 238 716 238 1394 
Q 238 2128 614 2539 
Q 991 2950 1559 2950 
Q 2041 2950 2350 2633 
Q 2659 2316 2659 1784 
L 681 1784 
z
M 681 1966 
L 2006 1966 
Q 1991 2241 1941 2353 
Q 1863 2528 1708 2628 
Q 1553 2728 1384 2728 
Q 1125 2728 920 2526 
Q 716 2325 681 1966 
z
" transform="scale(0.015625)"/>
       <path id="TimesNewRomanPSMT-73" d="M 2050 2947 
L 2050 1972 
L 1947 1972 
Q 1828 2431 1642 2597 
Q 1456 2763 1169 2763 
Q 950 2763 815 2647 
Q 681 2531 681 2391 
Q 681 2216 781 2091 
Q 878 1963 1175 1819 
L 1631 1597 
Q 2266 1288 2266 781 
Q 2266 391 1970 151 
Q 1675 -88 1309 -88 
Q 1047 -88 709 6 
Q 606 38 541 38 
Q 469 38 428 -44 
L 325 -44 
L 325 978 
L 428 978 
Q 516 541 762 319 
Q 1009 97 1316 97 
Q 1531 97 1667 223 
Q 1803 350 1803 528 
Q 1803 744 1651 891 
Q 1500 1038 1047 1263 
Q 594 1488 453 1669 
Q 313 1847 313 2119 
Q 313 2472 555 2709 
Q 797 2947 1181 2947 
Q 1350 2947 1591 2875 
Q 1750 2828 1803 2828 
Q 1853 2828 1881 2850 
Q 1909 2872 1947 2947 
L 2050 2947 
z
" transform="scale(0.015625)"/>
       <path id="TimesNewRomanPSMT-20" transform="scale(0.015625)"/>
       <path id="TimesNewRomanPSMT-28" d="M 1988 -1253 
L 1988 -1369 
Q 1516 -1131 1200 -813 
Q 750 -359 506 256 
Q 263 872 263 1534 
Q 263 2503 741 3301 
Q 1219 4100 1988 4444 
L 1988 4313 
Q 1603 4100 1356 3731 
Q 1109 3363 987 2797 
Q 866 2231 866 1616 
Q 866 947 969 400 
Q 1050 -31 1165 -292 
Q 1281 -553 1476 -793 
Q 1672 -1034 1988 -1253 
z
" transform="scale(0.015625)"/>
       <path id="TimesNewRomanPSMT-70" d="M -6 2578 
L 875 2934 
L 994 2934 
L 994 2266 
Q 1216 2644 1439 2795 
Q 1663 2947 1909 2947 
Q 2341 2947 2628 2609 
Q 2981 2197 2981 1534 
Q 2981 794 2556 309 
Q 2206 -88 1675 -88 
Q 1444 -88 1275 -22 
Q 1150 25 994 166 
L 994 -706 
Q 994 -1000 1030 -1079 
Q 1066 -1159 1155 -1206 
Q 1244 -1253 1478 -1253 
L 1478 -1369 
L -22 -1369 
L -22 -1253 
L 56 -1253 
Q 228 -1256 350 -1188 
Q 409 -1153 442 -1076 
Q 475 -1000 475 -688 
L 475 2019 
Q 475 2297 450 2372 
Q 425 2447 370 2484 
Q 316 2522 222 2522 
Q 147 2522 31 2478 
L -6 2578 
z
M 994 2081 
L 994 1013 
Q 994 666 1022 556 
Q 1066 375 1236 237 
Q 1406 100 1666 100 
Q 1978 100 2172 344 
Q 2425 663 2425 1241 
Q 2425 1897 2138 2250 
Q 1938 2494 1663 2494 
Q 1513 2494 1366 2419 
Q 1253 2363 994 2081 
z
" transform="scale(0.015625)"/>
       <path id="TimesNewRomanPSMT-75" d="M 2709 2863 
L 2709 1128 
Q 2709 631 2732 520 
Q 2756 409 2807 365 
Q 2859 322 2928 322 
Q 3025 322 3147 375 
L 3191 266 
L 2334 -88 
L 2194 -88 
L 2194 519 
Q 1825 119 1631 15 
Q 1438 -88 1222 -88 
Q 981 -88 804 51 
Q 628 191 559 409 
Q 491 628 491 1028 
L 491 2306 
Q 491 2509 447 2587 
Q 403 2666 317 2708 
Q 231 2750 6 2747 
L 6 2863 
L 1009 2863 
L 1009 947 
Q 1009 547 1148 422 
Q 1288 297 1484 297 
Q 1619 297 1789 381 
Q 1959 466 2194 703 
L 2194 2325 
Q 2194 2569 2105 2655 
Q 2016 2741 1734 2747 
L 1734 2863 
L 2709 2863 
z
" transform="scale(0.015625)"/>
       <path id="TimesNewRomanPSMT-29" d="M 144 4313 
L 144 4444 
Q 619 4209 934 3891 
Q 1381 3434 1625 2820 
Q 1869 2206 1869 1541 
Q 1869 572 1392 -226 
Q 916 -1025 144 -1369 
L 144 -1253 
Q 528 -1038 776 -670 
Q 1025 -303 1145 264 
Q 1266 831 1266 1447 
Q 1266 2113 1163 2663 
Q 1084 3094 967 3353 
Q 850 3613 656 3853 
Q 463 4094 144 4313 
z
" transform="scale(0.015625)"/>
      </defs>
      <use xlink:href="#TimesNewRomanPSMT-56"/>
      <use xlink:href="#TimesNewRomanPSMT-6f" x="59.341797"/>
      <use xlink:href="#TimesNewRomanPSMT-6c" x="109.341797"/>
      <use xlink:href="#TimesNewRomanPSMT-74" x="137.125"/>
      <use xlink:href="#TimesNewRomanPSMT-61" x="164.908203"/>
      <use xlink:href="#TimesNewRomanPSMT-67" x="209.292969"/>
      <use xlink:href="#TimesNewRomanPSMT-65" x="259.292969"/>
      <use xlink:href="#TimesNewRomanPSMT-73" x="303.677734"/>
      <use xlink:href="#TimesNewRomanPSMT-20" x="342.59375"/>
      <use xlink:href="#TimesNewRomanPSMT-28" x="367.59375"/>
      <use xlink:href="#TimesNewRomanPSMT-70" x="400.894531"/>
      <use xlink:href="#TimesNewRomanPSMT-75" x="450.894531"/>
      <use xlink:href="#TimesNewRomanPSMT-29" x="500.894531"/>
     </g>
    </g>
   </g>
   <g id="line2d_23">
    <path d="M -1 66.108422 
L 29.09622 66.108422 
L 30.43542 66.551842 
L 35.79222 66.551842 
L 37.13142 66.199045 
L 42.48822 66.199045 
L 43.82742 65.77199 
L 49.18422 65.77199 
L 50.52342 65.42265 
L 62.57622 65.423645 
L 63.91542 65.016865 
L 69.27222 65.016865 
L 70.61142 65.430288 
L 75.96822 65.430288 
L 77.30742 63.889366 
L 82.66422 63.889366 
L 84.00342 63.525325 
L 89.36022 63.525325 
L 90.69942 63.878214 
L 109.44822 63.910414 
L 110.78742 64.690186 
L 116.14422 64.690186 
L 117.48342 65.444899 
L 129.53622 65.442034 
L 130.87542 64.714829 
L 142.92822 64.721513 
L 144.26742 67.625234 
L 149.62422 67.625234 
L 150.96342 71.665516 
L 156.32022 71.665516 
L 157.65942 77.47815 
L 163.01622 77.47815 
L 164.35542 75.863571 
L 169.71222 75.863571 
L 171.05142 73.393589 
L 176.40822 73.393589 
L 177.74742 70.104445 
L 183.10422 70.104445 
L 184.44342 66.108422 
L 209.88822 66.108422 
L 209.88822 66.108422 
" clip-path="url(#p92672559a6)" style="fill: none; stroke: #d9524f; stroke-width: 1.5; stroke-linecap: square"/>
   </g>
   <g id="line2d_24">
    <path d="M -1 70.483111 
L 29.09622 70.483111 
L 30.43542 71.133513 
L 35.79222 71.133513 
L 37.13142 70.616471 
L 42.48822 70.616471 
L 43.82742 69.9903 
L 49.18422 69.9903 
L 50.52342 69.478073 
L 62.57622 69.479075 
L 63.91542 68.881854 
L 69.27222 68.881854 
L 70.61142 69.485755 
L 75.96822 69.485755 
L 77.30742 67.222675 
L 82.66422 67.222675 
L 84.00342 66.685123 
L 89.36022 66.685123 
L 90.69942 67.197698 
L 109.44822 67.243817 
L 110.78742 68.386746 
L 116.14422 68.386746 
L 117.48342 69.493461 
L 129.53622 69.490581 
L 130.87542 68.425388 
L 142.92822 68.432105 
L 144.26742 72.689205 
L 149.62422 72.689205 
L 150.96342 78.615927 
L 156.32022 78.615927 
L 157.65942 87.137636 
L 163.01622 87.137636 
L 164.35542 84.776037 
L 169.71222 84.776037 
L 171.05142 81.16176 
L 176.40822 81.16176 
L 177.74742 76.341766 
L 183.10422 76.341766 
L 184.44342 70.483111 
L 209.88822 70.483111 
L 209.88822 70.483111 
" clip-path="url(#p92672559a6)" style="fill: none; stroke: #d9524f; stroke-width: 1.5; stroke-linecap: square"/>
   </g>
   <g id="line2d_25">
    <path d="M -1 74.857617 
L 29.09622 74.857617 
L 30.43542 75.714975 
L 35.79222 75.714975 
L 37.13142 75.03371 
L 42.48822 75.03371 
L 43.82742 74.208448 
L 49.18422 74.208448 
L 50.52342 73.533354 
L 62.57622 73.534361 
L 63.91542 72.746721 
L 69.27222 72.746721 
L 70.61142 73.541078 
L 75.96822 73.541078 
L 77.30742 70.555913 
L 82.66422 70.555913 
L 84.00342 69.844866 
L 89.36022 69.844866 
L 90.69942 70.517113 
L 109.44822 70.57715 
L 110.78742 72.083201 
L 116.14422 72.083201 
L 117.48342 73.541881 
L 129.53622 73.538985 
L 130.87542 72.135841 
L 142.92822 72.142592 
L 144.26742 77.752895 
L 149.62422 77.752895 
L 150.96342 85.565685 
L 156.32022 85.565685 
L 157.65942 96.79566 
L 163.01622 96.79566 
L 164.35542 93.687297 
L 169.71222 93.687297 
L 171.05142 88.929069 
L 176.40822 88.929069 
L 177.74742 82.578593 
L 183.10422 82.578593 
L 184.44342 74.857617 
L 209.88822 74.857617 
L 209.88822 74.857617 
" clip-path="url(#p92672559a6)" style="fill: none; stroke: #d9524f; stroke-width: 1.5; stroke-linecap: square"/>
   </g>
   <g id="line2d_26">
    <path d="M -1 78.917351 
L 29.09622 78.917351 
L 30.43542 79.967108 
L 35.79222 79.967108 
L 37.13142 79.133168 
L 42.48822 79.133168 
L 43.82742 78.122842 
L 49.18422 78.122842 
L 50.52342 77.296378 
L 62.57622 77.29739 
L 63.91542 76.332795 
L 69.27222 76.332795 
L 70.61142 77.30414 
L 75.96822 77.30414 
L 77.30742 73.648091 
L 82.66422 73.648091 
L 84.00342 72.775906 
L 89.36022 72.775906 
L 90.69942 73.596451 
L 109.44822 73.669416 
L 110.78742 75.512796 
L 116.14422 75.512796 
L 117.48342 77.298528 
L 129.53622 77.295618 
L 130.87542 75.578441 
L 142.92822 75.585223 
L 144.26742 82.453459 
L 149.62422 82.453459 
L 150.96342 92.021813 
L 156.32022 92.021813 
L 157.65942 105.777546 
L 163.01622 105.777546 
L 164.35542 101.972147 
L 169.71222 101.972147 
L 171.05142 96.147031 
L 176.40822 96.147031 
L 177.74742 88.370801 
L 183.10422 88.370801 
L 184.44342 78.917351 
L 209.88822 78.917351 
L 209.88822 78.917351 
" clip-path="url(#p92672559a6)" style="fill: none; stroke: #d9524f; stroke-width: 1.5; stroke-linecap: square"/>
   </g>
   <g id="line2d_27">
    <path d="M -1 81.854949 
L 29.09622 81.854949 
L 30.43542 83.04362 
L 35.79222 83.04362 
L 37.13142 82.099449 
L 42.48822 82.099449 
L 43.82742 80.955482 
L 49.18422 80.955482 
L 50.52342 80.019688 
L 62.57622 80.020703 
L 63.91542 78.928277 
L 69.27222 78.928277 
L 70.61142 80.027479 
L 75.96822 80.027479 
L 77.30742 75.886657 
L 82.66422 75.886657 
L 84.00342 74.897983 
L 89.36022 74.897983 
L 90.69942 75.825735 
L 109.44822 75.908045 
L 110.78742 77.995217 
L 116.14422 77.995217 
L 117.48342 80.017233 
L 129.53622 80.014311 
L 130.87542 78.070259 
L 142.92822 78.077064 
L 144.26742 85.853631 
L 149.62422 85.853631 
L 150.96342 96.687427 
L 156.32022 96.687427 
L 157.65942 112.25867 
L 163.01622 112.25867 
L 164.35542 107.952894 
L 169.71222 107.952894 
L 171.05142 101.36092 
L 176.40822 101.36092 
L 177.74742 92.558168 
L 183.10422 92.558168 
L 184.44342 81.854949 
L 209.88822 81.854949 
L 209.88822 81.854949 
" clip-path="url(#p92672559a6)" style="fill: none; stroke: #d9524f; stroke-width: 1.5; stroke-linecap: square"/>
   </g>
   <g id="line2d_28">
    <path d="M -1 84.792373 
L 29.09622 84.792373 
L 30.43542 86.119942 
L 35.79222 86.119942 
L 37.13142 85.065554 
L 42.48822 85.065554 
L 43.82742 83.787961 
L 49.18422 83.787961 
L 50.52342 82.742848 
L 62.57622 82.743868 
L 63.91542 81.523625 
L 69.27222 81.523625 
L 70.61142 82.750668 
L 75.96822 82.750668 
L 77.30742 78.125122 
L 82.66422 78.125122 
L 84.00342 77.019971 
L 89.36022 77.019971 
L 90.69942 78.05492 
L 109.44822 78.146573 
L 110.78742 80.477514 
L 116.14422 80.477514 
L 117.48342 82.735788 
L 129.53622 82.732856 
L 130.87542 80.561954 
L 142.92822 80.568781 
L 144.26742 89.253567 
L 149.62422 89.253567 
L 150.96342 101.352586 
L 156.32022 101.352586 
L 157.65942 118.738884 
L 163.01622 118.738884 
L 164.35542 113.932873 
L 169.71222 113.932873 
L 171.05142 106.574235 
L 176.40822 106.574235 
L 177.74742 96.745173 
L 183.10422 96.745173 
L 184.44342 84.792373 
L 209.88822 84.792373 
L 209.88822 84.792373 
" clip-path="url(#p92672559a6)" style="fill: none; stroke: #d9524f; stroke-width: 1.5; stroke-linecap: square"/>
   </g>
   <g id="line2d_29">
    <path d="M -1 86.555969 
L 29.09622 86.555969 
L 30.43542 87.967181 
L 35.79222 87.967181 
L 37.13142 86.846419 
L 42.48822 86.846419 
L 43.82742 85.488376 
L 49.18422 85.488376 
L 50.52342 84.377464 
L 62.57622 84.378486 
L 63.91542 83.081327 
L 69.27222 83.081327 
L 70.61142 84.385301 
L 75.96822 84.385301 
L 77.30742 79.46817 
L 82.66422 79.46817 
L 84.00342 78.292995 
L 89.36022 78.292995 
L 90.69942 79.392389 
L 109.44822 79.48966 
L 110.78742 81.967204 
L 116.14422 81.967204 
L 117.48342 84.367633 
L 129.53622 84.364694 
L 130.87542 82.057296 
L 142.92822 82.064137 
L 144.26742 91.295779 
L 149.62422 91.295779 
L 150.96342 104.158381 
L 156.32022 104.158381 
L 157.65942 122.644021 
L 163.01622 122.644021 
L 164.35542 117.534539 
L 169.71222 117.534539 
L 171.05142 109.711529 
L 176.40822 109.711529 
L 177.74742 99.262142 
L 183.10422 99.262142 
L 184.44342 86.555969 
L 209.88822 86.555969 
L 209.88822 86.555969 
" clip-path="url(#p92672559a6)" style="fill: none; stroke: #d9524f; stroke-width: 1.5; stroke-linecap: square"/>
   </g>
   <g id="line2d_30">
    <path d="M -1 88.319501 
L 29.09622 88.319501 
L 30.43542 89.81435 
L 35.79222 89.81435 
L 37.13142 88.627219 
L 42.48822 88.627219 
L 43.82742 87.188732 
L 49.18422 87.188732 
L 50.52342 86.012025 
L 62.57622 86.013049 
L 63.91542 84.63898 
L 69.27222 84.63898 
L 70.61142 86.019879 
L 75.96822 86.019879 
L 77.30742 80.811182 
L 82.66422 80.811182 
L 84.00342 79.565985 
L 89.36022 79.565985 
L 90.69942 80.729821 
L 109.44822 80.83271 
L 110.78742 83.456849 
L 116.14422 83.456849 
L 117.48342 85.999422 
L 129.53622 85.996478 
L 130.87542 83.552593 
L 142.92822 83.559447 
L 144.26742 93.337904 
L 149.62422 93.337904 
L 150.96342 106.964007 
L 156.32022 106.964007 
L 157.65942 126.548815 
L 163.01622 126.548815 
L 164.35542 121.135917 
L 169.71222 121.135917 
L 171.05142 112.848609 
L 176.40822 112.848609 
L 177.74742 101.778977 
L 183.10422 101.778977 
L 184.44342 88.319501 
L 209.88822 88.319501 
L 209.88822 88.319501 
" clip-path="url(#p92672559a6)" style="fill: none; stroke: #d9524f; stroke-width: 1.5; stroke-linecap: square"/>
   </g>
   <g id="line2d_31">
    <path d="M -1 90.08222 
L 29.09622 90.08222 
L 30.43542 91.660662 
L 35.79222 91.660662 
L 37.13142 90.407196 
L 42.48822 90.407196 
L 43.82742 88.888306 
L 49.18422 88.888306 
L 50.52342 87.645838 
L 62.57622 87.646864 
L 63.91542 86.195922 
L 69.27222 86.195922 
L 70.61142 87.653709 
L 75.96822 87.653709 
L 77.30742 82.153588 
L 82.66422 82.153588 
L 84.00342 80.838404 
L 89.36022 80.838404 
L 90.69942 82.06665 
L 109.44822 82.175154 
L 110.78742 84.945816 
L 116.14422 84.945816 
L 117.48342 87.630465 
L 129.53622 87.627514 
L 130.87542 85.04721 
L 142.92822 85.054077 
L 144.26742 95.379072 
L 149.62422 95.379072 
L 150.96342 109.768261 
L 156.32022 109.768261 
L 157.65942 130.451568 
L 163.01622 130.451568 
L 164.35542 124.735448 
L 169.71222 124.735448 
L 171.05142 115.984124 
L 176.40822 115.984124 
L 177.74742 104.294601 
L 183.10422 104.294601 
L 184.44342 90.08222 
L 209.88822 90.08222 
L 209.88822 90.08222 
" clip-path="url(#p92672559a6)" style="fill: none; stroke: #d9524f; stroke-width: 1.5; stroke-linecap: square"/>
   </g>
   <g id="line2d_32">
    <path d="M -1 91.09394 
L 29.09622 91.09394 
L 30.43542 92.72042 
L 35.79222 92.72042 
L 37.13142 91.428834 
L 42.48822 91.428834 
L 43.82742 89.863743 
L 49.18422 89.863743 
L 50.52342 88.583492 
L 62.57622 88.58452 
L 63.91542 87.089416 
L 69.27222 87.089416 
L 70.61142 88.591373 
L 75.96822 88.591373 
L 77.30742 82.923859 
L 82.66422 82.923859 
L 84.00342 81.568483 
L 89.36022 81.568483 
L 90.69942 82.833718 
L 96.05622 82.833718 
L 98.73462 82.945125 
L 109.44822 82.945446 
L 110.78742 85.800264 
L 116.14422 85.800264 
L 117.48342 88.566528 
L 129.53622 88.563574 
L 130.87542 85.904902 
L 142.92822 85.911778 
L 144.26742 96.550825 
L 149.62422 96.550825 
L 150.96342 111.378913 
L 156.32022 111.378913 
L 157.65942 132.694959 
L 163.01622 132.694959 
L 164.35542 126.804067 
L 169.71222 126.804067 
L 171.05142 117.785465 
L 176.40822 117.785465 
L 177.74742 105.739185 
L 183.10422 105.739185 
L 184.44342 91.09394 
L 209.88822 91.09394 
L 209.88822 91.09394 
" clip-path="url(#p92672559a6)" style="fill: none; stroke: #d9524f; stroke-width: 1.5; stroke-linecap: square"/>
   </g>
   <g id="line2d_33">
    <path d="M -1 76.167397 
L 29.09622 76.167397 
L 30.43542 77.08528 
L 35.79222 77.08528 
L 37.13142 76.355998 
L 42.48822 76.355998 
L 43.82742 75.472411 
L 49.18422 75.472411 
L 50.52342 74.749512 
L 62.57622 74.75052 
L 63.91542 73.906882 
L 69.27222 73.906882 
L 70.61142 74.757247 
L 75.96822 74.757247 
L 77.30742 71.559141 
L 82.66422 71.559141 
L 84.00342 70.796691 
L 89.36022 70.796691 
L 90.69942 71.516248 
L 109.44822 71.580405 
L 110.78742 73.193742 
L 116.14422 73.193742 
L 117.48342 74.756022 
L 129.53622 74.753121 
L 130.87542 73.25051 
L 142.92822 73.25727 
L 144.26742 79.263702 
L 149.62422 79.263702 
L 150.96342 87.618795 
L 156.32022 87.618795 
L 157.65942 99.606427 
L 163.01622 99.606427 
L 164.35542 96.291717 
L 169.71222 96.291717 
L 171.05142 91.213576 
L 176.40822 91.213576 
L 177.74742 84.428089 
L 183.10422 84.428089 
L 184.44342 76.167397 
L 209.88822 76.167397 
L 209.88822 76.167397 
" clip-path="url(#p92672559a6)" style="fill: none; stroke: #d9524f; stroke-width: 1.5; stroke-linecap: square"/>
   </g>
   <g id="line2d_34">
    <path d="M -1 83.598041 
L 29.09622 83.598041 
L 30.43542 84.871506 
L 35.79222 84.871506 
L 37.13142 83.860031 
L 42.48822 83.860031 
L 43.82742 82.634661 
L 49.18422 82.634661 
L 50.52342 81.632431 
L 62.57622 81.633449 
L 63.91542 80.463522 
L 69.27222 80.463522 
L 70.61142 81.64024 
L 75.96822 81.64024 
L 77.30742 77.206511 
L 82.66422 77.206511 
L 84.00342 76.147853 
L 89.36022 76.147853 
L 90.69942 77.140009 
L 109.44822 77.227938 
L 110.78742 79.462075 
L 116.14422 79.462075 
L 117.48342 81.627182 
L 129.53622 81.624254 
L 130.87542 79.542797 
L 142.92822 79.549615 
L 144.26742 87.879994 
L 149.62422 87.879994 
L 150.96342 99.502734 
L 156.32022 99.502734 
L 157.65942 116.246187 
L 163.01622 116.246187 
L 164.35542 111.612156 
L 169.71222 111.612156 
L 171.05142 104.524905 
L 176.40822 104.524905 
L 177.74742 95.072796 
L 183.10422 95.072796 
L 184.44342 83.598041 
L 209.88822 83.598041 
L 209.88822 83.598041 
" clip-path="url(#p92672559a6)" style="fill: none; stroke: #d9524f; stroke-width: 1.5; stroke-linecap: square"/>
   </g>
   <g id="line2d_35">
    <path d="M -1 88.277463 
L 29.09622 88.277463 
L 30.43542 89.774514 
L 35.79222 89.774514 
L 37.13142 88.585602 
L 42.48822 88.585602 
L 43.82742 87.145303 
L 49.18422 87.145303 
L 50.52342 85.967395 
L 62.57622 85.968419 
L 63.91542 84.593261 
L 69.27222 84.593261 
L 70.61142 85.97525 
L 75.96822 85.97525 
L 77.30742 80.764196 
L 82.66422 80.764196 
L 84.00342 79.519141 
L 89.36022 79.519141 
L 90.69942 80.682838 
L 109.44822 80.785725 
L 110.78742 83.410451 
L 116.14422 83.410451 
L 117.48342 85.954751 
L 129.53622 85.951806 
L 130.87542 83.506241 
L 142.92822 83.513096 
L 144.26742 93.30483 
L 149.62422 93.30483 
L 150.96342 106.980453 
L 156.32022 106.980453 
L 157.65942 126.708646 
L 163.01622 126.708646 
L 164.35542 121.246901 
L 169.71222 121.246901 
L 171.05142 112.898778 
L 176.40822 112.898778 
L 177.74742 101.772213 
L 183.10422 101.772213 
L 184.44342 88.277463 
L 209.88822 88.277463 
L 209.88822 88.277463 
" clip-path="url(#p92672559a6)" style="fill: none; stroke: #d9524f; stroke-width: 1.5; stroke-linecap: square"/>
   </g>
   <g id="line2d_36">
    <path d="M -1 92.955187 
L 29.09622 92.955187 
L 30.43542 94.675676 
L 35.79222 94.675676 
L 37.13142 93.309444 
L 42.48822 93.309444 
L 43.82742 91.654353 
L 49.18422 91.654353 
L 50.52342 90.300875 
L 62.57622 90.301905 
L 63.91542 88.721636 
L 69.27222 88.721636 
L 70.61142 90.308776 
L 75.96822 90.308776 
L 77.30742 84.320828 
L 82.66422 84.320828 
L 84.00342 82.889468 
L 89.36022 82.889468 
L 90.69942 84.224621 
L 96.05622 84.224621 
L 97.39542 84.342138 
L 109.44822 84.34246 
L 110.78742 87.357566 
L 116.14422 87.357566 
L 117.48342 90.280839 
L 129.53622 90.277877 
L 130.87542 87.468417 
L 142.92822 87.475308 
L 144.26742 98.727453 
L 149.62422 98.727453 
L 150.96342 114.454198 
L 156.32022 114.454198 
L 157.65942 137.16367 
L 163.01622 137.16367 
L 164.35542 130.875277 
L 169.71222 130.875277 
L 171.05142 121.26775 
L 176.40822 121.26775 
L 177.74742 108.468384 
L 183.10422 108.468384 
L 184.44342 92.955187 
L 209.88822 92.955187 
L 209.88822 92.955187 
" clip-path="url(#p92672559a6)" style="fill: none; stroke: #d9524f; stroke-width: 1.5; stroke-linecap: square"/>
   </g>
   <g id="line2d_37">
    <path d="M -1 97.631595 
L 29.09622 97.631595 
L 30.43542 99.575392 
L 35.79222 99.575392 
L 37.13142 98.031944 
L 42.48822 98.031944 
L 43.82742 96.162181 
L 49.18422 96.162181 
L 50.52342 94.633228 
L 62.57622 94.634264 
L 63.91542 92.84899 
L 69.27222 92.84899 
L 70.61142 94.641174 
L 75.96822 94.641174 
L 77.30742 87.876704 
L 82.66422 87.876704 
L 84.00342 86.259117 
L 89.36022 86.259117 
L 90.69942 87.765655 
L 96.05622 87.765655 
L 97.39542 87.898114 
L 109.44822 87.898438 
L 110.78742 91.303747 
L 116.14422 91.303747 
L 117.48342 94.605805 
L 129.53622 94.602825 
L 130.87542 91.429652 
L 142.92822 91.43658 
L 144.26742 104.148301 
L 149.62422 104.148301 
L 150.96342 121.924539 
L 156.32022 121.924539 
L 157.65942 147.611944 
L 163.01622 147.611944 
L 164.35542 140.497948 
L 169.71222 140.497948 
L 171.05142 129.632435 
L 176.40822 129.632435 
L 177.74742 115.161832 
L 183.10422 115.161832 
L 184.44342 97.631595 
L 209.88822 97.631595 
L 209.88822 97.631595 
" clip-path="url(#p92672559a6)" style="fill: none; stroke: #d9524f; stroke-width: 1.5; stroke-linecap: square"/>
   </g>
   <g id="line2d_38">
    <path d="M -1 88.984391 
L 29.09622 88.984391 
L 30.43542 90.509596 
L 35.79222 90.509596 
L 37.13142 89.298385 
L 42.48822 89.298385 
L 43.82742 87.830618 
L 49.18422 87.830618 
L 50.52342 86.629887 
L 62.57622 86.630911 
L 63.91542 85.228671 
L 69.27222 85.228671 
L 70.61142 86.637747 
L 75.96822 86.637747 
L 77.30742 81.321768 
L 82.66422 81.321768 
L 84.00342 80.05061 
L 89.36022 80.05061 
L 90.69942 81.23834 
L 109.44822 81.343309 
L 110.78742 84.021553 
L 116.14422 84.021553 
L 117.48342 86.61627 
L 129.53622 86.613323 
L 130.87542 84.119377 
L 142.92822 84.126236 
L 144.26742 94.10347 
L 149.62422 94.10347 
L 150.96342 107.998895 
L 156.32022 107.998895 
L 157.65942 127.953389 
L 163.01622 127.953389 
L 164.35542 122.440668 
L 169.71222 122.440668 
L 171.05142 113.997291 
L 176.40822 113.997291 
L 177.74742 102.713157 
L 183.10422 102.713157 
L 184.44342 88.984391 
L 209.88822 88.984391 
L 209.88822 88.984391 
" clip-path="url(#p92672559a6)" style="fill: none; stroke: #d9524f; stroke-width: 1.5; stroke-linecap: square"/>
   </g>
   <g id="line2d_39">
    <path d="M -1 92.765096 
L 29.09622 92.765096 
L 30.43542 94.470808 
L 35.79222 94.470808 
L 37.13142 93.116349 
L 42.48822 93.116349 
L 43.82742 91.475049 
L 49.18422 91.475049 
L 50.52342 90.132466 
L 62.57622 90.133495 
L 63.91542 88.565527 
L 69.27222 88.565527 
L 70.61142 90.140363 
L 75.96822 90.140363 
L 77.30742 84.196612 
L 82.66422 84.196612 
L 84.00342 82.774894 
L 89.36022 82.774894 
L 90.69942 84.101185 
L 96.05622 84.101185 
L 97.39542 84.217915 
L 109.44822 84.218236 
L 110.78742 87.211944 
L 116.14422 87.211944 
L 117.48342 90.112877 
L 129.53622 90.109916 
L 130.87542 87.321937 
L 142.92822 87.328825 
L 144.26742 98.485897 
L 149.62422 98.485897 
L 150.96342 114.037189 
L 156.32022 114.037189 
L 157.65942 136.394337 
L 163.01622 136.394337 
L 164.35542 130.21605 
L 169.71222 130.21605 
L 171.05142 120.757682 
L 176.40822 120.757682 
L 177.74742 108.123922 
L 183.10422 108.123922 
L 184.44342 92.765096 
L 209.88822 92.765096 
L 209.88822 92.765096 
" clip-path="url(#p92672559a6)" style="fill: none; stroke: #d9524f; stroke-width: 1.5; stroke-linecap: square"/>
   </g>
   <g id="line2d_40">
    <path d="M -1 94.706411 
L 29.09622 94.706411 
L 30.43542 96.504787 
L 35.79222 96.504787 
L 37.13142 95.07679 
L 42.48822 95.07679 
L 43.82742 93.346406 
L 49.18422 93.346406 
L 50.52342 91.931001 
L 62.57622 91.932033 
L 63.91542 90.278984 
L 69.27222 90.278984 
L 70.61142 91.938917 
L 75.96822 91.938917 
L 77.30742 85.672876 
L 82.66422 85.672876 
L 84.00342 84.173858 
L 89.36022 84.173858 
L 90.69942 85.571288 
L 96.05622 85.571288 
L 97.39542 85.69422 
L 109.44822 85.694542 
L 110.78742 88.850207 
L 116.14422 88.850207 
L 117.48342 91.908346 
L 129.53622 91.905378 
L 130.87542 88.966449 
L 142.92822 88.973352 
L 144.26742 100.736103 
L 149.62422 100.736103 
L 150.96342 117.137378 
L 156.32022 117.137378 
L 157.65942 140.7279 
L 163.01622 140.7279 
L 164.35542 134.207928 
L 169.71222 134.207928 
L 171.05142 124.22853 
L 176.40822 124.22853 
L 177.74742 110.901995 
L 183.10422 110.901995 
L 184.44342 94.706411 
L 209.88822 94.706411 
L 209.88822 94.706411 
" clip-path="url(#p92672559a6)" style="fill: none; stroke: #d9524f; stroke-width: 1.5; stroke-linecap: square"/>
   </g>
   <g id="line2d_41">
    <path d="M -1 62.619542 
L 29.09622 62.619542 
L 30.43542 62.258505 
L 35.79222 62.258505 
L 37.13142 61.881598 
L 42.48822 61.881598 
L 43.82742 61.521023 
L 49.18422 61.521023 
L 50.52342 61.176484 
L 55.88022 61.176484 
L 57.21942 61.910763 
L 62.57622 61.910763 
L 63.91542 63.329346 
L 69.27222 63.329346 
L 70.61142 66.574036 
L 75.96822 66.574036 
L 77.30742 71.213491 
L 82.66422 71.213491 
L 84.00342 76.168424 
L 89.36022 76.168424 
L 90.69942 79.514741 
L 96.05622 79.514741 
L 97.39542 80.400414 
L 102.75222 80.400414 
L 104.09142 78.880478 
L 109.44822 78.880478 
L 110.78742 79.554859 
L 122.84022 79.556572 
L 124.17942 77.823017 
L 129.53622 77.823017 
L 130.87542 75.427642 
L 136.23222 75.427642 
L 137.57142 74.520916 
L 142.92822 74.520916 
L 144.26742 72.493969 
L 149.62422 72.493969 
L 150.96342 69.662893 
L 156.32022 69.662893 
L 157.65942 65.736987 
L 163.01622 65.736987 
L 164.35542 64.158461 
L 169.71222 64.158461 
L 171.05142 63.379893 
L 176.40822 63.379893 
L 177.74742 62.9456 
L 183.10422 62.9456 
L 184.44342 62.619542 
L 209.88822 62.619542 
L 209.88822 62.619542 
" clip-path="url(#p92672559a6)" style="fill: none; stroke: #5cb85c; stroke-width: 1.5; stroke-linecap: square"/>
   </g>
   <g id="line2d_42">
    <path d="M -1 73.242002 
L 29.09622 73.242002 
L 30.43542 72.225091 
L 35.79222 72.225091 
L 37.13142 71.16691 
L 42.48822 71.16691 
L 43.82742 70.154177 
L 49.18422 70.154177 
L 50.52342 69.186349 
L 55.88022 69.186349 
L 57.21942 71.250493 
L 62.57622 71.250493 
L 63.91542 75.241603 
L 69.27222 75.241603 
L 70.61142 84.367633 
L 75.96822 84.367633 
L 77.30742 97.437871 
L 82.66422 97.437871 
L 84.00342 111.409129 
L 89.36022 111.409129 
L 90.69942 120.843201 
L 96.05622 120.843201 
L 97.39542 123.343228 
L 102.75222 123.343228 
L 104.09142 119.046015 
L 109.44822 119.046015 
L 110.78742 120.94672 
L 122.84022 120.948537 
L 124.17942 116.054505 
L 129.53622 116.054505 
L 130.87542 109.296343 
L 136.23222 109.296343 
L 137.57142 106.724414 
L 142.92822 106.724414 
L 144.26742 100.990105 
L 149.62422 100.990105 
L 150.96342 93.003679 
L 156.32022 93.003679 
L 157.65942 81.927806 
L 163.01622 81.927806 
L 164.35542 77.506839 
L 169.71222 77.506839 
L 171.05142 75.347514 
L 176.40822 75.347514 
L 177.74742 74.143606 
L 183.10422 74.143606 
L 184.44342 73.242002 
L 209.88822 73.242002 
L 209.88822 73.242002 
" clip-path="url(#p92672559a6)" style="fill: none; stroke: #5cb85c; stroke-width: 1.5; stroke-linecap: square"/>
   </g>
   <g id="line2d_43">
    <path d="M -1 61.365022 
L 29.09622 61.365022 
L 30.43542 61.207851 
L 35.79222 61.207851 
L 37.13142 61.031585 
L 42.48822 61.031585 
L 43.82742 61.205522 
L 49.18422 61.205522 
L 50.52342 61.362356 
L 55.88022 61.362356 
L 57.21942 61.661751 
L 62.57622 61.661751 
L 63.91542 61.996841 
L 69.27222 61.996841 
L 70.61142 63.779316 
L 75.96822 63.779316 
L 77.30742 66.447143 
L 82.66422 66.447143 
L 84.00342 69.298442 
L 89.36022 69.298442 
L 90.69942 74.987498 
L 96.05622 74.987498 
L 97.39542 75.952116 
L 102.75222 75.952116 
L 104.09142 77.026775 
L 109.44822 77.026775 
L 110.78742 77.541002 
L 122.84022 77.522209 
L 124.17942 76.479776 
L 129.53622 76.479776 
L 130.87542 76.030698 
L 136.23222 76.030698 
L 137.57142 81.247686 
L 142.92822 81.247686 
L 144.26742 83.26884 
L 149.62422 83.26884 
L 150.96342 79.123383 
L 156.32022 79.123383 
L 157.65942 77.109029 
L 163.01622 77.109029 
L 164.35542 71.183204 
L 169.71222 71.183204 
L 171.05142 62.830783 
L 176.40822 62.830783 
L 177.74742 61.093769 
L 183.10422 61.093769 
L 184.44342 61.365022 
L 209.88822 61.365022 
L 209.88822 61.365022 
" clip-path="url(#p92672559a6)" style="fill: none; stroke: #337ab7; stroke-width: 1.5; stroke-linecap: square"/>
   </g>
   <g id="line2d_44">
    <path d="M -1 64.123499 
L 29.09622 64.123499 
L 30.43542 63.871706 
L 35.79222 63.871706 
L 37.13142 63.590466 
L 42.48822 63.590466 
L 43.82742 63.869368 
L 49.18422 63.869368 
L 50.52342 64.120823 
L 55.88022 64.120823 
L 57.21942 64.599351 
L 62.57622 64.599351 
L 63.91542 65.135263 
L 69.27222 65.135263 
L 70.61142 67.985701 
L 75.96822 67.985701 
L 77.30742 72.258572 
L 82.66422 72.258572 
L 84.00342 76.828345 
L 89.36022 76.828345 
L 90.69942 85.961994 
L 96.05622 85.961994 
L 97.39542 87.512309 
L 102.75222 87.512309 
L 104.09142 89.241285 
L 109.44822 89.241285 
L 110.78742 90.067078 
L 122.84022 90.035821 
L 124.17942 88.35997 
L 129.53622 88.35997 
L 130.87542 87.639954 
L 136.23222 87.639954 
L 137.57142 96.035425 
L 142.92822 96.035425 
L 144.26742 99.287762 
L 149.62422 99.287762 
L 150.96342 92.608404 
L 156.32022 92.608404 
L 157.65942 89.361213 
L 163.01622 89.361213 
L 164.35542 79.841784 
L 169.71222 79.841784 
L 171.05142 66.458232 
L 176.40822 66.458232 
L 177.74742 63.684155 
L 183.10422 63.684155 
L 184.44342 64.123499 
L 209.88822 64.123499 
L 209.88822 64.123499 
" clip-path="url(#p92672559a6)" style="fill: none; stroke: #337ab7; stroke-width: 1.5; stroke-linecap: square"/>
   </g>
   <g id="line2d_45">
    <path d="M -1 66.881943 
L 29.09622 66.881943 
L 30.43542 66.53553 
L 35.79222 66.53553 
L 37.13142 66.149318 
L 42.48822 66.149318 
L 43.82742 66.533184 
L 49.18422 66.533184 
L 50.52342 66.879258 
L 55.88022 66.879258 
L 57.21942 67.536914 
L 62.57622 67.536914 
L 63.91542 68.273643 
L 69.27222 68.273643 
L 70.61142 72.192006 
L 75.96822 72.192006 
L 77.30742 78.069845 
L 82.66422 78.069845 
L 84.00342 84.357981 
L 89.36022 84.357981 
L 90.69942 96.93588 
L 96.05622 96.93588 
L 97.39542 99.071818 
L 102.75222 99.071818 
L 104.09142 101.45502 
L 109.44822 101.45502 
L 110.78742 102.592335 
L 122.84022 102.548616 
L 124.17942 100.239437 
L 129.53622 100.239437 
L 130.87542 99.248518 
L 136.23222 99.248518 
L 137.57142 110.821967 
L 142.92822 110.821967 
L 144.26742 115.305243 
L 149.62422 115.305243 
L 150.96342 106.092458 
L 156.32022 106.092458 
L 157.65942 101.612618 
L 163.01622 101.612618 
L 164.35542 88.500002 
L 169.71222 88.500002 
L 171.05142 70.085623 
L 176.40822 70.085623 
L 177.74742 66.274513 
L 183.10422 66.274513 
L 184.44342 66.881943 
L 209.88822 66.881943 
L 209.88822 66.881943 
" clip-path="url(#p92672559a6)" style="fill: none; stroke: #337ab7; stroke-width: 1.5; stroke-linecap: square"/>
   </g>
   <g id="line2d_46">
    <path d="M -1 68.171037 
L 29.09622 68.171037 
L 30.43542 67.780389 
L 35.79222 67.780389 
L 37.13142 67.345106 
L 42.48822 67.345106 
L 43.82742 67.77804 
L 49.18422 67.77804 
L 50.52342 68.168347 
L 55.88022 68.168347 
L 57.21942 68.909748 
L 62.57622 68.909748 
L 63.91542 69.740367 
L 69.27222 69.740367 
L 70.61142 74.15812 
L 75.96822 74.15812 
L 77.30742 80.786787 
L 82.66422 80.786787 
L 84.00342 87.879234 
L 89.36022 87.879234 
L 90.69942 102.070788 
L 96.05622 102.070788 
L 97.39542 104.481314 
L 102.75222 104.481314 
L 104.09142 107.171355 
L 109.44822 107.171355 
L 110.78742 108.454807 
L 122.84022 108.405242 
L 124.17942 105.798986 
L 129.53622 105.798986 
L 130.87542 104.681019 
L 136.23222 104.681019 
L 137.57142 117.745871 
L 142.92822 117.745871 
L 144.26742 122.807451 
L 149.62422 122.807451 
L 150.96342 112.404842 
L 156.32022 112.404842 
L 157.65942 107.346623 
L 163.01622 107.346623 
L 164.35542 92.549771 
L 169.71222 92.549771 
L 171.05142 71.781002 
L 176.40822 71.781002 
L 177.74742 67.485028 
L 183.10422 67.485028 
L 184.44342 68.171037 
L 209.88822 68.171037 
L 209.88822 68.171037 
" clip-path="url(#p92672559a6)" style="fill: none; stroke: #337ab7; stroke-width: 1.5; stroke-linecap: square"/>
   </g>
   <g id="line2d_47">
    <path d="M -1 69.460124 
L 29.09622 69.460124 
L 30.43542 69.025242 
L 35.79222 69.025242 
L 37.13142 68.540887 
L 42.48822 68.540887 
L 43.82742 69.022889 
L 49.18422 69.022889 
L 50.52342 69.457429 
L 55.88022 69.457429 
L 57.21942 70.282574 
L 62.57622 70.282574 
L 63.91542 71.207082 
L 69.27222 71.207082 
L 70.61142 76.124216 
L 75.96822 76.124216 
L 77.30742 83.503696 
L 82.66422 83.503696 
L 84.00342 91.400428 
L 89.36022 91.400428 
L 90.69942 107.205562 
L 96.05622 107.205562 
L 97.39542 109.89066 
L 102.75222 109.89066 
L 104.09142 112.887519 
L 109.44822 112.887519 
L 110.78742 114.317099 
L 122.84022 114.261687 
L 124.17942 111.358375 
L 129.53622 111.358375 
L 130.87542 110.113368 
L 136.23222 110.113368 
L 137.57142 124.669512 
L 142.92822 124.669512 
L 144.26742 130.309342 
L 149.62422 130.309342 
L 150.96342 118.717012 
L 156.32022 118.717012 
L 157.65942 113.080457 
L 163.01622 113.080457 
L 164.35542 96.59946 
L 169.71222 96.59946 
L 171.05142 73.476368 
L 176.40822 73.476368 
L 177.74742 68.695536 
L 183.10422 68.695536 
L 184.44342 69.460124 
L 209.88822 69.460124 
L 209.88822 69.460124 
" clip-path="url(#p92672559a6)" style="fill: none; stroke: #337ab7; stroke-width: 1.5; stroke-linecap: square"/>
   </g>
   <g id="line2d_48">
    <path d="M -1 70.001949 
L 29.09622 70.001949 
L 30.43542 69.548506 
L 35.79222 69.548506 
L 37.13142 69.043556 
L 42.48822 69.043556 
L 43.82742 69.546151 
L 49.18422 69.546151 
L 50.52342 69.999253 
L 55.88022 69.999253 
L 57.21942 70.859533 
L 62.57622 70.859533 
L 63.91542 71.823421 
L 69.27222 71.823421 
L 70.61142 76.949846 
L 75.96822 76.949846 
L 77.30742 84.64342 
L 82.66422 84.64342 
L 84.00342 92.875819 
L 89.36022 92.875819 
L 90.69942 109.351678 
L 96.05622 109.351678 
L 97.39542 112.150524 
L 102.75222 112.150524 
L 104.09142 115.274349 
L 109.44822 115.274349 
L 110.78742 116.764345 
L 122.84022 116.706518 
L 124.17942 113.680348 
L 129.53622 113.680348 
L 130.87542 112.382757 
L 136.23222 112.382757 
L 137.57142 127.554499 
L 142.92822 127.554499 
L 144.26742 133.431982 
L 149.62422 133.431982 
L 150.96342 121.350041 
L 156.32022 121.350041 
L 157.65942 115.474594 
L 163.01622 115.474594 
L 164.35542 98.294944 
L 169.71222 98.294944 
L 171.05142 74.188571 
L 176.40822 74.188571 
L 177.74742 69.204387 
L 183.10422 69.204387 
L 184.44342 70.001949 
L 209.88822 70.001949 
L 209.88822 70.001949 
" clip-path="url(#p92672559a6)" style="fill: none; stroke: #337ab7; stroke-width: 1.5; stroke-linecap: square"/>
   </g>
   <g id="line2d_49">
    <path d="M -1 70.543773 
L 29.09622 70.543773 
L 30.43542 70.071768 
L 35.79222 70.071768 
L 37.13142 69.546225 
L 42.48822 69.546225 
L 43.82742 70.069412 
L 49.18422 70.069412 
L 50.52342 70.541075 
L 55.88022 70.541075 
L 57.21942 71.436489 
L 62.57622 71.436489 
L 63.91542 72.439759 
L 69.27222 72.439759 
L 70.61142 77.775472 
L 75.96822 77.775472 
L 77.30742 85.783139 
L 82.66422 85.783139 
L 84.00342 94.351201 
L 89.36022 94.351201 
L 90.69942 111.497773 
L 96.05622 111.497773 
L 97.39542 114.410364 
L 102.75222 114.410364 
L 104.09142 117.661153 
L 109.44822 117.661153 
L 110.78742 119.211564 
L 122.84022 119.15132 
L 124.17942 116.002295 
L 129.53622 116.002295 
L 130.87542 114.652121 
L 136.23222 114.652121 
L 137.57142 130.439446 
L 142.92822 130.439446 
L 144.26742 136.554575 
L 149.62422 136.554575 
L 150.96342 123.983036 
L 156.32022 123.983036 
L 157.65942 117.868704 
L 163.01622 117.868704 
L 164.35542 99.990415 
L 169.71222 99.990415 
L 171.05142 74.900773 
L 176.40822 74.900773 
L 177.74742 69.713236 
L 183.10422 69.713236 
L 184.44342 70.543773 
L 209.88822 70.543773 
L 209.88822 70.543773 
" clip-path="url(#p92672559a6)" style="fill: none; stroke: #337ab7; stroke-width: 1.5; stroke-linecap: square"/>
   </g>
   <g id="line2d_50">
    <path d="M -1 71.085648 
L 29.09622 71.085648 
L 30.43542 70.59508 
L 35.79222 70.59508 
L 37.13142 70.04894 
L 42.48822 70.04894 
L 43.82742 70.592722 
L 49.18422 70.592722 
L 50.52342 71.082948 
L 55.88022 71.082948 
L 57.21942 72.0135 
L 62.57622 72.0135 
L 63.91542 73.056154 
L 69.27222 73.056154 
L 70.61142 78.601175 
L 75.96822 78.601175 
L 77.30742 86.922962 
L 82.66422 86.922962 
L 84.00342 95.826716 
L 89.36022 95.826716 
L 90.69942 113.644058 
L 96.05622 113.644058 
L 97.39542 116.670404 
L 102.75222 116.670404 
L 104.09142 120.048166 
L 109.44822 120.048166 
L 110.78742 121.658997 
L 122.84022 121.596336 
L 124.17942 118.324448 
L 129.53622 118.324448 
L 130.87542 116.921686 
L 136.23222 116.921686 
L 137.57142 133.324642 
L 142.92822 133.324642 
L 144.26742 139.677435 
L 149.62422 139.677435 
L 150.96342 126.616261 
L 156.32022 126.616261 
L 157.65942 120.263024 
L 163.01622 120.263024 
L 164.35542 101.686039 
L 169.71222 101.686039 
L 171.05142 75.61304 
L 176.40822 75.61304 
L 177.74742 70.222133 
L 183.10422 70.222133 
L 184.44342 71.085648 
L 209.88822 71.085648 
L 209.88822 71.085648 
" clip-path="url(#p92672559a6)" style="fill: none; stroke: #337ab7; stroke-width: 1.5; stroke-linecap: square"/>
   </g>
   <g id="line2d_51">
    <path d="M -1 71.266149 
L 29.09622 71.266149 
L 30.43542 70.769399 
L 35.79222 70.769399 
L 37.13142 70.216401 
L 42.48822 70.216401 
L 43.82742 70.767041 
L 49.18422 70.767041 
L 50.52342 71.263448 
L 55.88022 71.263448 
L 57.21942 72.2057 
L 62.57622 72.2057 
L 63.91542 73.261468 
L 69.27222 73.261468 
L 70.61142 78.876168 
L 75.96822 78.876168 
L 77.30742 87.302485 
L 82.66422 87.302485 
L 84.00342 96.317895 
L 89.36022 96.317895 
L 90.69942 114.358165 
L 96.05622 114.358165 
L 97.39542 117.422292 
L 102.75222 117.422292 
L 104.09142 120.842216 
L 109.44822 120.842216 
L 110.78742 122.473107 
L 122.84022 122.409644 
L 124.17942 119.096961 
L 129.53622 119.096961 
L 130.87542 117.676736 
L 136.23222 117.676736 
L 137.57142 134.284023 
L 142.92822 134.284023 
L 144.26742 140.715634 
L 149.62422 140.715634 
L 150.96342 127.49204 
L 156.32022 127.49204 
L 157.65942 121.0595 
L 163.01622 121.0595 
L 164.35542 102.250397 
L 169.71222 102.250397 
L 171.05142 75.850272 
L 176.40822 75.850272 
L 177.74742 70.391653 
L 183.10422 70.391653 
L 184.44342 71.266149 
L 209.88822 71.266149 
L 209.88822 71.266149 
" clip-path="url(#p92672559a6)" style="fill: none; stroke: #337ab7; stroke-width: 1.5; stroke-linecap: square"/>
   </g>
   <g id="line2d_52">
    <path d="M -1 70.206964 
L 29.09622 70.206964 
L 30.43542 69.746489 
L 35.79222 69.746489 
L 37.13142 69.233738 
L 42.48822 69.233738 
L 43.82742 69.744134 
L 49.18422 69.744134 
L 50.52342 70.204267 
L 55.88022 70.204267 
L 57.21942 71.07786 
L 62.57622 71.07786 
L 63.91542 72.056672 
L 69.27222 72.056672 
L 70.61142 77.262448 
L 75.96822 77.262448 
L 77.30742 85.075214 
L 82.66422 85.075214 
L 84.00342 93.435085 
L 89.36022 93.435085 
L 90.69942 110.165697 
L 96.05622 110.165697 
L 97.39542 113.007717 
L 102.75222 113.007717 
L 104.09142 116.179711 
L 109.44822 116.179711 
L 110.78742 117.692619 
L 122.84022 117.633875 
L 124.17942 114.561107 
L 129.53622 114.561107 
L 130.87542 113.243564 
L 136.23222 113.243564 
L 137.57142 128.648519 
L 142.92822 128.648519 
L 144.26742 134.615728 
L 149.62422 134.615728 
L 150.96342 122.34872 
L 156.32022 122.34872 
L 157.65942 116.382726 
L 163.01622 116.382726 
L 164.35542 98.937817 
L 169.71222 98.937817 
L 171.05142 74.458161 
L 176.40822 74.458161 
L 177.74742 69.39691 
L 183.10422 69.39691 
L 184.44342 70.206964 
L 209.88822 70.206964 
L 209.88822 70.206964 
" clip-path="url(#p92672559a6)" style="fill: none; stroke: #337ab7; stroke-width: 1.5; stroke-linecap: square"/>
   </g>
   <g id="line2d_53">
    <path d="M -1 72.254621 
L 29.09622 72.254621 
L 30.43542 71.72385 
L 35.79222 71.72385 
L 37.13142 71.133119 
L 42.48822 71.133119 
L 43.82742 71.721489 
L 49.18422 71.721489 
L 50.52342 72.251916 
L 55.88022 72.251916 
L 57.21942 73.258597 
L 62.57622 73.258597 
L 63.91542 74.38663 
L 69.27222 74.38663 
L 70.61142 80.38626 
L 75.96822 80.38626 
L 77.30742 89.393111 
L 82.66422 89.393111 
L 84.00342 99.032829 
L 89.36022 99.032829 
L 90.69942 118.333338 
L 96.05622 118.333338 
L 97.39542 121.612952 
L 102.75222 121.612952 
L 104.09142 125.274032 
L 109.44822 125.274032 
L 110.78742 127.019912 
L 122.84022 126.951847 
L 124.17942 123.405506 
L 129.53622 123.405506 
L 130.87542 121.885464 
L 136.23222 121.885464 
L 137.57142 139.668617 
L 142.92822 139.668617 
L 144.26742 146.558603 
L 149.62422 146.558603 
L 150.96342 132.393403 
L 156.32022 132.393403 
L 157.65942 125.505216 
L 163.01622 125.505216 
L 164.35542 105.376952 
L 169.71222 105.376952 
L 171.05142 77.151565 
L 176.40822 77.151565 
L 177.74742 71.319694 
L 183.10422 71.319694 
L 184.44342 72.254621 
L 209.88822 72.254621 
L 209.88822 72.254621 
" clip-path="url(#p92672559a6)" style="fill: none; stroke: #337ab7; stroke-width: 1.5; stroke-linecap: square"/>
   </g>
   <g id="line2d_54">
    <path d="M -1 73.752523 
L 29.09622 73.752523 
L 30.43542 73.170336 
L 35.79222 73.170336 
L 37.13142 72.522567 
L 42.48822 72.522567 
L 43.82742 73.16797 
L 49.18422 73.16797 
L 50.52342 73.749814 
L 55.88022 73.749814 
L 57.21942 74.85384 
L 62.57622 74.85384 
L 63.91542 76.091016 
L 69.27222 76.091016 
L 70.61142 82.67126 
L 75.96822 82.67126 
L 77.30742 92.551352 
L 82.66422 92.551352 
L 84.00342 103.126904 
L 89.36022 103.126904 
L 90.69942 124.306131 
L 96.05622 124.306131 
L 97.39542 127.905593 
L 102.75222 127.905593 
L 104.09142 131.92414 
L 109.44822 131.92414 
L 110.78742 133.840288 
L 122.84022 133.765411 
L 124.17942 129.872951 
L 129.53622 129.872951 
L 130.87542 128.204904 
L 136.23222 128.204904 
L 137.57142 147.726053 
L 142.92822 147.726053 
L 144.26742 155.290283 
L 149.62422 155.290283 
L 150.96342 139.73806 
L 156.32022 139.73806 
L 157.65942 132.17591 
L 163.01622 132.17591 
L 164.35542 110.086184 
L 169.71222 110.086184 
L 171.05142 79.121776 
L 176.40822 79.121776 
L 177.74742 72.72626 
L 183.10422 72.72626 
L 184.44342 73.752523 
L 209.88822 73.752523 
L 209.88822 73.752523 
" clip-path="url(#p92672559a6)" style="fill: none; stroke: #337ab7; stroke-width: 1.5; stroke-linecap: square"/>
   </g>
   <g id="line2d_55">
    <path d="M -1 73.752523 
L 29.09622 73.752523 
L 30.43542 73.170336 
L 35.79222 73.170336 
L 37.13142 72.522567 
L 42.48822 72.522567 
L 43.82742 73.16797 
L 49.18422 73.16797 
L 50.52342 73.749814 
L 55.88022 73.749814 
L 57.21942 74.85384 
L 62.57622 74.85384 
L 63.91542 76.091016 
L 69.27222 76.091016 
L 70.61142 82.67126 
L 75.96822 82.67126 
L 77.30742 92.551352 
L 82.66422 92.551352 
L 84.00342 103.126904 
L 89.36022 103.126904 
L 90.69942 124.306131 
L 96.05622 124.306131 
L 97.39542 127.905593 
L 102.75222 127.905593 
L 104.09142 131.92414 
L 109.44822 131.92414 
L 110.78742 133.840288 
L 122.84022 133.765411 
L 124.17942 129.872951 
L 129.53622 129.872951 
L 130.87542 128.204904 
L 136.23222 128.204904 
L 137.57142 147.726053 
L 142.92822 147.726053 
L 144.26742 155.290283 
L 149.62422 155.290283 
L 150.96342 139.73806 
L 156.32022 139.73806 
L 157.65942 132.17591 
L 163.01622 132.17591 
L 164.35542 110.086184 
L 169.71222 110.086184 
L 171.05142 79.121776 
L 176.40822 79.121776 
L 177.74742 72.72626 
L 183.10422 72.72626 
L 184.44342 73.752523 
L 209.88822 73.752523 
L 209.88822 73.752523 
" clip-path="url(#p92672559a6)" style="fill: none; stroke: #337ab7; stroke-width: 1.5; stroke-linecap: square"/>
   </g>
   <g id="line2d_56">
    <path d="M -1 72.075192 
L 29.09622 72.075192 
L 30.43542 71.55073 
L 35.79222 71.55073 
L 37.13142 70.966984 
L 42.48822 70.966984 
L 43.82742 71.548369 
L 49.18422 71.548369 
L 50.52342 72.072489 
L 55.88022 72.072489 
L 57.21942 73.067198 
L 62.57622 73.067198 
L 63.91542 74.18176 
L 69.27222 74.18176 
L 70.61142 80.108897 
L 75.96822 80.108897 
L 77.30742 89.003998 
L 82.66422 89.003998 
L 84.00342 98.520184 
L 89.36022 98.520184 
L 90.69942 117.560142 
L 96.05622 117.560142 
L 97.39542 120.793636 
L 102.75222 120.793636 
L 104.09142 124.402537 
L 109.44822 124.402537 
L 110.78742 126.123322 
L 122.84022 126.056264 
L 124.17942 122.560758 
L 129.53622 122.560758 
L 130.87542 121.062259 
L 136.23222 121.062259 
L 137.57142 138.584923 
L 142.92822 138.584923 
L 144.26742 145.369239 
L 149.62422 145.369239 
L 150.96342 131.418557 
L 156.32022 131.418557 
L 157.65942 124.630692 
L 163.01622 124.630692 
L 164.35542 104.780886 
L 169.71222 104.780886 
L 171.05142 76.913681 
L 176.40822 76.913681 
L 177.74742 71.151464 
L 183.10422 71.151464 
L 184.44342 72.075192 
L 209.88822 72.075192 
L 209.88822 72.075192 
" clip-path="url(#p92672559a6)" style="fill: none; stroke: #337ab7; stroke-width: 1.5; stroke-linecap: square"/>
   </g>
   <g id="line2d_57">
    <path d="M -1 71.934761 
L 29.09622 71.934761 
L 30.43542 71.414826 
L 35.79222 71.414826 
L 37.13142 70.836128 
L 42.48822 70.836128 
L 43.82742 71.412466 
L 49.18422 71.412466 
L 50.52342 71.932058 
L 55.88022 71.932058 
L 57.21942 72.918254 
L 62.57622 72.918254 
L 63.91542 74.023366 
L 69.27222 74.023366 
L 70.61142 79.901896 
L 75.96822 79.901896 
L 77.30742 88.729388 
L 82.66422 88.729388 
L 84.00342 98.180864 
L 89.36022 98.180864 
L 90.69942 117.117362 
L 96.05622 117.117362 
L 97.39542 120.337043 
L 102.75222 120.337043 
L 104.09142 123.931904 
L 109.44822 123.931904 
L 110.78742 125.646533 
L 122.84022 125.579715 
L 124.17942 122.097113 
L 129.53622 122.097113 
L 130.87542 120.604562 
L 136.23222 120.604562 
L 137.57142 138.074181 
L 142.92822 138.074181 
L 144.26742 144.848457 
L 149.62422 144.848457 
L 150.96342 130.925023 
L 156.32022 130.925023 
L 157.65942 124.159303 
L 163.01622 124.159303 
L 164.35542 104.403656 
L 169.71222 104.403656 
L 171.05142 76.73268 
L 176.40822 76.73268 
L 177.74742 71.01909 
L 183.10422 71.01909 
L 184.44342 71.934761 
L 209.88822 71.934761 
L 209.88822 71.934761 
" clip-path="url(#p92672559a6)" style="fill: none; stroke: #337ab7; stroke-width: 1.5; stroke-linecap: square"/>
   </g>
   <g id="line2d_58">
    <path d="M -1 73.21693 
L 29.09622 73.21693 
L 30.43542 72.652896 
L 35.79222 72.652896 
L 37.13142 72.025284 
L 42.48822 72.025284 
L 43.82742 72.650532 
L 49.18422 72.650532 
L 50.52342 73.214222 
L 55.88022 73.214222 
L 57.21942 74.283928 
L 62.57622 74.283928 
L 63.91542 75.482696 
L 69.27222 75.482696 
L 70.61142 81.85996 
L 75.96822 81.85996 
L 77.30742 91.439193 
L 82.66422 91.439193 
L 84.00342 101.698616 
L 89.36022 101.698616 
L 90.69942 122.265061 
L 96.05622 122.265061 
L 97.39542 125.763386 
L 102.75222 125.763386 
L 104.09142 129.670083 
L 109.44822 129.670083 
L 110.78742 131.533408 
L 122.84022 131.46064 
L 124.17942 127.67589 
L 129.53622 127.67589 
L 130.87542 126.054266 
L 136.23222 126.054266 
L 137.57142 145.044654 
L 142.92822 145.044654 
L 144.26742 152.412108 
L 149.62422 152.412108 
L 150.96342 137.270424 
L 156.32022 137.270424 
L 157.65942 129.915457 
L 163.01622 129.915457 
L 164.35542 108.453894 
L 169.71222 108.453894 
L 171.05142 78.420243 
L 176.40822 78.420243 
L 177.74742 72.222926 
L 183.10422 72.222926 
L 184.44342 73.21693 
L 209.88822 73.21693 
L 209.88822 73.21693 
" clip-path="url(#p92672559a6)" style="fill: none; stroke: #337ab7; stroke-width: 1.5; stroke-linecap: square"/>
   </g>
   <g id="line2d_59">
    <path d="M -1 75.092857 
L 29.09622 75.092857 
L 30.43542 74.464308 
L 35.79222 74.464308 
L 37.13142 73.765139 
L 42.48822 73.765139 
L 43.82742 74.461938 
L 49.18422 74.461938 
L 50.52342 75.090142 
L 55.88022 75.090142 
L 57.21942 76.282016 
L 62.57622 76.282016 
L 63.91542 77.617797 
L 69.27222 77.617797 
L 70.61142 84.724628 
L 75.96822 84.724628 
L 77.30742 95.403426 
L 82.66422 95.403426 
L 84.00342 106.844476 
L 89.36022 106.844476 
L 90.69942 129.794242 
L 96.05622 129.794242 
L 97.39542 133.699937 
L 102.75222 133.699937 
L 104.09142 138.062512 
L 109.44822 138.062512 
L 110.78742 140.143207 
L 122.84022 140.06174 
L 124.17942 135.83529 
L 129.53622 135.83529 
L 130.87542 134.024972 
L 136.23222 134.024972 
L 137.57142 155.238347 
L 142.92822 155.238347 
L 144.26742 163.472727 
L 149.62422 163.472727 
L 150.96342 146.550484 
L 156.32022 146.550484 
L 157.65942 138.334162 
L 163.01622 138.334162 
L 164.35542 114.378428 
L 169.71222 114.378428 
L 171.05142 80.889219 
L 176.40822 80.889219 
L 177.74742 73.984255 
L 183.10422 73.984255 
L 184.44342 75.092857 
L 209.88822 75.092857 
L 209.88822 75.092857 
" clip-path="url(#p92672559a6)" style="fill: none; stroke: #337ab7; stroke-width: 1.5; stroke-linecap: square"/>
   </g>
   <g id="line2d_60">
    <path d="M -1 72.343468 
L 29.09622 72.343468 
L 30.43542 71.809529 
L 35.79222 71.809529 
L 37.13142 71.215294 
L 42.48822 71.215294 
L 43.82742 71.807168 
L 49.18422 71.807168 
L 50.52342 72.340763 
L 55.88022 72.340763 
L 57.21942 73.353467 
L 62.57622 73.353467 
L 63.91542 74.488291 
L 69.27222 74.488291 
L 70.61142 80.524742 
L 75.96822 80.524742 
L 77.30742 89.589286 
L 82.66422 89.589286 
L 84.00342 99.294175 
L 89.36022 99.294175 
L 90.69942 118.737342 
L 96.05622 118.737342 
L 97.39542 122.042997 
L 102.75222 122.042997 
L 104.09142 125.733841 
L 109.44822 125.733841 
L 110.78742 127.494151 
L 122.84022 127.425506 
L 124.17942 123.850018 
L 129.53622 123.850018 
L 130.87542 122.317716 
L 136.23222 122.317716 
L 137.57142 140.252927 
L 142.92822 140.252927 
L 144.26742 147.207103 
L 149.62422 147.207103 
L 150.96342 132.913141 
L 156.32022 132.913141 
L 157.65942 125.966764 
L 163.01622 125.966764 
L 164.35542 105.683178 
L 169.71222 105.683178 
L 171.05142 77.269937 
L 176.40822 77.269937 
L 177.74742 71.402919 
L 183.10422 71.402919 
L 184.44342 72.343468 
L 209.88822 72.343468 
L 209.88822 72.343468 
" clip-path="url(#p92672559a6)" style="fill: none; stroke: #337ab7; stroke-width: 1.5; stroke-linecap: square"/>
   </g>
   <g id="line2d_61">
    <path d="M -1 72.281796 
L 29.09622 72.281796 
L 30.43542 71.750242 
L 35.79222 71.750242 
L 37.13142 71.158629 
L 42.48822 71.158629 
L 43.82742 71.747881 
L 49.18422 71.747881 
L 50.52342 72.279092 
L 55.88022 72.279092 
L 57.21942 73.287226 
L 62.57622 73.287226 
L 63.91542 74.416843 
L 69.27222 74.416843 
L 70.61142 80.424071 
L 75.96822 80.424071 
L 77.30742 89.439677 
L 82.66422 89.439677 
L 84.00342 99.085123 
L 89.36022 99.085123 
L 90.69942 118.385233 
L 96.05622 118.385233 
L 97.39542 121.663143 
L 102.75222 121.663143 
L 104.09142 125.32174 
L 109.44822 125.32174 
L 110.78742 127.066219 
L 122.84022 126.998213 
L 124.17942 123.454559 
L 129.53622 123.454559 
L 130.87542 121.93549 
L 136.23222 121.93549 
L 137.57142 139.700477 
L 142.92822 139.700477 
L 144.26742 146.579353 
L 149.62422 146.579353 
L 150.96342 132.434511 
L 156.32022 132.434511 
L 157.65942 125.55276 
L 163.01622 125.55276 
L 164.35542 105.430893 
L 169.71222 105.430893 
L 171.05142 77.18543 
L 176.40822 77.18543 
L 177.74742 71.34547 
L 183.10422 71.34547 
L 184.44342 72.281796 
L 209.88822 72.281796 
L 209.88822 72.281796 
" clip-path="url(#p92672559a6)" style="fill: none; stroke: #337ab7; stroke-width: 1.5; stroke-linecap: square"/>
   </g>
   <g id="line2d_62">
    <path d="M -1 71.863847 
L 29.09622 71.863847 
L 30.43542 71.34663 
L 35.79222 71.34663 
L 37.13142 70.770921 
L 42.48822 70.770921 
L 43.82742 71.34427 
L 49.18422 71.34427 
L 50.52342 71.861145 
L 55.88022 71.861145 
L 57.21942 72.842139 
L 62.57622 72.842139 
L 63.91542 73.94133 
L 69.27222 73.94133 
L 70.61142 79.786758 
L 75.96822 79.786758 
L 77.30742 88.559212 
L 82.66422 88.559212 
L 84.00342 97.944349 
L 89.36022 97.944349 
L 90.69942 116.722808 
L 96.05622 116.722808 
L 97.39542 119.912041 
L 102.75222 119.912041 
L 104.09142 123.47158 
L 109.44822 123.47158 
L 110.78742 125.168895 
L 122.84022 125.102775 
L 124.17942 121.65501 
L 129.53622 121.65501 
L 130.87542 120.17696 
L 136.23222 120.17696 
L 137.57142 137.46086 
L 142.92822 137.46086 
L 144.26742 144.153468 
L 149.62422 144.153468 
L 150.96342 130.392038 
L 156.32022 130.392038 
L 157.65942 123.696897 
L 163.01622 123.696897 
L 164.35542 104.119171 
L 169.71222 104.119171 
L 171.05142 76.635827 
L 176.40822 76.635827 
L 177.74742 70.952989 
L 183.10422 70.952989 
L 184.44342 71.863847 
L 209.88822 71.863847 
L 209.88822 71.863847 
" clip-path="url(#p92672559a6)" style="fill: none; stroke: #337ab7; stroke-width: 1.5; stroke-linecap: square"/>
   </g>
   <g id="line2d_63">
    <path d="M -1 48.927273 
L 209.88822 48.927273 
" clip-path="url(#p92672559a6)" style="fill: none; stroke-dasharray: 1.5,2.475; stroke-dashoffset: 0; stroke: #d9524f; stroke-width: 1.5"/>
   </g>
   <g id="line2d_64">
    <path d="M -1 124.869078 
L 209.88822 124.869078 
" clip-path="url(#p92672559a6)" style="fill: none; stroke-dasharray: 1.5,2.475; stroke-dashoffset: 0; stroke: #5cb85c; stroke-width: 1.5"/>
   </g>
   <g id="patch_3">
    <path d="M 27 169.2 
L 27 43.2 
" style="fill: none; stroke: #000000; stroke-width: 0.8; stroke-linejoin: miter; stroke-linecap: square"/>
   </g>
   <g id="patch_4">
    <path d="M 194.4 169.2 
L 194.4 43.2 
" style="fill: none; stroke: #000000; stroke-width: 0.8; stroke-linejoin: miter; stroke-linecap: square"/>
   </g>
   <g id="patch_5">
    <path d="M 27 169.2 
L 194.4 169.2 
" style="fill: none; stroke: #000000; stroke-width: 0.8; stroke-linejoin: miter; stroke-linecap: square"/>
   </g>
   <g id="patch_6">
    <path d="M 27 43.2 
L 194.4 43.2 
" style="fill: none; stroke: #000000; stroke-width: 0.8; stroke-linejoin: miter; stroke-linecap: square"/>
   </g>
  </g>
  <g id="axes_2">
   <g id="patch_7">
    <path d="M 27 320.4 
L 194.4 320.4 
L 194.4 194.4 
L 27 194.4 
z
" style="fill: #ffffff"/>
   </g>
   <g id="matplotlib.axis_3">
    <g id="xtick_8">
     <g id="line2d_65">
      <path d="M 27 320.4 
L 27 194.4 
" clip-path="url(#pd904dc4b09)" style="fill: none; stroke: #b0b0b0; stroke-width: 0.8; stroke-linecap: square"/>
     </g>
     <g id="line2d_66">
      <g>
       <use xlink:href="#mdf3d87656b" x="27" y="320.4" style="stroke: #000000; stroke-width: 0.8"/>
      </g>
     </g>
     <g id="text_13">
      <!-- 0 -->
      <g transform="translate(24.5 334.34375) scale(0.1 -0.1)">
       <use xlink:href="#TimesNewRomanPSMT-30"/>
      </g>
     </g>
    </g>
    <g id="xtick_9">
     <g id="line2d_67">
      <path d="M 54.9 320.4 
L 54.9 194.4 
" clip-path="url(#pd904dc4b09)" style="fill: none; stroke: #b0b0b0; stroke-width: 0.8; stroke-linecap: square"/>
     </g>
     <g id="line2d_68">
      <g>
       <use xlink:href="#mdf3d87656b" x="54.9" y="320.4" style="stroke: #000000; stroke-width: 0.8"/>
      </g>
     </g>
     <g id="text_14">
      <!-- 4 -->
      <g transform="translate(52.4 334.34375) scale(0.1 -0.1)">
       <use xlink:href="#TimesNewRomanPSMT-34"/>
      </g>
     </g>
    </g>
    <g id="xtick_10">
     <g id="line2d_69">
      <path d="M 82.8 320.4 
L 82.8 194.4 
" clip-path="url(#pd904dc4b09)" style="fill: none; stroke: #b0b0b0; stroke-width: 0.8; stroke-linecap: square"/>
     </g>
     <g id="line2d_70">
      <g>
       <use xlink:href="#mdf3d87656b" x="82.8" y="320.4" style="stroke: #000000; stroke-width: 0.8"/>
      </g>
     </g>
     <g id="text_15">
      <!-- 8 -->
      <g transform="translate(80.3 334.34375) scale(0.1 -0.1)">
       <use xlink:href="#TimesNewRomanPSMT-38"/>
      </g>
     </g>
    </g>
    <g id="xtick_11">
     <g id="line2d_71">
      <path d="M 110.7 320.4 
L 110.7 194.4 
" clip-path="url(#pd904dc4b09)" style="fill: none; stroke: #b0b0b0; stroke-width: 0.8; stroke-linecap: square"/>
     </g>
     <g id="line2d_72">
      <g>
       <use xlink:href="#mdf3d87656b" x="110.7" y="320.4" style="stroke: #000000; stroke-width: 0.8"/>
      </g>
     </g>
     <g id="text_16">
      <!-- 12 -->
      <g transform="translate(105.7 334.34375) scale(0.1 -0.1)">
       <use xlink:href="#TimesNewRomanPSMT-31"/>
       <use xlink:href="#TimesNewRomanPSMT-32" x="50"/>
      </g>
     </g>
    </g>
    <g id="xtick_12">
     <g id="line2d_73">
      <path d="M 138.6 320.4 
L 138.6 194.4 
" clip-path="url(#pd904dc4b09)" style="fill: none; stroke: #b0b0b0; stroke-width: 0.8; stroke-linecap: square"/>
     </g>
     <g id="line2d_74">
      <g>
       <use xlink:href="#mdf3d87656b" x="138.6" y="320.4" style="stroke: #000000; stroke-width: 0.8"/>
      </g>
     </g>
     <g id="text_17">
      <!-- 16 -->
      <g transform="translate(133.6 334.34375) scale(0.1 -0.1)">
       <use xlink:href="#TimesNewRomanPSMT-31"/>
       <use xlink:href="#TimesNewRomanPSMT-36" x="50"/>
      </g>
     </g>
    </g>
    <g id="xtick_13">
     <g id="line2d_75">
      <path d="M 166.5 320.4 
L 166.5 194.4 
" clip-path="url(#pd904dc4b09)" style="fill: none; stroke: #b0b0b0; stroke-width: 0.8; stroke-linecap: square"/>
     </g>
     <g id="line2d_76">
      <g>
       <use xlink:href="#mdf3d87656b" x="166.5" y="320.4" style="stroke: #000000; stroke-width: 0.8"/>
      </g>
     </g>
     <g id="text_18">
      <!-- 20 -->
      <g transform="translate(161.5 334.34375) scale(0.1 -0.1)">
       <use xlink:href="#TimesNewRomanPSMT-32"/>
       <use xlink:href="#TimesNewRomanPSMT-30" x="50"/>
      </g>
     </g>
    </g>
    <g id="xtick_14">
     <g id="line2d_77">
      <path d="M 194.4 320.4 
L 194.4 194.4 
" clip-path="url(#pd904dc4b09)" style="fill: none; stroke: #b0b0b0; stroke-width: 0.8; stroke-linecap: square"/>
     </g>
     <g id="line2d_78">
      <g>
       <use xlink:href="#mdf3d87656b" x="194.4" y="320.4" style="stroke: #000000; stroke-width: 0.8"/>
      </g>
     </g>
     <g id="text_19">
      <!-- 24 -->
      <g transform="translate(189.4 334.34375) scale(0.1 -0.1)">
       <use xlink:href="#TimesNewRomanPSMT-32"/>
       <use xlink:href="#TimesNewRomanPSMT-34" x="50"/>
      </g>
     </g>
    </g>
    <g id="text_20">
     <!-- Time (s) -->
     <g transform="translate(93.797656 347.426562) scale(0.1 -0.1)">
      <defs>
       <path id="TimesNewRomanPSMT-54" d="M 3703 4238 
L 3750 3244 
L 3631 3244 
Q 3597 3506 3538 3619 
Q 3441 3800 3280 3886 
Q 3119 3972 2856 3972 
L 2259 3972 
L 2259 734 
Q 2259 344 2344 247 
Q 2463 116 2709 116 
L 2856 116 
L 2856 0 
L 1059 0 
L 1059 116 
L 1209 116 
Q 1478 116 1591 278 
Q 1659 378 1659 734 
L 1659 3972 
L 1150 3972 
Q 853 3972 728 3928 
Q 566 3869 450 3700 
Q 334 3531 313 3244 
L 194 3244 
L 244 4238 
L 3703 4238 
z
" transform="scale(0.015625)"/>
       <path id="TimesNewRomanPSMT-69" d="M 928 4444 
Q 1059 4444 1151 4351 
Q 1244 4259 1244 4128 
Q 1244 3997 1151 3903 
Q 1059 3809 928 3809 
Q 797 3809 703 3903 
Q 609 3997 609 4128 
Q 609 4259 701 4351 
Q 794 4444 928 4444 
z
M 1188 2947 
L 1188 647 
Q 1188 378 1227 289 
Q 1266 200 1342 156 
Q 1419 113 1622 113 
L 1622 0 
L 231 0 
L 231 113 
Q 441 113 512 153 
Q 584 194 626 287 
Q 669 381 669 647 
L 669 1750 
Q 669 2216 641 2353 
Q 619 2453 572 2492 
Q 525 2531 444 2531 
Q 356 2531 231 2484 
L 188 2597 
L 1050 2947 
L 1188 2947 
z
" transform="scale(0.015625)"/>
       <path id="TimesNewRomanPSMT-6d" d="M 1050 2338 
Q 1363 2650 1419 2697 
Q 1559 2816 1721 2881 
Q 1884 2947 2044 2947 
Q 2313 2947 2506 2790 
Q 2700 2634 2766 2338 
Q 3088 2713 3309 2830 
Q 3531 2947 3766 2947 
Q 3994 2947 4170 2830 
Q 4347 2713 4450 2447 
Q 4519 2266 4519 1878 
L 4519 647 
Q 4519 378 4559 278 
Q 4591 209 4675 161 
Q 4759 113 4950 113 
L 4950 0 
L 3538 0 
L 3538 113 
L 3597 113 
Q 3781 113 3884 184 
Q 3956 234 3988 344 
Q 4000 397 4000 647 
L 4000 1878 
Q 4000 2228 3916 2372 
Q 3794 2572 3525 2572 
Q 3359 2572 3192 2489 
Q 3025 2406 2788 2181 
L 2781 2147 
L 2788 2013 
L 2788 647 
Q 2788 353 2820 281 
Q 2853 209 2943 161 
Q 3034 113 3253 113 
L 3253 0 
L 1806 0 
L 1806 113 
Q 2044 113 2133 169 
Q 2222 225 2256 338 
Q 2272 391 2272 647 
L 2272 1878 
Q 2272 2228 2169 2381 
Q 2031 2581 1784 2581 
Q 1616 2581 1450 2491 
Q 1191 2353 1050 2181 
L 1050 647 
Q 1050 366 1089 281 
Q 1128 197 1204 155 
Q 1281 113 1516 113 
L 1516 0 
L 100 0 
L 100 113 
Q 297 113 375 155 
Q 453 197 493 289 
Q 534 381 534 647 
L 534 1741 
Q 534 2213 506 2350 
Q 484 2453 437 2492 
Q 391 2531 309 2531 
Q 222 2531 100 2484 
L 53 2597 
L 916 2947 
L 1050 2947 
L 1050 2338 
z
" transform="scale(0.015625)"/>
      </defs>
      <use xlink:href="#TimesNewRomanPSMT-54"/>
      <use xlink:href="#TimesNewRomanPSMT-69" x="57.583984"/>
      <use xlink:href="#TimesNewRomanPSMT-6d" x="85.367188"/>
      <use xlink:href="#TimesNewRomanPSMT-65" x="163.150391"/>
      <use xlink:href="#TimesNewRomanPSMT-20" x="207.535156"/>
      <use xlink:href="#TimesNewRomanPSMT-28" x="232.535156"/>
      <use xlink:href="#TimesNewRomanPSMT-73" x="265.835938"/>
      <use xlink:href="#TimesNewRomanPSMT-29" x="304.751953"/>
     </g>
    </g>
   </g>
   <g id="matplotlib.axis_4">
    <g id="ytick_5">
     <g id="line2d_79">
      <path d="M 27 291.005821 
L 194.4 291.005821 
" clip-path="url(#pd904dc4b09)" style="fill: none; stroke: #b0b0b0; stroke-width: 0.8; stroke-linecap: square"/>
     </g>
     <g id="line2d_80">
      <g>
       <use xlink:href="#m0f5663fedd" x="27" y="291.005821" style="stroke: #000000; stroke-width: 0.8"/>
      </g>
     </g>
     <g id="text_21">
      <!-- 200 -->
      <g transform="translate(5 294.477696) scale(0.1 -0.1)">
       <use xlink:href="#TimesNewRomanPSMT-32"/>
       <use xlink:href="#TimesNewRomanPSMT-30" x="50"/>
       <use xlink:href="#TimesNewRomanPSMT-30" x="100"/>
      </g>
     </g>
    </g>
    <g id="ytick_6">
     <g id="line2d_81">
      <path d="M 27 260.979542 
L 194.4 260.979542 
" clip-path="url(#pd904dc4b09)" style="fill: none; stroke: #b0b0b0; stroke-width: 0.8; stroke-linecap: square"/>
     </g>
     <g id="line2d_82">
      <g>
       <use xlink:href="#m0f5663fedd" x="27" y="260.979542" style="stroke: #000000; stroke-width: 0.8"/>
      </g>
     </g>
     <g id="text_22">
      <!-- 400 -->
      <g transform="translate(5 264.451417) scale(0.1 -0.1)">
       <use xlink:href="#TimesNewRomanPSMT-34"/>
       <use xlink:href="#TimesNewRomanPSMT-30" x="50"/>
       <use xlink:href="#TimesNewRomanPSMT-30" x="100"/>
      </g>
     </g>
    </g>
    <g id="ytick_7">
     <g id="line2d_83">
      <path d="M 27 230.953263 
L 194.4 230.953263 
" clip-path="url(#pd904dc4b09)" style="fill: none; stroke: #b0b0b0; stroke-width: 0.8; stroke-linecap: square"/>
     </g>
     <g id="line2d_84">
      <g>
       <use xlink:href="#m0f5663fedd" x="27" y="230.953263" style="stroke: #000000; stroke-width: 0.8"/>
      </g>
     </g>
     <g id="text_23">
      <!-- 600 -->
      <g transform="translate(5 234.425138) scale(0.1 -0.1)">
       <use xlink:href="#TimesNewRomanPSMT-36"/>
       <use xlink:href="#TimesNewRomanPSMT-30" x="50"/>
       <use xlink:href="#TimesNewRomanPSMT-30" x="100"/>
      </g>
     </g>
    </g>
    <g id="ytick_8">
     <g id="line2d_85">
      <path d="M 27 200.926985 
L 194.4 200.926985 
" clip-path="url(#pd904dc4b09)" style="fill: none; stroke: #b0b0b0; stroke-width: 0.8; stroke-linecap: square"/>
     </g>
     <g id="line2d_86">
      <g>
       <use xlink:href="#m0f5663fedd" x="27" y="200.926985" style="stroke: #000000; stroke-width: 0.8"/>
      </g>
     </g>
     <g id="text_24">
      <!-- 800 -->
      <g transform="translate(5 204.39886) scale(0.1 -0.1)">
       <use xlink:href="#TimesNewRomanPSMT-38"/>
       <use xlink:href="#TimesNewRomanPSMT-30" x="50"/>
       <use xlink:href="#TimesNewRomanPSMT-30" x="100"/>
      </g>
     </g>
    </g>
    <g id="text_25">
     <!-- Currents (A) -->
     <g transform="translate(-1.139063 282.810156) rotate(-90) scale(0.1 -0.1)">
      <defs>
       <path id="TimesNewRomanPSMT-43" d="M 3853 4334 
L 3950 2894 
L 3853 2894 
Q 3659 3541 3300 3825 
Q 2941 4109 2438 4109 
Q 2016 4109 1675 3895 
Q 1334 3681 1139 3212 
Q 944 2744 944 2047 
Q 944 1472 1128 1050 
Q 1313 628 1683 403 
Q 2053 178 2528 178 
Q 2941 178 3256 354 
Q 3572 531 3950 1056 
L 4047 994 
Q 3728 428 3303 165 
Q 2878 -97 2294 -97 
Q 1241 -97 663 684 
Q 231 1266 231 2053 
Q 231 2688 515 3219 
Q 800 3750 1298 4042 
Q 1797 4334 2388 4334 
Q 2847 4334 3294 4109 
Q 3425 4041 3481 4041 
Q 3566 4041 3628 4100 
Q 3709 4184 3744 4334 
L 3853 4334 
z
" transform="scale(0.015625)"/>
       <path id="TimesNewRomanPSMT-72" d="M 1038 2947 
L 1038 2303 
Q 1397 2947 1775 2947 
Q 1947 2947 2059 2842 
Q 2172 2738 2172 2600 
Q 2172 2478 2090 2393 
Q 2009 2309 1897 2309 
Q 1788 2309 1652 2417 
Q 1516 2525 1450 2525 
Q 1394 2525 1328 2463 
Q 1188 2334 1038 2041 
L 1038 669 
Q 1038 431 1097 309 
Q 1138 225 1241 169 
Q 1344 113 1538 113 
L 1538 0 
L 72 0 
L 72 113 
Q 291 113 397 181 
Q 475 231 506 341 
Q 522 394 522 644 
L 522 1753 
Q 522 2253 501 2348 
Q 481 2444 426 2487 
Q 372 2531 291 2531 
Q 194 2531 72 2484 
L 41 2597 
L 906 2947 
L 1038 2947 
z
" transform="scale(0.015625)"/>
       <path id="TimesNewRomanPSMT-6e" d="M 1034 2341 
Q 1538 2947 1994 2947 
Q 2228 2947 2397 2830 
Q 2566 2713 2666 2444 
Q 2734 2256 2734 1869 
L 2734 647 
Q 2734 375 2778 278 
Q 2813 200 2889 156 
Q 2966 113 3172 113 
L 3172 0 
L 1756 0 
L 1756 113 
L 1816 113 
Q 2016 113 2095 173 
Q 2175 234 2206 353 
Q 2219 400 2219 647 
L 2219 1819 
Q 2219 2209 2117 2386 
Q 2016 2563 1775 2563 
Q 1403 2563 1034 2156 
L 1034 647 
Q 1034 356 1069 288 
Q 1113 197 1189 155 
Q 1266 113 1500 113 
L 1500 0 
L 84 0 
L 84 113 
L 147 113 
Q 366 113 442 223 
Q 519 334 519 647 
L 519 1709 
Q 519 2225 495 2337 
Q 472 2450 423 2490 
Q 375 2531 294 2531 
Q 206 2531 84 2484 
L 38 2597 
L 900 2947 
L 1034 2947 
L 1034 2341 
z
" transform="scale(0.015625)"/>
       <path id="TimesNewRomanPSMT-41" d="M 2928 1419 
L 1288 1419 
L 1000 750 
Q 894 503 894 381 
Q 894 284 986 211 
Q 1078 138 1384 116 
L 1384 0 
L 50 0 
L 50 116 
Q 316 163 394 238 
Q 553 388 747 847 
L 2238 4334 
L 2347 4334 
L 3822 809 
Q 4000 384 4145 257 
Q 4291 131 4550 116 
L 4550 0 
L 2878 0 
L 2878 116 
Q 3131 128 3220 200 
Q 3309 272 3309 375 
Q 3309 513 3184 809 
L 2928 1419 
z
M 2841 1650 
L 2122 3363 
L 1384 1650 
L 2841 1650 
z
" transform="scale(0.015625)"/>
      </defs>
      <use xlink:href="#TimesNewRomanPSMT-43"/>
      <use xlink:href="#TimesNewRomanPSMT-75" x="66.699219"/>
      <use xlink:href="#TimesNewRomanPSMT-72" x="116.699219"/>
      <use xlink:href="#TimesNewRomanPSMT-72" x="150"/>
      <use xlink:href="#TimesNewRomanPSMT-65" x="183.300781"/>
      <use xlink:href="#TimesNewRomanPSMT-6e" x="227.685547"/>
      <use xlink:href="#TimesNewRomanPSMT-74" x="277.685547"/>
      <use xlink:href="#TimesNewRomanPSMT-73" x="305.46875"/>
      <use xlink:href="#TimesNewRomanPSMT-20" x="344.384766"/>
      <use xlink:href="#TimesNewRomanPSMT-28" x="369.384766"/>
      <use xlink:href="#TimesNewRomanPSMT-41" x="402.685547"/>
      <use xlink:href="#TimesNewRomanPSMT-29" x="474.902344"/>
     </g>
    </g>
   </g>
   <g id="line2d_87">
    <path d="M -1 265.106181 
L 29.09622 265.106181 
L 30.43542 262.507266 
L 35.79222 262.507266 
L 37.13142 264.569202 
L 42.48822 264.569202 
L 43.82742 267.072561 
L 49.18422 267.072561 
L 50.52342 269.123393 
L 62.57622 269.123324 
L 63.91542 271.524466 
L 69.27222 271.524466 
L 70.61142 269.122867 
L 75.96822 269.122867 
L 77.30742 278.247301 
L 82.66422 278.247301 
L 84.00342 280.447366 
L 89.36022 280.447366 
L 90.69942 278.422498 
L 96.05622 278.422498 
L 97.39542 278.246135 
L 109.44822 278.246118 
L 110.78742 273.651133 
L 116.14422 273.651133 
L 117.48342 269.209879 
L 129.53622 269.210076 
L 130.87542 273.474261 
L 142.92822 273.473841 
L 144.26742 256.46829 
L 149.62422 256.46829 
L 150.96342 233.075435 
L 156.32022 233.075435 
L 157.65942 200.127273 
L 163.01622 200.127273 
L 164.35542 209.13557 
L 169.71222 209.13557 
L 171.05142 223.048662 
L 176.40822 223.048662 
L 177.74742 241.875142 
L 183.10422 241.875142 
L 184.44342 265.106181 
L 209.88822 265.106181 
L 209.88822 265.106181 
" clip-path="url(#pd904dc4b09)" style="fill: none; stroke: #d9524f; stroke-width: 1.5; stroke-linecap: square"/>
   </g>
   <g id="line2d_88">
    <path d="M -1 265.231106 
L 29.09622 265.231106 
L 30.43542 262.64517 
L 35.79222 262.64517 
L 37.13142 264.696748 
L 42.48822 264.696748 
L 43.82742 267.188158 
L 49.18422 267.188158 
L 50.52342 269.229703 
L 62.57622 269.229635 
L 63.91542 271.620467 
L 69.27222 271.620467 
L 70.61142 269.229179 
L 75.96822 269.229179 
L 77.30742 278.317564 
L 82.66422 278.317564 
L 84.00342 280.510173 
L 89.36022 280.510173 
L 90.69942 278.492146 
L 96.05622 278.492146 
L 97.39542 278.316398 
L 109.44822 278.316383 
L 110.78742 273.738496 
L 116.14422 273.738496 
L 117.48342 269.315803 
L 129.53622 269.316 
L 130.87542 273.562328 
L 142.92822 273.561915 
L 144.26742 256.639315 
L 149.62422 256.639315 
L 150.96342 233.417634 
L 156.32022 233.417634 
L 157.65942 200.8517 
L 163.01622 200.8517 
L 164.35542 209.736471 
L 169.71222 209.736471 
L 171.05142 223.487798 
L 176.40822 223.487798 
L 177.74742 242.144413 
L 183.10422 242.144413 
L 184.44342 265.231106 
L 209.88822 265.231106 
L 209.88822 265.231106 
" clip-path="url(#pd904dc4b09)" style="fill: none; stroke: #d9524f; stroke-width: 1.5; stroke-linecap: square"/>
   </g>
   <g id="line2d_89">
    <path d="M -1 265.408777 
L 29.09622 265.408777 
L 30.43542 262.840991 
L 35.79222 262.840991 
L 37.13142 264.878086 
L 42.48822 264.878086 
L 43.82742 267.352756 
L 49.18422 267.352756 
L 50.52342 269.381266 
L 62.57622 269.381199 
L 63.91542 271.757533 
L 69.27222 271.757533 
L 70.61142 269.380751 
L 75.96822 269.380751 
L 77.30742 278.418302 
L 82.66422 278.418302 
L 84.00342 280.600354 
L 89.36022 280.600354 
L 90.69942 278.59204 
L 96.05622 278.59204 
L 97.39542 278.417165 
L 109.44822 278.417149 
L 110.78742 273.863433 
L 116.14422 273.863433 
L 117.48342 269.466873 
L 129.53622 269.467063 
L 130.87542 273.688243 
L 142.92822 273.687842 
L 144.26742 256.881322 
L 149.62422 256.881322 
L 150.96342 233.89497 
L 156.32022 233.89497 
L 157.65942 201.841569 
L 163.01622 201.841569 
L 164.35542 210.562257 
L 169.71222 210.562257 
L 171.05142 224.096543 
L 176.40822 224.096543 
L 177.74742 242.52202 
L 183.10422 242.52202 
L 184.44342 265.408777 
L 209.88822 265.408777 
L 209.88822 265.408777 
" clip-path="url(#pd904dc4b09)" style="fill: none; stroke: #d9524f; stroke-width: 1.5; stroke-linecap: square"/>
   </g>
   <g id="line2d_90">
    <path d="M -1 312.579345 
L 29.09622 312.579345 
L 30.43542 313.101028 
L 35.79222 313.101028 
L 37.13142 313.642944 
L 42.48822 313.642944 
L 43.82742 314.161731 
L 49.18422 314.161731 
L 50.52342 314.657579 
L 55.88022 314.657579 
L 57.21942 313.599657 
L 62.57622 313.599657 
L 63.91542 311.553526 
L 69.27222 311.553526 
L 70.61142 306.877317 
L 75.96822 306.877317 
L 77.30742 300.17805 
L 82.66422 300.17805 
L 84.00342 293.018517 
L 89.36022 293.018517 
L 90.69942 288.187266 
L 96.05622 288.187266 
L 97.39542 286.906479 
L 102.75222 286.906479 
L 104.09142 289.109992 
L 109.44822 289.109992 
L 110.78742 288.136962 
L 122.84022 288.13688 
L 124.17942 290.644751 
L 129.53622 290.644751 
L 130.87542 294.10765 
L 136.23222 294.10765 
L 137.57142 295.429686 
L 142.92822 295.429686 
L 144.26742 298.373652 
L 149.62422 298.373652 
L 150.96342 302.468892 
L 156.32022 302.468892 
L 157.65942 308.151444 
L 163.01622 308.151444 
L 164.35542 310.411463 
L 169.71222 310.411463 
L 171.05142 311.509496 
L 176.40822 311.509496 
L 177.74742 312.12158 
L 183.10422 312.12158 
L 184.44342 312.579345 
L 209.88822 312.579345 
L 209.88822 312.579345 
" clip-path="url(#pd904dc4b09)" style="fill: none; stroke: #5cb85c; stroke-width: 1.5; stroke-linecap: square"/>
   </g>
   <g id="line2d_91">
    <path d="M -1 312.588132 
L 29.09622 312.588132 
L 30.43542 313.108732 
L 35.79222 313.108732 
L 37.13142 313.649604 
L 42.48822 313.649604 
L 43.82742 314.167466 
L 49.18422 314.167466 
L 50.52342 314.662497 
L 55.88022 314.662497 
L 57.21942 313.606398 
L 62.57622 313.606398 
L 63.91542 311.564663 
L 69.27222 311.564663 
L 70.61142 306.903059 
L 75.96822 306.903059 
L 77.30742 300.236882 
L 82.66422 300.236882 
L 84.00342 293.130722 
L 89.36022 293.130722 
L 90.69942 288.347418 
L 96.05622 288.347418 
L 97.39542 287.0811 
L 102.75222 287.0811 
L 104.09142 289.26019 
L 109.44822 289.26019 
L 110.78742 288.297669 
L 122.84022 288.297587 
L 124.17942 290.779236 
L 129.53622 290.779236 
L 130.87542 294.210431 
L 136.23222 294.210431 
L 137.57142 295.521678 
L 142.92822 295.521678 
L 144.26742 298.444082 
L 149.62422 298.444082 
L 150.96342 302.514689 
L 156.32022 302.514689 
L 157.65942 308.172544 
L 163.01622 308.172544 
L 164.35542 310.425561 
L 169.71222 310.425561 
L 171.05142 311.520735 
L 176.40822 311.520735 
L 177.74742 312.131377 
L 183.10422 312.131377 
L 184.44342 312.588132 
L 209.88822 312.588132 
L 209.88822 312.588132 
" clip-path="url(#pd904dc4b09)" style="fill: none; stroke: #5cb85c; stroke-width: 1.5; stroke-linecap: square"/>
   </g>
   <g id="line2d_92">
    <path d="M -1 312.606317 
L 29.09622 312.606317 
L 30.43542 313.124698 
L 35.79222 313.124698 
L 37.13142 313.663423 
L 42.48822 313.663423 
L 43.82742 314.17938 
L 49.18422 314.17938 
L 50.52342 314.672727 
L 55.88022 314.672727 
L 57.21942 313.620382 
L 62.57622 313.620382 
L 63.91542 311.587653 
L 69.27222 311.587653 
L 70.61142 306.955652 
L 75.96822 306.955652 
L 77.30742 300.3555 
L 82.66422 300.3555 
L 84.00342 293.354313 
L 89.36022 293.354313 
L 90.69942 288.66449 
L 96.05622 288.66449 
L 97.39542 287.426296 
L 102.75222 287.426296 
L 104.09142 289.557897 
L 109.44822 289.557897 
L 110.78742 288.615826 
L 122.84022 288.615747 
L 124.17942 291.046341 
L 129.53622 291.046341 
L 130.87542 294.41558 
L 136.23222 294.41558 
L 137.57142 295.705672 
L 142.92822 295.705672 
L 144.26742 298.58565 
L 149.62422 298.58565 
L 150.96342 302.607451 
L 156.32022 302.607451 
L 157.65942 308.215811 
L 163.01622 308.215811 
L 164.35542 310.454616 
L 169.71222 310.454616 
L 171.05142 311.543952 
L 176.40822 311.543952 
L 177.74742 312.151636 
L 183.10422 312.151636 
L 184.44342 312.606317 
L 209.88822 312.606317 
L 209.88822 312.606317 
" clip-path="url(#pd904dc4b09)" style="fill: none; stroke: #5cb85c; stroke-width: 1.5; stroke-linecap: square"/>
   </g>
   <g id="line2d_93">
    <path d="M -1 307.332718 
L 29.09622 307.332718 
L 30.43542 307.799015 
L 35.79222 307.799015 
L 37.13142 308.316624 
L 42.48822 308.316624 
L 43.82742 307.799054 
L 49.18422 307.799054 
L 50.52342 307.332766 
L 55.88022 307.332766 
L 57.21942 306.450715 
L 62.57622 306.450715 
L 63.91542 305.462971 
L 69.27222 305.462971 
L 70.61142 300.229936 
L 75.96822 300.229936 
L 77.30742 292.42811 
L 82.66422 292.42811 
L 84.00342 284.159647 
L 89.36022 284.159647 
L 90.69942 267.85467 
L 96.05622 267.85467 
L 97.39542 265.11852 
L 102.75222 265.11852 
L 104.09142 262.074431 
L 109.44822 262.074431 
L 110.78742 260.629641 
L 122.84022 260.687385 
L 124.17942 263.628107 
L 129.53622 263.628107 
L 130.87542 264.889797 
L 136.23222 264.889797 
L 137.57142 250.233769 
L 142.92822 250.233769 
L 144.26742 244.643373 
L 149.62422 244.643373 
L 150.96342 256.202009 
L 156.32022 256.202009 
L 157.65942 261.899627 
L 163.01622 261.899627 
L 164.35542 278.777279 
L 169.71222 278.777279 
L 171.05142 303.062608 
L 176.40822 303.062608 
L 177.74742 308.161245 
L 183.10422 308.161245 
L 184.44342 307.332718 
L 209.88822 307.332718 
L 209.88822 307.332718 
" clip-path="url(#pd904dc4b09)" style="fill: none; stroke: #337ab7; stroke-width: 1.5; stroke-linecap: square"/>
   </g>
   <g id="line2d_94">
    <path d="M -1 307.351909 
L 29.09622 307.351909 
L 30.43542 307.816878 
L 35.79222 307.816878 
L 37.13142 308.333075 
L 42.48822 308.333075 
L 43.82742 307.816919 
L 49.18422 307.816919 
L 50.52342 307.351957 
L 55.88022 307.351957 
L 57.21942 306.472555 
L 62.57622 306.472555 
L 63.91542 305.487998 
L 69.27222 305.487998 
L 70.61142 300.27585 
L 75.96822 300.27585 
L 77.30742 292.518639 
L 82.66422 292.518639 
L 84.00342 284.31718 
L 89.36022 284.31718 
L 90.69942 268.215621 
L 96.05622 268.215621 
L 97.39542 265.524438 
L 102.75222 265.524438 
L 104.09142 262.534543 
L 109.44822 262.534543 
L 110.78742 261.117076 
L 122.84022 261.173707 
L 124.17942 264.059998 
L 129.53622 264.059998 
L 130.87542 265.299637 
L 136.23222 265.299637 
L 137.57142 250.951264 
L 142.92822 250.951264 
L 144.26742 245.511765 
L 149.62422 245.511765 
L 150.96342 256.779973 
L 156.32022 256.779973 
L 157.65942 262.362961 
L 163.01622 262.362961 
L 164.35542 278.990667 
L 169.71222 278.990667 
L 171.05142 303.096356 
L 176.40822 303.096356 
L 177.74742 308.17811 
L 183.10422 308.17811 
L 184.44342 307.351909 
L 209.88822 307.351909 
L 209.88822 307.351909 
" clip-path="url(#pd904dc4b09)" style="fill: none; stroke: #337ab7; stroke-width: 1.5; stroke-linecap: square"/>
   </g>
   <g id="line2d_95">
    <path d="M -1 307.349207 
L 29.09622 307.349207 
L 30.43542 307.81436 
L 35.79222 307.81436 
L 37.13142 308.330752 
L 42.48822 308.330752 
L 43.82742 307.814399 
L 49.18422 307.814399 
L 50.52342 307.349254 
L 55.88022 307.349254 
L 57.21942 306.469486 
L 62.57622 306.469486 
L 63.91542 305.48449 
L 69.27222 305.48449 
L 70.61142 300.269507 
L 75.96822 300.269507 
L 77.30742 292.50641 
L 82.66422 292.50641 
L 84.00342 284.296435 
L 89.36022 284.296435 
L 90.69942 268.17065 
L 96.05622 268.17065 
L 97.39542 265.474376 
L 102.75222 265.474376 
L 104.09142 262.478447 
L 109.44822 262.478447 
L 110.78742 261.057986 
L 122.84022 261.11474 
L 124.17942 264.00703 
L 129.53622 264.00703 
L 130.87542 265.249127 
L 136.23222 265.249127 
L 137.57142 250.867946 
L 142.92822 250.867946 
L 144.26742 245.413471 
L 149.62422 245.413471 
L 150.96342 256.711156 
L 156.32022 256.711156 
L 157.65942 262.306565 
L 163.01622 262.306565 
L 164.35542 278.963081 
L 169.71222 278.963081 
L 171.05142 303.091667 
L 176.40822 303.091667 
L 177.74742 308.175733 
L 183.10422 308.175733 
L 184.44342 307.349207 
L 209.88822 307.349207 
L 209.88822 307.349207 
" clip-path="url(#pd904dc4b09)" style="fill: none; stroke: #337ab7; stroke-width: 1.5; stroke-linecap: square"/>
   </g>
   <g id="line2d_96">
    <path d="M -1 212.241235 
L 209.88822 212.241235 
" clip-path="url(#pd904dc4b09)" style="fill: none; stroke-dasharray: 1.5,2.475; stroke-dashoffset: 0; stroke: #d9524f; stroke-width: 1.5"/>
   </g>
   <g id="line2d_97">
    <path d="M -1 286.219023 
L 209.88822 286.219023 
" clip-path="url(#pd904dc4b09)" style="fill: none; stroke-dasharray: 1.5,2.475; stroke-dashoffset: 0; stroke: #5cb85c; stroke-width: 1.5"/>
   </g>
   <g id="line2d_98">
    <path d="M -1 255.757581 
L 209.88822 255.757581 
" clip-path="url(#pd904dc4b09)" style="fill: none; stroke-dasharray: 1.5,2.475; stroke-dashoffset: 0; stroke: #337ab7; stroke-width: 1.5"/>
   </g>
   <g id="patch_8">
    <path d="M 27 320.4 
L 27 194.4 
" style="fill: none; stroke: #000000; stroke-width: 0.8; stroke-linejoin: miter; stroke-linecap: square"/>
   </g>
   <g id="patch_9">
    <path d="M 194.4 320.4 
L 194.4 194.4 
" style="fill: none; stroke: #000000; stroke-width: 0.8; stroke-linejoin: miter; stroke-linecap: square"/>
   </g>
   <g id="patch_10">
    <path d="M 27 320.4 
L 194.4 320.4 
" style="fill: none; stroke: #000000; stroke-width: 0.8; stroke-linejoin: miter; stroke-linecap: square"/>
   </g>
   <g id="patch_11">
    <path d="M 27 194.4 
L 194.4 194.4 
" style="fill: none; stroke: #000000; stroke-width: 0.8; stroke-linejoin: miter; stroke-linecap: square"/>
   </g>
  </g>
 </g>
 <defs>
  <clipPath id="p92672559a6">
   <rect x="27" y="43.2" width="167.4" height="126"/>
  </clipPath>
  <clipPath id="pd904dc4b09">
   <rect x="27" y="194.4" width="167.4" height="126"/>
  </clipPath>
 </defs>
</svg>
