<?xml version="1.0" encoding="utf-8" standalone="no"?>
<!DOCTYPE svg PUBLIC "-//W3C//DTD SVG 1.1//EN"
  "http://www.w3.org/Graphics/SVG/1.1/DTD/svg11.dtd">
<svg xmlns:xlink="http://www.w3.org/1999/xlink" width="216pt" height="360pt" viewBox="0 0 216 360" xmlns="http://www.w3.org/2000/svg" version="1.1">
 <metadata>
  <rdf:RDF xmlns:dc="http://purl.org/dc/elements/1.1/" xmlns:cc="http://creativecommons.org/ns#" xmlns:rdf="http://www.w3.org/1999/02/22-rdf-syntax-ns#">
   <cc:Work>
    <dc:type rdf:resource="http://purl.org/dc/dcmitype/StillImage"/>
    <dc:date>2023-07-04T13:28:06.075184</dc:date>
    <dc:format>image/svg+xml</dc:format>
    <dc:creator>
     <cc:Agent>
      <dc:title>Matplotlib v3.7.1, https://matplotlib.org/</dc:title>
     </cc:Agent>
    </dc:creator>
   </cc:Work>
  </rdf:RDF>
 </metadata>
 <defs>
  <style type="text/css">*{stroke-linejoin: round; stroke-linecap: butt}</style>
 </defs>
 <g id="figure_1">
  <g id="patch_1">
   <path d="M 0 360 
L 216 360 
L 216 0 
L 0 0 
z
" style="fill: #ffffff"/>
  </g>
  <g id="axes_1">
   <g id="patch_2">
    <path d="M 27 169.2 
L 194.4 169.2 
L 194.4 43.2 
L 27 43.2 
z
" style="fill: #ffffff"/>
   </g>
   <g id="matplotlib.axis_1">
    <g id="xtick_1">
     <g id="line2d_1">
      <path d="M 27 169.2 
L 27 43.2 
" clip-path="url(#pb24a5f139b)" style="fill: none; stroke: #b0b0b0; stroke-width: 0.8; stroke-linecap: square"/>
     </g>
     <g id="line2d_2">
      <defs>
       <path id="me48f3d8b26" d="M 0 0 
L 0 3.5 
" style="stroke: #000000; stroke-width: 0.8"/>
      </defs>
      <g>
       <use xlink:href="#me48f3d8b26" x="27" y="169.2" style="stroke: #000000; stroke-width: 0.8"/>
      </g>
     </g>
     <g id="text_1">
      <!-- 0 -->
      <g transform="translate(24.5 183.14375) scale(0.1 -0.1)">
       <defs>
        <path id="TimesNewRomanPSMT-30" d="M 231 2094 
Q 231 2819 450 3342 
Q 669 3866 1031 4122 
Q 1313 4325 1613 4325 
Q 2100 4325 2488 3828 
Q 2972 3213 2972 2159 
Q 2972 1422 2759 906 
Q 2547 391 2217 158 
Q 1888 -75 1581 -75 
Q 975 -75 572 641 
Q 231 1244 231 2094 
z
M 844 2016 
Q 844 1141 1059 588 
Q 1238 122 1591 122 
Q 1759 122 1940 273 
Q 2122 425 2216 781 
Q 2359 1319 2359 2297 
Q 2359 3022 2209 3506 
Q 2097 3866 1919 4016 
Q 1791 4119 1609 4119 
Q 1397 4119 1231 3928 
Q 1006 3669 925 3112 
Q 844 2556 844 2016 
z
" transform="scale(0.015625)"/>
       </defs>
       <use xlink:href="#TimesNewRomanPSMT-30"/>
      </g>
     </g>
    </g>
    <g id="xtick_2">
     <g id="line2d_3">
      <path d="M 54.9 169.2 
L 54.9 43.2 
" clip-path="url(#pb24a5f139b)" style="fill: none; stroke: #b0b0b0; stroke-width: 0.8; stroke-linecap: square"/>
     </g>
     <g id="line2d_4">
      <g>
       <use xlink:href="#me48f3d8b26" x="54.9" y="169.2" style="stroke: #000000; stroke-width: 0.8"/>
      </g>
     </g>
     <g id="text_2">
      <!-- 4 -->
      <g transform="translate(52.4 183.14375) scale(0.1 -0.1)">
       <defs>
        <path id="TimesNewRomanPSMT-34" d="M 2978 1563 
L 2978 1119 
L 2409 1119 
L 2409 0 
L 1894 0 
L 1894 1119 
L 100 1119 
L 100 1519 
L 2066 4325 
L 2409 4325 
L 2409 1563 
L 2978 1563 
z
M 1894 1563 
L 1894 3666 
L 406 1563 
L 1894 1563 
z
" transform="scale(0.015625)"/>
       </defs>
       <use xlink:href="#TimesNewRomanPSMT-34"/>
      </g>
     </g>
    </g>
    <g id="xtick_3">
     <g id="line2d_5">
      <path d="M 82.8 169.2 
L 82.8 43.2 
" clip-path="url(#pb24a5f139b)" style="fill: none; stroke: #b0b0b0; stroke-width: 0.8; stroke-linecap: square"/>
     </g>
     <g id="line2d_6">
      <g>
       <use xlink:href="#me48f3d8b26" x="82.8" y="169.2" style="stroke: #000000; stroke-width: 0.8"/>
      </g>
     </g>
     <g id="text_3">
      <!-- 8 -->
      <g transform="translate(80.3 183.14375) scale(0.1 -0.1)">
       <defs>
        <path id="TimesNewRomanPSMT-38" d="M 1228 2134 
Q 725 2547 579 2797 
Q 434 3047 434 3316 
Q 434 3728 753 4026 
Q 1072 4325 1600 4325 
Q 2113 4325 2425 4047 
Q 2738 3769 2738 3413 
Q 2738 3175 2569 2928 
Q 2400 2681 1866 2347 
Q 2416 1922 2594 1678 
Q 2831 1359 2831 1006 
Q 2831 559 2490 242 
Q 2150 -75 1597 -75 
Q 994 -75 656 303 
Q 388 606 388 966 
Q 388 1247 577 1523 
Q 766 1800 1228 2134 
z
M 1719 2469 
Q 2094 2806 2194 3001 
Q 2294 3197 2294 3444 
Q 2294 3772 2109 3958 
Q 1925 4144 1606 4144 
Q 1288 4144 1088 3959 
Q 888 3775 888 3528 
Q 888 3366 970 3203 
Q 1053 3041 1206 2894 
L 1719 2469 
z
M 1375 2016 
Q 1116 1797 991 1539 
Q 866 1281 866 981 
Q 866 578 1086 336 
Q 1306 94 1647 94 
Q 1984 94 2187 284 
Q 2391 475 2391 747 
Q 2391 972 2272 1150 
Q 2050 1481 1375 2016 
z
" transform="scale(0.015625)"/>
       </defs>
       <use xlink:href="#TimesNewRomanPSMT-38"/>
      </g>
     </g>
    </g>
    <g id="xtick_4">
     <g id="line2d_7">
      <path d="M 110.7 169.2 
L 110.7 43.2 
" clip-path="url(#pb24a5f139b)" style="fill: none; stroke: #b0b0b0; stroke-width: 0.8; stroke-linecap: square"/>
     </g>
     <g id="line2d_8">
      <g>
       <use xlink:href="#me48f3d8b26" x="110.7" y="169.2" style="stroke: #000000; stroke-width: 0.8"/>
      </g>
     </g>
     <g id="text_4">
      <!-- 12 -->
      <g transform="translate(105.7 183.14375) scale(0.1 -0.1)">
       <defs>
        <path id="TimesNewRomanPSMT-31" d="M 750 3822 
L 1781 4325 
L 1884 4325 
L 1884 747 
Q 1884 391 1914 303 
Q 1944 216 2037 169 
Q 2131 122 2419 116 
L 2419 0 
L 825 0 
L 825 116 
Q 1125 122 1212 167 
Q 1300 213 1334 289 
Q 1369 366 1369 747 
L 1369 3034 
Q 1369 3497 1338 3628 
Q 1316 3728 1258 3775 
Q 1200 3822 1119 3822 
Q 1003 3822 797 3725 
L 750 3822 
z
" transform="scale(0.015625)"/>
        <path id="TimesNewRomanPSMT-32" d="M 2934 816 
L 2638 0 
L 138 0 
L 138 116 
Q 1241 1122 1691 1759 
Q 2141 2397 2141 2925 
Q 2141 3328 1894 3587 
Q 1647 3847 1303 3847 
Q 991 3847 742 3664 
Q 494 3481 375 3128 
L 259 3128 
Q 338 3706 661 4015 
Q 984 4325 1469 4325 
Q 1984 4325 2329 3994 
Q 2675 3663 2675 3213 
Q 2675 2891 2525 2569 
Q 2294 2063 1775 1497 
Q 997 647 803 472 
L 1909 472 
Q 2247 472 2383 497 
Q 2519 522 2628 598 
Q 2738 675 2819 816 
L 2934 816 
z
" transform="scale(0.015625)"/>
       </defs>
       <use xlink:href="#TimesNewRomanPSMT-31"/>
       <use xlink:href="#TimesNewRomanPSMT-32" x="50"/>
      </g>
     </g>
    </g>
    <g id="xtick_5">
     <g id="line2d_9">
      <path d="M 138.6 169.2 
L 138.6 43.2 
" clip-path="url(#pb24a5f139b)" style="fill: none; stroke: #b0b0b0; stroke-width: 0.8; stroke-linecap: square"/>
     </g>
     <g id="line2d_10">
      <g>
       <use xlink:href="#me48f3d8b26" x="138.6" y="169.2" style="stroke: #000000; stroke-width: 0.8"/>
      </g>
     </g>
     <g id="text_5">
      <!-- 16 -->
      <g transform="translate(133.6 183.14375) scale(0.1 -0.1)">
       <defs>
        <path id="TimesNewRomanPSMT-36" d="M 2869 4325 
L 2869 4209 
Q 2456 4169 2195 4045 
Q 1934 3922 1679 3669 
Q 1425 3416 1258 3105 
Q 1091 2794 978 2366 
Q 1428 2675 1881 2675 
Q 2316 2675 2634 2325 
Q 2953 1975 2953 1425 
Q 2953 894 2631 456 
Q 2244 -75 1606 -75 
Q 1172 -75 869 213 
Q 275 772 275 1663 
Q 275 2231 503 2743 
Q 731 3256 1154 3653 
Q 1578 4050 1965 4187 
Q 2353 4325 2688 4325 
L 2869 4325 
z
M 925 2138 
Q 869 1716 869 1456 
Q 869 1156 980 804 
Q 1091 453 1309 247 
Q 1469 100 1697 100 
Q 1969 100 2183 356 
Q 2397 613 2397 1088 
Q 2397 1622 2184 2012 
Q 1972 2403 1581 2403 
Q 1463 2403 1327 2353 
Q 1191 2303 925 2138 
z
" transform="scale(0.015625)"/>
       </defs>
       <use xlink:href="#TimesNewRomanPSMT-31"/>
       <use xlink:href="#TimesNewRomanPSMT-36" x="50"/>
      </g>
     </g>
    </g>
    <g id="xtick_6">
     <g id="line2d_11">
      <path d="M 166.5 169.2 
L 166.5 43.2 
" clip-path="url(#pb24a5f139b)" style="fill: none; stroke: #b0b0b0; stroke-width: 0.8; stroke-linecap: square"/>
     </g>
     <g id="line2d_12">
      <g>
       <use xlink:href="#me48f3d8b26" x="166.5" y="169.2" style="stroke: #000000; stroke-width: 0.8"/>
      </g>
     </g>
     <g id="text_6">
      <!-- 20 -->
      <g transform="translate(161.5 183.14375) scale(0.1 -0.1)">
       <use xlink:href="#TimesNewRomanPSMT-32"/>
       <use xlink:href="#TimesNewRomanPSMT-30" x="50"/>
      </g>
     </g>
    </g>
    <g id="xtick_7">
     <g id="line2d_13">
      <path d="M 194.4 169.2 
L 194.4 43.2 
" clip-path="url(#pb24a5f139b)" style="fill: none; stroke: #b0b0b0; stroke-width: 0.8; stroke-linecap: square"/>
     </g>
     <g id="line2d_14">
      <g>
       <use xlink:href="#me48f3d8b26" x="194.4" y="169.2" style="stroke: #000000; stroke-width: 0.8"/>
      </g>
     </g>
     <g id="text_7">
      <!-- 24 -->
      <g transform="translate(189.4 183.14375) scale(0.1 -0.1)">
       <use xlink:href="#TimesNewRomanPSMT-32"/>
       <use xlink:href="#TimesNewRomanPSMT-34" x="50"/>
      </g>
     </g>
    </g>
   </g>
   <g id="matplotlib.axis_2">
    <g id="ytick_1">
     <g id="line2d_15">
      <path d="M 27 147.352508 
L 194.4 147.352508 
" clip-path="url(#pb24a5f139b)" style="fill: none; stroke: #b0b0b0; stroke-width: 0.8; stroke-linecap: square"/>
     </g>
     <g id="line2d_16">
      <defs>
       <path id="m4f159ef3c2" d="M 0 0 
L -3.5 0 
" style="stroke: #000000; stroke-width: 0.8"/>
      </defs>
      <g>
       <use xlink:href="#m4f159ef3c2" x="27" y="147.352508" style="stroke: #000000; stroke-width: 0.8"/>
      </g>
     </g>
     <g id="text_8">
      <!-- 0.90 -->
      <g transform="translate(2.5 150.824383) scale(0.1 -0.1)">
       <defs>
        <path id="TimesNewRomanPSMT-2e" d="M 800 606 
Q 947 606 1047 504 
Q 1147 403 1147 259 
Q 1147 116 1045 14 
Q 944 -88 800 -88 
Q 656 -88 554 14 
Q 453 116 453 259 
Q 453 406 554 506 
Q 656 606 800 606 
z
" transform="scale(0.015625)"/>
        <path id="TimesNewRomanPSMT-39" d="M 338 -88 
L 338 28 
Q 744 34 1094 217 
Q 1444 400 1770 856 
Q 2097 1313 2225 1859 
Q 1734 1544 1338 1544 
Q 891 1544 572 1889 
Q 253 2234 253 2806 
Q 253 3363 572 3797 
Q 956 4325 1575 4325 
Q 2097 4325 2469 3894 
Q 2925 3359 2925 2575 
Q 2925 1869 2578 1258 
Q 2231 647 1613 244 
Q 1109 -88 516 -88 
L 338 -88 
z
M 2275 2091 
Q 2331 2497 2331 2741 
Q 2331 3044 2228 3395 
Q 2125 3747 1936 3934 
Q 1747 4122 1506 4122 
Q 1228 4122 1018 3872 
Q 809 3622 809 3128 
Q 809 2469 1088 2097 
Q 1291 1828 1588 1828 
Q 1731 1828 1928 1897 
Q 2125 1966 2275 2091 
z
" transform="scale(0.015625)"/>
       </defs>
       <use xlink:href="#TimesNewRomanPSMT-30"/>
       <use xlink:href="#TimesNewRomanPSMT-2e" x="50"/>
       <use xlink:href="#TimesNewRomanPSMT-39" x="75"/>
       <use xlink:href="#TimesNewRomanPSMT-30" x="125"/>
      </g>
     </g>
    </g>
    <g id="ytick_2">
     <g id="line2d_17">
      <path d="M 27 114.544096 
L 194.4 114.544096 
" clip-path="url(#pb24a5f139b)" style="fill: none; stroke: #b0b0b0; stroke-width: 0.8; stroke-linecap: square"/>
     </g>
     <g id="line2d_18">
      <g>
       <use xlink:href="#m4f159ef3c2" x="27" y="114.544096" style="stroke: #000000; stroke-width: 0.8"/>
      </g>
     </g>
     <g id="text_9">
      <!-- 0.95 -->
      <g transform="translate(2.5 118.015971) scale(0.1 -0.1)">
       <defs>
        <path id="TimesNewRomanPSMT-35" d="M 2778 4238 
L 2534 3706 
L 1259 3706 
L 981 3138 
Q 1809 3016 2294 2522 
Q 2709 2097 2709 1522 
Q 2709 1188 2573 903 
Q 2438 619 2231 419 
Q 2025 219 1772 97 
Q 1413 -75 1034 -75 
Q 653 -75 479 54 
Q 306 184 306 341 
Q 306 428 378 495 
Q 450 563 559 563 
Q 641 563 702 538 
Q 763 513 909 409 
Q 1144 247 1384 247 
Q 1750 247 2026 523 
Q 2303 800 2303 1197 
Q 2303 1581 2056 1914 
Q 1809 2247 1375 2428 
Q 1034 2569 447 2591 
L 1259 4238 
L 2778 4238 
z
" transform="scale(0.015625)"/>
       </defs>
       <use xlink:href="#TimesNewRomanPSMT-30"/>
       <use xlink:href="#TimesNewRomanPSMT-2e" x="50"/>
       <use xlink:href="#TimesNewRomanPSMT-39" x="75"/>
       <use xlink:href="#TimesNewRomanPSMT-35" x="125"/>
      </g>
     </g>
    </g>
    <g id="ytick_3">
     <g id="line2d_19">
      <path d="M 27 81.735684 
L 194.4 81.735684 
" clip-path="url(#pb24a5f139b)" style="fill: none; stroke: #b0b0b0; stroke-width: 0.8; stroke-linecap: square"/>
     </g>
     <g id="line2d_20">
      <g>
       <use xlink:href="#m4f159ef3c2" x="27" y="81.735684" style="stroke: #000000; stroke-width: 0.8"/>
      </g>
     </g>
     <g id="text_10">
      <!-- 1.00 -->
      <g transform="translate(2.5 85.207559) scale(0.1 -0.1)">
       <use xlink:href="#TimesNewRomanPSMT-31"/>
       <use xlink:href="#TimesNewRomanPSMT-2e" x="50"/>
       <use xlink:href="#TimesNewRomanPSMT-30" x="75"/>
       <use xlink:href="#TimesNewRomanPSMT-30" x="125"/>
      </g>
     </g>
    </g>
    <g id="ytick_4">
     <g id="line2d_21">
      <path d="M 27 48.927273 
L 194.4 48.927273 
" clip-path="url(#pb24a5f139b)" style="fill: none; stroke: #b0b0b0; stroke-width: 0.8; stroke-linecap: square"/>
     </g>
     <g id="line2d_22">
      <g>
       <use xlink:href="#m4f159ef3c2" x="27" y="48.927273" style="stroke: #000000; stroke-width: 0.8"/>
      </g>
     </g>
     <g id="text_11">
      <!-- 1.05 -->
      <g transform="translate(2.5 52.399148) scale(0.1 -0.1)">
       <use xlink:href="#TimesNewRomanPSMT-31"/>
       <use xlink:href="#TimesNewRomanPSMT-2e" x="50"/>
       <use xlink:href="#TimesNewRomanPSMT-30" x="75"/>
       <use xlink:href="#TimesNewRomanPSMT-35" x="125"/>
      </g>
     </g>
    </g>
    <g id="text_12">
     <!-- Voltages (pu) -->
     <g transform="translate(-3.657813 132.910156) rotate(-90) scale(0.1 -0.1)">
      <defs>
       <path id="TimesNewRomanPSMT-56" d="M 4544 4238 
L 4544 4122 
Q 4319 4081 4203 3978 
Q 4038 3825 3909 3509 
L 2431 -97 
L 2316 -97 
L 728 3556 
Q 606 3838 556 3900 
Q 478 3997 364 4051 
Q 250 4106 56 4122 
L 56 4238 
L 1788 4238 
L 1788 4122 
Q 1494 4094 1406 4022 
Q 1319 3950 1319 3838 
Q 1319 3681 1463 3350 
L 2541 866 
L 3541 3319 
Q 3688 3681 3688 3822 
Q 3688 3913 3597 3995 
Q 3506 4078 3291 4113 
Q 3275 4116 3238 4122 
L 3238 4238 
L 4544 4238 
z
" transform="scale(0.015625)"/>
       <path id="TimesNewRomanPSMT-6f" d="M 1600 2947 
Q 2250 2947 2644 2453 
Q 2978 2031 2978 1484 
Q 2978 1100 2793 706 
Q 2609 313 2286 112 
Q 1963 -88 1566 -88 
Q 919 -88 538 428 
Q 216 863 216 1403 
Q 216 1797 411 2186 
Q 606 2575 925 2761 
Q 1244 2947 1600 2947 
z
M 1503 2744 
Q 1338 2744 1170 2645 
Q 1003 2547 900 2300 
Q 797 2053 797 1666 
Q 797 1041 1045 587 
Q 1294 134 1700 134 
Q 2003 134 2200 384 
Q 2397 634 2397 1244 
Q 2397 2006 2069 2444 
Q 1847 2744 1503 2744 
z
" transform="scale(0.015625)"/>
       <path id="TimesNewRomanPSMT-6c" d="M 1184 4444 
L 1184 647 
Q 1184 378 1223 290 
Q 1263 203 1344 158 
Q 1425 113 1647 113 
L 1647 0 
L 244 0 
L 244 113 
Q 441 113 512 153 
Q 584 194 625 287 
Q 666 381 666 647 
L 666 3247 
Q 666 3731 644 3842 
Q 622 3953 573 3993 
Q 525 4034 450 4034 
Q 369 4034 244 3984 
L 191 4094 
L 1044 4444 
L 1184 4444 
z
" transform="scale(0.015625)"/>
       <path id="TimesNewRomanPSMT-74" d="M 1031 3803 
L 1031 2863 
L 1700 2863 
L 1700 2644 
L 1031 2644 
L 1031 788 
Q 1031 509 1111 412 
Q 1191 316 1316 316 
Q 1419 316 1516 380 
Q 1613 444 1666 569 
L 1788 569 
Q 1678 263 1478 108 
Q 1278 -47 1066 -47 
Q 922 -47 784 33 
Q 647 113 581 261 
Q 516 409 516 719 
L 516 2644 
L 63 2644 
L 63 2747 
Q 234 2816 414 2980 
Q 594 3144 734 3369 
Q 806 3488 934 3803 
L 1031 3803 
z
" transform="scale(0.015625)"/>
       <path id="TimesNewRomanPSMT-61" d="M 1822 413 
Q 1381 72 1269 19 
Q 1100 -59 909 -59 
Q 613 -59 420 144 
Q 228 347 228 678 
Q 228 888 322 1041 
Q 450 1253 767 1440 
Q 1084 1628 1822 1897 
L 1822 2009 
Q 1822 2438 1686 2597 
Q 1550 2756 1291 2756 
Q 1094 2756 978 2650 
Q 859 2544 859 2406 
L 866 2225 
Q 866 2081 792 2003 
Q 719 1925 600 1925 
Q 484 1925 411 2006 
Q 338 2088 338 2228 
Q 338 2497 613 2722 
Q 888 2947 1384 2947 
Q 1766 2947 2009 2819 
Q 2194 2722 2281 2516 
Q 2338 2381 2338 1966 
L 2338 994 
Q 2338 584 2353 492 
Q 2369 400 2405 369 
Q 2441 338 2488 338 
Q 2538 338 2575 359 
Q 2641 400 2828 588 
L 2828 413 
Q 2478 -56 2159 -56 
Q 2006 -56 1915 50 
Q 1825 156 1822 413 
z
M 1822 616 
L 1822 1706 
Q 1350 1519 1213 1441 
Q 966 1303 859 1153 
Q 753 1003 753 825 
Q 753 600 887 451 
Q 1022 303 1197 303 
Q 1434 303 1822 616 
z
" transform="scale(0.015625)"/>
       <path id="TimesNewRomanPSMT-67" d="M 966 1044 
Q 703 1172 562 1401 
Q 422 1631 422 1909 
Q 422 2334 742 2640 
Q 1063 2947 1563 2947 
Q 1972 2947 2272 2747 
L 2878 2747 
Q 3013 2747 3034 2739 
Q 3056 2731 3066 2713 
Q 3084 2684 3084 2613 
Q 3084 2531 3069 2500 
Q 3059 2484 3036 2475 
Q 3013 2466 2878 2466 
L 2506 2466 
Q 2681 2241 2681 1891 
Q 2681 1491 2375 1206 
Q 2069 922 1553 922 
Q 1341 922 1119 984 
Q 981 866 932 777 
Q 884 688 884 625 
Q 884 572 936 522 
Q 988 472 1138 450 
Q 1225 438 1575 428 
Q 2219 413 2409 384 
Q 2700 344 2873 169 
Q 3047 -6 3047 -263 
Q 3047 -616 2716 -925 
Q 2228 -1381 1444 -1381 
Q 841 -1381 425 -1109 
Q 191 -953 191 -784 
Q 191 -709 225 -634 
Q 278 -519 444 -313 
Q 466 -284 763 25 
Q 600 122 533 198 
Q 466 275 466 372 
Q 466 481 555 628 
Q 644 775 966 1044 
z
M 1509 2797 
Q 1278 2797 1122 2612 
Q 966 2428 966 2047 
Q 966 1553 1178 1281 
Q 1341 1075 1591 1075 
Q 1828 1075 1981 1253 
Q 2134 1431 2134 1813 
Q 2134 2309 1919 2591 
Q 1759 2797 1509 2797 
z
M 934 0 
Q 788 -159 713 -296 
Q 638 -434 638 -550 
Q 638 -700 819 -813 
Q 1131 -1006 1722 -1006 
Q 2284 -1006 2551 -807 
Q 2819 -609 2819 -384 
Q 2819 -222 2659 -153 
Q 2497 -84 2016 -72 
Q 1313 -53 934 0 
z
" transform="scale(0.015625)"/>
       <path id="TimesNewRomanPSMT-65" d="M 681 1784 
Q 678 1147 991 784 
Q 1303 422 1725 422 
Q 2006 422 2214 576 
Q 2422 731 2563 1106 
L 2659 1044 
Q 2594 616 2278 264 
Q 1963 -88 1488 -88 
Q 972 -88 605 314 
Q 238 716 238 1394 
Q 238 2128 614 2539 
Q 991 2950 1559 2950 
Q 2041 2950 2350 2633 
Q 2659 2316 2659 1784 
L 681 1784 
z
M 681 1966 
L 2006 1966 
Q 1991 2241 1941 2353 
Q 1863 2528 1708 2628 
Q 1553 2728 1384 2728 
Q 1125 2728 920 2526 
Q 716 2325 681 1966 
z
" transform="scale(0.015625)"/>
       <path id="TimesNewRomanPSMT-73" d="M 2050 2947 
L 2050 1972 
L 1947 1972 
Q 1828 2431 1642 2597 
Q 1456 2763 1169 2763 
Q 950 2763 815 2647 
Q 681 2531 681 2391 
Q 681 2216 781 2091 
Q 878 1963 1175 1819 
L 1631 1597 
Q 2266 1288 2266 781 
Q 2266 391 1970 151 
Q 1675 -88 1309 -88 
Q 1047 -88 709 6 
Q 606 38 541 38 
Q 469 38 428 -44 
L 325 -44 
L 325 978 
L 428 978 
Q 516 541 762 319 
Q 1009 97 1316 97 
Q 1531 97 1667 223 
Q 1803 350 1803 528 
Q 1803 744 1651 891 
Q 1500 1038 1047 1263 
Q 594 1488 453 1669 
Q 313 1847 313 2119 
Q 313 2472 555 2709 
Q 797 2947 1181 2947 
Q 1350 2947 1591 2875 
Q 1750 2828 1803 2828 
Q 1853 2828 1881 2850 
Q 1909 2872 1947 2947 
L 2050 2947 
z
" transform="scale(0.015625)"/>
       <path id="TimesNewRomanPSMT-20" transform="scale(0.015625)"/>
       <path id="TimesNewRomanPSMT-28" d="M 1988 -1253 
L 1988 -1369 
Q 1516 -1131 1200 -813 
Q 750 -359 506 256 
Q 263 872 263 1534 
Q 263 2503 741 3301 
Q 1219 4100 1988 4444 
L 1988 4313 
Q 1603 4100 1356 3731 
Q 1109 3363 987 2797 
Q 866 2231 866 1616 
Q 866 947 969 400 
Q 1050 -31 1165 -292 
Q 1281 -553 1476 -793 
Q 1672 -1034 1988 -1253 
z
" transform="scale(0.015625)"/>
       <path id="TimesNewRomanPSMT-70" d="M -6 2578 
L 875 2934 
L 994 2934 
L 994 2266 
Q 1216 2644 1439 2795 
Q 1663 2947 1909 2947 
Q 2341 2947 2628 2609 
Q 2981 2197 2981 1534 
Q 2981 794 2556 309 
Q 2206 -88 1675 -88 
Q 1444 -88 1275 -22 
Q 1150 25 994 166 
L 994 -706 
Q 994 -1000 1030 -1079 
Q 1066 -1159 1155 -1206 
Q 1244 -1253 1478 -1253 
L 1478 -1369 
L -22 -1369 
L -22 -1253 
L 56 -1253 
Q 228 -1256 350 -1188 
Q 409 -1153 442 -1076 
Q 475 -1000 475 -688 
L 475 2019 
Q 475 2297 450 2372 
Q 425 2447 370 2484 
Q 316 2522 222 2522 
Q 147 2522 31 2478 
L -6 2578 
z
M 994 2081 
L 994 1013 
Q 994 666 1022 556 
Q 1066 375 1236 237 
Q 1406 100 1666 100 
Q 1978 100 2172 344 
Q 2425 663 2425 1241 
Q 2425 1897 2138 2250 
Q 1938 2494 1663 2494 
Q 1513 2494 1366 2419 
Q 1253 2363 994 2081 
z
" transform="scale(0.015625)"/>
       <path id="TimesNewRomanPSMT-75" d="M 2709 2863 
L 2709 1128 
Q 2709 631 2732 520 
Q 2756 409 2807 365 
Q 2859 322 2928 322 
Q 3025 322 3147 375 
L 3191 266 
L 2334 -88 
L 2194 -88 
L 2194 519 
Q 1825 119 1631 15 
Q 1438 -88 1222 -88 
Q 981 -88 804 51 
Q 628 191 559 409 
Q 491 628 491 1028 
L 491 2306 
Q 491 2509 447 2587 
Q 403 2666 317 2708 
Q 231 2750 6 2747 
L 6 2863 
L 1009 2863 
L 1009 947 
Q 1009 547 1148 422 
Q 1288 297 1484 297 
Q 1619 297 1789 381 
Q 1959 466 2194 703 
L 2194 2325 
Q 2194 2569 2105 2655 
Q 2016 2741 1734 2747 
L 1734 2863 
L 2709 2863 
z
" transform="scale(0.015625)"/>
       <path id="TimesNewRomanPSMT-29" d="M 144 4313 
L 144 4444 
Q 619 4209 934 3891 
Q 1381 3434 1625 2820 
Q 1869 2206 1869 1541 
Q 1869 572 1392 -226 
Q 916 -1025 144 -1369 
L 144 -1253 
Q 528 -1038 776 -670 
Q 1025 -303 1145 264 
Q 1266 831 1266 1447 
Q 1266 2113 1163 2663 
Q 1084 3094 967 3353 
Q 850 3613 656 3853 
Q 463 4094 144 4313 
z
" transform="scale(0.015625)"/>
      </defs>
      <use xlink:href="#TimesNewRomanPSMT-56"/>
      <use xlink:href="#TimesNewRomanPSMT-6f" x="59.341797"/>
      <use xlink:href="#TimesNewRomanPSMT-6c" x="109.341797"/>
      <use xlink:href="#TimesNewRomanPSMT-74" x="137.125"/>
      <use xlink:href="#TimesNewRomanPSMT-61" x="164.908203"/>
      <use xlink:href="#TimesNewRomanPSMT-67" x="209.292969"/>
      <use xlink:href="#TimesNewRomanPSMT-65" x="259.292969"/>
      <use xlink:href="#TimesNewRomanPSMT-73" x="303.677734"/>
      <use xlink:href="#TimesNewRomanPSMT-20" x="342.59375"/>
      <use xlink:href="#TimesNewRomanPSMT-28" x="367.59375"/>
      <use xlink:href="#TimesNewRomanPSMT-70" x="400.894531"/>
      <use xlink:href="#TimesNewRomanPSMT-75" x="450.894531"/>
      <use xlink:href="#TimesNewRomanPSMT-29" x="500.894531"/>
     </g>
    </g>
   </g>
   <g id="line2d_23">
    <path d="M -1 77.068177 
L 29.09622 77.068177 
L 30.43542 77.460538 
L 35.79222 77.460538 
L 37.13142 77.148359 
L 42.48822 77.148359 
L 43.82742 76.770549 
L 49.18422 76.770549 
L 50.52342 76.461554 
L 62.57622 76.462433 
L 63.91542 76.102701 
L 69.27222 76.102701 
L 70.61142 76.468304 
L 75.96822 76.468304 
L 77.30742 75.106005 
L 82.66422 75.106005 
L 84.00342 74.784336 
L 89.36022 74.784336 
L 90.69942 75.096216 
L 109.44822 75.124686 
L 110.78742 75.813947 
L 116.14422 75.813947 
L 117.48342 76.481305 
L 129.53622 76.478756 
L 130.87542 75.835705 
L 142.92822 75.841663 
L 144.26742 78.410795 
L 149.62422 78.410795 
L 150.96342 81.992474 
L 156.32022 81.992474 
L 157.65942 87.162449 
L 163.01622 87.162449 
L 164.35542 85.724122 
L 169.71222 85.724122 
L 171.05142 83.527239 
L 176.40822 83.527239 
L 177.74742 80.607541 
L 183.10422 80.607541 
L 184.44342 77.068177 
L 209.88822 77.068177 
L 209.88822 77.068177 
" clip-path="url(#pb24a5f139b)" style="fill: none; stroke: #d9524f; stroke-width: 1.5; stroke-linecap: square"/>
   </g>
   <g id="line2d_24">
    <path d="M -1 80.929845 
L 29.09622 80.929845 
L 30.43542 81.505339 
L 35.79222 81.505339 
L 37.13142 81.047836 
L 42.48822 81.047836 
L 43.82742 80.493884 
L 49.18422 80.493884 
L 50.52342 80.040826 
L 62.57622 80.041711 
L 63.91542 79.513577 
L 69.27222 79.513577 
L 70.61142 80.047616 
L 75.96822 80.047616 
L 77.30742 78.046916 
L 82.66422 78.046916 
L 84.00342 77.571934 
L 89.36022 77.571934 
L 90.69942 78.024914 
L 109.44822 78.065684 
L 110.78742 79.075923 
L 116.14422 79.075923 
L 117.48342 80.054518 
L 129.53622 80.051954 
L 130.87542 79.110056 
L 142.92822 79.116044 
L 144.26742 82.882505 
L 149.62422 82.882505 
L 150.96342 88.136355 
L 156.32022 88.136355 
L 157.65942 95.71554 
L 163.01622 95.71554 
L 164.35542 93.61184 
L 169.71222 93.61184 
L 171.05142 90.397298 
L 176.40822 90.397298 
L 177.74742 86.118839 
L 183.10422 86.118839 
L 184.44342 80.929845 
L 209.88822 80.929845 
L 209.88822 80.929845 
" clip-path="url(#pb24a5f139b)" style="fill: none; stroke: #d9524f; stroke-width: 1.5; stroke-linecap: square"/>
   </g>
   <g id="line2d_25">
    <path d="M -1 84.791338 
L 29.09622 84.791338 
L 30.43542 85.54994 
L 35.79222 85.54994 
L 37.13142 84.947134 
L 42.48822 84.947134 
L 43.82742 84.217064 
L 49.18422 84.217064 
L 50.52342 83.619961 
L 62.57622 83.62085 
L 63.91542 82.924336 
L 69.27222 82.924336 
L 70.61142 83.626789 
L 75.96822 83.626789 
L 77.30742 80.987757 
L 82.66422 80.987757 
L 84.00342 80.359475 
L 89.36022 80.359475 
L 90.69942 80.953543 
L 109.44822 81.006613 
L 110.78742 82.337797 
L 116.14422 82.337797 
L 117.48342 83.627593 
L 129.53622 83.625015 
L 130.87542 82.384303 
L 142.92822 82.390323 
L 144.26742 87.353947 
L 149.62422 87.353947 
L 150.96342 94.279621 
L 156.32022 94.279621 
L 157.65942 104.267256 
L 163.01622 104.267256 
L 164.35542 101.498424 
L 169.71222 101.498424 
L 171.05142 97.266545 
L 176.40822 97.266545 
L 177.74742 91.629669 
L 183.10422 91.629669 
L 184.44342 84.791338 
L 209.88822 84.791338 
L 209.88822 84.791338 
" clip-path="url(#pb24a5f139b)" style="fill: none; stroke: #d9524f; stroke-width: 1.5; stroke-linecap: square"/>
   </g>
   <g id="line2d_26">
    <path d="M -1 88.375222 
L 29.09622 88.375222 
L 30.43542 89.304077 
L 35.79222 89.304077 
L 37.13142 88.566165 
L 42.48822 88.566165 
L 43.82742 87.672362 
L 49.18422 87.672362 
L 50.52342 86.941364 
L 62.57622 86.942258 
L 63.91542 86.08925 
L 69.27222 86.08925 
L 70.61142 86.948228 
L 75.96822 86.948228 
L 77.30742 83.716056 
L 82.66422 83.716056 
L 84.00342 82.945379 
L 89.36022 82.945379 
L 90.69942 83.670498 
L 109.44822 83.734993 
L 110.78742 85.364357 
L 116.14422 85.364357 
L 117.48342 86.943365 
L 129.53622 86.940773 
L 130.87542 85.422361 
L 142.92822 85.42841 
L 144.26742 91.505075 
L 149.62422 91.505075 
L 150.96342 99.987219 
L 156.32022 99.987219 
L 157.65942 112.221719 
L 163.01622 112.221719 
L 164.35542 108.831819 
L 169.71222 108.831819 
L 171.05142 103.650833 
L 176.40822 103.650833 
L 177.74742 96.748171 
L 183.10422 96.748171 
L 184.44342 88.375222 
L 209.88822 88.375222 
L 209.88822 88.375222 
" clip-path="url(#pb24a5f139b)" style="fill: none; stroke: #d9524f; stroke-width: 1.5; stroke-linecap: square"/>
   </g>
   <g id="line2d_27">
    <path d="M -1 90.968272 
L 29.09622 90.968272 
L 30.43542 92.020029 
L 35.79222 92.020029 
L 37.13142 91.184591 
L 42.48822 91.184591 
L 43.82742 90.172572 
L 49.18422 90.172572 
L 50.52342 89.344882 
L 62.57622 89.34578 
L 63.91542 88.379739 
L 69.27222 88.379739 
L 70.61142 89.351773 
L 75.96822 89.351773 
L 77.30742 85.691069 
L 82.66422 85.691069 
L 84.00342 84.817467 
L 89.36022 84.817467 
L 90.69942 85.637312 
L 109.44822 85.710065 
L 110.78742 87.554898 
L 116.14422 87.554898 
L 117.48342 89.342816 
L 129.53622 89.340215 
L 130.87542 87.621208 
L 142.92822 87.627278 
L 144.26742 94.507497 
L 149.62422 94.507497 
L 150.96342 104.111244 
L 156.32022 104.111244 
L 157.65942 117.96 
L 163.01622 117.96 
L 164.35542 114.124517 
L 169.71222 114.124517 
L 171.05142 108.261663 
L 176.40822 108.261663 
L 177.74742 100.44799 
L 183.10422 100.44799 
L 184.44342 90.968272 
L 209.88822 90.968272 
L 209.88822 90.968272 
" clip-path="url(#pb24a5f139b)" style="fill: none; stroke: #d9524f; stroke-width: 1.5; stroke-linecap: square"/>
   </g>
   <g id="line2d_28">
    <path d="M -1 93.561162 
L 29.09622 93.561162 
L 30.43542 94.735805 
L 35.79222 94.735805 
L 37.13142 93.802852 
L 42.48822 93.802852 
L 43.82742 92.672633 
L 49.18422 92.672633 
L 50.52342 91.748263 
L 62.57622 91.749164 
L 63.91542 90.670104 
L 69.27222 90.670104 
L 70.61142 91.75518 
L 75.96822 91.75518 
L 77.30742 87.66599 
L 82.66422 87.66599 
L 84.00342 86.689473 
L 89.36022 86.689473 
L 90.69942 87.604035 
L 109.44822 87.685045 
L 110.78742 89.745325 
L 116.14422 89.745325 
L 117.48342 91.74213 
L 129.53622 91.739519 
L 130.87542 89.819941 
L 142.92822 89.826032 
L 144.26742 97.509702 
L 149.62422 97.509702 
L 150.96342 108.234849 
L 156.32022 108.234849 
L 157.65942 123.697433 
L 163.01622 123.697433 
L 164.35542 119.416502 
L 169.71222 119.416502 
L 171.05142 112.871961 
L 176.40822 112.871961 
L 177.74742 104.147474 
L 183.10422 104.147474 
L 184.44342 93.561162 
L 209.88822 93.561162 
L 209.88822 93.561162 
" clip-path="url(#pb24a5f139b)" style="fill: none; stroke: #d9524f; stroke-width: 1.5; stroke-linecap: square"/>
   </g>
   <g id="line2d_29">
    <path d="M -1 95.11809 
L 29.09622 95.11809 
L 30.43542 96.366753 
L 35.79222 96.366753 
L 37.13142 95.375061 
L 42.48822 95.375061 
L 43.82742 94.17366 
L 49.18422 94.17366 
L 50.52342 93.191084 
L 62.57622 93.191987 
L 63.91542 92.044901 
L 69.27222 92.044901 
L 70.61142 93.198016 
L 75.96822 93.198016 
L 77.30742 88.851019 
L 82.66422 88.851019 
L 84.00342 87.812619 
L 89.36022 87.812619 
L 90.69942 88.784133 
L 109.44822 88.870109 
L 110.78742 91.059985 
L 116.14422 91.059985 
L 117.48342 93.182503 
L 129.53622 93.179886 
L 130.87542 91.139598 
L 142.92822 91.145702 
L 144.26742 99.313268 
L 149.62422 99.313268 
L 150.96342 110.715457 
L 156.32022 110.715457 
L 157.65942 127.156095 
L 163.01622 127.156095 
L 164.35542 122.604737 
L 169.71222 122.604737 
L 171.05142 115.647046 
L 176.40822 115.647046 
L 177.74742 106.371784 
L 183.10422 106.371784 
L 184.44342 95.11809 
L 209.88822 95.11809 
L 209.88822 95.11809 
" clip-path="url(#pb24a5f139b)" style="fill: none; stroke: #d9524f; stroke-width: 1.5; stroke-linecap: square"/>
   </g>
   <g id="line2d_30">
    <path d="M -1 96.674959 
L 29.09622 96.674959 
L 30.43542 97.997636 
L 35.79222 97.997636 
L 37.13142 96.947209 
L 42.48822 96.947209 
L 43.82742 95.674633 
L 49.18422 95.674633 
L 50.52342 94.633854 
L 62.57622 94.634759 
L 63.91542 93.419652 
L 69.27222 93.419652 
L 70.61142 94.640803 
L 75.96822 94.640803 
L 77.30742 90.036014 
L 82.66422 90.036014 
L 84.00342 88.935735 
L 89.36022 88.935735 
L 90.69942 89.964199 
L 109.44822 90.055139 
L 110.78742 92.374604 
L 116.14422 92.374604 
L 117.48342 94.622826 
L 129.53622 94.620203 
L 130.87542 92.459214 
L 142.92822 92.46533 
L 144.26742 101.116753 
L 149.62422 101.116753 
L 150.96342 113.195908 
L 156.32022 113.195908 
L 157.65942 130.614437 
L 163.01622 130.614437 
L 164.35542 125.792704 
L 169.71222 125.792704 
L 171.05142 118.421933 
L 176.40822 118.421933 
L 177.74742 108.59597 
L 183.10422 108.59597 
L 184.44342 96.674959 
L 209.88822 96.674959 
L 209.88822 96.674959 
" clip-path="url(#pb24a5f139b)" style="fill: none; stroke: #d9524f; stroke-width: 1.5; stroke-linecap: square"/>
   </g>
   <g id="line2d_31">
    <path d="M -1 98.231106 
L 29.09622 98.231106 
L 30.43542 99.62776 
L 35.79222 99.62776 
L 37.13142 98.518629 
L 42.48822 98.518629 
L 43.82742 97.174912 
L 49.18422 97.174912 
L 50.52342 96.075961 
L 62.57622 96.076868 
L 63.91542 94.793774 
L 69.27222 94.793774 
L 70.61142 96.082926 
L 75.96822 96.082926 
L 77.30742 91.220473 
L 82.66422 91.220473 
L 84.00342 90.058345 
L 89.36022 90.058345 
L 90.69942 91.14373 
L 109.44822 91.239634 
L 110.78742 93.688623 
L 116.14422 93.688623 
L 117.48342 96.062487 
L 129.53622 96.059857 
L 130.87542 93.778227 
L 142.92822 93.784356 
L 144.26742 102.91939 
L 149.62422 102.91939 
L 150.96342 115.675138 
L 156.32022 115.675138 
L 157.65942 134.070952 
L 163.01622 134.070952 
L 164.35542 128.97902 
L 169.71222 128.97902 
L 171.05142 121.195424 
L 176.40822 121.195424 
L 177.74742 110.81908 
L 183.10422 110.81908 
L 184.44342 98.231106 
L 209.88822 98.231106 
L 209.88822 98.231106 
" clip-path="url(#pb24a5f139b)" style="fill: none; stroke: #d9524f; stroke-width: 1.5; stroke-linecap: square"/>
   </g>
   <g id="line2d_32">
    <path d="M -1 99.124307 
L 29.09622 99.124307 
L 30.43542 100.563476 
L 35.79222 100.563476 
L 37.13142 99.420606 
L 42.48822 99.420606 
L 43.82742 98.036009 
L 49.18422 98.036009 
L 50.52342 96.903632 
L 62.57622 96.90454 
L 63.91542 95.582384 
L 69.27222 95.582384 
L 70.61142 96.910605 
L 75.96822 96.910605 
L 77.30742 91.900138 
L 82.66422 91.900138 
L 84.00342 90.70249 
L 89.36022 90.70249 
L 90.69942 91.820565 
L 109.44822 91.919319 
L 110.78742 94.442705 
L 116.14422 94.442705 
L 117.48342 96.888751 
L 129.53622 96.886119 
L 130.87542 94.535179 
L 142.92822 94.541315 
L 144.26742 103.954271 
L 149.62422 103.954271 
L 150.96342 117.099231 
L 156.32022 117.099231 
L 157.65942 136.058103 
L 163.01622 136.058103 
L 164.35542 130.810388 
L 169.71222 130.810388 
L 171.05142 122.788942 
L 176.40822 122.788942 
L 177.74742 112.095784 
L 183.10422 112.095784 
L 184.44342 99.124307 
L 209.88822 99.124307 
L 209.88822 99.124307 
" clip-path="url(#pb24a5f139b)" style="fill: none; stroke: #d9524f; stroke-width: 1.5; stroke-linecap: square"/>
   </g>
   <g id="line2d_33">
    <path d="M -1 85.946447 
L 29.09622 85.946447 
L 30.43542 86.758492 
L 35.79222 86.758492 
L 37.13142 86.113287 
L 42.48822 86.113287 
L 43.82742 85.331721 
L 49.18422 85.331721 
L 50.52342 84.692415 
L 62.57622 84.693306 
L 63.91542 83.947361 
L 69.27222 83.947361 
L 70.61142 84.699254 
L 75.96822 84.699254 
L 77.30742 81.872281 
L 82.66422 81.872281 
L 84.00342 81.198643 
L 89.36022 81.198643 
L 90.69942 81.834456 
L 109.44822 81.891162 
L 110.78742 83.317027 
L 116.14422 83.317027 
L 117.48342 84.698269 
L 129.53622 84.695687 
L 130.87542 83.367176 
L 142.92822 83.373205 
L 144.26742 88.686589 
L 149.62422 88.686589 
L 150.96342 96.091553 
L 156.32022 96.091553 
L 157.65942 106.749872 
L 163.01622 106.749872 
L 164.35542 103.798243 
L 169.71222 103.798243 
L 171.05142 99.283167 
L 176.40822 99.283167 
L 177.74742 93.261574 
L 183.10422 93.261574 
L 184.44342 85.946447 
L 209.88822 85.946447 
L 209.88822 85.946447 
" clip-path="url(#pb24a5f139b)" style="fill: none; stroke: #d9524f; stroke-width: 1.5; stroke-linecap: square"/>
   </g>
   <g id="line2d_34">
    <path d="M -1 92.508673 
L 29.09622 92.508673 
L 30.43542 93.635636 
L 35.79222 93.635636 
L 37.13142 92.740501 
L 42.48822 92.740501 
L 43.82742 91.656306 
L 49.18422 91.656306 
L 50.52342 90.769727 
L 62.57622 90.770627 
L 63.91542 89.735912 
L 69.27222 89.735912 
L 70.61142 90.776634 
L 75.96822 90.776634 
L 77.30742 86.856498 
L 82.66422 86.856498 
L 84.00342 85.920957 
L 89.36022 85.920957 
L 90.69942 86.797802 
L 109.44822 86.87553 
L 110.78742 88.850494 
L 116.14422 88.850494 
L 117.48342 90.765189 
L 129.53622 90.762581 
L 130.87542 88.921833 
L 142.92822 88.927916 
L 144.26742 96.299258 
L 149.62422 96.299258 
L 150.96342 106.604863 
L 156.32022 106.604863 
L 157.65942 121.502158 
L 163.01622 121.502158 
L 164.35542 117.372277 
L 169.71222 117.372277 
L 171.05142 111.066394 
L 176.40822 111.066394 
L 177.74742 102.673784 
L 183.10422 102.673784 
L 184.44342 92.508673 
L 209.88822 92.508673 
L 209.88822 92.508673 
" clip-path="url(#pb24a5f139b)" style="fill: none; stroke: #d9524f; stroke-width: 1.5; stroke-linecap: square"/>
   </g>
   <g id="line2d_35">
    <path d="M -1 96.640959 
L 29.09622 96.640959 
L 30.43542 97.965917 
L 35.79222 97.965917 
L 37.13142 96.913649 
L 42.48822 96.913649 
L 43.82742 95.639165 
L 49.18422 95.639165 
L 50.52342 94.597089 
L 62.57622 94.597994 
L 63.91542 93.381665 
L 69.27222 93.381665 
L 70.61142 94.604039 
L 75.96822 94.604039 
L 77.30742 89.996265 
L 82.66422 89.996265 
L 84.00342 88.895927 
L 89.36022 88.895927 
L 90.69942 89.924437 
L 109.44822 90.015392 
L 110.78742 92.3358 
L 116.14422 92.3358 
L 117.48342 94.586015 
L 129.53622 94.583391 
L 130.87542 92.420468 
L 142.92822 92.426585 
L 144.26742 101.091877 
L 149.62422 101.091877 
L 150.96342 113.219554 
L 156.32022 113.219554 
L 157.65942 130.776879 
L 163.01622 130.776879 
L 164.35542 125.907871 
L 169.71222 125.907871 
L 171.05142 118.478265 
L 176.40822 118.478265 
L 177.74742 108.597022 
L 183.10422 108.597022 
L 184.44342 96.640959 
L 209.88822 96.640959 
L 209.88822 96.640959 
" clip-path="url(#pb24a5f139b)" style="fill: none; stroke: #d9524f; stroke-width: 1.5; stroke-linecap: square"/>
   </g>
   <g id="line2d_36">
    <path d="M -1 100.771696 
L 29.09622 100.771696 
L 30.43542 102.294514 
L 35.79222 102.294514 
L 37.13142 101.08522 
L 42.48822 101.08522 
L 43.82742 99.620575 
L 49.18422 99.620575 
L 50.52342 98.423099 
L 62.57622 98.42401 
L 63.91542 97.026177 
L 69.27222 97.026177 
L 70.61142 98.430091 
L 75.96822 98.430091 
L 77.30742 93.135076 
L 82.66422 93.135076 
L 84.00342 91.870026 
L 89.36022 91.870026 
L 90.69942 93.050122 
L 109.44822 93.154297 
L 110.78742 95.819959 
L 116.14422 95.819959 
L 117.48342 98.405493 
L 129.53622 98.402853 
L 130.87542 95.917949 
L 142.92822 95.9241 
L 144.26742 105.882476 
L 149.62422 105.882476 
L 150.96342 119.8306 
L 156.32022 119.8306 
L 157.65942 140.044741 
L 163.01622 140.044741 
L 164.35542 134.437598 
L 169.71222 134.437598 
L 171.05142 125.885631 
L 176.40822 125.885631 
L 177.74742 114.517286 
L 183.10422 114.517286 
L 184.44342 100.771696 
L 209.88822 100.771696 
L 209.88822 100.771696 
" clip-path="url(#pb24a5f139b)" style="fill: none; stroke: #d9524f; stroke-width: 1.5; stroke-linecap: square"/>
   </g>
   <g id="line2d_37">
    <path d="M -1 104.901221 
L 29.09622 104.901221 
L 30.43542 106.621778 
L 35.79222 106.621778 
L 37.13142 105.255555 
L 42.48822 105.255555 
L 43.82742 103.600859 
L 49.18422 103.600859 
L 50.52342 102.248071 
L 62.57622 102.248987 
L 63.91542 100.669748 
L 69.27222 100.669748 
L 70.61142 102.255106 
L 75.96822 102.255106 
L 77.30742 96.27319 
L 82.66422 96.27319 
L 84.00342 94.843501 
L 89.36022 94.843501 
L 90.69942 96.175117 
L 96.05622 96.175117 
L 97.39542 96.292218 
L 109.44822 96.292506 
L 110.78742 99.303259 
L 116.14422 99.303259 
L 117.48342 102.223937 
L 129.53622 102.221281 
L 130.87542 99.414563 
L 142.92822 99.420748 
L 144.26742 110.671438 
L 149.62422 110.671438 
L 150.96342 126.438497 
L 156.32022 126.438497 
L 157.65942 149.306332 
L 163.01622 149.306332 
L 164.35542 142.962032 
L 169.71222 142.962032 
L 171.05142 133.289028 
L 176.40822 133.289028 
L 177.74742 120.435035 
L 183.10422 120.435035 
L 184.44342 104.901221 
L 209.88822 104.901221 
L 209.88822 104.901221 
" clip-path="url(#pb24a5f139b)" style="fill: none; stroke: #d9524f; stroke-width: 1.5; stroke-linecap: square"/>
   </g>
   <g id="line2d_38">
    <path d="M -1 97.261059 
L 29.09622 97.261059 
L 30.43542 98.61051 
L 35.79222 98.61051 
L 37.13142 97.538845 
L 42.48822 97.538845 
L 43.82742 96.240444 
L 49.18422 96.240444 
L 50.52342 95.178477 
L 62.57622 95.179383 
L 63.91542 93.939433 
L 69.27222 93.939433 
L 70.61142 95.185432 
L 75.96822 95.185432 
L 77.30742 90.486038 
L 82.66422 90.486038 
L 84.00342 89.362868 
L 89.36022 89.362868 
L 90.69942 90.412401 
L 109.44822 90.505176 
L 110.78742 92.87235 
L 116.14422 92.87235 
L 117.48342 95.166556 
L 129.53622 95.163931 
L 130.87542 92.958794 
L 142.92822 92.964915 
L 144.26742 101.791655 
L 149.62422 101.791655 
L 150.96342 114.108413 
L 156.32022 114.108413 
L 157.65942 131.853151 
L 163.01622 131.853151 
L 164.35542 126.943334 
L 169.71222 126.943334 
L 171.05142 119.434845 
L 176.40822 119.434845 
L 177.74742 109.419619 
L 183.10422 109.419619 
L 184.44342 97.261059 
L 209.88822 97.261059 
L 209.88822 97.261059 
" clip-path="url(#pb24a5f139b)" style="fill: none; stroke: #d9524f; stroke-width: 1.5; stroke-linecap: square"/>
   </g>
   <g id="line2d_39">
    <path d="M -1 100.599608 
L 29.09622 100.599608 
L 30.43542 102.108892 
L 35.79222 102.108892 
L 37.13142 100.910382 
L 42.48822 100.910382 
L 43.82742 99.458357 
L 49.18422 99.458357 
L 50.52342 98.270842 
L 62.57622 98.271752 
L 63.91542 96.885155 
L 69.27222 96.885155 
L 70.61142 98.27783 
L 75.96822 98.27783 
L 77.30742 93.023131 
L 82.66422 93.023131 
L 84.00342 91.766855 
L 89.36022 91.766855 
L 90.69942 92.938887 
L 109.44822 93.042345 
L 110.78742 95.688507 
L 116.14422 95.688507 
L 117.48342 98.253643 
L 129.53622 98.251004 
L 130.87542 95.785714 
L 142.92822 95.791862 
L 144.26742 105.663192 
L 149.62422 105.663192 
L 150.96342 119.449378 
L 156.32022 119.449378 
L 157.65942 139.334494 
L 163.01622 139.334494 
L 164.35542 133.830671 
L 169.71222 133.830671 
L 171.05142 125.417966 
L 176.40822 125.417966 
L 177.74742 114.203203 
L 183.10422 114.203203 
L 184.44342 100.599608 
L 209.88822 100.599608 
L 209.88822 100.599608 
" clip-path="url(#pb24a5f139b)" style="fill: none; stroke: #d9524f; stroke-width: 1.5; stroke-linecap: square"/>
   </g>
   <g id="line2d_40">
    <path d="M -1 102.313867 
L 29.09622 102.313867 
L 30.43542 103.905201 
L 35.79222 103.905201 
L 37.13142 102.641575 
L 42.48822 102.641575 
L 43.82742 101.110687 
L 49.18422 101.110687 
L 50.52342 99.858721 
L 62.57622 99.859633 
L 63.91542 98.397752 
L 69.27222 98.397752 
L 70.61142 99.865727 
L 75.96822 99.865727 
L 77.30742 94.325944 
L 82.66422 94.325944 
L 84.00342 93.001332 
L 89.36022 93.001332 
L 90.69942 94.236256 
L 109.44822 94.345198 
L 110.78742 97.134588 
L 116.14422 97.134588 
L 117.48342 99.838812 
L 129.53622 99.836167 
L 130.87542 97.237322 
L 142.92822 97.243484 
L 144.26742 107.651055 
L 149.62422 107.651055 
L 150.96342 122.191517 
L 156.32022 122.191517 
L 157.65942 143.175403 
L 163.01622 143.175403 
L 164.35542 137.366617 
L 169.71222 137.366617 
L 171.05142 128.489734 
L 176.40822 128.489734 
L 177.74742 116.659234 
L 183.10422 116.659234 
L 184.44342 102.313867 
L 209.88822 102.313867 
L 209.88822 102.313867 
" clip-path="url(#pb24a5f139b)" style="fill: none; stroke: #d9524f; stroke-width: 1.5; stroke-linecap: square"/>
   </g>
   <g id="line2d_41">
    <path d="M -1 73.983974 
L 29.09622 73.983974 
L 30.43542 73.665358 
L 35.79222 73.665358 
L 37.13142 73.332768 
L 42.48822 73.332768 
L 43.82742 73.014628 
L 49.18422 73.014628 
L 50.52342 72.71067 
L 55.88022 72.71067 
L 57.21942 73.358497 
L 62.57622 73.358497 
L 63.91542 74.610487 
L 69.27222 74.610487 
L 70.61142 77.476367 
L 75.96822 77.476367 
L 77.30742 81.58 
L 82.66422 81.58 
L 84.00342 85.971169 
L 89.36022 85.971169 
L 90.69942 88.942329 
L 96.05622 88.942329 
L 97.39542 89.729529 
L 102.75222 89.729529 
L 104.09142 88.37881 
L 109.44822 88.37881 
L 110.78742 88.977982 
L 122.84022 88.9795 
L 124.17942 87.43967 
L 129.53622 87.43967 
L 130.87542 85.314083 
L 136.23222 85.314083 
L 137.57142 84.510124 
L 142.92822 84.510124 
L 144.26742 82.714001 
L 149.62422 82.714001 
L 150.96342 80.207787 
L 156.32022 80.207787 
L 157.65942 76.736957 
L 163.01622 76.736957 
L 164.35542 75.342666 
L 169.71222 75.342666 
L 171.05142 74.655203 
L 176.40822 74.655203 
L 177.74742 74.271796 
L 183.10422 74.271796 
L 184.44342 73.983974 
L 209.88822 73.983974 
L 209.88822 73.983974 
" clip-path="url(#pb24a5f139b)" style="fill: none; stroke: #5cb85c; stroke-width: 1.5; stroke-linecap: square"/>
   </g>
   <g id="line2d_42">
    <path d="M -1 83.359115 
L 29.09622 83.359115 
L 30.43542 82.461628 
L 35.79222 82.461628 
L 37.13142 81.527825 
L 42.48822 81.527825 
L 43.82742 80.634234 
L 49.18422 80.634234 
L 50.52342 79.780364 
L 55.88022 79.780364 
L 57.21942 81.601573 
L 62.57622 81.601573 
L 63.91542 85.124201 
L 69.27222 85.124201 
L 70.61142 93.185485 
L 75.96822 93.185485 
L 77.30742 104.747749 
L 82.66422 104.747749 
L 84.00342 117.13181 
L 89.36022 117.13181 
L 90.69942 125.510398 
L 96.05622 125.510398 
L 97.39542 127.733115 
L 102.75222 127.733115 
L 104.09142 123.913217 
L 109.44822 123.913217 
L 110.78742 125.602432 
L 122.84022 125.604048 
L 124.17942 121.255748 
L 129.53622 121.255748 
L 130.87542 115.257312 
L 136.23222 115.257312 
L 137.57142 112.976342 
L 142.92822 112.976342 
L 144.26742 107.894033 
L 149.62422 107.894033 
L 150.96342 100.822942 
L 156.32022 100.822942 
L 157.65942 91.029669 
L 163.01622 91.029669 
L 164.35542 87.124481 
L 169.71222 87.124481 
L 171.05142 85.21781 
L 176.40822 85.21781 
L 177.74742 84.154975 
L 183.10422 84.154975 
L 184.44342 83.359115 
L 209.88822 83.359115 
L 209.88822 83.359115 
" clip-path="url(#pb24a5f139b)" style="fill: none; stroke: #5cb85c; stroke-width: 1.5; stroke-linecap: square"/>
   </g>
   <g id="line2d_43">
    <path d="M -1 72.875795 
L 29.09622 72.875795 
L 30.43542 72.737114 
L 35.79222 72.737114 
L 37.13142 72.581586 
L 42.48822 72.581586 
L 43.82742 72.735052 
L 49.18422 72.735052 
L 50.52342 72.873437 
L 55.88022 72.873437 
L 57.21942 73.13764 
L 62.57622 73.13764 
L 63.91542 73.433376 
L 69.27222 73.433376 
L 70.61142 75.007182 
L 75.96822 75.007182 
L 77.30742 77.364865 
L 82.66422 77.364865 
L 84.00342 79.887874 
L 89.36022 79.887874 
L 90.69942 84.933363 
L 96.05622 84.933363 
L 97.39542 85.790606 
L 102.75222 85.790606 
L 104.09142 86.746312 
L 109.44822 86.746312 
L 110.78742 87.203876 
L 122.84022 87.187145 
L 124.17942 86.259756 
L 129.53622 86.259756 
L 130.87542 85.860456 
L 136.23222 85.860456 
L 137.57142 90.507692 
L 142.92822 90.507692 
L 144.26742 92.313727 
L 149.62422 92.313727 
L 150.96342 88.613013 
L 156.32022 88.613013 
L 157.65942 86.81951 
L 163.01622 86.81951 
L 164.35542 81.557674 
L 169.71222 81.557674 
L 171.05142 74.16964 
L 176.40822 74.16964 
L 177.74742 72.636494 
L 183.10422 72.636494 
L 184.44342 72.875795 
L 209.88822 72.875795 
L 209.88822 72.875795 
" clip-path="url(#pb24a5f139b)" style="fill: none; stroke: #337ab7; stroke-width: 1.5; stroke-linecap: square"/>
   </g>
   <g id="line2d_44">
    <path d="M -1 75.308115 
L 29.09622 75.308115 
L 30.43542 75.085925 
L 35.79222 75.085925 
L 37.13142 74.83776 
L 42.48822 74.83776 
L 43.82742 75.083856 
L 49.18422 75.083856 
L 50.52342 75.305748 
L 55.88022 75.305748 
L 57.21942 75.728059 
L 62.57622 75.728059 
L 63.91542 76.201071 
L 69.27222 76.201071 
L 70.61142 78.718055 
L 75.96822 78.718055 
L 77.30742 82.494688 
L 82.66422 82.494688 
L 84.00342 86.53901 
L 89.36022 86.53901 
L 90.69942 94.641281 
L 96.05622 94.641281 
L 97.39542 96.019382 
L 102.75222 96.019382 
L 104.09142 97.557383 
L 109.44822 97.557383 
L 110.78742 98.292383 
L 122.84022 98.264552 
L 124.17942 96.773256 
L 129.53622 96.773256 
L 130.87542 96.132877 
L 136.23222 96.132877 
L 137.57142 103.613417 
L 142.92822 103.613417 
L 144.26742 106.520275 
L 149.62422 106.520275 
L 150.96342 100.556093 
L 156.32022 100.556093 
L 157.65942 97.664142 
L 163.01622 97.664142 
L 164.35542 89.209277 
L 169.71222 89.209277 
L 171.05142 77.369135 
L 176.40822 77.369135 
L 177.74742 74.920471 
L 183.10422 74.920471 
L 184.44342 75.308115 
L 209.88822 75.308115 
L 209.88822 75.308115 
" clip-path="url(#pb24a5f139b)" style="fill: none; stroke: #337ab7; stroke-width: 1.5; stroke-linecap: square"/>
   </g>
   <g id="line2d_45">
    <path d="M -1 77.740404 
L 29.09622 77.740404 
L 30.43542 77.434708 
L 35.79222 77.434708 
L 37.13142 77.093907 
L 42.48822 77.093907 
L 43.82742 77.432632 
L 49.18422 77.432632 
L 50.52342 77.738028 
L 55.88022 77.738028 
L 57.21942 78.318444 
L 62.57622 78.318444 
L 63.91542 78.968727 
L 69.27222 78.968727 
L 70.61142 82.428856 
L 75.96822 82.428856 
L 77.30742 87.624368 
L 82.66422 87.624368 
L 84.00342 93.189897 
L 89.36022 93.189897 
L 90.69942 104.348632 
L 96.05622 104.348632 
L 97.39542 106.247519 
L 102.75222 106.247519 
L 104.09142 108.367731 
L 109.44822 108.367731 
L 110.78742 109.380123 
L 122.84022 109.341195 
L 124.17942 107.286077 
L 129.53622 107.286077 
L 130.87542 106.404653 
L 136.23222 106.404653 
L 137.57142 116.718017 
L 142.92822 116.718017 
L 144.26742 120.725465 
L 149.62422 120.725465 
L 150.96342 112.498265 
L 156.32022 112.498265 
L 157.65942 108.508046 
L 163.01622 108.508046 
L 164.35542 96.860543 
L 169.71222 96.860543 
L 171.05142 80.568576 
L 176.40822 80.568576 
L 177.74742 77.204421 
L 183.10422 77.204421 
L 184.44342 77.740404 
L 209.88822 77.740404 
L 209.88822 77.740404 
" clip-path="url(#pb24a5f139b)" style="fill: none; stroke: #337ab7; stroke-width: 1.5; stroke-linecap: square"/>
   </g>
   <g id="line2d_46">
    <path d="M -1 78.877095 
L 29.09622 78.877095 
L 30.43542 78.532359 
L 35.79222 78.532359 
L 37.13142 78.148251 
L 42.48822 78.148251 
L 43.82742 78.530279 
L 49.18422 78.530279 
L 50.52342 78.874715 
L 55.88022 78.874715 
L 57.21942 79.529049 
L 62.57622 79.529049 
L 63.91542 80.262216 
L 69.27222 80.262216 
L 70.61142 84.163403 
L 75.96822 84.163403 
L 77.30742 90.022732 
L 82.66422 90.022732 
L 84.00342 96.300358 
L 89.36022 96.300358 
L 90.69942 108.891289 
L 96.05622 108.891289 
L 97.39542 111.034417 
L 102.75222 111.034417 
L 104.09142 113.427756 
L 109.44822 113.427756 
L 110.78742 114.570307 
L 122.84022 114.526172 
L 124.17942 112.206515 
L 129.53622 112.206515 
L 130.87542 111.21202 
L 136.23222 111.21202 
L 137.57142 122.85519 
L 142.92822 122.85519 
L 144.26742 127.379904 
L 149.62422 127.379904 
L 150.96342 118.0895 
L 156.32022 118.0895 
L 157.65942 113.583815 
L 163.01622 113.583815 
L 164.35542 100.439541 
L 169.71222 100.439541 
L 171.05142 82.063969 
L 176.40822 82.063969 
L 177.74742 78.271763 
L 183.10422 78.271763 
L 184.44342 78.877095 
L 209.88822 78.877095 
L 209.88822 78.877095 
" clip-path="url(#pb24a5f139b)" style="fill: none; stroke: #337ab7; stroke-width: 1.5; stroke-linecap: square"/>
   </g>
   <g id="line2d_47">
    <path d="M -1 80.013779 
L 29.09622 80.013779 
L 30.43542 79.630003 
L 35.79222 79.630003 
L 37.13142 79.202589 
L 42.48822 79.202589 
L 43.82742 79.62792 
L 49.18422 79.62792 
L 50.52342 80.011395 
L 55.88022 80.011395 
L 57.21942 80.739647 
L 62.57622 80.739647 
L 63.91542 81.555696 
L 69.27222 81.555696 
L 70.61142 85.897934 
L 75.96822 85.897934 
L 77.30742 92.421064 
L 82.66422 92.421064 
L 84.00342 99.410765 
L 89.36022 99.410765 
L 90.69942 113.433822 
L 96.05622 113.433822 
L 97.39542 115.821175 
L 102.75222 115.821175 
L 104.09142 118.487621 
L 109.44822 118.487621 
L 110.78742 119.760322 
L 122.84022 119.71098 
L 124.17942 117.126803 
L 129.53622 117.126803 
L 130.87542 116.019245 
L 136.23222 116.019245 
L 137.57142 128.992115 
L 142.92822 128.992115 
L 144.26742 134.034042 
L 149.62422 134.034042 
L 150.96342 123.680534 
L 156.32022 123.680534 
L 157.65942 118.659424 
L 163.01622 118.659424 
L 164.35542 104.018466 
L 169.71222 104.018466 
L 171.05142 83.559351 
L 176.40822 83.559351 
L 177.74742 79.339098 
L 183.10422 79.339098 
L 184.44342 80.013779 
L 209.88822 80.013779 
L 209.88822 80.013779 
" clip-path="url(#pb24a5f139b)" style="fill: none; stroke: #337ab7; stroke-width: 1.5; stroke-linecap: square"/>
   </g>
   <g id="line2d_48">
    <path d="M -1 80.491514 
L 29.09622 80.491514 
L 30.43542 80.091358 
L 35.79222 80.091358 
L 37.13142 79.645772 
L 42.48822 79.645772 
L 43.82742 80.089273 
L 49.18422 80.089273 
L 50.52342 80.489128 
L 55.88022 80.489128 
L 57.21942 81.248387 
L 62.57622 81.248387 
L 63.91542 82.099196 
L 69.27222 82.099196 
L 70.61142 86.626241 
L 75.96822 86.626241 
L 77.30742 93.426985 
L 82.66422 93.426985 
L 84.00342 100.713745 
L 89.36022 100.713745 
L 90.69942 115.33171 
L 96.05622 115.33171 
L 97.39542 117.820149 
L 102.75222 117.820149 
L 104.09142 120.599502 
L 109.44822 120.599502 
L 110.78742 121.92596 
L 122.84022 121.874468 
L 124.17942 119.181 
L 129.53622 119.181 
L 130.87542 118.026686 
L 136.23222 118.026686 
L 137.57142 131.547816 
L 142.92822 131.547816 
L 144.26742 136.801988 
L 149.62422 136.801988 
L 150.96342 126.01159 
L 156.32022 126.01159 
L 157.65942 120.777809 
L 163.01622 120.777809 
L 164.35542 105.516456 
L 169.71222 105.516456 
L 171.05142 84.187485 
L 176.40822 84.187485 
L 177.74742 79.787735 
L 183.10422 79.787735 
L 184.44342 80.491514 
L 209.88822 80.491514 
L 209.88822 80.491514 
" clip-path="url(#pb24a5f139b)" style="fill: none; stroke: #337ab7; stroke-width: 1.5; stroke-linecap: square"/>
   </g>
   <g id="line2d_49">
    <path d="M -1 80.969247 
L 29.09622 80.969247 
L 30.43542 80.552712 
L 35.79222 80.552712 
L 37.13142 80.088954 
L 42.48822 80.088954 
L 43.82742 80.550625 
L 49.18422 80.550625 
L 50.52342 80.966859 
L 55.88022 80.966859 
L 57.21942 81.757126 
L 62.57622 81.757126 
L 63.91542 82.642694 
L 69.27222 82.642694 
L 70.61142 87.354545 
L 75.96822 87.354545 
L 77.30742 94.432901 
L 82.66422 94.432901 
L 84.00342 102.016717 
L 89.36022 102.016717 
L 90.69942 117.229578 
L 96.05622 117.229578 
L 97.39542 119.819101 
L 102.75222 119.819101 
L 104.09142 122.711359 
L 109.44822 122.711359 
L 110.78742 124.09157 
L 122.84022 124.037928 
L 124.17942 121.235172 
L 129.53622 121.235172 
L 130.87542 120.034104 
L 136.23222 120.034104 
L 137.57142 134.10348 
L 142.92822 134.10348 
L 144.26742 139.569889 
L 149.62422 139.569889 
L 150.96342 128.342616 
L 156.32022 128.342616 
L 157.65942 122.896169 
L 163.01622 122.896169 
L 164.35542 107.014434 
L 169.71222 107.014434 
L 171.05142 84.815616 
L 176.40822 84.815616 
L 177.74742 80.236371 
L 183.10422 80.236371 
L 184.44342 80.969247 
L 209.88822 80.969247 
L 209.88822 80.969247 
" clip-path="url(#pb24a5f139b)" style="fill: none; stroke: #337ab7; stroke-width: 1.5; stroke-linecap: square"/>
   </g>
   <g id="line2d_50">
    <path d="M -1 81.447025 
L 29.09622 81.447025 
L 30.43542 81.014109 
L 35.79222 81.014109 
L 37.13142 80.532177 
L 42.48822 80.532177 
L 43.82742 81.012021 
L 49.18422 81.012021 
L 50.52342 81.444636 
L 55.88022 81.444636 
L 57.21942 82.265912 
L 62.57622 82.265912 
L 63.91542 83.186243 
L 69.27222 83.186243 
L 70.61142 88.082916 
L 75.96822 88.082916 
L 77.30742 95.43891 
L 82.66422 95.43891 
L 84.00342 103.319806 
L 89.36022 103.319806 
L 90.69942 119.127613 
L 96.05622 119.127613 
L 97.39542 121.818229 
L 102.75222 121.818229 
L 104.09142 124.823401 
L 109.44822 124.823401 
L 110.78742 126.25737 
L 122.84022 126.201578 
L 124.17942 123.289525 
L 129.53622 123.289525 
L 130.87542 122.041699 
L 136.23222 122.041699 
L 137.57142 136.659363 
L 142.92822 136.659363 
L 144.26742 142.338026 
L 149.62422 142.338026 
L 150.96342 130.673843 
L 156.32022 130.673843 
L 157.65942 125.014715 
L 163.01622 125.014715 
L 164.35542 108.512547 
L 169.71222 108.512547 
L 171.05142 85.443806 
L 176.40822 85.443806 
L 177.74742 80.685049 
L 183.10422 80.685049 
L 184.44342 81.447025 
L 209.88822 81.447025 
L 209.88822 81.447025 
" clip-path="url(#pb24a5f139b)" style="fill: none; stroke: #337ab7; stroke-width: 1.5; stroke-linecap: square"/>
   </g>
   <g id="line2d_51">
    <path d="M -1 81.606173 
L 29.09622 81.606173 
L 30.43542 81.167802 
L 35.79222 81.167802 
L 37.13142 80.679818 
L 42.48822 80.679818 
L 43.82742 81.165714 
L 49.18422 81.165714 
L 50.52342 81.603783 
L 55.88022 81.603783 
L 57.21942 82.435385 
L 62.57622 82.435385 
L 63.91542 83.36729 
L 69.27222 83.36729 
L 70.61142 88.325488 
L 75.96822 88.325488 
L 77.30742 95.773866 
L 82.66422 95.773866 
L 84.00342 103.753567 
L 89.36022 103.753567 
L 90.69942 119.759077 
L 96.05622 119.759077 
L 97.39542 122.483262 
L 102.75222 122.483262 
L 104.09142 125.525921 
L 109.44822 125.525921 
L 110.78742 126.977735 
L 122.84022 126.921229 
L 124.17942 123.972894 
L 129.53622 123.972894 
L 130.87542 122.709544 
L 136.23222 122.709544 
L 137.57142 137.509148 
L 142.92822 137.509148 
L 144.26742 143.258182 
L 149.62422 143.258182 
L 150.96342 131.449107 
L 156.32022 131.449107 
L 157.65942 125.719394 
L 163.01622 125.719394 
L 164.35542 109.01114 
L 169.71222 109.01114 
L 171.05142 85.653031 
L 176.40822 85.653031 
L 177.74742 80.834507 
L 183.10422 80.834507 
L 184.44342 81.606173 
L 209.88822 81.606173 
L 209.88822 81.606173 
" clip-path="url(#pb24a5f139b)" style="fill: none; stroke: #337ab7; stroke-width: 1.5; stroke-linecap: square"/>
   </g>
   <g id="line2d_52">
    <path d="M -1 80.672288 
L 29.09622 80.672288 
L 30.43542 80.265926 
L 35.79222 80.265926 
L 37.13142 79.813455 
L 42.48822 79.813455 
L 43.82742 80.263841 
L 49.18422 80.263841 
L 50.52342 80.669901 
L 55.88022 80.669901 
L 57.21942 81.44091 
L 62.57622 81.44091 
L 63.91542 82.304893 
L 69.27222 82.304893 
L 70.61142 86.902014 
L 75.96822 86.902014 
L 77.30742 93.808119 
L 82.66422 93.808119 
L 84.00342 101.207699 
L 89.36022 101.207699 
L 90.69942 116.051598 
L 96.05622 116.051598 
L 97.39542 118.578391 
L 102.75222 118.578391 
L 104.09142 121.40056 
L 109.44822 121.40056 
L 110.78742 122.747391 
L 122.84022 122.695085 
L 124.17942 119.960186 
L 129.53622 119.960186 
L 130.87542 118.78814 
L 136.23222 118.78814 
L 137.57142 132.516806 
L 142.92822 132.516806 
L 144.26742 137.850986 
L 149.62422 137.850986 
L 150.96342 126.895665 
L 156.32022 126.895665 
L 157.65942 121.581331 
L 163.01622 121.581331 
L 164.35542 106.084489 
L 169.71222 106.084489 
L 171.05142 84.425267 
L 176.40822 84.425267 
L 177.74742 79.957485 
L 183.10422 79.957485 
L 184.44342 80.672288 
L 209.88822 80.672288 
L 209.88822 80.672288 
" clip-path="url(#pb24a5f139b)" style="fill: none; stroke: #337ab7; stroke-width: 1.5; stroke-linecap: square"/>
   </g>
   <g id="line2d_53">
    <path d="M -1 82.477893 
L 29.09622 82.477893 
L 30.43542 82.009489 
L 35.79222 82.009489 
L 37.13142 81.488197 
L 42.48822 81.488197 
L 43.82742 82.007398 
L 49.18422 82.007398 
L 50.52342 82.4755 
L 55.88022 82.4755 
L 57.21942 83.363985 
L 62.57622 83.363985 
L 63.91542 84.359703 
L 69.27222 84.359703 
L 70.61142 89.657986 
L 75.96822 89.657986 
L 77.30742 97.619868 
L 82.66422 97.619868 
L 84.00342 106.152668 
L 89.36022 106.152668 
L 90.69942 123.277772 
L 96.05622 123.277772 
L 97.39542 126.193859 
L 102.75222 126.193859 
L 104.09142 129.45145 
L 109.44822 129.45145 
L 110.78742 131.005818 
L 122.84022 130.945207 
L 124.17942 127.788533 
L 129.53622 127.788533 
L 130.87542 126.436235 
L 136.23222 126.436235 
L 137.57142 142.285802 
L 142.92822 142.285802 
L 144.26742 148.445529 
L 149.62422 148.445529 
L 150.96342 135.793687 
L 156.32022 135.793687 
L 157.65942 129.657324 
L 163.01622 129.657324 
L 164.35542 111.775448 
L 169.71222 111.775448 
L 171.05142 86.801017 
L 176.40822 86.801017 
L 177.74742 81.652882 
L 183.10422 81.652882 
L 184.44342 82.477893 
L 209.88822 82.477893 
L 209.88822 82.477893 
" clip-path="url(#pb24a5f139b)" style="fill: none; stroke: #337ab7; stroke-width: 1.5; stroke-linecap: square"/>
   </g>
   <g id="line2d_54">
    <path d="M -1 83.798724 
L 29.09622 83.798724 
L 30.43542 83.28494 
L 35.79222 83.28494 
L 37.13142 82.71331 
L 42.48822 82.71331 
L 43.82742 83.282845 
L 49.18422 83.282845 
L 50.52342 83.796326 
L 55.88022 83.796326 
L 57.21942 84.770737 
L 62.57622 84.770737 
L 63.91542 85.862807 
L 69.27222 85.862807 
L 70.61142 91.673905 
L 75.96822 91.673905 
L 77.30742 100.407871 
L 82.66422 100.407871 
L 84.00342 109.769269 
L 89.36022 109.769269 
L 90.69942 128.561989 
L 96.05622 128.561989 
L 97.39542 131.762606 
L 102.75222 131.762606 
L 104.09142 135.338428 
L 109.44822 135.338428 
L 110.78742 137.044467 
L 122.84022 136.977788 
L 124.17942 133.512867 
L 129.53622 133.512867 
L 130.87542 132.02883 
L 136.23222 132.02883 
L 137.57142 149.42828 
L 142.92822 149.42828 
L 144.26742 156.191171 
L 149.62422 156.191171 
L 150.96342 142.299739 
L 156.32022 142.299739 
L 157.65942 135.562648 
L 163.01622 135.562648 
L 164.35542 115.937442 
L 169.71222 115.937442 
L 171.05142 88.538857 
L 176.40822 88.538857 
L 177.74742 82.893102 
L 183.10422 82.893102 
L 184.44342 83.798724 
L 209.88822 83.798724 
L 209.88822 83.798724 
" clip-path="url(#pb24a5f139b)" style="fill: none; stroke: #337ab7; stroke-width: 1.5; stroke-linecap: square"/>
   </g>
   <g id="line2d_55">
    <path d="M -1 83.798724 
L 29.09622 83.798724 
L 30.43542 83.28494 
L 35.79222 83.28494 
L 37.13142 82.71331 
L 42.48822 82.71331 
L 43.82742 83.282845 
L 49.18422 83.282845 
L 50.52342 83.796326 
L 55.88022 83.796326 
L 57.21942 84.770737 
L 62.57622 84.770737 
L 63.91542 85.862807 
L 69.27222 85.862807 
L 70.61142 91.673905 
L 75.96822 91.673905 
L 77.30742 100.407871 
L 82.66422 100.407871 
L 84.00342 109.769269 
L 89.36022 109.769269 
L 90.69942 128.561989 
L 96.05622 128.561989 
L 97.39542 131.762606 
L 102.75222 131.762606 
L 104.09142 135.338428 
L 109.44822 135.338428 
L 110.78742 137.044467 
L 122.84022 136.977788 
L 124.17942 133.512867 
L 129.53622 133.512867 
L 130.87542 132.02883 
L 136.23222 132.02883 
L 137.57142 149.42828 
L 142.92822 149.42828 
L 144.26742 156.191171 
L 149.62422 156.191171 
L 150.96342 142.299739 
L 156.32022 142.299739 
L 157.65942 135.562648 
L 163.01622 135.562648 
L 164.35542 115.937442 
L 169.71222 115.937442 
L 171.05142 88.538857 
L 176.40822 88.538857 
L 177.74742 82.893102 
L 183.10422 82.893102 
L 184.44342 83.798724 
L 209.88822 83.798724 
L 209.88822 83.798724 
" clip-path="url(#pb24a5f139b)" style="fill: none; stroke: #337ab7; stroke-width: 1.5; stroke-linecap: square"/>
   </g>
   <g id="line2d_56">
    <path d="M -1 82.319515 
L 29.09622 82.319515 
L 30.43542 81.856689 
L 35.79222 81.856689 
L 37.13142 81.341574 
L 42.48822 81.341574 
L 43.82742 81.854598 
L 49.18422 81.854598 
L 50.52342 82.317122 
L 55.88022 82.317122 
L 57.21942 83.195017 
L 62.57622 83.195017 
L 63.91542 84.178817 
L 69.27222 84.178817 
L 70.61142 89.412896 
L 75.96822 89.412896 
L 77.30742 97.275593 
L 82.66422 97.275593 
L 84.00342 105.698435 
L 89.36022 105.698435 
L 90.69942 122.590465 
L 96.05622 122.590465 
L 97.39542 125.465119 
L 102.75222 125.465119 
L 104.09142 128.67577 
L 109.44822 128.67577 
L 110.78742 130.207537 
L 122.84022 130.147834 
L 124.17942 127.036924 
L 129.53622 127.036924 
L 130.87542 125.704001 
L 136.23222 125.704001 
L 137.57142 141.318459 
L 142.92822 141.318459 
L 144.26742 147.382252 
L 149.62422 147.382252 
L 150.96342 134.924815 
L 156.32022 134.924815 
L 157.65942 128.878916 
L 163.01622 128.878916 
L 164.35542 111.246767 
L 169.71222 111.246767 
L 171.05142 86.590905 
L 176.40822 86.590905 
L 177.74742 81.504406 
L 183.10422 81.504406 
L 184.44342 82.319515 
L 209.88822 82.319515 
L 209.88822 82.319515 
" clip-path="url(#pb24a5f139b)" style="fill: none; stroke: #337ab7; stroke-width: 1.5; stroke-linecap: square"/>
   </g>
   <g id="line2d_57">
    <path d="M -1 82.196001 
L 29.09622 82.196001 
L 30.43542 81.737149 
L 35.79222 81.737149 
L 37.13142 81.226465 
L 42.48822 81.226465 
L 43.82742 81.735059 
L 49.18422 81.735059 
L 50.52342 82.193609 
L 55.88022 82.193609 
L 57.21942 83.064035 
L 62.57622 83.064035 
L 63.91542 84.039543 
L 69.27222 84.039543 
L 70.61142 89.231046 
L 75.96822 89.231046 
L 77.30742 97.034742 
L 82.66422 97.034742 
L 84.00342 105.401492 
L 89.36022 105.401492 
L 90.69942 122.205551 
L 96.05622 122.205551 
L 97.39542 125.068806 
L 102.75222 125.068806 
L 104.09142 128.268041 
L 109.44822 128.268041 
L 110.78742 129.794876 
L 122.84022 129.735364 
L 124.17942 126.634851 
L 129.53622 126.634851 
L 130.87542 125.306782 
L 136.23222 125.306782 
L 137.57142 140.880307 
L 142.92822 140.880307 
L 144.26742 146.938403 
L 149.62422 146.938403 
L 150.96342 134.499084 
L 156.32022 134.499084 
L 157.65942 128.470579 
L 163.01622 128.470579 
L 164.35542 110.917245 
L 169.71222 110.917245 
L 171.05142 86.431817 
L 176.40822 86.431817 
L 177.74742 81.387964 
L 183.10422 81.387964 
L 184.44342 82.196001 
L 209.88822 82.196001 
L 209.88822 82.196001 
" clip-path="url(#pb24a5f139b)" style="fill: none; stroke: #337ab7; stroke-width: 1.5; stroke-linecap: square"/>
   </g>
   <g id="line2d_58">
    <path d="M -1 83.326696 
L 29.09622 83.326696 
L 30.43542 82.828916 
L 35.79222 82.828916 
L 37.13142 82.275057 
L 42.48822 82.275057 
L 43.82742 82.826822 
L 49.18422 82.826822 
L 50.52342 83.324299 
L 55.88022 83.324299 
L 57.21942 84.268451 
L 62.57622 84.268451 
L 63.91542 85.326657 
L 69.27222 85.326657 
L 70.61142 90.958761 
L 75.96822 90.958761 
L 77.30742 99.427348 
L 82.66422 99.427348 
L 84.00342 108.509827 
L 89.36022 108.509827 
L 90.69942 126.761848 
L 96.05622 126.761848 
L 97.39542 129.873247 
L 102.75222 129.873247 
L 104.09142 133.35042 
L 109.44822 133.35042 
L 110.78742 135.009878 
L 122.84022 134.945058 
L 124.17942 131.575125 
L 129.53622 131.575125 
L 130.87542 130.132035 
L 136.23222 130.132035 
L 137.57142 147.063663 
L 142.92822 147.063663 
L 144.26742 153.653407 
L 149.62422 153.653407 
L 150.96342 140.123431 
L 156.32022 140.123431 
L 157.65942 133.568996 
L 163.01622 133.568996 
L 164.35542 114.497985 
L 169.71222 114.497985 
L 171.05142 87.920513 
L 176.40822 87.920513 
L 177.74742 82.449513 
L 183.10422 82.449513 
L 184.44342 83.326696 
L 209.88822 83.326696 
L 209.88822 83.326696 
" clip-path="url(#pb24a5f139b)" style="fill: none; stroke: #337ab7; stroke-width: 1.5; stroke-linecap: square"/>
   </g>
   <g id="line2d_59">
    <path d="M -1 84.980996 
L 29.09622 84.980996 
L 30.43542 84.426266 
L 35.79222 84.426266 
L 37.13142 83.809245 
L 42.48822 83.809245 
L 43.82742 84.424167 
L 49.18422 84.424167 
L 50.52342 84.978593 
L 55.88022 84.978593 
L 57.21942 86.030599 
L 62.57622 86.030599 
L 63.91542 87.209783 
L 69.27222 87.209783 
L 70.61142 93.486409 
L 75.96822 93.486409 
L 77.30742 102.92751 
L 82.66422 102.92751 
L 84.00342 113.056723 
L 89.36022 113.056723 
L 90.69942 133.425901 
L 96.05622 133.425901 
L 97.39542 136.900066 
L 102.75222 136.900066 
L 104.09142 140.783541 
L 109.44822 140.783541 
L 110.78742 142.636865 
L 122.84022 142.564286 
L 124.17942 138.800514 
L 129.53622 138.800514 
L 130.87542 137.189281 
L 136.23222 137.189281 
L 137.57142 156.106025 
L 142.92822 156.106025 
L 144.26742 163.472727 
L 149.62422 163.472727 
L 150.96342 148.348762 
L 156.32022 148.348762 
L 157.65942 141.025562 
L 163.01622 141.025562 
L 164.35542 119.735682 
L 169.71222 119.735682 
L 171.05142 90.098526 
L 176.40822 90.098526 
L 177.74742 84.002657 
L 183.10422 84.002657 
L 184.44342 84.980996 
L 209.88822 84.980996 
L 209.88822 84.980996 
" clip-path="url(#pb24a5f139b)" style="fill: none; stroke: #337ab7; stroke-width: 1.5; stroke-linecap: square"/>
   </g>
   <g id="line2d_60">
    <path d="M -1 82.556366 
L 29.09622 82.556366 
L 30.43542 82.085156 
L 35.79222 82.085156 
L 37.13142 81.560762 
L 42.48822 81.560762 
L 43.82742 82.083065 
L 49.18422 82.083065 
L 50.52342 82.553972 
L 55.88022 82.553972 
L 57.21942 83.447793 
L 62.57622 83.447793 
L 63.91542 84.449527 
L 69.27222 84.449527 
L 70.61142 89.780479 
L 75.96822 89.780479 
L 77.30742 97.793703 
L 82.66422 97.793703 
L 84.00342 106.384732 
L 89.36022 106.384732 
L 90.69942 123.638235 
L 96.05622 123.638235 
L 97.39542 126.577905 
L 102.75222 126.577905 
L 104.09142 129.86251 
L 109.44822 129.86251 
L 110.78742 131.429998 
L 122.84022 131.36886 
L 124.17942 128.185702 
L 129.53622 128.185702 
L 130.87542 126.822282 
L 136.23222 126.822282 
L 137.57142 142.810562 
L 142.92822 142.810562 
L 144.26742 149.029378 
L 149.62422 149.029378 
L 150.96342 136.259333 
L 156.32022 136.259333 
L 157.65942 130.069966 
L 163.01622 130.069966 
L 164.35542 112.047765 
L 169.71222 112.047765 
L 171.05142 86.905659 
L 176.40822 86.905659 
L 177.74742 81.726377 
L 183.10422 81.726377 
L 184.44342 82.556366 
L 209.88822 82.556366 
L 209.88822 82.556366 
" clip-path="url(#pb24a5f139b)" style="fill: none; stroke: #337ab7; stroke-width: 1.5; stroke-linecap: square"/>
   </g>
   <g id="line2d_61">
    <path d="M -1 82.501695 
L 29.09622 82.501695 
L 30.43542 82.03261 
L 35.79222 82.03261 
L 37.13142 81.510552 
L 42.48822 81.510552 
L 43.82742 82.030519 
L 49.18422 82.030519 
L 50.52342 82.499301 
L 55.88022 82.499301 
L 57.21942 83.389048 
L 62.57622 83.389048 
L 63.91542 84.386137 
L 69.27222 84.386137 
L 70.61142 89.690957 
L 75.96822 89.690957 
L 77.30742 97.66021 
L 82.66422 97.66021 
L 84.00342 106.197523 
L 89.36022 106.197523 
L 90.69942 123.320593 
L 96.05622 123.320593 
L 97.39542 126.234795 
L 102.75222 126.234795 
L 104.09142 129.489733 
L 109.44822 129.489733 
L 110.78742 131.042631 
L 122.84022 130.982082 
L 124.17942 127.828245 
L 129.53622 127.828245 
L 130.87542 126.476993 
L 136.23222 126.476993 
L 137.57142 142.307863 
L 142.92822 142.307863 
L 144.26742 148.456446 
L 149.62422 148.456446 
L 150.96342 135.82513 
L 156.32022 135.82513 
L 157.65942 129.695435 
L 163.01622 129.695435 
L 164.35542 111.821301 
L 169.71222 111.821301 
L 171.05142 86.830604 
L 176.40822 86.830604 
L 177.74742 81.675468 
L 183.10422 81.675468 
L 184.44342 82.501695 
L 209.88822 82.501695 
L 209.88822 82.501695 
" clip-path="url(#pb24a5f139b)" style="fill: none; stroke: #337ab7; stroke-width: 1.5; stroke-linecap: square"/>
   </g>
   <g id="line2d_62">
    <path d="M -1 82.133164 
L 29.09622 82.133164 
L 30.43542 81.676732 
L 35.79222 81.676732 
L 37.13142 81.168709 
L 42.48822 81.168709 
L 43.82742 81.674642 
L 49.18422 81.674642 
L 50.52342 82.130772 
L 55.88022 82.130772 
L 57.21942 82.996564 
L 62.57622 82.996564 
L 63.91542 83.966795 
L 69.27222 83.966795 
L 70.61142 89.128721 
L 75.96822 89.128721 
L 77.30742 96.883016 
L 82.66422 96.883016 
L 84.00342 105.189891 
L 89.36022 105.189891 
L 90.69942 121.850061 
L 96.05622 121.850061 
L 97.39542 124.685408 
L 102.75222 124.685408 
L 104.09142 127.8522 
L 109.44822 127.8522 
L 110.78742 129.363103 
L 122.84022 129.304234 
L 124.17942 126.235756 
L 129.53622 126.235756 
L 130.87542 124.920999 
L 136.23222 124.920999 
L 137.57142 140.323075 
L 142.92822 140.323075 
L 144.26742 146.305138 
L 149.62422 146.305138 
L 150.96342 134.016264 
L 156.32022 134.016264 
L 157.65942 128.052822 
L 163.01622 128.052822 
L 164.35542 110.662144 
L 169.71222 110.662144 
L 171.05142 86.345843 
L 176.40822 86.345843 
L 177.74742 81.329412 
L 183.10422 81.329412 
L 184.44342 82.133164 
L 209.88822 82.133164 
L 209.88822 82.133164 
" clip-path="url(#pb24a5f139b)" style="fill: none; stroke: #337ab7; stroke-width: 1.5; stroke-linecap: square"/>
   </g>
   <g id="line2d_63">
    <path d="M -1 48.927273 
L 209.88822 48.927273 
" clip-path="url(#pb24a5f139b)" style="fill: none; stroke-dasharray: 1.5,2.475; stroke-dashoffset: 0; stroke: #d9524f; stroke-width: 1.5"/>
   </g>
   <g id="line2d_64">
    <path d="M -1 114.544096 
L 209.88822 114.544096 
" clip-path="url(#pb24a5f139b)" style="fill: none; stroke-dasharray: 1.5,2.475; stroke-dashoffset: 0; stroke: #5cb85c; stroke-width: 1.5"/>
   </g>
   <g id="patch_3">
    <path d="M 27 169.2 
L 27 43.2 
" style="fill: none; stroke: #000000; stroke-width: 0.8; stroke-linejoin: miter; stroke-linecap: square"/>
   </g>
   <g id="patch_4">
    <path d="M 194.4 169.2 
L 194.4 43.2 
" style="fill: none; stroke: #000000; stroke-width: 0.8; stroke-linejoin: miter; stroke-linecap: square"/>
   </g>
   <g id="patch_5">
    <path d="M 27 169.2 
L 194.4 169.2 
" style="fill: none; stroke: #000000; stroke-width: 0.8; stroke-linejoin: miter; stroke-linecap: square"/>
   </g>
   <g id="patch_6">
    <path d="M 27 43.2 
L 194.4 43.2 
" style="fill: none; stroke: #000000; stroke-width: 0.8; stroke-linejoin: miter; stroke-linecap: square"/>
   </g>
  </g>
  <g id="axes_2">
   <g id="patch_7">
    <path d="M 27 320.4 
L 194.4 320.4 
L 194.4 194.4 
L 27 194.4 
z
" style="fill: #ffffff"/>
   </g>
   <g id="matplotlib.axis_3">
    <g id="xtick_8">
     <g id="line2d_65">
      <path d="M 27 320.4 
L 27 194.4 
" clip-path="url(#p85ac9aea2d)" style="fill: none; stroke: #b0b0b0; stroke-width: 0.8; stroke-linecap: square"/>
     </g>
     <g id="line2d_66">
      <g>
       <use xlink:href="#me48f3d8b26" x="27" y="320.4" style="stroke: #000000; stroke-width: 0.8"/>
      </g>
     </g>
     <g id="text_13">
      <!-- 0 -->
      <g transform="translate(24.5 334.34375) scale(0.1 -0.1)">
       <use xlink:href="#TimesNewRomanPSMT-30"/>
      </g>
     </g>
    </g>
    <g id="xtick_9">
     <g id="line2d_67">
      <path d="M 54.9 320.4 
L 54.9 194.4 
" clip-path="url(#p85ac9aea2d)" style="fill: none; stroke: #b0b0b0; stroke-width: 0.8; stroke-linecap: square"/>
     </g>
     <g id="line2d_68">
      <g>
       <use xlink:href="#me48f3d8b26" x="54.9" y="320.4" style="stroke: #000000; stroke-width: 0.8"/>
      </g>
     </g>
     <g id="text_14">
      <!-- 4 -->
      <g transform="translate(52.4 334.34375) scale(0.1 -0.1)">
       <use xlink:href="#TimesNewRomanPSMT-34"/>
      </g>
     </g>
    </g>
    <g id="xtick_10">
     <g id="line2d_69">
      <path d="M 82.8 320.4 
L 82.8 194.4 
" clip-path="url(#p85ac9aea2d)" style="fill: none; stroke: #b0b0b0; stroke-width: 0.8; stroke-linecap: square"/>
     </g>
     <g id="line2d_70">
      <g>
       <use xlink:href="#me48f3d8b26" x="82.8" y="320.4" style="stroke: #000000; stroke-width: 0.8"/>
      </g>
     </g>
     <g id="text_15">
      <!-- 8 -->
      <g transform="translate(80.3 334.34375) scale(0.1 -0.1)">
       <use xlink:href="#TimesNewRomanPSMT-38"/>
      </g>
     </g>
    </g>
    <g id="xtick_11">
     <g id="line2d_71">
      <path d="M 110.7 320.4 
L 110.7 194.4 
" clip-path="url(#p85ac9aea2d)" style="fill: none; stroke: #b0b0b0; stroke-width: 0.8; stroke-linecap: square"/>
     </g>
     <g id="line2d_72">
      <g>
       <use xlink:href="#me48f3d8b26" x="110.7" y="320.4" style="stroke: #000000; stroke-width: 0.8"/>
      </g>
     </g>
     <g id="text_16">
      <!-- 12 -->
      <g transform="translate(105.7 334.34375) scale(0.1 -0.1)">
       <use xlink:href="#TimesNewRomanPSMT-31"/>
       <use xlink:href="#TimesNewRomanPSMT-32" x="50"/>
      </g>
     </g>
    </g>
    <g id="xtick_12">
     <g id="line2d_73">
      <path d="M 138.6 320.4 
L 138.6 194.4 
" clip-path="url(#p85ac9aea2d)" style="fill: none; stroke: #b0b0b0; stroke-width: 0.8; stroke-linecap: square"/>
     </g>
     <g id="line2d_74">
      <g>
       <use xlink:href="#me48f3d8b26" x="138.6" y="320.4" style="stroke: #000000; stroke-width: 0.8"/>
      </g>
     </g>
     <g id="text_17">
      <!-- 16 -->
      <g transform="translate(133.6 334.34375) scale(0.1 -0.1)">
       <use xlink:href="#TimesNewRomanPSMT-31"/>
       <use xlink:href="#TimesNewRomanPSMT-36" x="50"/>
      </g>
     </g>
    </g>
    <g id="xtick_13">
     <g id="line2d_75">
      <path d="M 166.5 320.4 
L 166.5 194.4 
" clip-path="url(#p85ac9aea2d)" style="fill: none; stroke: #b0b0b0; stroke-width: 0.8; stroke-linecap: square"/>
     </g>
     <g id="line2d_76">
      <g>
       <use xlink:href="#me48f3d8b26" x="166.5" y="320.4" style="stroke: #000000; stroke-width: 0.8"/>
      </g>
     </g>
     <g id="text_18">
      <!-- 20 -->
      <g transform="translate(161.5 334.34375) scale(0.1 -0.1)">
       <use xlink:href="#TimesNewRomanPSMT-32"/>
       <use xlink:href="#TimesNewRomanPSMT-30" x="50"/>
      </g>
     </g>
    </g>
    <g id="xtick_14">
     <g id="line2d_77">
      <path d="M 194.4 320.4 
L 194.4 194.4 
" clip-path="url(#p85ac9aea2d)" style="fill: none; stroke: #b0b0b0; stroke-width: 0.8; stroke-linecap: square"/>
     </g>
     <g id="line2d_78">
      <g>
       <use xlink:href="#me48f3d8b26" x="194.4" y="320.4" style="stroke: #000000; stroke-width: 0.8"/>
      </g>
     </g>
     <g id="text_19">
      <!-- 24 -->
      <g transform="translate(189.4 334.34375) scale(0.1 -0.1)">
       <use xlink:href="#TimesNewRomanPSMT-32"/>
       <use xlink:href="#TimesNewRomanPSMT-34" x="50"/>
      </g>
     </g>
    </g>
    <g id="text_20">
     <!-- Time (s) -->
     <g transform="translate(93.797656 347.426562) scale(0.1 -0.1)">
      <defs>
       <path id="TimesNewRomanPSMT-54" d="M 3703 4238 
L 3750 3244 
L 3631 3244 
Q 3597 3506 3538 3619 
Q 3441 3800 3280 3886 
Q 3119 3972 2856 3972 
L 2259 3972 
L 2259 734 
Q 2259 344 2344 247 
Q 2463 116 2709 116 
L 2856 116 
L 2856 0 
L 1059 0 
L 1059 116 
L 1209 116 
Q 1478 116 1591 278 
Q 1659 378 1659 734 
L 1659 3972 
L 1150 3972 
Q 853 3972 728 3928 
Q 566 3869 450 3700 
Q 334 3531 313 3244 
L 194 3244 
L 244 4238 
L 3703 4238 
z
" transform="scale(0.015625)"/>
       <path id="TimesNewRomanPSMT-69" d="M 928 4444 
Q 1059 4444 1151 4351 
Q 1244 4259 1244 4128 
Q 1244 3997 1151 3903 
Q 1059 3809 928 3809 
Q 797 3809 703 3903 
Q 609 3997 609 4128 
Q 609 4259 701 4351 
Q 794 4444 928 4444 
z
M 1188 2947 
L 1188 647 
Q 1188 378 1227 289 
Q 1266 200 1342 156 
Q 1419 113 1622 113 
L 1622 0 
L 231 0 
L 231 113 
Q 441 113 512 153 
Q 584 194 626 287 
Q 669 381 669 647 
L 669 1750 
Q 669 2216 641 2353 
Q 619 2453 572 2492 
Q 525 2531 444 2531 
Q 356 2531 231 2484 
L 188 2597 
L 1050 2947 
L 1188 2947 
z
" transform="scale(0.015625)"/>
       <path id="TimesNewRomanPSMT-6d" d="M 1050 2338 
Q 1363 2650 1419 2697 
Q 1559 2816 1721 2881 
Q 1884 2947 2044 2947 
Q 2313 2947 2506 2790 
Q 2700 2634 2766 2338 
Q 3088 2713 3309 2830 
Q 3531 2947 3766 2947 
Q 3994 2947 4170 2830 
Q 4347 2713 4450 2447 
Q 4519 2266 4519 1878 
L 4519 647 
Q 4519 378 4559 278 
Q 4591 209 4675 161 
Q 4759 113 4950 113 
L 4950 0 
L 3538 0 
L 3538 113 
L 3597 113 
Q 3781 113 3884 184 
Q 3956 234 3988 344 
Q 4000 397 4000 647 
L 4000 1878 
Q 4000 2228 3916 2372 
Q 3794 2572 3525 2572 
Q 3359 2572 3192 2489 
Q 3025 2406 2788 2181 
L 2781 2147 
L 2788 2013 
L 2788 647 
Q 2788 353 2820 281 
Q 2853 209 2943 161 
Q 3034 113 3253 113 
L 3253 0 
L 1806 0 
L 1806 113 
Q 2044 113 2133 169 
Q 2222 225 2256 338 
Q 2272 391 2272 647 
L 2272 1878 
Q 2272 2228 2169 2381 
Q 2031 2581 1784 2581 
Q 1616 2581 1450 2491 
Q 1191 2353 1050 2181 
L 1050 647 
Q 1050 366 1089 281 
Q 1128 197 1204 155 
Q 1281 113 1516 113 
L 1516 0 
L 100 0 
L 100 113 
Q 297 113 375 155 
Q 453 197 493 289 
Q 534 381 534 647 
L 534 1741 
Q 534 2213 506 2350 
Q 484 2453 437 2492 
Q 391 2531 309 2531 
Q 222 2531 100 2484 
L 53 2597 
L 916 2947 
L 1050 2947 
L 1050 2338 
z
" transform="scale(0.015625)"/>
      </defs>
      <use xlink:href="#TimesNewRomanPSMT-54"/>
      <use xlink:href="#TimesNewRomanPSMT-69" x="57.583984"/>
      <use xlink:href="#TimesNewRomanPSMT-6d" x="85.367188"/>
      <use xlink:href="#TimesNewRomanPSMT-65" x="163.150391"/>
      <use xlink:href="#TimesNewRomanPSMT-20" x="207.535156"/>
      <use xlink:href="#TimesNewRomanPSMT-28" x="232.535156"/>
      <use xlink:href="#TimesNewRomanPSMT-73" x="265.835938"/>
      <use xlink:href="#TimesNewRomanPSMT-29" x="304.751953"/>
     </g>
    </g>
   </g>
   <g id="matplotlib.axis_4">
    <g id="ytick_5">
     <g id="line2d_79">
      <path d="M 27 291.671093 
L 194.4 291.671093 
" clip-path="url(#p85ac9aea2d)" style="fill: none; stroke: #b0b0b0; stroke-width: 0.8; stroke-linecap: square"/>
     </g>
     <g id="line2d_80">
      <g>
       <use xlink:href="#m4f159ef3c2" x="27" y="291.671093" style="stroke: #000000; stroke-width: 0.8"/>
      </g>
     </g>
     <g id="text_21">
      <!-- 200 -->
      <g transform="translate(5 295.142968) scale(0.1 -0.1)">
       <use xlink:href="#TimesNewRomanPSMT-32"/>
       <use xlink:href="#TimesNewRomanPSMT-30" x="50"/>
       <use xlink:href="#TimesNewRomanPSMT-30" x="100"/>
      </g>
     </g>
    </g>
    <g id="ytick_6">
     <g id="line2d_81">
      <path d="M 27 262.321506 
L 194.4 262.321506 
" clip-path="url(#p85ac9aea2d)" style="fill: none; stroke: #b0b0b0; stroke-width: 0.8; stroke-linecap: square"/>
     </g>
     <g id="line2d_82">
      <g>
       <use xlink:href="#m4f159ef3c2" x="27" y="262.321506" style="stroke: #000000; stroke-width: 0.8"/>
      </g>
     </g>
     <g id="text_22">
      <!-- 400 -->
      <g transform="translate(5 265.793381) scale(0.1 -0.1)">
       <use xlink:href="#TimesNewRomanPSMT-34"/>
       <use xlink:href="#TimesNewRomanPSMT-30" x="50"/>
       <use xlink:href="#TimesNewRomanPSMT-30" x="100"/>
      </g>
     </g>
    </g>
    <g id="ytick_7">
     <g id="line2d_83">
      <path d="M 27 232.971919 
L 194.4 232.971919 
" clip-path="url(#p85ac9aea2d)" style="fill: none; stroke: #b0b0b0; stroke-width: 0.8; stroke-linecap: square"/>
     </g>
     <g id="line2d_84">
      <g>
       <use xlink:href="#m4f159ef3c2" x="27" y="232.971919" style="stroke: #000000; stroke-width: 0.8"/>
      </g>
     </g>
     <g id="text_23">
      <!-- 600 -->
      <g transform="translate(5 236.443794) scale(0.1 -0.1)">
       <use xlink:href="#TimesNewRomanPSMT-36"/>
       <use xlink:href="#TimesNewRomanPSMT-30" x="50"/>
       <use xlink:href="#TimesNewRomanPSMT-30" x="100"/>
      </g>
     </g>
    </g>
    <g id="ytick_8">
     <g id="line2d_85">
      <path d="M 27 203.622332 
L 194.4 203.622332 
" clip-path="url(#p85ac9aea2d)" style="fill: none; stroke: #b0b0b0; stroke-width: 0.8; stroke-linecap: square"/>
     </g>
     <g id="line2d_86">
      <g>
       <use xlink:href="#m4f159ef3c2" x="27" y="203.622332" style="stroke: #000000; stroke-width: 0.8"/>
      </g>
     </g>
     <g id="text_24">
      <!-- 800 -->
      <g transform="translate(5 207.094207) scale(0.1 -0.1)">
       <use xlink:href="#TimesNewRomanPSMT-38"/>
       <use xlink:href="#TimesNewRomanPSMT-30" x="50"/>
       <use xlink:href="#TimesNewRomanPSMT-30" x="100"/>
      </g>
     </g>
    </g>
    <g id="text_25">
     <!-- Currents (A) -->
     <g transform="translate(-1.139063 282.810156) rotate(-90) scale(0.1 -0.1)">
      <defs>
       <path id="TimesNewRomanPSMT-43" d="M 3853 4334 
L 3950 2894 
L 3853 2894 
Q 3659 3541 3300 3825 
Q 2941 4109 2438 4109 
Q 2016 4109 1675 3895 
Q 1334 3681 1139 3212 
Q 944 2744 944 2047 
Q 944 1472 1128 1050 
Q 1313 628 1683 403 
Q 2053 178 2528 178 
Q 2941 178 3256 354 
Q 3572 531 3950 1056 
L 4047 994 
Q 3728 428 3303 165 
Q 2878 -97 2294 -97 
Q 1241 -97 663 684 
Q 231 1266 231 2053 
Q 231 2688 515 3219 
Q 800 3750 1298 4042 
Q 1797 4334 2388 4334 
Q 2847 4334 3294 4109 
Q 3425 4041 3481 4041 
Q 3566 4041 3628 4100 
Q 3709 4184 3744 4334 
L 3853 4334 
z
" transform="scale(0.015625)"/>
       <path id="TimesNewRomanPSMT-72" d="M 1038 2947 
L 1038 2303 
Q 1397 2947 1775 2947 
Q 1947 2947 2059 2842 
Q 2172 2738 2172 2600 
Q 2172 2478 2090 2393 
Q 2009 2309 1897 2309 
Q 1788 2309 1652 2417 
Q 1516 2525 1450 2525 
Q 1394 2525 1328 2463 
Q 1188 2334 1038 2041 
L 1038 669 
Q 1038 431 1097 309 
Q 1138 225 1241 169 
Q 1344 113 1538 113 
L 1538 0 
L 72 0 
L 72 113 
Q 291 113 397 181 
Q 475 231 506 341 
Q 522 394 522 644 
L 522 1753 
Q 522 2253 501 2348 
Q 481 2444 426 2487 
Q 372 2531 291 2531 
Q 194 2531 72 2484 
L 41 2597 
L 906 2947 
L 1038 2947 
z
" transform="scale(0.015625)"/>
       <path id="TimesNewRomanPSMT-6e" d="M 1034 2341 
Q 1538 2947 1994 2947 
Q 2228 2947 2397 2830 
Q 2566 2713 2666 2444 
Q 2734 2256 2734 1869 
L 2734 647 
Q 2734 375 2778 278 
Q 2813 200 2889 156 
Q 2966 113 3172 113 
L 3172 0 
L 1756 0 
L 1756 113 
L 1816 113 
Q 2016 113 2095 173 
Q 2175 234 2206 353 
Q 2219 400 2219 647 
L 2219 1819 
Q 2219 2209 2117 2386 
Q 2016 2563 1775 2563 
Q 1403 2563 1034 2156 
L 1034 647 
Q 1034 356 1069 288 
Q 1113 197 1189 155 
Q 1266 113 1500 113 
L 1500 0 
L 84 0 
L 84 113 
L 147 113 
Q 366 113 442 223 
Q 519 334 519 647 
L 519 1709 
Q 519 2225 495 2337 
Q 472 2450 423 2490 
Q 375 2531 294 2531 
Q 206 2531 84 2484 
L 38 2597 
L 900 2947 
L 1034 2947 
L 1034 2341 
z
" transform="scale(0.015625)"/>
       <path id="TimesNewRomanPSMT-41" d="M 2928 1419 
L 1288 1419 
L 1000 750 
Q 894 503 894 381 
Q 894 284 986 211 
Q 1078 138 1384 116 
L 1384 0 
L 50 0 
L 50 116 
Q 316 163 394 238 
Q 553 388 747 847 
L 2238 4334 
L 2347 4334 
L 3822 809 
Q 4000 384 4145 257 
Q 4291 131 4550 116 
L 4550 0 
L 2878 0 
L 2878 116 
Q 3131 128 3220 200 
Q 3309 272 3309 375 
Q 3309 513 3184 809 
L 2928 1419 
z
M 2841 1650 
L 2122 3363 
L 1384 1650 
L 2841 1650 
z
" transform="scale(0.015625)"/>
      </defs>
      <use xlink:href="#TimesNewRomanPSMT-43"/>
      <use xlink:href="#TimesNewRomanPSMT-75" x="66.699219"/>
      <use xlink:href="#TimesNewRomanPSMT-72" x="116.699219"/>
      <use xlink:href="#TimesNewRomanPSMT-72" x="150"/>
      <use xlink:href="#TimesNewRomanPSMT-65" x="183.300781"/>
      <use xlink:href="#TimesNewRomanPSMT-6e" x="227.685547"/>
      <use xlink:href="#TimesNewRomanPSMT-74" x="277.685547"/>
      <use xlink:href="#TimesNewRomanPSMT-73" x="305.46875"/>
      <use xlink:href="#TimesNewRomanPSMT-20" x="344.384766"/>
      <use xlink:href="#TimesNewRomanPSMT-28" x="369.384766"/>
      <use xlink:href="#TimesNewRomanPSMT-41" x="402.685547"/>
      <use xlink:href="#TimesNewRomanPSMT-29" x="474.902344"/>
     </g>
    </g>
   </g>
   <g id="line2d_87">
    <path d="M -1 265.212331 
L 29.09622 265.212331 
L 30.43542 262.614931 
L 35.79222 262.614931 
L 37.13142 264.675701 
L 42.48822 264.675701 
L 43.82742 267.177305 
L 49.18422 267.177305 
L 50.52342 269.226428 
L 62.57622 269.226356 
L 63.91542 271.625189 
L 69.27222 271.625189 
L 70.61142 269.22588 
L 75.96822 269.22588 
L 77.30742 278.339838 
L 82.66422 278.339838 
L 84.00342 280.536687 
L 89.36022 280.536687 
L 90.69942 278.51474 
L 96.05622 278.51474 
L 97.39542 278.338619 
L 109.44822 278.3386 
L 110.78742 273.749442 
L 116.14422 273.749442 
L 117.48342 269.312717 
L 129.53622 269.312924 
L 130.87542 273.572789 
L 142.92822 273.572348 
L 144.26742 256.57773 
L 149.62422 256.57773 
L 150.96342 233.169706 
L 156.32022 233.169706 
L 157.65942 200.127273 
L 163.01622 200.127273 
L 164.35542 209.171127 
L 169.71222 209.171127 
L 171.05142 223.124323 
L 176.40822 223.124323 
L 177.74742 241.979758 
L 183.10422 241.979758 
L 184.44342 265.212331 
L 209.88822 265.212331 
L 209.88822 265.212331 
" clip-path="url(#p85ac9aea2d)" style="fill: none; stroke: #d9524f; stroke-width: 1.5; stroke-linecap: square"/>
   </g>
   <g id="line2d_88">
    <path d="M -1 265.343012 
L 29.09622 265.343012 
L 30.43542 262.759264 
L 35.79222 262.759264 
L 37.13142 264.809138 
L 42.48822 264.809138 
L 43.82742 267.298181 
L 49.18422 267.298181 
L 50.52342 269.337549 
L 62.57622 269.337478 
L 63.91542 271.725488 
L 69.27222 271.725488 
L 70.61142 269.337003 
L 75.96822 269.337003 
L 77.30742 278.413154 
L 82.66422 278.413154 
L 84.00342 280.602197 
L 89.36022 280.602197 
L 90.69942 278.587413 
L 96.05622 278.587413 
L 97.39542 278.411934 
L 109.44822 278.411918 
L 110.78742 273.840679 
L 116.14422 273.840679 
L 117.48342 269.423432 
L 129.53622 269.423639 
L 130.87542 273.664765 
L 142.92822 273.664331 
L 144.26742 256.756951 
L 149.62422 256.756951 
L 150.96342 233.530185 
L 156.32022 233.530185 
L 157.65942 200.897198 
L 163.01622 200.897198 
L 164.35542 209.808087 
L 169.71222 209.808087 
L 171.05142 223.588069 
L 176.40822 223.588069 
L 177.74742 242.262827 
L 183.10422 242.262827 
L 184.44342 265.343012 
L 209.88822 265.343012 
L 209.88822 265.343012 
" clip-path="url(#p85ac9aea2d)" style="fill: none; stroke: #d9524f; stroke-width: 1.5; stroke-linecap: square"/>
   </g>
   <g id="line2d_89">
    <path d="M -1 265.528612 
L 29.09622 265.528612 
L 30.43542 262.963917 
L 35.79222 262.963917 
L 37.13142 264.998586 
L 42.48822 264.998586 
L 43.82742 267.470067 
L 49.18422 267.470067 
L 50.52342 269.495768 
L 62.57622 269.495698 
L 63.91542 271.868515 
L 69.27222 271.868515 
L 70.61142 269.495231 
L 75.96822 269.495231 
L 77.30742 278.51816 
L 82.66422 278.51816 
L 84.00342 280.696167 
L 89.36022 280.696167 
L 90.69942 278.691537 
L 96.05622 278.691537 
L 97.39542 278.516973 
L 109.44822 278.516956 
L 110.78742 273.971009 
L 116.14422 273.971009 
L 117.48342 269.581138 
L 129.53622 269.581337 
L 130.87542 273.796117 
L 142.92822 273.795696 
L 144.26742 257.010151 
L 149.62422 257.010151 
L 150.96342 234.031888 
L 156.32022 234.031888 
L 157.65942 201.945712 
L 163.01622 201.945712 
L 164.35542 210.680784 
L 169.71222 210.680784 
L 171.05142 224.229281 
L 176.40822 224.229281 
L 177.74742 242.658989 
L 183.10422 242.658989 
L 184.44342 265.528612 
L 209.88822 265.528612 
L 209.88822 265.528612 
" clip-path="url(#p85ac9aea2d)" style="fill: none; stroke: #d9524f; stroke-width: 1.5; stroke-linecap: square"/>
   </g>
   <g id="line2d_90">
    <path d="M -1 312.582375 
L 29.09622 312.582375 
L 30.43542 313.10323 
L 35.79222 313.10323 
L 37.13142 313.644222 
L 42.48822 313.644222 
L 43.82742 314.162062 
L 49.18422 314.162062 
L 50.52342 314.656948 
L 55.88022 314.656948 
L 57.21942 313.601012 
L 62.57622 313.601012 
L 63.91542 311.557999 
L 69.27222 311.557999 
L 70.61142 306.885166 
L 75.96822 306.885166 
L 77.30742 300.180895 
L 82.66422 300.180895 
L 84.00342 293.001626 
L 89.36022 293.001626 
L 90.69942 288.147568 
L 96.05622 288.147568 
L 97.39542 286.859338 
L 102.75222 286.859338 
L 104.09142 289.075274 
L 109.44822 289.075274 
L 110.78742 288.09697 
L 122.84022 288.096883 
L 124.17942 290.617647 
L 129.53622 290.617647 
L 130.87542 294.094775 
L 136.23222 294.094775 
L 137.57142 295.421186 
L 142.92822 295.421186 
L 144.26742 298.372949 
L 149.62422 298.372949 
L 150.96342 302.474781 
L 156.32022 302.474781 
L 157.65942 308.158867 
L 163.01622 308.158867 
L 164.35542 310.417225 
L 169.71222 310.417225 
L 171.05142 311.514013 
L 176.40822 311.514013 
L 177.74742 312.125279 
L 183.10422 312.125279 
L 184.44342 312.582375 
L 209.88822 312.582375 
L 209.88822 312.582375 
" clip-path="url(#p85ac9aea2d)" style="fill: none; stroke: #5cb85c; stroke-width: 1.5; stroke-linecap: square"/>
   </g>
   <g id="line2d_91">
    <path d="M -1 312.591541 
L 29.09622 312.591541 
L 30.43542 313.111266 
L 35.79222 313.111266 
L 37.13142 313.651168 
L 42.48822 313.651168 
L 43.82742 314.168043 
L 49.18422 314.168043 
L 50.52342 314.662077 
L 55.88022 314.662077 
L 57.21942 313.608042 
L 62.57622 313.608042 
L 63.91542 311.56962 
L 69.27222 311.56962 
L 70.61142 306.91208 
L 75.96822 306.91208 
L 77.30742 300.242619 
L 82.66422 300.242619 
L 84.00342 293.119851 
L 89.36022 293.119851 
L 90.69942 288.316845 
L 96.05622 288.316845 
L 97.39542 287.04407 
L 102.75222 287.04407 
L 104.09142 289.233931 
L 109.44822 289.233931 
L 110.78742 288.266839 
L 122.84022 288.266752 
L 124.17942 290.759563 
L 129.53622 290.759563 
L 130.87542 294.202997 
L 136.23222 294.202997 
L 137.57142 295.517969 
L 142.92822 295.517969 
L 144.26742 298.446918 
L 149.62422 298.446918 
L 150.96342 302.522769 
L 156.32022 302.522769 
L 157.65942 308.180913 
L 163.01622 308.180913 
L 164.35542 310.431942 
L 169.71222 310.431942 
L 171.05142 311.525741 
L 176.40822 311.525741 
L 177.74742 312.135499 
L 183.10422 312.135499 
L 184.44342 312.591541 
L 209.88822 312.591541 
L 209.88822 312.591541 
" clip-path="url(#p85ac9aea2d)" style="fill: none; stroke: #5cb85c; stroke-width: 1.5; stroke-linecap: square"/>
   </g>
   <g id="line2d_92">
    <path d="M -1 312.610481 
L 29.09622 312.610481 
L 30.43542 313.127893 
L 35.79222 313.127893 
L 37.13142 313.665557 
L 42.48822 313.665557 
L 43.82742 314.180447 
L 49.18422 314.180447 
L 50.52342 314.672727 
L 55.88022 314.672727 
L 57.21942 313.622603 
L 62.57622 313.622603 
L 63.91542 311.593572 
L 69.27222 311.593572 
L 70.61142 306.966972 
L 75.96822 306.966972 
L 77.30742 300.366832 
L 82.66422 300.366832 
L 84.00342 293.354973 
L 89.36022 293.354973 
L 90.69942 288.651345 
L 96.05622 288.651345 
L 97.39542 287.408571 
L 102.75222 287.408571 
L 104.09142 289.547801 
L 109.44822 289.547801 
L 110.78742 288.602496 
L 122.84022 288.602413 
L 124.17942 291.040878 
L 129.53622 291.040878 
L 130.87542 294.41858 
L 136.23222 294.41858 
L 137.57142 295.711165 
L 142.92822 295.711165 
L 144.26742 298.595312 
L 149.62422 298.595312 
L 150.96342 302.619791 
L 156.32022 302.619791 
L 157.65942 308.226049 
L 163.01622 308.226049 
L 164.35542 310.462225 
L 169.71222 310.462225 
L 171.05142 311.54993 
L 176.40822 311.54993 
L 177.74742 312.156603 
L 183.10422 312.156603 
L 184.44342 312.610481 
L 209.88822 312.610481 
L 209.88822 312.610481 
" clip-path="url(#p85ac9aea2d)" style="fill: none; stroke: #5cb85c; stroke-width: 1.5; stroke-linecap: square"/>
   </g>
   <g id="line2d_93">
    <path d="M -1 307.359828 
L 29.09622 307.359828 
L 30.43542 307.825076 
L 35.79222 307.825076 
L 37.13142 308.341502 
L 42.48822 308.341502 
L 43.82742 307.825118 
L 49.18422 307.825118 
L 50.52342 307.359877 
L 55.88022 307.359877 
L 57.21942 306.479753 
L 62.57622 306.479753 
L 63.91542 305.494082 
L 69.27222 305.494082 
L 70.61142 300.270492 
L 75.96822 300.270492 
L 77.30742 292.477656 
L 82.66422 292.477656 
L 84.00342 284.211401 
L 89.36022 284.211401 
L 90.69942 267.885063 
L 96.05622 267.885063 
L 97.39542 265.141498 
L 102.75222 265.141498 
L 104.09142 262.087716 
L 109.44822 262.087716 
L 110.78742 260.637757 
L 122.84022 260.695707 
L 124.17942 263.646527 
L 129.53622 263.646527 
L 130.87542 264.912109 
L 136.23222 264.912109 
L 137.57142 250.193255 
L 142.92822 250.193255 
L 144.26742 244.567359 
L 149.62422 244.567359 
L 150.96342 256.191927 
L 156.32022 256.191927 
L 157.65942 261.912215 
L 163.01622 261.912215 
L 164.35542 278.825956 
L 169.71222 278.825956 
L 171.05142 303.098357 
L 176.40822 303.098357 
L 177.74742 308.186473 
L 183.10422 308.186473 
L 184.44342 307.359828 
L 209.88822 307.359828 
L 209.88822 307.359828 
" clip-path="url(#p85ac9aea2d)" style="fill: none; stroke: #337ab7; stroke-width: 1.5; stroke-linecap: square"/>
   </g>
   <g id="line2d_94">
    <path d="M -1 307.37979 
L 29.09622 307.37979 
L 30.43542 307.843655 
L 35.79222 307.843655 
L 37.13142 308.358608 
L 42.48822 308.358608 
L 43.82742 307.843697 
L 49.18422 307.843697 
L 50.52342 307.379839 
L 55.88022 307.379839 
L 57.21942 306.502477 
L 62.57622 306.502477 
L 63.91542 305.52013 
L 69.27222 305.52013 
L 70.61142 300.318359 
L 75.96822 300.318359 
L 77.30742 292.572291 
L 82.66422 292.572291 
L 84.00342 284.376595 
L 89.36022 284.376595 
L 90.69942 268.266287 
L 96.05622 268.266287 
L 97.39542 265.570795 
L 102.75222 265.570795 
L 104.09142 262.575091 
L 109.44822 262.575091 
L 110.78742 261.154469 
L 122.84022 261.211223 
L 124.17942 264.10364 
L 129.53622 264.10364 
L 130.87542 265.345605 
L 136.23222 265.345605 
L 137.57142 250.958408 
L 142.92822 250.958408 
L 144.26742 245.496786 
L 149.62422 245.496786 
L 150.96342 256.806103 
L 156.32022 256.806103 
L 157.65942 262.403048 
L 163.01622 262.403048 
L 164.35542 279.050215 
L 169.71222 279.050215 
L 171.05142 303.133509 
L 176.40822 303.133509 
L 177.74742 308.204012 
L 183.10422 308.204012 
L 184.44342 307.37979 
L 209.88822 307.37979 
L 209.88822 307.37979 
" clip-path="url(#p85ac9aea2d)" style="fill: none; stroke: #337ab7; stroke-width: 1.5; stroke-linecap: square"/>
   </g>
   <g id="line2d_95">
    <path d="M -1 307.376983 
L 29.09622 307.376983 
L 30.43542 307.84104 
L 35.79222 307.84104 
L 37.13142 308.356196 
L 42.48822 308.356196 
L 43.82742 307.841081 
L 49.18422 307.841081 
L 50.52342 307.377032 
L 55.88022 307.377032 
L 57.21942 306.499289 
L 62.57622 306.499289 
L 63.91542 305.516485 
L 69.27222 305.516485 
L 70.61142 300.311762 
L 75.96822 300.311762 
L 77.30742 292.559552 
L 82.66422 292.559552 
L 84.00342 284.354947 
L 89.36022 284.354947 
L 90.69942 268.219186 
L 96.05622 268.219186 
L 97.39542 265.518328 
L 102.75222 265.518328 
L 104.09142 262.516256 
L 109.44822 262.516256 
L 110.78742 261.092473 
L 122.84022 261.149358 
L 124.17942 264.048107 
L 129.53622 264.048107 
L 130.87542 265.292664 
L 136.23222 265.292664 
L 137.57142 250.87078 
L 142.92822 250.87078 
L 144.26742 245.39328 
L 149.62422 245.39328 
L 150.96342 256.733828 
L 156.32022 256.733828 
L 157.65942 262.343901 
L 163.01622 262.343901 
L 164.35542 279.021397 
L 169.71222 279.021397 
L 171.05142 303.128635 
L 176.40822 303.128635 
L 177.74742 308.201543 
L 183.10422 308.201543 
L 184.44342 307.376983 
L 209.88822 307.376983 
L 209.88822 307.376983 
" clip-path="url(#p85ac9aea2d)" style="fill: none; stroke: #337ab7; stroke-width: 1.5; stroke-linecap: square"/>
   </g>
   <g id="line2d_96">
    <path d="M -1 214.681596 
L 209.88822 214.681596 
" clip-path="url(#p85ac9aea2d)" style="fill: none; stroke-dasharray: 1.5,2.475; stroke-dashoffset: 0; stroke: #d9524f; stroke-width: 1.5"/>
   </g>
   <g id="line2d_97">
    <path d="M -1 286.992174 
L 209.88822 286.992174 
" clip-path="url(#p85ac9aea2d)" style="fill: none; stroke-dasharray: 1.5,2.475; stroke-dashoffset: 0; stroke: #5cb85c; stroke-width: 1.5"/>
   </g>
   <g id="line2d_98">
    <path d="M -1 257.21723 
L 209.88822 257.21723 
" clip-path="url(#p85ac9aea2d)" style="fill: none; stroke-dasharray: 1.5,2.475; stroke-dashoffset: 0; stroke: #337ab7; stroke-width: 1.5"/>
   </g>
   <g id="patch_8">
    <path d="M 27 320.4 
L 27 194.4 
" style="fill: none; stroke: #000000; stroke-width: 0.8; stroke-linejoin: miter; stroke-linecap: square"/>
   </g>
   <g id="patch_9">
    <path d="M 194.4 320.4 
L 194.4 194.4 
" style="fill: none; stroke: #000000; stroke-width: 0.8; stroke-linejoin: miter; stroke-linecap: square"/>
   </g>
   <g id="patch_10">
    <path d="M 27 320.4 
L 194.4 320.4 
" style="fill: none; stroke: #000000; stroke-width: 0.8; stroke-linejoin: miter; stroke-linecap: square"/>
   </g>
   <g id="patch_11">
    <path d="M 27 194.4 
L 194.4 194.4 
" style="fill: none; stroke: #000000; stroke-width: 0.8; stroke-linejoin: miter; stroke-linecap: square"/>
   </g>
  </g>
 </g>
 <defs>
  <clipPath id="pb24a5f139b">
   <rect x="27" y="43.2" width="167.4" height="126"/>
  </clipPath>
  <clipPath id="p85ac9aea2d">
   <rect x="27" y="194.4" width="167.4" height="126"/>
  </clipPath>
 </defs>
</svg>
