<?xml version="1.0" encoding="utf-8" standalone="no"?>
<!DOCTYPE svg PUBLIC "-//W3C//DTD SVG 1.1//EN"
  "http://www.w3.org/Graphics/SVG/1.1/DTD/svg11.dtd">
<svg xmlns:xlink="http://www.w3.org/1999/xlink" width="216pt" height="360pt" viewBox="0 0 216 360" xmlns="http://www.w3.org/2000/svg" version="1.1">
 <metadata>
  <rdf:RDF xmlns:dc="http://purl.org/dc/elements/1.1/" xmlns:cc="http://creativecommons.org/ns#" xmlns:rdf="http://www.w3.org/1999/02/22-rdf-syntax-ns#">
   <cc:Work>
    <dc:type rdf:resource="http://purl.org/dc/dcmitype/StillImage"/>
    <dc:date>2023-02-12T00:57:17.666714</dc:date>
    <dc:format>image/svg+xml</dc:format>
    <dc:creator>
     <cc:Agent>
      <dc:title>Matplotlib v3.5.2, https://matplotlib.org/</dc:title>
     </cc:Agent>
    </dc:creator>
   </cc:Work>
  </rdf:RDF>
 </metadata>
 <defs>
  <style type="text/css">*{stroke-linejoin: round; stroke-linecap: butt}</style>
 </defs>
 <g id="figure_1">
  <g id="patch_1">
   <path d="M 0 360 
L 216 360 
L 216 0 
L 0 0 
z
" style="fill: #ffffff"/>
  </g>
  <g id="axes_1">
   <g id="patch_2">
    <path d="M 27 169.2 
L 194.4 169.2 
L 194.4 43.2 
L 27 43.2 
z
" style="fill: #ffffff"/>
   </g>
   <g id="matplotlib.axis_1">
    <g id="xtick_1">
     <g id="line2d_1">
      <path d="M 27 169.2 
L 27 43.2 
" clip-path="url(#pbbd8f63795)" style="fill: none; stroke: #b0b0b0; stroke-width: 0.8; stroke-linecap: square"/>
     </g>
     <g id="line2d_2">
      <defs>
       <path id="m4d1d6b9955" d="M 0 0 
L 0 3.5 
" style="stroke: #000000; stroke-width: 0.8"/>
      </defs>
      <g>
       <use xlink:href="#m4d1d6b9955" x="27" y="169.2" style="stroke: #000000; stroke-width: 0.8"/>
      </g>
     </g>
     <g id="text_1">
      <!-- 0 -->
      <g transform="translate(24.5 183.14375)scale(0.1 -0.1)">
       <defs>
        <path id="TimesNewRomanPSMT-30" d="M 231 2094 
Q 231 2819 450 3342 
Q 669 3866 1031 4122 
Q 1313 4325 1613 4325 
Q 2100 4325 2488 3828 
Q 2972 3213 2972 2159 
Q 2972 1422 2759 906 
Q 2547 391 2217 158 
Q 1888 -75 1581 -75 
Q 975 -75 572 641 
Q 231 1244 231 2094 
z
M 844 2016 
Q 844 1141 1059 588 
Q 1238 122 1591 122 
Q 1759 122 1940 273 
Q 2122 425 2216 781 
Q 2359 1319 2359 2297 
Q 2359 3022 2209 3506 
Q 2097 3866 1919 4016 
Q 1791 4119 1609 4119 
Q 1397 4119 1231 3928 
Q 1006 3669 925 3112 
Q 844 2556 844 2016 
z
" transform="scale(0.015625)"/>
       </defs>
       <use xlink:href="#TimesNewRomanPSMT-30"/>
      </g>
     </g>
    </g>
    <g id="xtick_2">
     <g id="line2d_3">
      <path d="M 54.9 169.2 
L 54.9 43.2 
" clip-path="url(#pbbd8f63795)" style="fill: none; stroke: #b0b0b0; stroke-width: 0.8; stroke-linecap: square"/>
     </g>
     <g id="line2d_4">
      <g>
       <use xlink:href="#m4d1d6b9955" x="54.9" y="169.2" style="stroke: #000000; stroke-width: 0.8"/>
      </g>
     </g>
     <g id="text_2">
      <!-- 4 -->
      <g transform="translate(52.4 183.14375)scale(0.1 -0.1)">
       <defs>
        <path id="TimesNewRomanPSMT-34" d="M 2978 1563 
L 2978 1119 
L 2409 1119 
L 2409 0 
L 1894 0 
L 1894 1119 
L 100 1119 
L 100 1519 
L 2066 4325 
L 2409 4325 
L 2409 1563 
L 2978 1563 
z
M 1894 1563 
L 1894 3666 
L 406 1563 
L 1894 1563 
z
" transform="scale(0.015625)"/>
       </defs>
       <use xlink:href="#TimesNewRomanPSMT-34"/>
      </g>
     </g>
    </g>
    <g id="xtick_3">
     <g id="line2d_5">
      <path d="M 82.8 169.2 
L 82.8 43.2 
" clip-path="url(#pbbd8f63795)" style="fill: none; stroke: #b0b0b0; stroke-width: 0.8; stroke-linecap: square"/>
     </g>
     <g id="line2d_6">
      <g>
       <use xlink:href="#m4d1d6b9955" x="82.8" y="169.2" style="stroke: #000000; stroke-width: 0.8"/>
      </g>
     </g>
     <g id="text_3">
      <!-- 8 -->
      <g transform="translate(80.3 183.14375)scale(0.1 -0.1)">
       <defs>
        <path id="TimesNewRomanPSMT-38" d="M 1228 2134 
Q 725 2547 579 2797 
Q 434 3047 434 3316 
Q 434 3728 753 4026 
Q 1072 4325 1600 4325 
Q 2113 4325 2425 4047 
Q 2738 3769 2738 3413 
Q 2738 3175 2569 2928 
Q 2400 2681 1866 2347 
Q 2416 1922 2594 1678 
Q 2831 1359 2831 1006 
Q 2831 559 2490 242 
Q 2150 -75 1597 -75 
Q 994 -75 656 303 
Q 388 606 388 966 
Q 388 1247 577 1523 
Q 766 1800 1228 2134 
z
M 1719 2469 
Q 2094 2806 2194 3001 
Q 2294 3197 2294 3444 
Q 2294 3772 2109 3958 
Q 1925 4144 1606 4144 
Q 1288 4144 1088 3959 
Q 888 3775 888 3528 
Q 888 3366 970 3203 
Q 1053 3041 1206 2894 
L 1719 2469 
z
M 1375 2016 
Q 1116 1797 991 1539 
Q 866 1281 866 981 
Q 866 578 1086 336 
Q 1306 94 1647 94 
Q 1984 94 2187 284 
Q 2391 475 2391 747 
Q 2391 972 2272 1150 
Q 2050 1481 1375 2016 
z
" transform="scale(0.015625)"/>
       </defs>
       <use xlink:href="#TimesNewRomanPSMT-38"/>
      </g>
     </g>
    </g>
    <g id="xtick_4">
     <g id="line2d_7">
      <path d="M 110.7 169.2 
L 110.7 43.2 
" clip-path="url(#pbbd8f63795)" style="fill: none; stroke: #b0b0b0; stroke-width: 0.8; stroke-linecap: square"/>
     </g>
     <g id="line2d_8">
      <g>
       <use xlink:href="#m4d1d6b9955" x="110.7" y="169.2" style="stroke: #000000; stroke-width: 0.8"/>
      </g>
     </g>
     <g id="text_4">
      <!-- 12 -->
      <g transform="translate(105.7 183.14375)scale(0.1 -0.1)">
       <defs>
        <path id="TimesNewRomanPSMT-31" d="M 750 3822 
L 1781 4325 
L 1884 4325 
L 1884 747 
Q 1884 391 1914 303 
Q 1944 216 2037 169 
Q 2131 122 2419 116 
L 2419 0 
L 825 0 
L 825 116 
Q 1125 122 1212 167 
Q 1300 213 1334 289 
Q 1369 366 1369 747 
L 1369 3034 
Q 1369 3497 1338 3628 
Q 1316 3728 1258 3775 
Q 1200 3822 1119 3822 
Q 1003 3822 797 3725 
L 750 3822 
z
" transform="scale(0.015625)"/>
        <path id="TimesNewRomanPSMT-32" d="M 2934 816 
L 2638 0 
L 138 0 
L 138 116 
Q 1241 1122 1691 1759 
Q 2141 2397 2141 2925 
Q 2141 3328 1894 3587 
Q 1647 3847 1303 3847 
Q 991 3847 742 3664 
Q 494 3481 375 3128 
L 259 3128 
Q 338 3706 661 4015 
Q 984 4325 1469 4325 
Q 1984 4325 2329 3994 
Q 2675 3663 2675 3213 
Q 2675 2891 2525 2569 
Q 2294 2063 1775 1497 
Q 997 647 803 472 
L 1909 472 
Q 2247 472 2383 497 
Q 2519 522 2628 598 
Q 2738 675 2819 816 
L 2934 816 
z
" transform="scale(0.015625)"/>
       </defs>
       <use xlink:href="#TimesNewRomanPSMT-31"/>
       <use xlink:href="#TimesNewRomanPSMT-32" x="50"/>
      </g>
     </g>
    </g>
    <g id="xtick_5">
     <g id="line2d_9">
      <path d="M 138.6 169.2 
L 138.6 43.2 
" clip-path="url(#pbbd8f63795)" style="fill: none; stroke: #b0b0b0; stroke-width: 0.8; stroke-linecap: square"/>
     </g>
     <g id="line2d_10">
      <g>
       <use xlink:href="#m4d1d6b9955" x="138.6" y="169.2" style="stroke: #000000; stroke-width: 0.8"/>
      </g>
     </g>
     <g id="text_5">
      <!-- 16 -->
      <g transform="translate(133.6 183.14375)scale(0.1 -0.1)">
       <defs>
        <path id="TimesNewRomanPSMT-36" d="M 2869 4325 
L 2869 4209 
Q 2456 4169 2195 4045 
Q 1934 3922 1679 3669 
Q 1425 3416 1258 3105 
Q 1091 2794 978 2366 
Q 1428 2675 1881 2675 
Q 2316 2675 2634 2325 
Q 2953 1975 2953 1425 
Q 2953 894 2631 456 
Q 2244 -75 1606 -75 
Q 1172 -75 869 213 
Q 275 772 275 1663 
Q 275 2231 503 2743 
Q 731 3256 1154 3653 
Q 1578 4050 1965 4187 
Q 2353 4325 2688 4325 
L 2869 4325 
z
M 925 2138 
Q 869 1716 869 1456 
Q 869 1156 980 804 
Q 1091 453 1309 247 
Q 1469 100 1697 100 
Q 1969 100 2183 356 
Q 2397 613 2397 1088 
Q 2397 1622 2184 2012 
Q 1972 2403 1581 2403 
Q 1463 2403 1327 2353 
Q 1191 2303 925 2138 
z
" transform="scale(0.015625)"/>
       </defs>
       <use xlink:href="#TimesNewRomanPSMT-31"/>
       <use xlink:href="#TimesNewRomanPSMT-36" x="50"/>
      </g>
     </g>
    </g>
    <g id="xtick_6">
     <g id="line2d_11">
      <path d="M 166.5 169.2 
L 166.5 43.2 
" clip-path="url(#pbbd8f63795)" style="fill: none; stroke: #b0b0b0; stroke-width: 0.8; stroke-linecap: square"/>
     </g>
     <g id="line2d_12">
      <g>
       <use xlink:href="#m4d1d6b9955" x="166.5" y="169.2" style="stroke: #000000; stroke-width: 0.8"/>
      </g>
     </g>
     <g id="text_6">
      <!-- 20 -->
      <g transform="translate(161.5 183.14375)scale(0.1 -0.1)">
       <use xlink:href="#TimesNewRomanPSMT-32"/>
       <use xlink:href="#TimesNewRomanPSMT-30" x="50"/>
      </g>
     </g>
    </g>
    <g id="xtick_7">
     <g id="line2d_13">
      <path d="M 194.4 169.2 
L 194.4 43.2 
" clip-path="url(#pbbd8f63795)" style="fill: none; stroke: #b0b0b0; stroke-width: 0.8; stroke-linecap: square"/>
     </g>
     <g id="line2d_14">
      <g>
       <use xlink:href="#m4d1d6b9955" x="194.4" y="169.2" style="stroke: #000000; stroke-width: 0.8"/>
      </g>
     </g>
     <g id="text_7">
      <!-- 24 -->
      <g transform="translate(189.4 183.14375)scale(0.1 -0.1)">
       <use xlink:href="#TimesNewRomanPSMT-32"/>
       <use xlink:href="#TimesNewRomanPSMT-34" x="50"/>
      </g>
     </g>
    </g>
   </g>
   <g id="matplotlib.axis_2">
    <g id="ytick_1">
     <g id="line2d_15">
      <path d="M 27 152.018182 
L 194.4 152.018182 
" clip-path="url(#pbbd8f63795)" style="fill: none; stroke: #b0b0b0; stroke-width: 0.8; stroke-linecap: square"/>
     </g>
     <g id="line2d_16">
      <defs>
       <path id="m793e5e8098" d="M 0 0 
L -3.5 0 
" style="stroke: #000000; stroke-width: 0.8"/>
      </defs>
      <g>
       <use xlink:href="#m793e5e8098" x="27" y="152.018182" style="stroke: #000000; stroke-width: 0.8"/>
      </g>
     </g>
     <g id="text_8">
      <!-- 0.96 -->
      <g transform="translate(2.5 155.490057)scale(0.1 -0.1)">
       <defs>
        <path id="TimesNewRomanPSMT-2e" d="M 800 606 
Q 947 606 1047 504 
Q 1147 403 1147 259 
Q 1147 116 1045 14 
Q 944 -88 800 -88 
Q 656 -88 554 14 
Q 453 116 453 259 
Q 453 406 554 506 
Q 656 606 800 606 
z
" transform="scale(0.015625)"/>
        <path id="TimesNewRomanPSMT-39" d="M 338 -88 
L 338 28 
Q 744 34 1094 217 
Q 1444 400 1770 856 
Q 2097 1313 2225 1859 
Q 1734 1544 1338 1544 
Q 891 1544 572 1889 
Q 253 2234 253 2806 
Q 253 3363 572 3797 
Q 956 4325 1575 4325 
Q 2097 4325 2469 3894 
Q 2925 3359 2925 2575 
Q 2925 1869 2578 1258 
Q 2231 647 1613 244 
Q 1109 -88 516 -88 
L 338 -88 
z
M 2275 2091 
Q 2331 2497 2331 2741 
Q 2331 3044 2228 3395 
Q 2125 3747 1936 3934 
Q 1747 4122 1506 4122 
Q 1228 4122 1018 3872 
Q 809 3622 809 3128 
Q 809 2469 1088 2097 
Q 1291 1828 1588 1828 
Q 1731 1828 1928 1897 
Q 2125 1966 2275 2091 
z
" transform="scale(0.015625)"/>
       </defs>
       <use xlink:href="#TimesNewRomanPSMT-30"/>
       <use xlink:href="#TimesNewRomanPSMT-2e" x="50"/>
       <use xlink:href="#TimesNewRomanPSMT-39" x="75"/>
       <use xlink:href="#TimesNewRomanPSMT-36" x="125"/>
      </g>
     </g>
    </g>
    <g id="ytick_2">
     <g id="line2d_17">
      <path d="M 27 129.109091 
L 194.4 129.109091 
" clip-path="url(#pbbd8f63795)" style="fill: none; stroke: #b0b0b0; stroke-width: 0.8; stroke-linecap: square"/>
     </g>
     <g id="line2d_18">
      <g>
       <use xlink:href="#m793e5e8098" x="27" y="129.109091" style="stroke: #000000; stroke-width: 0.8"/>
      </g>
     </g>
     <g id="text_9">
      <!-- 0.98 -->
      <g transform="translate(2.5 132.580966)scale(0.1 -0.1)">
       <use xlink:href="#TimesNewRomanPSMT-30"/>
       <use xlink:href="#TimesNewRomanPSMT-2e" x="50"/>
       <use xlink:href="#TimesNewRomanPSMT-39" x="75"/>
       <use xlink:href="#TimesNewRomanPSMT-38" x="125"/>
      </g>
     </g>
    </g>
    <g id="ytick_3">
     <g id="line2d_19">
      <path d="M 27 106.2 
L 194.4 106.2 
" clip-path="url(#pbbd8f63795)" style="fill: none; stroke: #b0b0b0; stroke-width: 0.8; stroke-linecap: square"/>
     </g>
     <g id="line2d_20">
      <g>
       <use xlink:href="#m793e5e8098" x="27" y="106.2" style="stroke: #000000; stroke-width: 0.8"/>
      </g>
     </g>
     <g id="text_10">
      <!-- 1.00 -->
      <g transform="translate(2.5 109.671875)scale(0.1 -0.1)">
       <use xlink:href="#TimesNewRomanPSMT-31"/>
       <use xlink:href="#TimesNewRomanPSMT-2e" x="50"/>
       <use xlink:href="#TimesNewRomanPSMT-30" x="75"/>
       <use xlink:href="#TimesNewRomanPSMT-30" x="125"/>
      </g>
     </g>
    </g>
    <g id="ytick_4">
     <g id="line2d_21">
      <path d="M 27 83.290909 
L 194.4 83.290909 
" clip-path="url(#pbbd8f63795)" style="fill: none; stroke: #b0b0b0; stroke-width: 0.8; stroke-linecap: square"/>
     </g>
     <g id="line2d_22">
      <g>
       <use xlink:href="#m793e5e8098" x="27" y="83.290909" style="stroke: #000000; stroke-width: 0.8"/>
      </g>
     </g>
     <g id="text_11">
      <!-- 1.02 -->
      <g transform="translate(2.5 86.762784)scale(0.1 -0.1)">
       <use xlink:href="#TimesNewRomanPSMT-31"/>
       <use xlink:href="#TimesNewRomanPSMT-2e" x="50"/>
       <use xlink:href="#TimesNewRomanPSMT-30" x="75"/>
       <use xlink:href="#TimesNewRomanPSMT-32" x="125"/>
      </g>
     </g>
    </g>
    <g id="ytick_5">
     <g id="line2d_23">
      <path d="M 27 60.381818 
L 194.4 60.381818 
" clip-path="url(#pbbd8f63795)" style="fill: none; stroke: #b0b0b0; stroke-width: 0.8; stroke-linecap: square"/>
     </g>
     <g id="line2d_24">
      <g>
       <use xlink:href="#m793e5e8098" x="27" y="60.381818" style="stroke: #000000; stroke-width: 0.8"/>
      </g>
     </g>
     <g id="text_12">
      <!-- 1.04 -->
      <g transform="translate(2.5 63.853693)scale(0.1 -0.1)">
       <use xlink:href="#TimesNewRomanPSMT-31"/>
       <use xlink:href="#TimesNewRomanPSMT-2e" x="50"/>
       <use xlink:href="#TimesNewRomanPSMT-30" x="75"/>
       <use xlink:href="#TimesNewRomanPSMT-34" x="125"/>
      </g>
     </g>
    </g>
    <g id="text_13">
     <!-- Voltages (pu) -->
     <g transform="translate(-3.657813 132.910156)rotate(-90)scale(0.1 -0.1)">
      <defs>
       <path id="TimesNewRomanPSMT-56" d="M 4544 4238 
L 4544 4122 
Q 4319 4081 4203 3978 
Q 4038 3825 3909 3509 
L 2431 -97 
L 2316 -97 
L 728 3556 
Q 606 3838 556 3900 
Q 478 3997 364 4051 
Q 250 4106 56 4122 
L 56 4238 
L 1788 4238 
L 1788 4122 
Q 1494 4094 1406 4022 
Q 1319 3950 1319 3838 
Q 1319 3681 1463 3350 
L 2541 866 
L 3541 3319 
Q 3688 3681 3688 3822 
Q 3688 3913 3597 3995 
Q 3506 4078 3291 4113 
Q 3275 4116 3238 4122 
L 3238 4238 
L 4544 4238 
z
" transform="scale(0.015625)"/>
       <path id="TimesNewRomanPSMT-6f" d="M 1600 2947 
Q 2250 2947 2644 2453 
Q 2978 2031 2978 1484 
Q 2978 1100 2793 706 
Q 2609 313 2286 112 
Q 1963 -88 1566 -88 
Q 919 -88 538 428 
Q 216 863 216 1403 
Q 216 1797 411 2186 
Q 606 2575 925 2761 
Q 1244 2947 1600 2947 
z
M 1503 2744 
Q 1338 2744 1170 2645 
Q 1003 2547 900 2300 
Q 797 2053 797 1666 
Q 797 1041 1045 587 
Q 1294 134 1700 134 
Q 2003 134 2200 384 
Q 2397 634 2397 1244 
Q 2397 2006 2069 2444 
Q 1847 2744 1503 2744 
z
" transform="scale(0.015625)"/>
       <path id="TimesNewRomanPSMT-6c" d="M 1184 4444 
L 1184 647 
Q 1184 378 1223 290 
Q 1263 203 1344 158 
Q 1425 113 1647 113 
L 1647 0 
L 244 0 
L 244 113 
Q 441 113 512 153 
Q 584 194 625 287 
Q 666 381 666 647 
L 666 3247 
Q 666 3731 644 3842 
Q 622 3953 573 3993 
Q 525 4034 450 4034 
Q 369 4034 244 3984 
L 191 4094 
L 1044 4444 
L 1184 4444 
z
" transform="scale(0.015625)"/>
       <path id="TimesNewRomanPSMT-74" d="M 1031 3803 
L 1031 2863 
L 1700 2863 
L 1700 2644 
L 1031 2644 
L 1031 788 
Q 1031 509 1111 412 
Q 1191 316 1316 316 
Q 1419 316 1516 380 
Q 1613 444 1666 569 
L 1788 569 
Q 1678 263 1478 108 
Q 1278 -47 1066 -47 
Q 922 -47 784 33 
Q 647 113 581 261 
Q 516 409 516 719 
L 516 2644 
L 63 2644 
L 63 2747 
Q 234 2816 414 2980 
Q 594 3144 734 3369 
Q 806 3488 934 3803 
L 1031 3803 
z
" transform="scale(0.015625)"/>
       <path id="TimesNewRomanPSMT-61" d="M 1822 413 
Q 1381 72 1269 19 
Q 1100 -59 909 -59 
Q 613 -59 420 144 
Q 228 347 228 678 
Q 228 888 322 1041 
Q 450 1253 767 1440 
Q 1084 1628 1822 1897 
L 1822 2009 
Q 1822 2438 1686 2597 
Q 1550 2756 1291 2756 
Q 1094 2756 978 2650 
Q 859 2544 859 2406 
L 866 2225 
Q 866 2081 792 2003 
Q 719 1925 600 1925 
Q 484 1925 411 2006 
Q 338 2088 338 2228 
Q 338 2497 613 2722 
Q 888 2947 1384 2947 
Q 1766 2947 2009 2819 
Q 2194 2722 2281 2516 
Q 2338 2381 2338 1966 
L 2338 994 
Q 2338 584 2353 492 
Q 2369 400 2405 369 
Q 2441 338 2488 338 
Q 2538 338 2575 359 
Q 2641 400 2828 588 
L 2828 413 
Q 2478 -56 2159 -56 
Q 2006 -56 1915 50 
Q 1825 156 1822 413 
z
M 1822 616 
L 1822 1706 
Q 1350 1519 1213 1441 
Q 966 1303 859 1153 
Q 753 1003 753 825 
Q 753 600 887 451 
Q 1022 303 1197 303 
Q 1434 303 1822 616 
z
" transform="scale(0.015625)"/>
       <path id="TimesNewRomanPSMT-67" d="M 966 1044 
Q 703 1172 562 1401 
Q 422 1631 422 1909 
Q 422 2334 742 2640 
Q 1063 2947 1563 2947 
Q 1972 2947 2272 2747 
L 2878 2747 
Q 3013 2747 3034 2739 
Q 3056 2731 3066 2713 
Q 3084 2684 3084 2613 
Q 3084 2531 3069 2500 
Q 3059 2484 3036 2475 
Q 3013 2466 2878 2466 
L 2506 2466 
Q 2681 2241 2681 1891 
Q 2681 1491 2375 1206 
Q 2069 922 1553 922 
Q 1341 922 1119 984 
Q 981 866 932 777 
Q 884 688 884 625 
Q 884 572 936 522 
Q 988 472 1138 450 
Q 1225 438 1575 428 
Q 2219 413 2409 384 
Q 2700 344 2873 169 
Q 3047 -6 3047 -263 
Q 3047 -616 2716 -925 
Q 2228 -1381 1444 -1381 
Q 841 -1381 425 -1109 
Q 191 -953 191 -784 
Q 191 -709 225 -634 
Q 278 -519 444 -313 
Q 466 -284 763 25 
Q 600 122 533 198 
Q 466 275 466 372 
Q 466 481 555 628 
Q 644 775 966 1044 
z
M 1509 2797 
Q 1278 2797 1122 2612 
Q 966 2428 966 2047 
Q 966 1553 1178 1281 
Q 1341 1075 1591 1075 
Q 1828 1075 1981 1253 
Q 2134 1431 2134 1813 
Q 2134 2309 1919 2591 
Q 1759 2797 1509 2797 
z
M 934 0 
Q 788 -159 713 -296 
Q 638 -434 638 -550 
Q 638 -700 819 -813 
Q 1131 -1006 1722 -1006 
Q 2284 -1006 2551 -807 
Q 2819 -609 2819 -384 
Q 2819 -222 2659 -153 
Q 2497 -84 2016 -72 
Q 1313 -53 934 0 
z
" transform="scale(0.015625)"/>
       <path id="TimesNewRomanPSMT-65" d="M 681 1784 
Q 678 1147 991 784 
Q 1303 422 1725 422 
Q 2006 422 2214 576 
Q 2422 731 2563 1106 
L 2659 1044 
Q 2594 616 2278 264 
Q 1963 -88 1488 -88 
Q 972 -88 605 314 
Q 238 716 238 1394 
Q 238 2128 614 2539 
Q 991 2950 1559 2950 
Q 2041 2950 2350 2633 
Q 2659 2316 2659 1784 
L 681 1784 
z
M 681 1966 
L 2006 1966 
Q 1991 2241 1941 2353 
Q 1863 2528 1708 2628 
Q 1553 2728 1384 2728 
Q 1125 2728 920 2526 
Q 716 2325 681 1966 
z
" transform="scale(0.015625)"/>
       <path id="TimesNewRomanPSMT-73" d="M 2050 2947 
L 2050 1972 
L 1947 1972 
Q 1828 2431 1642 2597 
Q 1456 2763 1169 2763 
Q 950 2763 815 2647 
Q 681 2531 681 2391 
Q 681 2216 781 2091 
Q 878 1963 1175 1819 
L 1631 1597 
Q 2266 1288 2266 781 
Q 2266 391 1970 151 
Q 1675 -88 1309 -88 
Q 1047 -88 709 6 
Q 606 38 541 38 
Q 469 38 428 -44 
L 325 -44 
L 325 978 
L 428 978 
Q 516 541 762 319 
Q 1009 97 1316 97 
Q 1531 97 1667 223 
Q 1803 350 1803 528 
Q 1803 744 1651 891 
Q 1500 1038 1047 1263 
Q 594 1488 453 1669 
Q 313 1847 313 2119 
Q 313 2472 555 2709 
Q 797 2947 1181 2947 
Q 1350 2947 1591 2875 
Q 1750 2828 1803 2828 
Q 1853 2828 1881 2850 
Q 1909 2872 1947 2947 
L 2050 2947 
z
" transform="scale(0.015625)"/>
       <path id="TimesNewRomanPSMT-20" transform="scale(0.015625)"/>
       <path id="TimesNewRomanPSMT-28" d="M 1988 -1253 
L 1988 -1369 
Q 1516 -1131 1200 -813 
Q 750 -359 506 256 
Q 263 872 263 1534 
Q 263 2503 741 3301 
Q 1219 4100 1988 4444 
L 1988 4313 
Q 1603 4100 1356 3731 
Q 1109 3363 987 2797 
Q 866 2231 866 1616 
Q 866 947 969 400 
Q 1050 -31 1165 -292 
Q 1281 -553 1476 -793 
Q 1672 -1034 1988 -1253 
z
" transform="scale(0.015625)"/>
       <path id="TimesNewRomanPSMT-70" d="M -6 2578 
L 875 2934 
L 994 2934 
L 994 2266 
Q 1216 2644 1439 2795 
Q 1663 2947 1909 2947 
Q 2341 2947 2628 2609 
Q 2981 2197 2981 1534 
Q 2981 794 2556 309 
Q 2206 -88 1675 -88 
Q 1444 -88 1275 -22 
Q 1150 25 994 166 
L 994 -706 
Q 994 -1000 1030 -1079 
Q 1066 -1159 1155 -1206 
Q 1244 -1253 1478 -1253 
L 1478 -1369 
L -22 -1369 
L -22 -1253 
L 56 -1253 
Q 228 -1256 350 -1188 
Q 409 -1153 442 -1076 
Q 475 -1000 475 -688 
L 475 2019 
Q 475 2297 450 2372 
Q 425 2447 370 2484 
Q 316 2522 222 2522 
Q 147 2522 31 2478 
L -6 2578 
z
M 994 2081 
L 994 1013 
Q 994 666 1022 556 
Q 1066 375 1236 237 
Q 1406 100 1666 100 
Q 1978 100 2172 344 
Q 2425 663 2425 1241 
Q 2425 1897 2138 2250 
Q 1938 2494 1663 2494 
Q 1513 2494 1366 2419 
Q 1253 2363 994 2081 
z
" transform="scale(0.015625)"/>
       <path id="TimesNewRomanPSMT-75" d="M 2709 2863 
L 2709 1128 
Q 2709 631 2732 520 
Q 2756 409 2807 365 
Q 2859 322 2928 322 
Q 3025 322 3147 375 
L 3191 266 
L 2334 -88 
L 2194 -88 
L 2194 519 
Q 1825 119 1631 15 
Q 1438 -88 1222 -88 
Q 981 -88 804 51 
Q 628 191 559 409 
Q 491 628 491 1028 
L 491 2306 
Q 491 2509 447 2587 
Q 403 2666 317 2708 
Q 231 2750 6 2747 
L 6 2863 
L 1009 2863 
L 1009 947 
Q 1009 547 1148 422 
Q 1288 297 1484 297 
Q 1619 297 1789 381 
Q 1959 466 2194 703 
L 2194 2325 
Q 2194 2569 2105 2655 
Q 2016 2741 1734 2747 
L 1734 2863 
L 2709 2863 
z
" transform="scale(0.015625)"/>
       <path id="TimesNewRomanPSMT-29" d="M 144 4313 
L 144 4444 
Q 619 4209 934 3891 
Q 1381 3434 1625 2820 
Q 1869 2206 1869 1541 
Q 1869 572 1392 -226 
Q 916 -1025 144 -1369 
L 144 -1253 
Q 528 -1038 776 -670 
Q 1025 -303 1145 264 
Q 1266 831 1266 1447 
Q 1266 2113 1163 2663 
Q 1084 3094 967 3353 
Q 850 3613 656 3853 
Q 463 4094 144 4313 
z
" transform="scale(0.015625)"/>
      </defs>
      <use xlink:href="#TimesNewRomanPSMT-56"/>
      <use xlink:href="#TimesNewRomanPSMT-6f" x="59.341797"/>
      <use xlink:href="#TimesNewRomanPSMT-6c" x="109.341797"/>
      <use xlink:href="#TimesNewRomanPSMT-74" x="137.125"/>
      <use xlink:href="#TimesNewRomanPSMT-61" x="164.908203"/>
      <use xlink:href="#TimesNewRomanPSMT-67" x="209.292969"/>
      <use xlink:href="#TimesNewRomanPSMT-65" x="259.292969"/>
      <use xlink:href="#TimesNewRomanPSMT-73" x="303.677734"/>
      <use xlink:href="#TimesNewRomanPSMT-20" x="342.59375"/>
      <use xlink:href="#TimesNewRomanPSMT-28" x="367.59375"/>
      <use xlink:href="#TimesNewRomanPSMT-70" x="400.894531"/>
      <use xlink:href="#TimesNewRomanPSMT-75" x="450.894531"/>
      <use xlink:href="#TimesNewRomanPSMT-29" x="500.894531"/>
     </g>
    </g>
   </g>
   <g id="line2d_25">
    <path d="M 9.5625 90.138698 
L 9.56436 90.138698 
L 20.27982 90.138698 
L 33.67182 90.138698 
L 47.06382 89.330728 
L 60.45582 88.447563 
L 73.84782 88.969306 
L 87.23982 92.4768 
L 100.63182 93.822957 
L 114.02382 94.794687 
L 127.41582 96.684711 
L 140.80782 95.684032 
L 154.19982 97.256188 
L 167.59182 103.104551 
L 180.98382 98.273944 
L 194.37582 90.138581 
" clip-path="url(#pbbd8f63795)" style="fill: none; stroke: #d9524f; stroke-width: 1.5; stroke-linecap: square"/>
   </g>
   <g id="line2d_26">
    <path d="M 9.5625 92.121146 
L 9.56436 92.121146 
L 20.27982 92.121146 
L 33.67182 92.121146 
L 47.06382 91.111014 
L 60.45582 90.019645 
L 73.84782 90.698161 
L 87.23982 95.156283 
L 100.63182 96.947068 
L 114.02382 98.159117 
L 127.41582 100.510574 
L 140.80782 99.239211 
L 154.19982 101.171313 
L 167.59182 108.268653 
L 180.98382 102.18185 
L 194.37582 92.120852 
" clip-path="url(#pbbd8f63795)" style="fill: none; stroke: #d9524f; stroke-width: 1.5; stroke-linecap: square"/>
   </g>
   <g id="line2d_27">
    <path d="M 9.5625 94.103616 
L 9.56436 94.103616 
L 20.27982 94.103616 
L 33.67182 94.103616 
L 47.06382 92.891327 
L 60.45582 91.591748 
L 73.84782 92.427041 
L 87.23982 97.835791 
L 100.63182 100.071218 
L 114.02382 101.523572 
L 127.41582 104.336406 
L 140.80782 102.794379 
L 154.19982 105.08634 
L 167.59182 113.431748 
L 180.98382 106.08922 
L 194.37582 94.103146 
" clip-path="url(#pbbd8f63795)" style="fill: none; stroke: #d9524f; stroke-width: 1.5; stroke-linecap: square"/>
   </g>
   <g id="line2d_28">
    <path d="M 9.5625 95.868137 
L 9.56436 95.868137 
L 20.27982 95.868137 
L 33.67182 95.868137 
L 47.06382 94.486421 
L 60.45582 93.016453 
L 73.84782 93.991444 
L 87.23982 100.220957 
L 100.63182 102.864763 
L 114.02382 104.518252 
L 127.41582 107.715289 
L 140.80782 105.939039 
L 154.19982 108.52264 
L 167.59182 117.846903 
L 180.98382 109.433118 
L 194.37582 95.867492 
" clip-path="url(#pbbd8f63795)" style="fill: none; stroke: #d9524f; stroke-width: 1.5; stroke-linecap: square"/>
   </g>
   <g id="line2d_29">
    <path d="M 9.5625 97.395681 
L 9.56436 97.395681 
L 20.27982 97.395681 
L 33.67182 97.395681 
L 47.06382 95.865479 
L 60.45582 94.245462 
L 73.84782 95.341409 
L 87.23982 102.286148 
L 100.63182 105.281802 
L 114.02382 107.111744 
L 127.41582 110.646199 
L 140.80782 108.665792 
L 154.19982 111.506867 
L 167.59182 121.70097 
L 180.98382 112.35091 
L 194.37582 97.394855 
" clip-path="url(#pbbd8f63795)" style="fill: none; stroke: #d9524f; stroke-width: 1.5; stroke-linecap: square"/>
   </g>
   <g id="line2d_30">
    <path d="M 9.5625 98.923225 
L 9.56436 98.923225 
L 20.27982 98.923225 
L 33.67182 98.923225 
L 47.06382 97.244533 
L 60.45582 95.474461 
L 73.84782 96.691364 
L 87.23982 104.351339 
L 100.63182 107.698836 
L 114.02382 109.705236 
L 127.41582 113.577105 
L 140.80782 111.392543 
L 154.19982 114.491079 
L 167.59182 125.554734 
L 180.98382 115.26854 
L 194.37582 98.922218 
" clip-path="url(#pbbd8f63795)" style="fill: none; stroke: #d9524f; stroke-width: 1.5; stroke-linecap: square"/>
   </g>
   <g id="line2d_31">
    <path d="M 9.5625 99.646849 
L 9.56436 99.646849 
L 20.27982 99.646849 
L 33.67182 99.646849 
L 47.06382 97.940812 
L 60.45582 96.160461 
L 73.84782 97.435127 
L 87.23982 105.328604 
L 100.63182 108.892338 
L 114.02382 110.929216 
L 127.41582 114.850346 
L 140.80782 112.598026 
L 154.19982 115.699299 
L 167.59182 126.623814 
L 180.98382 116.09621 
L 194.37582 99.645662 
" clip-path="url(#pbbd8f63795)" style="fill: none; stroke: #d9524f; stroke-width: 1.5; stroke-linecap: square"/>
   </g>
   <g id="line2d_32">
    <path d="M 9.5625 100.370468 
L 9.56436 100.370468 
L 20.27982 100.370468 
L 33.67182 100.370468 
L 47.06382 98.63709 
L 60.45582 96.84646 
L 73.84782 98.178889 
L 87.23982 106.30586 
L 100.63182 110.085835 
L 114.02382 112.15318 
L 127.41582 116.123528 
L 140.80782 113.803466 
L 154.19982 116.907412 
L 167.59182 127.69212 
L 180.98382 116.923462 
L 194.37582 100.369101 
" clip-path="url(#pbbd8f63795)" style="fill: none; stroke: #d9524f; stroke-width: 1.5; stroke-linecap: square"/>
   </g>
   <g id="line2d_33">
    <path d="M 9.5625 101.093905 
L 9.56436 101.093905 
L 20.27982 101.093905 
L 33.67182 101.093905 
L 47.06382 99.333212 
L 60.45582 97.532327 
L 73.84782 98.922505 
L 87.23982 107.282867 
L 100.63182 111.279055 
L 114.02382 113.376829 
L 127.41582 117.3963 
L 140.80782 115.008539 
L 154.19982 118.115048 
L 167.59182 128.759117 
L 180.98382 117.74989 
L 194.37582 101.092357 
" clip-path="url(#pbbd8f63795)" style="fill: none; stroke: #d9524f; stroke-width: 1.5; stroke-linecap: square"/>
   </g>
   <g id="line2d_34">
    <path d="M 9.5625 101.305358 
L 9.56436 101.305358 
L 20.27982 101.305358 
L 33.67182 101.305358 
L 47.06382 99.594472 
L 60.45582 97.872309 
L 73.84782 99.279956 
L 87.23982 107.566806 
L 100.63182 111.692519 
L 114.02382 113.727765 
L 127.41582 117.612935 
L 140.80782 115.244396 
L 154.19982 118.191481 
L 167.59182 128.05492 
L 180.98382 117.246781 
L 194.37582 101.303631 
" clip-path="url(#pbbd8f63795)" style="fill: none; stroke: #d9524f; stroke-width: 1.5; stroke-linecap: square"/>
   </g>
   <g id="line2d_35">
    <path d="M 9.5625 95.011113 
L 9.56436 95.011113 
L 20.27982 95.011113 
L 33.67182 95.011113 
L 47.06382 93.662561 
L 60.45582 92.205499 
L 73.84782 93.111912 
L 87.23982 99.061394 
L 100.63182 101.447876 
L 114.02382 103.06328 
L 127.41582 106.197235 
L 140.80782 104.503544 
L 154.19982 107.079197 
L 167.59182 116.541839 
L 180.98382 108.433106 
L 194.37582 95.010643 
" clip-path="url(#pbbd8f63795)" style="fill: none; stroke: #d9524f; stroke-width: 1.5; stroke-linecap: square"/>
   </g>
   <g id="line2d_36">
    <path d="M 9.5625 96.594953 
L 9.56436 96.594953 
L 20.27982 96.594953 
L 33.67182 96.594953 
L 47.06382 95.171822 
L 60.45582 93.67173 
L 73.84782 94.704425 
L 87.23982 101.201704 
L 100.63182 104.044995 
L 114.02382 105.746044 
L 127.41582 109.028078 
L 140.80782 107.174936 
L 154.19982 109.800362 
L 167.59182 119.168024 
L 180.98382 110.446544 
L 194.37582 96.594332 
" clip-path="url(#pbbd8f63795)" style="fill: none; stroke: #d9524f; stroke-width: 1.5; stroke-linecap: square"/>
   </g>
   <g id="line2d_37">
    <path d="M 9.5625 97.321012 
L 9.56436 97.321012 
L 20.27982 97.321012 
L 33.67182 97.321012 
L 47.06382 95.856687 
L 60.45582 94.326681 
L 73.84782 95.416998 
L 87.23982 102.181063 
L 100.63182 105.223489 
L 114.02382 106.971631 
L 127.41582 110.337573 
L 140.80782 108.40807 
L 154.19982 111.074253 
L 167.59182 120.479299 
L 180.98382 111.454445 
L 194.37582 97.320415 
" clip-path="url(#pbbd8f63795)" style="fill: none; stroke: #d9524f; stroke-width: 1.5; stroke-linecap: square"/>
   </g>
   <g id="line2d_38">
    <path d="M 9.5625 98.04627 
L 9.56436 98.04627 
L 20.27982 98.04627 
L 33.67182 98.04627 
L 47.06382 96.54098 
L 60.45582 94.981277 
L 73.84782 96.129129 
L 87.23982 103.158971 
L 100.63182 106.400175 
L 114.02382 108.194934 
L 127.41582 111.643673 
L 140.80782 109.638351 
L 154.19982 112.344204 
L 167.59182 121.780537 
L 180.98382 112.456689 
L 194.37582 98.045697 
" clip-path="url(#pbbd8f63795)" style="fill: none; stroke: #d9524f; stroke-width: 1.5; stroke-linecap: square"/>
   </g>
   <g id="line2d_39">
    <path d="M 9.5625 101.208765 
L 9.56436 101.208765 
L 20.27982 101.208765 
L 33.67182 101.208765 
L 47.06382 99.227148 
L 60.45582 97.117731 
L 73.84782 98.514155 
L 87.23982 107.438079 
L 100.63182 111.212487 
L 114.02382 113.580785 
L 127.41582 118.161145 
L 140.80782 115.620142 
L 154.19982 119.325891 
L 167.59182 132.715047 
L 180.98382 120.668272 
L 194.37582 101.20819 
" clip-path="url(#pbbd8f63795)" style="fill: none; stroke: #d9524f; stroke-width: 1.5; stroke-linecap: square"/>
   </g>
   <g id="line2d_40">
    <path d="M 9.5625 101.792412 
L 9.56436 101.792412 
L 20.27982 101.792412 
L 33.67182 101.792412 
L 47.06382 99.681242 
L 60.45582 97.412192 
L 73.84782 98.854663 
L 87.23982 108.234556 
L 100.63182 112.066312 
L 114.02382 114.594066 
L 127.41582 119.495162 
L 140.80782 116.823386 
L 154.19982 120.831753 
L 167.59182 135.498805 
L 180.98382 122.730202 
L 194.37582 101.791403 
" clip-path="url(#pbbd8f63795)" style="fill: none; stroke: #d9524f; stroke-width: 1.5; stroke-linecap: square"/>
   </g>
   <g id="line2d_41">
    <path d="M 9.5625 102.921217 
L 9.56436 102.921217 
L 20.27982 102.921217 
L 33.67182 102.921217 
L 47.06382 100.885235 
L 60.45582 98.766737 
L 73.84782 100.300698 
L 87.23982 109.756663 
L 100.63182 114.062404 
L 114.02382 116.492061 
L 127.41582 121.166367 
L 140.80782 118.468262 
L 154.19982 122.152991 
L 167.59182 135.080506 
L 180.98382 122.494889 
L 194.37582 102.919667 
" clip-path="url(#pbbd8f63795)" style="fill: none; stroke: #d9524f; stroke-width: 1.5; stroke-linecap: square"/>
   </g>
   <g id="line2d_42">
    <path d="M 9.5625 103.76072 
L 9.56436 103.76072 
L 20.27982 103.76072 
L 33.67182 103.76072 
L 47.06382 101.679863 
L 60.45582 99.530905 
L 73.84782 101.131843 
L 87.23982 110.891641 
L 100.63182 115.434142 
L 114.02382 117.915688 
L 127.41582 122.681505 
L 140.80782 119.895406 
L 154.19982 123.619923 
L 167.59182 136.552662 
L 180.98382 123.623742 
L 194.37582 103.758989 
" clip-path="url(#pbbd8f63795)" style="fill: none; stroke: #d9524f; stroke-width: 1.5; stroke-linecap: square"/>
   </g>
   <g id="line2d_43">
    <path d="M 9.5625 86.623458 
L 9.56436 86.623458 
L 20.27982 86.623458 
L 33.67182 86.623458 
L 47.06382 85.329004 
L 60.45582 84.24222 
L 73.84782 87.228452 
L 87.23982 96.50221 
L 100.63182 103.502184 
L 114.02382 102.862271 
L 127.41582 105.568146 
L 140.80782 102.870591 
L 154.19982 99.104324 
L 167.59182 97.459097 
L 180.98382 91.148801 
L 194.37582 86.62324 
" clip-path="url(#pbbd8f63795)" style="fill: none; stroke: #5cb85c; stroke-width: 1.5; stroke-linecap: square"/>
   </g>
   <g id="line2d_44">
    <path d="M 9.5625 99.754784 
L 9.56436 99.754784 
L 20.27982 99.754784 
L 33.67182 99.754784 
L 47.06382 98.104267 
L 60.45582 96.728705 
L 73.84782 100.469143 
L 87.23982 112.110972 
L 100.63182 120.719395 
L 114.02382 119.988376 
L 127.41582 123.259852 
L 140.80782 119.998956 
L 154.19982 115.507316 
L 167.59182 113.535021 
L 180.98382 105.672483 
L 194.37582 99.752239 
" clip-path="url(#pbbd8f63795)" style="fill: none; stroke: #5cb85c; stroke-width: 1.5; stroke-linecap: square"/>
   </g>
   <g id="line2d_45">
    <path d="M 9.5625 90.455021 
L 9.56436 90.455021 
L 20.27982 90.455021 
L 33.67182 90.455021 
L 47.06382 89.943803 
L 60.45582 90.185633 
L 73.84782 91.087356 
L 87.23982 96.784845 
L 100.63182 103.253328 
L 114.02382 105.384881 
L 127.41582 106.194417 
L 140.80782 104.463796 
L 154.19982 107.39203 
L 167.59182 101.880498 
L 180.98382 93.054384 
L 194.37582 90.455366 
" clip-path="url(#pbbd8f63795)" style="fill: none; stroke: #337ab7; stroke-width: 1.5; stroke-linecap: square"/>
   </g>
   <g id="line2d_46">
    <path d="M 9.5625 92.296002 
L 9.56436 92.296002 
L 20.27982 92.296002 
L 33.67182 92.296002 
L 47.06382 91.668828 
L 60.45582 91.904187 
L 73.84782 92.995378 
L 87.23982 99.754179 
L 100.63182 107.307571 
L 114.02382 109.770679 
L 127.41582 110.788719 
L 140.80782 108.737528 
L 154.19982 112.088149 
L 167.59182 105.898576 
L 180.98382 95.567167 
L 194.37582 92.297466 
" clip-path="url(#pbbd8f63795)" style="fill: none; stroke: #337ab7; stroke-width: 1.5; stroke-linecap: square"/>
   </g>
   <g id="line2d_47">
    <path d="M 9.5625 94.136568 
L 9.56436 94.136568 
L 20.27982 94.136568 
L 33.67182 94.136568 
L 47.06382 93.393535 
L 60.45582 93.622242 
L 73.84782 94.902637 
L 87.23982 102.718842 
L 100.63182 111.346986 
L 114.02382 114.136587 
L 127.41582 115.362388 
L 140.80782 112.994124 
L 154.19982 116.758866 
L 167.59182 109.906783 
L 180.98382 98.079126 
L 194.37582 94.139151 
" clip-path="url(#pbbd8f63795)" style="fill: none; stroke: #337ab7; stroke-width: 1.5; stroke-linecap: square"/>
   </g>
   <g id="line2d_48">
    <path d="M 9.5625 95.061256 
L 9.56436 95.061256 
L 20.27982 95.061256 
L 33.67182 95.061256 
L 47.06382 94.274465 
L 60.45582 94.447084 
L 73.84782 95.785464 
L 87.23982 103.795344 
L 100.63182 112.480486 
L 114.02382 115.252122 
L 127.41582 116.578804 
L 140.80782 114.158499 
L 154.19982 117.853281 
L 167.59182 111.28149 
L 180.98382 99.330959 
L 194.37582 95.064367 
" clip-path="url(#pbbd8f63795)" style="fill: none; stroke: #337ab7; stroke-width: 1.5; stroke-linecap: square"/>
   </g>
   <g id="line2d_49">
    <path d="M 9.5625 95.98587 
L 9.56436 95.98587 
L 20.27982 95.98587 
L 33.67182 95.98587 
L 47.06382 95.155342 
L 60.45582 95.271822 
L 73.84782 96.668119 
L 87.23982 104.870464 
L 100.63182 113.609139 
L 114.02382 116.361013 
L 127.41582 117.788379 
L 140.80782 115.317233 
L 154.19982 118.939075 
L 167.59182 112.653178 
L 180.98382 100.58264 
L 194.37582 95.98951 
" clip-path="url(#pbbd8f63795)" style="fill: none; stroke: #337ab7; stroke-width: 1.5; stroke-linecap: square"/>
   </g>
   <g id="line2d_50">
    <path d="M 9.5625 96.56804 
L 9.56436 96.56804 
L 20.27982 96.56804 
L 33.67182 96.56804 
L 47.06382 95.716544 
L 60.45582 95.773624 
L 73.84782 97.189512 
L 87.23982 105.359416 
L 100.63182 113.912113 
L 114.02382 116.568807 
L 127.41582 118.058066 
L 140.80782 115.603627 
L 154.19982 119.053114 
L 167.59182 113.226238 
L 180.98382 101.366305 
L 194.37582 96.572067 
" clip-path="url(#pbbd8f63795)" style="fill: none; stroke: #337ab7; stroke-width: 1.5; stroke-linecap: square"/>
   </g>
   <g id="line2d_51">
    <path d="M 9.5625 97.150211 
L 9.56436 97.150211 
L 20.27982 97.150211 
L 33.67182 97.150211 
L 47.06382 96.277745 
L 60.45582 96.275422 
L 73.84782 97.710895 
L 87.23982 105.848138 
L 100.63182 114.214053 
L 114.02382 116.775111 
L 127.41582 118.326248 
L 140.80782 115.888799 
L 154.19982 119.165151 
L 167.59182 113.798757 
L 180.98382 102.149968 
L 194.37582 97.154624 
" clip-path="url(#pbbd8f63795)" style="fill: none; stroke: #337ab7; stroke-width: 1.5; stroke-linecap: square"/>
   </g>
   <g id="line2d_52">
    <path d="M 9.5625 97.732374 
L 9.56436 97.732374 
L 20.27982 97.732374 
L 33.67182 97.732374 
L 47.06382 96.838942 
L 60.45582 96.777206 
L 73.84782 98.232249 
L 87.23982 106.336559 
L 100.63182 114.514807 
L 114.02382 116.979747 
L 127.41582 118.592744 
L 140.80782 116.172586 
L 154.19982 119.27498 
L 167.59182 114.370622 
L 180.98382 102.933619 
L 194.37582 97.737173 
" clip-path="url(#pbbd8f63795)" style="fill: none; stroke: #337ab7; stroke-width: 1.5; stroke-linecap: square"/>
   </g>
   <g id="line2d_53">
    <path d="M 9.5625 97.865523 
L 9.56436 97.865523 
L 20.27982 97.865523 
L 33.67182 97.865523 
L 47.06382 96.990626 
L 60.45582 96.830337 
L 73.84782 98.230078 
L 87.23982 105.783208 
L 100.63182 113.142509 
L 114.02382 115.293645 
L 127.41582 116.914915 
L 140.80782 114.670832 
L 154.19982 117.288144 
L 167.59182 113.472424 
L 180.98382 103.096249 
L 194.37582 97.870707 
" clip-path="url(#pbbd8f63795)" style="fill: none; stroke: #337ab7; stroke-width: 1.5; stroke-linecap: square"/>
   </g>
   <g id="line2d_54">
    <path d="M 9.5625 95.926403 
L 9.56436 95.926403 
L 20.27982 95.926403 
L 33.67182 95.926403 
L 47.06382 95.047742 
L 60.45582 95.354083 
L 73.84782 96.877352 
L 87.23982 106.255129 
L 100.63182 116.683157 
L 114.02382 120.072536 
L 127.41582 121.504375 
L 140.80782 118.662501 
L 154.19982 123.260439 
L 167.59182 114.810154 
L 180.98382 100.537593 
L 194.37582 95.930502 
" clip-path="url(#pbbd8f63795)" style="fill: none; stroke: #337ab7; stroke-width: 1.5; stroke-linecap: square"/>
   </g>
   <g id="line2d_55">
    <path d="M 9.5625 96.128861 
L 9.56436 96.128861 
L 20.27982 96.128861 
L 33.67182 96.128861 
L 47.06382 95.254436 
L 60.45582 95.499304 
L 73.84782 96.999981 
L 87.23982 106.094005 
L 100.63182 116.054307 
L 114.02382 119.255818 
L 127.41582 120.701615 
L 140.80782 117.959973 
L 154.19982 122.261591 
L 167.59182 114.484182 
L 180.98382 100.800145 
L 194.37582 96.13447 
" clip-path="url(#pbbd8f63795)" style="fill: none; stroke: #337ab7; stroke-width: 1.5; stroke-linecap: square"/>
   </g>
   <g id="line2d_56">
    <path d="M 9.5625 97.984605 
L 9.56436 97.984605 
L 20.27982 97.984605 
L 33.67182 97.984605 
L 47.06382 96.9469 
L 60.45582 97.354038 
L 73.84782 99.164442 
L 87.23982 110.405985 
L 100.63182 122.991699 
L 114.02382 127.101446 
L 127.41582 128.769015 
L 140.80782 125.365824 
L 154.19982 130.967701 
L 167.59182 120.572509 
L 180.98382 103.366009 
L 194.37582 97.990224 
" clip-path="url(#pbbd8f63795)" style="fill: none; stroke: #337ab7; stroke-width: 1.5; stroke-linecap: square"/>
   </g>
   <g id="line2d_57">
    <path d="M 9.5625 97.984605 
L 9.56436 97.984605 
L 20.27982 97.984605 
L 33.67182 97.984605 
L 47.06382 96.9469 
L 60.45582 97.354038 
L 73.84782 99.164442 
L 87.23982 110.405985 
L 100.63182 122.991699 
L 114.02382 127.101446 
L 127.41582 128.769015 
L 140.80782 125.365824 
L 154.19982 130.967701 
L 167.59182 120.572509 
L 180.98382 103.366009 
L 194.37582 97.990224 
" clip-path="url(#pbbd8f63795)" style="fill: none; stroke: #337ab7; stroke-width: 1.5; stroke-linecap: square"/>
   </g>
   <g id="line2d_58">
    <path d="M 9.5625 98.246761 
L 9.56436 98.246761 
L 20.27982 98.246761 
L 33.67182 98.246761 
L 47.06382 97.163844 
L 60.45582 97.673287 
L 73.84782 99.584113 
L 87.23982 111.651782 
L 100.63182 125.375314 
L 114.02382 129.906752 
L 127.41582 131.617094 
L 140.80782 127.943414 
L 154.19982 134.177628 
L 167.59182 122.43472 
L 180.98382 103.74628 
L 194.37582 98.250868 
" clip-path="url(#pbbd8f63795)" style="fill: none; stroke: #337ab7; stroke-width: 1.5; stroke-linecap: square"/>
   </g>
   <g id="line2d_59">
    <path d="M 9.5625 96.779586 
L 9.56436 96.779586 
L 20.27982 96.779586 
L 33.67182 96.779586 
L 47.06382 95.907813 
L 60.45582 95.990161 
L 73.84782 97.44578 
L 87.23982 105.899234 
L 100.63182 114.802094 
L 114.02382 117.580323 
L 127.41582 119.093676 
L 140.80782 116.554204 
L 154.19982 120.179498 
L 167.59182 113.990194 
L 180.98382 101.658631 
L 194.37582 96.783777 
" clip-path="url(#pbbd8f63795)" style="fill: none; stroke: #337ab7; stroke-width: 1.5; stroke-linecap: square"/>
   </g>
   <g id="line2d_60">
    <path d="M 9.5625 96.86554 
L 9.56436 96.86554 
L 20.27982 96.86554 
L 33.67182 96.86554 
L 47.06382 96.005128 
L 60.45582 96.026544 
L 73.84782 97.448113 
L 87.23982 105.559554 
L 100.63182 113.950022 
L 114.02382 116.53096 
L 127.41582 118.048547 
L 140.80782 115.620415 
L 154.19982 118.940709 
L 167.59182 113.433833 
L 180.98382 101.763109 
L 194.37582 96.870093 
" clip-path="url(#pbbd8f63795)" style="fill: none; stroke: #337ab7; stroke-width: 1.5; stroke-linecap: square"/>
   </g>
   <g id="line2d_61">
    <path d="M 9.5625 99.187671 
L 9.56436 99.187671 
L 20.27982 99.187671 
L 33.67182 99.187671 
L 47.06382 98.122884 
L 60.45582 98.346999 
L 73.84782 100.156088 
L 87.23982 110.952567 
L 100.63182 122.620322 
L 114.02382 126.333178 
L 127.41582 128.129009 
L 140.80782 124.875328 
L 154.19982 129.814542 
L 167.59182 121.048404 
L 180.98382 104.975004 
L 194.37582 99.192234 
" clip-path="url(#pbbd8f63795)" style="fill: none; stroke: #337ab7; stroke-width: 1.5; stroke-linecap: square"/>
   </g>
   <g id="line2d_62">
    <path d="M 9.5625 97.286574 
L 9.56436 97.286574 
L 20.27982 97.286574 
L 33.67182 97.286574 
L 47.06382 96.370243 
L 60.45582 96.496807 
L 73.84782 98.036889 
L 87.23982 107.074484 
L 100.63182 116.687754 
L 114.02382 119.710703 
L 127.41582 121.284048 
L 140.80782 118.566262 
L 154.19982 122.541248 
L 167.59182 115.647122 
L 180.98382 102.359413 
L 194.37582 97.290767 
" clip-path="url(#pbbd8f63795)" style="fill: none; stroke: #337ab7; stroke-width: 1.5; stroke-linecap: square"/>
   </g>
   <g id="line2d_63">
    <path d="M 9.5625 99.218543 
L 9.56436 99.218543 
L 20.27982 99.218543 
L 33.67182 99.218543 
L 47.06382 98.194359 
L 60.45582 98.262159 
L 73.84782 99.965033 
L 87.23982 109.784483 
L 100.63182 120.051042 
L 114.02382 123.235752 
L 127.41582 125.026252 
L 140.80782 122.080896 
L 154.19982 126.211719 
L 167.59182 119.235992 
L 180.98382 104.989195 
L 194.37582 99.223349 
" clip-path="url(#pbbd8f63795)" style="fill: none; stroke: #337ab7; stroke-width: 1.5; stroke-linecap: square"/>
   </g>
   <g id="line2d_64">
    <path d="M 9.5625 98.608159 
L 9.56436 98.608159 
L 20.27982 98.608159 
L 33.67182 98.608159 
L 47.06382 97.667978 
L 60.45582 97.572321 
L 73.84782 99.095752 
L 87.23982 107.503495 
L 100.63182 115.899885 
L 114.02382 118.407519 
L 127.41582 120.116851 
L 140.80782 117.61263 
L 154.19982 120.738736 
L 167.59182 115.897457 
L 180.98382 104.123154 
L 194.37582 98.613347 
" clip-path="url(#pbbd8f63795)" style="fill: none; stroke: #337ab7; stroke-width: 1.5; stroke-linecap: square"/>
   </g>
   <g id="line2d_65">
    <path d="M 9.5625 48.927273 
L 194.37582 48.927273 
" clip-path="url(#pbbd8f63795)" style="fill: none; stroke-dasharray: 1.5,2.475; stroke-dashoffset: 0; stroke: #d9524f; stroke-width: 1.5"/>
   </g>
   <g id="line2d_66">
    <path d="M 9.5625 163.472727 
L 194.37582 163.472727 
" clip-path="url(#pbbd8f63795)" style="fill: none; stroke-dasharray: 1.5,2.475; stroke-dashoffset: 0; stroke: #5cb85c; stroke-width: 1.5"/>
   </g>
   <g id="patch_3">
    <path d="M 27 169.2 
L 27 43.2 
" style="fill: none; stroke: #000000; stroke-width: 0.8; stroke-linejoin: miter; stroke-linecap: square"/>
   </g>
   <g id="patch_4">
    <path d="M 194.4 169.2 
L 194.4 43.2 
" style="fill: none; stroke: #000000; stroke-width: 0.8; stroke-linejoin: miter; stroke-linecap: square"/>
   </g>
   <g id="patch_5">
    <path d="M 27 169.2 
L 194.4 169.2 
" style="fill: none; stroke: #000000; stroke-width: 0.8; stroke-linejoin: miter; stroke-linecap: square"/>
   </g>
   <g id="patch_6">
    <path d="M 27 43.2 
L 194.4 43.2 
" style="fill: none; stroke: #000000; stroke-width: 0.8; stroke-linejoin: miter; stroke-linecap: square"/>
   </g>
  </g>
  <g id="axes_2">
   <g id="patch_7">
    <path d="M 27 320.4 
L 194.4 320.4 
L 194.4 194.4 
L 27 194.4 
z
" style="fill: #ffffff"/>
   </g>
   <g id="matplotlib.axis_3">
    <g id="xtick_8">
     <g id="line2d_67">
      <path d="M 27 320.4 
L 27 194.4 
" clip-path="url(#pdbb9517fd8)" style="fill: none; stroke: #b0b0b0; stroke-width: 0.8; stroke-linecap: square"/>
     </g>
     <g id="line2d_68">
      <g>
       <use xlink:href="#m4d1d6b9955" x="27" y="320.4" style="stroke: #000000; stroke-width: 0.8"/>
      </g>
     </g>
     <g id="text_14">
      <!-- 0 -->
      <g transform="translate(24.5 334.34375)scale(0.1 -0.1)">
       <use xlink:href="#TimesNewRomanPSMT-30"/>
      </g>
     </g>
    </g>
    <g id="xtick_9">
     <g id="line2d_69">
      <path d="M 54.9 320.4 
L 54.9 194.4 
" clip-path="url(#pdbb9517fd8)" style="fill: none; stroke: #b0b0b0; stroke-width: 0.8; stroke-linecap: square"/>
     </g>
     <g id="line2d_70">
      <g>
       <use xlink:href="#m4d1d6b9955" x="54.9" y="320.4" style="stroke: #000000; stroke-width: 0.8"/>
      </g>
     </g>
     <g id="text_15">
      <!-- 4 -->
      <g transform="translate(52.4 334.34375)scale(0.1 -0.1)">
       <use xlink:href="#TimesNewRomanPSMT-34"/>
      </g>
     </g>
    </g>
    <g id="xtick_10">
     <g id="line2d_71">
      <path d="M 82.8 320.4 
L 82.8 194.4 
" clip-path="url(#pdbb9517fd8)" style="fill: none; stroke: #b0b0b0; stroke-width: 0.8; stroke-linecap: square"/>
     </g>
     <g id="line2d_72">
      <g>
       <use xlink:href="#m4d1d6b9955" x="82.8" y="320.4" style="stroke: #000000; stroke-width: 0.8"/>
      </g>
     </g>
     <g id="text_16">
      <!-- 8 -->
      <g transform="translate(80.3 334.34375)scale(0.1 -0.1)">
       <use xlink:href="#TimesNewRomanPSMT-38"/>
      </g>
     </g>
    </g>
    <g id="xtick_11">
     <g id="line2d_73">
      <path d="M 110.7 320.4 
L 110.7 194.4 
" clip-path="url(#pdbb9517fd8)" style="fill: none; stroke: #b0b0b0; stroke-width: 0.8; stroke-linecap: square"/>
     </g>
     <g id="line2d_74">
      <g>
       <use xlink:href="#m4d1d6b9955" x="110.7" y="320.4" style="stroke: #000000; stroke-width: 0.8"/>
      </g>
     </g>
     <g id="text_17">
      <!-- 12 -->
      <g transform="translate(105.7 334.34375)scale(0.1 -0.1)">
       <use xlink:href="#TimesNewRomanPSMT-31"/>
       <use xlink:href="#TimesNewRomanPSMT-32" x="50"/>
      </g>
     </g>
    </g>
    <g id="xtick_12">
     <g id="line2d_75">
      <path d="M 138.6 320.4 
L 138.6 194.4 
" clip-path="url(#pdbb9517fd8)" style="fill: none; stroke: #b0b0b0; stroke-width: 0.8; stroke-linecap: square"/>
     </g>
     <g id="line2d_76">
      <g>
       <use xlink:href="#m4d1d6b9955" x="138.6" y="320.4" style="stroke: #000000; stroke-width: 0.8"/>
      </g>
     </g>
     <g id="text_18">
      <!-- 16 -->
      <g transform="translate(133.6 334.34375)scale(0.1 -0.1)">
       <use xlink:href="#TimesNewRomanPSMT-31"/>
       <use xlink:href="#TimesNewRomanPSMT-36" x="50"/>
      </g>
     </g>
    </g>
    <g id="xtick_13">
     <g id="line2d_77">
      <path d="M 166.5 320.4 
L 166.5 194.4 
" clip-path="url(#pdbb9517fd8)" style="fill: none; stroke: #b0b0b0; stroke-width: 0.8; stroke-linecap: square"/>
     </g>
     <g id="line2d_78">
      <g>
       <use xlink:href="#m4d1d6b9955" x="166.5" y="320.4" style="stroke: #000000; stroke-width: 0.8"/>
      </g>
     </g>
     <g id="text_19">
      <!-- 20 -->
      <g transform="translate(161.5 334.34375)scale(0.1 -0.1)">
       <use xlink:href="#TimesNewRomanPSMT-32"/>
       <use xlink:href="#TimesNewRomanPSMT-30" x="50"/>
      </g>
     </g>
    </g>
    <g id="xtick_14">
     <g id="line2d_79">
      <path d="M 194.4 320.4 
L 194.4 194.4 
" clip-path="url(#pdbb9517fd8)" style="fill: none; stroke: #b0b0b0; stroke-width: 0.8; stroke-linecap: square"/>
     </g>
     <g id="line2d_80">
      <g>
       <use xlink:href="#m4d1d6b9955" x="194.4" y="320.4" style="stroke: #000000; stroke-width: 0.8"/>
      </g>
     </g>
     <g id="text_20">
      <!-- 24 -->
      <g transform="translate(189.4 334.34375)scale(0.1 -0.1)">
       <use xlink:href="#TimesNewRomanPSMT-32"/>
       <use xlink:href="#TimesNewRomanPSMT-34" x="50"/>
      </g>
     </g>
    </g>
    <g id="text_21">
     <!-- Time (s) -->
     <g transform="translate(93.797656 347.426562)scale(0.1 -0.1)">
      <defs>
       <path id="TimesNewRomanPSMT-54" d="M 3703 4238 
L 3750 3244 
L 3631 3244 
Q 3597 3506 3538 3619 
Q 3441 3800 3280 3886 
Q 3119 3972 2856 3972 
L 2259 3972 
L 2259 734 
Q 2259 344 2344 247 
Q 2463 116 2709 116 
L 2856 116 
L 2856 0 
L 1059 0 
L 1059 116 
L 1209 116 
Q 1478 116 1591 278 
Q 1659 378 1659 734 
L 1659 3972 
L 1150 3972 
Q 853 3972 728 3928 
Q 566 3869 450 3700 
Q 334 3531 313 3244 
L 194 3244 
L 244 4238 
L 3703 4238 
z
" transform="scale(0.015625)"/>
       <path id="TimesNewRomanPSMT-69" d="M 928 4444 
Q 1059 4444 1151 4351 
Q 1244 4259 1244 4128 
Q 1244 3997 1151 3903 
Q 1059 3809 928 3809 
Q 797 3809 703 3903 
Q 609 3997 609 4128 
Q 609 4259 701 4351 
Q 794 4444 928 4444 
z
M 1188 2947 
L 1188 647 
Q 1188 378 1227 289 
Q 1266 200 1342 156 
Q 1419 113 1622 113 
L 1622 0 
L 231 0 
L 231 113 
Q 441 113 512 153 
Q 584 194 626 287 
Q 669 381 669 647 
L 669 1750 
Q 669 2216 641 2353 
Q 619 2453 572 2492 
Q 525 2531 444 2531 
Q 356 2531 231 2484 
L 188 2597 
L 1050 2947 
L 1188 2947 
z
" transform="scale(0.015625)"/>
       <path id="TimesNewRomanPSMT-6d" d="M 1050 2338 
Q 1363 2650 1419 2697 
Q 1559 2816 1721 2881 
Q 1884 2947 2044 2947 
Q 2313 2947 2506 2790 
Q 2700 2634 2766 2338 
Q 3088 2713 3309 2830 
Q 3531 2947 3766 2947 
Q 3994 2947 4170 2830 
Q 4347 2713 4450 2447 
Q 4519 2266 4519 1878 
L 4519 647 
Q 4519 378 4559 278 
Q 4591 209 4675 161 
Q 4759 113 4950 113 
L 4950 0 
L 3538 0 
L 3538 113 
L 3597 113 
Q 3781 113 3884 184 
Q 3956 234 3988 344 
Q 4000 397 4000 647 
L 4000 1878 
Q 4000 2228 3916 2372 
Q 3794 2572 3525 2572 
Q 3359 2572 3192 2489 
Q 3025 2406 2788 2181 
L 2781 2147 
L 2788 2013 
L 2788 647 
Q 2788 353 2820 281 
Q 2853 209 2943 161 
Q 3034 113 3253 113 
L 3253 0 
L 1806 0 
L 1806 113 
Q 2044 113 2133 169 
Q 2222 225 2256 338 
Q 2272 391 2272 647 
L 2272 1878 
Q 2272 2228 2169 2381 
Q 2031 2581 1784 2581 
Q 1616 2581 1450 2491 
Q 1191 2353 1050 2181 
L 1050 647 
Q 1050 366 1089 281 
Q 1128 197 1204 155 
Q 1281 113 1516 113 
L 1516 0 
L 100 0 
L 100 113 
Q 297 113 375 155 
Q 453 197 493 289 
Q 534 381 534 647 
L 534 1741 
Q 534 2213 506 2350 
Q 484 2453 437 2492 
Q 391 2531 309 2531 
Q 222 2531 100 2484 
L 53 2597 
L 916 2947 
L 1050 2947 
L 1050 2338 
z
" transform="scale(0.015625)"/>
      </defs>
      <use xlink:href="#TimesNewRomanPSMT-54"/>
      <use xlink:href="#TimesNewRomanPSMT-69" x="57.583984"/>
      <use xlink:href="#TimesNewRomanPSMT-6d" x="85.367188"/>
      <use xlink:href="#TimesNewRomanPSMT-65" x="163.150391"/>
      <use xlink:href="#TimesNewRomanPSMT-20" x="207.535156"/>
      <use xlink:href="#TimesNewRomanPSMT-28" x="232.535156"/>
      <use xlink:href="#TimesNewRomanPSMT-73" x="265.835938"/>
      <use xlink:href="#TimesNewRomanPSMT-29" x="304.751953"/>
     </g>
    </g>
   </g>
   <g id="matplotlib.axis_4">
    <g id="ytick_6">
     <g id="line2d_81">
      <path d="M 27 287.572517 
L 194.4 287.572517 
" clip-path="url(#pdbb9517fd8)" style="fill: none; stroke: #b0b0b0; stroke-width: 0.8; stroke-linecap: square"/>
     </g>
     <g id="line2d_82">
      <g>
       <use xlink:href="#m793e5e8098" x="27" y="287.572517" style="stroke: #000000; stroke-width: 0.8"/>
      </g>
     </g>
     <g id="text_22">
      <!-- 200 -->
      <g transform="translate(5 291.044392)scale(0.1 -0.1)">
       <use xlink:href="#TimesNewRomanPSMT-32"/>
       <use xlink:href="#TimesNewRomanPSMT-30" x="50"/>
       <use xlink:href="#TimesNewRomanPSMT-30" x="100"/>
      </g>
     </g>
    </g>
    <g id="ytick_7">
     <g id="line2d_83">
      <path d="M 27 254.237037 
L 194.4 254.237037 
" clip-path="url(#pdbb9517fd8)" style="fill: none; stroke: #b0b0b0; stroke-width: 0.8; stroke-linecap: square"/>
     </g>
     <g id="line2d_84">
      <g>
       <use xlink:href="#m793e5e8098" x="27" y="254.237037" style="stroke: #000000; stroke-width: 0.8"/>
      </g>
     </g>
     <g id="text_23">
      <!-- 400 -->
      <g transform="translate(5 257.708912)scale(0.1 -0.1)">
       <use xlink:href="#TimesNewRomanPSMT-34"/>
       <use xlink:href="#TimesNewRomanPSMT-30" x="50"/>
       <use xlink:href="#TimesNewRomanPSMT-30" x="100"/>
      </g>
     </g>
    </g>
    <g id="ytick_8">
     <g id="line2d_85">
      <path d="M 27 220.901557 
L 194.4 220.901557 
" clip-path="url(#pdbb9517fd8)" style="fill: none; stroke: #b0b0b0; stroke-width: 0.8; stroke-linecap: square"/>
     </g>
     <g id="line2d_86">
      <g>
       <use xlink:href="#m793e5e8098" x="27" y="220.901557" style="stroke: #000000; stroke-width: 0.8"/>
      </g>
     </g>
     <g id="text_24">
      <!-- 600 -->
      <g transform="translate(5 224.373432)scale(0.1 -0.1)">
       <use xlink:href="#TimesNewRomanPSMT-36"/>
       <use xlink:href="#TimesNewRomanPSMT-30" x="50"/>
       <use xlink:href="#TimesNewRomanPSMT-30" x="100"/>
      </g>
     </g>
    </g>
    <g id="text_25">
     <!-- Currents (A) -->
     <g transform="translate(-1.139063 282.810156)rotate(-90)scale(0.1 -0.1)">
      <defs>
       <path id="TimesNewRomanPSMT-43" d="M 3853 4334 
L 3950 2894 
L 3853 2894 
Q 3659 3541 3300 3825 
Q 2941 4109 2438 4109 
Q 2016 4109 1675 3895 
Q 1334 3681 1139 3212 
Q 944 2744 944 2047 
Q 944 1472 1128 1050 
Q 1313 628 1683 403 
Q 2053 178 2528 178 
Q 2941 178 3256 354 
Q 3572 531 3950 1056 
L 4047 994 
Q 3728 428 3303 165 
Q 2878 -97 2294 -97 
Q 1241 -97 663 684 
Q 231 1266 231 2053 
Q 231 2688 515 3219 
Q 800 3750 1298 4042 
Q 1797 4334 2388 4334 
Q 2847 4334 3294 4109 
Q 3425 4041 3481 4041 
Q 3566 4041 3628 4100 
Q 3709 4184 3744 4334 
L 3853 4334 
z
" transform="scale(0.015625)"/>
       <path id="TimesNewRomanPSMT-72" d="M 1038 2947 
L 1038 2303 
Q 1397 2947 1775 2947 
Q 1947 2947 2059 2842 
Q 2172 2738 2172 2600 
Q 2172 2478 2090 2393 
Q 2009 2309 1897 2309 
Q 1788 2309 1652 2417 
Q 1516 2525 1450 2525 
Q 1394 2525 1328 2463 
Q 1188 2334 1038 2041 
L 1038 669 
Q 1038 431 1097 309 
Q 1138 225 1241 169 
Q 1344 113 1538 113 
L 1538 0 
L 72 0 
L 72 113 
Q 291 113 397 181 
Q 475 231 506 341 
Q 522 394 522 644 
L 522 1753 
Q 522 2253 501 2348 
Q 481 2444 426 2487 
Q 372 2531 291 2531 
Q 194 2531 72 2484 
L 41 2597 
L 906 2947 
L 1038 2947 
z
" transform="scale(0.015625)"/>
       <path id="TimesNewRomanPSMT-6e" d="M 1034 2341 
Q 1538 2947 1994 2947 
Q 2228 2947 2397 2830 
Q 2566 2713 2666 2444 
Q 2734 2256 2734 1869 
L 2734 647 
Q 2734 375 2778 278 
Q 2813 200 2889 156 
Q 2966 113 3172 113 
L 3172 0 
L 1756 0 
L 1756 113 
L 1816 113 
Q 2016 113 2095 173 
Q 2175 234 2206 353 
Q 2219 400 2219 647 
L 2219 1819 
Q 2219 2209 2117 2386 
Q 2016 2563 1775 2563 
Q 1403 2563 1034 2156 
L 1034 647 
Q 1034 356 1069 288 
Q 1113 197 1189 155 
Q 1266 113 1500 113 
L 1500 0 
L 84 0 
L 84 113 
L 147 113 
Q 366 113 442 223 
Q 519 334 519 647 
L 519 1709 
Q 519 2225 495 2337 
Q 472 2450 423 2490 
Q 375 2531 294 2531 
Q 206 2531 84 2484 
L 38 2597 
L 900 2947 
L 1034 2947 
L 1034 2341 
z
" transform="scale(0.015625)"/>
       <path id="TimesNewRomanPSMT-41" d="M 2928 1419 
L 1288 1419 
L 1000 750 
Q 894 503 894 381 
Q 894 284 986 211 
Q 1078 138 1384 116 
L 1384 0 
L 50 0 
L 50 116 
Q 316 163 394 238 
Q 553 388 747 847 
L 2238 4334 
L 2347 4334 
L 3822 809 
Q 4000 384 4145 257 
Q 4291 131 4550 116 
L 4550 0 
L 2878 0 
L 2878 116 
Q 3131 128 3220 200 
Q 3309 272 3309 375 
Q 3309 513 3184 809 
L 2928 1419 
z
M 2841 1650 
L 2122 3363 
L 1384 1650 
L 2841 1650 
z
" transform="scale(0.015625)"/>
      </defs>
      <use xlink:href="#TimesNewRomanPSMT-43"/>
      <use xlink:href="#TimesNewRomanPSMT-75" x="66.699219"/>
      <use xlink:href="#TimesNewRomanPSMT-72" x="116.699219"/>
      <use xlink:href="#TimesNewRomanPSMT-72" x="150"/>
      <use xlink:href="#TimesNewRomanPSMT-65" x="183.300781"/>
      <use xlink:href="#TimesNewRomanPSMT-6e" x="227.685547"/>
      <use xlink:href="#TimesNewRomanPSMT-74" x="277.685547"/>
      <use xlink:href="#TimesNewRomanPSMT-73" x="305.46875"/>
      <use xlink:href="#TimesNewRomanPSMT-20" x="344.384766"/>
      <use xlink:href="#TimesNewRomanPSMT-28" x="369.384766"/>
      <use xlink:href="#TimesNewRomanPSMT-41" x="402.685547"/>
      <use xlink:href="#TimesNewRomanPSMT-29" x="474.902344"/>
     </g>
    </g>
   </g>
   <g id="line2d_87">
    <path d="M 9.5625 286.584575 
L 9.56436 286.584575 
L 20.27982 286.584575 
L 33.67182 286.584575 
L 47.06382 289.926277 
L 60.45582 293.294006 
L 73.84782 290.579947 
L 87.23982 274.525071 
L 100.63182 266.640932 
L 114.02382 262.679175 
L 127.41582 255.09999 
L 140.80782 259.67505 
L 154.19982 253.880355 
L 167.59182 234.073275 
L 180.98382 255.063352 
L 194.37582 286.585913 
" clip-path="url(#pdbb9517fd8)" style="fill: none; stroke: #d9524f; stroke-width: 1.5; stroke-linecap: square"/>
   </g>
   <g id="line2d_88">
    <path d="M 9.5625 286.51969 
L 9.56436 286.51969 
L 20.27982 286.51969 
L 33.67182 286.51969 
L 47.06382 289.856854 
L 60.45582 293.21581 
L 73.84782 290.496587 
L 87.23982 274.438945 
L 100.63182 266.528348 
L 114.02382 262.573311 
L 127.41582 255.010039 
L 140.80782 259.585158 
L 154.19982 253.811636 
L 167.59182 234.119635 
L 180.98382 255.085591 
L 194.37582 286.521028 
" clip-path="url(#pdbb9517fd8)" style="fill: none; stroke: #d9524f; stroke-width: 1.5; stroke-linecap: square"/>
   </g>
   <g id="line2d_89">
    <path d="M 9.5625 286.097195 
L 9.56436 286.097195 
L 20.27982 286.097195 
L 33.67182 286.097195 
L 47.06382 289.465286 
L 60.45582 292.852348 
L 73.84782 290.10079 
L 87.23982 273.877385 
L 100.63182 265.869719 
L 114.02382 261.880697 
L 127.41582 254.254229 
L 140.80782 258.874053 
L 154.19982 253.058495 
L 167.59182 233.248343 
L 180.98382 254.409045 
L 194.37582 286.098577 
" clip-path="url(#pdbb9517fd8)" style="fill: none; stroke: #d9524f; stroke-width: 1.5; stroke-linecap: square"/>
   </g>
   <g id="line2d_90">
    <path d="M 9.5625 311.75101 
L 9.56436 311.75101 
L 20.27982 311.75101 
L 33.67182 311.75101 
L 47.06382 310.48415 
L 60.45582 309.615429 
L 73.84782 311.056573 
L 87.23982 311.046062 
L 100.63182 303.558892 
L 114.02382 302.631414 
L 127.41582 299.010256 
L 140.80782 302.495706 
L 154.19982 302.530024 
L 167.59182 302.09447 
L 180.98382 314.672727 
L 194.37582 311.750411 
" clip-path="url(#pdbb9517fd8)" style="fill: none; stroke: #5cb85c; stroke-width: 1.5; stroke-linecap: square"/>
   </g>
   <g id="line2d_91">
    <path d="M 9.5625 311.842039 
L 9.56436 311.842039 
L 20.27982 311.842039 
L 33.67182 311.842039 
L 47.06382 310.596415 
L 60.45582 309.747096 
L 73.84782 311.12803 
L 87.23982 311.050333 
L 100.63182 303.641637 
L 114.02382 302.695829 
L 127.41582 299.105815 
L 140.80782 302.559186 
L 154.19982 302.494734 
L 167.59182 302.005887 
L 180.98382 314.603777 
L 194.37582 311.841388 
" clip-path="url(#pdbb9517fd8)" style="fill: none; stroke: #5cb85c; stroke-width: 1.5; stroke-linecap: square"/>
   </g>
   <g id="line2d_92">
    <path d="M 9.5625 312.236685 
L 9.56436 312.236685 
L 20.27982 312.236685 
L 33.67182 312.236685 
L 47.06382 311.004739 
L 60.45582 310.156818 
L 73.84782 311.521502 
L 87.23982 310.871788 
L 100.63182 303.205923 
L 114.02382 302.208796 
L 127.41582 298.577018 
L 140.80782 302.068612 
L 154.19982 301.965993 
L 167.59182 301.472487 
L 180.98382 314.276861 
L 194.37582 312.235985 
" clip-path="url(#pdbb9517fd8)" style="fill: none; stroke: #5cb85c; stroke-width: 1.5; stroke-linecap: square"/>
   </g>
   <g id="line2d_93">
    <path d="M 9.5625 299.743021 
L 9.56436 299.743021 
L 20.27982 299.743021 
L 33.67182 299.743021 
L 47.06382 301.02777 
L 60.45582 301.284079 
L 73.84782 299.222519 
L 87.23982 287.949906 
L 100.63182 276.583942 
L 114.02382 273.144286 
L 127.41582 270.819085 
L 140.80782 274.244075 
L 154.19982 269.923985 
L 167.59182 276.506473 
L 180.98382 292.036317 
L 194.37582 299.741043 
" clip-path="url(#pdbb9517fd8)" style="fill: none; stroke: #337ab7; stroke-width: 1.5; stroke-linecap: square"/>
   </g>
   <g id="line2d_94">
    <path d="M 9.5625 299.647034 
L 9.56436 299.647034 
L 20.27982 299.647034 
L 33.67182 299.647034 
L 47.06382 300.936372 
L 60.45582 301.19775 
L 73.84782 299.12989 
L 87.23982 287.833147 
L 100.63182 276.452656 
L 114.02382 273.010781 
L 127.41582 270.675507 
L 140.80782 274.108035 
L 154.19982 269.78838 
L 167.59182 276.356208 
L 180.98382 291.907404 
L 194.37582 299.645004 
" clip-path="url(#pdbb9517fd8)" style="fill: none; stroke: #337ab7; stroke-width: 1.5; stroke-linecap: square"/>
   </g>
   <g id="line2d_95">
    <path d="M 9.5625 299.606936 
L 9.56436 299.606936 
L 20.27982 299.606936 
L 33.67182 299.606936 
L 47.06382 300.899806 
L 60.45582 301.15761 
L 73.84782 299.082992 
L 87.23982 287.739543 
L 100.63182 276.301146 
L 114.02382 272.83913 
L 127.41582 270.498066 
L 140.80782 273.945926 
L 154.19982 269.597586 
L 167.59182 276.223148 
L 180.98382 291.852403 
L 194.37582 299.604859 
" clip-path="url(#pdbb9517fd8)" style="fill: none; stroke: #337ab7; stroke-width: 1.5; stroke-linecap: square"/>
   </g>
   <g id="line2d_96">
    <path d="M 9.5625 200.127273 
L 194.37582 200.127273 
" clip-path="url(#pdbb9517fd8)" style="fill: none; stroke-dasharray: 1.5,2.475; stroke-dashoffset: 0; stroke: #d9524f; stroke-width: 1.5"/>
   </g>
   <g id="line2d_97">
    <path d="M 9.5625 282.258165 
L 194.37582 282.258165 
" clip-path="url(#pdbb9517fd8)" style="fill: none; stroke-dasharray: 1.5,2.475; stroke-dashoffset: 0; stroke: #5cb85c; stroke-width: 1.5"/>
   </g>
   <g id="line2d_98">
    <path d="M 9.5625 248.439562 
L 194.37582 248.439562 
" clip-path="url(#pdbb9517fd8)" style="fill: none; stroke-dasharray: 1.5,2.475; stroke-dashoffset: 0; stroke: #337ab7; stroke-width: 1.5"/>
   </g>
   <g id="patch_8">
    <path d="M 27 320.4 
L 27 194.4 
" style="fill: none; stroke: #000000; stroke-width: 0.8; stroke-linejoin: miter; stroke-linecap: square"/>
   </g>
   <g id="patch_9">
    <path d="M 194.4 320.4 
L 194.4 194.4 
" style="fill: none; stroke: #000000; stroke-width: 0.8; stroke-linejoin: miter; stroke-linecap: square"/>
   </g>
   <g id="patch_10">
    <path d="M 27 320.4 
L 194.4 320.4 
" style="fill: none; stroke: #000000; stroke-width: 0.8; stroke-linejoin: miter; stroke-linecap: square"/>
   </g>
   <g id="patch_11">
    <path d="M 27 194.4 
L 194.4 194.4 
" style="fill: none; stroke: #000000; stroke-width: 0.8; stroke-linejoin: miter; stroke-linecap: square"/>
   </g>
  </g>
 </g>
 <defs>
  <clipPath id="pbbd8f63795">
   <rect x="27" y="43.2" width="167.4" height="126"/>
  </clipPath>
  <clipPath id="pdbb9517fd8">
   <rect x="27" y="194.4" width="167.4" height="126"/>
  </clipPath>
 </defs>
</svg>
