<?xml version="1.0" encoding="utf-8" standalone="no"?>
<!DOCTYPE svg PUBLIC "-//W3C//DTD SVG 1.1//EN"
  "http://www.w3.org/Graphics/SVG/1.1/DTD/svg11.dtd">
<svg xmlns:xlink="http://www.w3.org/1999/xlink" width="216pt" height="360pt" viewBox="0 0 216 360" xmlns="http://www.w3.org/2000/svg" version="1.1">
 <metadata>
  <rdf:RDF xmlns:dc="http://purl.org/dc/elements/1.1/" xmlns:cc="http://creativecommons.org/ns#" xmlns:rdf="http://www.w3.org/1999/02/22-rdf-syntax-ns#">
   <cc:Work>
    <dc:type rdf:resource="http://purl.org/dc/dcmitype/StillImage"/>
    <dc:date>2023-02-12T01:00:47.889736</dc:date>
    <dc:format>image/svg+xml</dc:format>
    <dc:creator>
     <cc:Agent>
      <dc:title>Matplotlib v3.5.2, https://matplotlib.org/</dc:title>
     </cc:Agent>
    </dc:creator>
   </cc:Work>
  </rdf:RDF>
 </metadata>
 <defs>
  <style type="text/css">*{stroke-linejoin: round; stroke-linecap: butt}</style>
 </defs>
 <g id="figure_1">
  <g id="patch_1">
   <path d="M 0 360 
L 216 360 
L 216 0 
L 0 0 
z
" style="fill: #ffffff"/>
  </g>
  <g id="axes_1">
   <g id="patch_2">
    <path d="M 27 169.2 
L 194.4 169.2 
L 194.4 43.2 
L 27 43.2 
z
" style="fill: #ffffff"/>
   </g>
   <g id="matplotlib.axis_1">
    <g id="xtick_1">
     <g id="line2d_1">
      <path d="M 27 169.2 
L 27 43.2 
" clip-path="url(#pded262ac89)" style="fill: none; stroke: #b0b0b0; stroke-width: 0.8; stroke-linecap: square"/>
     </g>
     <g id="line2d_2">
      <defs>
       <path id="md961e4ba80" d="M 0 0 
L 0 3.5 
" style="stroke: #000000; stroke-width: 0.8"/>
      </defs>
      <g>
       <use xlink:href="#md961e4ba80" x="27" y="169.2" style="stroke: #000000; stroke-width: 0.8"/>
      </g>
     </g>
     <g id="text_1">
      <!-- 0 -->
      <g transform="translate(24.5 183.14375)scale(0.1 -0.1)">
       <defs>
        <path id="TimesNewRomanPSMT-30" d="M 231 2094 
Q 231 2819 450 3342 
Q 669 3866 1031 4122 
Q 1313 4325 1613 4325 
Q 2100 4325 2488 3828 
Q 2972 3213 2972 2159 
Q 2972 1422 2759 906 
Q 2547 391 2217 158 
Q 1888 -75 1581 -75 
Q 975 -75 572 641 
Q 231 1244 231 2094 
z
M 844 2016 
Q 844 1141 1059 588 
Q 1238 122 1591 122 
Q 1759 122 1940 273 
Q 2122 425 2216 781 
Q 2359 1319 2359 2297 
Q 2359 3022 2209 3506 
Q 2097 3866 1919 4016 
Q 1791 4119 1609 4119 
Q 1397 4119 1231 3928 
Q 1006 3669 925 3112 
Q 844 2556 844 2016 
z
" transform="scale(0.015625)"/>
       </defs>
       <use xlink:href="#TimesNewRomanPSMT-30"/>
      </g>
     </g>
    </g>
    <g id="xtick_2">
     <g id="line2d_3">
      <path d="M 54.9 169.2 
L 54.9 43.2 
" clip-path="url(#pded262ac89)" style="fill: none; stroke: #b0b0b0; stroke-width: 0.8; stroke-linecap: square"/>
     </g>
     <g id="line2d_4">
      <g>
       <use xlink:href="#md961e4ba80" x="54.9" y="169.2" style="stroke: #000000; stroke-width: 0.8"/>
      </g>
     </g>
     <g id="text_2">
      <!-- 4 -->
      <g transform="translate(52.4 183.14375)scale(0.1 -0.1)">
       <defs>
        <path id="TimesNewRomanPSMT-34" d="M 2978 1563 
L 2978 1119 
L 2409 1119 
L 2409 0 
L 1894 0 
L 1894 1119 
L 100 1119 
L 100 1519 
L 2066 4325 
L 2409 4325 
L 2409 1563 
L 2978 1563 
z
M 1894 1563 
L 1894 3666 
L 406 1563 
L 1894 1563 
z
" transform="scale(0.015625)"/>
       </defs>
       <use xlink:href="#TimesNewRomanPSMT-34"/>
      </g>
     </g>
    </g>
    <g id="xtick_3">
     <g id="line2d_5">
      <path d="M 82.8 169.2 
L 82.8 43.2 
" clip-path="url(#pded262ac89)" style="fill: none; stroke: #b0b0b0; stroke-width: 0.8; stroke-linecap: square"/>
     </g>
     <g id="line2d_6">
      <g>
       <use xlink:href="#md961e4ba80" x="82.8" y="169.2" style="stroke: #000000; stroke-width: 0.8"/>
      </g>
     </g>
     <g id="text_3">
      <!-- 8 -->
      <g transform="translate(80.3 183.14375)scale(0.1 -0.1)">
       <defs>
        <path id="TimesNewRomanPSMT-38" d="M 1228 2134 
Q 725 2547 579 2797 
Q 434 3047 434 3316 
Q 434 3728 753 4026 
Q 1072 4325 1600 4325 
Q 2113 4325 2425 4047 
Q 2738 3769 2738 3413 
Q 2738 3175 2569 2928 
Q 2400 2681 1866 2347 
Q 2416 1922 2594 1678 
Q 2831 1359 2831 1006 
Q 2831 559 2490 242 
Q 2150 -75 1597 -75 
Q 994 -75 656 303 
Q 388 606 388 966 
Q 388 1247 577 1523 
Q 766 1800 1228 2134 
z
M 1719 2469 
Q 2094 2806 2194 3001 
Q 2294 3197 2294 3444 
Q 2294 3772 2109 3958 
Q 1925 4144 1606 4144 
Q 1288 4144 1088 3959 
Q 888 3775 888 3528 
Q 888 3366 970 3203 
Q 1053 3041 1206 2894 
L 1719 2469 
z
M 1375 2016 
Q 1116 1797 991 1539 
Q 866 1281 866 981 
Q 866 578 1086 336 
Q 1306 94 1647 94 
Q 1984 94 2187 284 
Q 2391 475 2391 747 
Q 2391 972 2272 1150 
Q 2050 1481 1375 2016 
z
" transform="scale(0.015625)"/>
       </defs>
       <use xlink:href="#TimesNewRomanPSMT-38"/>
      </g>
     </g>
    </g>
    <g id="xtick_4">
     <g id="line2d_7">
      <path d="M 110.7 169.2 
L 110.7 43.2 
" clip-path="url(#pded262ac89)" style="fill: none; stroke: #b0b0b0; stroke-width: 0.8; stroke-linecap: square"/>
     </g>
     <g id="line2d_8">
      <g>
       <use xlink:href="#md961e4ba80" x="110.7" y="169.2" style="stroke: #000000; stroke-width: 0.8"/>
      </g>
     </g>
     <g id="text_4">
      <!-- 12 -->
      <g transform="translate(105.7 183.14375)scale(0.1 -0.1)">
       <defs>
        <path id="TimesNewRomanPSMT-31" d="M 750 3822 
L 1781 4325 
L 1884 4325 
L 1884 747 
Q 1884 391 1914 303 
Q 1944 216 2037 169 
Q 2131 122 2419 116 
L 2419 0 
L 825 0 
L 825 116 
Q 1125 122 1212 167 
Q 1300 213 1334 289 
Q 1369 366 1369 747 
L 1369 3034 
Q 1369 3497 1338 3628 
Q 1316 3728 1258 3775 
Q 1200 3822 1119 3822 
Q 1003 3822 797 3725 
L 750 3822 
z
" transform="scale(0.015625)"/>
        <path id="TimesNewRomanPSMT-32" d="M 2934 816 
L 2638 0 
L 138 0 
L 138 116 
Q 1241 1122 1691 1759 
Q 2141 2397 2141 2925 
Q 2141 3328 1894 3587 
Q 1647 3847 1303 3847 
Q 991 3847 742 3664 
Q 494 3481 375 3128 
L 259 3128 
Q 338 3706 661 4015 
Q 984 4325 1469 4325 
Q 1984 4325 2329 3994 
Q 2675 3663 2675 3213 
Q 2675 2891 2525 2569 
Q 2294 2063 1775 1497 
Q 997 647 803 472 
L 1909 472 
Q 2247 472 2383 497 
Q 2519 522 2628 598 
Q 2738 675 2819 816 
L 2934 816 
z
" transform="scale(0.015625)"/>
       </defs>
       <use xlink:href="#TimesNewRomanPSMT-31"/>
       <use xlink:href="#TimesNewRomanPSMT-32" x="50"/>
      </g>
     </g>
    </g>
    <g id="xtick_5">
     <g id="line2d_9">
      <path d="M 138.6 169.2 
L 138.6 43.2 
" clip-path="url(#pded262ac89)" style="fill: none; stroke: #b0b0b0; stroke-width: 0.8; stroke-linecap: square"/>
     </g>
     <g id="line2d_10">
      <g>
       <use xlink:href="#md961e4ba80" x="138.6" y="169.2" style="stroke: #000000; stroke-width: 0.8"/>
      </g>
     </g>
     <g id="text_5">
      <!-- 16 -->
      <g transform="translate(133.6 183.14375)scale(0.1 -0.1)">
       <defs>
        <path id="TimesNewRomanPSMT-36" d="M 2869 4325 
L 2869 4209 
Q 2456 4169 2195 4045 
Q 1934 3922 1679 3669 
Q 1425 3416 1258 3105 
Q 1091 2794 978 2366 
Q 1428 2675 1881 2675 
Q 2316 2675 2634 2325 
Q 2953 1975 2953 1425 
Q 2953 894 2631 456 
Q 2244 -75 1606 -75 
Q 1172 -75 869 213 
Q 275 772 275 1663 
Q 275 2231 503 2743 
Q 731 3256 1154 3653 
Q 1578 4050 1965 4187 
Q 2353 4325 2688 4325 
L 2869 4325 
z
M 925 2138 
Q 869 1716 869 1456 
Q 869 1156 980 804 
Q 1091 453 1309 247 
Q 1469 100 1697 100 
Q 1969 100 2183 356 
Q 2397 613 2397 1088 
Q 2397 1622 2184 2012 
Q 1972 2403 1581 2403 
Q 1463 2403 1327 2353 
Q 1191 2303 925 2138 
z
" transform="scale(0.015625)"/>
       </defs>
       <use xlink:href="#TimesNewRomanPSMT-31"/>
       <use xlink:href="#TimesNewRomanPSMT-36" x="50"/>
      </g>
     </g>
    </g>
    <g id="xtick_6">
     <g id="line2d_11">
      <path d="M 166.5 169.2 
L 166.5 43.2 
" clip-path="url(#pded262ac89)" style="fill: none; stroke: #b0b0b0; stroke-width: 0.8; stroke-linecap: square"/>
     </g>
     <g id="line2d_12">
      <g>
       <use xlink:href="#md961e4ba80" x="166.5" y="169.2" style="stroke: #000000; stroke-width: 0.8"/>
      </g>
     </g>
     <g id="text_6">
      <!-- 20 -->
      <g transform="translate(161.5 183.14375)scale(0.1 -0.1)">
       <use xlink:href="#TimesNewRomanPSMT-32"/>
       <use xlink:href="#TimesNewRomanPSMT-30" x="50"/>
      </g>
     </g>
    </g>
    <g id="xtick_7">
     <g id="line2d_13">
      <path d="M 194.4 169.2 
L 194.4 43.2 
" clip-path="url(#pded262ac89)" style="fill: none; stroke: #b0b0b0; stroke-width: 0.8; stroke-linecap: square"/>
     </g>
     <g id="line2d_14">
      <g>
       <use xlink:href="#md961e4ba80" x="194.4" y="169.2" style="stroke: #000000; stroke-width: 0.8"/>
      </g>
     </g>
     <g id="text_7">
      <!-- 24 -->
      <g transform="translate(189.4 183.14375)scale(0.1 -0.1)">
       <use xlink:href="#TimesNewRomanPSMT-32"/>
       <use xlink:href="#TimesNewRomanPSMT-34" x="50"/>
      </g>
     </g>
    </g>
   </g>
   <g id="matplotlib.axis_2">
    <g id="ytick_1">
     <g id="line2d_15">
      <path d="M 27 152.018182 
L 194.4 152.018182 
" clip-path="url(#pded262ac89)" style="fill: none; stroke: #b0b0b0; stroke-width: 0.8; stroke-linecap: square"/>
     </g>
     <g id="line2d_16">
      <defs>
       <path id="mcde312553c" d="M 0 0 
L -3.5 0 
" style="stroke: #000000; stroke-width: 0.8"/>
      </defs>
      <g>
       <use xlink:href="#mcde312553c" x="27" y="152.018182" style="stroke: #000000; stroke-width: 0.8"/>
      </g>
     </g>
     <g id="text_8">
      <!-- 0.96 -->
      <g transform="translate(2.5 155.490057)scale(0.1 -0.1)">
       <defs>
        <path id="TimesNewRomanPSMT-2e" d="M 800 606 
Q 947 606 1047 504 
Q 1147 403 1147 259 
Q 1147 116 1045 14 
Q 944 -88 800 -88 
Q 656 -88 554 14 
Q 453 116 453 259 
Q 453 406 554 506 
Q 656 606 800 606 
z
" transform="scale(0.015625)"/>
        <path id="TimesNewRomanPSMT-39" d="M 338 -88 
L 338 28 
Q 744 34 1094 217 
Q 1444 400 1770 856 
Q 2097 1313 2225 1859 
Q 1734 1544 1338 1544 
Q 891 1544 572 1889 
Q 253 2234 253 2806 
Q 253 3363 572 3797 
Q 956 4325 1575 4325 
Q 2097 4325 2469 3894 
Q 2925 3359 2925 2575 
Q 2925 1869 2578 1258 
Q 2231 647 1613 244 
Q 1109 -88 516 -88 
L 338 -88 
z
M 2275 2091 
Q 2331 2497 2331 2741 
Q 2331 3044 2228 3395 
Q 2125 3747 1936 3934 
Q 1747 4122 1506 4122 
Q 1228 4122 1018 3872 
Q 809 3622 809 3128 
Q 809 2469 1088 2097 
Q 1291 1828 1588 1828 
Q 1731 1828 1928 1897 
Q 2125 1966 2275 2091 
z
" transform="scale(0.015625)"/>
       </defs>
       <use xlink:href="#TimesNewRomanPSMT-30"/>
       <use xlink:href="#TimesNewRomanPSMT-2e" x="50"/>
       <use xlink:href="#TimesNewRomanPSMT-39" x="75"/>
       <use xlink:href="#TimesNewRomanPSMT-36" x="125"/>
      </g>
     </g>
    </g>
    <g id="ytick_2">
     <g id="line2d_17">
      <path d="M 27 129.109091 
L 194.4 129.109091 
" clip-path="url(#pded262ac89)" style="fill: none; stroke: #b0b0b0; stroke-width: 0.8; stroke-linecap: square"/>
     </g>
     <g id="line2d_18">
      <g>
       <use xlink:href="#mcde312553c" x="27" y="129.109091" style="stroke: #000000; stroke-width: 0.8"/>
      </g>
     </g>
     <g id="text_9">
      <!-- 0.98 -->
      <g transform="translate(2.5 132.580966)scale(0.1 -0.1)">
       <use xlink:href="#TimesNewRomanPSMT-30"/>
       <use xlink:href="#TimesNewRomanPSMT-2e" x="50"/>
       <use xlink:href="#TimesNewRomanPSMT-39" x="75"/>
       <use xlink:href="#TimesNewRomanPSMT-38" x="125"/>
      </g>
     </g>
    </g>
    <g id="ytick_3">
     <g id="line2d_19">
      <path d="M 27 106.2 
L 194.4 106.2 
" clip-path="url(#pded262ac89)" style="fill: none; stroke: #b0b0b0; stroke-width: 0.8; stroke-linecap: square"/>
     </g>
     <g id="line2d_20">
      <g>
       <use xlink:href="#mcde312553c" x="27" y="106.2" style="stroke: #000000; stroke-width: 0.8"/>
      </g>
     </g>
     <g id="text_10">
      <!-- 1.00 -->
      <g transform="translate(2.5 109.671875)scale(0.1 -0.1)">
       <use xlink:href="#TimesNewRomanPSMT-31"/>
       <use xlink:href="#TimesNewRomanPSMT-2e" x="50"/>
       <use xlink:href="#TimesNewRomanPSMT-30" x="75"/>
       <use xlink:href="#TimesNewRomanPSMT-30" x="125"/>
      </g>
     </g>
    </g>
    <g id="ytick_4">
     <g id="line2d_21">
      <path d="M 27 83.290909 
L 194.4 83.290909 
" clip-path="url(#pded262ac89)" style="fill: none; stroke: #b0b0b0; stroke-width: 0.8; stroke-linecap: square"/>
     </g>
     <g id="line2d_22">
      <g>
       <use xlink:href="#mcde312553c" x="27" y="83.290909" style="stroke: #000000; stroke-width: 0.8"/>
      </g>
     </g>
     <g id="text_11">
      <!-- 1.02 -->
      <g transform="translate(2.5 86.762784)scale(0.1 -0.1)">
       <use xlink:href="#TimesNewRomanPSMT-31"/>
       <use xlink:href="#TimesNewRomanPSMT-2e" x="50"/>
       <use xlink:href="#TimesNewRomanPSMT-30" x="75"/>
       <use xlink:href="#TimesNewRomanPSMT-32" x="125"/>
      </g>
     </g>
    </g>
    <g id="ytick_5">
     <g id="line2d_23">
      <path d="M 27 60.381818 
L 194.4 60.381818 
" clip-path="url(#pded262ac89)" style="fill: none; stroke: #b0b0b0; stroke-width: 0.8; stroke-linecap: square"/>
     </g>
     <g id="line2d_24">
      <g>
       <use xlink:href="#mcde312553c" x="27" y="60.381818" style="stroke: #000000; stroke-width: 0.8"/>
      </g>
     </g>
     <g id="text_12">
      <!-- 1.04 -->
      <g transform="translate(2.5 63.853693)scale(0.1 -0.1)">
       <use xlink:href="#TimesNewRomanPSMT-31"/>
       <use xlink:href="#TimesNewRomanPSMT-2e" x="50"/>
       <use xlink:href="#TimesNewRomanPSMT-30" x="75"/>
       <use xlink:href="#TimesNewRomanPSMT-34" x="125"/>
      </g>
     </g>
    </g>
    <g id="text_13">
     <!-- Voltages (pu) -->
     <g transform="translate(-3.657813 132.910156)rotate(-90)scale(0.1 -0.1)">
      <defs>
       <path id="TimesNewRomanPSMT-56" d="M 4544 4238 
L 4544 4122 
Q 4319 4081 4203 3978 
Q 4038 3825 3909 3509 
L 2431 -97 
L 2316 -97 
L 728 3556 
Q 606 3838 556 3900 
Q 478 3997 364 4051 
Q 250 4106 56 4122 
L 56 4238 
L 1788 4238 
L 1788 4122 
Q 1494 4094 1406 4022 
Q 1319 3950 1319 3838 
Q 1319 3681 1463 3350 
L 2541 866 
L 3541 3319 
Q 3688 3681 3688 3822 
Q 3688 3913 3597 3995 
Q 3506 4078 3291 4113 
Q 3275 4116 3238 4122 
L 3238 4238 
L 4544 4238 
z
" transform="scale(0.015625)"/>
       <path id="TimesNewRomanPSMT-6f" d="M 1600 2947 
Q 2250 2947 2644 2453 
Q 2978 2031 2978 1484 
Q 2978 1100 2793 706 
Q 2609 313 2286 112 
Q 1963 -88 1566 -88 
Q 919 -88 538 428 
Q 216 863 216 1403 
Q 216 1797 411 2186 
Q 606 2575 925 2761 
Q 1244 2947 1600 2947 
z
M 1503 2744 
Q 1338 2744 1170 2645 
Q 1003 2547 900 2300 
Q 797 2053 797 1666 
Q 797 1041 1045 587 
Q 1294 134 1700 134 
Q 2003 134 2200 384 
Q 2397 634 2397 1244 
Q 2397 2006 2069 2444 
Q 1847 2744 1503 2744 
z
" transform="scale(0.015625)"/>
       <path id="TimesNewRomanPSMT-6c" d="M 1184 4444 
L 1184 647 
Q 1184 378 1223 290 
Q 1263 203 1344 158 
Q 1425 113 1647 113 
L 1647 0 
L 244 0 
L 244 113 
Q 441 113 512 153 
Q 584 194 625 287 
Q 666 381 666 647 
L 666 3247 
Q 666 3731 644 3842 
Q 622 3953 573 3993 
Q 525 4034 450 4034 
Q 369 4034 244 3984 
L 191 4094 
L 1044 4444 
L 1184 4444 
z
" transform="scale(0.015625)"/>
       <path id="TimesNewRomanPSMT-74" d="M 1031 3803 
L 1031 2863 
L 1700 2863 
L 1700 2644 
L 1031 2644 
L 1031 788 
Q 1031 509 1111 412 
Q 1191 316 1316 316 
Q 1419 316 1516 380 
Q 1613 444 1666 569 
L 1788 569 
Q 1678 263 1478 108 
Q 1278 -47 1066 -47 
Q 922 -47 784 33 
Q 647 113 581 261 
Q 516 409 516 719 
L 516 2644 
L 63 2644 
L 63 2747 
Q 234 2816 414 2980 
Q 594 3144 734 3369 
Q 806 3488 934 3803 
L 1031 3803 
z
" transform="scale(0.015625)"/>
       <path id="TimesNewRomanPSMT-61" d="M 1822 413 
Q 1381 72 1269 19 
Q 1100 -59 909 -59 
Q 613 -59 420 144 
Q 228 347 228 678 
Q 228 888 322 1041 
Q 450 1253 767 1440 
Q 1084 1628 1822 1897 
L 1822 2009 
Q 1822 2438 1686 2597 
Q 1550 2756 1291 2756 
Q 1094 2756 978 2650 
Q 859 2544 859 2406 
L 866 2225 
Q 866 2081 792 2003 
Q 719 1925 600 1925 
Q 484 1925 411 2006 
Q 338 2088 338 2228 
Q 338 2497 613 2722 
Q 888 2947 1384 2947 
Q 1766 2947 2009 2819 
Q 2194 2722 2281 2516 
Q 2338 2381 2338 1966 
L 2338 994 
Q 2338 584 2353 492 
Q 2369 400 2405 369 
Q 2441 338 2488 338 
Q 2538 338 2575 359 
Q 2641 400 2828 588 
L 2828 413 
Q 2478 -56 2159 -56 
Q 2006 -56 1915 50 
Q 1825 156 1822 413 
z
M 1822 616 
L 1822 1706 
Q 1350 1519 1213 1441 
Q 966 1303 859 1153 
Q 753 1003 753 825 
Q 753 600 887 451 
Q 1022 303 1197 303 
Q 1434 303 1822 616 
z
" transform="scale(0.015625)"/>
       <path id="TimesNewRomanPSMT-67" d="M 966 1044 
Q 703 1172 562 1401 
Q 422 1631 422 1909 
Q 422 2334 742 2640 
Q 1063 2947 1563 2947 
Q 1972 2947 2272 2747 
L 2878 2747 
Q 3013 2747 3034 2739 
Q 3056 2731 3066 2713 
Q 3084 2684 3084 2613 
Q 3084 2531 3069 2500 
Q 3059 2484 3036 2475 
Q 3013 2466 2878 2466 
L 2506 2466 
Q 2681 2241 2681 1891 
Q 2681 1491 2375 1206 
Q 2069 922 1553 922 
Q 1341 922 1119 984 
Q 981 866 932 777 
Q 884 688 884 625 
Q 884 572 936 522 
Q 988 472 1138 450 
Q 1225 438 1575 428 
Q 2219 413 2409 384 
Q 2700 344 2873 169 
Q 3047 -6 3047 -263 
Q 3047 -616 2716 -925 
Q 2228 -1381 1444 -1381 
Q 841 -1381 425 -1109 
Q 191 -953 191 -784 
Q 191 -709 225 -634 
Q 278 -519 444 -313 
Q 466 -284 763 25 
Q 600 122 533 198 
Q 466 275 466 372 
Q 466 481 555 628 
Q 644 775 966 1044 
z
M 1509 2797 
Q 1278 2797 1122 2612 
Q 966 2428 966 2047 
Q 966 1553 1178 1281 
Q 1341 1075 1591 1075 
Q 1828 1075 1981 1253 
Q 2134 1431 2134 1813 
Q 2134 2309 1919 2591 
Q 1759 2797 1509 2797 
z
M 934 0 
Q 788 -159 713 -296 
Q 638 -434 638 -550 
Q 638 -700 819 -813 
Q 1131 -1006 1722 -1006 
Q 2284 -1006 2551 -807 
Q 2819 -609 2819 -384 
Q 2819 -222 2659 -153 
Q 2497 -84 2016 -72 
Q 1313 -53 934 0 
z
" transform="scale(0.015625)"/>
       <path id="TimesNewRomanPSMT-65" d="M 681 1784 
Q 678 1147 991 784 
Q 1303 422 1725 422 
Q 2006 422 2214 576 
Q 2422 731 2563 1106 
L 2659 1044 
Q 2594 616 2278 264 
Q 1963 -88 1488 -88 
Q 972 -88 605 314 
Q 238 716 238 1394 
Q 238 2128 614 2539 
Q 991 2950 1559 2950 
Q 2041 2950 2350 2633 
Q 2659 2316 2659 1784 
L 681 1784 
z
M 681 1966 
L 2006 1966 
Q 1991 2241 1941 2353 
Q 1863 2528 1708 2628 
Q 1553 2728 1384 2728 
Q 1125 2728 920 2526 
Q 716 2325 681 1966 
z
" transform="scale(0.015625)"/>
       <path id="TimesNewRomanPSMT-73" d="M 2050 2947 
L 2050 1972 
L 1947 1972 
Q 1828 2431 1642 2597 
Q 1456 2763 1169 2763 
Q 950 2763 815 2647 
Q 681 2531 681 2391 
Q 681 2216 781 2091 
Q 878 1963 1175 1819 
L 1631 1597 
Q 2266 1288 2266 781 
Q 2266 391 1970 151 
Q 1675 -88 1309 -88 
Q 1047 -88 709 6 
Q 606 38 541 38 
Q 469 38 428 -44 
L 325 -44 
L 325 978 
L 428 978 
Q 516 541 762 319 
Q 1009 97 1316 97 
Q 1531 97 1667 223 
Q 1803 350 1803 528 
Q 1803 744 1651 891 
Q 1500 1038 1047 1263 
Q 594 1488 453 1669 
Q 313 1847 313 2119 
Q 313 2472 555 2709 
Q 797 2947 1181 2947 
Q 1350 2947 1591 2875 
Q 1750 2828 1803 2828 
Q 1853 2828 1881 2850 
Q 1909 2872 1947 2947 
L 2050 2947 
z
" transform="scale(0.015625)"/>
       <path id="TimesNewRomanPSMT-20" transform="scale(0.015625)"/>
       <path id="TimesNewRomanPSMT-28" d="M 1988 -1253 
L 1988 -1369 
Q 1516 -1131 1200 -813 
Q 750 -359 506 256 
Q 263 872 263 1534 
Q 263 2503 741 3301 
Q 1219 4100 1988 4444 
L 1988 4313 
Q 1603 4100 1356 3731 
Q 1109 3363 987 2797 
Q 866 2231 866 1616 
Q 866 947 969 400 
Q 1050 -31 1165 -292 
Q 1281 -553 1476 -793 
Q 1672 -1034 1988 -1253 
z
" transform="scale(0.015625)"/>
       <path id="TimesNewRomanPSMT-70" d="M -6 2578 
L 875 2934 
L 994 2934 
L 994 2266 
Q 1216 2644 1439 2795 
Q 1663 2947 1909 2947 
Q 2341 2947 2628 2609 
Q 2981 2197 2981 1534 
Q 2981 794 2556 309 
Q 2206 -88 1675 -88 
Q 1444 -88 1275 -22 
Q 1150 25 994 166 
L 994 -706 
Q 994 -1000 1030 -1079 
Q 1066 -1159 1155 -1206 
Q 1244 -1253 1478 -1253 
L 1478 -1369 
L -22 -1369 
L -22 -1253 
L 56 -1253 
Q 228 -1256 350 -1188 
Q 409 -1153 442 -1076 
Q 475 -1000 475 -688 
L 475 2019 
Q 475 2297 450 2372 
Q 425 2447 370 2484 
Q 316 2522 222 2522 
Q 147 2522 31 2478 
L -6 2578 
z
M 994 2081 
L 994 1013 
Q 994 666 1022 556 
Q 1066 375 1236 237 
Q 1406 100 1666 100 
Q 1978 100 2172 344 
Q 2425 663 2425 1241 
Q 2425 1897 2138 2250 
Q 1938 2494 1663 2494 
Q 1513 2494 1366 2419 
Q 1253 2363 994 2081 
z
" transform="scale(0.015625)"/>
       <path id="TimesNewRomanPSMT-75" d="M 2709 2863 
L 2709 1128 
Q 2709 631 2732 520 
Q 2756 409 2807 365 
Q 2859 322 2928 322 
Q 3025 322 3147 375 
L 3191 266 
L 2334 -88 
L 2194 -88 
L 2194 519 
Q 1825 119 1631 15 
Q 1438 -88 1222 -88 
Q 981 -88 804 51 
Q 628 191 559 409 
Q 491 628 491 1028 
L 491 2306 
Q 491 2509 447 2587 
Q 403 2666 317 2708 
Q 231 2750 6 2747 
L 6 2863 
L 1009 2863 
L 1009 947 
Q 1009 547 1148 422 
Q 1288 297 1484 297 
Q 1619 297 1789 381 
Q 1959 466 2194 703 
L 2194 2325 
Q 2194 2569 2105 2655 
Q 2016 2741 1734 2747 
L 1734 2863 
L 2709 2863 
z
" transform="scale(0.015625)"/>
       <path id="TimesNewRomanPSMT-29" d="M 144 4313 
L 144 4444 
Q 619 4209 934 3891 
Q 1381 3434 1625 2820 
Q 1869 2206 1869 1541 
Q 1869 572 1392 -226 
Q 916 -1025 144 -1369 
L 144 -1253 
Q 528 -1038 776 -670 
Q 1025 -303 1145 264 
Q 1266 831 1266 1447 
Q 1266 2113 1163 2663 
Q 1084 3094 967 3353 
Q 850 3613 656 3853 
Q 463 4094 144 4313 
z
" transform="scale(0.015625)"/>
      </defs>
      <use xlink:href="#TimesNewRomanPSMT-56"/>
      <use xlink:href="#TimesNewRomanPSMT-6f" x="59.341797"/>
      <use xlink:href="#TimesNewRomanPSMT-6c" x="109.341797"/>
      <use xlink:href="#TimesNewRomanPSMT-74" x="137.125"/>
      <use xlink:href="#TimesNewRomanPSMT-61" x="164.908203"/>
      <use xlink:href="#TimesNewRomanPSMT-67" x="209.292969"/>
      <use xlink:href="#TimesNewRomanPSMT-65" x="259.292969"/>
      <use xlink:href="#TimesNewRomanPSMT-73" x="303.677734"/>
      <use xlink:href="#TimesNewRomanPSMT-20" x="342.59375"/>
      <use xlink:href="#TimesNewRomanPSMT-28" x="367.59375"/>
      <use xlink:href="#TimesNewRomanPSMT-70" x="400.894531"/>
      <use xlink:href="#TimesNewRomanPSMT-75" x="450.894531"/>
      <use xlink:href="#TimesNewRomanPSMT-29" x="500.894531"/>
     </g>
    </g>
   </g>
   <g id="line2d_25">
    <path d="M 9.5625 96.326525 
L 9.56436 96.326525 
L 20.27982 96.326525 
L 33.67182 96.326525 
L 47.06382 96.378805 
L 60.45582 95.471636 
L 73.84782 95.130705 
L 87.23982 94.414955 
L 100.63182 95.258326 
L 114.02382 95.390547 
L 127.41582 97.254331 
L 140.80782 96.136777 
L 154.19982 99.822997 
L 167.59182 110.11477 
L 180.98382 104.66208 
L 194.37582 96.326617 
" clip-path="url(#pded262ac89)" style="fill: none; stroke: #d9524f; stroke-width: 1.5; stroke-linecap: square"/>
   </g>
   <g id="line2d_26">
    <path d="M 9.5625 99.772317 
L 9.56436 99.772317 
L 20.27982 99.772317 
L 33.67182 99.772317 
L 47.06382 99.822783 
L 60.45582 98.702079 
L 73.84782 98.316497 
L 87.23982 97.593993 
L 100.63182 98.856363 
L 114.02382 99.043283 
L 127.41582 101.353242 
L 140.80782 99.910347 
L 154.19982 104.524399 
L 167.59182 117.039691 
L 180.98382 110.078384 
L 194.37582 99.772414 
" clip-path="url(#pded262ac89)" style="fill: none; stroke: #d9524f; stroke-width: 1.5; stroke-linecap: square"/>
   </g>
   <g id="line2d_27">
    <path d="M 9.5625 103.217789 
L 9.56436 103.217789 
L 20.27982 103.217789 
L 33.67182 103.217789 
L 47.06382 103.266418 
L 60.45582 101.932266 
L 73.84782 101.502104 
L 87.23982 100.773024 
L 100.63182 102.454451 
L 114.02382 102.696072 
L 127.41582 105.452181 
L 140.80782 103.683947 
L 154.19982 109.225713 
L 167.59182 123.962472 
L 180.98382 115.493053 
L 194.37582 103.217893 
" clip-path="url(#pded262ac89)" style="fill: none; stroke: #d9524f; stroke-width: 1.5; stroke-linecap: square"/>
   </g>
   <g id="line2d_28">
    <path d="M 9.5625 106.182104 
L 9.56436 106.182104 
L 20.27982 106.182104 
L 33.67182 106.182104 
L 47.06382 106.224367 
L 60.45582 104.715464 
L 73.84782 104.26109 
L 87.23982 103.582487 
L 100.63182 105.683981 
L 114.02382 105.978737 
L 127.41582 109.103796 
L 140.80782 107.046763 
L 154.19982 113.37148 
L 167.59182 129.862087 
L 180.98382 120.073778 
L 194.37582 106.182214 
" clip-path="url(#pded262ac89)" style="fill: none; stroke: #d9524f; stroke-width: 1.5; stroke-linecap: square"/>
   </g>
   <g id="line2d_29">
    <path d="M 9.5625 108.765866 
L 9.56436 108.765866 
L 20.27982 108.765866 
L 33.67182 108.765866 
L 47.06382 108.803371 
L 60.45582 107.140574 
L 73.84782 106.66273 
L 87.23982 106.018741 
L 100.63182 108.476637 
L 114.02382 108.81674 
L 127.41582 112.266363 
L 140.80782 109.958779 
L 154.19982 116.969483 
L 167.59182 135.016994 
L 180.98382 124.080518 
L 194.37582 108.765996 
" clip-path="url(#pded262ac89)" style="fill: none; stroke: #d9524f; stroke-width: 1.5; stroke-linecap: square"/>
   </g>
   <g id="line2d_30">
    <path d="M 9.5625 111.349536 
L 9.56436 111.349536 
L 20.27982 111.349536 
L 33.67182 111.349536 
L 47.06382 111.382274 
L 60.45582 109.565611 
L 73.84782 109.064322 
L 87.23982 108.454994 
L 100.63182 111.269278 
L 114.02382 111.654724 
L 127.41582 115.428927 
L 140.80782 112.870793 
L 154.19982 120.567479 
L 167.59182 140.171233 
L 180.98382 128.086708 
L 194.37582 111.349687 
" clip-path="url(#pded262ac89)" style="fill: none; stroke: #d9524f; stroke-width: 1.5; stroke-linecap: square"/>
   </g>
   <g id="line2d_31">
    <path d="M 9.5625 112.15092 
L 9.56436 112.15092 
L 20.27982 112.15092 
L 33.67182 112.15092 
L 47.06382 112.162157 
L 60.45582 110.335966 
L 73.84782 109.886779 
L 87.23982 109.523233 
L 100.63182 112.696057 
L 114.02382 113.120837 
L 127.41582 116.931122 
L 140.80782 114.259562 
L 154.19982 122.09954 
L 167.59182 141.49541 
L 180.98382 128.986186 
L 194.37582 112.151091 
" clip-path="url(#pded262ac89)" style="fill: none; stroke: #d9524f; stroke-width: 1.5; stroke-linecap: square"/>
   </g>
   <g id="line2d_32">
    <path d="M 9.5625 112.952044 
L 9.56436 112.952044 
L 20.27982 112.952044 
L 33.67182 112.952044 
L 47.06382 112.941761 
L 60.45582 111.106107 
L 73.84782 110.709074 
L 87.23982 110.591434 
L 100.63182 114.122835 
L 114.02382 114.58695 
L 127.41582 118.433296 
L 140.80782 115.648314 
L 154.19982 123.631494 
L 167.59182 142.817949 
L 180.98382 129.884427 
L 194.37582 112.952236 
" clip-path="url(#pded262ac89)" style="fill: none; stroke: #d9524f; stroke-width: 1.5; stroke-linecap: square"/>
   </g>
   <g id="line2d_33">
    <path d="M 9.5625 113.752559 
L 9.56436 113.752559 
L 20.27982 113.752559 
L 33.67182 113.752559 
L 47.06382 113.720736 
L 60.45582 111.875709 
L 73.84782 111.530892 
L 87.23982 111.659308 
L 100.63182 115.549303 
L 114.02382 116.05275 
L 127.41582 119.935087 
L 140.80782 117.036716 
L 154.19982 125.162907 
L 167.59182 144.138124 
L 180.98382 130.780849 
L 194.37582 113.752772 
" clip-path="url(#pded262ac89)" style="fill: none; stroke: #d9524f; stroke-width: 1.5; stroke-linecap: square"/>
   </g>
   <g id="line2d_34">
    <path d="M 9.5625 113.41897 
L 9.56436 113.41897 
L 20.27982 113.41897 
L 33.67182 113.41897 
L 47.06382 113.355036 
L 60.45582 111.592341 
L 73.84782 111.347613 
L 87.23982 111.855752 
L 100.63182 116.104942 
L 114.02382 116.64381 
L 127.41582 120.378427 
L 140.80782 117.454208 
L 154.19982 125.377813 
L 167.59182 143.023474 
L 180.98382 129.702726 
L 194.37582 113.419203 
" clip-path="url(#pded262ac89)" style="fill: none; stroke: #d9524f; stroke-width: 1.5; stroke-linecap: square"/>
   </g>
   <g id="line2d_35">
    <path d="M 9.5625 105.219818 
L 9.56436 105.219818 
L 20.27982 105.219818 
L 33.67182 105.219818 
L 47.06382 105.28719 
L 60.45582 103.79228 
L 73.84782 103.277611 
L 87.23982 102.31172 
L 100.63182 103.989205 
L 114.02382 104.237362 
L 127.41582 107.314835 
L 140.80782 105.394446 
L 154.19982 111.538551 
L 167.59182 128.214008 
L 180.98382 118.958616 
L 194.37582 105.219921 
" clip-path="url(#pded262ac89)" style="fill: none; stroke: #d9524f; stroke-width: 1.5; stroke-linecap: square"/>
   </g>
   <g id="line2d_36">
    <path d="M 9.5625 107.125509 
L 9.56436 107.125509 
L 20.27982 107.125509 
L 33.67182 107.125509 
L 47.06382 107.152628 
L 60.45582 105.613275 
L 73.84782 105.190102 
L 87.23982 104.681538 
L 100.63182 107.078439 
L 114.02382 107.406452 
L 127.41582 110.605431 
L 140.80782 108.433934 
L 154.19982 114.960043 
L 167.59182 131.556947 
L 180.98382 121.306539 
L 194.37582 107.125549 
" clip-path="url(#pded262ac89)" style="fill: none; stroke: #d9524f; stroke-width: 1.5; stroke-linecap: square"/>
   </g>
   <g id="line2d_37">
    <path d="M 9.5625 108.064928 
L 9.56436 108.064928 
L 20.27982 108.064928 
L 33.67182 108.064928 
L 47.06382 108.07682 
L 60.45582 106.507659 
L 73.84782 106.11602 
L 87.23982 105.778353 
L 100.63182 108.470752 
L 114.02382 108.832012 
L 127.41582 112.103825 
L 140.80782 109.818383 
L 154.19982 116.54346 
L 167.59182 133.233032 
L 180.98382 122.526879 
L 194.37582 108.0649 
" clip-path="url(#pded262ac89)" style="fill: none; stroke: #d9524f; stroke-width: 1.5; stroke-linecap: square"/>
   </g>
   <g id="line2d_38">
    <path d="M 9.5625 109.000253 
L 9.56436 109.000253 
L 20.27982 109.000253 
L 33.67182 109.000253 
L 47.06382 108.996832 
L 60.45582 107.398518 
L 73.84782 107.038748 
L 87.23982 106.872852 
L 100.63182 109.860841 
L 114.02382 110.255336 
L 127.41582 113.598878 
L 140.80782 111.200018 
L 154.19982 118.121598 
L 167.59182 134.890045 
L 180.98382 123.734584 
L 194.37582 109.000156 
" clip-path="url(#pded262ac89)" style="fill: none; stroke: #d9524f; stroke-width: 1.5; stroke-linecap: square"/>
   </g>
   <g id="line2d_39">
    <path d="M 9.5625 116.005136 
L 9.56436 116.005136 
L 20.27982 116.005136 
L 33.67182 116.005136 
L 47.06382 116.067276 
L 60.45582 113.902631 
L 73.84782 113.246561 
L 87.23982 112.252475 
L 100.63182 115.232749 
L 114.02382 115.650922 
L 127.41582 120.127589 
L 140.80782 117.19002 
L 154.19982 126.242003 
L 167.59182 149.913856 
L 180.98382 135.927888 
L 194.37582 116.005038 
" clip-path="url(#pded262ac89)" style="fill: none; stroke: #d9524f; stroke-width: 1.5; stroke-linecap: square"/>
   </g>
   <g id="line2d_40">
    <path d="M 9.5625 117.712264 
L 9.56436 117.712264 
L 20.27982 117.712264 
L 33.67182 117.712264 
L 47.06382 117.804741 
L 60.45582 115.472592 
L 73.84782 114.701563 
L 87.23982 113.338439 
L 100.63182 116.145069 
L 114.02382 116.551975 
L 127.41582 121.356718 
L 140.80782 118.308744 
L 154.19982 127.944204 
L 167.59182 153.852402 
L 180.98382 139.18098 
L 194.37582 117.712416 
" clip-path="url(#pded262ac89)" style="fill: none; stroke: #d9524f; stroke-width: 1.5; stroke-linecap: square"/>
   </g>
   <g id="line2d_41">
    <path d="M 9.5625 117.800192 
L 9.56436 117.800192 
L 20.27982 117.800192 
L 33.67182 117.800192 
L 47.06382 117.806047 
L 60.45582 115.633782 
L 73.84782 115.118218 
L 87.23982 114.769846 
L 100.63182 118.657897 
L 114.02382 119.175324 
L 127.41582 123.713623 
L 140.80782 120.502627 
L 154.19982 129.862776 
L 167.59182 152.827833 
L 180.98382 137.826961 
L 194.37582 117.800405 
" clip-path="url(#pded262ac89)" style="fill: none; stroke: #d9524f; stroke-width: 1.5; stroke-linecap: square"/>
   </g>
   <g id="line2d_42">
    <path d="M 9.5625 118.858485 
L 9.56436 118.858485 
L 20.27982 118.858485 
L 33.67182 118.858485 
L 47.06382 118.845088 
L 60.45582 116.642545 
L 73.84782 116.168559 
L 87.23982 116.036793 
L 100.63182 120.284689 
L 114.02382 120.842501 
L 127.41582 125.459415 
L 140.80782 122.114293 
L 154.19982 131.698078 
L 167.59182 154.708483 
L 180.98382 139.17345 
L 194.37582 118.85872 
" clip-path="url(#pded262ac89)" style="fill: none; stroke: #d9524f; stroke-width: 1.5; stroke-linecap: square"/>
   </g>
   <g id="line2d_43">
    <path d="M 9.5625 90.208243 
L 9.56436 90.208243 
L 20.27982 90.208243 
L 33.67182 90.208243 
L 47.06382 89.221012 
L 60.45582 88.098778 
L 73.84782 90.797904 
L 87.23982 101.389104 
L 100.63182 114.2406 
L 114.02382 114.228232 
L 127.41582 116.045029 
L 140.80782 110.193873 
L 154.19982 110.715179 
L 167.59182 105.284538 
L 180.98382 95.046977 
L 194.37582 90.207328 
" clip-path="url(#pded262ac89)" style="fill: none; stroke: #5cb85c; stroke-width: 1.5; stroke-linecap: square"/>
   </g>
   <g id="line2d_44">
    <path d="M 9.5625 104.44637 
L 9.56436 104.44637 
L 20.27982 104.44637 
L 33.67182 104.44637 
L 47.06382 103.228694 
L 60.45582 101.827381 
L 73.84782 105.145454 
L 87.23982 118.112647 
L 100.63182 133.587271 
L 114.02382 133.575581 
L 127.41582 135.720232 
L 140.80782 128.788107 
L 154.19982 129.374084 
L 167.59182 122.824778 
L 180.98382 110.572808 
L 194.37582 104.437922 
" clip-path="url(#pded262ac89)" style="fill: none; stroke: #5cb85c; stroke-width: 1.5; stroke-linecap: square"/>
   </g>
   <g id="line2d_45">
    <path d="M 9.5625 92.191395 
L 9.56436 92.191395 
L 20.27982 92.191395 
L 33.67182 92.191395 
L 47.06382 91.77238 
L 60.45582 92.010105 
L 73.84782 92.822405 
L 87.23982 98.212596 
L 100.63182 108.043464 
L 114.02382 110.153605 
L 127.41582 110.925895 
L 140.80782 109.002006 
L 154.19982 116.608037 
L 167.59182 111.190728 
L 180.98382 94.841782 
L 194.37582 92.191732 
" clip-path="url(#pded262ac89)" style="fill: none; stroke: #337ab7; stroke-width: 1.5; stroke-linecap: square"/>
   </g>
   <g id="line2d_46">
    <path d="M 9.5625 94.510667 
L 9.56436 94.510667 
L 20.27982 94.510667 
L 33.67182 94.510667 
L 47.06382 94.018256 
L 60.45582 94.248117 
L 73.84782 95.207684 
L 87.23982 101.514406 
L 100.63182 112.996915 
L 114.02382 115.42399 
L 127.41582 116.385275 
L 140.80782 114.063978 
L 154.19982 122.912332 
L 167.59182 116.875792 
L 180.98382 97.846171 
L 194.37582 94.511412 
" clip-path="url(#pded262ac89)" style="fill: none; stroke: #337ab7; stroke-width: 1.5; stroke-linecap: square"/>
   </g>
   <g id="line2d_47">
    <path d="M 9.5625 96.829346 
L 9.56436 96.829346 
L 20.27982 96.829346 
L 33.67182 96.829346 
L 47.06382 96.263684 
L 60.45582 96.485471 
L 73.84782 97.591964 
L 87.23982 104.810603 
L 100.63182 117.925904 
L 114.02382 120.663276 
L 127.41582 121.812477 
L 140.80782 119.097901 
L 154.19982 129.161723 
L 167.59182 122.531696 
L 180.98382 100.8495 
L 194.37582 96.8305 
" clip-path="url(#pded262ac89)" style="fill: none; stroke: #337ab7; stroke-width: 1.5; stroke-linecap: square"/>
   </g>
   <g id="line2d_48">
    <path d="M 9.5625 98.00987 
L 9.56436 98.00987 
L 20.27982 98.00987 
L 33.67182 98.00987 
L 47.06382 97.435432 
L 60.45582 97.599763 
L 73.84782 98.729331 
L 87.23982 106.020131 
L 100.63182 119.218009 
L 114.02382 121.919158 
L 127.41582 123.151733 
L 140.80782 120.327335 
L 154.19982 130.380705 
L 167.59182 124.115913 
L 180.98382 102.367027 
L 194.37582 98.011257 
" clip-path="url(#pded262ac89)" style="fill: none; stroke: #337ab7; stroke-width: 1.5; stroke-linecap: square"/>
   </g>
   <g id="line2d_49">
    <path d="M 9.5625 99.190294 
L 9.56436 99.190294 
L 20.27982 99.190294 
L 33.67182 99.190294 
L 47.06382 98.607116 
L 60.45582 98.713934 
L 73.84782 99.866487 
L 87.23982 107.228007 
L 100.63182 120.501968 
L 114.02382 123.164499 
L 127.41582 124.480128 
L 140.80782 121.547299 
L 154.19982 131.580485 
L 167.59182 125.690534 
L 180.98382 103.884369 
L 194.37582 99.191915 
" clip-path="url(#pded262ac89)" style="fill: none; stroke: #337ab7; stroke-width: 1.5; stroke-linecap: square"/>
   </g>
   <g id="line2d_50">
    <path d="M 9.5625 99.940765 
L 9.56436 99.940765 
L 20.27982 99.940765 
L 33.67182 99.940765 
L 47.06382 99.364852 
L 60.45582 99.411102 
L 73.84782 100.555026 
L 87.23982 107.785393 
L 100.63182 120.771881 
L 114.02382 123.322803 
L 127.41582 124.685798 
L 140.80782 121.724453 
L 154.19982 131.462959 
L 167.59182 126.110552 
L 180.98382 104.844015 
L 194.37582 99.942577 
" clip-path="url(#pded262ac89)" style="fill: none; stroke: #337ab7; stroke-width: 1.5; stroke-linecap: square"/>
   </g>
   <g id="line2d_51">
    <path d="M 9.5625 100.691235 
L 9.56436 100.691235 
L 20.27982 100.691235 
L 33.67182 100.691235 
L 47.06382 100.122588 
L 60.45582 100.108269 
L 73.84782 101.243557 
L 87.23982 108.342511 
L 100.63182 121.039989 
L 114.02382 123.478678 
L 127.41582 124.888994 
L 140.80782 121.899443 
L 154.19982 131.340721 
L 167.59182 126.528516 
L 180.98382 105.80366 
L 194.37582 100.693239 
" clip-path="url(#pded262ac89)" style="fill: none; stroke: #337ab7; stroke-width: 1.5; stroke-linecap: square"/>
   </g>
   <g id="line2d_52">
    <path d="M 9.5625 101.441699 
L 9.56436 101.441699 
L 20.27982 101.441699 
L 33.67182 101.441699 
L 47.06382 100.880321 
L 60.45582 100.805426 
L 73.84782 101.932062 
L 87.23982 108.899281 
L 100.63182 121.306093 
L 114.02382 123.631896 
L 127.41582 125.089485 
L 140.80782 122.072051 
L 154.19982 131.213459 
L 167.59182 126.944214 
L 180.98382 106.763295 
L 194.37582 101.443895 
" clip-path="url(#pded262ac89)" style="fill: none; stroke: #337ab7; stroke-width: 1.5; stroke-linecap: square"/>
   </g>
   <g id="line2d_53">
    <path d="M 9.5625 101.638217 
L 9.56436 101.638217 
L 20.27982 101.638217 
L 33.67182 101.638217 
L 47.06382 101.123697 
L 60.45582 100.948938 
L 73.84782 101.991785 
L 87.23982 108.307357 
L 100.63182 119.463428 
L 114.02382 121.455922 
L 127.41582 122.906398 
L 140.80782 120.023371 
L 154.19982 128.103604 
L 167.59182 125.017749 
L 180.98382 106.995757 
L 194.37582 101.640605 
" clip-path="url(#pded262ac89)" style="fill: none; stroke: #337ab7; stroke-width: 1.5; stroke-linecap: square"/>
   </g>
   <g id="line2d_54">
    <path d="M 9.5625 99.05878 
L 9.56436 99.05878 
L 20.27982 99.05878 
L 33.67182 99.05878 
L 47.06382 98.377294 
L 60.45582 98.676307 
L 73.84782 100.006255 
L 87.23982 108.721112 
L 100.63182 124.571186 
L 114.02382 127.905997 
L 127.41582 129.25338 
L 140.80782 126.023621 
L 154.19982 138.215385 
L 167.59182 129.991537 
L 180.98382 103.754855 
L 194.37582 99.060383 
" clip-path="url(#pded262ac89)" style="fill: none; stroke: #337ab7; stroke-width: 1.5; stroke-linecap: square"/>
   </g>
   <g id="line2d_55">
    <path d="M 9.5625 99.330008 
L 9.56436 99.330008 
L 20.27982 99.330008 
L 33.67182 99.330008 
L 47.06382 98.673139 
L 60.45582 98.909568 
L 73.84782 100.1962 
L 87.23982 108.553187 
L 100.63182 123.676607 
L 114.02382 126.805613 
L 127.41582 128.154957 
L 140.80782 124.99875 
L 154.19982 136.529239 
L 167.59182 129.06951 
L 180.98382 104.089194 
L 194.37582 99.332058 
" clip-path="url(#pded262ac89)" style="fill: none; stroke: #337ab7; stroke-width: 1.5; stroke-linecap: square"/>
   </g>
   <g id="line2d_56">
    <path d="M 9.5625 101.618654 
L 9.56436 101.618654 
L 20.27982 101.618654 
L 33.67182 101.618654 
L 47.06382 100.797989 
L 60.45582 101.197378 
L 73.84782 102.794994 
L 87.23982 113.307738 
L 100.63182 132.429221 
L 114.02382 136.480593 
L 127.41582 138.055558 
L 140.80782 134.222982 
L 154.19982 148.94494 
L 167.59182 138.79108 
L 180.98382 107.092534 
L 194.37582 101.620708 
" clip-path="url(#pded262ac89)" style="fill: none; stroke: #337ab7; stroke-width: 1.5; stroke-linecap: square"/>
   </g>
   <g id="line2d_57">
    <path d="M 9.5625 101.618654 
L 9.56436 101.618654 
L 20.27982 101.618654 
L 33.67182 101.618654 
L 47.06382 100.797989 
L 60.45582 101.197378 
L 73.84782 102.794994 
L 87.23982 113.307738 
L 100.63182 132.429221 
L 114.02382 136.480593 
L 127.41582 138.055558 
L 140.80782 134.222982 
L 154.19982 148.94494 
L 167.59182 138.79108 
L 180.98382 107.092534 
L 194.37582 101.620708 
" clip-path="url(#pded262ac89)" style="fill: none; stroke: #337ab7; stroke-width: 1.5; stroke-linecap: square"/>
   </g>
   <g id="line2d_58">
    <path d="M 9.5625 101.920572 
L 9.56436 101.920572 
L 20.27982 101.920572 
L 33.67182 101.920572 
L 47.06382 101.034105 
L 60.45582 101.537146 
L 73.84782 103.256348 
L 87.23982 114.672402 
L 100.63182 135.545861 
L 114.02382 140.042601 
L 127.41582 141.673817 
L 140.80782 137.592517 
L 154.19982 153.810773 
L 167.59182 142.184894 
L 180.98382 107.510812 
L 194.37582 101.92218 
" clip-path="url(#pded262ac89)" style="fill: none; stroke: #337ab7; stroke-width: 1.5; stroke-linecap: square"/>
   </g>
   <g id="line2d_59">
    <path d="M 9.5625 100.198611 
L 9.56436 100.198611 
L 20.27982 100.198611 
L 33.67182 100.198611 
L 47.06382 99.600567 
L 60.45582 99.67226 
L 73.84782 100.857701 
L 87.23982 108.378062 
L 100.63182 121.894094 
L 114.02382 124.567864 
L 127.41582 125.956 
L 140.80782 122.911767 
L 154.19982 133.064731 
L 167.59182 127.344656 
L 180.98382 105.181973 
L 194.37582 100.200392 
" clip-path="url(#pded262ac89)" style="fill: none; stroke: #337ab7; stroke-width: 1.5; stroke-linecap: square"/>
   </g>
   <g id="line2d_60">
    <path d="M 9.5625 100.323961 
L 9.56436 100.323961 
L 20.27982 100.323961 
L 33.67182 100.323961 
L 47.06382 99.754842 
L 60.45582 99.76478 
L 73.84782 100.898389 
L 87.23982 108.013768 
L 100.63182 120.744216 
L 114.02382 123.207425 
L 127.41582 124.589971 
L 140.80782 121.632228 
L 154.19982 131.110096 
L 167.59182 126.138248 
L 180.98382 105.329322 
L 194.37582 100.325847 
" clip-path="url(#pded262ac89)" style="fill: none; stroke: #337ab7; stroke-width: 1.5; stroke-linecap: square"/>
   </g>
   <g id="line2d_61">
    <path d="M 9.5625 103.18872 
L 9.56436 103.18872 
L 20.27982 103.18872 
L 33.67182 103.18872 
L 47.06382 102.414664 
L 60.45582 102.628153 
L 73.84782 104.150806 
L 87.23982 113.960916 
L 100.63182 131.679981 
L 114.02382 135.291188 
L 127.41582 136.956554 
L 140.80782 133.15414 
L 154.19982 146.601896 
L 167.59182 138.287504 
L 180.98382 109.09014 
L 194.37582 103.19061 
" clip-path="url(#pded262ac89)" style="fill: none; stroke: #337ab7; stroke-width: 1.5; stroke-linecap: square"/>
   </g>
   <g id="line2d_62">
    <path d="M 9.5625 100.8238 
L 9.56436 100.8238 
L 20.27982 100.8238 
L 33.67182 100.8238 
L 47.06382 100.181102 
L 60.45582 100.297166 
L 73.84782 101.567346 
L 87.23982 109.67356 
L 100.63182 124.268973 
L 114.02382 127.190231 
L 127.41582 128.639159 
L 140.80782 125.413108 
L 154.19982 136.419574 
L 167.59182 129.980696 
L 180.98382 106.002156 
L 194.37582 100.825581 
" clip-path="url(#pded262ac89)" style="fill: none; stroke: #337ab7; stroke-width: 1.5; stroke-linecap: square"/>
   </g>
   <g id="line2d_63">
    <path d="M 9.5625 103.275228 
L 9.56436 103.275228 
L 20.27982 103.275228 
L 33.67182 103.275228 
L 47.06382 102.582805 
L 60.45582 102.637951 
L 73.84782 104.013306 
L 87.23982 112.701149 
L 100.63182 128.283553 
L 114.02382 131.337894 
L 127.41582 132.975583 
L 140.80782 129.421259 
L 154.19982 141.078364 
L 167.59182 134.694343 
L 180.98382 109.170298 
L 194.37582 103.277428 
" clip-path="url(#pded262ac89)" style="fill: none; stroke: #337ab7; stroke-width: 1.5; stroke-linecap: square"/>
   </g>
   <g id="line2d_64">
    <path d="M 9.5625 102.554319 
L 9.56436 102.554319 
L 20.27982 102.554319 
L 33.67182 102.554319 
L 47.06382 101.974407 
L 60.45582 101.8645 
L 73.84782 103.031415 
L 87.23982 110.203834 
L 100.63182 122.934597 
L 114.02382 125.286962 
L 127.41582 126.826559 
L 140.80782 123.678129 
L 154.19982 132.998317 
L 167.59182 128.871399 
L 180.98382 108.198083 
L 194.37582 102.556708 
" clip-path="url(#pded262ac89)" style="fill: none; stroke: #337ab7; stroke-width: 1.5; stroke-linecap: square"/>
   </g>
   <g id="line2d_65">
    <path d="M 9.5625 48.927273 
L 194.37582 48.927273 
" clip-path="url(#pded262ac89)" style="fill: none; stroke-dasharray: 1.5,2.475; stroke-dashoffset: 0; stroke: #d9524f; stroke-width: 1.5"/>
   </g>
   <g id="line2d_66">
    <path d="M 9.5625 163.472727 
L 194.37582 163.472727 
" clip-path="url(#pded262ac89)" style="fill: none; stroke-dasharray: 1.5,2.475; stroke-dashoffset: 0; stroke: #5cb85c; stroke-width: 1.5"/>
   </g>
   <g id="patch_3">
    <path d="M 27 169.2 
L 27 43.2 
" style="fill: none; stroke: #000000; stroke-width: 0.8; stroke-linejoin: miter; stroke-linecap: square"/>
   </g>
   <g id="patch_4">
    <path d="M 194.4 169.2 
L 194.4 43.2 
" style="fill: none; stroke: #000000; stroke-width: 0.8; stroke-linejoin: miter; stroke-linecap: square"/>
   </g>
   <g id="patch_5">
    <path d="M 27 169.2 
L 194.4 169.2 
" style="fill: none; stroke: #000000; stroke-width: 0.8; stroke-linejoin: miter; stroke-linecap: square"/>
   </g>
   <g id="patch_6">
    <path d="M 27 43.2 
L 194.4 43.2 
" style="fill: none; stroke: #000000; stroke-width: 0.8; stroke-linejoin: miter; stroke-linecap: square"/>
   </g>
  </g>
  <g id="axes_2">
   <g id="patch_7">
    <path d="M 27 320.4 
L 194.4 320.4 
L 194.4 194.4 
L 27 194.4 
z
" style="fill: #ffffff"/>
   </g>
   <g id="matplotlib.axis_3">
    <g id="xtick_8">
     <g id="line2d_67">
      <path d="M 27 320.4 
L 27 194.4 
" clip-path="url(#p87113cb80e)" style="fill: none; stroke: #b0b0b0; stroke-width: 0.8; stroke-linecap: square"/>
     </g>
     <g id="line2d_68">
      <g>
       <use xlink:href="#md961e4ba80" x="27" y="320.4" style="stroke: #000000; stroke-width: 0.8"/>
      </g>
     </g>
     <g id="text_14">
      <!-- 0 -->
      <g transform="translate(24.5 334.34375)scale(0.1 -0.1)">
       <use xlink:href="#TimesNewRomanPSMT-30"/>
      </g>
     </g>
    </g>
    <g id="xtick_9">
     <g id="line2d_69">
      <path d="M 54.9 320.4 
L 54.9 194.4 
" clip-path="url(#p87113cb80e)" style="fill: none; stroke: #b0b0b0; stroke-width: 0.8; stroke-linecap: square"/>
     </g>
     <g id="line2d_70">
      <g>
       <use xlink:href="#md961e4ba80" x="54.9" y="320.4" style="stroke: #000000; stroke-width: 0.8"/>
      </g>
     </g>
     <g id="text_15">
      <!-- 4 -->
      <g transform="translate(52.4 334.34375)scale(0.1 -0.1)">
       <use xlink:href="#TimesNewRomanPSMT-34"/>
      </g>
     </g>
    </g>
    <g id="xtick_10">
     <g id="line2d_71">
      <path d="M 82.8 320.4 
L 82.8 194.4 
" clip-path="url(#p87113cb80e)" style="fill: none; stroke: #b0b0b0; stroke-width: 0.8; stroke-linecap: square"/>
     </g>
     <g id="line2d_72">
      <g>
       <use xlink:href="#md961e4ba80" x="82.8" y="320.4" style="stroke: #000000; stroke-width: 0.8"/>
      </g>
     </g>
     <g id="text_16">
      <!-- 8 -->
      <g transform="translate(80.3 334.34375)scale(0.1 -0.1)">
       <use xlink:href="#TimesNewRomanPSMT-38"/>
      </g>
     </g>
    </g>
    <g id="xtick_11">
     <g id="line2d_73">
      <path d="M 110.7 320.4 
L 110.7 194.4 
" clip-path="url(#p87113cb80e)" style="fill: none; stroke: #b0b0b0; stroke-width: 0.8; stroke-linecap: square"/>
     </g>
     <g id="line2d_74">
      <g>
       <use xlink:href="#md961e4ba80" x="110.7" y="320.4" style="stroke: #000000; stroke-width: 0.8"/>
      </g>
     </g>
     <g id="text_17">
      <!-- 12 -->
      <g transform="translate(105.7 334.34375)scale(0.1 -0.1)">
       <use xlink:href="#TimesNewRomanPSMT-31"/>
       <use xlink:href="#TimesNewRomanPSMT-32" x="50"/>
      </g>
     </g>
    </g>
    <g id="xtick_12">
     <g id="line2d_75">
      <path d="M 138.6 320.4 
L 138.6 194.4 
" clip-path="url(#p87113cb80e)" style="fill: none; stroke: #b0b0b0; stroke-width: 0.8; stroke-linecap: square"/>
     </g>
     <g id="line2d_76">
      <g>
       <use xlink:href="#md961e4ba80" x="138.6" y="320.4" style="stroke: #000000; stroke-width: 0.8"/>
      </g>
     </g>
     <g id="text_18">
      <!-- 16 -->
      <g transform="translate(133.6 334.34375)scale(0.1 -0.1)">
       <use xlink:href="#TimesNewRomanPSMT-31"/>
       <use xlink:href="#TimesNewRomanPSMT-36" x="50"/>
      </g>
     </g>
    </g>
    <g id="xtick_13">
     <g id="line2d_77">
      <path d="M 166.5 320.4 
L 166.5 194.4 
" clip-path="url(#p87113cb80e)" style="fill: none; stroke: #b0b0b0; stroke-width: 0.8; stroke-linecap: square"/>
     </g>
     <g id="line2d_78">
      <g>
       <use xlink:href="#md961e4ba80" x="166.5" y="320.4" style="stroke: #000000; stroke-width: 0.8"/>
      </g>
     </g>
     <g id="text_19">
      <!-- 20 -->
      <g transform="translate(161.5 334.34375)scale(0.1 -0.1)">
       <use xlink:href="#TimesNewRomanPSMT-32"/>
       <use xlink:href="#TimesNewRomanPSMT-30" x="50"/>
      </g>
     </g>
    </g>
    <g id="xtick_14">
     <g id="line2d_79">
      <path d="M 194.4 320.4 
L 194.4 194.4 
" clip-path="url(#p87113cb80e)" style="fill: none; stroke: #b0b0b0; stroke-width: 0.8; stroke-linecap: square"/>
     </g>
     <g id="line2d_80">
      <g>
       <use xlink:href="#md961e4ba80" x="194.4" y="320.4" style="stroke: #000000; stroke-width: 0.8"/>
      </g>
     </g>
     <g id="text_20">
      <!-- 24 -->
      <g transform="translate(189.4 334.34375)scale(0.1 -0.1)">
       <use xlink:href="#TimesNewRomanPSMT-32"/>
       <use xlink:href="#TimesNewRomanPSMT-34" x="50"/>
      </g>
     </g>
    </g>
    <g id="text_21">
     <!-- Time (s) -->
     <g transform="translate(93.797656 347.426562)scale(0.1 -0.1)">
      <defs>
       <path id="TimesNewRomanPSMT-54" d="M 3703 4238 
L 3750 3244 
L 3631 3244 
Q 3597 3506 3538 3619 
Q 3441 3800 3280 3886 
Q 3119 3972 2856 3972 
L 2259 3972 
L 2259 734 
Q 2259 344 2344 247 
Q 2463 116 2709 116 
L 2856 116 
L 2856 0 
L 1059 0 
L 1059 116 
L 1209 116 
Q 1478 116 1591 278 
Q 1659 378 1659 734 
L 1659 3972 
L 1150 3972 
Q 853 3972 728 3928 
Q 566 3869 450 3700 
Q 334 3531 313 3244 
L 194 3244 
L 244 4238 
L 3703 4238 
z
" transform="scale(0.015625)"/>
       <path id="TimesNewRomanPSMT-69" d="M 928 4444 
Q 1059 4444 1151 4351 
Q 1244 4259 1244 4128 
Q 1244 3997 1151 3903 
Q 1059 3809 928 3809 
Q 797 3809 703 3903 
Q 609 3997 609 4128 
Q 609 4259 701 4351 
Q 794 4444 928 4444 
z
M 1188 2947 
L 1188 647 
Q 1188 378 1227 289 
Q 1266 200 1342 156 
Q 1419 113 1622 113 
L 1622 0 
L 231 0 
L 231 113 
Q 441 113 512 153 
Q 584 194 626 287 
Q 669 381 669 647 
L 669 1750 
Q 669 2216 641 2353 
Q 619 2453 572 2492 
Q 525 2531 444 2531 
Q 356 2531 231 2484 
L 188 2597 
L 1050 2947 
L 1188 2947 
z
" transform="scale(0.015625)"/>
       <path id="TimesNewRomanPSMT-6d" d="M 1050 2338 
Q 1363 2650 1419 2697 
Q 1559 2816 1721 2881 
Q 1884 2947 2044 2947 
Q 2313 2947 2506 2790 
Q 2700 2634 2766 2338 
Q 3088 2713 3309 2830 
Q 3531 2947 3766 2947 
Q 3994 2947 4170 2830 
Q 4347 2713 4450 2447 
Q 4519 2266 4519 1878 
L 4519 647 
Q 4519 378 4559 278 
Q 4591 209 4675 161 
Q 4759 113 4950 113 
L 4950 0 
L 3538 0 
L 3538 113 
L 3597 113 
Q 3781 113 3884 184 
Q 3956 234 3988 344 
Q 4000 397 4000 647 
L 4000 1878 
Q 4000 2228 3916 2372 
Q 3794 2572 3525 2572 
Q 3359 2572 3192 2489 
Q 3025 2406 2788 2181 
L 2781 2147 
L 2788 2013 
L 2788 647 
Q 2788 353 2820 281 
Q 2853 209 2943 161 
Q 3034 113 3253 113 
L 3253 0 
L 1806 0 
L 1806 113 
Q 2044 113 2133 169 
Q 2222 225 2256 338 
Q 2272 391 2272 647 
L 2272 1878 
Q 2272 2228 2169 2381 
Q 2031 2581 1784 2581 
Q 1616 2581 1450 2491 
Q 1191 2353 1050 2181 
L 1050 647 
Q 1050 366 1089 281 
Q 1128 197 1204 155 
Q 1281 113 1516 113 
L 1516 0 
L 100 0 
L 100 113 
Q 297 113 375 155 
Q 453 197 493 289 
Q 534 381 534 647 
L 534 1741 
Q 534 2213 506 2350 
Q 484 2453 437 2492 
Q 391 2531 309 2531 
Q 222 2531 100 2484 
L 53 2597 
L 916 2947 
L 1050 2947 
L 1050 2338 
z
" transform="scale(0.015625)"/>
      </defs>
      <use xlink:href="#TimesNewRomanPSMT-54"/>
      <use xlink:href="#TimesNewRomanPSMT-69" x="57.583984"/>
      <use xlink:href="#TimesNewRomanPSMT-6d" x="85.367188"/>
      <use xlink:href="#TimesNewRomanPSMT-65" x="163.150391"/>
      <use xlink:href="#TimesNewRomanPSMT-20" x="207.535156"/>
      <use xlink:href="#TimesNewRomanPSMT-28" x="232.535156"/>
      <use xlink:href="#TimesNewRomanPSMT-73" x="265.835938"/>
      <use xlink:href="#TimesNewRomanPSMT-29" x="304.751953"/>
     </g>
    </g>
   </g>
   <g id="matplotlib.axis_4">
    <g id="ytick_6">
     <g id="line2d_81">
      <path d="M 27 318.404301 
L 194.4 318.404301 
" clip-path="url(#p87113cb80e)" style="fill: none; stroke: #b0b0b0; stroke-width: 0.8; stroke-linecap: square"/>
     </g>
     <g id="line2d_82">
      <g>
       <use xlink:href="#mcde312553c" x="27" y="318.404301" style="stroke: #000000; stroke-width: 0.8"/>
      </g>
     </g>
     <g id="text_22">
      <!-- 0 -->
      <g transform="translate(15 321.876176)scale(0.1 -0.1)">
       <use xlink:href="#TimesNewRomanPSMT-30"/>
      </g>
     </g>
    </g>
    <g id="ytick_7">
     <g id="line2d_83">
      <path d="M 27 285.759841 
L 194.4 285.759841 
" clip-path="url(#p87113cb80e)" style="fill: none; stroke: #b0b0b0; stroke-width: 0.8; stroke-linecap: square"/>
     </g>
     <g id="line2d_84">
      <g>
       <use xlink:href="#mcde312553c" x="27" y="285.759841" style="stroke: #000000; stroke-width: 0.8"/>
      </g>
     </g>
     <g id="text_23">
      <!-- 200 -->
      <g transform="translate(5 289.231716)scale(0.1 -0.1)">
       <use xlink:href="#TimesNewRomanPSMT-32"/>
       <use xlink:href="#TimesNewRomanPSMT-30" x="50"/>
       <use xlink:href="#TimesNewRomanPSMT-30" x="100"/>
      </g>
     </g>
    </g>
    <g id="ytick_8">
     <g id="line2d_85">
      <path d="M 27 253.115382 
L 194.4 253.115382 
" clip-path="url(#p87113cb80e)" style="fill: none; stroke: #b0b0b0; stroke-width: 0.8; stroke-linecap: square"/>
     </g>
     <g id="line2d_86">
      <g>
       <use xlink:href="#mcde312553c" x="27" y="253.115382" style="stroke: #000000; stroke-width: 0.8"/>
      </g>
     </g>
     <g id="text_24">
      <!-- 400 -->
      <g transform="translate(5 256.587257)scale(0.1 -0.1)">
       <use xlink:href="#TimesNewRomanPSMT-34"/>
       <use xlink:href="#TimesNewRomanPSMT-30" x="50"/>
       <use xlink:href="#TimesNewRomanPSMT-30" x="100"/>
      </g>
     </g>
    </g>
    <g id="ytick_9">
     <g id="line2d_87">
      <path d="M 27 220.470922 
L 194.4 220.470922 
" clip-path="url(#p87113cb80e)" style="fill: none; stroke: #b0b0b0; stroke-width: 0.8; stroke-linecap: square"/>
     </g>
     <g id="line2d_88">
      <g>
       <use xlink:href="#mcde312553c" x="27" y="220.470922" style="stroke: #000000; stroke-width: 0.8"/>
      </g>
     </g>
     <g id="text_25">
      <!-- 600 -->
      <g transform="translate(5 223.942797)scale(0.1 -0.1)">
       <use xlink:href="#TimesNewRomanPSMT-36"/>
       <use xlink:href="#TimesNewRomanPSMT-30" x="50"/>
       <use xlink:href="#TimesNewRomanPSMT-30" x="100"/>
      </g>
     </g>
    </g>
    <g id="text_26">
     <!-- Currents (A) -->
     <g transform="translate(-1.139063 282.810156)rotate(-90)scale(0.1 -0.1)">
      <defs>
       <path id="TimesNewRomanPSMT-43" d="M 3853 4334 
L 3950 2894 
L 3853 2894 
Q 3659 3541 3300 3825 
Q 2941 4109 2438 4109 
Q 2016 4109 1675 3895 
Q 1334 3681 1139 3212 
Q 944 2744 944 2047 
Q 944 1472 1128 1050 
Q 1313 628 1683 403 
Q 2053 178 2528 178 
Q 2941 178 3256 354 
Q 3572 531 3950 1056 
L 4047 994 
Q 3728 428 3303 165 
Q 2878 -97 2294 -97 
Q 1241 -97 663 684 
Q 231 1266 231 2053 
Q 231 2688 515 3219 
Q 800 3750 1298 4042 
Q 1797 4334 2388 4334 
Q 2847 4334 3294 4109 
Q 3425 4041 3481 4041 
Q 3566 4041 3628 4100 
Q 3709 4184 3744 4334 
L 3853 4334 
z
" transform="scale(0.015625)"/>
       <path id="TimesNewRomanPSMT-72" d="M 1038 2947 
L 1038 2303 
Q 1397 2947 1775 2947 
Q 1947 2947 2059 2842 
Q 2172 2738 2172 2600 
Q 2172 2478 2090 2393 
Q 2009 2309 1897 2309 
Q 1788 2309 1652 2417 
Q 1516 2525 1450 2525 
Q 1394 2525 1328 2463 
Q 1188 2334 1038 2041 
L 1038 669 
Q 1038 431 1097 309 
Q 1138 225 1241 169 
Q 1344 113 1538 113 
L 1538 0 
L 72 0 
L 72 113 
Q 291 113 397 181 
Q 475 231 506 341 
Q 522 394 522 644 
L 522 1753 
Q 522 2253 501 2348 
Q 481 2444 426 2487 
Q 372 2531 291 2531 
Q 194 2531 72 2484 
L 41 2597 
L 906 2947 
L 1038 2947 
z
" transform="scale(0.015625)"/>
       <path id="TimesNewRomanPSMT-6e" d="M 1034 2341 
Q 1538 2947 1994 2947 
Q 2228 2947 2397 2830 
Q 2566 2713 2666 2444 
Q 2734 2256 2734 1869 
L 2734 647 
Q 2734 375 2778 278 
Q 2813 200 2889 156 
Q 2966 113 3172 113 
L 3172 0 
L 1756 0 
L 1756 113 
L 1816 113 
Q 2016 113 2095 173 
Q 2175 234 2206 353 
Q 2219 400 2219 647 
L 2219 1819 
Q 2219 2209 2117 2386 
Q 2016 2563 1775 2563 
Q 1403 2563 1034 2156 
L 1034 647 
Q 1034 356 1069 288 
Q 1113 197 1189 155 
Q 1266 113 1500 113 
L 1500 0 
L 84 0 
L 84 113 
L 147 113 
Q 366 113 442 223 
Q 519 334 519 647 
L 519 1709 
Q 519 2225 495 2337 
Q 472 2450 423 2490 
Q 375 2531 294 2531 
Q 206 2531 84 2484 
L 38 2597 
L 900 2947 
L 1034 2947 
L 1034 2341 
z
" transform="scale(0.015625)"/>
       <path id="TimesNewRomanPSMT-41" d="M 2928 1419 
L 1288 1419 
L 1000 750 
Q 894 503 894 381 
Q 894 284 986 211 
Q 1078 138 1384 116 
L 1384 0 
L 50 0 
L 50 116 
Q 316 163 394 238 
Q 553 388 747 847 
L 2238 4334 
L 2347 4334 
L 3822 809 
Q 4000 384 4145 257 
Q 4291 131 4550 116 
L 4550 0 
L 2878 0 
L 2878 116 
Q 3131 128 3220 200 
Q 3309 272 3309 375 
Q 3309 513 3184 809 
L 2928 1419 
z
M 2841 1650 
L 2122 3363 
L 1384 1650 
L 2841 1650 
z
" transform="scale(0.015625)"/>
      </defs>
      <use xlink:href="#TimesNewRomanPSMT-43"/>
      <use xlink:href="#TimesNewRomanPSMT-75" x="66.699219"/>
      <use xlink:href="#TimesNewRomanPSMT-72" x="116.699219"/>
      <use xlink:href="#TimesNewRomanPSMT-72" x="150"/>
      <use xlink:href="#TimesNewRomanPSMT-65" x="183.300781"/>
      <use xlink:href="#TimesNewRomanPSMT-6e" x="227.685547"/>
      <use xlink:href="#TimesNewRomanPSMT-74" x="277.685547"/>
      <use xlink:href="#TimesNewRomanPSMT-73" x="305.46875"/>
      <use xlink:href="#TimesNewRomanPSMT-20" x="344.384766"/>
      <use xlink:href="#TimesNewRomanPSMT-28" x="369.384766"/>
      <use xlink:href="#TimesNewRomanPSMT-41" x="402.685547"/>
      <use xlink:href="#TimesNewRomanPSMT-29" x="474.902344"/>
     </g>
    </g>
   </g>
   <g id="line2d_89">
    <path d="M 9.5625 261.346462 
L 9.56436 261.346462 
L 20.27982 261.346462 
L 33.67182 261.346462 
L 47.06382 261.42647 
L 60.45582 264.851639 
L 73.84782 265.42457 
L 87.23982 264.802786 
L 100.63182 257.001909 
L 114.02382 256.003912 
L 127.41582 248.892604 
L 140.80782 254.385269 
L 154.19982 239.339429 
L 167.59182 204.872907 
L 180.98382 229.770211 
L 194.37582 261.345552 
" clip-path="url(#p87113cb80e)" style="fill: none; stroke: #d9524f; stroke-width: 1.5; stroke-linecap: square"/>
   </g>
   <g id="line2d_90">
    <path d="M 9.5625 261.346691 
L 9.56436 261.346691 
L 20.27982 261.346691 
L 33.67182 261.346691 
L 47.06382 261.431513 
L 60.45582 264.84642 
L 73.84782 265.404855 
L 87.23982 264.725457 
L 100.63182 256.863385 
L 114.02382 255.859052 
L 127.41582 248.765807 
L 140.80782 254.26626 
L 154.19982 239.242607 
L 167.59182 204.98188 
L 180.98382 229.87286 
L 194.37582 261.345779 
" clip-path="url(#p87113cb80e)" style="fill: none; stroke: #d9524f; stroke-width: 1.5; stroke-linecap: square"/>
   </g>
   <g id="line2d_91">
    <path d="M 9.5625 260.743458 
L 9.56436 260.743458 
L 20.27982 260.743458 
L 33.67182 260.743458 
L 47.06382 260.832914 
L 60.45582 264.27489 
L 73.84782 264.827775 
L 87.23982 264.099074 
L 100.63182 256.11935 
L 114.02382 255.101591 
L 127.41582 247.951934 
L 140.80782 253.510012 
L 154.19982 238.357309 
L 167.59182 203.886047 
L 180.98382 229.021735 
L 194.37582 260.742564 
" clip-path="url(#p87113cb80e)" style="fill: none; stroke: #d9524f; stroke-width: 1.5; stroke-linecap: square"/>
   </g>
   <g id="line2d_92">
    <path d="M 9.5625 313.457692 
L 9.56436 313.457692 
L 20.27982 313.457692 
L 33.67182 313.457692 
L 47.06382 314.121204 
L 60.45582 314.56943 
L 73.84782 312.931731 
L 87.23982 304.344881 
L 100.63182 290.558522 
L 114.02382 289.555105 
L 127.41582 286.654757 
L 140.80782 292.600117 
L 154.19982 285.367631 
L 167.59182 283.167255 
L 180.98382 304.445955 
L 194.37582 313.458144 
" clip-path="url(#p87113cb80e)" style="fill: none; stroke: #5cb85c; stroke-width: 1.5; stroke-linecap: square"/>
   </g>
   <g id="line2d_93">
    <path d="M 9.5625 313.438186 
L 9.56436 313.438186 
L 20.27982 313.438186 
L 33.67182 313.438186 
L 47.06382 314.113411 
L 60.45582 314.601377 
L 73.84782 312.923686 
L 87.23982 304.399329 
L 100.63182 290.787782 
L 114.02382 289.781156 
L 127.41582 286.902157 
L 140.80782 292.762079 
L 154.19982 285.472661 
L 167.59182 283.096003 
L 180.98382 304.348711 
L 194.37582 313.438728 
" clip-path="url(#p87113cb80e)" style="fill: none; stroke: #5cb85c; stroke-width: 1.5; stroke-linecap: square"/>
   </g>
   <g id="line2d_94">
    <path d="M 9.5625 313.323182 
L 9.56436 313.323182 
L 20.27982 313.323182 
L 33.67182 313.323182 
L 47.06382 314.051246 
L 60.45582 314.672727 
L 73.84782 312.86221 
L 87.23982 304.0654 
L 100.63182 290.254544 
L 114.02382 289.225774 
L 127.41582 286.316058 
L 140.80782 292.216259 
L 154.19982 284.858781 
L 167.59182 282.503856 
L 180.98382 303.8571 
L 194.37582 313.324053 
" clip-path="url(#p87113cb80e)" style="fill: none; stroke: #5cb85c; stroke-width: 1.5; stroke-linecap: square"/>
   </g>
   <g id="line2d_95">
    <path d="M 9.5625 292.221125 
L 9.56436 292.221125 
L 20.27982 292.221125 
L 33.67182 292.221125 
L 47.06382 292.948967 
L 60.45582 293.228157 
L 73.84782 291.735256 
L 87.23982 282.486442 
L 100.63182 265.582402 
L 114.02382 262.400434 
L 127.41582 260.357595 
L 140.80782 264.563348 
L 154.19982 251.900507 
L 167.59182 257.670723 
L 180.98382 284.493358 
L 194.37582 292.219227 
" clip-path="url(#p87113cb80e)" style="fill: none; stroke: #337ab7; stroke-width: 1.5; stroke-linecap: square"/>
   </g>
   <g id="line2d_96">
    <path d="M 9.5625 292.102121 
L 9.56436 292.102121 
L 20.27982 292.102121 
L 33.67182 292.102121 
L 47.06382 292.831123 
L 60.45582 293.115338 
L 73.84782 291.61963 
L 87.23982 282.358649 
L 100.63182 265.432243 
L 114.02382 262.249119 
L 127.41582 260.197934 
L 140.80782 264.416449 
L 154.19982 251.737647 
L 167.59182 257.49053 
L 180.98382 284.341666 
L 194.37582 292.100227 
" clip-path="url(#p87113cb80e)" style="fill: none; stroke: #337ab7; stroke-width: 1.5; stroke-linecap: square"/>
   </g>
   <g id="line2d_97">
    <path d="M 9.5625 292.054078 
L 9.56436 292.054078 
L 20.27982 292.054078 
L 33.67182 292.054078 
L 47.06382 292.786625 
L 60.45582 293.067196 
L 73.84782 291.564764 
L 87.23982 282.257257 
L 100.63182 265.242311 
L 114.02382 262.038436 
L 127.41582 259.98139 
L 140.80782 264.216409 
L 154.19982 251.46298 
L 167.59182 257.27735 
L 180.98382 284.279245 
L 194.37582 292.052178 
" clip-path="url(#p87113cb80e)" style="fill: none; stroke: #337ab7; stroke-width: 1.5; stroke-linecap: square"/>
   </g>
   <g id="line2d_98">
    <path d="M 9.5625 200.127273 
L 194.37582 200.127273 
" clip-path="url(#p87113cb80e)" style="fill: none; stroke-dasharray: 1.5,2.475; stroke-dashoffset: 0; stroke: #d9524f; stroke-width: 1.5"/>
   </g>
   <g id="line2d_99">
    <path d="M 9.5625 280.555652 
L 194.37582 280.555652 
" clip-path="url(#p87113cb80e)" style="fill: none; stroke-dasharray: 1.5,2.475; stroke-dashoffset: 0; stroke: #5cb85c; stroke-width: 1.5"/>
   </g>
   <g id="line2d_100">
    <path d="M 9.5625 247.438084 
L 194.37582 247.438084 
" clip-path="url(#p87113cb80e)" style="fill: none; stroke-dasharray: 1.5,2.475; stroke-dashoffset: 0; stroke: #337ab7; stroke-width: 1.5"/>
   </g>
   <g id="patch_8">
    <path d="M 27 320.4 
L 27 194.4 
" style="fill: none; stroke: #000000; stroke-width: 0.8; stroke-linejoin: miter; stroke-linecap: square"/>
   </g>
   <g id="patch_9">
    <path d="M 194.4 320.4 
L 194.4 194.4 
" style="fill: none; stroke: #000000; stroke-width: 0.8; stroke-linejoin: miter; stroke-linecap: square"/>
   </g>
   <g id="patch_10">
    <path d="M 27 320.4 
L 194.4 320.4 
" style="fill: none; stroke: #000000; stroke-width: 0.8; stroke-linejoin: miter; stroke-linecap: square"/>
   </g>
   <g id="patch_11">
    <path d="M 27 194.4 
L 194.4 194.4 
" style="fill: none; stroke: #000000; stroke-width: 0.8; stroke-linejoin: miter; stroke-linecap: square"/>
   </g>
  </g>
 </g>
 <defs>
  <clipPath id="pded262ac89">
   <rect x="27" y="43.2" width="167.4" height="126"/>
  </clipPath>
  <clipPath id="p87113cb80e">
   <rect x="27" y="194.4" width="167.4" height="126"/>
  </clipPath>
 </defs>
</svg>
