<?xml version="1.0" encoding="utf-8" standalone="no"?>
<!DOCTYPE svg PUBLIC "-//W3C//DTD SVG 1.1//EN"
  "http://www.w3.org/Graphics/SVG/1.1/DTD/svg11.dtd">
<svg xmlns:xlink="http://www.w3.org/1999/xlink" width="216pt" height="360pt" viewBox="0 0 216 360" xmlns="http://www.w3.org/2000/svg" version="1.1">
 <metadata>
  <rdf:RDF xmlns:dc="http://purl.org/dc/elements/1.1/" xmlns:cc="http://creativecommons.org/ns#" xmlns:rdf="http://www.w3.org/1999/02/22-rdf-syntax-ns#">
   <cc:Work>
    <dc:type rdf:resource="http://purl.org/dc/dcmitype/StillImage"/>
    <dc:date>2024-05-23T20:01:00.756012</dc:date>
    <dc:format>image/svg+xml</dc:format>
    <dc:creator>
     <cc:Agent>
      <dc:title>Matplotlib v3.7.0, https://matplotlib.org/</dc:title>
     </cc:Agent>
    </dc:creator>
   </cc:Work>
  </rdf:RDF>
 </metadata>
 <defs>
  <style type="text/css">*{stroke-linejoin: round; stroke-linecap: butt}</style>
 </defs>
 <g id="figure_1">
  <g id="patch_1">
   <path d="M 0 360 
L 216 360 
L 216 0 
L 0 0 
z
" style="fill: #ffffff"/>
  </g>
  <g id="axes_1">
   <g id="patch_2">
    <path d="M 27 169.2 
L 194.4 169.2 
L 194.4 43.2 
L 27 43.2 
z
" style="fill: #ffffff"/>
   </g>
   <g id="matplotlib.axis_1">
    <g id="xtick_1">
     <g id="line2d_1">
      <path d="M 27 169.2 
L 27 43.2 
" clip-path="url(#p5dc44cc547)" style="fill: none; stroke: #b0b0b0; stroke-width: 0.8; stroke-linecap: square"/>
     </g>
     <g id="line2d_2">
      <defs>
       <path id="m8285dd53e4" d="M 0 0 
L 0 3.5 
" style="stroke: #000000; stroke-width: 0.8"/>
      </defs>
      <g>
       <use xlink:href="#m8285dd53e4" x="27" y="169.2" style="stroke: #000000; stroke-width: 0.8"/>
      </g>
     </g>
     <g id="text_1">
      <!-- 0 -->
      <g transform="translate(24.5 183.14375) scale(0.1 -0.1)">
       <defs>
        <path id="TimesNewRomanPSMT-30" d="M 231 2094 
Q 231 2819 450 3342 
Q 669 3866 1031 4122 
Q 1313 4325 1613 4325 
Q 2100 4325 2488 3828 
Q 2972 3213 2972 2159 
Q 2972 1422 2759 906 
Q 2547 391 2217 158 
Q 1888 -75 1581 -75 
Q 975 -75 572 641 
Q 231 1244 231 2094 
z
M 844 2016 
Q 844 1141 1059 588 
Q 1238 122 1591 122 
Q 1759 122 1940 273 
Q 2122 425 2216 781 
Q 2359 1319 2359 2297 
Q 2359 3022 2209 3506 
Q 2097 3866 1919 4016 
Q 1791 4119 1609 4119 
Q 1397 4119 1231 3928 
Q 1006 3669 925 3112 
Q 844 2556 844 2016 
z
" transform="scale(0.015625)"/>
       </defs>
       <use xlink:href="#TimesNewRomanPSMT-30"/>
      </g>
     </g>
    </g>
    <g id="xtick_2">
     <g id="line2d_3">
      <path d="M 54.9 169.2 
L 54.9 43.2 
" clip-path="url(#p5dc44cc547)" style="fill: none; stroke: #b0b0b0; stroke-width: 0.8; stroke-linecap: square"/>
     </g>
     <g id="line2d_4">
      <g>
       <use xlink:href="#m8285dd53e4" x="54.9" y="169.2" style="stroke: #000000; stroke-width: 0.8"/>
      </g>
     </g>
     <g id="text_2">
      <!-- 4 -->
      <g transform="translate(52.4 183.14375) scale(0.1 -0.1)">
       <defs>
        <path id="TimesNewRomanPSMT-34" d="M 2978 1563 
L 2978 1119 
L 2409 1119 
L 2409 0 
L 1894 0 
L 1894 1119 
L 100 1119 
L 100 1519 
L 2066 4325 
L 2409 4325 
L 2409 1563 
L 2978 1563 
z
M 1894 1563 
L 1894 3666 
L 406 1563 
L 1894 1563 
z
" transform="scale(0.015625)"/>
       </defs>
       <use xlink:href="#TimesNewRomanPSMT-34"/>
      </g>
     </g>
    </g>
    <g id="xtick_3">
     <g id="line2d_5">
      <path d="M 82.8 169.2 
L 82.8 43.2 
" clip-path="url(#p5dc44cc547)" style="fill: none; stroke: #b0b0b0; stroke-width: 0.8; stroke-linecap: square"/>
     </g>
     <g id="line2d_6">
      <g>
       <use xlink:href="#m8285dd53e4" x="82.8" y="169.2" style="stroke: #000000; stroke-width: 0.8"/>
      </g>
     </g>
     <g id="text_3">
      <!-- 8 -->
      <g transform="translate(80.3 183.14375) scale(0.1 -0.1)">
       <defs>
        <path id="TimesNewRomanPSMT-38" d="M 1228 2134 
Q 725 2547 579 2797 
Q 434 3047 434 3316 
Q 434 3728 753 4026 
Q 1072 4325 1600 4325 
Q 2113 4325 2425 4047 
Q 2738 3769 2738 3413 
Q 2738 3175 2569 2928 
Q 2400 2681 1866 2347 
Q 2416 1922 2594 1678 
Q 2831 1359 2831 1006 
Q 2831 559 2490 242 
Q 2150 -75 1597 -75 
Q 994 -75 656 303 
Q 388 606 388 966 
Q 388 1247 577 1523 
Q 766 1800 1228 2134 
z
M 1719 2469 
Q 2094 2806 2194 3001 
Q 2294 3197 2294 3444 
Q 2294 3772 2109 3958 
Q 1925 4144 1606 4144 
Q 1288 4144 1088 3959 
Q 888 3775 888 3528 
Q 888 3366 970 3203 
Q 1053 3041 1206 2894 
L 1719 2469 
z
M 1375 2016 
Q 1116 1797 991 1539 
Q 866 1281 866 981 
Q 866 578 1086 336 
Q 1306 94 1647 94 
Q 1984 94 2187 284 
Q 2391 475 2391 747 
Q 2391 972 2272 1150 
Q 2050 1481 1375 2016 
z
" transform="scale(0.015625)"/>
       </defs>
       <use xlink:href="#TimesNewRomanPSMT-38"/>
      </g>
     </g>
    </g>
    <g id="xtick_4">
     <g id="line2d_7">
      <path d="M 110.7 169.2 
L 110.7 43.2 
" clip-path="url(#p5dc44cc547)" style="fill: none; stroke: #b0b0b0; stroke-width: 0.8; stroke-linecap: square"/>
     </g>
     <g id="line2d_8">
      <g>
       <use xlink:href="#m8285dd53e4" x="110.7" y="169.2" style="stroke: #000000; stroke-width: 0.8"/>
      </g>
     </g>
     <g id="text_4">
      <!-- 12 -->
      <g transform="translate(105.7 183.14375) scale(0.1 -0.1)">
       <defs>
        <path id="TimesNewRomanPSMT-31" d="M 750 3822 
L 1781 4325 
L 1884 4325 
L 1884 747 
Q 1884 391 1914 303 
Q 1944 216 2037 169 
Q 2131 122 2419 116 
L 2419 0 
L 825 0 
L 825 116 
Q 1125 122 1212 167 
Q 1300 213 1334 289 
Q 1369 366 1369 747 
L 1369 3034 
Q 1369 3497 1338 3628 
Q 1316 3728 1258 3775 
Q 1200 3822 1119 3822 
Q 1003 3822 797 3725 
L 750 3822 
z
" transform="scale(0.015625)"/>
        <path id="TimesNewRomanPSMT-32" d="M 2934 816 
L 2638 0 
L 138 0 
L 138 116 
Q 1241 1122 1691 1759 
Q 2141 2397 2141 2925 
Q 2141 3328 1894 3587 
Q 1647 3847 1303 3847 
Q 991 3847 742 3664 
Q 494 3481 375 3128 
L 259 3128 
Q 338 3706 661 4015 
Q 984 4325 1469 4325 
Q 1984 4325 2329 3994 
Q 2675 3663 2675 3213 
Q 2675 2891 2525 2569 
Q 2294 2063 1775 1497 
Q 997 647 803 472 
L 1909 472 
Q 2247 472 2383 497 
Q 2519 522 2628 598 
Q 2738 675 2819 816 
L 2934 816 
z
" transform="scale(0.015625)"/>
       </defs>
       <use xlink:href="#TimesNewRomanPSMT-31"/>
       <use xlink:href="#TimesNewRomanPSMT-32" x="50"/>
      </g>
     </g>
    </g>
    <g id="xtick_5">
     <g id="line2d_9">
      <path d="M 138.6 169.2 
L 138.6 43.2 
" clip-path="url(#p5dc44cc547)" style="fill: none; stroke: #b0b0b0; stroke-width: 0.8; stroke-linecap: square"/>
     </g>
     <g id="line2d_10">
      <g>
       <use xlink:href="#m8285dd53e4" x="138.6" y="169.2" style="stroke: #000000; stroke-width: 0.8"/>
      </g>
     </g>
     <g id="text_5">
      <!-- 16 -->
      <g transform="translate(133.6 183.14375) scale(0.1 -0.1)">
       <defs>
        <path id="TimesNewRomanPSMT-36" d="M 2869 4325 
L 2869 4209 
Q 2456 4169 2195 4045 
Q 1934 3922 1679 3669 
Q 1425 3416 1258 3105 
Q 1091 2794 978 2366 
Q 1428 2675 1881 2675 
Q 2316 2675 2634 2325 
Q 2953 1975 2953 1425 
Q 2953 894 2631 456 
Q 2244 -75 1606 -75 
Q 1172 -75 869 213 
Q 275 772 275 1663 
Q 275 2231 503 2743 
Q 731 3256 1154 3653 
Q 1578 4050 1965 4187 
Q 2353 4325 2688 4325 
L 2869 4325 
z
M 925 2138 
Q 869 1716 869 1456 
Q 869 1156 980 804 
Q 1091 453 1309 247 
Q 1469 100 1697 100 
Q 1969 100 2183 356 
Q 2397 613 2397 1088 
Q 2397 1622 2184 2012 
Q 1972 2403 1581 2403 
Q 1463 2403 1327 2353 
Q 1191 2303 925 2138 
z
" transform="scale(0.015625)"/>
       </defs>
       <use xlink:href="#TimesNewRomanPSMT-31"/>
       <use xlink:href="#TimesNewRomanPSMT-36" x="50"/>
      </g>
     </g>
    </g>
    <g id="xtick_6">
     <g id="line2d_11">
      <path d="M 166.5 169.2 
L 166.5 43.2 
" clip-path="url(#p5dc44cc547)" style="fill: none; stroke: #b0b0b0; stroke-width: 0.8; stroke-linecap: square"/>
     </g>
     <g id="line2d_12">
      <g>
       <use xlink:href="#m8285dd53e4" x="166.5" y="169.2" style="stroke: #000000; stroke-width: 0.8"/>
      </g>
     </g>
     <g id="text_6">
      <!-- 20 -->
      <g transform="translate(161.5 183.14375) scale(0.1 -0.1)">
       <use xlink:href="#TimesNewRomanPSMT-32"/>
       <use xlink:href="#TimesNewRomanPSMT-30" x="50"/>
      </g>
     </g>
    </g>
    <g id="xtick_7">
     <g id="line2d_13">
      <path d="M 194.4 169.2 
L 194.4 43.2 
" clip-path="url(#p5dc44cc547)" style="fill: none; stroke: #b0b0b0; stroke-width: 0.8; stroke-linecap: square"/>
     </g>
     <g id="line2d_14">
      <g>
       <use xlink:href="#m8285dd53e4" x="194.4" y="169.2" style="stroke: #000000; stroke-width: 0.8"/>
      </g>
     </g>
     <g id="text_7">
      <!-- 24 -->
      <g transform="translate(189.4 183.14375) scale(0.1 -0.1)">
       <use xlink:href="#TimesNewRomanPSMT-32"/>
       <use xlink:href="#TimesNewRomanPSMT-34" x="50"/>
      </g>
     </g>
    </g>
   </g>
   <g id="matplotlib.axis_2">
    <g id="ytick_1">
     <g id="line2d_15">
      <path d="M 27 142.668914 
L 194.4 142.668914 
" clip-path="url(#p5dc44cc547)" style="fill: none; stroke: #b0b0b0; stroke-width: 0.8; stroke-linecap: square"/>
     </g>
     <g id="line2d_16">
      <defs>
       <path id="m3934cee8c1" d="M 0 0 
L -3.5 0 
" style="stroke: #000000; stroke-width: 0.8"/>
      </defs>
      <g>
       <use xlink:href="#m3934cee8c1" x="27" y="142.668914" style="stroke: #000000; stroke-width: 0.8"/>
      </g>
     </g>
     <g id="text_8">
      <!-- 0.90 -->
      <g transform="translate(2.5 146.140789) scale(0.1 -0.1)">
       <defs>
        <path id="TimesNewRomanPSMT-2e" d="M 800 606 
Q 947 606 1047 504 
Q 1147 403 1147 259 
Q 1147 116 1045 14 
Q 944 -88 800 -88 
Q 656 -88 554 14 
Q 453 116 453 259 
Q 453 406 554 506 
Q 656 606 800 606 
z
" transform="scale(0.015625)"/>
        <path id="TimesNewRomanPSMT-39" d="M 338 -88 
L 338 28 
Q 744 34 1094 217 
Q 1444 400 1770 856 
Q 2097 1313 2225 1859 
Q 1734 1544 1338 1544 
Q 891 1544 572 1889 
Q 253 2234 253 2806 
Q 253 3363 572 3797 
Q 956 4325 1575 4325 
Q 2097 4325 2469 3894 
Q 2925 3359 2925 2575 
Q 2925 1869 2578 1258 
Q 2231 647 1613 244 
Q 1109 -88 516 -88 
L 338 -88 
z
M 2275 2091 
Q 2331 2497 2331 2741 
Q 2331 3044 2228 3395 
Q 2125 3747 1936 3934 
Q 1747 4122 1506 4122 
Q 1228 4122 1018 3872 
Q 809 3622 809 3128 
Q 809 2469 1088 2097 
Q 1291 1828 1588 1828 
Q 1731 1828 1928 1897 
Q 2125 1966 2275 2091 
z
" transform="scale(0.015625)"/>
       </defs>
       <use xlink:href="#TimesNewRomanPSMT-30"/>
       <use xlink:href="#TimesNewRomanPSMT-2e" x="50"/>
       <use xlink:href="#TimesNewRomanPSMT-39" x="75"/>
       <use xlink:href="#TimesNewRomanPSMT-30" x="125"/>
      </g>
     </g>
    </g>
    <g id="ytick_2">
     <g id="line2d_17">
      <path d="M 27 111.421701 
L 194.4 111.421701 
" clip-path="url(#p5dc44cc547)" style="fill: none; stroke: #b0b0b0; stroke-width: 0.8; stroke-linecap: square"/>
     </g>
     <g id="line2d_18">
      <g>
       <use xlink:href="#m3934cee8c1" x="27" y="111.421701" style="stroke: #000000; stroke-width: 0.8"/>
      </g>
     </g>
     <g id="text_9">
      <!-- 0.95 -->
      <g transform="translate(2.5 114.893576) scale(0.1 -0.1)">
       <defs>
        <path id="TimesNewRomanPSMT-35" d="M 2778 4238 
L 2534 3706 
L 1259 3706 
L 981 3138 
Q 1809 3016 2294 2522 
Q 2709 2097 2709 1522 
Q 2709 1188 2573 903 
Q 2438 619 2231 419 
Q 2025 219 1772 97 
Q 1413 -75 1034 -75 
Q 653 -75 479 54 
Q 306 184 306 341 
Q 306 428 378 495 
Q 450 563 559 563 
Q 641 563 702 538 
Q 763 513 909 409 
Q 1144 247 1384 247 
Q 1750 247 2026 523 
Q 2303 800 2303 1197 
Q 2303 1581 2056 1914 
Q 1809 2247 1375 2428 
Q 1034 2569 447 2591 
L 1259 4238 
L 2778 4238 
z
" transform="scale(0.015625)"/>
       </defs>
       <use xlink:href="#TimesNewRomanPSMT-30"/>
       <use xlink:href="#TimesNewRomanPSMT-2e" x="50"/>
       <use xlink:href="#TimesNewRomanPSMT-39" x="75"/>
       <use xlink:href="#TimesNewRomanPSMT-35" x="125"/>
      </g>
     </g>
    </g>
    <g id="ytick_3">
     <g id="line2d_19">
      <path d="M 27 80.174487 
L 194.4 80.174487 
" clip-path="url(#p5dc44cc547)" style="fill: none; stroke: #b0b0b0; stroke-width: 0.8; stroke-linecap: square"/>
     </g>
     <g id="line2d_20">
      <g>
       <use xlink:href="#m3934cee8c1" x="27" y="80.174487" style="stroke: #000000; stroke-width: 0.8"/>
      </g>
     </g>
     <g id="text_10">
      <!-- 1.00 -->
      <g transform="translate(2.5 83.646362) scale(0.1 -0.1)">
       <use xlink:href="#TimesNewRomanPSMT-31"/>
       <use xlink:href="#TimesNewRomanPSMT-2e" x="50"/>
       <use xlink:href="#TimesNewRomanPSMT-30" x="75"/>
       <use xlink:href="#TimesNewRomanPSMT-30" x="125"/>
      </g>
     </g>
    </g>
    <g id="ytick_4">
     <g id="line2d_21">
      <path d="M 27 48.927273 
L 194.4 48.927273 
" clip-path="url(#p5dc44cc547)" style="fill: none; stroke: #b0b0b0; stroke-width: 0.8; stroke-linecap: square"/>
     </g>
     <g id="line2d_22">
      <g>
       <use xlink:href="#m3934cee8c1" x="27" y="48.927273" style="stroke: #000000; stroke-width: 0.8"/>
      </g>
     </g>
     <g id="text_11">
      <!-- 1.05 -->
      <g transform="translate(2.5 52.399148) scale(0.1 -0.1)">
       <use xlink:href="#TimesNewRomanPSMT-31"/>
       <use xlink:href="#TimesNewRomanPSMT-2e" x="50"/>
       <use xlink:href="#TimesNewRomanPSMT-30" x="75"/>
       <use xlink:href="#TimesNewRomanPSMT-35" x="125"/>
      </g>
     </g>
    </g>
    <g id="text_12">
     <!-- Voltages (pu) -->
     <g transform="translate(-3.657813 132.910156) rotate(-90) scale(0.1 -0.1)">
      <defs>
       <path id="TimesNewRomanPSMT-56" d="M 4544 4238 
L 4544 4122 
Q 4319 4081 4203 3978 
Q 4038 3825 3909 3509 
L 2431 -97 
L 2316 -97 
L 728 3556 
Q 606 3838 556 3900 
Q 478 3997 364 4051 
Q 250 4106 56 4122 
L 56 4238 
L 1788 4238 
L 1788 4122 
Q 1494 4094 1406 4022 
Q 1319 3950 1319 3838 
Q 1319 3681 1463 3350 
L 2541 866 
L 3541 3319 
Q 3688 3681 3688 3822 
Q 3688 3913 3597 3995 
Q 3506 4078 3291 4113 
Q 3275 4116 3238 4122 
L 3238 4238 
L 4544 4238 
z
" transform="scale(0.015625)"/>
       <path id="TimesNewRomanPSMT-6f" d="M 1600 2947 
Q 2250 2947 2644 2453 
Q 2978 2031 2978 1484 
Q 2978 1100 2793 706 
Q 2609 313 2286 112 
Q 1963 -88 1566 -88 
Q 919 -88 538 428 
Q 216 863 216 1403 
Q 216 1797 411 2186 
Q 606 2575 925 2761 
Q 1244 2947 1600 2947 
z
M 1503 2744 
Q 1338 2744 1170 2645 
Q 1003 2547 900 2300 
Q 797 2053 797 1666 
Q 797 1041 1045 587 
Q 1294 134 1700 134 
Q 2003 134 2200 384 
Q 2397 634 2397 1244 
Q 2397 2006 2069 2444 
Q 1847 2744 1503 2744 
z
" transform="scale(0.015625)"/>
       <path id="TimesNewRomanPSMT-6c" d="M 1184 4444 
L 1184 647 
Q 1184 378 1223 290 
Q 1263 203 1344 158 
Q 1425 113 1647 113 
L 1647 0 
L 244 0 
L 244 113 
Q 441 113 512 153 
Q 584 194 625 287 
Q 666 381 666 647 
L 666 3247 
Q 666 3731 644 3842 
Q 622 3953 573 3993 
Q 525 4034 450 4034 
Q 369 4034 244 3984 
L 191 4094 
L 1044 4444 
L 1184 4444 
z
" transform="scale(0.015625)"/>
       <path id="TimesNewRomanPSMT-74" d="M 1031 3803 
L 1031 2863 
L 1700 2863 
L 1700 2644 
L 1031 2644 
L 1031 788 
Q 1031 509 1111 412 
Q 1191 316 1316 316 
Q 1419 316 1516 380 
Q 1613 444 1666 569 
L 1788 569 
Q 1678 263 1478 108 
Q 1278 -47 1066 -47 
Q 922 -47 784 33 
Q 647 113 581 261 
Q 516 409 516 719 
L 516 2644 
L 63 2644 
L 63 2747 
Q 234 2816 414 2980 
Q 594 3144 734 3369 
Q 806 3488 934 3803 
L 1031 3803 
z
" transform="scale(0.015625)"/>
       <path id="TimesNewRomanPSMT-61" d="M 1822 413 
Q 1381 72 1269 19 
Q 1100 -59 909 -59 
Q 613 -59 420 144 
Q 228 347 228 678 
Q 228 888 322 1041 
Q 450 1253 767 1440 
Q 1084 1628 1822 1897 
L 1822 2009 
Q 1822 2438 1686 2597 
Q 1550 2756 1291 2756 
Q 1094 2756 978 2650 
Q 859 2544 859 2406 
L 866 2225 
Q 866 2081 792 2003 
Q 719 1925 600 1925 
Q 484 1925 411 2006 
Q 338 2088 338 2228 
Q 338 2497 613 2722 
Q 888 2947 1384 2947 
Q 1766 2947 2009 2819 
Q 2194 2722 2281 2516 
Q 2338 2381 2338 1966 
L 2338 994 
Q 2338 584 2353 492 
Q 2369 400 2405 369 
Q 2441 338 2488 338 
Q 2538 338 2575 359 
Q 2641 400 2828 588 
L 2828 413 
Q 2478 -56 2159 -56 
Q 2006 -56 1915 50 
Q 1825 156 1822 413 
z
M 1822 616 
L 1822 1706 
Q 1350 1519 1213 1441 
Q 966 1303 859 1153 
Q 753 1003 753 825 
Q 753 600 887 451 
Q 1022 303 1197 303 
Q 1434 303 1822 616 
z
" transform="scale(0.015625)"/>
       <path id="TimesNewRomanPSMT-67" d="M 966 1044 
Q 703 1172 562 1401 
Q 422 1631 422 1909 
Q 422 2334 742 2640 
Q 1063 2947 1563 2947 
Q 1972 2947 2272 2747 
L 2878 2747 
Q 3013 2747 3034 2739 
Q 3056 2731 3066 2713 
Q 3084 2684 3084 2613 
Q 3084 2531 3069 2500 
Q 3059 2484 3036 2475 
Q 3013 2466 2878 2466 
L 2506 2466 
Q 2681 2241 2681 1891 
Q 2681 1491 2375 1206 
Q 2069 922 1553 922 
Q 1341 922 1119 984 
Q 981 866 932 777 
Q 884 688 884 625 
Q 884 572 936 522 
Q 988 472 1138 450 
Q 1225 438 1575 428 
Q 2219 413 2409 384 
Q 2700 344 2873 169 
Q 3047 -6 3047 -263 
Q 3047 -616 2716 -925 
Q 2228 -1381 1444 -1381 
Q 841 -1381 425 -1109 
Q 191 -953 191 -784 
Q 191 -709 225 -634 
Q 278 -519 444 -313 
Q 466 -284 763 25 
Q 600 122 533 198 
Q 466 275 466 372 
Q 466 481 555 628 
Q 644 775 966 1044 
z
M 1509 2797 
Q 1278 2797 1122 2612 
Q 966 2428 966 2047 
Q 966 1553 1178 1281 
Q 1341 1075 1591 1075 
Q 1828 1075 1981 1253 
Q 2134 1431 2134 1813 
Q 2134 2309 1919 2591 
Q 1759 2797 1509 2797 
z
M 934 0 
Q 788 -159 713 -296 
Q 638 -434 638 -550 
Q 638 -700 819 -813 
Q 1131 -1006 1722 -1006 
Q 2284 -1006 2551 -807 
Q 2819 -609 2819 -384 
Q 2819 -222 2659 -153 
Q 2497 -84 2016 -72 
Q 1313 -53 934 0 
z
" transform="scale(0.015625)"/>
       <path id="TimesNewRomanPSMT-65" d="M 681 1784 
Q 678 1147 991 784 
Q 1303 422 1725 422 
Q 2006 422 2214 576 
Q 2422 731 2563 1106 
L 2659 1044 
Q 2594 616 2278 264 
Q 1963 -88 1488 -88 
Q 972 -88 605 314 
Q 238 716 238 1394 
Q 238 2128 614 2539 
Q 991 2950 1559 2950 
Q 2041 2950 2350 2633 
Q 2659 2316 2659 1784 
L 681 1784 
z
M 681 1966 
L 2006 1966 
Q 1991 2241 1941 2353 
Q 1863 2528 1708 2628 
Q 1553 2728 1384 2728 
Q 1125 2728 920 2526 
Q 716 2325 681 1966 
z
" transform="scale(0.015625)"/>
       <path id="TimesNewRomanPSMT-73" d="M 2050 2947 
L 2050 1972 
L 1947 1972 
Q 1828 2431 1642 2597 
Q 1456 2763 1169 2763 
Q 950 2763 815 2647 
Q 681 2531 681 2391 
Q 681 2216 781 2091 
Q 878 1963 1175 1819 
L 1631 1597 
Q 2266 1288 2266 781 
Q 2266 391 1970 151 
Q 1675 -88 1309 -88 
Q 1047 -88 709 6 
Q 606 38 541 38 
Q 469 38 428 -44 
L 325 -44 
L 325 978 
L 428 978 
Q 516 541 762 319 
Q 1009 97 1316 97 
Q 1531 97 1667 223 
Q 1803 350 1803 528 
Q 1803 744 1651 891 
Q 1500 1038 1047 1263 
Q 594 1488 453 1669 
Q 313 1847 313 2119 
Q 313 2472 555 2709 
Q 797 2947 1181 2947 
Q 1350 2947 1591 2875 
Q 1750 2828 1803 2828 
Q 1853 2828 1881 2850 
Q 1909 2872 1947 2947 
L 2050 2947 
z
" transform="scale(0.015625)"/>
       <path id="TimesNewRomanPSMT-20" transform="scale(0.015625)"/>
       <path id="TimesNewRomanPSMT-28" d="M 1988 -1253 
L 1988 -1369 
Q 1516 -1131 1200 -813 
Q 750 -359 506 256 
Q 263 872 263 1534 
Q 263 2503 741 3301 
Q 1219 4100 1988 4444 
L 1988 4313 
Q 1603 4100 1356 3731 
Q 1109 3363 987 2797 
Q 866 2231 866 1616 
Q 866 947 969 400 
Q 1050 -31 1165 -292 
Q 1281 -553 1476 -793 
Q 1672 -1034 1988 -1253 
z
" transform="scale(0.015625)"/>
       <path id="TimesNewRomanPSMT-70" d="M -6 2578 
L 875 2934 
L 994 2934 
L 994 2266 
Q 1216 2644 1439 2795 
Q 1663 2947 1909 2947 
Q 2341 2947 2628 2609 
Q 2981 2197 2981 1534 
Q 2981 794 2556 309 
Q 2206 -88 1675 -88 
Q 1444 -88 1275 -22 
Q 1150 25 994 166 
L 994 -706 
Q 994 -1000 1030 -1079 
Q 1066 -1159 1155 -1206 
Q 1244 -1253 1478 -1253 
L 1478 -1369 
L -22 -1369 
L -22 -1253 
L 56 -1253 
Q 228 -1256 350 -1188 
Q 409 -1153 442 -1076 
Q 475 -1000 475 -688 
L 475 2019 
Q 475 2297 450 2372 
Q 425 2447 370 2484 
Q 316 2522 222 2522 
Q 147 2522 31 2478 
L -6 2578 
z
M 994 2081 
L 994 1013 
Q 994 666 1022 556 
Q 1066 375 1236 237 
Q 1406 100 1666 100 
Q 1978 100 2172 344 
Q 2425 663 2425 1241 
Q 2425 1897 2138 2250 
Q 1938 2494 1663 2494 
Q 1513 2494 1366 2419 
Q 1253 2363 994 2081 
z
" transform="scale(0.015625)"/>
       <path id="TimesNewRomanPSMT-75" d="M 2709 2863 
L 2709 1128 
Q 2709 631 2732 520 
Q 2756 409 2807 365 
Q 2859 322 2928 322 
Q 3025 322 3147 375 
L 3191 266 
L 2334 -88 
L 2194 -88 
L 2194 519 
Q 1825 119 1631 15 
Q 1438 -88 1222 -88 
Q 981 -88 804 51 
Q 628 191 559 409 
Q 491 628 491 1028 
L 491 2306 
Q 491 2509 447 2587 
Q 403 2666 317 2708 
Q 231 2750 6 2747 
L 6 2863 
L 1009 2863 
L 1009 947 
Q 1009 547 1148 422 
Q 1288 297 1484 297 
Q 1619 297 1789 381 
Q 1959 466 2194 703 
L 2194 2325 
Q 2194 2569 2105 2655 
Q 2016 2741 1734 2747 
L 1734 2863 
L 2709 2863 
z
" transform="scale(0.015625)"/>
       <path id="TimesNewRomanPSMT-29" d="M 144 4313 
L 144 4444 
Q 619 4209 934 3891 
Q 1381 3434 1625 2820 
Q 1869 2206 1869 1541 
Q 1869 572 1392 -226 
Q 916 -1025 144 -1369 
L 144 -1253 
Q 528 -1038 776 -670 
Q 1025 -303 1145 264 
Q 1266 831 1266 1447 
Q 1266 2113 1163 2663 
Q 1084 3094 967 3353 
Q 850 3613 656 3853 
Q 463 4094 144 4313 
z
" transform="scale(0.015625)"/>
      </defs>
      <use xlink:href="#TimesNewRomanPSMT-56"/>
      <use xlink:href="#TimesNewRomanPSMT-6f" x="59.341797"/>
      <use xlink:href="#TimesNewRomanPSMT-6c" x="109.341797"/>
      <use xlink:href="#TimesNewRomanPSMT-74" x="137.125"/>
      <use xlink:href="#TimesNewRomanPSMT-61" x="164.908203"/>
      <use xlink:href="#TimesNewRomanPSMT-67" x="209.292969"/>
      <use xlink:href="#TimesNewRomanPSMT-65" x="259.292969"/>
      <use xlink:href="#TimesNewRomanPSMT-73" x="303.677734"/>
      <use xlink:href="#TimesNewRomanPSMT-20" x="342.59375"/>
      <use xlink:href="#TimesNewRomanPSMT-28" x="367.59375"/>
      <use xlink:href="#TimesNewRomanPSMT-70" x="400.894531"/>
      <use xlink:href="#TimesNewRomanPSMT-75" x="450.894531"/>
      <use xlink:href="#TimesNewRomanPSMT-29" x="500.894531"/>
     </g>
    </g>
   </g>
   <g id="line2d_23">
    <path d="M -1 68.570212 
L 22.40022 68.570212 
L 23.73942 69.206623 
L 29.09622 69.206623 
L 30.43542 68.700856 
L 35.79222 68.700856 
L 37.13142 68.08917 
L 42.48822 68.08917 
L 43.82742 67.589578 
L 55.88022 67.590289 
L 57.21942 67.008203 
L 62.57622 67.008203 
L 63.91542 67.595136 
L 69.27222 67.595136 
L 70.61142 65.394036 
L 75.96822 65.394036 
L 77.30742 64.871855 
L 82.66422 64.871855 
L 84.00342 65.366393 
L 102.75222 65.410667 
L 104.09142 66.519749 
L 109.44822 66.519749 
L 110.78742 67.596987 
L 122.84022 67.594592 
L 124.17942 66.558115 
L 136.23222 66.56349 
L 137.57142 70.725351 
L 142.92822 70.725351 
L 144.26742 76.613036 
L 149.62422 76.613036 
L 150.96342 85.324593 
L 156.32022 85.324593 
L 157.65942 82.8779 
L 163.01622 82.8779 
L 164.35542 79.186901 
L 169.71222 79.186901 
L 171.05142 74.346942 
L 176.40822 74.346942 
L 177.74742 68.570212 
L 203.19222 68.570212 
L 203.19222 68.570212 
" clip-path="url(#p5dc44cc547)" style="fill: none; stroke: #d9524f; stroke-width: 1.5; stroke-linecap: square"/>
   </g>
   <g id="line2d_24">
    <path d="M -1 71.522661 
L 22.40022 71.522661 
L 23.73942 72.302527 
L 29.09622 72.302527 
L 30.43542 71.682893 
L 35.79222 71.682893 
L 37.13142 70.933495 
L 42.48822 70.933495 
L 43.82742 70.321513 
L 55.88022 70.322227 
L 57.21942 69.609033 
L 62.57622 69.609033 
L 63.91542 70.327098 
L 69.27222 70.327098 
L 70.61142 67.630467 
L 75.96822 67.630467 
L 77.30742 66.989872 
L 82.66422 66.989872 
L 84.00342 67.593378 
L 102.75222 67.64716 
L 104.09142 69.004881 
L 109.44822 69.004881 
L 110.78742 70.324187 
L 122.84022 70.321781 
L 124.17942 69.052853 
L 136.23222 69.058251 
L 137.57142 74.157084 
L 142.92822 74.157084 
L 144.26742 81.381551 
L 149.62422 81.381551 
L 150.96342 92.093086 
L 156.32022 92.093086 
L 157.65942 89.083737 
L 163.01622 89.083737 
L 164.35542 84.547961 
L 169.71222 84.547961 
L 171.05142 78.605513 
L 176.40822 78.605513 
L 177.74742 71.522661 
L 203.19222 71.522661 
L 203.19222 71.522661 
" clip-path="url(#p5dc44cc547)" style="fill: none; stroke: #d9524f; stroke-width: 1.5; stroke-linecap: square"/>
   </g>
   <g id="line2d_25">
    <path d="M -1 74.475074 
L 22.40022 74.475074 
L 23.73942 75.398383 
L 29.09622 75.398383 
L 30.43542 74.664893 
L 35.79222 74.664893 
L 37.13142 73.777795 
L 42.48822 73.777795 
L 43.82742 73.053432 
L 55.88022 73.05415 
L 57.21942 72.209857 
L 62.57622 72.209857 
L 63.91542 73.059043 
L 69.27222 73.059043 
L 70.61142 69.866914 
L 75.96822 69.866914 
L 77.30742 69.107911 
L 82.66422 69.107911 
L 84.00342 69.820381 
L 102.75222 69.88367 
L 104.09142 71.490014 
L 109.44822 71.490014 
L 110.78742 73.051371 
L 122.84022 73.048953 
L 124.17942 71.547592 
L 136.23222 71.553013 
L 137.57142 77.588733 
L 142.92822 77.588733 
L 144.26742 86.149771 
L 149.62422 86.149771 
L 150.96342 98.860769 
L 156.32022 98.860769 
L 157.65942 95.288934 
L 163.01622 95.288934 
L 164.35542 89.908599 
L 169.71222 89.908599 
L 171.05142 82.863881 
L 176.40822 82.863881 
L 177.74742 74.475074 
L 203.19222 74.475074 
L 203.19222 74.475074 
" clip-path="url(#p5dc44cc547)" style="fill: none; stroke: #d9524f; stroke-width: 1.5; stroke-linecap: square"/>
   </g>
   <g id="line2d_26">
    <path d="M -1 77.218155 
L 22.40022 77.218155 
L 23.73942 78.275138 
L 29.09622 78.275138 
L 30.43542 77.435542 
L 35.79222 77.435542 
L 37.13142 76.420151 
L 42.48822 76.420151 
L 43.82742 75.591109 
L 55.88022 75.59183 
L 57.21942 74.625455 
L 62.57622 74.625455 
L 63.91542 75.596744 
L 69.27222 75.596744 
L 70.61142 71.943361 
L 75.96822 71.943361 
L 77.30742 71.0742 
L 82.66422 71.0742 
L 84.00342 71.88804 
L 102.75222 71.960176 
L 104.09142 73.797905 
L 109.44822 73.797905 
L 110.78742 75.584638 
L 122.84022 75.58221 
L 124.17942 73.864425 
L 136.23222 73.869867 
L 137.57142 80.778568 
L 142.92822 80.778568 
L 144.26742 90.587969 
L 149.62422 90.587969 
L 150.96342 105.173424 
L 156.32022 105.173424 
L 157.65942 101.073387 
L 163.01622 101.073387 
L 164.35542 94.90128 
L 169.71222 94.90128 
L 171.05142 86.825453 
L 176.40822 86.825453 
L 177.74742 77.218155 
L 203.19222 77.218155 
L 203.19222 77.218155 
" clip-path="url(#p5dc44cc547)" style="fill: none; stroke: #d9524f; stroke-width: 1.5; stroke-linecap: square"/>
   </g>
   <g id="line2d_27">
    <path d="M -1 79.195939 
L 22.40022 79.195939 
L 23.73942 80.348817 
L 29.09622 80.348817 
L 30.43542 79.433107 
L 35.79222 79.433107 
L 37.13142 78.325642 
L 42.48822 78.325642 
L 43.82742 77.421441 
L 55.88022 77.422164 
L 57.21942 76.368095 
L 62.57622 76.368095 
L 63.91542 77.427093 
L 69.27222 77.427093 
L 70.61142 73.442174 
L 75.96822 73.442174 
L 77.30742 72.493753 
L 82.66422 72.493753 
L 84.00342 73.380531 
L 102.75222 73.459031 
L 104.09142 75.463143 
L 109.44822 75.463143 
L 110.78742 77.411802 
L 122.84022 77.409367 
L 124.17942 75.53609 
L 136.23222 75.541548 
L 137.57142 83.076643 
L 142.92822 83.076643 
L 144.26742 93.777704 
L 149.62422 93.777704 
L 150.96342 109.690917 
L 156.32022 109.690917 
L 157.65942 105.218279 
L 163.01622 105.218279 
L 164.35542 98.485302 
L 169.71222 98.485302 
L 171.05142 89.675366 
L 176.40822 89.675366 
L 177.74742 79.195939 
L 203.19222 79.195939 
L 203.19222 79.195939 
" clip-path="url(#p5dc44cc547)" style="fill: none; stroke: #d9524f; stroke-width: 1.5; stroke-linecap: square"/>
   </g>
   <g id="line2d_28">
    <path d="M -1 81.173619 
L 22.40022 81.173619 
L 23.73942 82.422383 
L 29.09622 82.422383 
L 30.43542 81.430566 
L 35.79222 81.430566 
L 37.13142 80.231037 
L 42.48822 80.231037 
L 43.82742 79.251684 
L 55.88022 79.25241 
L 57.21942 78.110655 
L 62.57622 78.110655 
L 63.91542 79.257354 
L 69.27222 79.257354 
L 70.61142 74.940929 
L 75.96822 74.940929 
L 77.30742 73.913253 
L 82.66422 73.913253 
L 84.00342 74.872965 
L 102.75222 74.957828 
L 104.09142 77.128309 
L 109.44822 77.128309 
L 110.78742 79.238879 
L 122.84022 79.236436 
L 124.17942 77.207683 
L 136.23222 77.213155 
L 137.57142 85.374577 
L 142.92822 85.374577 
L 144.26742 96.967167 
L 149.62422 96.967167 
L 150.96342 114.207858 
L 156.32022 114.207858 
L 157.65942 109.362707 
L 163.01622 109.362707 
L 164.35542 102.068981 
L 169.71222 102.068981 
L 171.05142 92.525063 
L 176.40822 92.525063 
L 177.74742 81.173619 
L 203.19222 81.173619 
L 203.19222 81.173619 
" clip-path="url(#p5dc44cc547)" style="fill: none; stroke: #d9524f; stroke-width: 1.5; stroke-linecap: square"/>
   </g>
   <g id="line2d_29">
    <path d="M -1 82.362285 
L 22.40022 82.362285 
L 23.73942 83.668963 
L 29.09622 83.668963 
L 30.43542 82.631176 
L 35.79222 82.631176 
L 37.13142 81.376063 
L 42.48822 81.376063 
L 43.82742 80.351355 
L 55.88022 80.352081 
L 57.21942 79.157429 
L 62.57622 79.157429 
L 63.91542 80.357035 
L 69.27222 80.357035 
L 70.61142 75.840745 
L 75.96822 75.840745 
L 77.30742 74.765333 
L 82.66422 74.765333 
L 84.00342 75.768972 
L 102.75222 75.857668 
L 104.09142 78.128413 
L 109.44822 78.128413 
L 110.78742 80.336638 
L 122.84022 80.334191 
L 124.17942 78.211662 
L 136.23222 78.217143 
L 137.57142 86.756786 
L 142.92822 86.756786 
L 144.26742 98.889932 
L 149.62422 98.889932 
L 150.96342 116.9409 
L 156.32022 116.9409 
L 157.65942 111.867664 
L 163.01622 111.867664 
L 164.35542 104.231657 
L 169.71222 104.231657 
L 171.05142 94.2415 
L 176.40822 94.2415 
L 177.74742 82.362285 
L 203.19222 82.362285 
L 203.19222 82.362285 
" clip-path="url(#p5dc44cc547)" style="fill: none; stroke: #d9524f; stroke-width: 1.5; stroke-linecap: square"/>
   </g>
   <g id="line2d_30">
    <path d="M -1 83.550911 
L 22.40022 83.550911 
L 23.73942 84.915499 
L 29.09622 84.915499 
L 30.43542 83.831746 
L 35.79222 83.831746 
L 37.13142 82.521051 
L 42.48822 82.521051 
L 43.82742 81.450991 
L 55.88022 81.451719 
L 57.21942 80.204173 
L 62.57622 80.204173 
L 63.91542 81.456682 
L 69.27222 81.456682 
L 70.61142 76.740537 
L 75.96822 76.740537 
L 77.30742 75.617393 
L 82.66422 75.617393 
L 84.00342 76.664957 
L 102.75222 76.757486 
L 104.09142 79.128489 
L 109.44822 79.128489 
L 110.78742 81.434364 
L 122.84022 81.431912 
L 124.17942 79.215613 
L 136.23222 79.221103 
L 137.57142 88.138941 
L 142.92822 88.138941 
L 144.26742 100.812591 
L 149.62422 100.812591 
L 150.96342 119.673726 
L 156.32022 119.673726 
L 157.65942 114.372441 
L 163.01622 114.372441 
L 164.35542 106.394198 
L 169.71222 106.394198 
L 171.05142 95.957853 
L 176.40822 95.957853 
L 177.74742 83.550911 
L 203.19222 83.550911 
L 203.19222 83.550911 
" clip-path="url(#p5dc44cc547)" style="fill: none; stroke: #d9524f; stroke-width: 1.5; stroke-linecap: square"/>
   </g>
   <g id="line2d_31">
    <path d="M -1 84.739822 
L 22.40022 84.739822 
L 23.73942 86.162331 
L 29.09622 86.162331 
L 30.43542 85.032602 
L 35.79222 85.032602 
L 37.13142 83.666315 
L 42.48822 83.666315 
L 43.82742 82.550893 
L 55.88022 82.551623 
L 57.21942 81.251171 
L 62.57622 81.251171 
L 63.91542 82.556595 
L 69.27222 82.556595 
L 70.61142 77.640552 
L 75.96822 77.640552 
L 77.30742 76.469664 
L 82.66422 76.469664 
L 84.00342 77.561163 
L 102.75222 77.657526 
L 104.09142 80.12881 
L 109.44822 80.12881 
L 110.78742 82.532356 
L 122.84022 82.529899 
L 124.17942 80.219808 
L 136.23222 80.225309 
L 137.57142 89.52142 
L 142.92822 89.52142 
L 144.26742 102.735674 
L 149.62422 102.735674 
L 150.96342 122.407096 
L 156.32022 122.407096 
L 157.65942 116.877731 
L 163.01622 116.877731 
L 164.35542 108.557203 
L 169.71222 108.557203 
L 171.05142 97.674594 
L 176.40822 97.674594 
L 177.74742 84.739822 
L 203.19222 84.739822 
L 203.19222 84.739822 
" clip-path="url(#p5dc44cc547)" style="fill: none; stroke: #d9524f; stroke-width: 1.5; stroke-linecap: square"/>
   </g>
   <g id="line2d_32">
    <path d="M -1 85.422462 
L 22.40022 85.422462 
L 23.73942 86.8783 
L 29.09622 86.8783 
L 30.43542 85.722115 
L 35.79222 85.722115 
L 37.13142 84.323844 
L 42.48822 84.323844 
L 43.82742 83.182331 
L 55.88022 83.183061 
L 57.21942 81.852183 
L 62.57622 81.852183 
L 63.91542 83.188038 
L 69.27222 83.188038 
L 70.61142 78.157064 
L 75.96822 78.157064 
L 77.30742 76.958737 
L 82.66422 76.958737 
L 84.00342 78.075486 
L 102.75222 78.174053 
L 104.09142 80.702982 
L 109.44822 80.702982 
L 110.78742 83.162694 
L 122.84022 83.160235 
L 124.17942 80.796209 
L 136.23222 80.801714 
L 137.57142 90.315469 
L 142.92822 90.315469 
L 144.26742 103.841324 
L 149.62422 103.841324 
L 150.96342 123.981186 
L 156.32022 123.981186 
L 157.65942 118.31978 
L 163.01622 118.31978 
L 164.35542 109.801371 
L 169.71222 109.801371 
L 171.05142 98.661228 
L 176.40822 98.661228 
L 177.74742 85.422462 
L 203.19222 85.422462 
L 203.19222 85.422462 
" clip-path="url(#p5dc44cc547)" style="fill: none; stroke: #d9524f; stroke-width: 1.5; stroke-linecap: square"/>
   </g>
   <g id="line2d_33">
    <path d="M -1 75.426603 
L 22.40022 75.426603 
L 23.73942 76.394258 
L 29.09622 76.394258 
L 30.43542 75.625583 
L 35.79222 75.625583 
L 37.13142 74.695779 
L 42.48822 74.695779 
L 43.82742 73.936437 
L 55.88022 73.937155 
L 57.21942 73.051919 
L 62.57622 73.051919 
L 63.91542 73.942055 
L 69.27222 73.942055 
L 70.61142 70.594393 
L 75.96822 70.594393 
L 77.30742 69.797909 
L 82.66422 69.797909 
L 84.00342 70.544874 
L 102.75222 70.611169 
L 104.09142 72.295819 
L 109.44822 72.295819 
L 110.78742 73.932898 
L 122.84022 73.930477 
L 124.17942 72.356412 
L 136.23222 72.36184 
L 137.57142 78.687702 
L 142.92822 78.687702 
L 144.26742 87.648816 
L 149.62422 87.648816 
L 150.96342 100.925739 
L 156.32022 100.925739 
L 157.65942 97.198832 
L 163.01622 97.198832 
L 164.35542 91.579526 
L 169.71222 91.579526 
L 171.05142 84.21229 
L 176.40822 84.21229 
L 177.74742 75.426603 
L 203.19222 75.426603 
L 203.19222 75.426603 
" clip-path="url(#p5dc44cc547)" style="fill: none; stroke: #d9524f; stroke-width: 1.5; stroke-linecap: square"/>
   </g>
   <g id="line2d_34">
    <path d="M -1 80.699609 
L 22.40022 80.699609 
L 23.73942 81.928988 
L 29.09622 81.928988 
L 30.43542 80.952526 
L 35.79222 80.952526 
L 37.13142 79.771888 
L 42.48822 79.771888 
L 43.82742 78.808208 
L 55.88022 78.808933 
L 57.21942 77.685747 
L 62.57622 77.685747 
L 63.91542 78.813875 
L 69.27222 78.813875 
L 70.61142 74.569205 
L 75.96822 74.569205 
L 77.30742 73.559296 
L 82.66422 73.559296 
L 84.00342 74.50265 
L 102.75222 74.586095 
L 104.09142 76.72004 
L 109.44822 76.72004 
L 110.78742 78.79607 
L 122.84022 78.793629 
L 124.17942 76.798024 
L 136.23222 76.803493 
L 137.57142 84.837332 
L 142.92822 84.837332 
L 144.26742 96.278392 
L 149.62422 96.278392 
L 150.96342 113.37466 
L 156.32022 113.37466 
L 157.65942 108.558711 
L 163.01622 108.558711 
L 164.35542 101.32613 
L 169.71222 101.32613 
L 171.05142 91.889505 
L 176.40822 91.889505 
L 177.74742 80.699609 
L 203.19222 80.699609 
L 203.19222 80.699609 
" clip-path="url(#p5dc44cc547)" style="fill: none; stroke: #d9524f; stroke-width: 1.5; stroke-linecap: square"/>
   </g>
   <g id="line2d_35">
    <path d="M -1 84.180176 
L 22.40022 84.180176 
L 23.73942 85.581863 
L 29.09622 85.581863 
L 30.43542 84.468606 
L 35.79222 84.468606 
L 37.13142 83.122803 
L 42.48822 83.122803 
L 43.82742 82.024548 
L 55.88022 82.025276 
L 57.21942 80.745351 
L 62.57622 80.745351 
L 63.91542 82.030246 
L 69.27222 82.030246 
L 70.61142 77.19454 
L 75.96822 77.19454 
L 77.30742 76.043935 
L 82.66422 76.043935 
L 84.00342 77.116755 
L 102.75222 77.211505 
L 104.09142 79.641548 
L 109.44822 79.641548 
L 110.78742 82.006746 
L 122.84022 82.004291 
L 124.17942 79.73099 
L 136.23222 79.736487 
L 137.57142 88.894901 
L 142.92822 88.894901 
L 144.26742 101.966513 
L 149.62422 101.966513 
L 150.96342 121.571288 
L 156.32022 121.571288 
L 157.65942 116.040154 
L 163.01622 116.040154 
L 164.35542 107.748076 
L 169.71222 107.748076 
L 171.05142 96.951719 
L 176.40822 96.951719 
L 177.74742 84.180176 
L 203.19222 84.180176 
L 203.19222 84.180176 
" clip-path="url(#p5dc44cc547)" style="fill: none; stroke: #d9524f; stroke-width: 1.5; stroke-linecap: square"/>
   </g>
   <g id="line2d_36">
    <path d="M -1 87.658838 
L 22.40022 87.658838 
L 23.73942 89.232696 
L 29.09622 89.232696 
L 30.43542 87.982754 
L 35.79222 87.982754 
L 37.13142 86.471915 
L 42.48822 86.471915 
L 43.82742 85.239188 
L 55.88022 85.239921 
L 57.21942 83.803373 
L 62.57622 83.803373 
L 63.91542 85.244918 
L 69.27222 85.244918 
L 70.61142 79.818598 
L 75.96822 79.818598 
L 77.30742 78.527392 
L 82.66422 78.527392 
L 84.00342 79.729592 
L 102.75222 79.835639 
L 104.09142 82.561573 
L 109.44822 82.561573 
L 110.78742 85.215727 
L 122.84022 85.213258 
L 124.17942 82.662465 
L 136.23222 82.66799 
L 137.57142 92.950083 
L 142.92822 92.950083 
L 144.26742 107.650649 
L 149.62422 107.650649 
L 150.96342 129.760824 
L 156.32022 129.760824 
L 157.65942 123.515466 
L 163.01622 123.515466 
L 164.35542 114.165206 
L 169.71222 114.165206 
L 171.05142 102.010604 
L 176.40822 102.010604 
L 177.74742 87.658838 
L 203.19222 87.658838 
L 203.19222 87.658838 
" clip-path="url(#p5dc44cc547)" style="fill: none; stroke: #d9524f; stroke-width: 1.5; stroke-linecap: square"/>
   </g>
   <g id="line2d_37">
    <path d="M -1 91.136571 
L 22.40022 91.136571 
L 23.73942 92.882504 
L 29.09622 92.882504 
L 30.43542 91.495952 
L 35.79222 91.495952 
L 37.13142 89.820164 
L 42.48822 89.820164 
L 43.82742 88.453033 
L 55.88022 88.45377 
L 57.21942 86.860675 
L 62.57622 86.860675 
L 63.91542 88.458795 
L 69.27222 88.458795 
L 70.61142 82.442127 
L 75.96822 82.442127 
L 77.30742 81.010374 
L 82.66422 81.010374 
L 84.00342 82.341903 
L 89.36022 82.341903 
L 90.69942 82.459035 
L 102.75222 82.459243 
L 104.09142 85.480943 
L 109.44822 85.480943 
L 110.78742 88.423916 
L 122.84022 88.421434 
L 124.17942 85.59328 
L 136.23222 85.598832 
L 137.57142 97.004002 
L 142.92822 97.004002 
L 144.26742 113.332311 
L 149.62422 113.332311 
L 150.96342 137.945267 
L 156.32022 137.945267 
L 157.65942 130.986522 
L 163.01622 130.986522 
L 164.35542 120.579189 
L 169.71222 120.579189 
L 171.05142 107.067526 
L 176.40822 107.067526 
L 177.74742 91.136571 
L 203.19222 91.136571 
L 203.19222 91.136571 
" clip-path="url(#p5dc44cc547)" style="fill: none; stroke: #d9524f; stroke-width: 1.5; stroke-linecap: square"/>
   </g>
   <g id="line2d_38">
    <path d="M -1 84.250796 
L 22.40022 84.250796 
L 23.73942 85.647655 
L 29.09622 85.647655 
L 30.43542 84.538301 
L 35.79222 84.538301 
L 37.13142 83.196498 
L 42.48822 83.196498 
L 43.82742 82.100931 
L 55.88022 82.10166 
L 57.21942 80.824227 
L 62.57622 80.824227 
L 63.91542 82.106628 
L 69.27222 82.106628 
L 70.61142 77.276791 
L 75.96822 77.276791 
L 77.30742 76.126185 
L 82.66422 76.126185 
L 84.00342 77.199023 
L 102.75222 77.293754 
L 104.09142 79.722052 
L 109.44822 79.722052 
L 110.78742 82.083226 
L 122.84022 82.080772 
L 124.17942 79.811379 
L 136.23222 79.816875 
L 137.57142 88.945949 
L 142.92822 88.945949 
L 144.26742 101.907408 
L 149.62422 101.907408 
L 150.96342 121.165309 
L 156.32022 121.165309 
L 157.65942 115.756853 
L 163.01622 115.756853 
L 164.35542 107.611044 
L 169.71222 107.611044 
L 171.05142 96.944863 
L 176.40822 96.944863 
L 177.74742 84.250796 
L 203.19222 84.250796 
L 203.19222 84.250796 
" clip-path="url(#p5dc44cc547)" style="fill: none; stroke: #d9524f; stroke-width: 1.5; stroke-linecap: square"/>
   </g>
   <g id="line2d_39">
    <path d="M -1 86.713218 
L 22.40022 86.713218 
L 23.73942 88.231553 
L 29.09622 88.231553 
L 30.43542 87.025764 
L 35.79222 87.025764 
L 37.13142 85.567482 
L 42.48822 85.567482 
L 43.82742 84.376974 
L 55.88022 84.377706 
L 57.21942 82.989657 
L 62.57622 82.989657 
L 63.91542 84.382693 
L 69.27222 84.382693 
L 70.61142 79.135539 
L 75.96822 79.135539 
L 77.30742 77.885516 
L 82.66422 77.885516 
L 84.00342 79.049838 
L 102.75222 79.152556 
L 104.09142 81.789989 
L 109.44822 81.789989 
L 110.78742 84.355272 
L 122.84022 84.352808 
L 124.17942 81.887406 
L 136.23222 81.892922 
L 137.57142 91.814926 
L 142.92822 91.814926 
L 144.26742 105.921203 
L 149.62422 105.921203 
L 150.96342 126.923508 
L 156.32022 126.923508 
L 157.65942 121.020331 
L 163.01622 121.020331 
L 164.35542 112.137609 
L 169.71222 112.137609 
L 171.05142 100.520008 
L 176.40822 100.520008 
L 177.74742 86.713218 
L 203.19222 86.713218 
L 203.19222 86.713218 
" clip-path="url(#p5dc44cc547)" style="fill: none; stroke: #d9524f; stroke-width: 1.5; stroke-linecap: square"/>
   </g>
   <g id="line2d_40">
    <path d="M -1 88.084751 
L 22.40022 88.084751 
L 23.73942 89.670544 
L 29.09622 89.670544 
L 30.43542 88.411204 
L 35.79222 88.411204 
L 37.13142 86.888223 
L 42.48822 86.888223 
L 43.82742 85.644967 
L 55.88022 85.6457 
L 57.21942 84.196179 
L 62.57622 84.196179 
L 63.91542 85.650698 
L 69.27222 85.650698 
L 70.61142 80.17155 
L 75.96822 80.17155 
L 77.30742 78.866224 
L 82.66422 78.866224 
L 84.00342 80.081435 
L 102.75222 80.188595 
L 104.09142 82.942319 
L 109.44822 82.942319 
L 110.78742 85.621044 
L 122.84022 85.618575 
L 124.17942 83.044234 
L 136.23222 83.04976 
L 137.57142 93.412154 
L 142.92822 93.412154 
L 144.26742 108.152802 
L 149.62422 108.152802 
L 150.96342 130.118392 
L 156.32022 130.118392 
L 157.65942 123.942432 
L 163.01622 123.942432 
L 164.35542 114.652786 
L 169.71222 114.652786 
L 171.05142 102.508745 
L 176.40822 102.508745 
L 177.74742 88.084751 
L 203.19222 88.084751 
L 203.19222 88.084751 
" clip-path="url(#p5dc44cc547)" style="fill: none; stroke: #d9524f; stroke-width: 1.5; stroke-linecap: square"/>
   </g>
   <g id="line2d_41">
    <path d="M -1 66.234303 
L 22.40022 66.234303 
L 23.73942 66.009622 
L 29.09622 66.009622 
L 30.43542 65.414242 
L 35.79222 65.414242 
L 37.13142 64.881166 
L 42.48822 64.881166 
L 43.82742 64.396836 
L 49.18422 64.396836 
L 50.52342 65.240185 
L 55.88022 65.240185 
L 57.21942 66.644461 
L 62.57622 66.644461 
L 63.91542 70.73048 
L 69.27222 70.73048 
L 70.61142 75.71052 
L 75.96822 75.71052 
L 77.30742 81.819631 
L 82.66422 81.819631 
L 84.00342 87.350047 
L 89.36022 87.350047 
L 90.69942 88.677417 
L 96.05622 88.677417 
L 97.39542 87.104565 
L 102.75222 87.104565 
L 104.09142 88.504615 
L 109.44822 88.504615 
L 110.78742 88.948982 
L 116.14422 88.948982 
L 117.48342 86.587468 
L 122.84022 86.587468 
L 124.17942 83.214915 
L 129.53622 83.214915 
L 130.87542 83.350408 
L 136.23222 83.350408 
L 137.57142 83.023292 
L 142.92822 83.023292 
L 144.26742 80.894682 
L 149.62422 80.894682 
L 150.96342 78.729036 
L 156.32022 78.729036 
L 157.65942 74.667981 
L 163.01622 74.667981 
L 164.35542 70.656902 
L 169.71222 70.656902 
L 171.05142 68.29984 
L 176.40822 68.29984 
L 177.74742 66.234303 
L 203.19222 66.234303 
L 203.19222 66.234303 
" clip-path="url(#p5dc44cc547)" style="fill: none; stroke: #5cb85c; stroke-width: 1.5; stroke-linecap: square"/>
   </g>
   <g id="line2d_42">
    <path d="M -1 73.642627 
L 22.40022 73.642627 
L 23.73942 72.95714 
L 29.09622 72.95714 
L 30.43542 71.879799 
L 35.79222 71.879799 
L 37.13142 70.886735 
L 42.48822 70.886735 
L 43.82742 69.963873 
L 49.18422 69.963873 
L 50.52342 71.741857 
L 55.88022 71.741857 
L 57.21942 74.959908 
L 62.57622 74.959908 
L 63.91542 83.252098 
L 69.27222 83.252098 
L 70.61142 94.366729 
L 75.96822 94.366729 
L 77.30742 107.249824 
L 82.66422 107.249824 
L 84.00342 117.572853 
L 89.36022 117.572853 
L 90.69942 120.188533 
L 96.05622 120.188533 
L 97.39542 116.447303 
L 102.75222 116.447303 
L 104.09142 118.845027 
L 109.44822 118.845027 
L 110.78742 119.316681 
L 116.14422 119.316681 
L 117.48342 114.46528 
L 122.84022 114.46528 
L 124.17942 107.707695 
L 129.53622 107.707695 
L 130.87542 106.63034 
L 136.23222 106.63034 
L 137.57142 103.582628 
L 142.92822 103.582628 
L 144.26742 97.639877 
L 149.62422 97.639877 
L 150.96342 90.275093 
L 156.32022 90.275093 
L 157.65942 84.114188 
L 163.01622 84.114188 
L 164.35542 79.066691 
L 169.71222 79.066691 
L 171.05142 76.13695 
L 176.40822 76.13695 
L 177.74742 73.642627 
L 203.19222 73.642627 
L 203.19222 73.642627 
" clip-path="url(#p5dc44cc547)" style="fill: none; stroke: #5cb85c; stroke-width: 1.5; stroke-linecap: square"/>
   </g>
   <g id="line2d_43">
    <path d="M -1 62.4932 
L 22.40022 62.4932 
L 23.73942 62.247636 
L 29.09622 62.247636 
L 30.43542 61.973905 
L 35.79222 61.973905 
L 37.13142 62.245881 
L 42.48822 62.245881 
L 43.82742 62.491234 
L 49.18422 62.491234 
L 50.52342 62.957924 
L 55.88022 62.957924 
L 57.21942 63.48127 
L 62.57622 63.48127 
L 63.91542 66.276385 
L 69.27222 66.276385 
L 70.61142 70.507249 
L 75.96822 70.507249 
L 77.30742 75.091363 
L 82.66422 75.091363 
L 84.00342 84.4814 
L 89.36022 84.4814 
L 90.69942 86.111229 
L 96.05622 86.111229 
L 97.39542 87.943749 
L 102.75222 87.943749 
L 104.09142 88.824067 
L 116.14422 88.790296 
L 117.48342 87.007266 
L 122.84022 87.007266 
L 124.17942 86.246446 
L 129.53622 86.246446 
L 130.87542 95.314846 
L 136.23222 95.314846 
L 137.57142 98.957261 
L 142.92822 98.957261 
L 144.26742 91.557494 
L 149.62422 91.557494 
L 150.96342 88.066783 
L 156.32022 88.066783 
L 157.65942 78.149656 
L 163.01622 78.149656 
L 164.35542 64.77277 
L 169.71222 64.77277 
L 171.05142 62.063192 
L 176.40822 62.063192 
L 177.74742 62.4932 
L 203.19222 62.4932 
L 203.19222 62.4932 
" clip-path="url(#p5dc44cc547)" style="fill: none; stroke: #337ab7; stroke-width: 1.5; stroke-linecap: square"/>
   </g>
   <g id="line2d_44">
    <path d="M -1 64.516516 
L 22.40022 64.516516 
L 23.73942 64.200771 
L 29.09622 64.200771 
L 30.43542 63.849251 
L 35.79222 63.849251 
L 37.13142 64.19901 
L 42.48822 64.19901 
L 43.82742 64.514542 
L 49.18422 64.514542 
L 50.52342 65.114255 
L 55.88022 65.114255 
L 57.21942 65.786983 
L 62.57622 65.786983 
L 63.91542 69.381174 
L 69.27222 69.381174 
L 70.61142 74.828858 
L 75.96822 74.828858 
L 77.30742 80.739479 
L 82.66422 80.739479 
L 84.00342 92.877795 
L 89.36022 92.877795 
L 90.69942 94.98902 
L 96.05622 94.98902 
L 97.39542 97.364957 
L 102.75222 97.364957 
L 104.09142 98.50624 
L 116.14422 98.462004 
L 117.48342 96.15006 
L 122.84022 96.15006 
L 124.17942 95.164772 
L 129.53622 95.164772 
L 130.87542 106.939349 
L 136.23222 106.939349 
L 137.57142 111.680394 
L 142.92822 111.680394 
L 144.26742 102.052426 
L 149.62422 102.052426 
L 150.96342 97.519493 
L 156.32022 97.519493 
L 157.65942 84.684059 
L 163.01622 84.684059 
L 164.35542 67.443391 
L 169.71222 67.443391 
L 171.05142 63.961876 
L 176.40822 63.961876 
L 177.74742 64.516516 
L 203.19222 64.516516 
L 203.19222 64.516516 
" clip-path="url(#p5dc44cc547)" style="fill: none; stroke: #337ab7; stroke-width: 1.5; stroke-linecap: square"/>
   </g>
   <g id="line2d_45">
    <path d="M -1 66.539655 
L 22.40022 66.539655 
L 23.73942 66.153741 
L 29.09622 66.153741 
L 30.43542 65.724446 
L 35.79222 65.724446 
L 37.13142 66.151976 
L 42.48822 66.151976 
L 43.82742 66.537675 
L 49.18422 66.537675 
L 50.52342 67.270385 
L 55.88022 67.270385 
L 57.21942 68.092466 
L 62.57622 68.092466 
L 63.91542 72.485543 
L 69.27222 72.485543 
L 70.61142 79.14964 
L 75.96822 79.14964 
L 77.30742 86.386162 
L 82.66422 86.386162 
L 84.00342 101.270917 
L 89.36022 101.270917 
L 90.69942 103.863129 
L 96.05622 103.863129 
L 97.39542 106.781991 
L 102.75222 106.781991 
L 104.09142 108.18399 
L 116.14422 108.1293 
L 117.48342 105.288935 
L 122.84022 105.288935 
L 124.17942 104.07938 
L 129.53622 104.07938 
L 130.87542 118.557321 
L 136.23222 118.557321 
L 137.57142 124.395594 
L 142.92822 124.395594 
L 144.26742 112.542109 
L 149.62422 112.542109 
L 150.96342 106.967999 
L 156.32022 106.967999 
L 157.65942 91.216522 
L 163.01622 91.216522 
L 164.35542 70.113702 
L 169.71222 70.113702 
L 171.05142 65.860404 
L 176.40822 65.860404 
L 177.74742 66.539655 
L 203.19222 66.539655 
L 203.19222 66.539655 
" clip-path="url(#p5dc44cc547)" style="fill: none; stroke: #337ab7; stroke-width: 1.5; stroke-linecap: square"/>
   </g>
   <g id="line2d_46">
    <path d="M -1 67.484853 
L 22.40022 67.484853 
L 23.73942 67.066141 
L 29.09622 67.066141 
L 30.43542 66.600491 
L 35.79222 66.600491 
L 37.13142 67.064372 
L 42.48822 67.064372 
L 43.82742 67.482871 
L 49.18422 67.482871 
L 50.52342 68.277752 
L 55.88022 68.277752 
L 57.21942 69.169657 
L 62.57622 69.169657 
L 63.91542 73.936321 
L 69.27222 73.936321 
L 70.61142 81.169619 
L 75.96822 81.169619 
L 77.30742 89.027122 
L 82.66422 89.027122 
L 84.00342 105.200323 
L 89.36022 105.200323 
L 90.69942 108.01853 
L 96.05622 108.01853 
L 97.39542 111.192631 
L 102.75222 111.192631 
L 104.09142 112.717254 
L 116.14422 112.657645 
L 117.48342 109.568789 
L 122.84022 109.568789 
L 124.17942 108.253815 
L 129.53622 108.253815 
L 130.87542 124.004406 
L 136.23222 124.004406 
L 137.57142 130.36059 
L 142.92822 130.36059 
L 144.26742 117.4575 
L 149.62422 117.4575 
L 150.96342 111.39344 
L 156.32022 111.39344 
L 157.65942 94.272691 
L 163.01622 94.272691 
L 164.35542 71.361478 
L 169.71222 71.361478 
L 171.05142 66.747356 
L 176.40822 66.747356 
L 177.74742 67.484853 
L 203.19222 67.484853 
L 203.19222 67.484853 
" clip-path="url(#p5dc44cc547)" style="fill: none; stroke: #337ab7; stroke-width: 1.5; stroke-linecap: square"/>
   </g>
   <g id="line2d_47">
    <path d="M -1 68.430012 
L 22.40022 68.430012 
L 23.73942 67.978503 
L 29.09622 67.978503 
L 30.43542 67.476502 
L 35.79222 67.476502 
L 37.13142 67.976732 
L 42.48822 67.976732 
L 43.82742 68.428026 
L 49.18422 68.428026 
L 50.52342 69.285074 
L 55.88022 69.285074 
L 57.21942 70.246796 
L 62.57622 70.246796 
L 63.91542 75.387004 
L 69.27222 75.387004 
L 70.61142 83.189411 
L 75.96822 83.189411 
L 77.30742 91.667758 
L 82.66422 91.667758 
L 84.00342 109.128984 
L 89.36022 109.128984 
L 90.69942 112.173093 
L 96.05622 112.173093 
L 97.39542 115.60232 
L 102.75222 115.60232 
L 104.09142 117.249509 
L 116.14422 117.184985 
L 117.48342 113.84775 
L 122.84022 113.84775 
L 124.17942 112.427404 
L 129.53622 112.427404 
L 130.87542 129.449997 
L 136.23222 129.449997 
L 137.57142 136.323767 
L 142.92822 136.323767 
L 144.26742 122.371693 
L 149.62422 122.371693 
L 150.96342 115.817923 
L 156.32022 115.817923 
L 157.65942 97.32842 
L 163.01622 97.32842 
L 164.35542 72.609183 
L 169.71222 72.609183 
L 171.05142 67.634272 
L 176.40822 67.634272 
L 177.74742 68.430012 
L 203.19222 68.430012 
L 203.19222 68.430012 
" clip-path="url(#p5dc44cc547)" style="fill: none; stroke: #337ab7; stroke-width: 1.5; stroke-linecap: square"/>
   </g>
   <g id="line2d_48">
    <path d="M -1 68.826343 
L 22.40022 68.826343 
L 23.73942 68.361122 
L 29.09622 68.361122 
L 30.43542 67.843919 
L 35.79222 67.843919 
L 37.13142 68.35935 
L 42.48822 68.35935 
L 43.82742 68.824356 
L 49.18422 68.824356 
L 50.52342 69.707386 
L 55.88022 69.707386 
L 57.21942 70.698274 
L 62.57622 70.698274 
L 63.91542 75.99429 
L 69.27222 75.99429 
L 70.61142 84.033243 
L 75.96822 84.033243 
L 77.30742 92.768398 
L 82.66422 92.768398 
L 84.00342 110.757695 
L 89.36022 110.757695 
L 90.69942 113.893686 
L 96.05622 113.893686 
L 97.39542 117.426392 
L 102.75222 117.426392 
L 104.09142 119.12318 
L 116.14422 119.056668 
L 117.48342 115.618838 
L 122.84022 115.618838 
L 124.17942 114.155725 
L 129.53622 114.155725 
L 130.87542 131.690772 
L 136.23222 131.690772 
L 137.57142 138.770438 
L 142.92822 138.770438 
L 144.26742 124.399429 
L 149.62422 124.399429 
L 150.96342 117.647984 
L 156.32022 117.647984 
L 157.65942 98.599974 
L 163.01622 98.599974 
L 164.35542 73.131857 
L 169.71222 73.131857 
L 171.05142 68.006251 
L 176.40822 68.006251 
L 177.74742 68.826343 
L 203.19222 68.826343 
L 203.19222 68.826343 
" clip-path="url(#p5dc44cc547)" style="fill: none; stroke: #337ab7; stroke-width: 1.5; stroke-linecap: square"/>
   </g>
   <g id="line2d_49">
    <path d="M -1 69.222667 
L 22.40022 69.222667 
L 23.73942 68.743734 
L 29.09622 68.743734 
L 30.43542 68.211331 
L 35.79222 68.211331 
L 37.13142 68.741961 
L 42.48822 68.741961 
L 43.82742 69.220678 
L 49.18422 69.220678 
L 50.52342 70.129691 
L 55.88022 70.129691 
L 57.21942 71.149744 
L 62.57622 71.149744 
L 63.91542 76.60156 
L 69.27222 76.60156 
L 70.61142 84.877043 
L 75.96822 84.877043 
L 77.30742 93.868982 
L 82.66422 93.868982 
L 84.00342 112.386285 
L 89.36022 112.386285 
L 90.69942 115.614143 
L 96.05622 115.614143 
L 97.39542 119.25031 
L 102.75222 119.25031 
L 104.09142 120.996688 
L 116.14422 120.928189 
L 117.48342 117.389781 
L 122.84022 117.389781 
L 124.17942 115.883908 
L 129.53622 115.883908 
L 130.87542 133.931314 
L 136.23222 133.931314 
L 137.57142 141.216829 
L 142.92822 141.216829 
L 144.26742 126.426975 
L 149.62422 126.426975 
L 150.96342 119.477891 
L 156.32022 119.477891 
L 157.65942 99.871455 
L 163.01622 99.871455 
L 164.35542 73.65452 
L 169.71222 73.65452 
L 171.05142 68.378223 
L 176.40822 68.378223 
L 177.74742 69.222667 
L 203.19222 69.222667 
L 203.19222 69.222667 
" clip-path="url(#p5dc44cc547)" style="fill: none; stroke: #337ab7; stroke-width: 1.5; stroke-linecap: square"/>
   </g>
   <g id="line2d_50">
    <path d="M -1 69.619136 
L 22.40022 69.619136 
L 23.73942 69.126488 
L 29.09622 69.126488 
L 30.43542 68.578878 
L 35.79222 68.578878 
L 37.13142 69.124713 
L 42.48822 69.124713 
L 43.82742 69.617147 
L 49.18422 69.617147 
L 50.52342 70.55215 
L 55.88022 70.55215 
L 57.21942 71.601379 
L 62.57622 71.601379 
L 63.91542 77.209049 
L 69.27222 77.209049 
L 70.61142 85.72114 
L 75.96822 85.72114 
L 77.30742 94.969944 
L 82.66422 94.969944 
L 84.00342 114.015399 
L 89.36022 114.015399 
L 90.69942 117.335149 
L 96.05622 117.335149 
L 97.39542 121.074802 
L 102.75222 121.074802 
L 104.09142 122.870783 
L 116.14422 122.800296 
L 117.48342 119.161286 
L 122.84022 119.161286 
L 124.17942 117.612642 
L 129.53622 117.612642 
L 130.87542 136.172526 
L 136.23222 136.172526 
L 137.57142 143.663934 
L 142.92822 143.663934 
L 144.26742 128.455144 
L 149.62422 128.455144 
L 150.96342 121.308374 
L 156.32022 121.308374 
L 157.65942 101.143363 
L 163.01622 101.143363 
L 164.35542 74.177373 
L 169.71222 74.177373 
L 171.05142 68.750333 
L 176.40822 68.750333 
L 177.74742 69.619136 
L 203.19222 69.619136 
L 203.19222 69.619136 
" clip-path="url(#p5dc44cc547)" style="fill: none; stroke: #337ab7; stroke-width: 1.5; stroke-linecap: square"/>
   </g>
   <g id="line2d_51">
    <path d="M -1 69.751053 
L 22.40022 69.751053 
L 23.73942 69.253844 
L 29.09622 69.253844 
L 30.43542 68.701177 
L 35.79222 68.701177 
L 37.13142 69.252069 
L 42.48822 69.252069 
L 43.82742 69.749063 
L 49.18422 69.749063 
L 50.52342 70.692708 
L 55.88022 70.692708 
L 57.21942 71.751637 
L 62.57622 71.751637 
L 63.91542 77.411106 
L 69.27222 77.411106 
L 70.61142 86.001778 
L 75.96822 86.001778 
L 77.30742 95.335809 
L 82.66422 95.335809 
L 84.00342 114.556214 
L 89.36022 114.556214 
L 90.69942 117.906359 
L 96.05622 117.906359 
L 97.39542 121.680227 
L 102.75222 121.680227 
L 104.09142 123.492602 
L 116.14422 123.421457 
L 117.48342 119.749194 
L 122.84022 119.749194 
L 124.17942 118.186409 
L 129.53622 118.186409 
L 130.87542 136.915541 
L 136.23222 136.915541 
L 137.57142 144.474809 
L 142.92822 144.474809 
L 144.26742 129.127856 
L 149.62422 129.127856 
L 150.96342 121.915779 
L 156.32022 121.915779 
L 157.65942 101.565898 
L 163.01622 101.565898 
L 164.35542 74.351303 
L 169.71222 74.351303 
L 171.05142 68.874149 
L 176.40822 68.874149 
L 177.74742 69.751053 
L 203.19222 69.751053 
L 203.19222 69.751053 
" clip-path="url(#p5dc44cc547)" style="fill: none; stroke: #337ab7; stroke-width: 1.5; stroke-linecap: square"/>
   </g>
   <g id="line2d_52">
    <path d="M -1 69.007425 
L 22.40022 69.007425 
L 23.73942 68.535912 
L 29.09622 68.535912 
L 30.43542 68.011737 
L 35.79222 68.011737 
L 37.13142 68.53414 
L 42.48822 68.53414 
L 43.82742 69.005437 
L 49.18422 69.005437 
L 50.52342 69.900395 
L 55.88022 69.900395 
L 57.21942 70.90468 
L 62.57622 70.90468 
L 63.91542 76.2724 
L 69.27222 76.2724 
L 70.61142 84.420632 
L 75.96822 84.420632 
L 77.30742 93.274932 
L 82.66422 93.274932 
L 84.00342 111.510354 
L 89.36022 111.510354 
L 90.69942 114.689235 
L 96.05622 114.689235 
L 97.39542 118.270229 
L 102.75222 118.270229 
L 104.09142 119.990153 
L 116.14422 119.922714 
L 117.48342 116.437953 
L 122.84022 116.437953 
L 124.17942 114.95488 
L 129.53622 114.95488 
L 130.87542 132.728462 
L 136.23222 132.728462 
L 137.57142 139.90312 
L 142.92822 139.90312 
L 144.26742 125.338188 
L 149.62422 125.338188 
L 150.96342 118.494617 
L 156.32022 118.494617 
L 157.65942 99.186044 
L 163.01622 99.186044 
L 164.35542 73.370999 
L 169.71222 73.370999 
L 171.05142 68.17616 
L 176.40822 68.17616 
L 177.74742 69.007425 
L 203.19222 69.007425 
L 203.19222 69.007425 
" clip-path="url(#p5dc44cc547)" style="fill: none; stroke: #337ab7; stroke-width: 1.5; stroke-linecap: square"/>
   </g>
   <g id="line2d_53">
    <path d="M -1 70.528493 
L 22.40022 70.528493 
L 23.73942 70.004142 
L 29.09622 70.004142 
L 30.43542 69.421407 
L 35.79222 69.421407 
L 37.13142 70.002365 
L 42.48822 70.002365 
L 43.82742 70.526501 
L 49.18422 70.526501 
L 50.52342 71.521626 
L 55.88022 71.521626 
L 57.21942 72.638423 
L 62.57622 72.638423 
L 63.91542 78.60845 
L 69.27222 78.60845 
L 70.61142 87.675389 
L 75.96822 87.675389 
L 77.30742 97.533395 
L 82.66422 97.533395 
L 84.00342 117.85605 
L 89.36022 117.85605 
L 90.69942 121.401667 
L 96.05622 121.401667 
L 97.39542 125.397069 
L 102.75222 125.397069 
L 104.09142 127.316164 
L 116.14422 127.240736 
L 117.48342 123.352418 
L 122.84022 123.352418 
L 124.17942 121.698208 
L 129.53622 121.698208 
L 130.87542 141.540238 
L 136.23222 141.540238 
L 137.57142 149.557965 
L 142.92822 149.557965 
L 144.26742 133.285185 
L 149.62422 133.285185 
L 150.96342 125.645495 
L 156.32022 125.645495 
L 157.65942 104.116445 
L 163.01622 104.116445 
L 164.35542 75.379697 
L 169.71222 75.379697 
L 171.05142 69.603398 
L 176.40822 69.603398 
L 177.74742 70.528493 
L 203.19222 70.528493 
L 203.19222 70.528493 
" clip-path="url(#p5dc44cc547)" style="fill: none; stroke: #337ab7; stroke-width: 1.5; stroke-linecap: square"/>
   </g>
   <g id="line2d_54">
    <path d="M -1 71.644283 
L 22.40022 71.644283 
L 23.73942 71.081171 
L 29.09622 71.081171 
L 30.43542 70.455476 
L 35.79222 70.455476 
L 37.13142 71.079391 
L 42.48822 71.079391 
L 43.82742 71.642287 
L 49.18422 71.642287 
L 50.52342 72.710894 
L 55.88022 72.710894 
L 57.21942 73.910228 
L 62.57622 73.910228 
L 63.91542 80.32211 
L 69.27222 80.32211 
L 70.61142 90.063041 
L 75.96822 90.063041 
L 77.30742 100.657443 
L 82.66422 100.657443 
L 84.00342 122.511614 
L 89.36022 122.511614 
L 90.69942 126.32635 
L 96.05622 126.32635 
L 97.39542 130.625865 
L 102.75222 130.625865 
L 104.09142 132.691126 
L 116.14422 132.609835 
L 117.48342 128.425363 
L 122.84022 128.425363 
L 124.17942 126.645564 
L 129.53622 126.645564 
L 130.87542 148.005645 
L 136.23222 148.005645 
L 137.57142 156.642198 
L 142.92822 156.642198 
L 144.26742 139.115887 
L 149.62422 139.115887 
L 150.96342 130.891932 
L 156.32022 130.891932 
L 157.65942 107.733504 
L 163.01622 107.733504 
L 164.35542 76.853209 
L 169.71222 76.853209 
L 171.05142 70.650355 
L 176.40822 70.650355 
L 177.74742 71.644283 
L 203.19222 71.644283 
L 203.19222 71.644283 
" clip-path="url(#p5dc44cc547)" style="fill: none; stroke: #337ab7; stroke-width: 1.5; stroke-linecap: square"/>
   </g>
   <g id="line2d_55">
    <path d="M -1 71.644283 
L 22.40022 71.644283 
L 23.73942 71.081171 
L 29.09622 71.081171 
L 30.43542 70.455476 
L 35.79222 70.455476 
L 37.13142 71.079391 
L 42.48822 71.079391 
L 43.82742 71.642287 
L 49.18422 71.642287 
L 50.52342 72.710894 
L 55.88022 72.710894 
L 57.21942 73.910228 
L 62.57622 73.910228 
L 63.91542 80.32211 
L 69.27222 80.32211 
L 70.61142 90.063041 
L 75.96822 90.063041 
L 77.30742 100.657443 
L 82.66422 100.657443 
L 84.00342 122.511614 
L 89.36022 122.511614 
L 90.69942 126.32635 
L 96.05622 126.32635 
L 97.39542 130.625865 
L 102.75222 130.625865 
L 104.09142 132.691126 
L 116.14422 132.609835 
L 117.48342 128.425363 
L 122.84022 128.425363 
L 124.17942 126.645564 
L 129.53622 126.645564 
L 130.87542 148.005645 
L 136.23222 148.005645 
L 137.57142 156.642198 
L 142.92822 156.642198 
L 144.26742 139.115887 
L 149.62422 139.115887 
L 150.96342 130.891932 
L 156.32022 130.891932 
L 157.65942 107.733504 
L 163.01622 107.733504 
L 164.35542 76.853209 
L 169.71222 76.853209 
L 171.05142 70.650355 
L 176.40822 70.650355 
L 177.74742 71.644283 
L 203.19222 71.644283 
L 203.19222 71.644283 
" clip-path="url(#p5dc44cc547)" style="fill: none; stroke: #337ab7; stroke-width: 1.5; stroke-linecap: square"/>
   </g>
   <g id="line2d_56">
    <path d="M -1 70.396383 
L 22.40022 70.396383 
L 23.73942 69.876813 
L 29.09622 69.876813 
L 30.43542 69.299359 
L 35.79222 69.299359 
L 37.13142 69.875036 
L 42.48822 69.875036 
L 43.82742 70.394391 
L 49.18422 70.394391 
L 50.52342 71.380415 
L 55.88022 71.380415 
L 57.21942 72.486926 
L 62.57622 72.486926 
L 63.91542 78.400764 
L 69.27222 78.400764 
L 70.61142 87.37819 
L 75.96822 87.37819 
L 77.30742 97.13283 
L 82.66422 97.13283 
L 84.00342 117.220049 
L 89.36022 117.220049 
L 90.69942 120.721196 
L 96.05622 120.721196 
L 97.39542 124.665153 
L 102.75222 124.665153 
L 104.09142 126.55906 
L 116.14422 126.484648 
L 117.48342 122.647027 
L 122.84022 122.647027 
L 124.17942 121.013947 
L 129.53622 121.013947 
L 130.87542 140.585267 
L 136.23222 140.585267 
L 137.57142 148.482381 
L 142.92822 148.482381 
L 144.26742 132.447562 
L 149.62422 132.447562 
L 150.96342 124.910551 
L 156.32022 124.910551 
L 157.65942 103.643225 
L 163.01622 103.643225 
L 164.35542 75.202788 
L 169.71222 75.202788 
L 171.05142 69.479768 
L 176.40822 69.479768 
L 177.74742 70.396383 
L 203.19222 70.396383 
L 203.19222 70.396383 
" clip-path="url(#p5dc44cc547)" style="fill: none; stroke: #337ab7; stroke-width: 1.5; stroke-linecap: square"/>
   </g>
   <g id="line2d_57">
    <path d="M -1 70.274006 
L 22.40022 70.274006 
L 23.73942 69.758333 
L 29.09622 69.758333 
L 30.43542 69.185231 
L 35.79222 69.185231 
L 37.13142 69.756557 
L 42.48822 69.756557 
L 43.82742 70.272014 
L 49.18422 70.272014 
L 50.52342 71.25072 
L 55.88022 71.25072 
L 57.21942 72.349128 
L 62.57622 72.349128 
L 63.91542 78.221719 
L 69.27222 78.221719 
L 70.61142 87.143529 
L 75.96822 87.143529 
L 77.30742 96.848372 
L 82.66422 96.848372 
L 84.00342 116.874199 
L 89.36022 116.874199 
L 90.69942 120.371214 
L 96.05622 120.371214 
L 97.39542 124.31316 
L 102.75222 124.31316 
L 104.09142 126.207144 
L 116.14422 126.132717 
L 117.48342 122.295706 
L 122.84022 122.295706 
L 124.17942 120.663715 
L 129.53622 120.663715 
L 130.87542 140.257133 
L 136.23222 140.257133 
L 137.57142 148.187946 
L 142.92822 148.187946 
L 144.26742 132.100448 
L 149.62422 132.100448 
L 150.96342 124.55854 
L 156.32022 124.55854 
L 157.65942 103.33242 
L 163.01622 103.33242 
L 164.35542 75.04571 
L 169.71222 75.04571 
L 171.05142 69.364331 
L 176.40822 69.364331 
L 177.74742 70.274006 
L 203.19222 70.274006 
L 203.19222 70.274006 
" clip-path="url(#p5dc44cc547)" style="fill: none; stroke: #337ab7; stroke-width: 1.5; stroke-linecap: square"/>
   </g>
   <g id="line2d_58">
    <path d="M -1 71.227459 
L 22.40022 71.227459 
L 23.73942 70.678564 
L 29.09622 70.678564 
L 30.43542 70.06865 
L 35.79222 70.06865 
L 37.13142 70.676785 
L 42.48822 70.676785 
L 43.82742 71.225464 
L 49.18422 71.225464 
L 50.52342 72.267173 
L 55.88022 72.267173 
L 57.21942 73.436383 
L 62.57622 73.436383 
L 63.91542 79.688611 
L 69.27222 79.688611 
L 70.61142 89.19162 
L 75.96822 89.19162 
L 77.30742 99.534658 
L 82.66422 99.534658 
L 84.00342 120.90015 
L 89.36022 120.90015 
L 90.69942 124.634544 
L 96.05622 124.634544 
L 97.39542 128.84553 
L 102.75222 128.84553 
L 104.09142 130.869135 
L 116.14422 130.789504 
L 117.48342 126.69009 
L 122.84022 126.69009 
L 124.17942 124.947074 
L 129.53622 124.947074 
L 130.87542 145.893141 
L 136.23222 145.893141 
L 137.57142 154.382857 
L 142.92822 154.382857 
L 144.26742 137.167964 
L 149.62422 137.167964 
L 150.96342 129.106545 
L 156.32022 129.106545 
L 157.65942 106.448018 
L 163.01622 106.448018 
L 164.35542 76.306138 
L 169.71222 76.306138 
L 171.05142 70.258792 
L 176.40822 70.258792 
L 177.74742 71.227459 
L 203.19222 71.227459 
L 203.19222 71.227459 
" clip-path="url(#p5dc44cc547)" style="fill: none; stroke: #337ab7; stroke-width: 1.5; stroke-linecap: square"/>
   </g>
   <g id="line2d_59">
    <path d="M -1 72.626283 
L 22.40022 72.626283 
L 23.73942 72.028646 
L 29.09622 72.028646 
L 30.43542 71.364725 
L 35.79222 71.364725 
L 37.13142 72.026863 
L 42.48822 72.026863 
L 43.82742 72.624284 
L 49.18422 72.624284 
L 50.52342 73.758427 
L 55.88022 73.758427 
L 57.21942 75.031511 
L 62.57622 75.031511 
L 63.91542 81.840723 
L 69.27222 81.840723 
L 70.61142 92.196449 
L 75.96822 92.196449 
L 77.30742 103.475852 
L 82.66422 103.475852 
L 84.00342 126.807022 
L 89.36022 126.807022 
L 90.69942 130.889741 
L 96.05622 130.889741 
L 97.39542 135.495517 
L 102.75222 135.495517 
L 104.09142 137.709333 
L 116.14422 137.622067 
L 117.48342 133.137596 
L 122.84022 133.137596 
L 124.17942 131.231659 
L 129.53622 131.231659 
L 130.87542 154.162731 
L 136.23222 154.162731 
L 137.57142 163.472727 
L 142.92822 163.472727 
L 144.26742 144.603262 
L 149.62422 144.603262 
L 150.96342 135.779477 
L 156.32022 135.779477 
L 157.65942 111.019119 
L 163.01622 111.019119 
L 164.35542 78.155338 
L 169.71222 78.155338 
L 171.05142 71.571068 
L 176.40822 71.571068 
L 177.74742 72.626283 
L 203.19222 72.626283 
L 203.19222 72.626283 
" clip-path="url(#p5dc44cc547)" style="fill: none; stroke: #337ab7; stroke-width: 1.5; stroke-linecap: square"/>
   </g>
   <g id="line2d_60">
    <path d="M -1 70.577005 
L 22.40022 70.577005 
L 23.73942 70.050846 
L 29.09622 70.050846 
L 30.43542 69.466118 
L 35.79222 69.466118 
L 37.13142 70.049069 
L 42.48822 70.049069 
L 43.82742 70.575012 
L 49.18422 70.575012 
L 50.52342 71.573591 
L 55.88022 71.573591 
L 57.21942 72.694308 
L 62.57622 72.694308 
L 63.91542 78.686102 
L 69.27222 78.686102 
L 70.61142 87.788987 
L 75.96822 87.788987 
L 77.30742 97.69058 
L 82.66422 97.69058 
L 84.00342 118.121706 
L 89.36022 118.121706 
L 90.69942 121.689367 
L 96.05622 121.689367 
L 97.39542 125.710929 
L 102.75222 125.710929 
L 104.09142 127.643095 
L 116.14422 127.567137 
L 117.48342 123.652701 
L 122.84022 123.652701 
L 124.17942 121.987811 
L 129.53622 121.987811 
L 130.87542 141.976195 
L 136.23222 141.976195 
L 137.57142 150.066253 
L 142.92822 150.066253 
L 144.26742 133.6551 
L 149.62422 133.6551 
L 150.96342 125.960918 
L 156.32022 125.960918 
L 157.65942 104.305687 
L 163.01622 104.305687 
L 164.35542 75.445354 
L 169.71222 75.445354 
L 171.05142 69.648706 
L 176.40822 69.648706 
L 177.74742 70.577005 
L 203.19222 70.577005 
L 203.19222 70.577005 
" clip-path="url(#p5dc44cc547)" style="fill: none; stroke: #337ab7; stroke-width: 1.5; stroke-linecap: square"/>
   </g>
   <g id="line2d_61">
    <path d="M -1 70.507754 
L 22.40022 70.507754 
L 23.73942 69.984363 
L 29.09622 69.984363 
L 30.43542 69.40267 
L 35.79222 69.40267 
L 37.13142 69.982586 
L 42.48822 69.982586 
L 43.82742 70.505762 
L 49.18422 70.505762 
L 50.52342 71.499019 
L 55.88022 71.499019 
L 57.21942 72.613641 
L 62.57622 72.613641 
L 63.91542 78.570635 
L 69.27222 78.570635 
L 70.61142 87.613053 
L 75.96822 87.613053 
L 77.30742 97.437588 
L 82.66422 97.437588 
L 84.00342 117.666837 
L 89.36022 117.666837 
L 90.69942 121.192549 
L 96.05622 121.192549 
L 97.39542 125.164153 
L 102.75222 125.164153 
L 104.09142 127.071311 
L 116.14422 126.996368 
L 117.48342 123.131872 
L 122.84022 123.131872 
L 124.17942 121.487365 
L 129.53622 121.487365 
L 130.87542 141.19588 
L 136.23222 141.19588 
L 137.57142 149.148742 
L 142.92822 149.148742 
L 144.26742 133.001004 
L 149.62422 133.001004 
L 150.96342 125.411151 
L 156.32022 125.411151 
L 157.65942 103.994163 
L 163.01622 103.994163 
L 164.35542 75.349258 
L 169.71222 75.349258 
L 171.05142 69.584351 
L 176.40822 69.584351 
L 177.74742 70.507754 
L 203.19222 70.507754 
L 203.19222 70.507754 
" clip-path="url(#p5dc44cc547)" style="fill: none; stroke: #337ab7; stroke-width: 1.5; stroke-linecap: square"/>
   </g>
   <g id="line2d_62">
    <path d="M -1 70.194806 
L 22.40022 70.194806 
L 23.73942 69.68226 
L 29.09622 69.68226 
L 30.43542 69.112591 
L 35.79222 69.112591 
L 37.13142 69.680485 
L 42.48822 69.680485 
L 43.82742 70.192814 
L 49.18422 70.192814 
L 50.52342 71.165515 
L 55.88022 71.165515 
L 57.21942 72.257055 
L 62.57622 72.257055 
L 63.91542 78.090636 
L 69.27222 78.090636 
L 70.61142 86.945318 
L 75.96822 86.945318 
L 77.30742 96.565501 
L 82.66422 96.565501 
L 84.00342 116.372636 
L 89.36022 116.372636 
L 90.69942 119.824618 
L 96.05622 119.824618 
L 97.39542 123.713082 
L 102.75222 123.713082 
L 104.09142 125.580348 
L 116.14422 125.507004 
L 117.48342 121.723386 
L 122.84022 121.723386 
L 124.17942 120.113229 
L 129.53622 120.113229 
L 130.87542 139.40879 
L 136.23222 139.40879 
L 137.57142 147.194855 
L 142.92822 147.194855 
L 144.26742 131.385952 
L 149.62422 131.385952 
L 150.96342 123.955263 
L 156.32022 123.955263 
L 157.65942 102.985747 
L 163.01622 102.985747 
L 164.35542 74.936303 
L 169.71222 74.936303 
L 171.05142 69.290665 
L 176.40822 69.290665 
L 177.74742 70.194806 
L 203.19222 70.194806 
L 203.19222 70.194806 
" clip-path="url(#p5dc44cc547)" style="fill: none; stroke: #337ab7; stroke-width: 1.5; stroke-linecap: square"/>
   </g>
   <g id="line2d_63">
    <path d="M -1 48.927273 
L 203.19222 48.927273 
" clip-path="url(#p5dc44cc547)" style="fill: none; stroke-dasharray: 1.5,2.475; stroke-dashoffset: 0; stroke: #d9524f; stroke-width: 1.5"/>
   </g>
   <g id="line2d_64">
    <path d="M -1 111.421701 
L 203.19222 111.421701 
" clip-path="url(#p5dc44cc547)" style="fill: none; stroke-dasharray: 1.5,2.475; stroke-dashoffset: 0; stroke: #5cb85c; stroke-width: 1.5"/>
   </g>
   <g id="patch_3">
    <path d="M 27 169.2 
L 27 43.2 
" style="fill: none; stroke: #000000; stroke-width: 0.8; stroke-linejoin: miter; stroke-linecap: square"/>
   </g>
   <g id="patch_4">
    <path d="M 194.4 169.2 
L 194.4 43.2 
" style="fill: none; stroke: #000000; stroke-width: 0.8; stroke-linejoin: miter; stroke-linecap: square"/>
   </g>
   <g id="patch_5">
    <path d="M 27 169.2 
L 194.4 169.2 
" style="fill: none; stroke: #000000; stroke-width: 0.8; stroke-linejoin: miter; stroke-linecap: square"/>
   </g>
   <g id="patch_6">
    <path d="M 27 43.2 
L 194.4 43.2 
" style="fill: none; stroke: #000000; stroke-width: 0.8; stroke-linejoin: miter; stroke-linecap: square"/>
   </g>
  </g>
  <g id="axes_2">
   <g id="patch_7">
    <path d="M 27 320.4 
L 194.4 320.4 
L 194.4 194.4 
L 27 194.4 
z
" style="fill: #ffffff"/>
   </g>
   <g id="matplotlib.axis_3">
    <g id="xtick_8">
     <g id="line2d_65">
      <path d="M 27 320.4 
L 27 194.4 
" clip-path="url(#p0ee68d94e3)" style="fill: none; stroke: #b0b0b0; stroke-width: 0.8; stroke-linecap: square"/>
     </g>
     <g id="line2d_66">
      <g>
       <use xlink:href="#m8285dd53e4" x="27" y="320.4" style="stroke: #000000; stroke-width: 0.8"/>
      </g>
     </g>
     <g id="text_13">
      <!-- 0 -->
      <g transform="translate(24.5 334.34375) scale(0.1 -0.1)">
       <use xlink:href="#TimesNewRomanPSMT-30"/>
      </g>
     </g>
    </g>
    <g id="xtick_9">
     <g id="line2d_67">
      <path d="M 54.9 320.4 
L 54.9 194.4 
" clip-path="url(#p0ee68d94e3)" style="fill: none; stroke: #b0b0b0; stroke-width: 0.8; stroke-linecap: square"/>
     </g>
     <g id="line2d_68">
      <g>
       <use xlink:href="#m8285dd53e4" x="54.9" y="320.4" style="stroke: #000000; stroke-width: 0.8"/>
      </g>
     </g>
     <g id="text_14">
      <!-- 4 -->
      <g transform="translate(52.4 334.34375) scale(0.1 -0.1)">
       <use xlink:href="#TimesNewRomanPSMT-34"/>
      </g>
     </g>
    </g>
    <g id="xtick_10">
     <g id="line2d_69">
      <path d="M 82.8 320.4 
L 82.8 194.4 
" clip-path="url(#p0ee68d94e3)" style="fill: none; stroke: #b0b0b0; stroke-width: 0.8; stroke-linecap: square"/>
     </g>
     <g id="line2d_70">
      <g>
       <use xlink:href="#m8285dd53e4" x="82.8" y="320.4" style="stroke: #000000; stroke-width: 0.8"/>
      </g>
     </g>
     <g id="text_15">
      <!-- 8 -->
      <g transform="translate(80.3 334.34375) scale(0.1 -0.1)">
       <use xlink:href="#TimesNewRomanPSMT-38"/>
      </g>
     </g>
    </g>
    <g id="xtick_11">
     <g id="line2d_71">
      <path d="M 110.7 320.4 
L 110.7 194.4 
" clip-path="url(#p0ee68d94e3)" style="fill: none; stroke: #b0b0b0; stroke-width: 0.8; stroke-linecap: square"/>
     </g>
     <g id="line2d_72">
      <g>
       <use xlink:href="#m8285dd53e4" x="110.7" y="320.4" style="stroke: #000000; stroke-width: 0.8"/>
      </g>
     </g>
     <g id="text_16">
      <!-- 12 -->
      <g transform="translate(105.7 334.34375) scale(0.1 -0.1)">
       <use xlink:href="#TimesNewRomanPSMT-31"/>
       <use xlink:href="#TimesNewRomanPSMT-32" x="50"/>
      </g>
     </g>
    </g>
    <g id="xtick_12">
     <g id="line2d_73">
      <path d="M 138.6 320.4 
L 138.6 194.4 
" clip-path="url(#p0ee68d94e3)" style="fill: none; stroke: #b0b0b0; stroke-width: 0.8; stroke-linecap: square"/>
     </g>
     <g id="line2d_74">
      <g>
       <use xlink:href="#m8285dd53e4" x="138.6" y="320.4" style="stroke: #000000; stroke-width: 0.8"/>
      </g>
     </g>
     <g id="text_17">
      <!-- 16 -->
      <g transform="translate(133.6 334.34375) scale(0.1 -0.1)">
       <use xlink:href="#TimesNewRomanPSMT-31"/>
       <use xlink:href="#TimesNewRomanPSMT-36" x="50"/>
      </g>
     </g>
    </g>
    <g id="xtick_13">
     <g id="line2d_75">
      <path d="M 166.5 320.4 
L 166.5 194.4 
" clip-path="url(#p0ee68d94e3)" style="fill: none; stroke: #b0b0b0; stroke-width: 0.8; stroke-linecap: square"/>
     </g>
     <g id="line2d_76">
      <g>
       <use xlink:href="#m8285dd53e4" x="166.5" y="320.4" style="stroke: #000000; stroke-width: 0.8"/>
      </g>
     </g>
     <g id="text_18">
      <!-- 20 -->
      <g transform="translate(161.5 334.34375) scale(0.1 -0.1)">
       <use xlink:href="#TimesNewRomanPSMT-32"/>
       <use xlink:href="#TimesNewRomanPSMT-30" x="50"/>
      </g>
     </g>
    </g>
    <g id="xtick_14">
     <g id="line2d_77">
      <path d="M 194.4 320.4 
L 194.4 194.4 
" clip-path="url(#p0ee68d94e3)" style="fill: none; stroke: #b0b0b0; stroke-width: 0.8; stroke-linecap: square"/>
     </g>
     <g id="line2d_78">
      <g>
       <use xlink:href="#m8285dd53e4" x="194.4" y="320.4" style="stroke: #000000; stroke-width: 0.8"/>
      </g>
     </g>
     <g id="text_19">
      <!-- 24 -->
      <g transform="translate(189.4 334.34375) scale(0.1 -0.1)">
       <use xlink:href="#TimesNewRomanPSMT-32"/>
       <use xlink:href="#TimesNewRomanPSMT-34" x="50"/>
      </g>
     </g>
    </g>
    <g id="text_20">
     <!-- Time (s) -->
     <g transform="translate(93.797656 347.426562) scale(0.1 -0.1)">
      <defs>
       <path id="TimesNewRomanPSMT-54" d="M 3703 4238 
L 3750 3244 
L 3631 3244 
Q 3597 3506 3538 3619 
Q 3441 3800 3280 3886 
Q 3119 3972 2856 3972 
L 2259 3972 
L 2259 734 
Q 2259 344 2344 247 
Q 2463 116 2709 116 
L 2856 116 
L 2856 0 
L 1059 0 
L 1059 116 
L 1209 116 
Q 1478 116 1591 278 
Q 1659 378 1659 734 
L 1659 3972 
L 1150 3972 
Q 853 3972 728 3928 
Q 566 3869 450 3700 
Q 334 3531 313 3244 
L 194 3244 
L 244 4238 
L 3703 4238 
z
" transform="scale(0.015625)"/>
       <path id="TimesNewRomanPSMT-69" d="M 928 4444 
Q 1059 4444 1151 4351 
Q 1244 4259 1244 4128 
Q 1244 3997 1151 3903 
Q 1059 3809 928 3809 
Q 797 3809 703 3903 
Q 609 3997 609 4128 
Q 609 4259 701 4351 
Q 794 4444 928 4444 
z
M 1188 2947 
L 1188 647 
Q 1188 378 1227 289 
Q 1266 200 1342 156 
Q 1419 113 1622 113 
L 1622 0 
L 231 0 
L 231 113 
Q 441 113 512 153 
Q 584 194 626 287 
Q 669 381 669 647 
L 669 1750 
Q 669 2216 641 2353 
Q 619 2453 572 2492 
Q 525 2531 444 2531 
Q 356 2531 231 2484 
L 188 2597 
L 1050 2947 
L 1188 2947 
z
" transform="scale(0.015625)"/>
       <path id="TimesNewRomanPSMT-6d" d="M 1050 2338 
Q 1363 2650 1419 2697 
Q 1559 2816 1721 2881 
Q 1884 2947 2044 2947 
Q 2313 2947 2506 2790 
Q 2700 2634 2766 2338 
Q 3088 2713 3309 2830 
Q 3531 2947 3766 2947 
Q 3994 2947 4170 2830 
Q 4347 2713 4450 2447 
Q 4519 2266 4519 1878 
L 4519 647 
Q 4519 378 4559 278 
Q 4591 209 4675 161 
Q 4759 113 4950 113 
L 4950 0 
L 3538 0 
L 3538 113 
L 3597 113 
Q 3781 113 3884 184 
Q 3956 234 3988 344 
Q 4000 397 4000 647 
L 4000 1878 
Q 4000 2228 3916 2372 
Q 3794 2572 3525 2572 
Q 3359 2572 3192 2489 
Q 3025 2406 2788 2181 
L 2781 2147 
L 2788 2013 
L 2788 647 
Q 2788 353 2820 281 
Q 2853 209 2943 161 
Q 3034 113 3253 113 
L 3253 0 
L 1806 0 
L 1806 113 
Q 2044 113 2133 169 
Q 2222 225 2256 338 
Q 2272 391 2272 647 
L 2272 1878 
Q 2272 2228 2169 2381 
Q 2031 2581 1784 2581 
Q 1616 2581 1450 2491 
Q 1191 2353 1050 2181 
L 1050 647 
Q 1050 366 1089 281 
Q 1128 197 1204 155 
Q 1281 113 1516 113 
L 1516 0 
L 100 0 
L 100 113 
Q 297 113 375 155 
Q 453 197 493 289 
Q 534 381 534 647 
L 534 1741 
Q 534 2213 506 2350 
Q 484 2453 437 2492 
Q 391 2531 309 2531 
Q 222 2531 100 2484 
L 53 2597 
L 916 2947 
L 1050 2947 
L 1050 2338 
z
" transform="scale(0.015625)"/>
      </defs>
      <use xlink:href="#TimesNewRomanPSMT-54"/>
      <use xlink:href="#TimesNewRomanPSMT-69" x="57.583984"/>
      <use xlink:href="#TimesNewRomanPSMT-6d" x="85.367188"/>
      <use xlink:href="#TimesNewRomanPSMT-65" x="163.150391"/>
      <use xlink:href="#TimesNewRomanPSMT-20" x="207.535156"/>
      <use xlink:href="#TimesNewRomanPSMT-28" x="232.535156"/>
      <use xlink:href="#TimesNewRomanPSMT-73" x="265.835938"/>
      <use xlink:href="#TimesNewRomanPSMT-29" x="304.751953"/>
     </g>
    </g>
   </g>
   <g id="matplotlib.axis_4">
    <g id="ytick_5">
     <g id="line2d_79">
      <path d="M 27 290.267077 
L 194.4 290.267077 
" clip-path="url(#p0ee68d94e3)" style="fill: none; stroke: #b0b0b0; stroke-width: 0.8; stroke-linecap: square"/>
     </g>
     <g id="line2d_80">
      <g>
       <use xlink:href="#m3934cee8c1" x="27" y="290.267077" style="stroke: #000000; stroke-width: 0.8"/>
      </g>
     </g>
     <g id="text_21">
      <!-- 200 -->
      <g transform="translate(5 293.738952) scale(0.1 -0.1)">
       <use xlink:href="#TimesNewRomanPSMT-32"/>
       <use xlink:href="#TimesNewRomanPSMT-30" x="50"/>
       <use xlink:href="#TimesNewRomanPSMT-30" x="100"/>
      </g>
     </g>
    </g>
    <g id="ytick_6">
     <g id="line2d_81">
      <path d="M 27 259.457412 
L 194.4 259.457412 
" clip-path="url(#p0ee68d94e3)" style="fill: none; stroke: #b0b0b0; stroke-width: 0.8; stroke-linecap: square"/>
     </g>
     <g id="line2d_82">
      <g>
       <use xlink:href="#m3934cee8c1" x="27" y="259.457412" style="stroke: #000000; stroke-width: 0.8"/>
      </g>
     </g>
     <g id="text_22">
      <!-- 400 -->
      <g transform="translate(5 262.929287) scale(0.1 -0.1)">
       <use xlink:href="#TimesNewRomanPSMT-34"/>
       <use xlink:href="#TimesNewRomanPSMT-30" x="50"/>
       <use xlink:href="#TimesNewRomanPSMT-30" x="100"/>
      </g>
     </g>
    </g>
    <g id="ytick_7">
     <g id="line2d_83">
      <path d="M 27 228.647748 
L 194.4 228.647748 
" clip-path="url(#p0ee68d94e3)" style="fill: none; stroke: #b0b0b0; stroke-width: 0.8; stroke-linecap: square"/>
     </g>
     <g id="line2d_84">
      <g>
       <use xlink:href="#m3934cee8c1" x="27" y="228.647748" style="stroke: #000000; stroke-width: 0.8"/>
      </g>
     </g>
     <g id="text_23">
      <!-- 600 -->
      <g transform="translate(5 232.119623) scale(0.1 -0.1)">
       <use xlink:href="#TimesNewRomanPSMT-36"/>
       <use xlink:href="#TimesNewRomanPSMT-30" x="50"/>
       <use xlink:href="#TimesNewRomanPSMT-30" x="100"/>
      </g>
     </g>
    </g>
    <g id="ytick_8">
     <g id="line2d_85">
      <path d="M 27 197.838083 
L 194.4 197.838083 
" clip-path="url(#p0ee68d94e3)" style="fill: none; stroke: #b0b0b0; stroke-width: 0.8; stroke-linecap: square"/>
     </g>
     <g id="line2d_86">
      <g>
       <use xlink:href="#m3934cee8c1" x="27" y="197.838083" style="stroke: #000000; stroke-width: 0.8"/>
      </g>
     </g>
     <g id="text_24">
      <!-- 800 -->
      <g transform="translate(5 201.309958) scale(0.1 -0.1)">
       <use xlink:href="#TimesNewRomanPSMT-38"/>
       <use xlink:href="#TimesNewRomanPSMT-30" x="50"/>
       <use xlink:href="#TimesNewRomanPSMT-30" x="100"/>
      </g>
     </g>
    </g>
    <g id="text_25">
     <!-- Currents (A) -->
     <g transform="translate(-1.139063 282.810156) rotate(-90) scale(0.1 -0.1)">
      <defs>
       <path id="TimesNewRomanPSMT-43" d="M 3853 4334 
L 3950 2894 
L 3853 2894 
Q 3659 3541 3300 3825 
Q 2941 4109 2438 4109 
Q 2016 4109 1675 3895 
Q 1334 3681 1139 3212 
Q 944 2744 944 2047 
Q 944 1472 1128 1050 
Q 1313 628 1683 403 
Q 2053 178 2528 178 
Q 2941 178 3256 354 
Q 3572 531 3950 1056 
L 4047 994 
Q 3728 428 3303 165 
Q 2878 -97 2294 -97 
Q 1241 -97 663 684 
Q 231 1266 231 2053 
Q 231 2688 515 3219 
Q 800 3750 1298 4042 
Q 1797 4334 2388 4334 
Q 2847 4334 3294 4109 
Q 3425 4041 3481 4041 
Q 3566 4041 3628 4100 
Q 3709 4184 3744 4334 
L 3853 4334 
z
" transform="scale(0.015625)"/>
       <path id="TimesNewRomanPSMT-72" d="M 1038 2947 
L 1038 2303 
Q 1397 2947 1775 2947 
Q 1947 2947 2059 2842 
Q 2172 2738 2172 2600 
Q 2172 2478 2090 2393 
Q 2009 2309 1897 2309 
Q 1788 2309 1652 2417 
Q 1516 2525 1450 2525 
Q 1394 2525 1328 2463 
Q 1188 2334 1038 2041 
L 1038 669 
Q 1038 431 1097 309 
Q 1138 225 1241 169 
Q 1344 113 1538 113 
L 1538 0 
L 72 0 
L 72 113 
Q 291 113 397 181 
Q 475 231 506 341 
Q 522 394 522 644 
L 522 1753 
Q 522 2253 501 2348 
Q 481 2444 426 2487 
Q 372 2531 291 2531 
Q 194 2531 72 2484 
L 41 2597 
L 906 2947 
L 1038 2947 
z
" transform="scale(0.015625)"/>
       <path id="TimesNewRomanPSMT-6e" d="M 1034 2341 
Q 1538 2947 1994 2947 
Q 2228 2947 2397 2830 
Q 2566 2713 2666 2444 
Q 2734 2256 2734 1869 
L 2734 647 
Q 2734 375 2778 278 
Q 2813 200 2889 156 
Q 2966 113 3172 113 
L 3172 0 
L 1756 0 
L 1756 113 
L 1816 113 
Q 2016 113 2095 173 
Q 2175 234 2206 353 
Q 2219 400 2219 647 
L 2219 1819 
Q 2219 2209 2117 2386 
Q 2016 2563 1775 2563 
Q 1403 2563 1034 2156 
L 1034 647 
Q 1034 356 1069 288 
Q 1113 197 1189 155 
Q 1266 113 1500 113 
L 1500 0 
L 84 0 
L 84 113 
L 147 113 
Q 366 113 442 223 
Q 519 334 519 647 
L 519 1709 
Q 519 2225 495 2337 
Q 472 2450 423 2490 
Q 375 2531 294 2531 
Q 206 2531 84 2484 
L 38 2597 
L 900 2947 
L 1034 2947 
L 1034 2341 
z
" transform="scale(0.015625)"/>
       <path id="TimesNewRomanPSMT-41" d="M 2928 1419 
L 1288 1419 
L 1000 750 
Q 894 503 894 381 
Q 894 284 986 211 
Q 1078 138 1384 116 
L 1384 0 
L 50 0 
L 50 116 
Q 316 163 394 238 
Q 553 388 747 847 
L 2238 4334 
L 2347 4334 
L 3822 809 
Q 4000 384 4145 257 
Q 4291 131 4550 116 
L 4550 0 
L 2878 0 
L 2878 116 
Q 3131 128 3220 200 
Q 3309 272 3309 375 
Q 3309 513 3184 809 
L 2928 1419 
z
M 2841 1650 
L 2122 3363 
L 1384 1650 
L 2841 1650 
z
" transform="scale(0.015625)"/>
      </defs>
      <use xlink:href="#TimesNewRomanPSMT-43"/>
      <use xlink:href="#TimesNewRomanPSMT-75" x="66.699219"/>
      <use xlink:href="#TimesNewRomanPSMT-72" x="116.699219"/>
      <use xlink:href="#TimesNewRomanPSMT-72" x="150"/>
      <use xlink:href="#TimesNewRomanPSMT-65" x="183.300781"/>
      <use xlink:href="#TimesNewRomanPSMT-6e" x="227.685547"/>
      <use xlink:href="#TimesNewRomanPSMT-74" x="277.685547"/>
      <use xlink:href="#TimesNewRomanPSMT-73" x="305.46875"/>
      <use xlink:href="#TimesNewRomanPSMT-20" x="344.384766"/>
      <use xlink:href="#TimesNewRomanPSMT-28" x="369.384766"/>
      <use xlink:href="#TimesNewRomanPSMT-41" x="402.685547"/>
      <use xlink:href="#TimesNewRomanPSMT-29" x="474.902344"/>
     </g>
    </g>
   </g>
   <g id="line2d_87">
    <path d="M -1 266.083143 
L 22.40022 266.083143 
L 23.73942 263.497274 
L 29.09622 263.497274 
L 30.43542 265.54912 
L 35.79222 265.54912 
L 37.13142 268.037483 
L 42.48822 268.037483 
L 43.82742 270.073839 
L 55.88022 270.07378 
L 57.21942 272.455547 
L 62.57622 272.455547 
L 63.91542 270.073377 
L 69.27222 270.073377 
L 70.61142 279.110724 
L 75.96822 279.110724 
L 77.30742 281.284523 
L 82.66422 281.284523 
L 84.00342 279.283942 
L 89.36022 279.283942 
L 90.69942 279.109614 
L 102.75222 279.109601 
L 104.09142 274.563013 
L 109.44822 274.563013 
L 110.78742 270.159813 
L 122.84022 270.160011 
L 124.17942 274.387826 
L 136.23222 274.38742 
L 137.57142 257.475724 
L 142.92822 257.475724 
L 144.26742 233.953633 
L 149.62422 233.953633 
L 150.96342 200.127273 
L 156.32022 200.127273 
L 157.65942 209.4752 
L 163.01622 209.4752 
L 164.35542 223.75884 
L 169.71222 223.75884 
L 171.05142 242.841572 
L 176.40822 242.841572 
L 177.74742 266.083143 
L 203.19222 266.083143 
L 203.19222 266.083143 
" clip-path="url(#p0ee68d94e3)" style="fill: none; stroke: #d9524f; stroke-width: 1.5; stroke-linecap: square"/>
   </g>
   <g id="line2d_88">
    <path d="M -1 293.34864 
L 22.40022 293.34864 
L 23.73942 292.094887 
L 29.09622 292.094887 
L 30.43542 293.08932 
L 35.79222 293.08932 
L 37.13142 294.299387 
L 42.48822 294.299387 
L 43.82742 295.292941 
L 55.88022 295.292916 
L 57.21942 296.458732 
L 62.57622 296.458732 
L 63.91542 295.292749 
L 69.27222 295.292749 
L 70.61142 299.737269 
L 75.96822 299.737269 
L 77.30742 300.814751 
L 82.66422 300.814751 
L 84.00342 299.823077 
L 102.75222 299.736788 
L 104.09142 297.493739 
L 109.44822 297.493739 
L 110.78742 295.335126 
L 122.84022 295.335205 
L 124.17942 297.407563 
L 136.23222 297.407382 
L 137.57142 289.194514 
L 142.92822 289.194514 
L 144.26742 278.130204 
L 149.62422 278.130204 
L 150.96342 263.038354 
L 156.32022 263.038354 
L 157.65942 267.104581 
L 163.01622 267.104581 
L 164.35542 273.474277 
L 169.71222 273.474277 
L 171.05142 282.259338 
L 176.40822 282.259338 
L 177.74742 293.34864 
L 203.19222 293.34864 
L 203.19222 293.34864 
" clip-path="url(#p0ee68d94e3)" style="fill: none; stroke: #d9524f; stroke-width: 1.5; stroke-linecap: square"/>
   </g>
   <g id="line2d_89">
    <path d="M -1 293.349282 
L 22.40022 293.349282 
L 23.73942 292.095569 
L 29.09622 292.095569 
L 30.43542 293.08995 
L 35.79222 293.08995 
L 37.13142 294.299968 
L 42.48822 294.299968 
L 43.82742 295.293481 
L 55.88022 295.293476 
L 57.21942 296.459279 
L 62.57622 296.459279 
L 63.91542 295.293434 
L 69.27222 295.293434 
L 70.61142 299.737894 
L 75.96822 299.737894 
L 77.30742 300.815452 
L 82.66422 300.815452 
L 84.00342 299.823978 
L 102.75222 299.73772 
L 104.09142 297.494824 
L 109.44822 297.494824 
L 110.78742 295.336344 
L 122.84022 295.336365 
L 124.17942 297.408549 
L 136.23222 297.40846 
L 137.57142 289.19614 
L 142.92822 289.19614 
L 144.26742 278.132457 
L 149.62422 278.132457 
L 150.96342 263.04176 
L 156.32022 263.04176 
L 157.65942 267.107252 
L 163.01622 267.107252 
L 164.35542 273.476072 
L 169.71222 273.476072 
L 171.05142 282.260507 
L 176.40822 282.260507 
L 177.74742 293.349282 
L 203.19222 293.349282 
L 203.19222 293.349282 
" clip-path="url(#p0ee68d94e3)" style="fill: none; stroke: #d9524f; stroke-width: 1.5; stroke-linecap: square"/>
   </g>
   <g id="line2d_90">
    <path d="M -1 284.952557 
L 29.09622 284.999781 
L 30.43542 286.692736 
L 35.79222 286.692736 
L 37.13142 288.154751 
L 42.48822 288.154751 
L 43.82742 289.443454 
L 49.18422 289.443454 
L 50.52342 287.569784 
L 55.88022 287.569784 
L 57.21942 284.997312 
L 62.57622 284.997312 
L 63.91542 275.333579 
L 69.27222 275.333579 
L 70.61142 265.650116 
L 75.96822 265.650116 
L 77.30742 252.501211 
L 82.66422 252.501211 
L 84.00342 238.650077 
L 89.36022 238.650077 
L 90.69942 235.608448 
L 96.05622 235.608448 
L 97.39542 238.187288 
L 102.75222 238.187288 
L 104.09142 234.42159 
L 109.44822 234.42159 
L 110.78742 232.778998 
L 116.14422 232.778998 
L 117.48342 237.815635 
L 122.84022 237.815635 
L 124.17942 245.360903 
L 129.53622 245.360903 
L 130.87542 242.796108 
L 136.23222 242.796108 
L 137.57142 239.488394 
L 142.92822 239.488394 
L 144.26742 241.231089 
L 149.62422 241.231089 
L 150.96342 240.552874 
L 156.32022 240.552874 
L 157.65942 252.839795 
L 163.01622 252.839795 
L 164.35542 267.517041 
L 169.71222 267.517041 
L 171.05142 276.590053 
L 176.40822 276.590053 
L 177.74742 284.952557 
L 203.19222 284.952557 
L 203.19222 284.952557 
" clip-path="url(#p0ee68d94e3)" style="fill: none; stroke: #5cb85c; stroke-width: 1.5; stroke-linecap: square"/>
   </g>
   <g id="line2d_91">
    <path d="M -1 292.179788 
L 22.40022 292.179788 
L 23.73942 291.765897 
L 29.09622 291.765897 
L 30.43542 292.97611 
L 35.79222 292.97611 
L 37.13142 293.978968 
L 42.48822 293.978968 
L 43.82742 294.831306 
L 49.18422 294.831306 
L 50.52342 293.888479 
L 55.88022 293.888479 
L 57.21942 293.136506 
L 62.57622 293.136506 
L 63.91542 287.75546 
L 69.27222 287.75546 
L 70.61142 284.426709 
L 75.96822 284.426709 
L 77.30742 278.420758 
L 82.66422 278.420758 
L 84.00342 269.749009 
L 89.36022 269.749009 
L 90.69942 268.107834 
L 96.05622 268.107834 
L 97.39542 268.366789 
L 102.75222 268.366789 
L 104.09142 265.707136 
L 109.44822 265.707136 
L 110.78742 264.120352 
L 116.14422 264.120352 
L 117.48342 266.461715 
L 122.84022 266.461715 
L 124.17942 270.363257 
L 129.53622 270.363257 
L 130.87542 266.56291 
L 136.23222 266.56291 
L 137.57142 260.467959 
L 142.92822 260.467959 
L 144.26742 258.238102 
L 149.62422 258.238102 
L 150.96342 252.22623 
L 156.32022 252.22623 
L 157.65942 262.266173 
L 163.01622 262.266173 
L 164.35542 275.804445 
L 169.71222 275.804445 
L 171.05142 284.264811 
L 176.40822 284.264811 
L 177.74742 292.179788 
L 203.19222 292.179788 
L 203.19222 292.179788 
" clip-path="url(#p0ee68d94e3)" style="fill: none; stroke: #5cb85c; stroke-width: 1.5; stroke-linecap: square"/>
   </g>
   <g id="line2d_92">
    <path d="M -1 292.180462 
L 22.40022 292.180462 
L 23.73942 291.766592 
L 29.09622 291.766592 
L 30.43542 292.976748 
L 35.79222 292.976748 
L 37.13142 293.979559 
L 42.48822 293.979559 
L 43.82742 294.83186 
L 49.18422 294.83186 
L 50.52342 293.889073 
L 55.88022 293.889073 
L 57.21942 293.137133 
L 62.57622 293.137133 
L 63.91542 287.756356 
L 69.27222 287.756356 
L 70.61142 284.427801 
L 75.96822 284.427801 
L 77.30742 278.422265 
L 82.66422 278.422265 
L 84.00342 269.751247 
L 89.36022 269.751247 
L 90.69942 268.110231 
L 96.05622 268.110231 
L 97.39542 268.369162 
L 102.75222 268.369162 
L 104.09142 265.709764 
L 109.44822 265.709764 
L 110.78742 264.123135 
L 116.14422 264.123135 
L 117.48342 266.464252 
L 122.84022 266.464252 
L 124.17942 270.365427 
L 129.53622 270.365427 
L 130.87542 266.565471 
L 136.23222 266.565471 
L 137.57142 260.471155 
L 142.92822 260.471155 
L 144.26742 258.241501 
L 149.62422 258.241501 
L 150.96342 252.230396 
L 156.32022 252.230396 
L 157.65942 262.26915 
L 163.01622 262.26915 
L 164.35542 275.806174 
L 169.71222 275.806174 
L 171.05142 284.265931 
L 176.40822 284.265931 
L 177.74742 292.180462 
L 203.19222 292.180462 
L 203.19222 292.180462 
" clip-path="url(#p0ee68d94e3)" style="fill: none; stroke: #5cb85c; stroke-width: 1.5; stroke-linecap: square"/>
   </g>
   <g id="line2d_93">
    <path d="M -1 307.665572 
L 22.40022 307.665572 
L 23.73942 308.124315 
L 29.09622 308.124315 
L 30.43542 308.633336 
L 35.79222 308.633336 
L 37.13142 308.124351 
L 42.48822 308.124351 
L 43.82742 307.665614 
L 49.18422 307.665614 
L 50.52342 306.797375 
L 55.88022 306.797375 
L 57.21942 305.824347 
L 62.57622 305.824347 
L 63.91542 300.655358 
L 69.27222 300.655358 
L 70.61142 292.901131 
L 75.96822 292.901131 
L 77.30742 284.610367 
L 82.66422 284.610367 
L 84.00342 267.980539 
L 89.36022 267.980539 
L 90.69942 265.144525 
L 96.05622 265.144525 
L 97.39542 261.970942 
L 102.75222 261.970942 
L 104.09142 260.457437 
L 116.14422 260.518009 
L 117.48342 263.593215 
L 122.84022 263.593215 
L 124.17942 264.90677 
L 129.53622 264.90677 
L 130.87542 249.408666 
L 136.23222 249.408666 
L 137.57142 243.329566 
L 142.92822 243.329566 
L 144.26742 255.787685 
L 149.62422 255.787685 
L 150.96342 261.787991 
L 156.32022 261.787991 
L 157.65942 279.166384 
L 163.01622 279.166384 
L 164.35542 303.456348 
L 169.71222 303.456348 
L 171.05142 308.480566 
L 176.40822 308.480566 
L 177.74742 307.665572 
L 203.19222 307.665572 
L 203.19222 307.665572 
" clip-path="url(#p0ee68d94e3)" style="fill: none; stroke: #337ab7; stroke-width: 1.5; stroke-linecap: square"/>
   </g>
   <g id="line2d_94">
    <path d="M -1 314.182613 
L 22.40022 314.182613 
L 23.73942 314.41472 
L 29.09622 314.41472 
L 30.43542 314.672584 
L 35.79222 314.672584 
L 37.13142 314.414738 
L 42.48822 314.414738 
L 43.82742 314.182633 
L 49.18422 314.182633 
L 50.52342 313.744079 
L 55.88022 313.744079 
L 57.21942 313.253761 
L 62.57622 313.253761 
L 63.91542 310.67002 
L 69.27222 310.67002 
L 70.61142 306.862526 
L 75.96822 306.862526 
L 77.30742 302.887489 
L 82.66422 302.887489 
L 84.00342 295.240187 
L 89.36022 295.240187 
L 90.69942 293.982937 
L 96.05622 293.982937 
L 97.39542 292.593312 
L 102.75222 292.593312 
L 104.09142 291.937193 
L 116.14422 291.963375 
L 117.48342 293.30134 
L 122.84022 293.30134 
L 124.17942 293.878152 
L 129.53622 293.878152 
L 130.87542 287.282671 
L 136.23222 287.282671 
L 137.57142 284.829736 
L 142.92822 284.829736 
L 144.26742 289.940312 
L 149.62422 289.940312 
L 150.96342 292.513747 
L 156.32022 292.513747 
L 157.65942 300.334309 
L 163.01622 300.334309 
L 164.35542 312.065687 
L 169.71222 312.065687 
L 171.05142 314.595158 
L 176.40822 314.595158 
L 177.74742 314.182613 
L 203.19222 314.182613 
L 203.19222 314.182613 
" clip-path="url(#p0ee68d94e3)" style="fill: none; stroke: #337ab7; stroke-width: 1.5; stroke-linecap: square"/>
   </g>
   <g id="line2d_95">
    <path d="M -1 314.182771 
L 22.40022 314.182771 
L 23.73942 314.414876 
L 29.09622 314.414876 
L 30.43542 314.672727 
L 35.79222 314.672727 
L 37.13142 314.414881 
L 42.48822 314.414881 
L 43.82742 314.182776 
L 49.18422 314.182776 
L 50.52342 313.744238 
L 55.88022 313.744238 
L 57.21942 313.253934 
L 62.57622 313.253934 
L 63.91542 310.670296 
L 69.27222 310.670296 
L 70.61142 306.862944 
L 75.96822 306.862944 
L 77.30742 302.888122 
L 82.66422 302.888122 
L 84.00342 295.241295 
L 89.36022 295.241295 
L 90.69942 293.984142 
L 96.05622 293.984142 
L 97.39542 292.594574 
L 102.75222 292.594574 
L 104.09142 291.938551 
L 116.14422 291.96477 
L 117.48342 293.302607 
L 122.84022 293.302607 
L 124.17942 293.879298 
L 129.53622 293.879298 
L 130.87542 287.284237 
L 136.23222 287.284237 
L 137.57142 284.831615 
L 142.92822 284.831615 
L 144.26742 289.941958 
L 149.62422 289.941958 
L 150.96342 292.515422 
L 156.32022 292.515422 
L 157.65942 300.335331 
L 163.01622 300.335331 
L 164.35542 312.066023 
L 169.71222 312.066023 
L 171.05142 314.595351 
L 176.40822 314.595351 
L 177.74742 314.182771 
L 203.19222 314.182771 
L 203.19222 314.182771 
" clip-path="url(#p0ee68d94e3)" style="fill: none; stroke: #337ab7; stroke-width: 1.5; stroke-linecap: square"/>
   </g>
   <g id="line2d_96">
    <path d="M -1 209.447522 
L 203.19222 209.447522 
" clip-path="url(#p0ee68d94e3)" style="fill: none; stroke-dasharray: 1.5,2.475; stroke-dashoffset: 0; stroke: #d9524f; stroke-width: 1.5"/>
   </g>
   <g id="line2d_97">
    <path d="M -1 285.355391 
L 203.19222 285.355391 
" clip-path="url(#p0ee68d94e3)" style="fill: none; stroke-dasharray: 1.5,2.475; stroke-dashoffset: 0; stroke: #5cb85c; stroke-width: 1.5"/>
   </g>
   <g id="line2d_98">
    <path d="M -1 254.09921 
L 203.19222 254.09921 
" clip-path="url(#p0ee68d94e3)" style="fill: none; stroke-dasharray: 1.5,2.475; stroke-dashoffset: 0; stroke: #337ab7; stroke-width: 1.5"/>
   </g>
   <g id="patch_8">
    <path d="M 27 320.4 
L 27 194.4 
" style="fill: none; stroke: #000000; stroke-width: 0.8; stroke-linejoin: miter; stroke-linecap: square"/>
   </g>
   <g id="patch_9">
    <path d="M 194.4 320.4 
L 194.4 194.4 
" style="fill: none; stroke: #000000; stroke-width: 0.8; stroke-linejoin: miter; stroke-linecap: square"/>
   </g>
   <g id="patch_10">
    <path d="M 27 320.4 
L 194.4 320.4 
" style="fill: none; stroke: #000000; stroke-width: 0.8; stroke-linejoin: miter; stroke-linecap: square"/>
   </g>
   <g id="patch_11">
    <path d="M 27 194.4 
L 194.4 194.4 
" style="fill: none; stroke: #000000; stroke-width: 0.8; stroke-linejoin: miter; stroke-linecap: square"/>
   </g>
  </g>
 </g>
 <defs>
  <clipPath id="p5dc44cc547">
   <rect x="27" y="43.2" width="167.4" height="126"/>
  </clipPath>
  <clipPath id="p0ee68d94e3">
   <rect x="27" y="194.4" width="167.4" height="126"/>
  </clipPath>
 </defs>
</svg>
