<?xml version="1.0" encoding="utf-8" standalone="no"?>
<!DOCTYPE svg PUBLIC "-//W3C//DTD SVG 1.1//EN"
  "http://www.w3.org/Graphics/SVG/1.1/DTD/svg11.dtd">
<svg xmlns:xlink="http://www.w3.org/1999/xlink" width="216pt" height="360pt" viewBox="0 0 216 360" xmlns="http://www.w3.org/2000/svg" version="1.1">
 <metadata>
  <rdf:RDF xmlns:dc="http://purl.org/dc/elements/1.1/" xmlns:cc="http://creativecommons.org/ns#" xmlns:rdf="http://www.w3.org/1999/02/22-rdf-syntax-ns#">
   <cc:Work>
    <dc:type rdf:resource="http://purl.org/dc/dcmitype/StillImage"/>
    <dc:date>2024-05-23T20:01:21.794599</dc:date>
    <dc:format>image/svg+xml</dc:format>
    <dc:creator>
     <cc:Agent>
      <dc:title>Matplotlib v3.7.0, https://matplotlib.org/</dc:title>
     </cc:Agent>
    </dc:creator>
   </cc:Work>
  </rdf:RDF>
 </metadata>
 <defs>
  <style type="text/css">*{stroke-linejoin: round; stroke-linecap: butt}</style>
 </defs>
 <g id="figure_1">
  <g id="patch_1">
   <path d="M 0 360 
L 216 360 
L 216 0 
L 0 0 
z
" style="fill: #ffffff"/>
  </g>
  <g id="axes_1">
   <g id="patch_2">
    <path d="M 27 169.2 
L 194.4 169.2 
L 194.4 43.2 
L 27 43.2 
z
" style="fill: #ffffff"/>
   </g>
   <g id="matplotlib.axis_1">
    <g id="xtick_1">
     <g id="line2d_1">
      <path d="M 27 169.2 
L 27 43.2 
" clip-path="url(#pa789699276)" style="fill: none; stroke: #b0b0b0; stroke-width: 0.8; stroke-linecap: square"/>
     </g>
     <g id="line2d_2">
      <defs>
       <path id="m3b0af96c8d" d="M 0 0 
L 0 3.5 
" style="stroke: #000000; stroke-width: 0.8"/>
      </defs>
      <g>
       <use xlink:href="#m3b0af96c8d" x="27" y="169.2" style="stroke: #000000; stroke-width: 0.8"/>
      </g>
     </g>
     <g id="text_1">
      <!-- 0 -->
      <g transform="translate(24.5 183.14375) scale(0.1 -0.1)">
       <defs>
        <path id="TimesNewRomanPSMT-30" d="M 231 2094 
Q 231 2819 450 3342 
Q 669 3866 1031 4122 
Q 1313 4325 1613 4325 
Q 2100 4325 2488 3828 
Q 2972 3213 2972 2159 
Q 2972 1422 2759 906 
Q 2547 391 2217 158 
Q 1888 -75 1581 -75 
Q 975 -75 572 641 
Q 231 1244 231 2094 
z
M 844 2016 
Q 844 1141 1059 588 
Q 1238 122 1591 122 
Q 1759 122 1940 273 
Q 2122 425 2216 781 
Q 2359 1319 2359 2297 
Q 2359 3022 2209 3506 
Q 2097 3866 1919 4016 
Q 1791 4119 1609 4119 
Q 1397 4119 1231 3928 
Q 1006 3669 925 3112 
Q 844 2556 844 2016 
z
" transform="scale(0.015625)"/>
       </defs>
       <use xlink:href="#TimesNewRomanPSMT-30"/>
      </g>
     </g>
    </g>
    <g id="xtick_2">
     <g id="line2d_3">
      <path d="M 54.9 169.2 
L 54.9 43.2 
" clip-path="url(#pa789699276)" style="fill: none; stroke: #b0b0b0; stroke-width: 0.8; stroke-linecap: square"/>
     </g>
     <g id="line2d_4">
      <g>
       <use xlink:href="#m3b0af96c8d" x="54.9" y="169.2" style="stroke: #000000; stroke-width: 0.8"/>
      </g>
     </g>
     <g id="text_2">
      <!-- 4 -->
      <g transform="translate(52.4 183.14375) scale(0.1 -0.1)">
       <defs>
        <path id="TimesNewRomanPSMT-34" d="M 2978 1563 
L 2978 1119 
L 2409 1119 
L 2409 0 
L 1894 0 
L 1894 1119 
L 100 1119 
L 100 1519 
L 2066 4325 
L 2409 4325 
L 2409 1563 
L 2978 1563 
z
M 1894 1563 
L 1894 3666 
L 406 1563 
L 1894 1563 
z
" transform="scale(0.015625)"/>
       </defs>
       <use xlink:href="#TimesNewRomanPSMT-34"/>
      </g>
     </g>
    </g>
    <g id="xtick_3">
     <g id="line2d_5">
      <path d="M 82.8 169.2 
L 82.8 43.2 
" clip-path="url(#pa789699276)" style="fill: none; stroke: #b0b0b0; stroke-width: 0.8; stroke-linecap: square"/>
     </g>
     <g id="line2d_6">
      <g>
       <use xlink:href="#m3b0af96c8d" x="82.8" y="169.2" style="stroke: #000000; stroke-width: 0.8"/>
      </g>
     </g>
     <g id="text_3">
      <!-- 8 -->
      <g transform="translate(80.3 183.14375) scale(0.1 -0.1)">
       <defs>
        <path id="TimesNewRomanPSMT-38" d="M 1228 2134 
Q 725 2547 579 2797 
Q 434 3047 434 3316 
Q 434 3728 753 4026 
Q 1072 4325 1600 4325 
Q 2113 4325 2425 4047 
Q 2738 3769 2738 3413 
Q 2738 3175 2569 2928 
Q 2400 2681 1866 2347 
Q 2416 1922 2594 1678 
Q 2831 1359 2831 1006 
Q 2831 559 2490 242 
Q 2150 -75 1597 -75 
Q 994 -75 656 303 
Q 388 606 388 966 
Q 388 1247 577 1523 
Q 766 1800 1228 2134 
z
M 1719 2469 
Q 2094 2806 2194 3001 
Q 2294 3197 2294 3444 
Q 2294 3772 2109 3958 
Q 1925 4144 1606 4144 
Q 1288 4144 1088 3959 
Q 888 3775 888 3528 
Q 888 3366 970 3203 
Q 1053 3041 1206 2894 
L 1719 2469 
z
M 1375 2016 
Q 1116 1797 991 1539 
Q 866 1281 866 981 
Q 866 578 1086 336 
Q 1306 94 1647 94 
Q 1984 94 2187 284 
Q 2391 475 2391 747 
Q 2391 972 2272 1150 
Q 2050 1481 1375 2016 
z
" transform="scale(0.015625)"/>
       </defs>
       <use xlink:href="#TimesNewRomanPSMT-38"/>
      </g>
     </g>
    </g>
    <g id="xtick_4">
     <g id="line2d_7">
      <path d="M 110.7 169.2 
L 110.7 43.2 
" clip-path="url(#pa789699276)" style="fill: none; stroke: #b0b0b0; stroke-width: 0.8; stroke-linecap: square"/>
     </g>
     <g id="line2d_8">
      <g>
       <use xlink:href="#m3b0af96c8d" x="110.7" y="169.2" style="stroke: #000000; stroke-width: 0.8"/>
      </g>
     </g>
     <g id="text_4">
      <!-- 12 -->
      <g transform="translate(105.7 183.14375) scale(0.1 -0.1)">
       <defs>
        <path id="TimesNewRomanPSMT-31" d="M 750 3822 
L 1781 4325 
L 1884 4325 
L 1884 747 
Q 1884 391 1914 303 
Q 1944 216 2037 169 
Q 2131 122 2419 116 
L 2419 0 
L 825 0 
L 825 116 
Q 1125 122 1212 167 
Q 1300 213 1334 289 
Q 1369 366 1369 747 
L 1369 3034 
Q 1369 3497 1338 3628 
Q 1316 3728 1258 3775 
Q 1200 3822 1119 3822 
Q 1003 3822 797 3725 
L 750 3822 
z
" transform="scale(0.015625)"/>
        <path id="TimesNewRomanPSMT-32" d="M 2934 816 
L 2638 0 
L 138 0 
L 138 116 
Q 1241 1122 1691 1759 
Q 2141 2397 2141 2925 
Q 2141 3328 1894 3587 
Q 1647 3847 1303 3847 
Q 991 3847 742 3664 
Q 494 3481 375 3128 
L 259 3128 
Q 338 3706 661 4015 
Q 984 4325 1469 4325 
Q 1984 4325 2329 3994 
Q 2675 3663 2675 3213 
Q 2675 2891 2525 2569 
Q 2294 2063 1775 1497 
Q 997 647 803 472 
L 1909 472 
Q 2247 472 2383 497 
Q 2519 522 2628 598 
Q 2738 675 2819 816 
L 2934 816 
z
" transform="scale(0.015625)"/>
       </defs>
       <use xlink:href="#TimesNewRomanPSMT-31"/>
       <use xlink:href="#TimesNewRomanPSMT-32" x="50"/>
      </g>
     </g>
    </g>
    <g id="xtick_5">
     <g id="line2d_9">
      <path d="M 138.6 169.2 
L 138.6 43.2 
" clip-path="url(#pa789699276)" style="fill: none; stroke: #b0b0b0; stroke-width: 0.8; stroke-linecap: square"/>
     </g>
     <g id="line2d_10">
      <g>
       <use xlink:href="#m3b0af96c8d" x="138.6" y="169.2" style="stroke: #000000; stroke-width: 0.8"/>
      </g>
     </g>
     <g id="text_5">
      <!-- 16 -->
      <g transform="translate(133.6 183.14375) scale(0.1 -0.1)">
       <defs>
        <path id="TimesNewRomanPSMT-36" d="M 2869 4325 
L 2869 4209 
Q 2456 4169 2195 4045 
Q 1934 3922 1679 3669 
Q 1425 3416 1258 3105 
Q 1091 2794 978 2366 
Q 1428 2675 1881 2675 
Q 2316 2675 2634 2325 
Q 2953 1975 2953 1425 
Q 2953 894 2631 456 
Q 2244 -75 1606 -75 
Q 1172 -75 869 213 
Q 275 772 275 1663 
Q 275 2231 503 2743 
Q 731 3256 1154 3653 
Q 1578 4050 1965 4187 
Q 2353 4325 2688 4325 
L 2869 4325 
z
M 925 2138 
Q 869 1716 869 1456 
Q 869 1156 980 804 
Q 1091 453 1309 247 
Q 1469 100 1697 100 
Q 1969 100 2183 356 
Q 2397 613 2397 1088 
Q 2397 1622 2184 2012 
Q 1972 2403 1581 2403 
Q 1463 2403 1327 2353 
Q 1191 2303 925 2138 
z
" transform="scale(0.015625)"/>
       </defs>
       <use xlink:href="#TimesNewRomanPSMT-31"/>
       <use xlink:href="#TimesNewRomanPSMT-36" x="50"/>
      </g>
     </g>
    </g>
    <g id="xtick_6">
     <g id="line2d_11">
      <path d="M 166.5 169.2 
L 166.5 43.2 
" clip-path="url(#pa789699276)" style="fill: none; stroke: #b0b0b0; stroke-width: 0.8; stroke-linecap: square"/>
     </g>
     <g id="line2d_12">
      <g>
       <use xlink:href="#m3b0af96c8d" x="166.5" y="169.2" style="stroke: #000000; stroke-width: 0.8"/>
      </g>
     </g>
     <g id="text_6">
      <!-- 20 -->
      <g transform="translate(161.5 183.14375) scale(0.1 -0.1)">
       <use xlink:href="#TimesNewRomanPSMT-32"/>
       <use xlink:href="#TimesNewRomanPSMT-30" x="50"/>
      </g>
     </g>
    </g>
    <g id="xtick_7">
     <g id="line2d_13">
      <path d="M 194.4 169.2 
L 194.4 43.2 
" clip-path="url(#pa789699276)" style="fill: none; stroke: #b0b0b0; stroke-width: 0.8; stroke-linecap: square"/>
     </g>
     <g id="line2d_14">
      <g>
       <use xlink:href="#m3b0af96c8d" x="194.4" y="169.2" style="stroke: #000000; stroke-width: 0.8"/>
      </g>
     </g>
     <g id="text_7">
      <!-- 24 -->
      <g transform="translate(189.4 183.14375) scale(0.1 -0.1)">
       <use xlink:href="#TimesNewRomanPSMT-32"/>
       <use xlink:href="#TimesNewRomanPSMT-34" x="50"/>
      </g>
     </g>
    </g>
   </g>
   <g id="matplotlib.axis_2">
    <g id="ytick_1">
     <g id="line2d_15">
      <path d="M 27 152.018182 
L 194.4 152.018182 
" clip-path="url(#pa789699276)" style="fill: none; stroke: #b0b0b0; stroke-width: 0.8; stroke-linecap: square"/>
     </g>
     <g id="line2d_16">
      <defs>
       <path id="m8d8870e85b" d="M 0 0 
L -3.5 0 
" style="stroke: #000000; stroke-width: 0.8"/>
      </defs>
      <g>
       <use xlink:href="#m8d8870e85b" x="27" y="152.018182" style="stroke: #000000; stroke-width: 0.8"/>
      </g>
     </g>
     <g id="text_8">
      <!-- 0.96 -->
      <g transform="translate(2.5 155.490057) scale(0.1 -0.1)">
       <defs>
        <path id="TimesNewRomanPSMT-2e" d="M 800 606 
Q 947 606 1047 504 
Q 1147 403 1147 259 
Q 1147 116 1045 14 
Q 944 -88 800 -88 
Q 656 -88 554 14 
Q 453 116 453 259 
Q 453 406 554 506 
Q 656 606 800 606 
z
" transform="scale(0.015625)"/>
        <path id="TimesNewRomanPSMT-39" d="M 338 -88 
L 338 28 
Q 744 34 1094 217 
Q 1444 400 1770 856 
Q 2097 1313 2225 1859 
Q 1734 1544 1338 1544 
Q 891 1544 572 1889 
Q 253 2234 253 2806 
Q 253 3363 572 3797 
Q 956 4325 1575 4325 
Q 2097 4325 2469 3894 
Q 2925 3359 2925 2575 
Q 2925 1869 2578 1258 
Q 2231 647 1613 244 
Q 1109 -88 516 -88 
L 338 -88 
z
M 2275 2091 
Q 2331 2497 2331 2741 
Q 2331 3044 2228 3395 
Q 2125 3747 1936 3934 
Q 1747 4122 1506 4122 
Q 1228 4122 1018 3872 
Q 809 3622 809 3128 
Q 809 2469 1088 2097 
Q 1291 1828 1588 1828 
Q 1731 1828 1928 1897 
Q 2125 1966 2275 2091 
z
" transform="scale(0.015625)"/>
       </defs>
       <use xlink:href="#TimesNewRomanPSMT-30"/>
       <use xlink:href="#TimesNewRomanPSMT-2e" x="50"/>
       <use xlink:href="#TimesNewRomanPSMT-39" x="75"/>
       <use xlink:href="#TimesNewRomanPSMT-36" x="125"/>
      </g>
     </g>
    </g>
    <g id="ytick_2">
     <g id="line2d_17">
      <path d="M 27 129.109091 
L 194.4 129.109091 
" clip-path="url(#pa789699276)" style="fill: none; stroke: #b0b0b0; stroke-width: 0.8; stroke-linecap: square"/>
     </g>
     <g id="line2d_18">
      <g>
       <use xlink:href="#m8d8870e85b" x="27" y="129.109091" style="stroke: #000000; stroke-width: 0.8"/>
      </g>
     </g>
     <g id="text_9">
      <!-- 0.98 -->
      <g transform="translate(2.5 132.580966) scale(0.1 -0.1)">
       <use xlink:href="#TimesNewRomanPSMT-30"/>
       <use xlink:href="#TimesNewRomanPSMT-2e" x="50"/>
       <use xlink:href="#TimesNewRomanPSMT-39" x="75"/>
       <use xlink:href="#TimesNewRomanPSMT-38" x="125"/>
      </g>
     </g>
    </g>
    <g id="ytick_3">
     <g id="line2d_19">
      <path d="M 27 106.2 
L 194.4 106.2 
" clip-path="url(#pa789699276)" style="fill: none; stroke: #b0b0b0; stroke-width: 0.8; stroke-linecap: square"/>
     </g>
     <g id="line2d_20">
      <g>
       <use xlink:href="#m8d8870e85b" x="27" y="106.2" style="stroke: #000000; stroke-width: 0.8"/>
      </g>
     </g>
     <g id="text_10">
      <!-- 1.00 -->
      <g transform="translate(2.5 109.671875) scale(0.1 -0.1)">
       <use xlink:href="#TimesNewRomanPSMT-31"/>
       <use xlink:href="#TimesNewRomanPSMT-2e" x="50"/>
       <use xlink:href="#TimesNewRomanPSMT-30" x="75"/>
       <use xlink:href="#TimesNewRomanPSMT-30" x="125"/>
      </g>
     </g>
    </g>
    <g id="ytick_4">
     <g id="line2d_21">
      <path d="M 27 83.290909 
L 194.4 83.290909 
" clip-path="url(#pa789699276)" style="fill: none; stroke: #b0b0b0; stroke-width: 0.8; stroke-linecap: square"/>
     </g>
     <g id="line2d_22">
      <g>
       <use xlink:href="#m8d8870e85b" x="27" y="83.290909" style="stroke: #000000; stroke-width: 0.8"/>
      </g>
     </g>
     <g id="text_11">
      <!-- 1.02 -->
      <g transform="translate(2.5 86.762784) scale(0.1 -0.1)">
       <use xlink:href="#TimesNewRomanPSMT-31"/>
       <use xlink:href="#TimesNewRomanPSMT-2e" x="50"/>
       <use xlink:href="#TimesNewRomanPSMT-30" x="75"/>
       <use xlink:href="#TimesNewRomanPSMT-32" x="125"/>
      </g>
     </g>
    </g>
    <g id="ytick_5">
     <g id="line2d_23">
      <path d="M 27 60.381818 
L 194.4 60.381818 
" clip-path="url(#pa789699276)" style="fill: none; stroke: #b0b0b0; stroke-width: 0.8; stroke-linecap: square"/>
     </g>
     <g id="line2d_24">
      <g>
       <use xlink:href="#m8d8870e85b" x="27" y="60.381818" style="stroke: #000000; stroke-width: 0.8"/>
      </g>
     </g>
     <g id="text_12">
      <!-- 1.04 -->
      <g transform="translate(2.5 63.853693) scale(0.1 -0.1)">
       <use xlink:href="#TimesNewRomanPSMT-31"/>
       <use xlink:href="#TimesNewRomanPSMT-2e" x="50"/>
       <use xlink:href="#TimesNewRomanPSMT-30" x="75"/>
       <use xlink:href="#TimesNewRomanPSMT-34" x="125"/>
      </g>
     </g>
    </g>
    <g id="text_13">
     <!-- Voltages (pu) -->
     <g transform="translate(-3.657813 132.910156) rotate(-90) scale(0.1 -0.1)">
      <defs>
       <path id="TimesNewRomanPSMT-56" d="M 4544 4238 
L 4544 4122 
Q 4319 4081 4203 3978 
Q 4038 3825 3909 3509 
L 2431 -97 
L 2316 -97 
L 728 3556 
Q 606 3838 556 3900 
Q 478 3997 364 4051 
Q 250 4106 56 4122 
L 56 4238 
L 1788 4238 
L 1788 4122 
Q 1494 4094 1406 4022 
Q 1319 3950 1319 3838 
Q 1319 3681 1463 3350 
L 2541 866 
L 3541 3319 
Q 3688 3681 3688 3822 
Q 3688 3913 3597 3995 
Q 3506 4078 3291 4113 
Q 3275 4116 3238 4122 
L 3238 4238 
L 4544 4238 
z
" transform="scale(0.015625)"/>
       <path id="TimesNewRomanPSMT-6f" d="M 1600 2947 
Q 2250 2947 2644 2453 
Q 2978 2031 2978 1484 
Q 2978 1100 2793 706 
Q 2609 313 2286 112 
Q 1963 -88 1566 -88 
Q 919 -88 538 428 
Q 216 863 216 1403 
Q 216 1797 411 2186 
Q 606 2575 925 2761 
Q 1244 2947 1600 2947 
z
M 1503 2744 
Q 1338 2744 1170 2645 
Q 1003 2547 900 2300 
Q 797 2053 797 1666 
Q 797 1041 1045 587 
Q 1294 134 1700 134 
Q 2003 134 2200 384 
Q 2397 634 2397 1244 
Q 2397 2006 2069 2444 
Q 1847 2744 1503 2744 
z
" transform="scale(0.015625)"/>
       <path id="TimesNewRomanPSMT-6c" d="M 1184 4444 
L 1184 647 
Q 1184 378 1223 290 
Q 1263 203 1344 158 
Q 1425 113 1647 113 
L 1647 0 
L 244 0 
L 244 113 
Q 441 113 512 153 
Q 584 194 625 287 
Q 666 381 666 647 
L 666 3247 
Q 666 3731 644 3842 
Q 622 3953 573 3993 
Q 525 4034 450 4034 
Q 369 4034 244 3984 
L 191 4094 
L 1044 4444 
L 1184 4444 
z
" transform="scale(0.015625)"/>
       <path id="TimesNewRomanPSMT-74" d="M 1031 3803 
L 1031 2863 
L 1700 2863 
L 1700 2644 
L 1031 2644 
L 1031 788 
Q 1031 509 1111 412 
Q 1191 316 1316 316 
Q 1419 316 1516 380 
Q 1613 444 1666 569 
L 1788 569 
Q 1678 263 1478 108 
Q 1278 -47 1066 -47 
Q 922 -47 784 33 
Q 647 113 581 261 
Q 516 409 516 719 
L 516 2644 
L 63 2644 
L 63 2747 
Q 234 2816 414 2980 
Q 594 3144 734 3369 
Q 806 3488 934 3803 
L 1031 3803 
z
" transform="scale(0.015625)"/>
       <path id="TimesNewRomanPSMT-61" d="M 1822 413 
Q 1381 72 1269 19 
Q 1100 -59 909 -59 
Q 613 -59 420 144 
Q 228 347 228 678 
Q 228 888 322 1041 
Q 450 1253 767 1440 
Q 1084 1628 1822 1897 
L 1822 2009 
Q 1822 2438 1686 2597 
Q 1550 2756 1291 2756 
Q 1094 2756 978 2650 
Q 859 2544 859 2406 
L 866 2225 
Q 866 2081 792 2003 
Q 719 1925 600 1925 
Q 484 1925 411 2006 
Q 338 2088 338 2228 
Q 338 2497 613 2722 
Q 888 2947 1384 2947 
Q 1766 2947 2009 2819 
Q 2194 2722 2281 2516 
Q 2338 2381 2338 1966 
L 2338 994 
Q 2338 584 2353 492 
Q 2369 400 2405 369 
Q 2441 338 2488 338 
Q 2538 338 2575 359 
Q 2641 400 2828 588 
L 2828 413 
Q 2478 -56 2159 -56 
Q 2006 -56 1915 50 
Q 1825 156 1822 413 
z
M 1822 616 
L 1822 1706 
Q 1350 1519 1213 1441 
Q 966 1303 859 1153 
Q 753 1003 753 825 
Q 753 600 887 451 
Q 1022 303 1197 303 
Q 1434 303 1822 616 
z
" transform="scale(0.015625)"/>
       <path id="TimesNewRomanPSMT-67" d="M 966 1044 
Q 703 1172 562 1401 
Q 422 1631 422 1909 
Q 422 2334 742 2640 
Q 1063 2947 1563 2947 
Q 1972 2947 2272 2747 
L 2878 2747 
Q 3013 2747 3034 2739 
Q 3056 2731 3066 2713 
Q 3084 2684 3084 2613 
Q 3084 2531 3069 2500 
Q 3059 2484 3036 2475 
Q 3013 2466 2878 2466 
L 2506 2466 
Q 2681 2241 2681 1891 
Q 2681 1491 2375 1206 
Q 2069 922 1553 922 
Q 1341 922 1119 984 
Q 981 866 932 777 
Q 884 688 884 625 
Q 884 572 936 522 
Q 988 472 1138 450 
Q 1225 438 1575 428 
Q 2219 413 2409 384 
Q 2700 344 2873 169 
Q 3047 -6 3047 -263 
Q 3047 -616 2716 -925 
Q 2228 -1381 1444 -1381 
Q 841 -1381 425 -1109 
Q 191 -953 191 -784 
Q 191 -709 225 -634 
Q 278 -519 444 -313 
Q 466 -284 763 25 
Q 600 122 533 198 
Q 466 275 466 372 
Q 466 481 555 628 
Q 644 775 966 1044 
z
M 1509 2797 
Q 1278 2797 1122 2612 
Q 966 2428 966 2047 
Q 966 1553 1178 1281 
Q 1341 1075 1591 1075 
Q 1828 1075 1981 1253 
Q 2134 1431 2134 1813 
Q 2134 2309 1919 2591 
Q 1759 2797 1509 2797 
z
M 934 0 
Q 788 -159 713 -296 
Q 638 -434 638 -550 
Q 638 -700 819 -813 
Q 1131 -1006 1722 -1006 
Q 2284 -1006 2551 -807 
Q 2819 -609 2819 -384 
Q 2819 -222 2659 -153 
Q 2497 -84 2016 -72 
Q 1313 -53 934 0 
z
" transform="scale(0.015625)"/>
       <path id="TimesNewRomanPSMT-65" d="M 681 1784 
Q 678 1147 991 784 
Q 1303 422 1725 422 
Q 2006 422 2214 576 
Q 2422 731 2563 1106 
L 2659 1044 
Q 2594 616 2278 264 
Q 1963 -88 1488 -88 
Q 972 -88 605 314 
Q 238 716 238 1394 
Q 238 2128 614 2539 
Q 991 2950 1559 2950 
Q 2041 2950 2350 2633 
Q 2659 2316 2659 1784 
L 681 1784 
z
M 681 1966 
L 2006 1966 
Q 1991 2241 1941 2353 
Q 1863 2528 1708 2628 
Q 1553 2728 1384 2728 
Q 1125 2728 920 2526 
Q 716 2325 681 1966 
z
" transform="scale(0.015625)"/>
       <path id="TimesNewRomanPSMT-73" d="M 2050 2947 
L 2050 1972 
L 1947 1972 
Q 1828 2431 1642 2597 
Q 1456 2763 1169 2763 
Q 950 2763 815 2647 
Q 681 2531 681 2391 
Q 681 2216 781 2091 
Q 878 1963 1175 1819 
L 1631 1597 
Q 2266 1288 2266 781 
Q 2266 391 1970 151 
Q 1675 -88 1309 -88 
Q 1047 -88 709 6 
Q 606 38 541 38 
Q 469 38 428 -44 
L 325 -44 
L 325 978 
L 428 978 
Q 516 541 762 319 
Q 1009 97 1316 97 
Q 1531 97 1667 223 
Q 1803 350 1803 528 
Q 1803 744 1651 891 
Q 1500 1038 1047 1263 
Q 594 1488 453 1669 
Q 313 1847 313 2119 
Q 313 2472 555 2709 
Q 797 2947 1181 2947 
Q 1350 2947 1591 2875 
Q 1750 2828 1803 2828 
Q 1853 2828 1881 2850 
Q 1909 2872 1947 2947 
L 2050 2947 
z
" transform="scale(0.015625)"/>
       <path id="TimesNewRomanPSMT-20" transform="scale(0.015625)"/>
       <path id="TimesNewRomanPSMT-28" d="M 1988 -1253 
L 1988 -1369 
Q 1516 -1131 1200 -813 
Q 750 -359 506 256 
Q 263 872 263 1534 
Q 263 2503 741 3301 
Q 1219 4100 1988 4444 
L 1988 4313 
Q 1603 4100 1356 3731 
Q 1109 3363 987 2797 
Q 866 2231 866 1616 
Q 866 947 969 400 
Q 1050 -31 1165 -292 
Q 1281 -553 1476 -793 
Q 1672 -1034 1988 -1253 
z
" transform="scale(0.015625)"/>
       <path id="TimesNewRomanPSMT-70" d="M -6 2578 
L 875 2934 
L 994 2934 
L 994 2266 
Q 1216 2644 1439 2795 
Q 1663 2947 1909 2947 
Q 2341 2947 2628 2609 
Q 2981 2197 2981 1534 
Q 2981 794 2556 309 
Q 2206 -88 1675 -88 
Q 1444 -88 1275 -22 
Q 1150 25 994 166 
L 994 -706 
Q 994 -1000 1030 -1079 
Q 1066 -1159 1155 -1206 
Q 1244 -1253 1478 -1253 
L 1478 -1369 
L -22 -1369 
L -22 -1253 
L 56 -1253 
Q 228 -1256 350 -1188 
Q 409 -1153 442 -1076 
Q 475 -1000 475 -688 
L 475 2019 
Q 475 2297 450 2372 
Q 425 2447 370 2484 
Q 316 2522 222 2522 
Q 147 2522 31 2478 
L -6 2578 
z
M 994 2081 
L 994 1013 
Q 994 666 1022 556 
Q 1066 375 1236 237 
Q 1406 100 1666 100 
Q 1978 100 2172 344 
Q 2425 663 2425 1241 
Q 2425 1897 2138 2250 
Q 1938 2494 1663 2494 
Q 1513 2494 1366 2419 
Q 1253 2363 994 2081 
z
" transform="scale(0.015625)"/>
       <path id="TimesNewRomanPSMT-75" d="M 2709 2863 
L 2709 1128 
Q 2709 631 2732 520 
Q 2756 409 2807 365 
Q 2859 322 2928 322 
Q 3025 322 3147 375 
L 3191 266 
L 2334 -88 
L 2194 -88 
L 2194 519 
Q 1825 119 1631 15 
Q 1438 -88 1222 -88 
Q 981 -88 804 51 
Q 628 191 559 409 
Q 491 628 491 1028 
L 491 2306 
Q 491 2509 447 2587 
Q 403 2666 317 2708 
Q 231 2750 6 2747 
L 6 2863 
L 1009 2863 
L 1009 947 
Q 1009 547 1148 422 
Q 1288 297 1484 297 
Q 1619 297 1789 381 
Q 1959 466 2194 703 
L 2194 2325 
Q 2194 2569 2105 2655 
Q 2016 2741 1734 2747 
L 1734 2863 
L 2709 2863 
z
" transform="scale(0.015625)"/>
       <path id="TimesNewRomanPSMT-29" d="M 144 4313 
L 144 4444 
Q 619 4209 934 3891 
Q 1381 3434 1625 2820 
Q 1869 2206 1869 1541 
Q 1869 572 1392 -226 
Q 916 -1025 144 -1369 
L 144 -1253 
Q 528 -1038 776 -670 
Q 1025 -303 1145 264 
Q 1266 831 1266 1447 
Q 1266 2113 1163 2663 
Q 1084 3094 967 3353 
Q 850 3613 656 3853 
Q 463 4094 144 4313 
z
" transform="scale(0.015625)"/>
      </defs>
      <use xlink:href="#TimesNewRomanPSMT-56"/>
      <use xlink:href="#TimesNewRomanPSMT-6f" x="59.341797"/>
      <use xlink:href="#TimesNewRomanPSMT-6c" x="109.341797"/>
      <use xlink:href="#TimesNewRomanPSMT-74" x="137.125"/>
      <use xlink:href="#TimesNewRomanPSMT-61" x="164.908203"/>
      <use xlink:href="#TimesNewRomanPSMT-67" x="209.292969"/>
      <use xlink:href="#TimesNewRomanPSMT-65" x="259.292969"/>
      <use xlink:href="#TimesNewRomanPSMT-73" x="303.677734"/>
      <use xlink:href="#TimesNewRomanPSMT-20" x="342.59375"/>
      <use xlink:href="#TimesNewRomanPSMT-28" x="367.59375"/>
      <use xlink:href="#TimesNewRomanPSMT-70" x="400.894531"/>
      <use xlink:href="#TimesNewRomanPSMT-75" x="450.894531"/>
      <use xlink:href="#TimesNewRomanPSMT-29" x="500.894531"/>
     </g>
    </g>
   </g>
   <g id="line2d_25">
    <path d="M -1 76.713102 
L 22.40022 76.713102 
L 23.73942 77.343149 
L 29.09622 77.343149 
L 30.43542 76.81373 
L 35.79222 76.81373 
L 37.13142 76.187513 
L 42.48822 76.187513 
L 43.82742 75.6732 
L 55.88022 75.704601 
L 57.21942 75.157635 
L 62.57622 75.157635 
L 63.91542 75.909953 
L 69.27222 75.909953 
L 70.61142 73.848858 
L 75.96822 73.848858 
L 77.30742 73.525142 
L 82.66422 73.525142 
L 84.00342 74.313987 
L 102.75222 74.410938 
L 104.09142 75.59917 
L 109.44822 75.59917 
L 110.78742 76.712295 
L 122.84022 76.63265 
L 124.17942 75.487025 
L 129.53622 75.487025 
L 130.87542 75.635564 
L 136.23222 75.635564 
L 137.57142 79.900007 
L 142.92822 79.900007 
L 144.26742 85.479428 
L 149.62422 85.479428 
L 150.96342 93.327699 
L 156.32022 93.327699 
L 157.65942 90.880465 
L 163.01622 90.880465 
L 164.35542 87.154223 
L 169.71222 87.154223 
L 171.05142 82.460952 
L 176.40822 82.460952 
L 177.74742 76.713102 
L 203.19222 76.713102 
L 203.19222 76.713102 
" clip-path="url(#pa789699276)" style="fill: none; stroke: #d9524f; stroke-width: 1.5; stroke-linecap: square"/>
   </g>
   <g id="line2d_26">
    <path d="M -1 81.149429 
L 22.40022 81.149429 
L 23.73942 81.883065 
L 29.09622 81.883065 
L 30.43542 81.246075 
L 35.79222 81.246075 
L 37.13142 80.503647 
L 42.48822 80.503647 
L 43.82742 79.893296 
L 55.88022 79.951757 
L 57.21942 79.340672 
L 62.57622 79.340672 
L 63.91542 80.333626 
L 69.27222 80.333626 
L 70.61142 78.047151 
L 75.96822 78.047151 
L 77.30742 77.819654 
L 82.66422 77.819654 
L 84.00342 78.94022 
L 89.36022 78.94022 
L 90.69942 79.093931 
L 102.75222 79.08944 
L 104.09142 80.516692 
L 109.44822 80.516692 
L 110.78742 81.831921 
L 116.14422 81.831921 
L 117.48342 81.684866 
L 122.84022 81.684866 
L 124.17942 80.279103 
L 129.53622 80.279103 
L 130.87542 80.55213 
L 136.23222 80.55213 
L 137.57142 85.598459 
L 142.92822 85.598459 
L 144.26742 92.053 
L 149.62422 92.053 
L 150.96342 101.212377 
L 156.32022 101.212377 
L 157.65942 98.154834 
L 163.01622 98.154834 
L 164.35542 93.536772 
L 169.71222 93.536772 
L 171.05142 87.939997 
L 176.40822 87.939997 
L 177.74742 81.149429 
L 203.19222 81.149429 
L 203.19222 81.149429 
" clip-path="url(#pa789699276)" style="fill: none; stroke: #d9524f; stroke-width: 1.5; stroke-linecap: square"/>
   </g>
   <g id="line2d_27">
    <path d="M -1 85.586344 
L 22.40022 85.586344 
L 23.73942 86.423614 
L 29.09622 86.423614 
L 30.43542 85.679023 
L 35.79222 85.679023 
L 37.13142 84.820343 
L 42.48822 84.820343 
L 43.82742 84.113922 
L 55.88022 84.199437 
L 57.21942 83.52418 
L 62.57622 83.52418 
L 63.91542 84.757775 
L 69.27222 84.757775 
L 70.61142 82.245668 
L 75.96822 82.245668 
L 77.30742 82.114246 
L 82.66422 82.114246 
L 84.00342 83.56645 
L 89.36022 83.56645 
L 90.69942 83.77482 
L 102.75222 83.767916 
L 104.09142 85.434287 
L 109.44822 85.434287 
L 110.78742 86.951728 
L 116.14422 86.951728 
L 117.48342 86.737299 
L 122.84022 86.737299 
L 124.17942 85.071331 
L 129.53622 85.071331 
L 130.87542 85.468778 
L 136.23222 85.468778 
L 137.57142 91.297385 
L 142.92822 91.297385 
L 144.26742 98.627537 
L 149.62422 98.627537 
L 150.96342 109.098408 
L 156.32022 109.098408 
L 157.65942 105.430456 
L 163.01622 105.430456 
L 164.35542 99.920423 
L 169.71222 99.920423 
L 171.05142 93.419954 
L 176.40822 93.419954 
L 177.74742 85.586344 
L 203.19222 85.586344 
L 203.19222 85.586344 
" clip-path="url(#pa789699276)" style="fill: none; stroke: #d9524f; stroke-width: 1.5; stroke-linecap: square"/>
   </g>
   <g id="line2d_28">
    <path d="M -1 89.642784 
L 22.40022 89.642784 
L 23.73942 90.566256 
L 29.09622 90.566256 
L 30.43542 89.727924 
L 35.79222 89.727924 
L 37.13142 88.769817 
L 42.48822 88.769817 
L 43.82742 87.981123 
L 49.18422 87.981123 
L 50.52342 88.093659 
L 55.88022 88.093659 
L 57.21942 87.370345 
L 62.57622 87.370345 
L 63.91542 88.828248 
L 69.27222 88.828248 
L 70.61142 86.151821 
L 82.66422 86.131104 
L 84.00342 87.900928 
L 89.36022 87.900928 
L 90.69942 88.162699 
L 102.75222 88.153385 
L 104.09142 90.027781 
L 109.44822 90.027781 
L 110.78742 91.717478 
L 116.14422 91.717478 
L 117.48342 91.435777 
L 122.84022 91.435777 
L 124.17942 89.538457 
L 129.53622 89.538457 
L 130.87542 90.060142 
L 136.23222 90.060142 
L 137.57142 96.556627 
L 142.92822 96.556627 
L 144.26742 104.60689 
L 149.62422 104.60689 
L 150.96342 116.173704 
L 156.32022 116.173704 
L 157.65942 111.954321 
L 163.01622 111.954321 
L 164.35542 105.643888 
L 169.71222 105.643888 
L 171.05142 98.364233 
L 176.40822 98.364233 
L 177.74742 89.642784 
L 203.19222 89.642784 
L 203.19222 89.642784 
" clip-path="url(#pa789699276)" style="fill: none; stroke: #d9524f; stroke-width: 1.5; stroke-linecap: square"/>
   </g>
   <g id="line2d_29">
    <path d="M -1 92.722521 
L 22.40022 92.722521 
L 23.73942 93.718983 
L 29.09622 93.718983 
L 30.43542 92.805265 
L 35.79222 92.805265 
L 37.13142 91.765554 
L 42.48822 91.765554 
L 43.82742 90.909447 
L 49.18422 90.909447 
L 50.52342 91.040606 
L 55.88022 91.040606 
L 57.21942 90.271626 
L 62.57622 90.271626 
L 63.91542 91.896692 
L 69.27222 91.896692 
L 70.61142 89.059301 
L 82.66422 89.103399 
L 84.00342 91.102876 
L 89.36022 91.102876 
L 90.69942 91.402415 
L 102.75222 91.391439 
L 104.09142 93.433399 
L 109.44822 93.433399 
L 110.78742 95.265189 
L 116.14422 95.265189 
L 117.48342 94.93704 
L 122.84022 94.93704 
L 124.17942 92.857781 
L 129.53622 92.857781 
L 130.87542 93.465215 
L 136.23222 93.465215 
L 137.57142 100.511589 
L 142.92822 100.511589 
L 144.26742 109.181101 
L 149.62422 109.181101 
L 150.96342 121.676332 
L 156.32022 121.676332 
L 157.65942 117.028726 
L 163.01622 117.028726 
L 164.35542 110.092847 
L 169.71222 110.092847 
L 171.05142 102.177411 
L 176.40822 102.177411 
L 177.74742 92.722521 
L 203.19222 92.722521 
L 203.19222 92.722521 
" clip-path="url(#pa789699276)" style="fill: none; stroke: #d9524f; stroke-width: 1.5; stroke-linecap: square"/>
   </g>
   <g id="line2d_30">
    <path d="M -1 95.802211 
L 22.40022 95.802211 
L 23.73942 96.871673 
L 29.09622 96.871673 
L 30.43542 95.882565 
L 35.79222 95.882565 
L 37.13142 94.761244 
L 42.48822 94.761244 
L 43.82742 93.837719 
L 49.18422 93.837719 
L 50.52342 93.987496 
L 55.88022 93.987496 
L 57.21942 93.172837 
L 62.57622 93.172837 
L 63.91542 94.965053 
L 69.27222 94.965053 
L 70.61142 91.96662 
L 82.66422 92.075471 
L 84.00342 94.304545 
L 89.36022 94.304545 
L 90.69942 94.641838 
L 102.75222 94.629199 
L 104.09142 96.838744 
L 109.44822 96.838744 
L 110.78742 98.812656 
L 116.14422 98.812656 
L 117.48342 98.438078 
L 122.84022 98.438078 
L 124.17942 96.176873 
L 129.53622 96.176873 
L 130.87542 96.870019 
L 136.23222 96.870019 
L 137.57142 104.466377 
L 142.92822 104.466377 
L 144.26742 113.755264 
L 149.62422 113.755264 
L 150.96342 127.178958 
L 156.32022 127.178958 
L 157.65942 122.10313 
L 163.01622 122.10313 
L 164.35542 114.541806 
L 169.71222 114.541806 
L 171.05142 105.990585 
L 176.40822 105.990585 
L 177.74742 95.802211 
L 203.19222 95.802211 
L 203.19222 95.802211 
" clip-path="url(#pa789699276)" style="fill: none; stroke: #d9524f; stroke-width: 1.5; stroke-linecap: square"/>
   </g>
   <g id="line2d_31">
    <path d="M -1 97.45884 
L 22.40022 97.45884 
L 23.73942 98.535052 
L 29.09622 98.535052 
L 30.43542 97.523298 
L 35.79222 97.523298 
L 37.13142 96.384279 
L 42.48822 96.384279 
L 43.82742 95.445686 
L 49.18422 95.445686 
L 50.52342 95.613903 
L 55.88022 95.613903 
L 57.21942 94.814548 
L 62.57622 94.814548 
L 63.91542 96.711752 
L 69.27222 96.711752 
L 70.61142 93.784163 
L 75.96822 93.784163 
L 77.30742 94.012907 
L 82.66422 94.012907 
L 84.00342 96.418485 
L 89.36022 96.418485 
L 90.69942 96.788755 
L 102.75222 96.774468 
L 104.09142 99.033756 
L 109.44822 99.033756 
L 110.78742 101.03599 
L 116.14422 101.03599 
L 117.48342 100.615445 
L 122.84022 100.615445 
L 124.17942 98.281932 
L 129.53622 98.281932 
L 130.87542 99.060004 
L 136.23222 99.060004 
L 137.57142 106.770262 
L 142.92822 106.770262 
L 144.26742 116.079954 
L 149.62422 116.079954 
L 150.96342 129.589641 
L 156.32022 129.589641 
L 157.65942 124.31937 
L 163.01622 124.31937 
L 164.35542 116.492212 
L 169.71222 116.492212 
L 171.05142 107.787234 
L 176.40822 107.787234 
L 177.74742 97.45884 
L 203.19222 97.45884 
L 203.19222 97.45884 
" clip-path="url(#pa789699276)" style="fill: none; stroke: #d9524f; stroke-width: 1.5; stroke-linecap: square"/>
   </g>
   <g id="line2d_32">
    <path d="M -1 99.115466 
L 22.40022 99.115466 
L 23.73942 100.19843 
L 29.09622 100.19843 
L 30.43542 99.164028 
L 35.79222 99.164028 
L 37.13142 98.007309 
L 42.48822 98.007309 
L 43.82742 97.053647 
L 49.18422 97.053647 
L 50.52342 97.240301 
L 55.88022 97.240301 
L 57.21942 96.456242 
L 62.57622 96.456242 
L 63.91542 98.458431 
L 69.27222 98.458431 
L 70.61142 95.601627 
L 75.96822 95.601627 
L 77.30742 95.950213 
L 82.66422 95.950213 
L 84.00342 98.532255 
L 89.36022 98.532255 
L 90.69942 98.935493 
L 102.75222 98.919557 
L 104.09142 101.228614 
L 109.44822 101.228614 
L 110.78742 103.259201 
L 116.14422 103.259201 
L 117.48342 102.792703 
L 122.84022 102.792703 
L 124.17942 100.386869 
L 129.53622 100.386869 
L 130.87542 101.249839 
L 136.23222 101.249839 
L 137.57142 109.074091 
L 142.92822 109.074091 
L 144.26742 118.404643 
L 149.62422 118.404643 
L 150.96342 132.000171 
L 156.32022 132.000171 
L 157.65942 126.535477 
L 163.01622 126.535477 
L 164.35542 118.442518 
L 169.71222 118.442518 
L 171.05142 109.583859 
L 176.40822 109.583859 
L 177.74742 99.115466 
L 203.19222 99.115466 
L 203.19222 99.115466 
" clip-path="url(#pa789699276)" style="fill: none; stroke: #d9524f; stroke-width: 1.5; stroke-linecap: square"/>
   </g>
   <g id="line2d_33">
    <path d="M -1 100.770767 
L 22.40022 100.770767 
L 23.73942 101.860431 
L 29.09622 101.860431 
L 30.43542 100.803425 
L 35.79222 100.803425 
L 37.13142 99.629058 
L 42.48822 99.629058 
L 43.82742 98.660368 
L 49.18422 98.660368 
L 50.52342 98.865457 
L 55.88022 98.865457 
L 57.21942 98.096735 
L 62.57622 98.096735 
L 63.91542 100.203844 
L 69.27222 100.203844 
L 70.61142 97.417949 
L 75.96822 97.417949 
L 77.30742 97.886363 
L 82.66422 97.886363 
L 84.00342 100.644771 
L 89.36022 100.644771 
L 90.69942 101.080958 
L 102.75222 101.063375 
L 104.09142 103.422129 
L 109.44822 103.422129 
L 110.78742 105.481004 
L 116.14422 105.481004 
L 117.48342 104.96857 
L 122.84022 104.96857 
L 124.17942 102.490497 
L 129.53622 102.490497 
L 130.87542 103.438331 
L 136.23222 103.438331 
L 137.57142 111.37631 
L 142.92822 111.37631 
L 144.26742 120.727288 
L 149.62422 120.727288 
L 150.96342 134.407815 
L 156.32022 134.407815 
L 157.65942 128.748916 
L 163.01622 128.748916 
L 164.35542 120.390502 
L 169.71222 120.390502 
L 171.05142 111.37864 
L 176.40822 111.37864 
L 177.74742 100.770767 
L 203.19222 100.770767 
L 203.19222 100.770767 
" clip-path="url(#pa789699276)" style="fill: none; stroke: #d9524f; stroke-width: 1.5; stroke-linecap: square"/>
   </g>
   <g id="line2d_34">
    <path d="M -1 101.519479 
L 22.40022 101.519479 
L 23.73942 102.573795 
L 29.09622 102.573795 
L 30.43542 101.527701 
L 35.79222 101.527701 
L 37.13142 100.376284 
L 42.48822 100.376284 
L 43.82742 99.425831 
L 49.18422 99.425831 
L 50.52342 99.649201 
L 55.88022 99.649201 
L 57.21942 98.934508 
L 62.57622 98.934508 
L 63.91542 101.106838 
L 69.27222 101.106838 
L 70.61142 98.539071 
L 75.96822 98.539071 
L 77.30742 99.16217 
L 82.66422 99.16217 
L 84.00342 102.062834 
L 89.36022 102.062834 
L 90.69942 102.528869 
L 102.75222 102.509649 
L 104.09142 104.843023 
L 109.44822 104.843023 
L 110.78742 106.857756 
L 116.14422 106.857756 
L 117.48342 106.299785 
L 122.84022 106.299785 
L 124.17942 103.81934 
L 129.53622 103.81934 
L 130.87542 104.851359 
L 136.23222 104.851359 
L 137.57142 112.625691 
L 142.92822 112.625691 
L 144.26742 121.617705 
L 149.62422 121.617705 
L 150.96342 134.851151 
L 156.32022 134.851151 
L 157.65942 129.146232 
L 163.01622 129.146232 
L 164.35542 120.750298 
L 169.71222 120.750298 
L 171.05142 111.890397 
L 176.40822 111.890397 
L 177.74742 101.519479 
L 203.19222 101.519479 
L 203.19222 101.519479 
" clip-path="url(#pa789699276)" style="fill: none; stroke: #d9524f; stroke-width: 1.5; stroke-linecap: square"/>
   </g>
   <g id="line2d_35">
    <path d="M -1 87.31684 
L 22.40022 87.31684 
L 23.73942 88.233476 
L 29.09622 88.233476 
L 30.43542 87.425806 
L 35.79222 87.425806 
L 37.13142 86.490531 
L 42.48822 86.490531 
L 43.82742 85.721293 
L 55.88022 85.806927 
L 57.21942 85.058243 
L 62.57622 85.058243 
L 63.91542 86.366046 
L 69.27222 86.366046 
L 70.61142 83.574325 
L 75.96822 83.574325 
L 77.30742 83.375781 
L 82.66422 83.375781 
L 84.00342 84.891265 
L 89.36022 84.891265 
L 90.69942 85.105241 
L 102.75222 85.098329 
L 104.09142 86.906377 
L 109.44822 86.906377 
L 110.78742 88.560381 
L 116.14422 88.560381 
L 117.48342 88.345651 
L 122.84022 88.345651 
L 124.17942 86.548331 
L 129.53622 86.548331 
L 130.87542 86.946289 
L 136.23222 86.946289 
L 137.57142 93.296268 
L 142.92822 93.296268 
L 144.26742 101.334914 
L 149.62422 101.334914 
L 150.96342 112.786535 
L 156.32022 112.786535 
L 157.65942 108.850239 
L 163.01622 108.850239 
L 164.35542 102.923614 
L 169.71222 102.923614 
L 171.05142 95.856798 
L 176.40822 95.856798 
L 177.74742 87.31684 
L 203.19222 87.31684 
L 203.19222 87.31684 
" clip-path="url(#pa789699276)" style="fill: none; stroke: #d9524f; stroke-width: 1.5; stroke-linecap: square"/>
   </g>
   <g id="line2d_36">
    <path d="M -1 93.423248 
L 22.40022 93.423248 
L 23.73942 94.374071 
L 29.09622 94.374071 
L 30.43542 93.477737 
L 35.79222 93.477737 
L 37.13142 92.469799 
L 42.48822 92.469799 
L 43.82742 91.639107 
L 49.18422 91.639107 
L 50.52342 91.790361 
L 55.88022 91.790361 
L 57.21942 91.087064 
L 62.57622 91.087064 
L 63.91542 92.77735 
L 69.27222 92.77735 
L 70.61142 90.203424 
L 75.96822 90.203424 
L 77.30742 90.422623 
L 82.66422 90.422623 
L 84.00342 92.571478 
L 89.36022 92.571478 
L 90.69942 92.902973 
L 102.75222 92.890222 
L 104.09142 94.891616 
L 109.44822 94.891616 
L 110.78742 96.662919 
L 116.14422 96.662919 
L 117.48342 96.285319 
L 122.84022 96.285319 
L 124.17942 94.215444 
L 129.53622 94.215444 
L 130.87542 94.914399 
L 136.23222 94.914399 
L 137.57142 101.735177 
L 142.92822 101.735177 
L 144.26742 109.950116 
L 149.62422 109.950116 
L 150.96342 121.87028 
L 156.32022 121.87028 
L 157.65942 117.197126 
L 163.01622 117.197126 
L 164.35542 110.257226 
L 169.71222 110.257226 
L 171.05142 102.557352 
L 176.40822 102.557352 
L 177.74742 93.423248 
L 203.19222 93.423248 
L 203.19222 93.423248 
" clip-path="url(#pa789699276)" style="fill: none; stroke: #d9524f; stroke-width: 1.5; stroke-linecap: square"/>
   </g>
   <g id="line2d_37">
    <path d="M -1 97.201715 
L 22.40022 97.201715 
L 23.73942 98.179658 
L 29.09622 98.179658 
L 30.43542 97.225496 
L 35.79222 97.225496 
L 37.13142 96.167937 
L 42.48822 96.167937 
L 43.82742 95.295408 
L 49.18422 95.295408 
L 50.52342 95.485391 
L 55.88022 95.485391 
L 57.21942 94.802306 
L 62.57622 94.802306 
L 63.91542 96.72484 
L 69.27222 96.72484 
L 70.61142 94.254086 
L 75.96822 94.254086 
L 77.30742 94.713372 
L 82.66422 94.713372 
L 84.00342 97.241205 
L 89.36022 97.241205 
L 90.69942 97.642426 
L 102.75222 97.626236 
L 104.09142 99.754366 
L 109.44822 99.754366 
L 110.78742 101.606978 
L 116.14422 101.606978 
L 117.48342 101.133458 
L 122.84022 101.133458 
L 124.17942 98.891297 
L 129.53622 98.891297 
L 130.87542 99.767556 
L 136.23222 99.767556 
L 137.57142 106.91129 
L 142.92822 106.91129 
L 144.26742 115.288102 
L 149.62422 115.288102 
L 150.96342 127.555986 
L 156.32022 127.555986 
L 157.65942 122.430613 
L 163.01622 122.430613 
L 164.35542 114.86344 
L 169.71222 114.86344 
L 171.05142 106.746013 
L 176.40822 106.746013 
L 177.74742 97.201715 
L 203.19222 97.201715 
L 203.19222 97.201715 
" clip-path="url(#pa789699276)" style="fill: none; stroke: #d9524f; stroke-width: 1.5; stroke-linecap: square"/>
   </g>
   <g id="line2d_38">
    <path d="M -1 100.976836 
L 22.40022 100.976836 
L 23.73942 101.981603 
L 29.09622 101.981603 
L 30.43542 100.969841 
L 35.79222 100.969841 
L 37.13142 99.86293 
L 42.48822 99.86293 
L 43.82742 98.948777 
L 49.18422 98.948777 
L 50.52342 99.177498 
L 55.88022 99.177498 
L 57.21942 98.51488 
L 62.57622 98.51488 
L 63.91542 100.669465 
L 69.27222 100.669465 
L 70.61142 98.302778 
L 75.96822 98.302778 
L 77.30742 99.002374 
L 82.66422 99.002374 
L 84.00342 101.909086 
L 89.36022 101.909086 
L 90.69942 102.380031 
L 102.75222 102.360401 
L 104.09142 104.614893 
L 109.44822 104.614893 
L 110.78742 106.548408 
L 116.14422 106.548408 
L 117.48342 105.978948 
L 122.84022 105.978948 
L 124.17942 103.564874 
L 129.53622 103.564874 
L 130.87542 104.618472 
L 136.23222 104.618472 
L 137.57142 112.083409 
L 142.92822 112.083409 
L 144.26742 120.618707 
L 149.62422 120.618707 
L 150.96342 133.227838 
L 156.32022 133.227838 
L 157.65942 127.652034 
L 163.01622 127.652034 
L 164.35542 119.460141 
L 169.71222 119.460141 
L 171.05142 110.928293 
L 176.40822 110.928293 
L 177.74742 100.976836 
L 203.19222 100.976836 
L 203.19222 100.976836 
" clip-path="url(#pa789699276)" style="fill: none; stroke: #d9524f; stroke-width: 1.5; stroke-linecap: square"/>
   </g>
   <g id="line2d_39">
    <path d="M -1 107.108383 
L 22.40022 107.108383 
L 23.73942 108.397888 
L 29.09622 108.397888 
L 30.43542 107.159062 
L 35.79222 107.159062 
L 37.13142 105.777181 
L 42.48822 105.777181 
L 43.82742 104.637749 
L 49.18422 104.637749 
L 50.52342 104.867611 
L 55.88022 104.867611 
L 57.21942 103.943136 
L 62.57622 103.943136 
L 63.91542 106.367036 
L 69.27222 106.367036 
L 70.61142 103.003746 
L 75.96822 103.003746 
L 77.30742 103.467598 
L 82.66422 103.467598 
L 84.00342 106.605767 
L 89.36022 106.605767 
L 90.69942 107.097806 
L 102.75222 107.078095 
L 104.09142 109.84145 
L 109.44822 109.84145 
L 110.78742 112.265915 
L 116.14422 112.265915 
L 117.48342 111.693581 
L 122.84022 111.693581 
L 124.17942 108.805818 
L 129.53622 108.805818 
L 130.87542 109.864278 
L 136.23222 109.864278 
L 137.57142 119.209785 
L 142.92822 119.209785 
L 144.26742 130.317729 
L 149.62422 130.317729 
L 150.96342 146.537579 
L 156.32022 146.537579 
L 157.65942 139.95311 
L 163.01622 139.95311 
L 164.35542 130.211742 
L 169.71222 130.211742 
L 171.05142 119.610296 
L 176.40822 119.610296 
L 177.74742 107.108383 
L 203.19222 107.108383 
L 203.19222 107.108383 
" clip-path="url(#pa789699276)" style="fill: none; stroke: #d9524f; stroke-width: 1.5; stroke-linecap: square"/>
   </g>
   <g id="line2d_40">
    <path d="M -1 101.348223 
L 22.40022 101.348223 
L 23.73942 102.676168 
L 29.09622 102.676168 
L 30.43542 101.481283 
L 35.79222 101.481283 
L 37.13142 100.110617 
L 42.48822 100.110617 
L 43.82742 98.982861 
L 49.18422 98.982861 
L 50.52342 99.133325 
L 55.88022 99.133325 
L 57.21942 98.080751 
L 62.57622 98.080751 
L 63.91542 100.115371 
L 69.27222 100.115371 
L 70.61142 96.212258 
L 82.66422 96.105837 
L 84.00342 98.541705 
L 89.36022 98.541705 
L 90.69942 98.897571 
L 102.75222 98.884885 
L 104.09142 101.554097 
L 109.44822 101.554097 
L 110.78742 103.971998 
L 116.14422 103.971998 
L 117.48342 103.59569 
L 122.84022 103.59569 
L 124.17942 100.90681 
L 129.53622 100.90681 
L 130.87542 101.602882 
L 136.23222 101.602882 
L 137.57142 110.900932 
L 142.92822 110.900932 
L 144.26742 122.526984 
L 149.62422 122.526984 
L 150.96342 139.242643 
L 156.32022 139.242643 
L 157.65942 133.252898 
L 163.01622 133.252898 
L 164.35542 124.286374 
L 169.71222 124.286374 
L 171.05142 113.852744 
L 176.40822 113.852744 
L 177.74742 101.348223 
L 203.19222 101.348223 
L 203.19222 101.348223 
" clip-path="url(#pa789699276)" style="fill: none; stroke: #d9524f; stroke-width: 1.5; stroke-linecap: square"/>
   </g>
   <g id="line2d_41">
    <path d="M -1 104.303212 
L 22.40022 104.303212 
L 23.73942 105.556923 
L 29.09622 105.556923 
L 30.43542 104.369162 
L 35.79222 104.369162 
L 37.13142 103.036414 
L 42.48822 103.036414 
L 43.82742 101.937964 
L 49.18422 101.937964 
L 50.52342 102.143649 
L 55.88022 102.143649 
L 57.21942 101.223995 
L 62.57622 101.223995 
L 63.91542 103.485931 
L 69.27222 103.485931 
L 70.61142 100.125688 
L 75.96822 100.125688 
L 77.30742 100.457999 
L 82.66422 100.457999 
L 84.00342 103.349246 
L 89.36022 103.349246 
L 90.69942 103.797493 
L 102.75222 103.779868 
L 104.09142 106.431503 
L 109.44822 106.431503 
L 110.78742 108.772993 
L 116.14422 108.772993 
L 117.48342 108.259056 
L 122.84022 108.259056 
L 124.17942 105.508425 
L 129.53622 105.508425 
L 130.87542 106.458803 
L 136.23222 106.458803 
L 137.57142 115.47927 
L 142.92822 115.47927 
L 144.26742 126.311667 
L 149.62422 126.311667 
L 150.96342 142.071225 
L 156.32022 142.071225 
L 157.65942 135.832845 
L 163.01622 135.832845 
L 164.35542 126.583596 
L 169.71222 126.583596 
L 171.05142 116.380092 
L 176.40822 116.380092 
L 177.74742 104.303212 
L 203.19222 104.303212 
L 203.19222 104.303212 
" clip-path="url(#pa789699276)" style="fill: none; stroke: #d9524f; stroke-width: 1.5; stroke-linecap: square"/>
   </g>
   <g id="line2d_42">
    <path d="M -1 106.27268 
L 22.40022 106.27268 
L 23.73942 107.547921 
L 29.09622 107.547921 
L 30.43542 106.32566 
L 35.79222 106.32566 
L 37.13142 104.960918 
L 42.48822 104.960918 
L 43.82742 103.835702 
L 49.18422 103.835702 
L 50.52342 104.059948 
L 55.88022 104.059948 
L 57.21942 103.142114 
L 62.57622 103.142114 
L 63.91542 105.523303 
L 69.27222 105.523303 
L 70.61142 102.182503 
L 75.96822 102.182503 
L 77.30742 102.622742 
L 82.66422 102.622742 
L 84.00342 105.702834 
L 89.36022 105.702834 
L 90.69942 106.185217 
L 102.75222 106.165935 
L 104.09142 108.893933 
L 109.44822 108.893933 
L 110.78742 111.289458 
L 116.14422 111.289458 
L 117.48342 110.729277 
L 122.84022 110.729277 
L 124.17942 107.881443 
L 129.53622 107.881443 
L 130.87542 108.9172 
L 136.23222 108.9172 
L 137.57142 118.150431 
L 142.92822 118.150431 
L 144.26742 129.139598 
L 149.62422 129.139598 
L 150.96342 145.178598 
L 156.32022 145.178598 
L 157.65942 138.689851 
L 163.01622 138.689851 
L 164.35542 129.090189 
L 169.71222 129.090189 
L 171.05142 118.623039 
L 176.40822 118.623039 
L 177.74742 106.27268 
L 203.19222 106.27268 
L 203.19222 106.27268 
" clip-path="url(#pa789699276)" style="fill: none; stroke: #d9524f; stroke-width: 1.5; stroke-linecap: square"/>
   </g>
   <g id="line2d_43">
    <path d="M -1 64.525756 
L 22.40022 64.525756 
L 23.73942 64.262668 
L 29.09622 64.262668 
L 30.43542 63.568063 
L 35.79222 63.568063 
L 37.13142 62.963219 
L 42.48822 62.963219 
L 43.82742 62.411824 
L 49.18422 62.411824 
L 50.52342 63.401686 
L 55.88022 63.401686 
L 57.21942 65.023781 
L 62.57622 65.023781 
L 63.91542 69.710109 
L 69.27222 69.710109 
L 70.61142 75.235885 
L 75.96822 75.235885 
L 77.30742 81.70906 
L 82.66422 81.70906 
L 84.00342 87.55874 
L 89.36022 87.55874 
L 90.69942 88.894403 
L 96.05622 88.894403 
L 97.39542 87.488684 
L 102.75222 87.488684 
L 104.09142 88.893485 
L 109.44822 88.893485 
L 110.78742 89.343218 
L 116.14422 89.343218 
L 117.48342 87.00642 
L 122.84022 87.00642 
L 124.17942 83.641951 
L 129.53622 83.641951 
L 130.87542 84.169985 
L 142.92822 84.081893 
L 144.26742 81.71714 
L 149.62422 81.71714 
L 150.96342 79.44795 
L 156.32022 79.44795 
L 157.65942 74.654091 
L 163.01622 74.654091 
L 164.35542 69.657905 
L 169.71222 69.657905 
L 171.05142 66.879675 
L 176.40822 66.879675 
L 177.74742 64.525756 
L 203.19222 64.525756 
L 203.19222 64.525756 
" clip-path="url(#pa789699276)" style="fill: none; stroke: #5cb85c; stroke-width: 1.5; stroke-linecap: square"/>
   </g>
   <g id="line2d_44">
    <path d="M -1 87.359473 
L 22.40022 87.359473 
L 23.73942 86.929693 
L 29.09622 86.929693 
L 30.43542 85.941884 
L 35.79222 85.941884 
L 37.13142 85.072321 
L 42.48822 85.072321 
L 43.82742 84.274774 
L 49.18422 84.274774 
L 50.52342 85.735173 
L 55.88022 85.735173 
L 57.21942 88.178798 
L 62.57622 88.178798 
L 63.91542 94.992545 
L 69.27222 94.992545 
L 70.61142 103.183008 
L 75.96822 103.183008 
L 77.30742 112.571596 
L 82.66422 112.571596 
L 84.00342 120.656027 
L 89.36022 120.656027 
L 90.69942 122.523386 
L 96.05622 122.523386 
L 97.39542 120.386993 
L 102.75222 120.386993 
L 104.09142 122.273798 
L 109.44822 122.273798 
L 110.78742 122.812352 
L 116.14422 122.812352 
L 117.48342 119.494209 
L 122.84022 119.494209 
L 124.17942 114.724649 
L 129.53622 114.724649 
L 130.87542 115.087976 
L 136.23222 115.087976 
L 137.57142 114.34332 
L 142.92822 114.34332 
L 144.26742 110.611262 
L 149.62422 110.611262 
L 150.96342 106.593647 
L 156.32022 106.593647 
L 157.65942 100.364943 
L 163.01622 100.364943 
L 164.35542 94.033305 
L 169.71222 94.033305 
L 171.05142 90.439112 
L 176.40822 90.439112 
L 177.74742 87.359473 
L 203.19222 87.359473 
L 203.19222 87.359473 
" clip-path="url(#pa789699276)" style="fill: none; stroke: #5cb85c; stroke-width: 1.5; stroke-linecap: square"/>
   </g>
   <g id="line2d_45">
    <path d="M -1 69.946684 
L 22.40022 69.946684 
L 23.73942 69.774645 
L 29.09622 69.774645 
L 30.43542 69.51276 
L 35.79222 69.51276 
L 37.13142 69.679624 
L 42.48822 69.679624 
L 43.82742 69.83199 
L 49.18422 69.83199 
L 50.52342 70.230496 
L 55.88022 70.230496 
L 57.21942 70.66448 
L 62.57622 70.66448 
L 63.91542 73.011826 
L 69.27222 73.011826 
L 70.61142 76.293734 
L 75.96822 76.293734 
L 77.30742 79.853443 
L 82.66422 79.853443 
L 84.00342 86.639557 
L 89.36022 86.639557 
L 90.69942 87.77463 
L 96.05622 87.77463 
L 97.39542 88.93692 
L 102.75222 88.93692 
L 104.09142 89.611317 
L 116.14422 89.658659 
L 117.48342 88.418518 
L 122.84022 88.418518 
L 124.17942 87.755379 
L 129.53622 87.755379 
L 130.87542 93.532355 
L 136.23222 93.532355 
L 137.57142 95.904464 
L 142.92822 95.904464 
L 144.26742 91.620912 
L 149.62422 91.620912 
L 150.96342 89.69122 
L 156.32022 89.69122 
L 157.65942 82.662882 
L 163.01622 82.662882 
L 164.35542 72.374206 
L 169.71222 72.374206 
L 171.05142 69.9473 
L 203.19222 69.946684 
L 203.19222 69.946684 
" clip-path="url(#pa789699276)" style="fill: none; stroke: #337ab7; stroke-width: 1.5; stroke-linecap: square"/>
   </g>
   <g id="line2d_46">
    <path d="M -1 75.15895 
L 22.40022 75.15895 
L 23.73942 74.981521 
L 29.09622 74.981521 
L 30.43542 74.632668 
L 35.79222 74.632668 
L 37.13142 74.777392 
L 42.48822 74.777392 
L 43.82742 74.912229 
L 49.18422 74.912229 
L 50.52342 75.404863 
L 55.88022 75.404863 
L 57.21942 75.930821 
L 62.57622 75.930821 
L 63.91542 78.822572 
L 69.27222 78.822572 
L 70.61142 82.687096 
L 75.96822 82.687096 
L 77.30742 86.981198 
L 82.66422 86.981198 
L 84.00342 95.039333 
L 89.36022 95.039333 
L 90.69942 96.396236 
L 96.05622 96.396236 
L 97.39542 97.700054 
L 102.75222 97.700054 
L 104.09142 98.576445 
L 109.44822 98.576445 
L 110.78742 98.695672 
L 116.14422 98.695672 
L 117.48342 97.188749 
L 122.84022 97.188749 
L 124.17942 96.269683 
L 129.53622 96.269683 
L 130.87542 102.978705 
L 136.23222 102.978705 
L 137.57142 105.917879 
L 142.92822 105.917879 
L 144.26742 101.142367 
L 149.62422 101.142367 
L 150.96342 99.194089 
L 156.32022 99.194089 
L 157.65942 90.814098 
L 163.01622 90.814098 
L 164.35542 78.604396 
L 169.71222 78.604396 
L 171.05142 75.499801 
L 176.40822 75.499801 
L 177.74742 75.15895 
L 203.19222 75.15895 
L 203.19222 75.15895 
" clip-path="url(#pa789699276)" style="fill: none; stroke: #337ab7; stroke-width: 1.5; stroke-linecap: square"/>
   </g>
   <g id="line2d_47">
    <path d="M -1 80.37028 
L 22.40022 80.37028 
L 23.73942 80.18736 
L 29.09622 80.18736 
L 30.43542 79.751501 
L 35.79222 79.751501 
L 37.13142 79.874227 
L 42.48822 79.874227 
L 43.82742 79.991653 
L 49.18422 79.991653 
L 50.52342 80.578515 
L 55.88022 80.578515 
L 57.21942 81.196563 
L 62.57622 81.196563 
L 63.91542 84.633135 
L 69.27222 84.633135 
L 70.61142 89.080419 
L 75.96822 89.080419 
L 77.30742 94.108315 
L 82.66422 94.108315 
L 84.00342 103.434881 
L 89.36022 103.434881 
L 90.69942 105.012733 
L 96.05622 105.012733 
L 97.39542 106.456744 
L 102.75222 106.456744 
L 104.09142 107.534791 
L 109.44822 107.534791 
L 110.78742 107.726118 
L 116.14422 107.726118 
L 117.48342 105.953421 
L 122.84022 105.953421 
L 124.17942 104.778516 
L 129.53622 104.778516 
L 130.87542 112.412486 
L 136.23222 112.412486 
L 137.57142 115.91612 
L 142.92822 115.91612 
L 144.26742 110.655783 
L 149.62422 110.655783 
L 150.96342 108.692127 
L 156.32022 108.692127 
L 157.65942 98.964464 
L 163.01622 98.964464 
L 164.35542 84.833655 
L 169.71222 84.833655 
L 171.05142 81.050789 
L 176.40822 81.050789 
L 177.74742 80.37028 
L 203.19222 80.37028 
L 203.19222 80.37028 
" clip-path="url(#pa789699276)" style="fill: none; stroke: #337ab7; stroke-width: 1.5; stroke-linecap: square"/>
   </g>
   <g id="line2d_48">
    <path d="M -1 83.293426 
L 22.40022 83.293426 
L 23.73942 83.123708 
L 29.09622 83.123708 
L 30.43542 82.649466 
L 42.48822 82.739121 
L 45.16662 82.828339 
L 49.18422 82.828339 
L 50.52342 83.445204 
L 55.88022 83.445204 
L 57.21942 84.088056 
L 62.57622 84.088056 
L 63.91542 87.693504 
L 69.27222 87.693504 
L 70.61142 92.242939 
L 75.96822 92.242939 
L 77.30742 97.456174 
L 82.66422 97.456174 
L 84.00342 107.035536 
L 89.36022 107.035536 
L 90.69942 108.661716 
L 96.05622 108.661716 
L 97.39542 110.090936 
L 102.75222 110.090936 
L 104.09142 111.250064 
L 109.44822 111.250064 
L 110.78742 111.49035 
L 116.14422 111.49035 
L 117.48342 109.646935 
L 122.84022 109.646935 
L 124.17942 108.349353 
L 129.53622 108.349353 
L 130.87542 116.078082 
L 136.23222 116.078082 
L 137.57142 119.757416 
L 142.92822 119.757416 
L 144.26742 114.578821 
L 149.62422 114.578821 
L 150.96342 112.803144 
L 156.32022 112.803144 
L 157.65942 102.789891 
L 163.01622 102.789891 
L 164.35542 88.270165 
L 169.71222 88.270165 
L 171.05142 84.226491 
L 176.40822 84.226491 
L 177.74742 83.293426 
L 203.19222 83.293426 
L 203.19222 83.293426 
" clip-path="url(#pa789699276)" style="fill: none; stroke: #337ab7; stroke-width: 1.5; stroke-linecap: square"/>
   </g>
   <g id="line2d_49">
    <path d="M -1 86.216122 
L 22.40022 86.216122 
L 23.73942 86.059559 
L 29.09622 86.059559 
L 30.43542 85.546919 
L 42.48822 85.603567 
L 45.16662 85.66463 
L 49.18422 85.66463 
L 50.52342 86.311541 
L 55.88022 86.311541 
L 57.21942 86.979249 
L 62.57622 86.979249 
L 63.91542 90.753762 
L 69.27222 90.753762 
L 70.61142 95.405455 
L 75.96822 95.405455 
L 77.30742 100.803837 
L 82.66422 100.803837 
L 84.00342 110.634653 
L 89.36022 110.634653 
L 90.69942 112.308822 
L 96.05622 112.308822 
L 97.39542 113.722728 
L 102.75222 113.722728 
L 104.09142 114.962808 
L 109.44822 114.962808 
L 110.78742 115.25214 
L 116.14422 115.25214 
L 117.48342 113.338398 
L 122.84022 113.338398 
L 124.17942 111.918169 
L 129.53622 111.918169 
L 130.87542 119.738861 
L 136.23222 119.738861 
L 137.57142 123.592862 
L 142.92822 123.592862 
L 144.26742 118.498846 
L 149.62422 118.498846 
L 150.96342 116.912406 
L 156.32022 116.912406 
L 157.65942 106.615057 
L 163.01622 106.615057 
L 164.35542 91.706212 
L 169.71222 91.706212 
L 171.05142 87.401481 
L 176.40822 87.401481 
L 177.74742 86.216122 
L 203.19222 86.216122 
L 203.19222 86.216122 
" clip-path="url(#pa789699276)" style="fill: none; stroke: #337ab7; stroke-width: 1.5; stroke-linecap: square"/>
   </g>
   <g id="line2d_50">
    <path d="M -1 87.92829 
L 22.40022 87.92829 
L 23.73942 87.78657 
L 29.09622 87.78657 
L 30.43542 87.255939 
L 49.18422 87.32061 
L 50.52342 87.975175 
L 55.88022 87.975175 
L 57.21942 88.645745 
L 62.57622 88.645745 
L 63.91542 92.459874 
L 69.27222 92.459874 
L 70.61142 97.073778 
L 75.96822 97.073778 
L 77.30742 102.482739 
L 82.66422 102.482739 
L 84.00342 112.2632 
L 89.36022 112.2632 
L 90.69942 113.933053 
L 96.05622 113.933053 
L 97.39542 115.297767 
L 102.75222 115.297767 
L 104.09142 116.571728 
L 109.44822 116.571728 
L 110.78742 116.893589 
L 116.14422 116.893589 
L 117.48342 114.972135 
L 122.84022 114.972135 
L 124.17942 113.48869 
L 129.53622 113.48869 
L 130.87542 121.181596 
L 136.23222 121.181596 
L 137.57142 125.078256 
L 142.92822 125.078256 
L 144.26742 120.185342 
L 149.62422 120.185342 
L 150.96342 118.794763 
L 156.32022 118.794763 
L 157.65942 108.53306 
L 163.01622 108.53306 
L 164.35542 93.694786 
L 169.71222 93.694786 
L 171.05142 89.288953 
L 176.40822 89.288953 
L 177.74742 87.92829 
L 203.19222 87.92829 
L 203.19222 87.92829 
" clip-path="url(#pa789699276)" style="fill: none; stroke: #337ab7; stroke-width: 1.5; stroke-linecap: square"/>
   </g>
   <g id="line2d_51">
    <path d="M -1 89.64019 
L 22.40022 89.64019 
L 23.73942 89.513295 
L 29.09622 89.513295 
L 30.43542 88.964668 
L 49.18422 88.976351 
L 50.52342 89.638587 
L 55.88022 89.638587 
L 57.21942 90.312042 
L 62.57622 90.312042 
L 63.91542 94.165871 
L 69.27222 94.165871 
L 70.61142 98.742085 
L 75.96822 98.742085 
L 77.30742 104.161635 
L 82.66422 104.161635 
L 84.00342 113.891497 
L 89.36022 113.891497 
L 90.69942 115.556959 
L 96.05622 115.556959 
L 97.39542 116.872357 
L 102.75222 116.872357 
L 104.09142 118.180175 
L 109.44822 118.180175 
L 110.78742 118.534588 
L 116.14422 118.534588 
L 117.48342 116.60551 
L 122.84022 116.60551 
L 124.17942 115.058849 
L 129.53622 115.058849 
L 130.87542 122.623281 
L 136.23222 122.623281 
L 137.57142 126.562353 
L 142.92822 126.562353 
L 144.26742 121.871265 
L 149.62422 121.871265 
L 150.96342 120.676848 
L 156.32022 120.676848 
L 157.65942 110.451056 
L 163.01622 110.451056 
L 164.35542 95.68306 
L 169.71222 95.68306 
L 171.05142 91.176035 
L 176.40822 91.176035 
L 177.74742 89.64019 
L 203.19222 89.64019 
L 203.19222 89.64019 
" clip-path="url(#pa789699276)" style="fill: none; stroke: #337ab7; stroke-width: 1.5; stroke-linecap: square"/>
   </g>
   <g id="line2d_52">
    <path d="M -1 91.351663 
L 22.40022 91.351663 
L 23.73942 91.239583 
L 29.09622 91.239583 
L 30.43542 90.672967 
L 49.18422 90.631689 
L 50.52342 91.301595 
L 55.88022 91.301595 
L 57.21942 91.977933 
L 62.57622 91.977933 
L 63.91542 95.871443 
L 69.27222 95.871443 
L 70.61142 100.409895 
L 75.96822 100.409895 
L 77.30742 105.839871 
L 82.66422 105.839871 
L 84.00342 115.518543 
L 89.36022 115.518543 
L 90.69942 117.179482 
L 96.05622 117.179482 
L 97.39542 118.445374 
L 102.75222 118.445374 
L 104.09142 119.786997 
L 109.44822 119.786997 
L 110.78742 120.173991 
L 116.14422 120.173991 
L 117.48342 118.237435 
L 122.84022 118.237435 
L 124.17942 116.627577 
L 129.53622 116.627577 
L 130.87542 124.062536 
L 136.23222 124.062536 
L 137.57142 128.043662 
L 142.92822 128.043662 
L 144.26742 123.555379 
L 149.62422 123.555379 
L 150.96342 122.557566 
L 156.32022 122.557566 
L 157.65942 112.368299 
L 163.01622 112.368299 
L 164.35542 97.670803 
L 169.71222 97.670803 
L 171.05142 93.062598 
L 176.40822 93.062598 
L 177.74742 91.351663 
L 203.19222 91.351663 
L 203.19222 91.351663 
" clip-path="url(#pa789699276)" style="fill: none; stroke: #337ab7; stroke-width: 1.5; stroke-linecap: square"/>
   </g>
   <g id="line2d_53">
    <path d="M -1 92.578439 
L 29.09622 92.497511 
L 30.43542 91.931238 
L 42.48822 91.856144 
L 46.50582 91.802653 
L 49.18422 91.802653 
L 50.52342 92.449152 
L 55.88022 92.449152 
L 57.21942 93.093625 
L 62.57622 93.093625 
L 63.91542 96.842813 
L 69.27222 96.842813 
L 70.61142 101.071145 
L 75.96822 101.071145 
L 77.30742 106.224087 
L 82.66422 106.224087 
L 84.00342 115.291891 
L 89.36022 115.291891 
L 90.69942 116.855232 
L 96.05622 116.855232 
L 97.39542 117.969424 
L 102.75222 117.969424 
L 104.09142 119.295162 
L 109.44822 119.295162 
L 110.78742 119.715921 
L 116.14422 119.715921 
L 117.48342 117.871737 
L 122.84022 117.871737 
L 124.17942 116.242932 
L 129.53622 116.242932 
L 130.87542 123.058349 
L 136.23222 123.058349 
L 137.57142 126.894729 
L 142.92822 126.894729 
L 144.26742 122.98949 
L 149.62422 122.98949 
L 150.96342 122.376236 
L 156.32022 122.376236 
L 157.65942 112.801513 
L 163.01622 112.801513 
L 164.35542 99.021638 
L 169.71222 99.021638 
L 171.05142 94.492678 
L 176.40822 94.492678 
L 177.74742 92.578439 
L 203.19222 92.578439 
L 203.19222 92.578439 
" clip-path="url(#pa789699276)" style="fill: none; stroke: #337ab7; stroke-width: 1.5; stroke-linecap: square"/>
   </g>
   <g id="line2d_54">
    <path d="M -1 85.580449 
L 22.40022 85.580449 
L 23.73942 85.371506 
L 29.09622 85.371506 
L 30.43542 84.835604 
L 35.79222 84.835604 
L 37.13142 84.962513 
L 42.48822 84.962513 
L 43.82742 85.085793 
L 49.18422 85.085793 
L 50.52342 85.795569 
L 55.88022 85.795569 
L 57.21942 86.539416 
L 62.57622 86.539416 
L 63.91542 90.692251 
L 69.27222 90.692251 
L 70.61142 96.00345 
L 75.96822 96.00345 
L 77.30742 102.047215 
L 82.66422 102.047215 
L 84.00342 113.21074 
L 89.36022 113.21074 
L 90.69942 115.102878 
L 96.05622 115.102878 
L 97.39542 116.80181 
L 102.75222 116.80181 
L 104.09142 118.121357 
L 109.44822 118.121357 
L 110.78742 118.374649 
L 116.14422 118.374649 
L 117.48342 116.23946 
L 122.84022 116.23946 
L 124.17942 114.782389 
L 129.53622 114.782389 
L 130.87542 123.860922 
L 136.23222 123.860922 
L 137.57142 128.102225 
L 142.92822 128.102225 
L 144.26742 121.925947 
L 149.62422 121.925947 
L 150.96342 119.706385 
L 156.32022 119.706385 
L 157.65942 108.04751 
L 163.01622 108.04751 
L 164.35542 91.133204 
L 169.71222 91.133204 
L 171.05142 86.521773 
L 176.40822 86.521773 
L 177.74742 85.580449 
L 203.19222 85.580449 
L 203.19222 85.580449 
" clip-path="url(#pa789699276)" style="fill: none; stroke: #337ab7; stroke-width: 1.5; stroke-linecap: square"/>
   </g>
   <g id="line2d_55">
    <path d="M -1 89.061208 
L 22.40022 89.061208 
L 23.73942 88.88498 
L 29.09622 88.88498 
L 30.43542 88.314651 
L 42.48822 88.380696 
L 45.16662 88.451233 
L 49.18422 88.451233 
L 50.52342 89.1724 
L 55.88022 89.1724 
L 57.21942 89.91721 
L 62.57622 89.91721 
L 63.91542 94.124099 
L 69.27222 94.124099 
L 70.61142 99.313148 
L 75.96822 99.313148 
L 77.30742 105.32631 
L 82.66422 105.32631 
L 84.00342 116.268159 
L 89.36022 116.268159 
L 90.69942 118.129661 
L 96.05622 118.129661 
L 97.39542 119.702649 
L 102.75222 119.702649 
L 104.09142 121.079806 
L 109.44822 121.079806 
L 110.78742 121.400417 
L 116.14422 121.400417 
L 117.48342 119.273704 
L 122.84022 119.273704 
L 124.17942 117.696964 
L 129.53622 117.696964 
L 130.87542 126.386782 
L 136.23222 126.386782 
L 137.57142 130.663961 
L 142.92822 130.663961 
L 144.26742 125.006015 
L 149.62422 125.006015 
L 150.96342 123.236649 
L 156.32022 123.236649 
L 157.65942 111.780306 
L 163.01622 111.780306 
L 164.35542 95.159017 
L 169.71222 95.159017 
L 171.05142 90.365947 
L 176.40822 90.365947 
L 177.74742 89.061208 
L 203.19222 89.061208 
L 203.19222 89.061208 
" clip-path="url(#pa789699276)" style="fill: none; stroke: #337ab7; stroke-width: 1.5; stroke-linecap: square"/>
   </g>
   <g id="line2d_56">
    <path d="M -1 91.094237 
L 22.40022 91.094237 
L 23.73942 90.849161 
L 29.09622 90.849161 
L 30.43542 90.201772 
L 35.79222 90.201772 
L 37.13142 90.344024 
L 42.48822 90.344024 
L 43.82742 90.483195 
L 49.18422 90.483195 
L 50.52342 91.335175 
L 55.88022 91.335175 
L 57.21942 92.226341 
L 62.57622 92.226341 
L 63.91542 97.208872 
L 69.27222 97.208872 
L 70.61142 103.549351 
L 75.96822 103.549351 
L 77.30742 110.781019 
L 82.66422 110.781019 
L 84.00342 124.106815 
L 89.36022 124.106815 
L 90.69942 126.366175 
L 96.05622 126.366175 
L 97.39542 128.376996 
L 102.75222 128.376996 
L 104.09142 129.966542 
L 109.44822 129.966542 
L 110.78742 130.281689 
L 116.14422 130.281689 
L 117.48342 127.727609 
L 122.84022 127.727609 
L 124.17942 125.962314 
L 129.53622 125.962314 
L 130.87542 136.755559 
L 136.23222 136.755559 
L 137.57142 141.83648 
L 142.92822 141.83648 
L 144.26742 134.540611 
L 149.62422 134.540611 
L 150.96342 131.963228 
L 156.32022 131.963228 
L 157.65942 118.040182 
L 163.01622 118.040182 
L 164.35542 97.83159 
L 169.71222 97.83159 
L 171.05142 92.279271 
L 176.40822 92.279271 
L 177.74742 91.094237 
L 203.19222 91.094237 
L 203.19222 91.094237 
" clip-path="url(#pa789699276)" style="fill: none; stroke: #337ab7; stroke-width: 1.5; stroke-linecap: square"/>
   </g>
   <g id="line2d_57">
    <path d="M -1 91.094237 
L 22.40022 91.094237 
L 23.73942 90.849161 
L 29.09622 90.849161 
L 30.43542 90.201772 
L 35.79222 90.201772 
L 37.13142 90.344024 
L 42.48822 90.344024 
L 43.82742 90.483195 
L 49.18422 90.483195 
L 50.52342 91.335175 
L 55.88022 91.335175 
L 57.21942 92.226341 
L 62.57622 92.226341 
L 63.91542 97.208872 
L 69.27222 97.208872 
L 70.61142 103.549351 
L 75.96822 103.549351 
L 77.30742 110.781019 
L 82.66422 110.781019 
L 84.00342 124.106815 
L 89.36022 124.106815 
L 90.69942 126.366175 
L 96.05622 126.366175 
L 97.39542 128.376996 
L 102.75222 128.376996 
L 104.09142 129.966542 
L 109.44822 129.966542 
L 110.78742 130.281689 
L 116.14422 130.281689 
L 117.48342 127.727609 
L 122.84022 127.727609 
L 124.17942 125.962314 
L 129.53622 125.962314 
L 130.87542 136.755559 
L 136.23222 136.755559 
L 137.57142 141.83648 
L 142.92822 141.83648 
L 144.26742 134.540611 
L 149.62422 134.540611 
L 150.96342 131.963228 
L 156.32022 131.963228 
L 157.65942 118.040182 
L 163.01622 118.040182 
L 164.35542 97.83159 
L 169.71222 97.83159 
L 171.05142 92.279271 
L 176.40822 92.279271 
L 177.74742 91.094237 
L 203.19222 91.094237 
L 203.19222 91.094237 
" clip-path="url(#pa789699276)" style="fill: none; stroke: #337ab7; stroke-width: 1.5; stroke-linecap: square"/>
   </g>
   <g id="line2d_58">
    <path d="M -1 88.117899 
L 22.40022 88.117899 
L 23.73942 87.822831 
L 29.09622 87.822831 
L 30.43542 87.190691 
L 35.79222 87.190691 
L 37.13142 87.41297 
L 42.48822 87.41297 
L 43.82742 87.622157 
L 49.18422 87.622157 
L 50.52342 88.495457 
L 55.88022 88.495457 
L 57.21942 89.422322 
L 62.57622 89.422322 
L 63.91542 94.545628 
L 69.27222 94.545628 
L 70.61142 101.300458 
L 75.96822 101.300458 
L 77.30742 108.874705 
L 82.66422 108.874705 
L 84.00342 123.043623 
L 89.36022 123.043623 
L 90.69942 125.438666 
L 96.05622 125.438666 
L 97.39542 127.692392 
L 102.75222 127.692392 
L 104.09142 129.280104 
L 109.44822 129.280104 
L 110.78742 129.525815 
L 116.14422 129.525815 
L 117.48342 126.849981 
L 122.84022 126.849981 
L 124.17942 125.155649 
L 129.53622 125.155649 
L 130.87542 136.902944 
L 136.23222 136.902944 
L 137.57142 142.165168 
L 142.92822 142.165168 
L 144.26742 133.903767 
L 149.62422 133.903767 
L 150.96342 130.656918 
L 156.32022 130.656918 
L 157.65942 115.884861 
L 163.01622 115.884861 
L 164.35542 94.468924 
L 169.71222 94.468924 
L 171.05142 88.908865 
L 176.40822 88.908865 
L 177.74742 88.117899 
L 203.19222 88.117899 
L 203.19222 88.117899 
" clip-path="url(#pa789699276)" style="fill: none; stroke: #337ab7; stroke-width: 1.5; stroke-linecap: square"/>
   </g>
   <g id="line2d_59">
    <path d="M -1 90.256903 
L 22.40022 90.256903 
L 23.73942 90.115598 
L 29.09622 90.115598 
L 30.43542 89.548351 
L 49.18422 89.588753 
L 50.52342 90.280929 
L 55.88022 90.280929 
L 57.21942 90.987431 
L 62.57622 90.987431 
L 63.91542 95.01759 
L 69.27222 95.01759 
L 70.61142 99.846774 
L 75.96822 99.846774 
L 77.30742 105.535333 
L 82.66422 105.535333 
L 84.00342 115.779342 
L 89.36022 115.779342 
L 90.69942 117.529997 
L 96.05622 117.529997 
L 97.39542 118.935575 
L 102.75222 118.935575 
L 104.09142 120.291283 
L 109.44822 120.291283 
L 110.78742 120.646908 
L 116.14422 120.646908 
L 117.48342 118.625862 
L 122.84022 118.625862 
L 124.17942 117.034126 
L 129.53622 117.034126 
L 130.87542 125.036538 
L 136.23222 125.036538 
L 137.57142 129.148016 
L 142.92822 129.148016 
L 144.26742 124.126019 
L 149.62422 124.126019 
L 150.96342 122.773003 
L 156.32022 122.773003 
L 157.65942 112.017292 
L 163.01622 112.017292 
L 164.35542 96.462138 
L 169.71222 96.462138 
L 171.05142 91.778097 
L 176.40822 91.778097 
L 177.74742 90.256903 
L 203.19222 90.256903 
L 203.19222 90.256903 
" clip-path="url(#pa789699276)" style="fill: none; stroke: #337ab7; stroke-width: 1.5; stroke-linecap: square"/>
   </g>
   <g id="line2d_60">
    <path d="M -1 92.458965 
L 22.40022 92.458965 
L 23.73942 92.343649 
L 29.09622 92.343649 
L 30.43542 91.758089 
L 49.18422 91.713918 
L 50.52342 92.405825 
L 55.88022 92.405825 
L 57.21942 93.104197 
L 62.57622 93.104197 
L 63.91542 97.12451 
L 69.27222 97.12451 
L 70.61142 101.805954 
L 75.96822 101.805954 
L 77.30742 107.406447 
L 82.66422 107.406447 
L 84.00342 117.377837 
L 89.36022 117.377837 
L 90.69942 119.088215 
L 96.05622 119.088215 
L 97.39542 120.3884 
L 102.75222 120.3884 
L 104.09142 121.772129 
L 109.44822 121.772129 
L 110.78742 122.172826 
L 116.14422 122.172826 
L 117.48342 120.178299 
L 122.84022 120.178299 
L 124.17942 118.516199 
L 129.53622 118.516199 
L 130.87542 126.159706 
L 136.23222 126.159706 
L 137.57142 130.258898 
L 142.92822 130.258898 
L 144.26742 125.656755 
L 149.62422 125.656755 
L 150.96342 124.642154 
L 156.32022 124.642154 
L 157.65942 114.14725 
L 163.01622 114.14725 
L 164.35542 98.989497 
L 169.71222 98.989497 
L 171.05142 94.229882 
L 176.40822 94.229882 
L 177.74742 92.458965 
L 203.19222 92.458965 
L 203.19222 92.458965 
" clip-path="url(#pa789699276)" style="fill: none; stroke: #337ab7; stroke-width: 1.5; stroke-linecap: square"/>
   </g>
   <g id="line2d_61">
    <path d="M -1 95.008033 
L 22.40022 95.008033 
L 23.73942 94.806492 
L 29.09622 94.806492 
L 30.43542 94.124248 
L 42.48822 94.189266 
L 45.16662 94.261354 
L 49.18422 94.261354 
L 50.52342 95.117248 
L 55.88022 95.117248 
L 57.21942 95.999057 
L 62.57622 95.999057 
L 63.91542 100.991622 
L 69.27222 100.991622 
L 70.61142 107.115148 
L 75.96822 107.115148 
L 77.30742 114.241625 
L 82.66422 114.241625 
L 84.00342 127.195479 
L 89.36022 127.195479 
L 90.69942 129.403398 
L 96.05622 129.403398 
L 97.39542 131.249967 
L 102.75222 131.249967 
L 104.09142 132.90008 
L 109.44822 132.90008 
L 110.78742 133.294739 
L 116.14422 133.294739 
L 117.48342 130.765583 
L 122.84022 130.765583 
L 124.17942 128.866233 
L 129.53622 128.866233 
L 130.87542 139.135505 
L 136.23222 139.135505 
L 137.57142 144.23996 
L 142.92822 144.23996 
L 144.26742 137.596736 
L 149.62422 137.596736 
L 150.96342 135.576415 
L 156.32022 135.576415 
L 157.65942 121.994398 
L 163.01622 121.994398 
L 164.35542 102.342047 
L 169.71222 102.342047 
L 171.05142 96.629768 
L 176.40822 96.629768 
L 177.74742 95.008033 
L 203.19222 95.008033 
L 203.19222 95.008033 
" clip-path="url(#pa789699276)" style="fill: none; stroke: #337ab7; stroke-width: 1.5; stroke-linecap: square"/>
   </g>
   <g id="line2d_62">
    <path d="M -1 90.810088 
L 22.40022 90.810088 
L 23.73942 90.650116 
L 29.09622 90.650116 
L 30.43542 90.061957 
L 49.18422 90.141624 
L 50.52342 90.869268 
L 55.88022 90.869268 
L 57.21942 91.61543 
L 62.57622 91.61543 
L 63.91542 95.855451 
L 69.27222 95.855451 
L 70.61142 100.995038 
L 75.96822 100.995038 
L 77.30742 107.010712 
L 82.66422 107.010712 
L 84.00342 117.890344 
L 89.36022 117.890344 
L 90.69942 119.746525 
L 96.05622 119.746525 
L 97.39542 121.267965 
L 102.75222 121.267965 
L 104.09142 122.679909 
L 109.44822 122.679909 
L 110.78742 123.034148 
L 116.14422 123.034148 
L 117.48342 120.900002 
L 122.84022 120.900002 
L 124.17942 119.258204 
L 129.53622 119.258204 
L 130.87542 127.815519 
L 136.23222 127.815519 
L 137.57142 132.138003 
L 142.92822 132.138003 
L 144.26742 126.685864 
L 149.62422 126.685864 
L 150.96342 125.119763 
L 156.32022 125.119763 
L 157.65942 113.708329 
L 163.01622 113.708329 
L 164.35542 97.188715 
L 169.71222 97.188715 
L 171.05142 92.298882 
L 176.40822 92.298882 
L 177.74742 90.810088 
L 203.19222 90.810088 
L 203.19222 90.810088 
" clip-path="url(#pa789699276)" style="fill: none; stroke: #337ab7; stroke-width: 1.5; stroke-linecap: square"/>
   </g>
   <g id="line2d_63">
    <path d="M -1 92.979138 
L 22.40022 92.979138 
L 23.73942 92.812086 
L 29.09622 92.812086 
L 30.43542 92.183846 
L 49.18422 92.258161 
L 50.52342 93.032574 
L 55.88022 93.032574 
L 57.21942 93.825791 
L 62.57622 93.825791 
L 63.91542 98.338251 
L 69.27222 98.338251 
L 70.61142 103.793303 
L 75.96822 103.793303 
L 77.30742 110.191098 
L 82.66422 110.191098 
L 84.00342 121.755299 
L 89.36022 121.755299 
L 90.69942 123.72997 
L 96.05622 123.72997 
L 97.39542 125.340272 
L 102.75222 125.340272 
L 104.09142 126.849512 
L 109.44822 126.849512 
L 110.78742 127.232592 
L 116.14422 127.232592 
L 117.48342 124.959362 
L 122.84022 124.959362 
L 124.17942 123.200201 
L 129.53622 123.200201 
L 130.87542 132.287375 
L 136.23222 132.287375 
L 137.57142 136.898914 
L 142.92822 136.898914 
L 144.26742 131.128478 
L 149.62422 131.128478 
L 150.96342 129.497205 
L 156.32022 129.497205 
L 157.65942 117.359636 
L 163.01622 117.359636 
L 164.35542 99.80987 
L 169.71222 99.80987 
L 171.05142 94.594865 
L 176.40822 94.594865 
L 177.74742 92.979138 
L 203.19222 92.979138 
L 203.19222 92.979138 
" clip-path="url(#pa789699276)" style="fill: none; stroke: #337ab7; stroke-width: 1.5; stroke-linecap: square"/>
   </g>
   <g id="line2d_64">
    <path d="M -1 93.391555 
L 29.09622 93.283231 
L 30.43542 92.68622 
L 49.18422 92.615236 
L 50.52342 93.313826 
L 55.88022 93.313826 
L 57.21942 94.016534 
L 62.57622 94.016534 
L 63.91542 98.073808 
L 69.27222 98.073808 
L 70.61142 102.757242 
L 75.96822 102.757242 
L 77.30742 108.389389 
L 82.66422 108.389389 
L 84.00342 118.386477 
L 89.36022 118.386477 
L 90.69942 120.103899 
L 96.05622 120.103899 
L 97.39542 121.386943 
L 102.75222 121.386943 
L 104.09142 122.794935 
L 109.44822 122.794935 
L 110.78742 123.213861 
L 116.14422 123.213861 
L 117.48342 121.204565 
L 122.84022 121.204565 
L 124.17942 119.502333 
L 129.53622 119.502333 
L 130.87542 127.126149 
L 136.23222 127.126149 
L 137.57142 131.270053 
L 142.92822 131.270053 
L 144.26742 126.739493 
L 149.62422 126.739493 
L 150.96342 125.816487 
L 156.32022 125.816487 
L 157.65942 115.283414 
L 163.01622 115.283414 
L 164.35542 100.089815 
L 169.71222 100.089815 
L 171.05142 95.258428 
L 176.40822 95.258428 
L 177.74742 93.391555 
L 203.19222 93.391555 
L 203.19222 93.391555 
" clip-path="url(#pa789699276)" style="fill: none; stroke: #337ab7; stroke-width: 1.5; stroke-linecap: square"/>
   </g>
   <g id="line2d_65">
    <path d="M -1 48.927273 
L 203.19222 48.927273 
" clip-path="url(#pa789699276)" style="fill: none; stroke-dasharray: 1.5,2.475; stroke-dashoffset: 0; stroke: #d9524f; stroke-width: 1.5"/>
   </g>
   <g id="line2d_66">
    <path d="M -1 163.472727 
L 203.19222 163.472727 
" clip-path="url(#pa789699276)" style="fill: none; stroke-dasharray: 1.5,2.475; stroke-dashoffset: 0; stroke: #5cb85c; stroke-width: 1.5"/>
   </g>
   <g id="patch_3">
    <path d="M 27 169.2 
L 27 43.2 
" style="fill: none; stroke: #000000; stroke-width: 0.8; stroke-linejoin: miter; stroke-linecap: square"/>
   </g>
   <g id="patch_4">
    <path d="M 194.4 169.2 
L 194.4 43.2 
" style="fill: none; stroke: #000000; stroke-width: 0.8; stroke-linejoin: miter; stroke-linecap: square"/>
   </g>
   <g id="patch_5">
    <path d="M 27 169.2 
L 194.4 169.2 
" style="fill: none; stroke: #000000; stroke-width: 0.8; stroke-linejoin: miter; stroke-linecap: square"/>
   </g>
   <g id="patch_6">
    <path d="M 27 43.2 
L 194.4 43.2 
" style="fill: none; stroke: #000000; stroke-width: 0.8; stroke-linejoin: miter; stroke-linecap: square"/>
   </g>
  </g>
  <g id="axes_2">
   <g id="patch_7">
    <path d="M 27 320.4 
L 194.4 320.4 
L 194.4 194.4 
L 27 194.4 
z
" style="fill: #ffffff"/>
   </g>
   <g id="matplotlib.axis_3">
    <g id="xtick_8">
     <g id="line2d_67">
      <path d="M 27 320.4 
L 27 194.4 
" clip-path="url(#p67ca92c232)" style="fill: none; stroke: #b0b0b0; stroke-width: 0.8; stroke-linecap: square"/>
     </g>
     <g id="line2d_68">
      <g>
       <use xlink:href="#m3b0af96c8d" x="27" y="320.4" style="stroke: #000000; stroke-width: 0.8"/>
      </g>
     </g>
     <g id="text_14">
      <!-- 0 -->
      <g transform="translate(24.5 334.34375) scale(0.1 -0.1)">
       <use xlink:href="#TimesNewRomanPSMT-30"/>
      </g>
     </g>
    </g>
    <g id="xtick_9">
     <g id="line2d_69">
      <path d="M 54.9 320.4 
L 54.9 194.4 
" clip-path="url(#p67ca92c232)" style="fill: none; stroke: #b0b0b0; stroke-width: 0.8; stroke-linecap: square"/>
     </g>
     <g id="line2d_70">
      <g>
       <use xlink:href="#m3b0af96c8d" x="54.9" y="320.4" style="stroke: #000000; stroke-width: 0.8"/>
      </g>
     </g>
     <g id="text_15">
      <!-- 4 -->
      <g transform="translate(52.4 334.34375) scale(0.1 -0.1)">
       <use xlink:href="#TimesNewRomanPSMT-34"/>
      </g>
     </g>
    </g>
    <g id="xtick_10">
     <g id="line2d_71">
      <path d="M 82.8 320.4 
L 82.8 194.4 
" clip-path="url(#p67ca92c232)" style="fill: none; stroke: #b0b0b0; stroke-width: 0.8; stroke-linecap: square"/>
     </g>
     <g id="line2d_72">
      <g>
       <use xlink:href="#m3b0af96c8d" x="82.8" y="320.4" style="stroke: #000000; stroke-width: 0.8"/>
      </g>
     </g>
     <g id="text_16">
      <!-- 8 -->
      <g transform="translate(80.3 334.34375) scale(0.1 -0.1)">
       <use xlink:href="#TimesNewRomanPSMT-38"/>
      </g>
     </g>
    </g>
    <g id="xtick_11">
     <g id="line2d_73">
      <path d="M 110.7 320.4 
L 110.7 194.4 
" clip-path="url(#p67ca92c232)" style="fill: none; stroke: #b0b0b0; stroke-width: 0.8; stroke-linecap: square"/>
     </g>
     <g id="line2d_74">
      <g>
       <use xlink:href="#m3b0af96c8d" x="110.7" y="320.4" style="stroke: #000000; stroke-width: 0.8"/>
      </g>
     </g>
     <g id="text_17">
      <!-- 12 -->
      <g transform="translate(105.7 334.34375) scale(0.1 -0.1)">
       <use xlink:href="#TimesNewRomanPSMT-31"/>
       <use xlink:href="#TimesNewRomanPSMT-32" x="50"/>
      </g>
     </g>
    </g>
    <g id="xtick_12">
     <g id="line2d_75">
      <path d="M 138.6 320.4 
L 138.6 194.4 
" clip-path="url(#p67ca92c232)" style="fill: none; stroke: #b0b0b0; stroke-width: 0.8; stroke-linecap: square"/>
     </g>
     <g id="line2d_76">
      <g>
       <use xlink:href="#m3b0af96c8d" x="138.6" y="320.4" style="stroke: #000000; stroke-width: 0.8"/>
      </g>
     </g>
     <g id="text_18">
      <!-- 16 -->
      <g transform="translate(133.6 334.34375) scale(0.1 -0.1)">
       <use xlink:href="#TimesNewRomanPSMT-31"/>
       <use xlink:href="#TimesNewRomanPSMT-36" x="50"/>
      </g>
     </g>
    </g>
    <g id="xtick_13">
     <g id="line2d_77">
      <path d="M 166.5 320.4 
L 166.5 194.4 
" clip-path="url(#p67ca92c232)" style="fill: none; stroke: #b0b0b0; stroke-width: 0.8; stroke-linecap: square"/>
     </g>
     <g id="line2d_78">
      <g>
       <use xlink:href="#m3b0af96c8d" x="166.5" y="320.4" style="stroke: #000000; stroke-width: 0.8"/>
      </g>
     </g>
     <g id="text_19">
      <!-- 20 -->
      <g transform="translate(161.5 334.34375) scale(0.1 -0.1)">
       <use xlink:href="#TimesNewRomanPSMT-32"/>
       <use xlink:href="#TimesNewRomanPSMT-30" x="50"/>
      </g>
     </g>
    </g>
    <g id="xtick_14">
     <g id="line2d_79">
      <path d="M 194.4 320.4 
L 194.4 194.4 
" clip-path="url(#p67ca92c232)" style="fill: none; stroke: #b0b0b0; stroke-width: 0.8; stroke-linecap: square"/>
     </g>
     <g id="line2d_80">
      <g>
       <use xlink:href="#m3b0af96c8d" x="194.4" y="320.4" style="stroke: #000000; stroke-width: 0.8"/>
      </g>
     </g>
     <g id="text_20">
      <!-- 24 -->
      <g transform="translate(189.4 334.34375) scale(0.1 -0.1)">
       <use xlink:href="#TimesNewRomanPSMT-32"/>
       <use xlink:href="#TimesNewRomanPSMT-34" x="50"/>
      </g>
     </g>
    </g>
    <g id="text_21">
     <!-- Time (s) -->
     <g transform="translate(93.797656 347.426562) scale(0.1 -0.1)">
      <defs>
       <path id="TimesNewRomanPSMT-54" d="M 3703 4238 
L 3750 3244 
L 3631 3244 
Q 3597 3506 3538 3619 
Q 3441 3800 3280 3886 
Q 3119 3972 2856 3972 
L 2259 3972 
L 2259 734 
Q 2259 344 2344 247 
Q 2463 116 2709 116 
L 2856 116 
L 2856 0 
L 1059 0 
L 1059 116 
L 1209 116 
Q 1478 116 1591 278 
Q 1659 378 1659 734 
L 1659 3972 
L 1150 3972 
Q 853 3972 728 3928 
Q 566 3869 450 3700 
Q 334 3531 313 3244 
L 194 3244 
L 244 4238 
L 3703 4238 
z
" transform="scale(0.015625)"/>
       <path id="TimesNewRomanPSMT-69" d="M 928 4444 
Q 1059 4444 1151 4351 
Q 1244 4259 1244 4128 
Q 1244 3997 1151 3903 
Q 1059 3809 928 3809 
Q 797 3809 703 3903 
Q 609 3997 609 4128 
Q 609 4259 701 4351 
Q 794 4444 928 4444 
z
M 1188 2947 
L 1188 647 
Q 1188 378 1227 289 
Q 1266 200 1342 156 
Q 1419 113 1622 113 
L 1622 0 
L 231 0 
L 231 113 
Q 441 113 512 153 
Q 584 194 626 287 
Q 669 381 669 647 
L 669 1750 
Q 669 2216 641 2353 
Q 619 2453 572 2492 
Q 525 2531 444 2531 
Q 356 2531 231 2484 
L 188 2597 
L 1050 2947 
L 1188 2947 
z
" transform="scale(0.015625)"/>
       <path id="TimesNewRomanPSMT-6d" d="M 1050 2338 
Q 1363 2650 1419 2697 
Q 1559 2816 1721 2881 
Q 1884 2947 2044 2947 
Q 2313 2947 2506 2790 
Q 2700 2634 2766 2338 
Q 3088 2713 3309 2830 
Q 3531 2947 3766 2947 
Q 3994 2947 4170 2830 
Q 4347 2713 4450 2447 
Q 4519 2266 4519 1878 
L 4519 647 
Q 4519 378 4559 278 
Q 4591 209 4675 161 
Q 4759 113 4950 113 
L 4950 0 
L 3538 0 
L 3538 113 
L 3597 113 
Q 3781 113 3884 184 
Q 3956 234 3988 344 
Q 4000 397 4000 647 
L 4000 1878 
Q 4000 2228 3916 2372 
Q 3794 2572 3525 2572 
Q 3359 2572 3192 2489 
Q 3025 2406 2788 2181 
L 2781 2147 
L 2788 2013 
L 2788 647 
Q 2788 353 2820 281 
Q 2853 209 2943 161 
Q 3034 113 3253 113 
L 3253 0 
L 1806 0 
L 1806 113 
Q 2044 113 2133 169 
Q 2222 225 2256 338 
Q 2272 391 2272 647 
L 2272 1878 
Q 2272 2228 2169 2381 
Q 2031 2581 1784 2581 
Q 1616 2581 1450 2491 
Q 1191 2353 1050 2181 
L 1050 647 
Q 1050 366 1089 281 
Q 1128 197 1204 155 
Q 1281 113 1516 113 
L 1516 0 
L 100 0 
L 100 113 
Q 297 113 375 155 
Q 453 197 493 289 
Q 534 381 534 647 
L 534 1741 
Q 534 2213 506 2350 
Q 484 2453 437 2492 
Q 391 2531 309 2531 
Q 222 2531 100 2484 
L 53 2597 
L 916 2947 
L 1050 2947 
L 1050 2338 
z
" transform="scale(0.015625)"/>
      </defs>
      <use xlink:href="#TimesNewRomanPSMT-54"/>
      <use xlink:href="#TimesNewRomanPSMT-69" x="57.583984"/>
      <use xlink:href="#TimesNewRomanPSMT-6d" x="85.367188"/>
      <use xlink:href="#TimesNewRomanPSMT-65" x="163.150391"/>
      <use xlink:href="#TimesNewRomanPSMT-20" x="207.535156"/>
      <use xlink:href="#TimesNewRomanPSMT-28" x="232.535156"/>
      <use xlink:href="#TimesNewRomanPSMT-73" x="265.835938"/>
      <use xlink:href="#TimesNewRomanPSMT-29" x="304.751953"/>
     </g>
    </g>
   </g>
   <g id="matplotlib.axis_4">
    <g id="ytick_6">
     <g id="line2d_81">
      <path d="M 27 314.943882 
L 194.4 314.943882 
" clip-path="url(#p67ca92c232)" style="fill: none; stroke: #b0b0b0; stroke-width: 0.8; stroke-linecap: square"/>
     </g>
     <g id="line2d_82">
      <g>
       <use xlink:href="#m8d8870e85b" x="27" y="314.943882" style="stroke: #000000; stroke-width: 0.8"/>
      </g>
     </g>
     <g id="text_22">
      <!-- 0 -->
      <g transform="translate(15 318.415757) scale(0.1 -0.1)">
       <use xlink:href="#TimesNewRomanPSMT-30"/>
      </g>
     </g>
    </g>
    <g id="ytick_7">
     <g id="line2d_83">
      <path d="M 27 283.254498 
L 194.4 283.254498 
" clip-path="url(#p67ca92c232)" style="fill: none; stroke: #b0b0b0; stroke-width: 0.8; stroke-linecap: square"/>
     </g>
     <g id="line2d_84">
      <g>
       <use xlink:href="#m8d8870e85b" x="27" y="283.254498" style="stroke: #000000; stroke-width: 0.8"/>
      </g>
     </g>
     <g id="text_23">
      <!-- 200 -->
      <g transform="translate(5 286.726373) scale(0.1 -0.1)">
       <use xlink:href="#TimesNewRomanPSMT-32"/>
       <use xlink:href="#TimesNewRomanPSMT-30" x="50"/>
       <use xlink:href="#TimesNewRomanPSMT-30" x="100"/>
      </g>
     </g>
    </g>
    <g id="ytick_8">
     <g id="line2d_85">
      <path d="M 27 251.565114 
L 194.4 251.565114 
" clip-path="url(#p67ca92c232)" style="fill: none; stroke: #b0b0b0; stroke-width: 0.8; stroke-linecap: square"/>
     </g>
     <g id="line2d_86">
      <g>
       <use xlink:href="#m8d8870e85b" x="27" y="251.565114" style="stroke: #000000; stroke-width: 0.8"/>
      </g>
     </g>
     <g id="text_24">
      <!-- 400 -->
      <g transform="translate(5 255.036989) scale(0.1 -0.1)">
       <use xlink:href="#TimesNewRomanPSMT-34"/>
       <use xlink:href="#TimesNewRomanPSMT-30" x="50"/>
       <use xlink:href="#TimesNewRomanPSMT-30" x="100"/>
      </g>
     </g>
    </g>
    <g id="ytick_9">
     <g id="line2d_87">
      <path d="M 27 219.875729 
L 194.4 219.875729 
" clip-path="url(#p67ca92c232)" style="fill: none; stroke: #b0b0b0; stroke-width: 0.8; stroke-linecap: square"/>
     </g>
     <g id="line2d_88">
      <g>
       <use xlink:href="#m8d8870e85b" x="27" y="219.875729" style="stroke: #000000; stroke-width: 0.8"/>
      </g>
     </g>
     <g id="text_25">
      <!-- 600 -->
      <g transform="translate(5 223.347604) scale(0.1 -0.1)">
       <use xlink:href="#TimesNewRomanPSMT-36"/>
       <use xlink:href="#TimesNewRomanPSMT-30" x="50"/>
       <use xlink:href="#TimesNewRomanPSMT-30" x="100"/>
      </g>
     </g>
    </g>
    <g id="text_26">
     <!-- Currents (A) -->
     <g transform="translate(-1.139063 282.810156) rotate(-90) scale(0.1 -0.1)">
      <defs>
       <path id="TimesNewRomanPSMT-43" d="M 3853 4334 
L 3950 2894 
L 3853 2894 
Q 3659 3541 3300 3825 
Q 2941 4109 2438 4109 
Q 2016 4109 1675 3895 
Q 1334 3681 1139 3212 
Q 944 2744 944 2047 
Q 944 1472 1128 1050 
Q 1313 628 1683 403 
Q 2053 178 2528 178 
Q 2941 178 3256 354 
Q 3572 531 3950 1056 
L 4047 994 
Q 3728 428 3303 165 
Q 2878 -97 2294 -97 
Q 1241 -97 663 684 
Q 231 1266 231 2053 
Q 231 2688 515 3219 
Q 800 3750 1298 4042 
Q 1797 4334 2388 4334 
Q 2847 4334 3294 4109 
Q 3425 4041 3481 4041 
Q 3566 4041 3628 4100 
Q 3709 4184 3744 4334 
L 3853 4334 
z
" transform="scale(0.015625)"/>
       <path id="TimesNewRomanPSMT-72" d="M 1038 2947 
L 1038 2303 
Q 1397 2947 1775 2947 
Q 1947 2947 2059 2842 
Q 2172 2738 2172 2600 
Q 2172 2478 2090 2393 
Q 2009 2309 1897 2309 
Q 1788 2309 1652 2417 
Q 1516 2525 1450 2525 
Q 1394 2525 1328 2463 
Q 1188 2334 1038 2041 
L 1038 669 
Q 1038 431 1097 309 
Q 1138 225 1241 169 
Q 1344 113 1538 113 
L 1538 0 
L 72 0 
L 72 113 
Q 291 113 397 181 
Q 475 231 506 341 
Q 522 394 522 644 
L 522 1753 
Q 522 2253 501 2348 
Q 481 2444 426 2487 
Q 372 2531 291 2531 
Q 194 2531 72 2484 
L 41 2597 
L 906 2947 
L 1038 2947 
z
" transform="scale(0.015625)"/>
       <path id="TimesNewRomanPSMT-6e" d="M 1034 2341 
Q 1538 2947 1994 2947 
Q 2228 2947 2397 2830 
Q 2566 2713 2666 2444 
Q 2734 2256 2734 1869 
L 2734 647 
Q 2734 375 2778 278 
Q 2813 200 2889 156 
Q 2966 113 3172 113 
L 3172 0 
L 1756 0 
L 1756 113 
L 1816 113 
Q 2016 113 2095 173 
Q 2175 234 2206 353 
Q 2219 400 2219 647 
L 2219 1819 
Q 2219 2209 2117 2386 
Q 2016 2563 1775 2563 
Q 1403 2563 1034 2156 
L 1034 647 
Q 1034 356 1069 288 
Q 1113 197 1189 155 
Q 1266 113 1500 113 
L 1500 0 
L 84 0 
L 84 113 
L 147 113 
Q 366 113 442 223 
Q 519 334 519 647 
L 519 1709 
Q 519 2225 495 2337 
Q 472 2450 423 2490 
Q 375 2531 294 2531 
Q 206 2531 84 2484 
L 38 2597 
L 900 2947 
L 1034 2947 
L 1034 2341 
z
" transform="scale(0.015625)"/>
       <path id="TimesNewRomanPSMT-41" d="M 2928 1419 
L 1288 1419 
L 1000 750 
Q 894 503 894 381 
Q 894 284 986 211 
Q 1078 138 1384 116 
L 1384 0 
L 50 0 
L 50 116 
Q 316 163 394 238 
Q 553 388 747 847 
L 2238 4334 
L 2347 4334 
L 3822 809 
Q 4000 384 4145 257 
Q 4291 131 4550 116 
L 4550 0 
L 2878 0 
L 2878 116 
Q 3131 128 3220 200 
Q 3309 272 3309 375 
Q 3309 513 3184 809 
L 2928 1419 
z
M 2841 1650 
L 2122 3363 
L 1384 1650 
L 2841 1650 
z
" transform="scale(0.015625)"/>
      </defs>
      <use xlink:href="#TimesNewRomanPSMT-43"/>
      <use xlink:href="#TimesNewRomanPSMT-75" x="66.699219"/>
      <use xlink:href="#TimesNewRomanPSMT-72" x="116.699219"/>
      <use xlink:href="#TimesNewRomanPSMT-72" x="150"/>
      <use xlink:href="#TimesNewRomanPSMT-65" x="183.300781"/>
      <use xlink:href="#TimesNewRomanPSMT-6e" x="227.685547"/>
      <use xlink:href="#TimesNewRomanPSMT-74" x="277.685547"/>
      <use xlink:href="#TimesNewRomanPSMT-73" x="305.46875"/>
      <use xlink:href="#TimesNewRomanPSMT-20" x="344.384766"/>
      <use xlink:href="#TimesNewRomanPSMT-28" x="369.384766"/>
      <use xlink:href="#TimesNewRomanPSMT-41" x="402.685547"/>
      <use xlink:href="#TimesNewRomanPSMT-29" x="474.902344"/>
     </g>
    </g>
   </g>
   <g id="line2d_89">
    <path d="M -1 255.154264 
L 22.40022 255.154264 
L 23.73942 253.399952 
L 29.09622 253.399952 
L 30.43542 255.037501 
L 35.79222 255.037501 
L 37.13142 256.887696 
L 42.48822 256.887696 
L 43.82742 258.412475 
L 49.18422 258.412475 
L 50.52342 258.149845 
L 55.88022 258.149845 
L 57.21942 259.466059 
L 62.57622 259.466059 
L 63.91542 256.43504 
L 69.27222 256.43504 
L 70.61142 261.242977 
L 75.96822 261.242977 
L 77.30742 260.923175 
L 82.66422 260.923175 
L 84.00342 257.098916 
L 89.36022 257.098916 
L 90.69942 256.512968 
L 102.75222 256.536576 
L 104.09142 252.903959 
L 109.44822 252.903959 
L 110.78742 249.67758 
L 116.14422 249.67758 
L 117.48342 250.335714 
L 122.84022 250.335714 
L 124.17942 254.081348 
L 129.53622 254.081348 
L 130.87542 252.863197 
L 136.23222 252.863197 
L 137.57142 240.444106 
L 142.92822 240.444106 
L 144.26742 225.388437 
L 149.62422 225.388437 
L 150.96342 203.686732 
L 156.32022 203.686732 
L 157.65942 211.986075 
L 163.01622 211.986075 
L 164.35542 224.391429 
L 169.71222 224.391429 
L 171.05142 238.403602 
L 176.40822 238.403602 
L 177.74742 255.154264 
L 203.19222 255.154264 
L 203.19222 255.154264 
" clip-path="url(#p67ca92c232)" style="fill: none; stroke: #d9524f; stroke-width: 1.5; stroke-linecap: square"/>
   </g>
   <g id="line2d_90">
    <path d="M -1 262.38793 
L 22.40022 262.38793 
L 23.73942 261.01777 
L 29.09622 261.01777 
L 30.43542 262.361619 
L 35.79222 262.361619 
L 37.13142 263.849347 
L 42.48822 263.849347 
L 43.82742 265.077963 
L 49.18422 265.077963 
L 50.52342 264.803712 
L 55.88022 264.803712 
L 57.21942 265.753446 
L 62.57622 265.753446 
L 63.91542 263.014595 
L 69.27222 263.014595 
L 70.61142 266.437447 
L 75.96822 266.437447 
L 77.30742 265.733109 
L 82.66422 265.733109 
L 84.00342 262.110738 
L 89.36022 262.110738 
L 90.69942 261.533487 
L 102.75222 261.558034 
L 104.09142 258.565832 
L 109.44822 258.565832 
L 110.78742 255.972316 
L 116.14422 255.972316 
L 117.48342 256.655311 
L 122.84022 256.655311 
L 124.17942 259.816641 
L 129.53622 259.816641 
L 130.87542 258.553808 
L 136.23222 258.553808 
L 137.57142 248.571178 
L 142.92822 248.571178 
L 144.26742 236.99477 
L 149.62422 236.99477 
L 150.96342 220.193296 
L 156.32022 220.193296 
L 157.65942 227.26779 
L 163.01622 227.26779 
L 164.35542 237.757696 
L 169.71222 237.757696 
L 171.05142 249.033908 
L 176.40822 249.033908 
L 177.74742 262.38793 
L 203.19222 262.38793 
L 203.19222 262.38793 
" clip-path="url(#p67ca92c232)" style="fill: none; stroke: #d9524f; stroke-width: 1.5; stroke-linecap: square"/>
   </g>
   <g id="line2d_91">
    <path d="M -1 258.908422 
L 22.40022 258.908422 
L 23.73942 257.41644 
L 29.09622 257.41644 
L 30.43542 258.866259 
L 35.79222 258.866259 
L 37.13142 260.477503 
L 42.48822 260.477503 
L 43.82742 261.807716 
L 49.18422 261.807716 
L 50.52342 261.523521 
L 55.88022 261.523521 
L 57.21942 262.574537 
L 62.57622 262.574537 
L 63.91542 259.669767 
L 69.27222 259.669767 
L 70.61142 263.472454 
L 75.96822 263.472454 
L 77.30742 262.805812 
L 82.66422 262.805812 
L 84.00342 258.997789 
L 89.36022 258.997789 
L 90.69942 258.395175 
L 102.75222 258.420748 
L 104.09142 255.191333 
L 109.44822 255.191333 
L 110.78742 252.379371 
L 116.14422 252.379371 
L 117.48342 253.086532 
L 122.84022 253.086532 
L 124.17942 256.481355 
L 129.53622 256.481355 
L 130.87542 255.174355 
L 136.23222 255.174355 
L 137.57142 244.355225 
L 142.92822 244.355225 
L 144.26742 231.709982 
L 149.62422 231.709982 
L 150.96342 213.394424 
L 156.32022 213.394424 
L 157.65942 220.971704 
L 163.01622 220.971704 
L 164.35542 232.223729 
L 169.71222 232.223729 
L 171.05142 244.427207 
L 176.40822 244.427207 
L 177.74742 258.908422 
L 203.19222 258.908422 
L 203.19222 258.908422 
" clip-path="url(#p67ca92c232)" style="fill: none; stroke: #d9524f; stroke-width: 1.5; stroke-linecap: square"/>
   </g>
   <g id="line2d_92">
    <path d="M -1 307.688059 
L 22.40022 307.688059 
L 23.73942 308.036361 
L 29.09622 308.036361 
L 30.43542 307.300291 
L 35.79222 307.300291 
L 37.13142 306.696671 
L 42.48822 306.696671 
L 43.82742 306.159705 
L 49.18422 306.159705 
L 50.52342 306.76084 
L 55.88022 306.76084 
L 57.21942 306.958459 
L 62.57622 306.958459 
L 63.91542 307.857035 
L 69.27222 307.857035 
L 70.61142 304.642012 
L 75.96822 304.642012 
L 77.30742 299.342754 
L 82.66422 299.342754 
L 84.00342 292.416974 
L 89.36022 292.416974 
L 90.69942 290.875132 
L 96.05622 290.875132 
L 97.39542 291.691959 
L 102.75222 291.691959 
L 104.09142 289.672241 
L 109.44822 289.672241 
L 110.78742 288.693166 
L 116.14422 288.693166 
L 117.48342 291.165796 
L 122.84022 291.165796 
L 124.17942 294.841211 
L 129.53622 294.841211 
L 130.87542 292.19377 
L 136.23222 292.19377 
L 137.57142 288.674746 
L 142.92822 288.674746 
L 144.26742 288.857778 
L 149.62422 288.857778 
L 150.96342 286.088044 
L 156.32022 286.088044 
L 157.65942 295.018035 
L 163.01622 295.018035 
L 164.35542 306.323522 
L 169.71222 306.323522 
L 171.05142 310.514833 
L 176.40822 310.514833 
L 177.74742 307.688059 
L 203.19222 307.688059 
L 203.19222 307.688059 
" clip-path="url(#p67ca92c232)" style="fill: none; stroke: #5cb85c; stroke-width: 1.5; stroke-linecap: square"/>
   </g>
   <g id="line2d_93">
    <path d="M -1 308.167567 
L 22.40022 308.167567 
L 23.73942 308.488942 
L 29.09622 308.488942 
L 30.43542 307.539505 
L 35.79222 307.539505 
L 37.13142 306.812219 
L 42.48822 306.812219 
L 43.82742 306.198162 
L 49.18422 306.198162 
L 50.52342 306.935637 
L 55.88022 306.935637 
L 57.21942 307.482023 
L 62.57622 307.482023 
L 63.91542 311.766414 
L 69.27222 311.766414 
L 70.61142 314.50352 
L 75.96822 314.50352 
L 77.30742 310.521535 
L 82.66422 310.521535 
L 84.00342 303.061429 
L 89.36022 303.061429 
L 90.69942 301.689284 
L 102.75222 301.615908 
L 104.09142 299.53639 
L 109.44822 299.53639 
L 110.78742 298.330959 
L 116.14422 298.330959 
L 117.48342 300.195987 
L 122.84022 300.195987 
L 124.17942 303.114771 
L 129.53622 303.114771 
L 130.87542 299.265184 
L 136.23222 299.265184 
L 137.57142 294.161218 
L 142.92822 294.161218 
L 144.26742 292.968972 
L 149.62422 292.968972 
L 150.96342 288.447548 
L 156.32022 288.447548 
L 157.65942 296.983906 
L 163.01622 296.983906 
L 164.35542 308.780306 
L 169.71222 308.780306 
L 171.05142 314.262622 
L 176.40822 314.262622 
L 177.74742 308.167567 
L 203.19222 308.167567 
L 203.19222 308.167567 
" clip-path="url(#p67ca92c232)" style="fill: none; stroke: #5cb85c; stroke-width: 1.5; stroke-linecap: square"/>
   </g>
   <g id="line2d_94">
    <path d="M -1 310.431112 
L 22.40022 310.431112 
L 23.73942 310.646851 
L 29.09622 310.646851 
L 30.43542 309.58383 
L 35.79222 309.58383 
L 37.13142 308.748094 
L 42.48822 308.748094 
L 43.82742 308.030438 
L 49.18422 308.030438 
L 50.52342 308.987063 
L 55.88022 308.987063 
L 57.21942 309.952417 
L 62.57622 309.952417 
L 63.91542 314.672727 
L 69.27222 314.672727 
L 70.61142 310.607646 
L 75.96822 310.607646 
L 77.30742 304.374111 
L 82.66422 304.374111 
L 84.00342 295.975194 
L 89.36022 295.975194 
L 90.69942 294.359599 
L 96.05622 294.359599 
L 97.39542 294.694143 
L 102.75222 294.694143 
L 104.09142 292.423588 
L 109.44822 292.423588 
L 110.78742 291.212156 
L 116.14422 291.212156 
L 117.48342 293.554322 
L 122.84022 293.554322 
L 124.17942 297.14096 
L 129.53622 297.14096 
L 130.87542 293.527601 
L 136.23222 293.527601 
L 137.57142 288.971499 
L 142.92822 288.971499 
L 144.26742 288.579213 
L 149.62422 288.579213 
L 150.96342 285.183183 
L 156.32022 285.183183 
L 157.65942 294.205494 
L 163.01622 294.205494 
L 164.35542 306.260324 
L 169.71222 306.260324 
L 171.05142 313.241747 
L 176.40822 313.241747 
L 177.74742 310.431112 
L 203.19222 310.431112 
L 203.19222 310.431112 
" clip-path="url(#p67ca92c232)" style="fill: none; stroke: #5cb85c; stroke-width: 1.5; stroke-linecap: square"/>
   </g>
   <g id="line2d_95">
    <path d="M -1 288.031894 
L 22.40022 288.031894 
L 23.73942 288.157636 
L 29.09622 288.157636 
L 30.43542 288.66756 
L 49.18422 288.635782 
L 50.52342 288.010756 
L 55.88022 288.010756 
L 57.21942 287.369972 
L 62.57622 287.369972 
L 63.91542 283.684571 
L 69.27222 283.684571 
L 70.61142 279.146458 
L 75.96822 279.146458 
L 77.30742 273.764366 
L 82.66422 273.764366 
L 84.00342 263.880335 
L 89.36022 263.880335 
L 90.69942 262.188593 
L 96.05622 262.188593 
L 97.39542 260.753372 
L 102.75222 260.753372 
L 104.09142 259.504344 
L 109.44822 259.504344 
L 110.78742 259.216851 
L 116.14422 259.216851 
L 117.48342 261.150232 
L 122.84022 261.150232 
L 124.17942 262.579711 
L 129.53622 262.579711 
L 130.87542 254.625532 
L 136.23222 254.625532 
L 137.57142 250.739453 
L 142.92822 250.739453 
L 144.26742 255.948811 
L 149.62422 255.948811 
L 150.96342 257.566632 
L 156.32022 257.566632 
L 157.65942 267.88231 
L 163.01622 267.88231 
L 164.35542 282.440835 
L 169.71222 282.440835 
L 171.05142 286.648767 
L 176.40822 286.648767 
L 177.74742 288.031894 
L 203.19222 288.031894 
L 203.19222 288.031894 
" clip-path="url(#p67ca92c232)" style="fill: none; stroke: #337ab7; stroke-width: 1.5; stroke-linecap: square"/>
   </g>
   <g id="line2d_96">
    <path d="M -1 287.660414 
L 29.09622 287.763427 
L 30.43542 288.265283 
L 49.18422 288.292392 
L 50.52342 287.695386 
L 55.88022 287.695386 
L 57.21942 287.09076 
L 62.57622 287.09076 
L 63.91542 283.61298 
L 69.27222 283.61298 
L 70.61142 279.520571 
L 75.96822 279.520571 
L 77.30742 274.639942 
L 82.66422 274.639942 
L 84.00342 265.926429 
L 89.36022 265.926429 
L 90.69942 264.436814 
L 96.05622 264.436814 
L 97.39542 263.28076 
L 102.75222 263.28076 
L 104.09142 262.098165 
L 109.44822 262.098165 
L 110.78742 261.768515 
L 116.14422 261.768515 
L 117.48342 263.496421 
L 122.84022 263.496421 
L 124.17942 264.906608 
L 129.53622 264.906608 
L 130.87542 258.204462 
L 136.23222 258.204462 
L 137.57142 254.687248 
L 142.92822 254.687248 
L 144.26742 258.778906 
L 149.62422 258.778906 
L 150.96342 259.764521 
L 156.32022 259.764521 
L 157.65942 268.894344 
L 163.01622 268.894344 
L 164.35542 282.084808 
L 169.71222 282.084808 
L 171.05142 286.168837 
L 176.40822 286.168837 
L 177.74742 287.660414 
L 203.19222 287.660414 
L 203.19222 287.660414 
" clip-path="url(#p67ca92c232)" style="fill: none; stroke: #337ab7; stroke-width: 1.5; stroke-linecap: square"/>
   </g>
   <g id="line2d_97">
    <path d="M -1 286.172796 
L 22.40022 286.172796 
L 23.73942 286.326338 
L 29.09622 286.326338 
L 30.43542 286.883682 
L 49.18422 286.803585 
L 50.52342 286.111822 
L 55.88022 286.111822 
L 57.21942 285.401256 
L 62.57622 285.401256 
L 63.91542 281.366423 
L 69.27222 281.366423 
L 70.61142 276.453125 
L 75.96822 276.453125 
L 77.30742 270.717573 
L 82.66422 270.717573 
L 84.00342 260.354705 
L 89.36022 260.354705 
L 90.69942 258.593241 
L 96.05622 258.593241 
L 97.39542 257.135214 
L 102.75222 257.135214 
L 104.09142 255.811225 
L 109.44822 255.811225 
L 110.78742 255.488007 
L 116.14422 255.488007 
L 117.48342 257.505394 
L 122.84022 257.505394 
L 124.17942 259.038883 
L 129.53622 259.038883 
L 130.87542 250.902076 
L 136.23222 250.902076 
L 137.57142 246.849886 
L 142.92822 246.849886 
L 144.26742 252.059923 
L 149.62422 252.059923 
L 150.96342 253.609065 
L 156.32022 253.609065 
L 157.65942 264.427668 
L 163.01622 264.427668 
L 164.35542 280.14577 
L 169.71222 280.14577 
L 171.05142 284.77408 
L 176.40822 284.77408 
L 177.74742 286.172796 
L 203.19222 286.172796 
L 203.19222 286.172796 
" clip-path="url(#p67ca92c232)" style="fill: none; stroke: #337ab7; stroke-width: 1.5; stroke-linecap: square"/>
   </g>
   <g id="line2d_98">
    <path d="M -1 200.127273 
L 203.19222 200.127273 
" clip-path="url(#p67ca92c232)" style="fill: none; stroke-dasharray: 1.5,2.475; stroke-dashoffset: 0; stroke: #d9524f; stroke-width: 1.5"/>
   </g>
   <g id="line2d_99">
    <path d="M -1 278.202567 
L 203.19222 278.202567 
" clip-path="url(#p67ca92c232)" style="fill: none; stroke-dasharray: 1.5,2.475; stroke-dashoffset: 0; stroke: #5cb85c; stroke-width: 1.5"/>
   </g>
   <g id="line2d_100">
    <path d="M -1 246.053916 
L 203.19222 246.053916 
" clip-path="url(#p67ca92c232)" style="fill: none; stroke-dasharray: 1.5,2.475; stroke-dashoffset: 0; stroke: #337ab7; stroke-width: 1.5"/>
   </g>
   <g id="patch_8">
    <path d="M 27 320.4 
L 27 194.4 
" style="fill: none; stroke: #000000; stroke-width: 0.8; stroke-linejoin: miter; stroke-linecap: square"/>
   </g>
   <g id="patch_9">
    <path d="M 194.4 320.4 
L 194.4 194.4 
" style="fill: none; stroke: #000000; stroke-width: 0.8; stroke-linejoin: miter; stroke-linecap: square"/>
   </g>
   <g id="patch_10">
    <path d="M 27 320.4 
L 194.4 320.4 
" style="fill: none; stroke: #000000; stroke-width: 0.8; stroke-linejoin: miter; stroke-linecap: square"/>
   </g>
   <g id="patch_11">
    <path d="M 27 194.4 
L 194.4 194.4 
" style="fill: none; stroke: #000000; stroke-width: 0.8; stroke-linejoin: miter; stroke-linecap: square"/>
   </g>
  </g>
 </g>
 <defs>
  <clipPath id="pa789699276">
   <rect x="27" y="43.2" width="167.4" height="126"/>
  </clipPath>
  <clipPath id="p67ca92c232">
   <rect x="27" y="194.4" width="167.4" height="126"/>
  </clipPath>
 </defs>
</svg>
