<?xml version="1.0" encoding="utf-8" standalone="no"?>
<!DOCTYPE svg PUBLIC "-//W3C//DTD SVG 1.1//EN"
  "http://www.w3.org/Graphics/SVG/1.1/DTD/svg11.dtd">
<svg xmlns:xlink="http://www.w3.org/1999/xlink" width="216pt" height="360pt" viewBox="0 0 216 360" xmlns="http://www.w3.org/2000/svg" version="1.1">
 <metadata>
  <rdf:RDF xmlns:dc="http://purl.org/dc/elements/1.1/" xmlns:cc="http://creativecommons.org/ns#" xmlns:rdf="http://www.w3.org/1999/02/22-rdf-syntax-ns#">
   <cc:Work>
    <dc:type rdf:resource="http://purl.org/dc/dcmitype/StillImage"/>
    <dc:date>2023-02-12T00:29:16.675595</dc:date>
    <dc:format>image/svg+xml</dc:format>
    <dc:creator>
     <cc:Agent>
      <dc:title>Matplotlib v3.5.2, https://matplotlib.org/</dc:title>
     </cc:Agent>
    </dc:creator>
   </cc:Work>
  </rdf:RDF>
 </metadata>
 <defs>
  <style type="text/css">*{stroke-linejoin: round; stroke-linecap: butt}</style>
 </defs>
 <g id="figure_1">
  <g id="patch_1">
   <path d="M 0 360 
L 216 360 
L 216 0 
L 0 0 
z
" style="fill: #ffffff"/>
  </g>
  <g id="axes_1">
   <g id="patch_2">
    <path d="M 27 169.2 
L 194.4 169.2 
L 194.4 43.2 
L 27 43.2 
z
" style="fill: #ffffff"/>
   </g>
   <g id="matplotlib.axis_1">
    <g id="xtick_1">
     <g id="line2d_1">
      <path d="M 27 169.2 
L 27 43.2 
" clip-path="url(#pc10246223a)" style="fill: none; stroke: #b0b0b0; stroke-width: 0.8; stroke-linecap: square"/>
     </g>
     <g id="line2d_2">
      <defs>
       <path id="mfdc75c552a" d="M 0 0 
L 0 3.5 
" style="stroke: #000000; stroke-width: 0.8"/>
      </defs>
      <g>
       <use xlink:href="#mfdc75c552a" x="27" y="169.2" style="stroke: #000000; stroke-width: 0.8"/>
      </g>
     </g>
     <g id="text_1">
      <!-- 0 -->
      <g transform="translate(24.5 183.14375)scale(0.1 -0.1)">
       <defs>
        <path id="TimesNewRomanPSMT-30" d="M 231 2094 
Q 231 2819 450 3342 
Q 669 3866 1031 4122 
Q 1313 4325 1613 4325 
Q 2100 4325 2488 3828 
Q 2972 3213 2972 2159 
Q 2972 1422 2759 906 
Q 2547 391 2217 158 
Q 1888 -75 1581 -75 
Q 975 -75 572 641 
Q 231 1244 231 2094 
z
M 844 2016 
Q 844 1141 1059 588 
Q 1238 122 1591 122 
Q 1759 122 1940 273 
Q 2122 425 2216 781 
Q 2359 1319 2359 2297 
Q 2359 3022 2209 3506 
Q 2097 3866 1919 4016 
Q 1791 4119 1609 4119 
Q 1397 4119 1231 3928 
Q 1006 3669 925 3112 
Q 844 2556 844 2016 
z
" transform="scale(0.015625)"/>
       </defs>
       <use xlink:href="#TimesNewRomanPSMT-30"/>
      </g>
     </g>
    </g>
    <g id="xtick_2">
     <g id="line2d_3">
      <path d="M 54.9 169.2 
L 54.9 43.2 
" clip-path="url(#pc10246223a)" style="fill: none; stroke: #b0b0b0; stroke-width: 0.8; stroke-linecap: square"/>
     </g>
     <g id="line2d_4">
      <g>
       <use xlink:href="#mfdc75c552a" x="54.9" y="169.2" style="stroke: #000000; stroke-width: 0.8"/>
      </g>
     </g>
     <g id="text_2">
      <!-- 4 -->
      <g transform="translate(52.4 183.14375)scale(0.1 -0.1)">
       <defs>
        <path id="TimesNewRomanPSMT-34" d="M 2978 1563 
L 2978 1119 
L 2409 1119 
L 2409 0 
L 1894 0 
L 1894 1119 
L 100 1119 
L 100 1519 
L 2066 4325 
L 2409 4325 
L 2409 1563 
L 2978 1563 
z
M 1894 1563 
L 1894 3666 
L 406 1563 
L 1894 1563 
z
" transform="scale(0.015625)"/>
       </defs>
       <use xlink:href="#TimesNewRomanPSMT-34"/>
      </g>
     </g>
    </g>
    <g id="xtick_3">
     <g id="line2d_5">
      <path d="M 82.8 169.2 
L 82.8 43.2 
" clip-path="url(#pc10246223a)" style="fill: none; stroke: #b0b0b0; stroke-width: 0.8; stroke-linecap: square"/>
     </g>
     <g id="line2d_6">
      <g>
       <use xlink:href="#mfdc75c552a" x="82.8" y="169.2" style="stroke: #000000; stroke-width: 0.8"/>
      </g>
     </g>
     <g id="text_3">
      <!-- 8 -->
      <g transform="translate(80.3 183.14375)scale(0.1 -0.1)">
       <defs>
        <path id="TimesNewRomanPSMT-38" d="M 1228 2134 
Q 725 2547 579 2797 
Q 434 3047 434 3316 
Q 434 3728 753 4026 
Q 1072 4325 1600 4325 
Q 2113 4325 2425 4047 
Q 2738 3769 2738 3413 
Q 2738 3175 2569 2928 
Q 2400 2681 1866 2347 
Q 2416 1922 2594 1678 
Q 2831 1359 2831 1006 
Q 2831 559 2490 242 
Q 2150 -75 1597 -75 
Q 994 -75 656 303 
Q 388 606 388 966 
Q 388 1247 577 1523 
Q 766 1800 1228 2134 
z
M 1719 2469 
Q 2094 2806 2194 3001 
Q 2294 3197 2294 3444 
Q 2294 3772 2109 3958 
Q 1925 4144 1606 4144 
Q 1288 4144 1088 3959 
Q 888 3775 888 3528 
Q 888 3366 970 3203 
Q 1053 3041 1206 2894 
L 1719 2469 
z
M 1375 2016 
Q 1116 1797 991 1539 
Q 866 1281 866 981 
Q 866 578 1086 336 
Q 1306 94 1647 94 
Q 1984 94 2187 284 
Q 2391 475 2391 747 
Q 2391 972 2272 1150 
Q 2050 1481 1375 2016 
z
" transform="scale(0.015625)"/>
       </defs>
       <use xlink:href="#TimesNewRomanPSMT-38"/>
      </g>
     </g>
    </g>
    <g id="xtick_4">
     <g id="line2d_7">
      <path d="M 110.7 169.2 
L 110.7 43.2 
" clip-path="url(#pc10246223a)" style="fill: none; stroke: #b0b0b0; stroke-width: 0.8; stroke-linecap: square"/>
     </g>
     <g id="line2d_8">
      <g>
       <use xlink:href="#mfdc75c552a" x="110.7" y="169.2" style="stroke: #000000; stroke-width: 0.8"/>
      </g>
     </g>
     <g id="text_4">
      <!-- 12 -->
      <g transform="translate(105.7 183.14375)scale(0.1 -0.1)">
       <defs>
        <path id="TimesNewRomanPSMT-31" d="M 750 3822 
L 1781 4325 
L 1884 4325 
L 1884 747 
Q 1884 391 1914 303 
Q 1944 216 2037 169 
Q 2131 122 2419 116 
L 2419 0 
L 825 0 
L 825 116 
Q 1125 122 1212 167 
Q 1300 213 1334 289 
Q 1369 366 1369 747 
L 1369 3034 
Q 1369 3497 1338 3628 
Q 1316 3728 1258 3775 
Q 1200 3822 1119 3822 
Q 1003 3822 797 3725 
L 750 3822 
z
" transform="scale(0.015625)"/>
        <path id="TimesNewRomanPSMT-32" d="M 2934 816 
L 2638 0 
L 138 0 
L 138 116 
Q 1241 1122 1691 1759 
Q 2141 2397 2141 2925 
Q 2141 3328 1894 3587 
Q 1647 3847 1303 3847 
Q 991 3847 742 3664 
Q 494 3481 375 3128 
L 259 3128 
Q 338 3706 661 4015 
Q 984 4325 1469 4325 
Q 1984 4325 2329 3994 
Q 2675 3663 2675 3213 
Q 2675 2891 2525 2569 
Q 2294 2063 1775 1497 
Q 997 647 803 472 
L 1909 472 
Q 2247 472 2383 497 
Q 2519 522 2628 598 
Q 2738 675 2819 816 
L 2934 816 
z
" transform="scale(0.015625)"/>
       </defs>
       <use xlink:href="#TimesNewRomanPSMT-31"/>
       <use xlink:href="#TimesNewRomanPSMT-32" x="50"/>
      </g>
     </g>
    </g>
    <g id="xtick_5">
     <g id="line2d_9">
      <path d="M 138.6 169.2 
L 138.6 43.2 
" clip-path="url(#pc10246223a)" style="fill: none; stroke: #b0b0b0; stroke-width: 0.8; stroke-linecap: square"/>
     </g>
     <g id="line2d_10">
      <g>
       <use xlink:href="#mfdc75c552a" x="138.6" y="169.2" style="stroke: #000000; stroke-width: 0.8"/>
      </g>
     </g>
     <g id="text_5">
      <!-- 16 -->
      <g transform="translate(133.6 183.14375)scale(0.1 -0.1)">
       <defs>
        <path id="TimesNewRomanPSMT-36" d="M 2869 4325 
L 2869 4209 
Q 2456 4169 2195 4045 
Q 1934 3922 1679 3669 
Q 1425 3416 1258 3105 
Q 1091 2794 978 2366 
Q 1428 2675 1881 2675 
Q 2316 2675 2634 2325 
Q 2953 1975 2953 1425 
Q 2953 894 2631 456 
Q 2244 -75 1606 -75 
Q 1172 -75 869 213 
Q 275 772 275 1663 
Q 275 2231 503 2743 
Q 731 3256 1154 3653 
Q 1578 4050 1965 4187 
Q 2353 4325 2688 4325 
L 2869 4325 
z
M 925 2138 
Q 869 1716 869 1456 
Q 869 1156 980 804 
Q 1091 453 1309 247 
Q 1469 100 1697 100 
Q 1969 100 2183 356 
Q 2397 613 2397 1088 
Q 2397 1622 2184 2012 
Q 1972 2403 1581 2403 
Q 1463 2403 1327 2353 
Q 1191 2303 925 2138 
z
" transform="scale(0.015625)"/>
       </defs>
       <use xlink:href="#TimesNewRomanPSMT-31"/>
       <use xlink:href="#TimesNewRomanPSMT-36" x="50"/>
      </g>
     </g>
    </g>
    <g id="xtick_6">
     <g id="line2d_11">
      <path d="M 166.5 169.2 
L 166.5 43.2 
" clip-path="url(#pc10246223a)" style="fill: none; stroke: #b0b0b0; stroke-width: 0.8; stroke-linecap: square"/>
     </g>
     <g id="line2d_12">
      <g>
       <use xlink:href="#mfdc75c552a" x="166.5" y="169.2" style="stroke: #000000; stroke-width: 0.8"/>
      </g>
     </g>
     <g id="text_6">
      <!-- 20 -->
      <g transform="translate(161.5 183.14375)scale(0.1 -0.1)">
       <use xlink:href="#TimesNewRomanPSMT-32"/>
       <use xlink:href="#TimesNewRomanPSMT-30" x="50"/>
      </g>
     </g>
    </g>
    <g id="xtick_7">
     <g id="line2d_13">
      <path d="M 194.4 169.2 
L 194.4 43.2 
" clip-path="url(#pc10246223a)" style="fill: none; stroke: #b0b0b0; stroke-width: 0.8; stroke-linecap: square"/>
     </g>
     <g id="line2d_14">
      <g>
       <use xlink:href="#mfdc75c552a" x="194.4" y="169.2" style="stroke: #000000; stroke-width: 0.8"/>
      </g>
     </g>
     <g id="text_7">
      <!-- 24 -->
      <g transform="translate(189.4 183.14375)scale(0.1 -0.1)">
       <use xlink:href="#TimesNewRomanPSMT-32"/>
       <use xlink:href="#TimesNewRomanPSMT-34" x="50"/>
      </g>
     </g>
    </g>
   </g>
   <g id="matplotlib.axis_2">
    <g id="ytick_1">
     <g id="line2d_15">
      <path d="M 27 147.894843 
L 194.4 147.894843 
" clip-path="url(#pc10246223a)" style="fill: none; stroke: #b0b0b0; stroke-width: 0.8; stroke-linecap: square"/>
     </g>
     <g id="line2d_16">
      <defs>
       <path id="mff03dfd7e0" d="M 0 0 
L -3.5 0 
" style="stroke: #000000; stroke-width: 0.8"/>
      </defs>
      <g>
       <use xlink:href="#mff03dfd7e0" x="27" y="147.894843" style="stroke: #000000; stroke-width: 0.8"/>
      </g>
     </g>
     <g id="text_8">
      <!-- 0.96 -->
      <g transform="translate(2.5 151.366718)scale(0.1 -0.1)">
       <defs>
        <path id="TimesNewRomanPSMT-2e" d="M 800 606 
Q 947 606 1047 504 
Q 1147 403 1147 259 
Q 1147 116 1045 14 
Q 944 -88 800 -88 
Q 656 -88 554 14 
Q 453 116 453 259 
Q 453 406 554 506 
Q 656 606 800 606 
z
" transform="scale(0.015625)"/>
        <path id="TimesNewRomanPSMT-39" d="M 338 -88 
L 338 28 
Q 744 34 1094 217 
Q 1444 400 1770 856 
Q 2097 1313 2225 1859 
Q 1734 1544 1338 1544 
Q 891 1544 572 1889 
Q 253 2234 253 2806 
Q 253 3363 572 3797 
Q 956 4325 1575 4325 
Q 2097 4325 2469 3894 
Q 2925 3359 2925 2575 
Q 2925 1869 2578 1258 
Q 2231 647 1613 244 
Q 1109 -88 516 -88 
L 338 -88 
z
M 2275 2091 
Q 2331 2497 2331 2741 
Q 2331 3044 2228 3395 
Q 2125 3747 1936 3934 
Q 1747 4122 1506 4122 
Q 1228 4122 1018 3872 
Q 809 3622 809 3128 
Q 809 2469 1088 2097 
Q 1291 1828 1588 1828 
Q 1731 1828 1928 1897 
Q 2125 1966 2275 2091 
z
" transform="scale(0.015625)"/>
       </defs>
       <use xlink:href="#TimesNewRomanPSMT-30"/>
       <use xlink:href="#TimesNewRomanPSMT-2e" x="50"/>
       <use xlink:href="#TimesNewRomanPSMT-39" x="75"/>
       <use xlink:href="#TimesNewRomanPSMT-36" x="125"/>
      </g>
     </g>
    </g>
    <g id="ytick_2">
     <g id="line2d_17">
      <path d="M 27 125.90205 
L 194.4 125.90205 
" clip-path="url(#pc10246223a)" style="fill: none; stroke: #b0b0b0; stroke-width: 0.8; stroke-linecap: square"/>
     </g>
     <g id="line2d_18">
      <g>
       <use xlink:href="#mff03dfd7e0" x="27" y="125.90205" style="stroke: #000000; stroke-width: 0.8"/>
      </g>
     </g>
     <g id="text_9">
      <!-- 0.98 -->
      <g transform="translate(2.5 129.373925)scale(0.1 -0.1)">
       <use xlink:href="#TimesNewRomanPSMT-30"/>
       <use xlink:href="#TimesNewRomanPSMT-2e" x="50"/>
       <use xlink:href="#TimesNewRomanPSMT-39" x="75"/>
       <use xlink:href="#TimesNewRomanPSMT-38" x="125"/>
      </g>
     </g>
    </g>
    <g id="ytick_3">
     <g id="line2d_19">
      <path d="M 27 103.909256 
L 194.4 103.909256 
" clip-path="url(#pc10246223a)" style="fill: none; stroke: #b0b0b0; stroke-width: 0.8; stroke-linecap: square"/>
     </g>
     <g id="line2d_20">
      <g>
       <use xlink:href="#mff03dfd7e0" x="27" y="103.909256" style="stroke: #000000; stroke-width: 0.8"/>
      </g>
     </g>
     <g id="text_10">
      <!-- 1.00 -->
      <g transform="translate(2.5 107.381131)scale(0.1 -0.1)">
       <use xlink:href="#TimesNewRomanPSMT-31"/>
       <use xlink:href="#TimesNewRomanPSMT-2e" x="50"/>
       <use xlink:href="#TimesNewRomanPSMT-30" x="75"/>
       <use xlink:href="#TimesNewRomanPSMT-30" x="125"/>
      </g>
     </g>
    </g>
    <g id="ytick_4">
     <g id="line2d_21">
      <path d="M 27 81.916463 
L 194.4 81.916463 
" clip-path="url(#pc10246223a)" style="fill: none; stroke: #b0b0b0; stroke-width: 0.8; stroke-linecap: square"/>
     </g>
     <g id="line2d_22">
      <g>
       <use xlink:href="#mff03dfd7e0" x="27" y="81.916463" style="stroke: #000000; stroke-width: 0.8"/>
      </g>
     </g>
     <g id="text_11">
      <!-- 1.02 -->
      <g transform="translate(2.5 85.388338)scale(0.1 -0.1)">
       <use xlink:href="#TimesNewRomanPSMT-31"/>
       <use xlink:href="#TimesNewRomanPSMT-2e" x="50"/>
       <use xlink:href="#TimesNewRomanPSMT-30" x="75"/>
       <use xlink:href="#TimesNewRomanPSMT-32" x="125"/>
      </g>
     </g>
    </g>
    <g id="ytick_5">
     <g id="line2d_23">
      <path d="M 27 59.923669 
L 194.4 59.923669 
" clip-path="url(#pc10246223a)" style="fill: none; stroke: #b0b0b0; stroke-width: 0.8; stroke-linecap: square"/>
     </g>
     <g id="line2d_24">
      <g>
       <use xlink:href="#mff03dfd7e0" x="27" y="59.923669" style="stroke: #000000; stroke-width: 0.8"/>
      </g>
     </g>
     <g id="text_12">
      <!-- 1.04 -->
      <g transform="translate(2.5 63.395544)scale(0.1 -0.1)">
       <use xlink:href="#TimesNewRomanPSMT-31"/>
       <use xlink:href="#TimesNewRomanPSMT-2e" x="50"/>
       <use xlink:href="#TimesNewRomanPSMT-30" x="75"/>
       <use xlink:href="#TimesNewRomanPSMT-34" x="125"/>
      </g>
     </g>
    </g>
    <g id="text_13">
     <!-- Voltages (pu) -->
     <g transform="translate(-3.657813 132.910156)rotate(-90)scale(0.1 -0.1)">
      <defs>
       <path id="TimesNewRomanPSMT-56" d="M 4544 4238 
L 4544 4122 
Q 4319 4081 4203 3978 
Q 4038 3825 3909 3509 
L 2431 -97 
L 2316 -97 
L 728 3556 
Q 606 3838 556 3900 
Q 478 3997 364 4051 
Q 250 4106 56 4122 
L 56 4238 
L 1788 4238 
L 1788 4122 
Q 1494 4094 1406 4022 
Q 1319 3950 1319 3838 
Q 1319 3681 1463 3350 
L 2541 866 
L 3541 3319 
Q 3688 3681 3688 3822 
Q 3688 3913 3597 3995 
Q 3506 4078 3291 4113 
Q 3275 4116 3238 4122 
L 3238 4238 
L 4544 4238 
z
" transform="scale(0.015625)"/>
       <path id="TimesNewRomanPSMT-6f" d="M 1600 2947 
Q 2250 2947 2644 2453 
Q 2978 2031 2978 1484 
Q 2978 1100 2793 706 
Q 2609 313 2286 112 
Q 1963 -88 1566 -88 
Q 919 -88 538 428 
Q 216 863 216 1403 
Q 216 1797 411 2186 
Q 606 2575 925 2761 
Q 1244 2947 1600 2947 
z
M 1503 2744 
Q 1338 2744 1170 2645 
Q 1003 2547 900 2300 
Q 797 2053 797 1666 
Q 797 1041 1045 587 
Q 1294 134 1700 134 
Q 2003 134 2200 384 
Q 2397 634 2397 1244 
Q 2397 2006 2069 2444 
Q 1847 2744 1503 2744 
z
" transform="scale(0.015625)"/>
       <path id="TimesNewRomanPSMT-6c" d="M 1184 4444 
L 1184 647 
Q 1184 378 1223 290 
Q 1263 203 1344 158 
Q 1425 113 1647 113 
L 1647 0 
L 244 0 
L 244 113 
Q 441 113 512 153 
Q 584 194 625 287 
Q 666 381 666 647 
L 666 3247 
Q 666 3731 644 3842 
Q 622 3953 573 3993 
Q 525 4034 450 4034 
Q 369 4034 244 3984 
L 191 4094 
L 1044 4444 
L 1184 4444 
z
" transform="scale(0.015625)"/>
       <path id="TimesNewRomanPSMT-74" d="M 1031 3803 
L 1031 2863 
L 1700 2863 
L 1700 2644 
L 1031 2644 
L 1031 788 
Q 1031 509 1111 412 
Q 1191 316 1316 316 
Q 1419 316 1516 380 
Q 1613 444 1666 569 
L 1788 569 
Q 1678 263 1478 108 
Q 1278 -47 1066 -47 
Q 922 -47 784 33 
Q 647 113 581 261 
Q 516 409 516 719 
L 516 2644 
L 63 2644 
L 63 2747 
Q 234 2816 414 2980 
Q 594 3144 734 3369 
Q 806 3488 934 3803 
L 1031 3803 
z
" transform="scale(0.015625)"/>
       <path id="TimesNewRomanPSMT-61" d="M 1822 413 
Q 1381 72 1269 19 
Q 1100 -59 909 -59 
Q 613 -59 420 144 
Q 228 347 228 678 
Q 228 888 322 1041 
Q 450 1253 767 1440 
Q 1084 1628 1822 1897 
L 1822 2009 
Q 1822 2438 1686 2597 
Q 1550 2756 1291 2756 
Q 1094 2756 978 2650 
Q 859 2544 859 2406 
L 866 2225 
Q 866 2081 792 2003 
Q 719 1925 600 1925 
Q 484 1925 411 2006 
Q 338 2088 338 2228 
Q 338 2497 613 2722 
Q 888 2947 1384 2947 
Q 1766 2947 2009 2819 
Q 2194 2722 2281 2516 
Q 2338 2381 2338 1966 
L 2338 994 
Q 2338 584 2353 492 
Q 2369 400 2405 369 
Q 2441 338 2488 338 
Q 2538 338 2575 359 
Q 2641 400 2828 588 
L 2828 413 
Q 2478 -56 2159 -56 
Q 2006 -56 1915 50 
Q 1825 156 1822 413 
z
M 1822 616 
L 1822 1706 
Q 1350 1519 1213 1441 
Q 966 1303 859 1153 
Q 753 1003 753 825 
Q 753 600 887 451 
Q 1022 303 1197 303 
Q 1434 303 1822 616 
z
" transform="scale(0.015625)"/>
       <path id="TimesNewRomanPSMT-67" d="M 966 1044 
Q 703 1172 562 1401 
Q 422 1631 422 1909 
Q 422 2334 742 2640 
Q 1063 2947 1563 2947 
Q 1972 2947 2272 2747 
L 2878 2747 
Q 3013 2747 3034 2739 
Q 3056 2731 3066 2713 
Q 3084 2684 3084 2613 
Q 3084 2531 3069 2500 
Q 3059 2484 3036 2475 
Q 3013 2466 2878 2466 
L 2506 2466 
Q 2681 2241 2681 1891 
Q 2681 1491 2375 1206 
Q 2069 922 1553 922 
Q 1341 922 1119 984 
Q 981 866 932 777 
Q 884 688 884 625 
Q 884 572 936 522 
Q 988 472 1138 450 
Q 1225 438 1575 428 
Q 2219 413 2409 384 
Q 2700 344 2873 169 
Q 3047 -6 3047 -263 
Q 3047 -616 2716 -925 
Q 2228 -1381 1444 -1381 
Q 841 -1381 425 -1109 
Q 191 -953 191 -784 
Q 191 -709 225 -634 
Q 278 -519 444 -313 
Q 466 -284 763 25 
Q 600 122 533 198 
Q 466 275 466 372 
Q 466 481 555 628 
Q 644 775 966 1044 
z
M 1509 2797 
Q 1278 2797 1122 2612 
Q 966 2428 966 2047 
Q 966 1553 1178 1281 
Q 1341 1075 1591 1075 
Q 1828 1075 1981 1253 
Q 2134 1431 2134 1813 
Q 2134 2309 1919 2591 
Q 1759 2797 1509 2797 
z
M 934 0 
Q 788 -159 713 -296 
Q 638 -434 638 -550 
Q 638 -700 819 -813 
Q 1131 -1006 1722 -1006 
Q 2284 -1006 2551 -807 
Q 2819 -609 2819 -384 
Q 2819 -222 2659 -153 
Q 2497 -84 2016 -72 
Q 1313 -53 934 0 
z
" transform="scale(0.015625)"/>
       <path id="TimesNewRomanPSMT-65" d="M 681 1784 
Q 678 1147 991 784 
Q 1303 422 1725 422 
Q 2006 422 2214 576 
Q 2422 731 2563 1106 
L 2659 1044 
Q 2594 616 2278 264 
Q 1963 -88 1488 -88 
Q 972 -88 605 314 
Q 238 716 238 1394 
Q 238 2128 614 2539 
Q 991 2950 1559 2950 
Q 2041 2950 2350 2633 
Q 2659 2316 2659 1784 
L 681 1784 
z
M 681 1966 
L 2006 1966 
Q 1991 2241 1941 2353 
Q 1863 2528 1708 2628 
Q 1553 2728 1384 2728 
Q 1125 2728 920 2526 
Q 716 2325 681 1966 
z
" transform="scale(0.015625)"/>
       <path id="TimesNewRomanPSMT-73" d="M 2050 2947 
L 2050 1972 
L 1947 1972 
Q 1828 2431 1642 2597 
Q 1456 2763 1169 2763 
Q 950 2763 815 2647 
Q 681 2531 681 2391 
Q 681 2216 781 2091 
Q 878 1963 1175 1819 
L 1631 1597 
Q 2266 1288 2266 781 
Q 2266 391 1970 151 
Q 1675 -88 1309 -88 
Q 1047 -88 709 6 
Q 606 38 541 38 
Q 469 38 428 -44 
L 325 -44 
L 325 978 
L 428 978 
Q 516 541 762 319 
Q 1009 97 1316 97 
Q 1531 97 1667 223 
Q 1803 350 1803 528 
Q 1803 744 1651 891 
Q 1500 1038 1047 1263 
Q 594 1488 453 1669 
Q 313 1847 313 2119 
Q 313 2472 555 2709 
Q 797 2947 1181 2947 
Q 1350 2947 1591 2875 
Q 1750 2828 1803 2828 
Q 1853 2828 1881 2850 
Q 1909 2872 1947 2947 
L 2050 2947 
z
" transform="scale(0.015625)"/>
       <path id="TimesNewRomanPSMT-20" transform="scale(0.015625)"/>
       <path id="TimesNewRomanPSMT-28" d="M 1988 -1253 
L 1988 -1369 
Q 1516 -1131 1200 -813 
Q 750 -359 506 256 
Q 263 872 263 1534 
Q 263 2503 741 3301 
Q 1219 4100 1988 4444 
L 1988 4313 
Q 1603 4100 1356 3731 
Q 1109 3363 987 2797 
Q 866 2231 866 1616 
Q 866 947 969 400 
Q 1050 -31 1165 -292 
Q 1281 -553 1476 -793 
Q 1672 -1034 1988 -1253 
z
" transform="scale(0.015625)"/>
       <path id="TimesNewRomanPSMT-70" d="M -6 2578 
L 875 2934 
L 994 2934 
L 994 2266 
Q 1216 2644 1439 2795 
Q 1663 2947 1909 2947 
Q 2341 2947 2628 2609 
Q 2981 2197 2981 1534 
Q 2981 794 2556 309 
Q 2206 -88 1675 -88 
Q 1444 -88 1275 -22 
Q 1150 25 994 166 
L 994 -706 
Q 994 -1000 1030 -1079 
Q 1066 -1159 1155 -1206 
Q 1244 -1253 1478 -1253 
L 1478 -1369 
L -22 -1369 
L -22 -1253 
L 56 -1253 
Q 228 -1256 350 -1188 
Q 409 -1153 442 -1076 
Q 475 -1000 475 -688 
L 475 2019 
Q 475 2297 450 2372 
Q 425 2447 370 2484 
Q 316 2522 222 2522 
Q 147 2522 31 2478 
L -6 2578 
z
M 994 2081 
L 994 1013 
Q 994 666 1022 556 
Q 1066 375 1236 237 
Q 1406 100 1666 100 
Q 1978 100 2172 344 
Q 2425 663 2425 1241 
Q 2425 1897 2138 2250 
Q 1938 2494 1663 2494 
Q 1513 2494 1366 2419 
Q 1253 2363 994 2081 
z
" transform="scale(0.015625)"/>
       <path id="TimesNewRomanPSMT-75" d="M 2709 2863 
L 2709 1128 
Q 2709 631 2732 520 
Q 2756 409 2807 365 
Q 2859 322 2928 322 
Q 3025 322 3147 375 
L 3191 266 
L 2334 -88 
L 2194 -88 
L 2194 519 
Q 1825 119 1631 15 
Q 1438 -88 1222 -88 
Q 981 -88 804 51 
Q 628 191 559 409 
Q 491 628 491 1028 
L 491 2306 
Q 491 2509 447 2587 
Q 403 2666 317 2708 
Q 231 2750 6 2747 
L 6 2863 
L 1009 2863 
L 1009 947 
Q 1009 547 1148 422 
Q 1288 297 1484 297 
Q 1619 297 1789 381 
Q 1959 466 2194 703 
L 2194 2325 
Q 2194 2569 2105 2655 
Q 2016 2741 1734 2747 
L 1734 2863 
L 2709 2863 
z
" transform="scale(0.015625)"/>
       <path id="TimesNewRomanPSMT-29" d="M 144 4313 
L 144 4444 
Q 619 4209 934 3891 
Q 1381 3434 1625 2820 
Q 1869 2206 1869 1541 
Q 1869 572 1392 -226 
Q 916 -1025 144 -1369 
L 144 -1253 
Q 528 -1038 776 -670 
Q 1025 -303 1145 264 
Q 1266 831 1266 1447 
Q 1266 2113 1163 2663 
Q 1084 3094 967 3353 
Q 850 3613 656 3853 
Q 463 4094 144 4313 
z
" transform="scale(0.015625)"/>
      </defs>
      <use xlink:href="#TimesNewRomanPSMT-56"/>
      <use xlink:href="#TimesNewRomanPSMT-6f" x="59.341797"/>
      <use xlink:href="#TimesNewRomanPSMT-6c" x="109.341797"/>
      <use xlink:href="#TimesNewRomanPSMT-74" x="137.125"/>
      <use xlink:href="#TimesNewRomanPSMT-61" x="164.908203"/>
      <use xlink:href="#TimesNewRomanPSMT-67" x="209.292969"/>
      <use xlink:href="#TimesNewRomanPSMT-65" x="259.292969"/>
      <use xlink:href="#TimesNewRomanPSMT-73" x="303.677734"/>
      <use xlink:href="#TimesNewRomanPSMT-20" x="342.59375"/>
      <use xlink:href="#TimesNewRomanPSMT-28" x="367.59375"/>
      <use xlink:href="#TimesNewRomanPSMT-70" x="400.894531"/>
      <use xlink:href="#TimesNewRomanPSMT-75" x="450.894531"/>
      <use xlink:href="#TimesNewRomanPSMT-29" x="500.894531"/>
     </g>
    </g>
   </g>
   <g id="line2d_25">
    <path d="M -1 87.901431 
L 6.32982 87.901431 
L 19.72182 87.901431 
L 33.11382 87.516361 
L 46.50582 86.59755 
L 59.89782 86.200706 
L 73.28982 88.077871 
L 86.68182 90.498464 
L 100.07382 92.011723 
L 113.46582 93.031587 
L 126.85782 93.926187 
L 140.24982 92.119394 
L 153.64182 98.540154 
L 167.03382 99.3405 
L 180.42582 92.575809 
L 193.81782 87.901581 
" clip-path="url(#pc10246223a)" style="fill: none; stroke: #d9524f; stroke-width: 1.5; stroke-linecap: square"/>
   </g>
   <g id="line2d_26">
    <path d="M -1 90.675495 
L 6.32982 90.675495 
L 19.72182 90.675495 
L 33.11382 90.144611 
L 46.50582 88.897572 
L 59.89782 88.382427 
L 73.28982 91.038376 
L 86.68182 94.605299 
L 100.07382 96.845407 
L 113.46582 98.308043 
L 126.85782 99.472734 
L 140.24982 97.047649 
L 153.64182 105.679191 
L 167.03382 106.48467 
L 180.42582 97.010307 
L 193.81782 90.676017 
" clip-path="url(#pc10246223a)" style="fill: none; stroke: #d9524f; stroke-width: 1.5; stroke-linecap: square"/>
   </g>
   <g id="line2d_27">
    <path d="M -1 93.449521 
L 6.32982 93.449521 
L 19.72182 93.449521 
L 33.11382 92.772819 
L 46.50582 91.197535 
L 59.89782 90.564073 
L 73.28982 93.998803 
L 86.68182 98.711987 
L 100.07382 101.678882 
L 113.46582 103.584271 
L 126.85782 105.019108 
L 140.24982 101.975665 
L 153.64182 112.818193 
L 167.03382 113.628912 
L 180.42582 101.444845 
L 193.81782 93.450414 
" clip-path="url(#pc10246223a)" style="fill: none; stroke: #d9524f; stroke-width: 1.5; stroke-linecap: square"/>
   </g>
   <g id="line2d_28">
    <path d="M -1 96.014024 
L 6.32982 96.014024 
L 19.72182 96.014024 
L 33.11382 95.20654 
L 46.50582 93.33943 
L 59.89782 92.604022 
L 73.28982 96.746007 
L 86.68182 102.517328 
L 100.07382 106.156392 
L 113.46582 108.466559 
L 126.85782 110.135115 
L 140.24982 106.544724 
L 153.64182 119.344807 
L 167.03382 120.121928 
L 180.42582 105.485036 
L 193.81782 96.015288 
" clip-path="url(#pc10246223a)" style="fill: none; stroke: #d9524f; stroke-width: 1.5; stroke-linecap: square"/>
   </g>
   <g id="line2d_29">
    <path d="M -1 97.842914 
L 6.32982 97.842914 
L 19.72182 97.842914 
L 33.11382 96.958053 
L 46.50582 94.928075 
L 59.89782 94.148513 
L 73.28982 98.74445 
L 86.68182 105.25877 
L 100.07382 109.372905 
L 113.46582 111.94998 
L 126.85782 113.719419 
L 140.24982 109.841944 
L 153.64182 123.666365 
L 167.03382 124.264668 
L 180.42582 108.125333 
L 193.81782 97.844549 
" clip-path="url(#pc10246223a)" style="fill: none; stroke: #d9524f; stroke-width: 1.5; stroke-linecap: square"/>
   </g>
   <g id="line2d_30">
    <path d="M -1 99.671772 
L 6.32982 99.671772 
L 19.72182 99.671772 
L 33.11382 98.70953 
L 46.50582 96.516667 
L 59.89782 95.692938 
L 73.28982 100.742834 
L 86.68182 108.000118 
L 100.07382 112.589295 
L 113.46582 115.433278 
L 126.85782 117.303641 
L 140.24982 113.139022 
L 153.64182 127.987919 
L 167.03382 128.407387 
L 180.42582 110.76563 
L 193.81782 99.673777 
" clip-path="url(#pc10246223a)" style="fill: none; stroke: #d9524f; stroke-width: 1.5; stroke-linecap: square"/>
   </g>
   <g id="line2d_31">
    <path d="M -1 100.726886 
L 6.32982 100.726886 
L 19.72182 100.726886 
L 33.11382 99.743085 
L 46.50582 97.522338 
L 59.89782 96.715025 
L 73.28982 101.953539 
L 86.68182 109.624987 
L 100.07382 114.484394 
L 113.46582 117.452576 
L 126.85782 119.287124 
L 140.24982 115.103442 
L 153.64182 130.021145 
L 167.03382 130.116233 
L 180.42582 111.942944 
L 193.81782 100.72926 
" clip-path="url(#pc10246223a)" style="fill: none; stroke: #d9524f; stroke-width: 1.5; stroke-linecap: square"/>
   </g>
   <g id="line2d_32">
    <path d="M -1 101.781992 
L 6.32982 101.781992 
L 19.72182 101.781992 
L 33.11382 100.776628 
L 46.50582 98.527982 
L 59.89782 97.737073 
L 73.28982 103.164219 
L 86.68182 111.249826 
L 100.07382 116.379454 
L 113.46582 119.471841 
L 126.85782 121.270598 
L 140.24982 117.067812 
L 153.64182 132.054323 
L 167.03382 131.824889 
L 180.42582 113.12022 
L 193.81782 101.784735 
" clip-path="url(#pc10246223a)" style="fill: none; stroke: #d9524f; stroke-width: 1.5; stroke-linecap: square"/>
   </g>
   <g id="line2d_33">
    <path d="M -1 102.836897 
L 6.32982 102.836897 
L 19.72182 102.836897 
L 33.11382 101.809979 
L 46.50582 99.533445 
L 59.89782 98.758936 
L 73.28982 104.374675 
L 86.68182 112.874353 
L 100.07382 118.274146 
L 113.46582 121.490712 
L 126.85782 123.253678 
L 140.24982 119.031797 
L 153.64182 134.086947 
L 167.03382 133.532836 
L 180.42582 114.297137 
L 193.81782 102.840009 
" clip-path="url(#pc10246223a)" style="fill: none; stroke: #d9524f; stroke-width: 1.5; stroke-linecap: square"/>
   </g>
   <g id="line2d_34">
    <path d="M -1 103.398617 
L 6.32982 103.398617 
L 19.72182 103.398617 
L 33.11382 102.385716 
L 46.50582 100.167301 
L 59.89782 99.447767 
L 73.28982 105.08286 
L 86.68182 113.78647 
L 100.07382 119.325354 
L 113.46582 122.574858 
L 126.85782 124.215012 
L 140.24982 120.144893 
L 153.64182 134.659995 
L 167.03382 133.689964 
L 180.42582 114.542054 
L 193.81782 103.402097 
" clip-path="url(#pc10246223a)" style="fill: none; stroke: #d9524f; stroke-width: 1.5; stroke-linecap: square"/>
   </g>
   <g id="line2d_35">
    <path d="M -1 94.321661 
L 6.32982 94.321661 
L 19.72182 94.321661 
L 33.11382 93.582328 
L 46.50582 91.855333 
L 59.89782 91.15365 
L 73.28982 94.886178 
L 86.68182 99.966033 
L 100.07382 103.160133 
L 113.46582 105.22361 
L 126.85782 106.81037 
L 140.24982 103.46926 
L 153.64182 115.368234 
L 167.03382 116.341187 
L 180.42582 103.086958 
L 193.81782 94.322555 
" clip-path="url(#pc10246223a)" style="fill: none; stroke: #d9524f; stroke-width: 1.5; stroke-linecap: square"/>
   </g>
   <g id="line2d_36">
    <path d="M -1 99.078342 
L 6.32982 99.078342 
L 19.72182 99.078342 
L 33.11382 98.048144 
L 46.50582 95.643357 
L 59.89782 94.66701 
L 73.28982 99.865018 
L 86.68182 106.951008 
L 100.07382 111.41289 
L 113.46582 114.29899 
L 126.85782 116.522933 
L 140.24982 111.846401 
L 153.64182 128.550837 
L 167.03382 129.936554 
L 180.42582 111.322536 
L 193.81782 99.07961 
" clip-path="url(#pc10246223a)" style="fill: none; stroke: #d9524f; stroke-width: 1.5; stroke-linecap: square"/>
   </g>
   <g id="line2d_37">
    <path d="M -1 102.142274 
L 6.32982 102.142274 
L 19.72182 102.142274 
L 33.11382 100.889417 
L 46.50582 97.947064 
L 59.89782 96.729823 
L 73.28982 102.98363 
L 86.68182 111.383882 
L 100.07382 116.668257 
L 113.46582 120.130033 
L 126.85782 122.909087 
L 140.24982 117.146928 
L 153.64182 137.753445 
L 167.03382 139.747303 
L 180.42582 117.158648 
L 193.81782 102.143545 
" clip-path="url(#pc10246223a)" style="fill: none; stroke: #d9524f; stroke-width: 1.5; stroke-linecap: square"/>
   </g>
   <g id="line2d_38">
    <path d="M -1 105.205609 
L 6.32982 105.205609 
L 19.72182 105.205609 
L 33.11382 103.730163 
L 46.50582 100.250394 
L 59.89782 98.792317 
L 73.28982 106.101626 
L 86.68182 115.815639 
L 100.07382 121.92212 
L 113.46582 125.959267 
L 126.85782 129.293117 
L 140.24982 122.445929 
L 153.64182 146.951924 
L 167.03382 149.553411 
L 180.42582 122.99296 
L 193.81782 105.206884 
" clip-path="url(#pc10246223a)" style="fill: none; stroke: #d9524f; stroke-width: 1.5; stroke-linecap: square"/>
   </g>
   <g id="line2d_39">
    <path d="M -1 108.268552 
L 6.32982 108.268552 
L 19.72182 108.268552 
L 33.11382 106.570571 
L 46.50582 102.553503 
L 59.89782 100.854634 
L 73.28982 109.219215 
L 86.68182 120.24657 
L 100.07382 127.174819 
L 113.46582 131.787067 
L 126.85782 135.675422 
L 140.24982 127.743744 
L 153.64182 156.146797 
L 167.03382 159.35542 
L 180.42582 128.825837 
L 193.81782 108.269831 
" clip-path="url(#pc10246223a)" style="fill: none; stroke: #d9524f; stroke-width: 1.5; stroke-linecap: square"/>
   </g>
   <g id="line2d_40">
    <path d="M -1 102.433163 
L 6.32982 102.433163 
L 19.72182 102.433163 
L 33.11382 101.27161 
L 46.50582 98.596748 
L 59.89782 97.5567 
L 73.28982 103.553892 
L 86.68182 111.985194 
L 100.07382 117.305849 
L 113.46582 120.659648 
L 126.85782 123.018676 
L 140.24982 117.896131 
L 153.64182 136.160614 
L 167.03382 137.100159 
L 180.42582 115.988585 
L 193.81782 102.435174 
" clip-path="url(#pc10246223a)" style="fill: none; stroke: #d9524f; stroke-width: 1.5; stroke-linecap: square"/>
   </g>
   <g id="line2d_41">
    <path d="M -1 104.597147 
L 6.32982 104.597147 
L 19.72182 104.597147 
L 33.11382 103.44322 
L 46.50582 100.859599 
L 59.89782 99.947339 
L 73.28982 106.167308 
L 86.68182 115.417294 
L 100.07382 121.285175 
L 113.46582 124.827638 
L 126.85782 126.901485 
L 140.24982 122.069248 
L 153.64182 139.298631 
L 167.03382 139.069837 
L 180.42582 117.62412 
L 193.81782 104.600264 
" clip-path="url(#pc10246223a)" style="fill: none; stroke: #d9524f; stroke-width: 1.5; stroke-linecap: square"/>
   </g>
   <g id="line2d_42">
    <path d="M -1 105.764579 
L 6.32982 105.764579 
L 19.72182 105.764579 
L 33.11382 104.580917 
L 46.50582 101.949699 
L 59.89782 101.045042 
L 73.28982 107.492691 
L 86.68182 117.206288 
L 100.07382 123.375728 
L 113.46582 127.06418 
L 126.85782 129.12245 
L 140.24982 124.231076 
L 153.64182 141.671938 
L 167.03382 141.137346 
L 180.42582 119.014495 
L 193.81782 105.768066 
" clip-path="url(#pc10246223a)" style="fill: none; stroke: #d9524f; stroke-width: 1.5; stroke-linecap: square"/>
   </g>
   <g id="line2d_43">
    <path d="M -1 89.557967 
L 6.32982 89.557967 
L 19.72182 89.557967 
L 33.11382 88.919151 
L 46.50582 87.636044 
L 59.89782 88.175157 
L 73.28982 94.595264 
L 86.68182 104.123199 
L 100.07382 107.53307 
L 113.46582 108.123174 
L 126.85782 106.955727 
L 140.24982 101.705972 
L 153.64182 98.445234 
L 167.03382 95.386812 
L 180.42582 91.094133 
L 193.81782 89.557947 
" clip-path="url(#pc10246223a)" style="fill: none; stroke: #5cb85c; stroke-width: 1.5; stroke-linecap: square"/>
   </g>
   <g id="line2d_44">
    <path d="M -1 102.116377 
L 6.32982 102.116377 
L 19.72182 102.116377 
L 33.11382 99.982425 
L 46.50582 95.722832 
L 59.89782 97.139279 
L 73.28982 117.386512 
L 86.68182 148.225877 
L 100.07382 160.439467 
L 113.46582 163.472727 
L 126.85782 160.420821 
L 140.24982 144.485201 
L 153.64182 139.206226 
L 167.03382 128.902138 
L 180.42582 109.688679 
L 193.81782 102.116256 
" clip-path="url(#pc10246223a)" style="fill: none; stroke: #5cb85c; stroke-width: 1.5; stroke-linecap: square"/>
   </g>
   <g id="line2d_45">
    <path d="M -1 87.60884 
L 6.32982 87.60884 
L 19.72182 87.60884 
L 33.11382 87.386736 
L 46.50582 87.337548 
L 59.89782 87.899042 
L 73.28982 90.686264 
L 86.68182 97.742952 
L 100.07382 102.358433 
L 113.46582 104.29663 
L 126.85782 103.092824 
L 140.24982 103.68322 
L 153.64182 101.632103 
L 167.03382 94.704184 
L 180.42582 87.503274 
L 193.81782 87.608506 
" clip-path="url(#pc10246223a)" style="fill: none; stroke: #337ab7; stroke-width: 1.5; stroke-linecap: square"/>
   </g>
   <g id="line2d_46">
    <path d="M -1 91.23189 
L 6.32982 91.23189 
L 19.72182 91.23189 
L 33.11382 90.872275 
L 46.50582 90.688799 
L 59.89782 91.426749 
L 73.28982 95.573759 
L 86.68182 105.812328 
L 100.07382 112.52379 
L 113.46582 115.396329 
L 126.85782 113.803716 
L 140.24982 114.415919 
L 153.64182 112.32006 
L 167.03382 102.643782 
L 180.42582 91.670811 
L 193.81782 91.230632 
" clip-path="url(#pc10246223a)" style="fill: none; stroke: #337ab7; stroke-width: 1.5; stroke-linecap: square"/>
   </g>
   <g id="line2d_47">
    <path d="M -1 94.854831 
L 6.32982 94.854831 
L 19.72182 94.854831 
L 33.11382 94.357709 
L 46.50582 94.039984 
L 59.89782 94.95443 
L 73.28982 100.461254 
L 86.68182 113.881389 
L 100.07382 122.688271 
L 113.46582 126.494903 
L 126.85782 124.513873 
L 140.24982 125.147474 
L 153.64182 123.007912 
L 167.03382 110.58315 
L 180.42582 95.837839 
L 193.81782 94.852649 
" clip-path="url(#pc10246223a)" style="fill: none; stroke: #337ab7; stroke-width: 1.5; stroke-linecap: square"/>
   </g>
   <g id="line2d_48">
    <path d="M -1 96.718235 
L 6.32982 96.718235 
L 19.72182 96.718235 
L 33.11382 96.157503 
L 46.50582 95.706054 
L 59.89782 96.584221 
L 73.28982 102.46403 
L 86.68182 116.496931 
L 100.07382 125.696274 
L 113.46582 129.723956 
L 126.85782 127.827176 
L 140.24982 128.222381 
L 153.64182 126.939132 
L 167.03382 114.371917 
L 180.42582 98.373462 
L 193.81782 96.715133 
" clip-path="url(#pc10246223a)" style="fill: none; stroke: #337ab7; stroke-width: 1.5; stroke-linecap: square"/>
   </g>
   <g id="line2d_49">
    <path d="M -1 98.581584 
L 6.32982 98.581584 
L 19.72182 98.581584 
L 33.11382 97.957243 
L 46.50582 97.372096 
L 59.89782 98.214009 
L 73.28982 104.466782 
L 86.68182 119.111678 
L 100.07382 128.702349 
L 113.46582 132.950553 
L 126.85782 131.138719 
L 140.24982 131.294853 
L 153.64182 130.869804 
L 167.03382 118.160623 
L 180.42582 100.908688 
L 193.81782 98.577561 
" clip-path="url(#pc10246223a)" style="fill: none; stroke: #337ab7; stroke-width: 1.5; stroke-linecap: square"/>
   </g>
   <g id="line2d_50">
    <path d="M -1 99.54998 
L 6.32982 99.54998 
L 19.72182 99.54998 
L 33.11382 98.899668 
L 46.50582 98.181291 
L 59.89782 98.878964 
L 73.28982 105.003103 
L 86.68182 118.956207 
L 100.07382 128.075095 
L 113.46582 132.182356 
L 126.85782 130.693617 
L 140.24982 130.481003 
L 153.64182 131.363777 
L 167.03382 119.83467 
L 180.42582 102.612974 
L 193.81782 99.545041 
" clip-path="url(#pc10246223a)" style="fill: none; stroke: #337ab7; stroke-width: 1.5; stroke-linecap: square"/>
   </g>
   <g id="line2d_51">
    <path d="M -1 100.518342 
L 6.32982 100.518342 
L 19.72182 100.518342 
L 33.11382 99.842057 
L 46.50582 98.990472 
L 59.89782 99.54392 
L 73.28982 105.539368 
L 86.68182 118.799618 
L 100.07382 127.445239 
L 113.46582 131.410856 
L 126.85782 130.246079 
L 140.24982 129.663903 
L 153.64182 131.856843 
L 167.03382 121.508701 
L 180.42582 104.316914 
L 193.81782 100.512487 
" clip-path="url(#pc10246223a)" style="fill: none; stroke: #337ab7; stroke-width: 1.5; stroke-linecap: square"/>
   </g>
   <g id="line2d_52">
    <path d="M -1 101.486712 
L 6.32982 101.486712 
L 19.72182 101.486712 
L 33.11382 100.784454 
L 46.50582 99.799674 
L 59.89782 100.208901 
L 73.28982 106.07559 
L 86.68182 118.641869 
L 100.07382 126.812707 
L 113.46582 130.635972 
L 126.85782 129.796037 
L 140.24982 128.84347 
L 153.64182 132.348989 
L 167.03382 123.182784 
L 180.42582 106.020589 
L 193.81782 101.47994 
" clip-path="url(#pc10246223a)" style="fill: none; stroke: #337ab7; stroke-width: 1.5; stroke-linecap: square"/>
   </g>
   <g id="line2d_53">
    <path d="M -1 102.02184 
L 6.32982 102.02184 
L 19.72182 102.02184 
L 33.11382 101.311781 
L 46.50582 100.194188 
L 59.89782 100.407361 
L 73.28982 105.90471 
L 86.68182 117.159137 
L 100.07382 124.451991 
L 113.46582 127.965246 
L 126.85782 127.559633 
L 140.24982 126.177768 
L 153.64182 131.200624 
L 167.03382 123.837457 
L 180.42582 107.320941 
L 193.81782 102.014155 
" clip-path="url(#pc10246223a)" style="fill: none; stroke: #337ab7; stroke-width: 1.5; stroke-linecap: square"/>
   </g>
   <g id="line2d_54">
    <path d="M -1 98.836143 
L 6.32982 98.836143 
L 19.72182 98.836143 
L 33.11382 98.171755 
L 46.50582 97.852921 
L 59.89782 99.249075 
L 73.28982 106.990243 
L 86.68182 126.229532 
L 100.07382 138.896563 
L 113.46582 144.320266 
L 126.85782 141.267897 
L 140.24982 142.489749 
L 153.64182 138.311643 
L 167.03382 119.979311 
L 180.42582 99.52827 
L 193.81782 98.833952 
" clip-path="url(#pc10246223a)" style="fill: none; stroke: #337ab7; stroke-width: 1.5; stroke-linecap: square"/>
   </g>
   <g id="line2d_55">
    <path d="M -1 101.287671 
L 6.32982 101.287671 
L 19.72182 101.287671 
L 33.11382 100.520226 
L 46.50582 100.200708 
L 59.89782 101.893673 
L 73.28982 111.012182 
L 86.68182 133.843636 
L 100.07382 148.8978 
L 113.46582 155.322588 
L 126.85782 151.606926 
L 140.24982 153.192929 
L 153.64182 147.753234 
L 167.03382 125.770258 
L 180.42582 101.800584 
L 193.81782 101.285476 
" clip-path="url(#pc10246223a)" style="fill: none; stroke: #337ab7; stroke-width: 1.5; stroke-linecap: square"/>
   </g>
   <g id="line2d_56">
    <path d="M -1 103.081046 
L 6.32982 103.081046 
L 19.72182 103.081046 
L 33.11382 102.238218 
L 46.50582 101.9182 
L 59.89782 103.828271 
L 73.28982 113.954191 
L 86.68182 139.41251 
L 100.07382 156.211911 
L 113.46582 163.368494 
L 126.85782 159.167969 
L 140.24982 161.020169 
L 153.64182 154.658211 
L 167.03382 130.00599 
L 180.42582 103.462868 
L 193.81782 103.078847 
" clip-path="url(#pc10246223a)" style="fill: none; stroke: #337ab7; stroke-width: 1.5; stroke-linecap: square"/>
   </g>
   <g id="line2d_57">
    <path d="M -1 103.081046 
L 6.32982 103.081046 
L 19.72182 103.081046 
L 33.11382 102.238218 
L 46.50582 101.9182 
L 59.89782 103.828271 
L 73.28982 113.954191 
L 86.68182 139.41251 
L 100.07382 156.211911 
L 113.46582 163.368494 
L 126.85782 159.167969 
L 140.24982 161.020169 
L 153.64182 154.658211 
L 167.03382 130.00599 
L 180.42582 103.462868 
L 193.81782 103.078847 
" clip-path="url(#pc10246223a)" style="fill: none; stroke: #337ab7; stroke-width: 1.5; stroke-linecap: square"/>
   </g>
   <g id="line2d_58">
    <path d="M -1 101.073692 
L 6.32982 101.073692 
L 19.72182 101.073692 
L 33.11382 100.315423 
L 46.50582 99.995967 
L 59.89782 101.662465 
L 73.28982 110.656383 
L 86.68182 133.148704 
L 100.07382 147.96553 
L 113.46582 154.287781 
L 126.85782 150.640216 
L 140.24982 152.188971 
L 153.64182 146.877336 
L 167.03382 125.249986 
L 180.42582 101.602543 
L 193.81782 101.071497 
" clip-path="url(#pc10246223a)" style="fill: none; stroke: #337ab7; stroke-width: 1.5; stroke-linecap: square"/>
   </g>
   <g id="line2d_59">
    <path d="M -1 101.54491 
L 6.32982 101.54491 
L 19.72182 101.54491 
L 33.11382 100.795902 
L 46.50582 100.209258 
L 59.89782 101.408905 
L 73.28982 109.323556 
L 86.68182 128.289279 
L 100.07382 140.741277 
L 113.46582 146.188374 
L 126.85782 143.587842 
L 140.24982 144.172367 
L 153.64182 142.260742 
L 167.03382 125.166565 
L 180.42582 103.659042 
L 193.81782 101.540876 
" clip-path="url(#pc10246223a)" style="fill: none; stroke: #337ab7; stroke-width: 1.5; stroke-linecap: square"/>
   </g>
   <g id="line2d_60">
    <path d="M -1 103.080107 
L 6.32982 103.080107 
L 19.72182 103.080107 
L 33.11382 102.266476 
L 46.50582 101.679055 
L 59.89782 103.064147 
L 73.28982 111.840654 
L 86.68182 133.050029 
L 100.07382 146.990208 
L 113.46582 153.061454 
L 126.85782 150.050306 
L 140.24982 150.857821 
L 153.64182 148.172571 
L 167.03382 128.799175 
L 180.42582 105.083845 
L 193.81782 103.076067 
" clip-path="url(#pc10246223a)" style="fill: none; stroke: #337ab7; stroke-width: 1.5; stroke-linecap: square"/>
   </g>
   <g id="line2d_61">
    <path d="M -1 105.326261 
L 6.32982 105.326261 
L 19.72182 105.326261 
L 33.11382 104.418088 
L 46.50582 103.829527 
L 59.89782 105.485912 
L 73.28982 115.52321 
L 86.68182 140.01427 
L 100.07382 156.130739 
L 113.46582 163.114632 
L 126.85782 159.503069 
L 140.24982 160.636656 
L 153.64182 156.820133 
L 167.03382 134.113441 
L 180.42582 107.168522 
L 193.81782 105.322213 
" clip-path="url(#pc10246223a)" style="fill: none; stroke: #337ab7; stroke-width: 1.5; stroke-linecap: square"/>
   </g>
   <g id="line2d_62">
    <path d="M -1 102.034576 
L 6.32982 102.034576 
L 19.72182 102.034576 
L 33.11382 101.265021 
L 46.50582 100.678132 
L 59.89782 101.936731 
L 73.28982 110.124723 
L 86.68182 129.797037 
L 100.07382 142.713555 
L 113.46582 148.35444 
L 126.85782 145.626457 
L 140.24982 146.280256 
L 153.64182 144.12798 
L 167.03382 126.319886 
L 180.42582 104.113592 
L 193.81782 102.03054 
" clip-path="url(#pc10246223a)" style="fill: none; stroke: #337ab7; stroke-width: 1.5; stroke-linecap: square"/>
   </g>
   <g id="line2d_63">
    <path d="M -1 102.920611 
L 6.32982 102.920611 
L 19.72182 102.920611 
L 33.11382 102.158202 
L 46.50582 101.172217 
L 59.89782 101.753051 
L 73.28982 108.415956 
L 86.68182 123.024716 
L 100.07382 132.526292 
L 113.46582 136.90275 
L 126.85782 135.70288 
L 140.24982 134.942877 
L 153.64182 137.777553 
L 167.03382 126.557279 
L 180.42582 107.354481 
L 193.81782 102.91383 
" clip-path="url(#pc10246223a)" style="fill: none; stroke: #337ab7; stroke-width: 1.5; stroke-linecap: square"/>
   </g>
   <g id="line2d_64">
    <path d="M -1 102.738559 
L 6.32982 102.738559 
L 19.72182 102.738559 
L 33.11382 101.998451 
L 46.50582 100.880182 
L 59.89782 101.178928 
L 73.28982 107.073249 
L 86.68182 119.342424 
L 100.07382 127.293689 
L 113.46582 131.080149 
L 126.85782 130.497405 
L 140.24982 129.209818 
L 153.64182 133.903886 
L 167.03382 125.522552 
L 180.42582 107.988127 
L 193.81782 102.730869 
" clip-path="url(#pc10246223a)" style="fill: none; stroke: #337ab7; stroke-width: 1.5; stroke-linecap: square"/>
   </g>
   <g id="line2d_65">
    <path d="M -1 48.927273 
L 193.81782 48.927273 
" clip-path="url(#pc10246223a)" style="fill: none; stroke-dasharray: 1.5,2.475; stroke-dashoffset: 0; stroke: #d9524f; stroke-width: 1.5"/>
   </g>
   <g id="line2d_66">
    <path d="M -1 158.89124 
L 193.81782 158.89124 
" clip-path="url(#pc10246223a)" style="fill: none; stroke-dasharray: 1.5,2.475; stroke-dashoffset: 0; stroke: #5cb85c; stroke-width: 1.5"/>
   </g>
   <g id="patch_3">
    <path d="M 27 169.2 
L 27 43.2 
" style="fill: none; stroke: #000000; stroke-width: 0.8; stroke-linejoin: miter; stroke-linecap: square"/>
   </g>
   <g id="patch_4">
    <path d="M 194.4 169.2 
L 194.4 43.2 
" style="fill: none; stroke: #000000; stroke-width: 0.8; stroke-linejoin: miter; stroke-linecap: square"/>
   </g>
   <g id="patch_5">
    <path d="M 27 169.2 
L 194.4 169.2 
" style="fill: none; stroke: #000000; stroke-width: 0.8; stroke-linejoin: miter; stroke-linecap: square"/>
   </g>
   <g id="patch_6">
    <path d="M 27 43.2 
L 194.4 43.2 
" style="fill: none; stroke: #000000; stroke-width: 0.8; stroke-linejoin: miter; stroke-linecap: square"/>
   </g>
  </g>
  <g id="axes_2">
   <g id="patch_7">
    <path d="M 27 320.4 
L 194.4 320.4 
L 194.4 194.4 
L 27 194.4 
z
" style="fill: #ffffff"/>
   </g>
   <g id="matplotlib.axis_3">
    <g id="xtick_8">
     <g id="line2d_67">
      <path d="M 27 320.4 
L 27 194.4 
" clip-path="url(#p92885356bc)" style="fill: none; stroke: #b0b0b0; stroke-width: 0.8; stroke-linecap: square"/>
     </g>
     <g id="line2d_68">
      <g>
       <use xlink:href="#mfdc75c552a" x="27" y="320.4" style="stroke: #000000; stroke-width: 0.8"/>
      </g>
     </g>
     <g id="text_14">
      <!-- 0 -->
      <g transform="translate(24.5 334.34375)scale(0.1 -0.1)">
       <use xlink:href="#TimesNewRomanPSMT-30"/>
      </g>
     </g>
    </g>
    <g id="xtick_9">
     <g id="line2d_69">
      <path d="M 54.9 320.4 
L 54.9 194.4 
" clip-path="url(#p92885356bc)" style="fill: none; stroke: #b0b0b0; stroke-width: 0.8; stroke-linecap: square"/>
     </g>
     <g id="line2d_70">
      <g>
       <use xlink:href="#mfdc75c552a" x="54.9" y="320.4" style="stroke: #000000; stroke-width: 0.8"/>
      </g>
     </g>
     <g id="text_15">
      <!-- 4 -->
      <g transform="translate(52.4 334.34375)scale(0.1 -0.1)">
       <use xlink:href="#TimesNewRomanPSMT-34"/>
      </g>
     </g>
    </g>
    <g id="xtick_10">
     <g id="line2d_71">
      <path d="M 82.8 320.4 
L 82.8 194.4 
" clip-path="url(#p92885356bc)" style="fill: none; stroke: #b0b0b0; stroke-width: 0.8; stroke-linecap: square"/>
     </g>
     <g id="line2d_72">
      <g>
       <use xlink:href="#mfdc75c552a" x="82.8" y="320.4" style="stroke: #000000; stroke-width: 0.8"/>
      </g>
     </g>
     <g id="text_16">
      <!-- 8 -->
      <g transform="translate(80.3 334.34375)scale(0.1 -0.1)">
       <use xlink:href="#TimesNewRomanPSMT-38"/>
      </g>
     </g>
    </g>
    <g id="xtick_11">
     <g id="line2d_73">
      <path d="M 110.7 320.4 
L 110.7 194.4 
" clip-path="url(#p92885356bc)" style="fill: none; stroke: #b0b0b0; stroke-width: 0.8; stroke-linecap: square"/>
     </g>
     <g id="line2d_74">
      <g>
       <use xlink:href="#mfdc75c552a" x="110.7" y="320.4" style="stroke: #000000; stroke-width: 0.8"/>
      </g>
     </g>
     <g id="text_17">
      <!-- 12 -->
      <g transform="translate(105.7 334.34375)scale(0.1 -0.1)">
       <use xlink:href="#TimesNewRomanPSMT-31"/>
       <use xlink:href="#TimesNewRomanPSMT-32" x="50"/>
      </g>
     </g>
    </g>
    <g id="xtick_12">
     <g id="line2d_75">
      <path d="M 138.6 320.4 
L 138.6 194.4 
" clip-path="url(#p92885356bc)" style="fill: none; stroke: #b0b0b0; stroke-width: 0.8; stroke-linecap: square"/>
     </g>
     <g id="line2d_76">
      <g>
       <use xlink:href="#mfdc75c552a" x="138.6" y="320.4" style="stroke: #000000; stroke-width: 0.8"/>
      </g>
     </g>
     <g id="text_18">
      <!-- 16 -->
      <g transform="translate(133.6 334.34375)scale(0.1 -0.1)">
       <use xlink:href="#TimesNewRomanPSMT-31"/>
       <use xlink:href="#TimesNewRomanPSMT-36" x="50"/>
      </g>
     </g>
    </g>
    <g id="xtick_13">
     <g id="line2d_77">
      <path d="M 166.5 320.4 
L 166.5 194.4 
" clip-path="url(#p92885356bc)" style="fill: none; stroke: #b0b0b0; stroke-width: 0.8; stroke-linecap: square"/>
     </g>
     <g id="line2d_78">
      <g>
       <use xlink:href="#mfdc75c552a" x="166.5" y="320.4" style="stroke: #000000; stroke-width: 0.8"/>
      </g>
     </g>
     <g id="text_19">
      <!-- 20 -->
      <g transform="translate(161.5 334.34375)scale(0.1 -0.1)">
       <use xlink:href="#TimesNewRomanPSMT-32"/>
       <use xlink:href="#TimesNewRomanPSMT-30" x="50"/>
      </g>
     </g>
    </g>
    <g id="xtick_14">
     <g id="line2d_79">
      <path d="M 194.4 320.4 
L 194.4 194.4 
" clip-path="url(#p92885356bc)" style="fill: none; stroke: #b0b0b0; stroke-width: 0.8; stroke-linecap: square"/>
     </g>
     <g id="line2d_80">
      <g>
       <use xlink:href="#mfdc75c552a" x="194.4" y="320.4" style="stroke: #000000; stroke-width: 0.8"/>
      </g>
     </g>
     <g id="text_20">
      <!-- 24 -->
      <g transform="translate(189.4 334.34375)scale(0.1 -0.1)">
       <use xlink:href="#TimesNewRomanPSMT-32"/>
       <use xlink:href="#TimesNewRomanPSMT-34" x="50"/>
      </g>
     </g>
    </g>
    <g id="text_21">
     <!-- Time (s) -->
     <g transform="translate(93.797656 347.426562)scale(0.1 -0.1)">
      <defs>
       <path id="TimesNewRomanPSMT-54" d="M 3703 4238 
L 3750 3244 
L 3631 3244 
Q 3597 3506 3538 3619 
Q 3441 3800 3280 3886 
Q 3119 3972 2856 3972 
L 2259 3972 
L 2259 734 
Q 2259 344 2344 247 
Q 2463 116 2709 116 
L 2856 116 
L 2856 0 
L 1059 0 
L 1059 116 
L 1209 116 
Q 1478 116 1591 278 
Q 1659 378 1659 734 
L 1659 3972 
L 1150 3972 
Q 853 3972 728 3928 
Q 566 3869 450 3700 
Q 334 3531 313 3244 
L 194 3244 
L 244 4238 
L 3703 4238 
z
" transform="scale(0.015625)"/>
       <path id="TimesNewRomanPSMT-69" d="M 928 4444 
Q 1059 4444 1151 4351 
Q 1244 4259 1244 4128 
Q 1244 3997 1151 3903 
Q 1059 3809 928 3809 
Q 797 3809 703 3903 
Q 609 3997 609 4128 
Q 609 4259 701 4351 
Q 794 4444 928 4444 
z
M 1188 2947 
L 1188 647 
Q 1188 378 1227 289 
Q 1266 200 1342 156 
Q 1419 113 1622 113 
L 1622 0 
L 231 0 
L 231 113 
Q 441 113 512 153 
Q 584 194 626 287 
Q 669 381 669 647 
L 669 1750 
Q 669 2216 641 2353 
Q 619 2453 572 2492 
Q 525 2531 444 2531 
Q 356 2531 231 2484 
L 188 2597 
L 1050 2947 
L 1188 2947 
z
" transform="scale(0.015625)"/>
       <path id="TimesNewRomanPSMT-6d" d="M 1050 2338 
Q 1363 2650 1419 2697 
Q 1559 2816 1721 2881 
Q 1884 2947 2044 2947 
Q 2313 2947 2506 2790 
Q 2700 2634 2766 2338 
Q 3088 2713 3309 2830 
Q 3531 2947 3766 2947 
Q 3994 2947 4170 2830 
Q 4347 2713 4450 2447 
Q 4519 2266 4519 1878 
L 4519 647 
Q 4519 378 4559 278 
Q 4591 209 4675 161 
Q 4759 113 4950 113 
L 4950 0 
L 3538 0 
L 3538 113 
L 3597 113 
Q 3781 113 3884 184 
Q 3956 234 3988 344 
Q 4000 397 4000 647 
L 4000 1878 
Q 4000 2228 3916 2372 
Q 3794 2572 3525 2572 
Q 3359 2572 3192 2489 
Q 3025 2406 2788 2181 
L 2781 2147 
L 2788 2013 
L 2788 647 
Q 2788 353 2820 281 
Q 2853 209 2943 161 
Q 3034 113 3253 113 
L 3253 0 
L 1806 0 
L 1806 113 
Q 2044 113 2133 169 
Q 2222 225 2256 338 
Q 2272 391 2272 647 
L 2272 1878 
Q 2272 2228 2169 2381 
Q 2031 2581 1784 2581 
Q 1616 2581 1450 2491 
Q 1191 2353 1050 2181 
L 1050 647 
Q 1050 366 1089 281 
Q 1128 197 1204 155 
Q 1281 113 1516 113 
L 1516 0 
L 100 0 
L 100 113 
Q 297 113 375 155 
Q 453 197 493 289 
Q 534 381 534 647 
L 534 1741 
Q 534 2213 506 2350 
Q 484 2453 437 2492 
Q 391 2531 309 2531 
Q 222 2531 100 2484 
L 53 2597 
L 916 2947 
L 1050 2947 
L 1050 2338 
z
" transform="scale(0.015625)"/>
      </defs>
      <use xlink:href="#TimesNewRomanPSMT-54"/>
      <use xlink:href="#TimesNewRomanPSMT-69" x="57.583984"/>
      <use xlink:href="#TimesNewRomanPSMT-6d" x="85.367188"/>
      <use xlink:href="#TimesNewRomanPSMT-65" x="163.150391"/>
      <use xlink:href="#TimesNewRomanPSMT-20" x="207.535156"/>
      <use xlink:href="#TimesNewRomanPSMT-28" x="232.535156"/>
      <use xlink:href="#TimesNewRomanPSMT-73" x="265.835938"/>
      <use xlink:href="#TimesNewRomanPSMT-29" x="304.751953"/>
     </g>
    </g>
   </g>
   <g id="matplotlib.axis_4">
    <g id="ytick_6">
     <g id="line2d_81">
      <path d="M 27 319.849837 
L 194.4 319.849837 
" clip-path="url(#p92885356bc)" style="fill: none; stroke: #b0b0b0; stroke-width: 0.8; stroke-linecap: square"/>
     </g>
     <g id="line2d_82">
      <g>
       <use xlink:href="#mff03dfd7e0" x="27" y="319.849837" style="stroke: #000000; stroke-width: 0.8"/>
      </g>
     </g>
     <g id="text_22">
      <!-- 0 -->
      <g transform="translate(15 323.321712)scale(0.1 -0.1)">
       <use xlink:href="#TimesNewRomanPSMT-30"/>
      </g>
     </g>
    </g>
    <g id="ytick_7">
     <g id="line2d_83">
      <path d="M 27 286.806409 
L 194.4 286.806409 
" clip-path="url(#p92885356bc)" style="fill: none; stroke: #b0b0b0; stroke-width: 0.8; stroke-linecap: square"/>
     </g>
     <g id="line2d_84">
      <g>
       <use xlink:href="#mff03dfd7e0" x="27" y="286.806409" style="stroke: #000000; stroke-width: 0.8"/>
      </g>
     </g>
     <g id="text_23">
      <!-- 200 -->
      <g transform="translate(5 290.278284)scale(0.1 -0.1)">
       <use xlink:href="#TimesNewRomanPSMT-32"/>
       <use xlink:href="#TimesNewRomanPSMT-30" x="50"/>
       <use xlink:href="#TimesNewRomanPSMT-30" x="100"/>
      </g>
     </g>
    </g>
    <g id="ytick_8">
     <g id="line2d_85">
      <path d="M 27 253.762981 
L 194.4 253.762981 
" clip-path="url(#p92885356bc)" style="fill: none; stroke: #b0b0b0; stroke-width: 0.8; stroke-linecap: square"/>
     </g>
     <g id="line2d_86">
      <g>
       <use xlink:href="#mff03dfd7e0" x="27" y="253.762981" style="stroke: #000000; stroke-width: 0.8"/>
      </g>
     </g>
     <g id="text_24">
      <!-- 400 -->
      <g transform="translate(5 257.234856)scale(0.1 -0.1)">
       <use xlink:href="#TimesNewRomanPSMT-34"/>
       <use xlink:href="#TimesNewRomanPSMT-30" x="50"/>
       <use xlink:href="#TimesNewRomanPSMT-30" x="100"/>
      </g>
     </g>
    </g>
    <g id="ytick_9">
     <g id="line2d_87">
      <path d="M 27 220.719554 
L 194.4 220.719554 
" clip-path="url(#p92885356bc)" style="fill: none; stroke: #b0b0b0; stroke-width: 0.8; stroke-linecap: square"/>
     </g>
     <g id="line2d_88">
      <g>
       <use xlink:href="#mff03dfd7e0" x="27" y="220.719554" style="stroke: #000000; stroke-width: 0.8"/>
      </g>
     </g>
     <g id="text_25">
      <!-- 600 -->
      <g transform="translate(5 224.191429)scale(0.1 -0.1)">
       <use xlink:href="#TimesNewRomanPSMT-36"/>
       <use xlink:href="#TimesNewRomanPSMT-30" x="50"/>
       <use xlink:href="#TimesNewRomanPSMT-30" x="100"/>
      </g>
     </g>
    </g>
    <g id="text_26">
     <!-- Currents (A) -->
     <g transform="translate(-1.139063 282.810156)rotate(-90)scale(0.1 -0.1)">
      <defs>
       <path id="TimesNewRomanPSMT-43" d="M 3853 4334 
L 3950 2894 
L 3853 2894 
Q 3659 3541 3300 3825 
Q 2941 4109 2438 4109 
Q 2016 4109 1675 3895 
Q 1334 3681 1139 3212 
Q 944 2744 944 2047 
Q 944 1472 1128 1050 
Q 1313 628 1683 403 
Q 2053 178 2528 178 
Q 2941 178 3256 354 
Q 3572 531 3950 1056 
L 4047 994 
Q 3728 428 3303 165 
Q 2878 -97 2294 -97 
Q 1241 -97 663 684 
Q 231 1266 231 2053 
Q 231 2688 515 3219 
Q 800 3750 1298 4042 
Q 1797 4334 2388 4334 
Q 2847 4334 3294 4109 
Q 3425 4041 3481 4041 
Q 3566 4041 3628 4100 
Q 3709 4184 3744 4334 
L 3853 4334 
z
" transform="scale(0.015625)"/>
       <path id="TimesNewRomanPSMT-72" d="M 1038 2947 
L 1038 2303 
Q 1397 2947 1775 2947 
Q 1947 2947 2059 2842 
Q 2172 2738 2172 2600 
Q 2172 2478 2090 2393 
Q 2009 2309 1897 2309 
Q 1788 2309 1652 2417 
Q 1516 2525 1450 2525 
Q 1394 2525 1328 2463 
Q 1188 2334 1038 2041 
L 1038 669 
Q 1038 431 1097 309 
Q 1138 225 1241 169 
Q 1344 113 1538 113 
L 1538 0 
L 72 0 
L 72 113 
Q 291 113 397 181 
Q 475 231 506 341 
Q 522 394 522 644 
L 522 1753 
Q 522 2253 501 2348 
Q 481 2444 426 2487 
Q 372 2531 291 2531 
Q 194 2531 72 2484 
L 41 2597 
L 906 2947 
L 1038 2947 
z
" transform="scale(0.015625)"/>
       <path id="TimesNewRomanPSMT-6e" d="M 1034 2341 
Q 1538 2947 1994 2947 
Q 2228 2947 2397 2830 
Q 2566 2713 2666 2444 
Q 2734 2256 2734 1869 
L 2734 647 
Q 2734 375 2778 278 
Q 2813 200 2889 156 
Q 2966 113 3172 113 
L 3172 0 
L 1756 0 
L 1756 113 
L 1816 113 
Q 2016 113 2095 173 
Q 2175 234 2206 353 
Q 2219 400 2219 647 
L 2219 1819 
Q 2219 2209 2117 2386 
Q 2016 2563 1775 2563 
Q 1403 2563 1034 2156 
L 1034 647 
Q 1034 356 1069 288 
Q 1113 197 1189 155 
Q 1266 113 1500 113 
L 1500 0 
L 84 0 
L 84 113 
L 147 113 
Q 366 113 442 223 
Q 519 334 519 647 
L 519 1709 
Q 519 2225 495 2337 
Q 472 2450 423 2490 
Q 375 2531 294 2531 
Q 206 2531 84 2484 
L 38 2597 
L 900 2947 
L 1034 2947 
L 1034 2341 
z
" transform="scale(0.015625)"/>
       <path id="TimesNewRomanPSMT-41" d="M 2928 1419 
L 1288 1419 
L 1000 750 
Q 894 503 894 381 
Q 894 284 986 211 
Q 1078 138 1384 116 
L 1384 0 
L 50 0 
L 50 116 
Q 316 163 394 238 
Q 553 388 747 847 
L 2238 4334 
L 2347 4334 
L 3822 809 
Q 4000 384 4145 257 
Q 4291 131 4550 116 
L 4550 0 
L 2878 0 
L 2878 116 
Q 3131 128 3220 200 
Q 3309 272 3309 375 
Q 3309 513 3184 809 
L 2928 1419 
z
M 2841 1650 
L 2122 3363 
L 1384 1650 
L 2841 1650 
z
" transform="scale(0.015625)"/>
      </defs>
      <use xlink:href="#TimesNewRomanPSMT-43"/>
      <use xlink:href="#TimesNewRomanPSMT-75" x="66.699219"/>
      <use xlink:href="#TimesNewRomanPSMT-72" x="116.699219"/>
      <use xlink:href="#TimesNewRomanPSMT-72" x="150"/>
      <use xlink:href="#TimesNewRomanPSMT-65" x="183.300781"/>
      <use xlink:href="#TimesNewRomanPSMT-6e" x="227.685547"/>
      <use xlink:href="#TimesNewRomanPSMT-74" x="277.685547"/>
      <use xlink:href="#TimesNewRomanPSMT-73" x="305.46875"/>
      <use xlink:href="#TimesNewRomanPSMT-20" x="344.384766"/>
      <use xlink:href="#TimesNewRomanPSMT-28" x="369.384766"/>
      <use xlink:href="#TimesNewRomanPSMT-41" x="402.685547"/>
      <use xlink:href="#TimesNewRomanPSMT-29" x="474.902344"/>
     </g>
    </g>
   </g>
   <g id="line2d_89">
    <path d="M -1 292.276687 
L 6.32982 292.276687 
L 19.72182 292.276687 
L 33.11382 293.979848 
L 46.50582 297.978901 
L 59.89782 299.626806 
L 73.28982 291.095642 
L 86.68182 279.659175 
L 100.07382 272.503989 
L 113.46582 267.850269 
L 126.85782 264.164824 
L 140.24982 271.83708 
L 153.64182 244.568034 
L 167.03382 242.051388 
L 180.42582 272.038019 
L 193.81782 292.2748 
" clip-path="url(#p92885356bc)" style="fill: none; stroke: #d9524f; stroke-width: 1.5; stroke-linecap: square"/>
   </g>
   <g id="line2d_90">
    <path d="M -1 292.062763 
L 6.32982 292.062763 
L 19.72182 292.062763 
L 33.11382 293.768426 
L 46.50582 297.767503 
L 59.89782 299.408215 
L 73.28982 290.843729 
L 86.68182 279.319476 
L 100.07382 272.105377 
L 113.46582 267.426949 
L 126.85782 263.758511 
L 140.24982 271.420979 
L 153.64182 244.19106 
L 167.03382 241.770024 
L 180.42582 271.830397 
L 193.81782 292.060762 
" clip-path="url(#p92885356bc)" style="fill: none; stroke: #d9524f; stroke-width: 1.5; stroke-linecap: square"/>
   </g>
   <g id="line2d_91">
    <path d="M -1 291.161023 
L 6.32982 291.161023 
L 19.72182 291.161023 
L 33.11382 292.900015 
L 46.50582 296.96595 
L 59.89782 298.620063 
L 73.28982 289.848251 
L 86.68182 277.966377 
L 100.07382 270.524246 
L 113.46582 265.723855 
L 126.85782 262.025994 
L 140.24982 269.796586 
L 153.64182 242.18565 
L 167.03382 239.894247 
L 180.42582 270.601188 
L 193.81782 291.158728 
" clip-path="url(#p92885356bc)" style="fill: none; stroke: #d9524f; stroke-width: 1.5; stroke-linecap: square"/>
   </g>
   <g id="line2d_92">
    <path d="M -1 312.152863 
L 6.32982 312.152863 
L 19.72182 312.152863 
L 33.11382 313.00043 
L 46.50582 314.664555 
L 59.89782 314.120018 
L 73.28982 306.120054 
L 86.68182 293.683076 
L 100.07382 288.602219 
L 113.46582 287.230939 
L 126.85782 288.372799 
L 140.24982 294.69427 
L 153.64182 296.003648 
L 167.03382 300.245784 
L 180.42582 308.867449 
L 193.81782 312.152915 
" clip-path="url(#p92885356bc)" style="fill: none; stroke: #5cb85c; stroke-width: 1.5; stroke-linecap: square"/>
   </g>
   <g id="line2d_93">
    <path d="M -1 312.158994 
L 6.32982 312.158994 
L 19.72182 312.158994 
L 33.11382 313.004957 
L 46.50582 314.666615 
L 59.89782 314.122594 
L 73.28982 306.142822 
L 86.68182 293.783629 
L 100.07382 288.756661 
L 113.46582 287.404619 
L 126.85782 288.53509 
L 140.24982 294.795127 
L 153.64182 296.103875 
L 167.03382 300.312264 
L 180.42582 308.884191 
L 193.81782 312.159045 
" clip-path="url(#p92885356bc)" style="fill: none; stroke: #5cb85c; stroke-width: 1.5; stroke-linecap: square"/>
   </g>
   <g id="line2d_94">
    <path d="M -1 312.172833 
L 6.32982 312.172833 
L 19.72182 312.172833 
L 33.11382 313.015844 
L 46.50582 314.672727 
L 59.89782 314.130088 
L 73.28982 306.188301 
L 86.68182 293.95985 
L 100.07382 289.014908 
L 113.46582 287.687946 
L 126.85782 288.796962 
L 140.24982 294.956255 
L 153.64182 296.245772 
L 167.03382 300.405798 
L 180.42582 308.91279 
L 193.81782 312.172884 
" clip-path="url(#p92885356bc)" style="fill: none; stroke: #5cb85c; stroke-width: 1.5; stroke-linecap: square"/>
   </g>
   <g id="line2d_95">
    <path d="M -1 306.751836 
L 6.32982 306.751836 
L 19.72182 306.751836 
L 33.11382 307.269654 
L 46.50582 307.535413 
L 59.89782 306.47321 
L 73.28982 300.50739 
L 86.68182 285.84614 
L 100.07382 276.31079 
L 113.46582 272.253149 
L 126.85782 274.513494 
L 140.24982 273.624423 
L 153.64182 276.643445 
L 167.03382 290.406547 
L 180.42582 306.090584 
L 193.81782 306.753666 
" clip-path="url(#p92885356bc)" style="fill: none; stroke: #337ab7; stroke-width: 1.5; stroke-linecap: square"/>
   </g>
   <g id="line2d_96">
    <path d="M -1 306.495821 
L 6.32982 306.495821 
L 19.72182 306.495821 
L 33.11382 307.02178 
L 46.50582 307.30987 
L 59.89782 306.26068 
L 73.28982 300.266989 
L 86.68182 285.609944 
L 100.07382 276.098045 
L 113.46582 272.046151 
L 126.85782 274.265073 
L 140.24982 273.429557 
L 153.64182 276.258271 
L 167.03382 289.919092 
L 180.42582 305.715711 
L 193.81782 306.497809 
" clip-path="url(#p92885356bc)" style="fill: none; stroke: #337ab7; stroke-width: 1.5; stroke-linecap: square"/>
   </g>
   <g id="line2d_97">
    <path d="M -1 306.436473 
L 6.32982 306.436473 
L 19.72182 306.436473 
L 33.11382 306.964858 
L 46.50582 307.25389 
L 59.89782 306.199223 
L 73.28982 300.175758 
L 86.68182 285.438284 
L 100.07382 275.868266 
L 113.46582 271.79046 
L 126.85782 274.025311 
L 140.24982 273.182186 
L 153.64182 276.036519 
L 167.03382 289.779648 
L 180.42582 305.655286 
L 193.81782 306.438445 
" clip-path="url(#p92885356bc)" style="fill: none; stroke: #337ab7; stroke-width: 1.5; stroke-linecap: square"/>
   </g>
   <g id="line2d_98">
    <path d="M -1 200.127273 
L 193.81782 200.127273 
" clip-path="url(#p92885356bc)" style="fill: none; stroke-dasharray: 1.5,2.475; stroke-dashoffset: 0; stroke: #d9524f; stroke-width: 1.5"/>
   </g>
   <g id="line2d_99">
    <path d="M -1 281.538616 
L 193.81782 281.538616 
" clip-path="url(#p92885356bc)" style="fill: none; stroke-dasharray: 1.5,2.475; stroke-dashoffset: 0; stroke: #5cb85c; stroke-width: 1.5"/>
   </g>
   <g id="line2d_100">
    <path d="M -1 248.016298 
L 193.81782 248.016298 
" clip-path="url(#p92885356bc)" style="fill: none; stroke-dasharray: 1.5,2.475; stroke-dashoffset: 0; stroke: #337ab7; stroke-width: 1.5"/>
   </g>
   <g id="patch_8">
    <path d="M 27 320.4 
L 27 194.4 
" style="fill: none; stroke: #000000; stroke-width: 0.8; stroke-linejoin: miter; stroke-linecap: square"/>
   </g>
   <g id="patch_9">
    <path d="M 194.4 320.4 
L 194.4 194.4 
" style="fill: none; stroke: #000000; stroke-width: 0.8; stroke-linejoin: miter; stroke-linecap: square"/>
   </g>
   <g id="patch_10">
    <path d="M 27 320.4 
L 194.4 320.4 
" style="fill: none; stroke: #000000; stroke-width: 0.8; stroke-linejoin: miter; stroke-linecap: square"/>
   </g>
   <g id="patch_11">
    <path d="M 27 194.4 
L 194.4 194.4 
" style="fill: none; stroke: #000000; stroke-width: 0.8; stroke-linejoin: miter; stroke-linecap: square"/>
   </g>
  </g>
 </g>
 <defs>
  <clipPath id="pc10246223a">
   <rect x="27" y="43.2" width="167.4" height="126"/>
  </clipPath>
  <clipPath id="p92885356bc">
   <rect x="27" y="194.4" width="167.4" height="126"/>
  </clipPath>
 </defs>
</svg>
